TITLE:   BC_EDL_Test_01 
FCM: NON-DROP FRAME
000001  D001C006_250614DZ                                                                                                                 V     C        09:06:28:16 09:06:38:14 01:00:00:00 01:00:09:22 
*FROM CLIP NAME:  D001C006_250614DZ 
*SOURCE FILE: D001C006_250614DZ
000002  D001C006_250614DZ                                                                                                                 A     C        09:06:28:16 09:06:38:14 01:00:00:00 01:00:09:22 
*FROM CLIP NAME:  D001C006_250614DZ 
*SOURCE FILE: D001C006_250614DZ
000003  D001C006_250614DZ                                                                                                                 A2    C        09:06:28:16 09:06:38:14 01:00:00:00 01:00:09:22 
*FROM CLIP NAME:  D001C006_250614DZ 
*SOURCE FILE: D001C006_250614DZ
000004  D001C006_250614DZ                                                                                                                 V     C        09:06:38:14 09:06:45:05 01:00:09:22 01:00:16:13 
*FROM CLIP NAME:  D001C006_250614DZ 
*SOURCE FILE: D001C006_250614DZ
000005  D001C006_250614DZ                                                                                                                 A     C        09:06:38:14 09:06:45:05 01:00:09:22 01:00:16:13 
*FROM CLIP NAME:  D001C006_250614DZ 
*SOURCE FILE: D001C006_250614DZ
000006  D001C006_250614DZ                                                                                                                 A2    C        09:06:38:14 09:06:45:05 01:00:09:22 01:00:16:13 
*FROM CLIP NAME:  D001C006_250614DZ 
*SOURCE FILE: D001C006_250614DZ
000007  D001C006_250614DZ                                                                                                                 V     C        09:06:45:05 09:06:53:20 01:00:16:13 01:00:25:04 
*FROM CLIP NAME:  D001C006_250614DZ 
*SOURCE FILE: D001C006_250614DZ
000008  D001C006_250614DZ                                                                                                                 A     C        09:06:45:05 09:06:53:20 01:00:16:13 01:00:25:04 
*FROM CLIP NAME:  D001C006_250614DZ 
*SOURCE FILE: D001C006_250614DZ
000009  D001C006_250614DZ                                                                                                                 A2    C        09:06:45:05 09:06:53:20 01:00:16:13 01:00:25:04 
*FROM CLIP NAME:  D001C006_250614DZ 
*SOURCE FILE: D001C006_250614DZ
000010  D001C006_250614DZ                                                                                                                 V     C        09:06:53:20 09:06:58:19 01:00:25:04 01:00:30:03 
*FROM CLIP NAME:  D001C006_250614DZ 
*SOURCE FILE: D001C006_250614DZ
000011  D001C006_250614DZ                                                                                                                 A     C        09:06:53:20 09:06:58:19 01:00:25:04 01:00:30:03 
*FROM CLIP NAME:  D001C006_250614DZ 
*SOURCE FILE: D001C006_250614DZ
000012  D001C006_250614DZ                                                                                                                 A2    C        09:06:53:20 09:06:58:19 01:00:25:04 01:00:30:03 
*FROM CLIP NAME:  D001C006_250614DZ 
*SOURCE FILE: D001C006_250614DZ
000013  D001C006_250614DZ                                                                                                                 V     C        09:06:58:19 09:07:02:18 01:00:30:03 01:00:34:02 
*FROM CLIP NAME:  D001C006_250614DZ 
*SOURCE FILE: D001C006_250614DZ
000014  D001C006_250614DZ                                                                                                                 A     C        09:06:58:19 09:07:02:18 01:00:30:03 01:00:34:02 
*FROM CLIP NAME:  D001C006_250614DZ 
*SOURCE FILE: D001C006_250614DZ
000015  D001C006_250614DZ                                                                                                                 A2    C        09:06:58:19 09:07:02:18 01:00:30:03 01:00:34:02 
*FROM CLIP NAME:  D001C006_250614DZ 
*SOURCE FILE: D001C006_250614DZ
000016  D001C006_250614DZ                                                                                                                 V     C        09:07:02:18 09:07:07:02 01:00:34:02 01:00:38:10 
*FROM CLIP NAME:  D001C006_250614DZ 
*SOURCE FILE: D001C006_250614DZ
000017  D001C006_250614DZ                                                                                                                 A     C        09:07:02:18 09:07:07:02 01:00:34:02 01:00:38:10 
*FROM CLIP NAME:  D001C006_250614DZ 
*SOURCE FILE: D001C006_250614DZ
000018  D001C006_250614DZ                                                                                                                 A2    C        09:07:02:18 09:07:07:02 01:00:34:02 01:00:38:10 
*FROM CLIP NAME:  D001C006_250614DZ 
*SOURCE FILE: D001C006_250614DZ
000019  D001C006_250614DZ                                                                                                                 V     C        09:07:07:02 09:07:15:01 01:00:38:10 01:00:46:09 
*FROM CLIP NAME:  D001C006_250614DZ 
*SOURCE FILE: D001C006_250614DZ
000020  D001C006_250614DZ                                                                                                                 A     C        09:07:07:02 09:07:15:01 01:00:38:10 01:00:46:09 
*FROM CLIP NAME:  D001C006_250614DZ 
*SOURCE FILE: D001C006_250614DZ
000021  D001C006_250614DZ                                                                                                                 A2    C        09:07:07:02 09:07:15:01 01:00:38:10 01:00:46:09 
*FROM CLIP NAME:  D001C006_250614DZ 
*SOURCE FILE: D001C006_250614DZ
000022  D001C006_250614DZ                                                                                                                 V     C        09:07:15:01 09:07:19:08 01:00:46:09 01:00:50:16 
*FROM CLIP NAME:  D001C006_250614DZ 
*SOURCE FILE: D001C006_250614DZ
000023  D001C006_250614DZ                                                                                                                 A     C        09:07:15:01 09:07:19:08 01:00:46:09 01:00:50:16 
*FROM CLIP NAME:  D001C006_250614DZ 
*SOURCE FILE: D001C006_250614DZ
000024  D001C006_250614DZ                                                                                                                 A2    C        09:07:15:01 09:07:19:08 01:00:46:09 01:00:50:16 
*FROM CLIP NAME:  D001C006_250614DZ 
*SOURCE FILE: D001C006_250614DZ
000025  D001C006_250614DZ                                                                                                                 V     C        09:07:19:08 09:07:25:15 01:00:50:16 01:00:56:23 
*FROM CLIP NAME:  D001C006_250614DZ 
*SOURCE FILE: D001C006_250614DZ
000026  D001C006_250614DZ                                                                                                                 A     C        09:07:19:08 09:07:25:15 01:00:50:16 01:00:56:23 
*FROM CLIP NAME:  D001C006_250614DZ 
*SOURCE FILE: D001C006_250614DZ
000027  D001C006_250614DZ                                                                                                                 A2    C        09:07:19:08 09:07:25:15 01:00:50:16 01:00:56:23 
*FROM CLIP NAME:  D001C006_250614DZ 
*SOURCE FILE: D001C006_250614DZ
000028  D001C006_250614DZ                                                                                                                 V     C        09:07:25:15 09:07:29:22 01:00:56:23 01:01:01:06 
*FROM CLIP NAME:  D001C006_250614DZ 
*SOURCE FILE: D001C006_250614DZ
000029  D001C006_250614DZ                                                                                                                 A     C        09:07:25:15 09:07:29:22 01:00:56:23 01:01:01:06 
*FROM CLIP NAME:  D001C006_250614DZ 
*SOURCE FILE: D001C006_250614DZ
000030  D001C006_250614DZ                                                                                                                 A2    C        09:07:25:15 09:07:29:22 01:00:56:23 01:01:01:06 
*FROM CLIP NAME:  D001C006_250614DZ 
*SOURCE FILE: D001C006_250614DZ
000031  D001C006_250614DZ                                                                                                                 V     C        09:07:29:22 09:07:34:22 01:01:01:06 01:01:06:06 
*FROM CLIP NAME:  D001C006_250614DZ 
*SOURCE FILE: D001C006_250614DZ
000032  D001C006_250614DZ                                                                                                                 A     C        09:07:29:22 09:07:34:22 01:01:01:06 01:01:06:06 
*FROM CLIP NAME:  D001C006_250614DZ 
*SOURCE FILE: D001C006_250614DZ
000033  D001C006_250614DZ                                                                                                                 A2    C        09:07:29:22 09:07:34:22 01:01:01:06 01:01:06:06 
*FROM CLIP NAME:  D001C006_250614DZ 
*SOURCE FILE: D001C006_250614DZ
000034  D001C006_250614DZ                                                                                                                 V     C        09:07:34:22 09:07:36:21 01:01:06:06 01:01:08:05 
*FROM CLIP NAME:  D001C006_250614DZ 
*SOURCE FILE: D001C006_250614DZ
000035  D001C006_250614DZ                                                                                                                 A     C        09:07:34:22 09:07:36:21 01:01:06:06 01:01:08:05 
*FROM CLIP NAME:  D001C006_250614DZ 
*SOURCE FILE: D001C006_250614DZ
000036  D001C006_250614DZ                                                                                                                 A2    C        09:07:34:22 09:07:36:21 01:01:06:06 01:01:08:05 
*FROM CLIP NAME:  D001C006_250614DZ 
*SOURCE FILE: D001C006_250614DZ
000037  D001C006_250614DZ                                                                                                                 V     C        09:07:36:21 09:07:50:19 01:01:08:05 01:01:22:03 
*FROM CLIP NAME:  D001C006_250614DZ 
*SOURCE FILE: D001C006_250614DZ
000038  D001C006_250614DZ                                                                                                                 A     C        09:07:36:21 09:07:50:19 01:01:08:05 01:01:22:03 
*FROM CLIP NAME:  D001C006_250614DZ 
*SOURCE FILE: D001C006_250614DZ
000039  D001C006_250614DZ                                                                                                                 A2    C        09:07:36:21 09:07:50:19 01:01:08:05 01:01:22:03 
*FROM CLIP NAME:  D001C006_250614DZ 
*SOURCE FILE: D001C006_250614DZ
000040  D001C006_250614DZ                                                                                                                 V     C        09:07:50:19 09:07:57:02 01:01:22:03 01:01:28:10 
*FROM CLIP NAME:  D001C006_250614DZ 
*SOURCE FILE: D001C006_250614DZ
000041  D001C006_250614DZ                                                                                                                 A     C        09:07:50:19 09:07:57:02 01:01:22:03 01:01:28:10 
*FROM CLIP NAME:  D001C006_250614DZ 
*SOURCE FILE: D001C006_250614DZ
000042  D001C006_250614DZ                                                                                                                 A2    C        09:07:50:19 09:07:57:02 01:01:22:03 01:01:28:10 
*FROM CLIP NAME:  D001C006_250614DZ 
*SOURCE FILE: D001C006_250614DZ
000043  D001C006_250614DZ                                                                                                                 V     C        09:07:57:02 09:08:11:08 01:01:28:10 01:01:42:16 
*FROM CLIP NAME:  D001C006_250614DZ 
*SOURCE FILE: D001C006_250614DZ
000044  D001C006_250614DZ                                                                                                                 A     C        09:07:57:02 09:08:11:08 01:01:28:10 01:01:42:16 
*FROM CLIP NAME:  D001C006_250614DZ 
*SOURCE FILE: D001C006_250614DZ
000045  D001C006_250614DZ                                                                                                                 A2    C        09:07:57:02 09:08:11:08 01:01:28:10 01:01:42:16 
*FROM CLIP NAME:  D001C006_250614DZ 
*SOURCE FILE: D001C006_250614DZ
000046  D001C006_250614DZ                                                                                                                 V     C        09:08:11:08 09:08:20:07 01:01:42:16 01:01:51:15 
*FROM CLIP NAME:  D001C006_250614DZ 
*SOURCE FILE: D001C006_250614DZ
000047  D001C006_250614DZ                                                                                                                 A     C        09:08:11:08 09:08:20:07 01:01:42:16 01:01:51:15 
*FROM CLIP NAME:  D001C006_250614DZ 
*SOURCE FILE: D001C006_250614DZ
000048  D001C006_250614DZ                                                                                                                 A2    C        09:08:11:08 09:08:20:07 01:01:42:16 01:01:51:15 
*FROM CLIP NAME:  D001C006_250614DZ 
*SOURCE FILE: D001C006_250614DZ
000049  D001C006_250614DZ                                                                                                                 V     C        09:08:20:07 09:08:27:22 01:01:51:15 01:01:59:06 
*FROM CLIP NAME:  D001C006_250614DZ 
*SOURCE FILE: D001C006_250614DZ
000050  D001C006_250614DZ                                                                                                                 A     C        09:08:20:07 09:08:27:22 01:01:51:15 01:01:59:06 
*FROM CLIP NAME:  D001C006_250614DZ 
*SOURCE FILE: D001C006_250614DZ
000051  D001C006_250614DZ                                                                                                                 A2    C        09:08:20:07 09:08:27:22 01:01:51:15 01:01:59:06 
*FROM CLIP NAME:  D001C006_250614DZ 
*SOURCE FILE: D001C006_250614DZ
000052  D001C006_250614DZ                                                                                                                 V     C        09:08:27:22 09:08:33:13 01:01:59:06 01:02:04:21 
*FROM CLIP NAME:  D001C006_250614DZ 
*SOURCE FILE: D001C006_250614DZ
000053  D001C006_250614DZ                                                                                                                 A     C        09:08:27:22 09:08:33:13 01:01:59:06 01:02:04:21 
*FROM CLIP NAME:  D001C006_250614DZ 
*SOURCE FILE: D001C006_250614DZ
000054  D001C006_250614DZ                                                                                                                 A2    C        09:08:27:22 09:08:33:13 01:01:59:06 01:02:04:21 
*FROM CLIP NAME:  D001C006_250614DZ 
*SOURCE FILE: D001C006_250614DZ
000055  D001C006_250614DZ                                                                                                                 V     C        09:08:33:13 09:08:43:03 01:02:04:21 01:02:14:11 
*FROM CLIP NAME:  D001C006_250614DZ 
*SOURCE FILE: D001C006_250614DZ
000056  D001C006_250614DZ                                                                                                                 A     C        09:08:33:13 09:08:43:03 01:02:04:21 01:02:14:11 
*FROM CLIP NAME:  D001C006_250614DZ 
*SOURCE FILE: D001C006_250614DZ
000057  D001C006_250614DZ                                                                                                                 A2    C        09:08:33:13 09:08:43:03 01:02:04:21 01:02:14:11 
*FROM CLIP NAME:  D001C006_250614DZ 
*SOURCE FILE: D001C006_250614DZ
000058  D001C006_250614DZ                                                                                                                 V     C        09:08:43:03 09:08:51:02 01:02:14:11 01:02:22:10 
*FROM CLIP NAME:  D001C006_250614DZ 
*SOURCE FILE: D001C006_250614DZ
000059  D001C006_250614DZ                                                                                                                 A     C        09:08:43:03 09:08:51:02 01:02:14:11 01:02:22:10 
*FROM CLIP NAME:  D001C006_250614DZ 
*SOURCE FILE: D001C006_250614DZ
000060  D001C006_250614DZ                                                                                                                 A2    C        09:08:43:03 09:08:51:02 01:02:14:11 01:02:22:10 
*FROM CLIP NAME:  D001C006_250614DZ 
*SOURCE FILE: D001C006_250614DZ
000061  D001C006_250614DZ                                                                                                                 V     C        09:08:51:02 09:08:58:17 01:02:22:10 01:02:30:01 
*FROM CLIP NAME:  D001C006_250614DZ 
*SOURCE FILE: D001C006_250614DZ
000062  D001C006_250614DZ                                                                                                                 A     C        09:08:51:02 09:08:58:17 01:02:22:10 01:02:30:01 
*FROM CLIP NAME:  D001C006_250614DZ 
*SOURCE FILE: D001C006_250614DZ
000063  D001C006_250614DZ                                                                                                                 A2    C        09:08:51:02 09:08:58:17 01:02:22:10 01:02:30:01 
*FROM CLIP NAME:  D001C006_250614DZ 
*SOURCE FILE: D001C006_250614DZ
000064  D001C006_250614DZ                                                                                                                 V     C        09:08:58:17 09:09:02:09 01:02:30:01 01:02:33:17 
*FROM CLIP NAME:  D001C006_250614DZ 
*SOURCE FILE: D001C006_250614DZ
000065  D001C006_250614DZ                                                                                                                 A     C        09:08:58:17 09:09:02:09 01:02:30:01 01:02:33:17 
*FROM CLIP NAME:  D001C006_250614DZ 
*SOURCE FILE: D001C006_250614DZ
000066  D001C006_250614DZ                                                                                                                 A2    C        09:08:58:17 09:09:02:09 01:02:30:01 01:02:33:17 
*FROM CLIP NAME:  D001C006_250614DZ 
*SOURCE FILE: D001C006_250614DZ
000067  D001C006_250614DZ                                                                                                                 V     C        09:09:02:09 09:09:10:23 01:02:33:17 01:02:42:07 
*FROM CLIP NAME:  D001C006_250614DZ 
*SOURCE FILE: D001C006_250614DZ
000068  D001C006_250614DZ                                                                                                                 A     C        09:09:02:09 09:09:10:23 01:02:33:17 01:02:42:07 
*FROM CLIP NAME:  D001C006_250614DZ 
*SOURCE FILE: D001C006_250614DZ
000069  D001C006_250614DZ                                                                                                                 A2    C        09:09:02:09 09:09:10:23 01:02:33:17 01:02:42:07 
*FROM CLIP NAME:  D001C006_250614DZ 
*SOURCE FILE: D001C006_250614DZ
000070  D001C006_250614DZ                                                                                                                 V     C        09:09:10:23 09:09:14:23 01:02:42:07 01:02:46:07 
*FROM CLIP NAME:  D001C006_250614DZ 
*SOURCE FILE: D001C006_250614DZ
000071  D001C006_250614DZ                                                                                                                 A     C        09:09:10:23 09:09:14:23 01:02:42:07 01:02:46:07 
*FROM CLIP NAME:  D001C006_250614DZ 
*SOURCE FILE: D001C006_250614DZ
000072  D001C006_250614DZ                                                                                                                 A2    C        09:09:10:23 09:09:14:23 01:02:42:07 01:02:46:07 
*FROM CLIP NAME:  D001C006_250614DZ 
*SOURCE FILE: D001C006_250614DZ
000073  D001C006_250614DZ                                                                                                                 V     C        09:09:14:23 09:09:23:21 01:02:46:07 01:02:55:05 
*FROM CLIP NAME:  D001C006_250614DZ 
*SOURCE FILE: D001C006_250614DZ
000074  D001C006_250614DZ                                                                                                                 A     C        09:09:14:23 09:09:23:21 01:02:46:07 01:02:55:05 
*FROM CLIP NAME:  D001C006_250614DZ 
*SOURCE FILE: D001C006_250614DZ
000075  D001C006_250614DZ                                                                                                                 A2    C        09:09:14:23 09:09:23:21 01:02:46:07 01:02:55:05 
*FROM CLIP NAME:  D001C006_250614DZ 
*SOURCE FILE: D001C006_250614DZ
000076  D001C006_250614DZ                                                                                                                 V     C        09:09:23:21 09:09:34:12 01:02:55:05 01:03:05:20 
*FROM CLIP NAME:  D001C006_250614DZ 
*SOURCE FILE: D001C006_250614DZ
000077  D001C006_250614DZ                                                                                                                 A     C        09:09:23:21 09:09:34:12 01:02:55:05 01:03:05:20 
*FROM CLIP NAME:  D001C006_250614DZ 
*SOURCE FILE: D001C006_250614DZ
000078  D001C006_250614DZ                                                                                                                 A2    C        09:09:23:21 09:09:34:12 01:02:55:05 01:03:05:20 
*FROM CLIP NAME:  D001C006_250614DZ 
*SOURCE FILE: D001C006_250614DZ
000079  D001C006_250614DZ                                                                                                                 V     C        09:09:34:12 09:09:37:19 01:03:05:20 01:03:09:03 
*FROM CLIP NAME:  D001C006_250614DZ 
*SOURCE FILE: D001C006_250614DZ
000080  D001C006_250614DZ                                                                                                                 A     C        09:09:34:12 09:09:37:19 01:03:05:20 01:03:09:03 
*FROM CLIP NAME:  D001C006_250614DZ 
*SOURCE FILE: D001C006_250614DZ
000081  D001C006_250614DZ                                                                                                                 A2    C        09:09:34:12 09:09:37:19 01:03:05:20 01:03:09:03 
*FROM CLIP NAME:  D001C006_250614DZ 
*SOURCE FILE: D001C006_250614DZ
000082  D001C006_250614DZ                                                                                                                 V     C        09:09:37:19 09:09:46:02 01:03:09:03 01:03:17:10 
*FROM CLIP NAME:  D001C006_250614DZ 
*SOURCE FILE: D001C006_250614DZ
000083  D001C006_250614DZ                                                                                                                 A     C        09:09:37:19 09:09:46:02 01:03:09:03 01:03:17:10 
*FROM CLIP NAME:  D001C006_250614DZ 
*SOURCE FILE: D001C006_250614DZ
000084  D001C006_250614DZ                                                                                                                 A2    C        09:09:37:19 09:09:46:02 01:03:09:03 01:03:17:10 
*FROM CLIP NAME:  D001C006_250614DZ 
*SOURCE FILE: D001C006_250614DZ
000085  D001C006_250614DZ                                                                                                                 V     C        09:09:46:02 09:09:52:17 01:03:17:10 01:03:24:01 
*FROM CLIP NAME:  D001C006_250614DZ 
*SOURCE FILE: D001C006_250614DZ
000086  D001C006_250614DZ                                                                                                                 A     C        09:09:46:02 09:09:52:17 01:03:17:10 01:03:24:01 
*FROM CLIP NAME:  D001C006_250614DZ 
*SOURCE FILE: D001C006_250614DZ
000087  D001C006_250614DZ                                                                                                                 A2    C        09:09:46:02 09:09:52:17 01:03:17:10 01:03:24:01 
*FROM CLIP NAME:  D001C006_250614DZ 
*SOURCE FILE: D001C006_250614DZ
000088  D001C006_250614DZ                                                                                                                 V     C        09:09:52:17 09:10:00:16 01:03:24:01 01:03:32:00 
*FROM CLIP NAME:  D001C006_250614DZ 
*SOURCE FILE: D001C006_250614DZ
000089  D001C006_250614DZ                                                                                                                 A     C        09:09:52:17 09:10:00:16 01:03:24:01 01:03:32:00 
*FROM CLIP NAME:  D001C006_250614DZ 
*SOURCE FILE: D001C006_250614DZ
000090  D001C006_250614DZ                                                                                                                 A2    C        09:09:52:17 09:10:00:16 01:03:24:01 01:03:32:00 
*FROM CLIP NAME:  D001C006_250614DZ 
*SOURCE FILE: D001C006_250614DZ
000091  D001C006_250614DZ                                                                                                                 V     C        09:10:00:16 09:10:11:06 01:03:32:00 01:03:42:14 
*FROM CLIP NAME:  D001C006_250614DZ 
*SOURCE FILE: D001C006_250614DZ
000092  D001C006_250614DZ                                                                                                                 A     C        09:10:00:16 09:10:11:06 01:03:32:00 01:03:42:14 
*FROM CLIP NAME:  D001C006_250614DZ 
*SOURCE FILE: D001C006_250614DZ
000093  D001C006_250614DZ                                                                                                                 A2    C        09:10:00:16 09:10:11:06 01:03:32:00 01:03:42:14 
*FROM CLIP NAME:  D001C006_250614DZ 
*SOURCE FILE: D001C006_250614DZ
000094  D001C006_250614DZ                                                                                                                 V     C        09:10:11:06 09:10:18:21 01:03:42:14 01:03:50:05 
*FROM CLIP NAME:  D001C006_250614DZ 
*SOURCE FILE: D001C006_250614DZ
000095  D001C006_250614DZ                                                                                                                 A     C        09:10:11:06 09:10:18:21 01:03:42:14 01:03:50:05 
*FROM CLIP NAME:  D001C006_250614DZ 
*SOURCE FILE: D001C006_250614DZ
000096  D001C006_250614DZ                                                                                                                 A2    C        09:10:11:06 09:10:18:21 01:03:42:14 01:03:50:05 
*FROM CLIP NAME:  D001C006_250614DZ 
*SOURCE FILE: D001C006_250614DZ
000097  D001C006_250614DZ                                                                                                                 V     C        09:10:18:21 09:10:30:11 01:03:50:05 01:04:01:19 
*FROM CLIP NAME:  D001C006_250614DZ 
*SOURCE FILE: D001C006_250614DZ
000098  D001C006_250614DZ                                                                                                                 A     C        09:10:18:21 09:10:30:11 01:03:50:05 01:04:01:19 
*FROM CLIP NAME:  D001C006_250614DZ 
*SOURCE FILE: D001C006_250614DZ
000099  D001C006_250614DZ                                                                                                                 A2    C        09:10:18:21 09:10:30:11 01:03:50:05 01:04:01:19 
*FROM CLIP NAME:  D001C006_250614DZ 
*SOURCE FILE: D001C006_250614DZ
000100  D001C006_250614DZ                                                                                                                 V     C        09:10:30:11 09:10:41:10 01:04:01:19 01:04:12:18 
*FROM CLIP NAME:  D001C006_250614DZ 
*SOURCE FILE: D001C006_250614DZ
000101  D001C006_250614DZ                                                                                                                 A     C        09:10:30:11 09:10:41:10 01:04:01:19 01:04:12:18 
*FROM CLIP NAME:  D001C006_250614DZ 
*SOURCE FILE: D001C006_250614DZ
000102  D001C006_250614DZ                                                                                                                 A2    C        09:10:30:11 09:10:41:10 01:04:01:19 01:04:12:18 
*FROM CLIP NAME:  D001C006_250614DZ 
*SOURCE FILE: D001C006_250614DZ
000103  D001C006_250614DZ                                                                                                                 V     C        09:10:41:10 09:10:53:16 01:04:12:18 01:04:25:00 
*FROM CLIP NAME:  D001C006_250614DZ 
*SOURCE FILE: D001C006_250614DZ
000104  D001C006_250614DZ                                                                                                                 A     C        09:10:41:10 09:10:53:16 01:04:12:18 01:04:25:00 
*FROM CLIP NAME:  D001C006_250614DZ 
*SOURCE FILE: D001C006_250614DZ
000105  D001C006_250614DZ                                                                                                                 A2    C        09:10:41:10 09:10:53:16 01:04:12:18 01:04:25:00 
*FROM CLIP NAME:  D001C006_250614DZ 
*SOURCE FILE: D001C006_250614DZ
000106  D001C006_250614DZ                                                                                                                 V     C        09:10:53:16 09:11:05:22 01:04:25:00 01:04:37:06 
*FROM CLIP NAME:  D001C006_250614DZ 
*SOURCE FILE: D001C006_250614DZ
000107  D001C006_250614DZ                                                                                                                 A     C        09:10:53:16 09:11:05:22 01:04:25:00 01:04:37:06 
*FROM CLIP NAME:  D001C006_250614DZ 
*SOURCE FILE: D001C006_250614DZ
000108  D001C006_250614DZ                                                                                                                 A2    C        09:10:53:16 09:11:05:22 01:04:25:00 01:04:37:06 
*FROM CLIP NAME:  D001C006_250614DZ 
*SOURCE FILE: D001C006_250614DZ
000109  D001C006_250614DZ                                                                                                                 V     C        09:11:05:22 09:11:09:22 01:04:37:06 01:04:41:06 
*FROM CLIP NAME:  D001C006_250614DZ 
*SOURCE FILE: D001C006_250614DZ
000110  D001C006_250614DZ                                                                                                                 A     C        09:11:05:22 09:11:09:22 01:04:37:06 01:04:41:06 
*FROM CLIP NAME:  D001C006_250614DZ 
*SOURCE FILE: D001C006_250614DZ
000111  D001C006_250614DZ                                                                                                                 A2    C        09:11:05:22 09:11:09:22 01:04:37:06 01:04:41:06 
*FROM CLIP NAME:  D001C006_250614DZ 
*SOURCE FILE: D001C006_250614DZ
000112  D001C006_250614DZ                                                                                                                 V     C        09:11:09:22 09:11:15:21 01:04:41:06 01:04:47:05 
*FROM CLIP NAME:  D001C006_250614DZ 
*SOURCE FILE: D001C006_250614DZ
000113  D001C006_250614DZ                                                                                                                 A     C        09:11:09:22 09:11:15:21 01:04:41:06 01:04:47:05 
*FROM CLIP NAME:  D001C006_250614DZ 
*SOURCE FILE: D001C006_250614DZ
000114  D001C006_250614DZ                                                                                                                 A2    C        09:11:09:22 09:11:15:21 01:04:41:06 01:04:47:05 
*FROM CLIP NAME:  D001C006_250614DZ 
*SOURCE FILE: D001C006_250614DZ
000115  D001C006_250614DZ                                                                                                                 V     C        09:11:15:21 09:11:26:03 01:04:47:05 01:04:57:11 
*FROM CLIP NAME:  D001C006_250614DZ 
*SOURCE FILE: D001C006_250614DZ
000116  D001C006_250614DZ                                                                                                                 A     C        09:11:15:21 09:11:26:03 01:04:47:05 01:04:57:11 
*FROM CLIP NAME:  D001C006_250614DZ 
*SOURCE FILE: D001C006_250614DZ
000117  D001C006_250614DZ                                                                                                                 A2    C        09:11:15:21 09:11:26:03 01:04:47:05 01:04:57:11 
*FROM CLIP NAME:  D001C006_250614DZ 
*SOURCE FILE: D001C006_250614DZ
000118  D001C006_250614DZ                                                                                                                 V     C        09:11:26:03 09:11:35:18 01:04:57:11 01:05:07:02 
*FROM CLIP NAME:  D001C006_250614DZ 
*SOURCE FILE: D001C006_250614DZ
000119  D001C006_250614DZ                                                                                                                 A     C        09:11:26:03 09:11:35:18 01:04:57:11 01:05:07:02 
*FROM CLIP NAME:  D001C006_250614DZ 
*SOURCE FILE: D001C006_250614DZ
000120  D001C006_250614DZ                                                                                                                 A2    C        09:11:26:03 09:11:35:18 01:04:57:11 01:05:07:02 
*FROM CLIP NAME:  D001C006_250614DZ 
*SOURCE FILE: D001C006_250614DZ
000121  D001C006_250614DZ                                                                                                                 V     C        09:11:35:18 09:11:47:00 01:05:07:02 01:05:18:08 
*FROM CLIP NAME:  D001C006_250614DZ 
*SOURCE FILE: D001C006_250614DZ
000122  D001C006_250614DZ                                                                                                                 A     C        09:11:35:18 09:11:47:00 01:05:07:02 01:05:18:08 
*FROM CLIP NAME:  D001C006_250614DZ 
*SOURCE FILE: D001C006_250614DZ
000123  D001C006_250614DZ                                                                                                                 A2    C        09:11:35:18 09:11:47:00 01:05:07:02 01:05:18:08 
*FROM CLIP NAME:  D001C006_250614DZ 
*SOURCE FILE: D001C006_250614DZ
000124  D001C006_250614DZ                                                                                                                 V     C        09:11:47:00 09:11:54:07 01:05:18:08 01:05:25:15 
*FROM CLIP NAME:  D001C006_250614DZ 
*SOURCE FILE: D001C006_250614DZ
000125  D001C006_250614DZ                                                                                                                 A     C        09:11:47:00 09:11:54:07 01:05:18:08 01:05:25:15 
*FROM CLIP NAME:  D001C006_250614DZ 
*SOURCE FILE: D001C006_250614DZ
000126  D001C006_250614DZ                                                                                                                 A2    C        09:11:47:00 09:11:54:07 01:05:18:08 01:05:25:15 
*FROM CLIP NAME:  D001C006_250614DZ 
*SOURCE FILE: D001C006_250614DZ
000127  D001C006_250614DZ                                                                                                                 V     C        09:11:54:07 09:12:14:04 01:05:25:15 01:05:45:12 
*FROM CLIP NAME:  D001C006_250614DZ 
*SOURCE FILE: D001C006_250614DZ
000128  D001C006_250614DZ                                                                                                                 A     C        09:11:54:07 09:12:14:04 01:05:25:15 01:05:45:12 
*FROM CLIP NAME:  D001C006_250614DZ 
*SOURCE FILE: D001C006_250614DZ
000129  D001C006_250614DZ                                                                                                                 A2    C        09:11:54:07 09:12:14:04 01:05:25:15 01:05:45:12 
*FROM CLIP NAME:  D001C006_250614DZ 
*SOURCE FILE: D001C006_250614DZ