TITLE:   ERN_102_EXT_PL_20250318_HARDLOCK_Rev_v10_Next On_ARC EDL 
FCM: NON-DROP FRAME
000001  ERN_F1979_NSCR_1994-10-23_RACE_B-ROLL_AC_DELCO_500_ROCKINGHAM_DESR_NO3_WINNING_CELEBRATION_W_CHOCOLATE_MYERS_&_TERESA_EARNHARDT_& V     C        06:15:10:14 06:15:13:24 00:57:47:23 00:57:51:06 
M2      ERN_F1979_NSCR_1994-10-23_RACE_B-ROLL_AC_DELCO_500_ROCKINGHAM_DESR_NO3_WINNING_CELEBRATION_W_CHOCOLATE_MYERS_&_TERESA_EARNHARDT_&          030.0 06:15:10:14 
*FROM CLIP NAME:  ERN_F1979_NSCR_1994-10-23_RACE B-ROLL AC DELCO 500 ROCKINGHAM DESR NO3 WINNING CELEBRATION W CHOCOLATE MYERS & TERESA EARNHARDT & CREW_LGP04404_S006.NEW.01 
*SOURCE FILE: ERN_F1979_NSCR_1994-10-23_RACE B-ROLL AC DELCO 500 ROCKINGHAM DESR NO3 WINNING CELEBRATION W CHOCOLATE MYERS & TERESA EARNHARDT & CREW_LGP04404_S006
000002  ERN_F1979_NSCR_1994-10-23_RACE_B-ROLL_AC_DELCO_500_ROCKINGHAM_DESR_NO3_WINNING_CELEBRATION_W_CHOCOLATE_MYERS_&_TERESA_EARNHARDT_& V     C        06:15:26:17 06:15:35:28 00:57:51:06 00:58:01:07 
M2      ERN_F1979_NSCR_1994-10-23_RACE_B-ROLL_AC_DELCO_500_ROCKINGHAM_DESR_NO3_WINNING_CELEBRATION_W_CHOCOLATE_MYERS_&_TERESA_EARNHARDT_&          027.9 06:15:26:17 
*FROM CLIP NAME:  ERN_F1979_NSCR_1994-10-23_RACE B-ROLL AC DELCO 500 ROCKINGHAM DESR NO3 WINNING CELEBRATION W CHOCOLATE MYERS & TERESA EARNHARDT & CREW_LGP04404_S006.NEW.01 
*SOURCE FILE: ERN_F1979_NSCR_1994-10-23_RACE B-ROLL AC DELCO 500 ROCKINGHAM DESR NO3 WINNING CELEBRATION W CHOCOLATE MYERS & TERESA EARNHARDT & CREW_LGP04404_S006
000003  ERN_F6072_NSCR_1990-10-07_RACE_B-ROLL_CHARLOTTE_MELLO_YELLOW_500_FANS_&_NON_RACING_OFFICE_B-ROLL_90-EV-0638                       A22   C        02:43:05:16 02:43:05:25 00:58:03:19 00:58:04:02 
M2      ERN_F6072_NSCR_1990-10-07_RACE_B-ROLL_CHARLOTTE_MELLO_YELLOW_500_FANS_&_NON_RACING_OFFICE_B-ROLL_90-EV-0638                                030.0 02:43:05:16 
*FROM CLIP NAME:  ERN_F6072_NSCR_1990-10-07_RACE B-ROLL CHARLOTTE MELLO YELLOW 500 FANS & NON RACING OFFICE B-ROLL_90-EV-0638.NEW.01 
*SOURCE FILE: ERN_F6072_NSCR_1990-10-07_RACE B-ROLL CHARLOTTE MELLO YELLOW 500 FANS & NON RACING OFFICE B-ROLL_90-EV-0638
000004  ERN_F1166_NSCR_2001-02-18_RACE_B-ROLL_DAYTONA_500_PRACTICE_&_TEST_DESR_NO3_W_JEFF_GORDON_DEJR_NO8_01-EV-0123                      V     C        01:11:32:25 01:11:33:11 00:58:03:19 00:58:04:07 
M2      ERN_F1166_NSCR_2001-02-18_RACE_B-ROLL_DAYTONA_500_PRACTICE_&_TEST_DESR_NO3_W_JEFF_GORDON_DEJR_NO8_01-EV-0123                               030.0 01:11:32:25 
*FROM CLIP NAME:  ERN_F1166_NSCR_2001-02-18_RACE B-ROLL DAYTONA 500 PRACTICE & TEST DESR NO3 W JEFF GORDON DEJR NO8_01-EV-0123.NEW.01 
*SOURCE FILE: ERN_F1166_NSCR_2001-02-18_RACE B-ROLL DAYTONA 500 PRACTICE & TEST DESR NO3 W JEFF GORDON DEJR NO8_01-EV-0123
000005  ERN_F6072_NSCR_1990-10-07_RACE_B-ROLL_CHARLOTTE_MELLO_YELLOW_500_FANS_&_NON_RACING_OFFICE_B-ROLL_90-EV-0638                       A22   C        02:43:05:24 02:43:10:10 00:58:04:02 00:58:08:14 
M2      ERN_F6072_NSCR_1990-10-07_RACE_B-ROLL_CHARLOTTE_MELLO_YELLOW_500_FANS_&_NON_RACING_OFFICE_B-ROLL_90-EV-0638                                030.0 02:43:05:24 
*FROM CLIP NAME:  ERN_F6072_NSCR_1990-10-07_RACE B-ROLL CHARLOTTE MELLO YELLOW 500 FANS & NON RACING OFFICE B-ROLL_90-EV-0638.NEW.01 
*SOURCE FILE: ERN_F6072_NSCR_1990-10-07_RACE B-ROLL CHARLOTTE MELLO YELLOW 500 FANS & NON RACING OFFICE B-ROLL_90-EV-0638
000006  ERN_F5278_NSCR_1997-02-16_DAYTONA_500-CBS_RACE_BROADCAST_97-EV-0085                                                               A18   C        01:42:51:14 01:42:52:14 00:58:04:04 00:58:05:04 
M2      ERN_F5278_NSCR_1997-02-16_DAYTONA_500-CBS_RACE_BROADCAST_97-EV-0085                                                                        030.0 01:42:51:14 
*FROM CLIP NAME:  ERN_F5278_NSCR_1997-02-16_DAYTONA 500-CBS RACE BROADCAST_97-EV-0085.NEW.01 
*SOURCE FILE: ERN_F5278_NSCR_1997-02-16_DAYTONA 500-CBS RACE BROADCAST_97-EV-0085
000007  ERN_F1166_NSCR_2001-02-18_RACE_B-ROLL_DAYTONA_500_PRACTICE_&_TEST_DESR_NO3_W_JEFF_GORDON_DEJR_NO8_01-EV-0123                      V     C        01:11:33:10 01:11:35:17 00:58:04:07 00:58:06:12 
M2      ERN_F1166_NSCR_2001-02-18_RACE_B-ROLL_DAYTONA_500_PRACTICE_&_TEST_DESR_NO3_W_JEFF_GORDON_DEJR_NO8_01-EV-0123                               030.0 01:11:33:10 
*FROM CLIP NAME:  ERN_F1166_NSCR_2001-02-18_RACE B-ROLL DAYTONA 500 PRACTICE & TEST DESR NO3 W JEFF GORDON DEJR NO8_01-EV-0123.NEW.01 
*SOURCE FILE: ERN_F1166_NSCR_2001-02-18_RACE B-ROLL DAYTONA 500 PRACTICE & TEST DESR NO3 W JEFF GORDON DEJR NO8_01-EV-0123
000008  ERN_F5278_NSCR_1997-02-16_DAYTONA_500-CBS_RACE_BROADCAST_97-EV-0085                                                               A18   C        01:42:52:14 01:42:52:18 00:58:05:04 00:58:05:07 
M2      ERN_F5278_NSCR_1997-02-16_DAYTONA_500-CBS_RACE_BROADCAST_97-EV-0085                                                                        030.0 01:42:52:14 
*FROM CLIP NAME:  ERN_F5278_NSCR_1997-02-16_DAYTONA 500-CBS RACE BROADCAST_97-EV-0085.NEW.01 
*SOURCE FILE: ERN_F5278_NSCR_1997-02-16_DAYTONA 500-CBS RACE BROADCAST_97-EV-0085
000009  ERN_F5278_NSCR_1997-02-16_DAYTONA_500-CBS_RACE_BROADCAST_97-EV-0085                                                               A18   C        01:42:58:02 01:42:58:08 00:58:05:07 00:58:05:11 
M2      ERN_F5278_NSCR_1997-02-16_DAYTONA_500-CBS_RACE_BROADCAST_97-EV-0085                                                                        030.0 01:42:58:02 
*FROM CLIP NAME:  ERN_F5278_NSCR_1997-02-16_DAYTONA 500-CBS RACE BROADCAST_97-EV-0085.NEW.01 
*TO CLIP NAME:  ERN_F5278_NSCR_1997-02-16_DAYTONA 500-CBS RACE BROADCAST_97-EV-0085.NEW.01 
*SOURCE FILE: ERN_F5278_NSCR_1997-02-16_DAYTONA 500-CBS RACE BROADCAST_97-EV-0085
000010  ERN_F5278_NSCR_1997-02-16_DAYTONA_500-CBS_RACE_BROADCAST_97-EV-0085                                                               A18   C        01:42:58:07 01:42:59:18 00:58:05:11 00:58:06:19 
M2      ERN_F5278_NSCR_1997-02-16_DAYTONA_500-CBS_RACE_BROADCAST_97-EV-0085                                                                        030.0 01:42:58:07 
*FROM CLIP NAME:  ERN_F5278_NSCR_1997-02-16_DAYTONA 500-CBS RACE BROADCAST_97-EV-0085.NEW.01 
*SOURCE FILE: ERN_F5278_NSCR_1997-02-16_DAYTONA 500-CBS RACE BROADCAST_97-EV-0085
000011  ERN_F2211_NSCR_1996-07-28_TALLADEGA-DIEHARD_501_RACE_B-ROLL_RICHARD_CHILDRESS_INTV_DESR_CRASH_NO3_JEFF_GORDON_WINNER_DESR_INTV_IS V     C        03:14:45:13 03:14:47:09 00:58:06:12 00:58:08:08 
M2      ERN_F2211_NSCR_1996-07-28_TALLADEGA-DIEHARD_501_RACE_B-ROLL_RICHARD_CHILDRESS_INTV_DESR_CRASH_NO3_JEFF_GORDON_WINNER_DESR_INTV_IS          030.0 03:14:45:13 
*FROM CLIP NAME:  ERN_F2211_NSCR_1996-07-28_TALLADEGA-DIEHARD 501 RACE B-ROLL RICHARD CHILDRESS INTV DESR CRASH NO3 JEFF GORDON WINNER DESR INTV_ISC-00961.NEW.01 
*SOURCE FILE: ERN_F2211_NSCR_1996-07-28_TALLADEGA-DIEHARD 501 RACE B-ROLL RICHARD CHILDRESS INTV DESR CRASH NO3 JEFF GORDON WINNER DESR INTV_ISC-00961
000012  ERN_F5278_NSCR_1997-02-16_DAYTONA_500-CBS_RACE_BROADCAST_97-EV-0085                                                               A18   C        01:43:22:15 01:43:22:21 00:58:06:19 00:58:06:23 
M2      ERN_F5278_NSCR_1997-02-16_DAYTONA_500-CBS_RACE_BROADCAST_97-EV-0085                                                                        030.0 01:43:22:15 
*FROM CLIP NAME:  ERN_F5278_NSCR_1997-02-16_DAYTONA 500-CBS RACE BROADCAST_97-EV-0085.NEW.01 
*TO CLIP NAME:  ERN_F5278_NSCR_1997-02-16_DAYTONA 500-CBS RACE BROADCAST_97-EV-0085.NEW.01 
*SOURCE FILE: ERN_F5278_NSCR_1997-02-16_DAYTONA 500-CBS RACE BROADCAST_97-EV-0085
000013  ERN_F5278_NSCR_1997-02-16_DAYTONA_500-CBS_RACE_BROADCAST_97-EV-0085                                                               A18   C        01:43:22:20 01:43:23:21 00:58:06:23 00:58:07:23 
M2      ERN_F5278_NSCR_1997-02-16_DAYTONA_500-CBS_RACE_BROADCAST_97-EV-0085                                                                        030.0 01:43:22:20 
*FROM CLIP NAME:  ERN_F5278_NSCR_1997-02-16_DAYTONA 500-CBS RACE BROADCAST_97-EV-0085.NEW.01 
*SOURCE FILE: ERN_F5278_NSCR_1997-02-16_DAYTONA 500-CBS RACE BROADCAST_97-EV-0085
000014  ERN_F5278_NSCR_1997-02-16_DAYTONA_500-CBS_RACE_BROADCAST_97-EV-0085                                                               A18   C        01:43:28:27 01:43:28:29 00:58:07:23 00:58:08:00 
M2      ERN_F5278_NSCR_1997-02-16_DAYTONA_500-CBS_RACE_BROADCAST_97-EV-0085                                                                        030.0 01:43:28:27 
*FROM CLIP NAME:  ERN_F5278_NSCR_1997-02-16_DAYTONA 500-CBS RACE BROADCAST_97-EV-0085.NEW.01 
*TO CLIP NAME:  ERN_F5278_NSCR_1997-02-16_DAYTONA 500-CBS RACE BROADCAST_97-EV-0085.NEW.01 
*SOURCE FILE: ERN_F5278_NSCR_1997-02-16_DAYTONA 500-CBS RACE BROADCAST_97-EV-0085
000015  ERN_F5278_NSCR_1997-02-16_DAYTONA_500-CBS_RACE_BROADCAST_97-EV-0085                                                               A18   C        01:43:28:29 01:43:29:07 00:58:08:00 00:58:08:06 
M2      ERN_F5278_NSCR_1997-02-16_DAYTONA_500-CBS_RACE_BROADCAST_97-EV-0085                                                                        030.0 01:43:28:29 
*FROM CLIP NAME:  ERN_F5278_NSCR_1997-02-16_DAYTONA 500-CBS RACE BROADCAST_97-EV-0085.NEW.01 
*SOURCE FILE: ERN_F5278_NSCR_1997-02-16_DAYTONA 500-CBS RACE BROADCAST_97-EV-0085
000016  ERN_F2211_NSCR_1996-07-28_TALLADEGA-DIEHARD_501_RACE_B-ROLL_RICHARD_CHILDRESS_INTV_DESR_CRASH_NO3_JEFF_GORDON_WINNER_DESR_INTV_IS A18   C        03:35:49:05 03:35:49:08 00:58:08:06 00:58:08:08 
M2      ERN_F2211_NSCR_1996-07-28_TALLADEGA-DIEHARD_501_RACE_B-ROLL_RICHARD_CHILDRESS_INTV_DESR_CRASH_NO3_JEFF_GORDON_WINNER_DESR_INTV_IS          030.0 03:35:49:05 
*FROM CLIP NAME:  ERN_F2211_NSCR_1996-07-28_TALLADEGA-DIEHARD 501 RACE B-ROLL RICHARD CHILDRESS INTV DESR CRASH NO3 JEFF GORDON WINNER DESR INTV_ISC-00961.NEW.01 
*TO CLIP NAME:  ERN_F5278_NSCR_1997-02-16_DAYTONA 500-CBS RACE BROADCAST_97-EV-0085.NEW.01 
*SOURCE FILE: ERN_F2211_NSCR_1996-07-28_TALLADEGA-DIEHARD 501 RACE B-ROLL RICHARD CHILDRESS INTV DESR CRASH NO3 JEFF GORDON WINNER DESR INTV_ISC-00961
000017  ERN_F2211_NSCR_1996-07-28_TALLADEGA-DIEHARD_501_RACE_B-ROLL_RICHARD_CHILDRESS_INTV_DESR_CRASH_NO3_JEFF_GORDON_WINNER_DESR_INTV_IS A18   C        03:35:49:07 03:35:50:29 00:58:08:08 00:58:10:01 
M2      ERN_F2211_NSCR_1996-07-28_TALLADEGA-DIEHARD_501_RACE_B-ROLL_RICHARD_CHILDRESS_INTV_DESR_CRASH_NO3_JEFF_GORDON_WINNER_DESR_INTV_IS          030.0 03:35:49:07 
*FROM CLIP NAME:  ERN_F2211_NSCR_1996-07-28_TALLADEGA-DIEHARD 501 RACE B-ROLL RICHARD CHILDRESS INTV DESR CRASH NO3 JEFF GORDON WINNER DESR INTV_ISC-00961.NEW.01 
*SOURCE FILE: ERN_F2211_NSCR_1996-07-28_TALLADEGA-DIEHARD 501 RACE B-ROLL RICHARD CHILDRESS INTV DESR CRASH NO3 JEFF GORDON WINNER DESR INTV_ISC-00961
000018  ERN_F2211_NSCR_1996-07-28_TALLADEGA-DIEHARD_501_RACE_B-ROLL_RICHARD_CHILDRESS_INTV_DESR_CRASH_NO3_JEFF_GORDON_WINNER_DESR_INTV_IS V     C        03:35:49:07 03:35:51:13 00:58:08:08 00:58:10:12 
M2      ERN_F2211_NSCR_1996-07-28_TALLADEGA-DIEHARD_501_RACE_B-ROLL_RICHARD_CHILDRESS_INTV_DESR_CRASH_NO3_JEFF_GORDON_WINNER_DESR_INTV_IS          030.0 03:35:49:07 
*FROM CLIP NAME:  ERN_F2211_NSCR_1996-07-28_TALLADEGA-DIEHARD 501 RACE B-ROLL RICHARD CHILDRESS INTV DESR CRASH NO3 JEFF GORDON WINNER DESR INTV_ISC-00961.NEW.01 
*SOURCE FILE: ERN_F2211_NSCR_1996-07-28_TALLADEGA-DIEHARD 501 RACE B-ROLL RICHARD CHILDRESS INTV DESR CRASH NO3 JEFF GORDON WINNER DESR INTV_ISC-00961
000019  ERN_F2211_NSCR_1996-07-28_TALLADEGA-DIEHARD_501_RACE_B-ROLL_RICHARD_CHILDRESS_INTV_DESR_CRASH_NO3_JEFF_GORDON_WINNER_DESR_INTV_IS A18   C        03:36:02:19 03:36:02:21 00:58:10:01 00:58:10:02 
M2      ERN_F2211_NSCR_1996-07-28_TALLADEGA-DIEHARD_501_RACE_B-ROLL_RICHARD_CHILDRESS_INTV_DESR_CRASH_NO3_JEFF_GORDON_WINNER_DESR_INTV_IS          030.0 03:36:02:19 
*FROM CLIP NAME:  ERN_F2211_NSCR_1996-07-28_TALLADEGA-DIEHARD 501 RACE B-ROLL RICHARD CHILDRESS INTV DESR CRASH NO3 JEFF GORDON WINNER DESR INTV_ISC-00961.NEW.01 
*TO CLIP NAME:  ERN_F2211_NSCR_1996-07-28_TALLADEGA-DIEHARD 501 RACE B-ROLL RICHARD CHILDRESS INTV DESR CRASH NO3 JEFF GORDON WINNER DESR INTV_ISC-00961.NEW.01 
*SOURCE FILE: ERN_F2211_NSCR_1996-07-28_TALLADEGA-DIEHARD 501 RACE B-ROLL RICHARD CHILDRESS INTV DESR CRASH NO3 JEFF GORDON WINNER DESR INTV_ISC-00961
000020  ERN_F2211_NSCR_1996-07-28_TALLADEGA-DIEHARD_501_RACE_B-ROLL_RICHARD_CHILDRESS_INTV_DESR_CRASH_NO3_JEFF_GORDON_WINNER_DESR_INTV_IS A18   C        03:36:02:21 03:36:02:26 00:58:10:02 00:58:10:06 
M2      ERN_F2211_NSCR_1996-07-28_TALLADEGA-DIEHARD_501_RACE_B-ROLL_RICHARD_CHILDRESS_INTV_DESR_CRASH_NO3_JEFF_GORDON_WINNER_DESR_INTV_IS          030.0 03:36:02:21 
*FROM CLIP NAME:  ERN_F2211_NSCR_1996-07-28_TALLADEGA-DIEHARD 501 RACE B-ROLL RICHARD CHILDRESS INTV DESR CRASH NO3 JEFF GORDON WINNER DESR INTV_ISC-00961.NEW.01 
*SOURCE FILE: ERN_F2211_NSCR_1996-07-28_TALLADEGA-DIEHARD 501 RACE B-ROLL RICHARD CHILDRESS INTV DESR CRASH NO3 JEFF GORDON WINNER DESR INTV_ISC-00961
000021  ERN_F2211_NSCR_1996-07-28_TALLADEGA-DIEHARD_501_RACE_B-ROLL_RICHARD_CHILDRESS_INTV_DESR_CRASH_NO3_JEFF_GORDON_WINNER_DESR_INTV_IS A18   C        03:35:50:29 03:35:51:01 00:58:10:06 00:58:10:07 
M2      ERN_F2211_NSCR_1996-07-28_TALLADEGA-DIEHARD_501_RACE_B-ROLL_RICHARD_CHILDRESS_INTV_DESR_CRASH_NO3_JEFF_GORDON_WINNER_DESR_INTV_IS          030.0 03:35:50:29 
*FROM CLIP NAME:  ERN_F2211_NSCR_1996-07-28_TALLADEGA-DIEHARD 501 RACE B-ROLL RICHARD CHILDRESS INTV DESR CRASH NO3 JEFF GORDON WINNER DESR INTV_ISC-00961.NEW.01 
*TO CLIP NAME:  ERN_F2211_NSCR_1996-07-28_TALLADEGA-DIEHARD 501 RACE B-ROLL RICHARD CHILDRESS INTV DESR CRASH NO3 JEFF GORDON WINNER DESR INTV_ISC-00961.NEW.01 
*SOURCE FILE: ERN_F2211_NSCR_1996-07-28_TALLADEGA-DIEHARD 501 RACE B-ROLL RICHARD CHILDRESS INTV DESR CRASH NO3 JEFF GORDON WINNER DESR INTV_ISC-00961
000022  ERN_F9530_NSCR_1995-07-09_2_OF_2_RACE_BROADCAST_LOUDON_SLICK_50_300_95-EV-0388                                                    A24   C        00:23:41:16 00:23:42:20 00:58:10:06 00:58:11:08 
M2      ERN_F9530_NSCR_1995-07-09_2_OF_2_RACE_BROADCAST_LOUDON_SLICK_50_300_95-EV-0388                                                             030.0 00:23:41:16 
*FROM CLIP NAME:  ERN_F9530_NSCR_1995-07-09_2 OF 2 RACE BROADCAST LOUDON SLICK 50 300_95-EV-0388.NEW.01 
*SOURCE FILE: ERN_F9530_NSCR_1995-07-09_2 OF 2 RACE BROADCAST LOUDON SLICK 50 300_95-EV-0388
000023  ERN_F2211_NSCR_1996-07-28_TALLADEGA-DIEHARD_501_RACE_B-ROLL_RICHARD_CHILDRESS_INTV_DESR_CRASH_NO3_JEFF_GORDON_WINNER_DESR_INTV_IS A18   C        03:35:51:00 03:35:51:08 00:58:10:07 00:58:10:13 
M2      ERN_F2211_NSCR_1996-07-28_TALLADEGA-DIEHARD_501_RACE_B-ROLL_RICHARD_CHILDRESS_INTV_DESR_CRASH_NO3_JEFF_GORDON_WINNER_DESR_INTV_IS          030.0 03:35:51:00 
*FROM CLIP NAME:  ERN_F2211_NSCR_1996-07-28_TALLADEGA-DIEHARD 501 RACE B-ROLL RICHARD CHILDRESS INTV DESR CRASH NO3 JEFF GORDON WINNER DESR INTV_ISC-00961.NEW.01 
*SOURCE FILE: ERN_F2211_NSCR_1996-07-28_TALLADEGA-DIEHARD 501 RACE B-ROLL RICHARD CHILDRESS INTV DESR CRASH NO3 JEFF GORDON WINNER DESR INTV_ISC-00961
000024  ERN_F9530_NSCR_1995-07-09_2_OF_2_RACE_BROADCAST_LOUDON_SLICK_50_300_95-EV-0388                                                    V     C        00:23:41:24 00:23:43:03 00:58:10:12 00:58:11:19 
M2      ERN_F9530_NSCR_1995-07-09_2_OF_2_RACE_BROADCAST_LOUDON_SLICK_50_300_95-EV-0388                                                             030.0 00:23:41:24 
*FROM CLIP NAME:  ERN_F9530_NSCR_1995-07-09_2 OF 2 RACE BROADCAST LOUDON SLICK 50 300_95-EV-0388.NEW.01 
*SOURCE FILE: ERN_F9530_NSCR_1995-07-09_2 OF 2 RACE BROADCAST LOUDON SLICK 50 300_95-EV-0388
000025  ERN_F9530_NSCR_1995-07-09_2_OF_2_RACE_BROADCAST_LOUDON_SLICK_50_300_95-EV-0388                                                    A24   C        00:23:42:19 00:23:42:23 00:58:11:08 00:58:11:11 
M2      ERN_F9530_NSCR_1995-07-09_2_OF_2_RACE_BROADCAST_LOUDON_SLICK_50_300_95-EV-0388                                                             030.0 00:23:42:19 
*FROM CLIP NAME:  ERN_F9530_NSCR_1995-07-09_2 OF 2 RACE BROADCAST LOUDON SLICK 50 300_95-EV-0388.NEW.01 
*SOURCE FILE: ERN_F9530_NSCR_1995-07-09_2 OF 2 RACE BROADCAST LOUDON SLICK 50 300_95-EV-0388
000026  ERN_F5264_NSCR_1997-02-16_DAYTONA_500-RACE_BROADCAST_DESR_NO3_GOODWRENCH_97-EV-0087                                               V     C        04:08:12:25 04:08:12:27 00:58:11:19 00:58:11:20 
M2      ERN_F5264_NSCR_1997-02-16_DAYTONA_500-RACE_BROADCAST_DESR_NO3_GOODWRENCH_97-EV-0087                                                        030.0 04:08:12:25 
*FROM CLIP NAME:  ERN_F5264_NSCR_1997-02-16_DAYTONA 500-RACE BROADCAST DESR NO3 GOODWRENCH_97-EV-0087.NEW.01 
*SOURCE FILE: ERN_F5264_NSCR_1997-02-16_DAYTONA 500-RACE BROADCAST DESR NO3 GOODWRENCH_97-EV-0087
000027  ERN_F5264_NSCR_1997-02-16_DAYTONA_500-RACE_BROADCAST_DESR_NO3_GOODWRENCH_97-EV-0087                                               V     C        04:08:12:26 04:08:12:28 00:58:11:20 00:58:11:21 
M2      ERN_F5264_NSCR_1997-02-16_DAYTONA_500-RACE_BROADCAST_DESR_NO3_GOODWRENCH_97-EV-0087                                                        030.0 04:08:12:26 
*FROM CLIP NAME:  ERN_F5264_NSCR_1997-02-16_DAYTONA 500-RACE BROADCAST DESR NO3 GOODWRENCH_97-EV-0087.NEW.01 
*TO CLIP NAME:  ERN_F5264_NSCR_1997-02-16_DAYTONA 500-RACE BROADCAST DESR NO3 GOODWRENCH_97-EV-0087.NEW.01 
*SOURCE FILE: ERN_F5264_NSCR_1997-02-16_DAYTONA 500-RACE BROADCAST DESR NO3 GOODWRENCH_97-EV-0087
000028  ERN_F5264_NSCR_1997-02-16_DAYTONA_500-RACE_BROADCAST_DESR_NO3_GOODWRENCH_97-EV-0087                                               V     C        04:08:12:27 04:08:14:09 00:58:11:21 00:58:13:06 
M2      ERN_F5264_NSCR_1997-02-16_DAYTONA_500-RACE_BROADCAST_DESR_NO3_GOODWRENCH_97-EV-0087                                                        030.0 04:08:12:27 
*FROM CLIP NAME:  ERN_F5264_NSCR_1997-02-16_DAYTONA 500-RACE BROADCAST DESR NO3 GOODWRENCH_97-EV-0087.NEW.01 
*SOURCE FILE: ERN_F5264_NSCR_1997-02-16_DAYTONA 500-RACE BROADCAST DESR NO3 GOODWRENCH_97-EV-0087
000029  ERN_F9242_NSCR_1998-02-11_RACE_B-ROLL_INTV_DESR_BEFORE_DAYTONA_500_1989-NAS-YDZFHP-S001                                           A18   C        00:09:27:09 00:09:28:01 00:58:12:07 00:58:13:00 
M2      ERN_F9242_NSCR_1998-02-11_RACE_B-ROLL_INTV_DESR_BEFORE_DAYTONA_500_1989-NAS-YDZFHP-S001                                                    030.0 00:09:27:09 
*FROM CLIP NAME:  ERN_F9242_NSCR_1998-02-11_RACE B-ROLL INTV DESR BEFORE DAYTONA 500_1989-NAS-YDZFHP-S001.NEW.01 
*SOURCE FILE: ERN_F9242_NSCR_1998-02-11_RACE B-ROLL INTV DESR BEFORE DAYTONA 500_1989-NAS-YDZFHP-S001
000030  ERN_F9242_NSCR_1998-02-11_RACE_B-ROLL_INTV_DESR_BEFORE_DAYTONA_500_1989-NAS-YDZFHP-S001                                           A18   C        00:09:28:10 00:09:28:13 00:58:13:00 00:58:13:02 
M2      ERN_F9242_NSCR_1998-02-11_RACE_B-ROLL_INTV_DESR_BEFORE_DAYTONA_500_1989-NAS-YDZFHP-S001                                                    030.0 00:09:28:10 
*FROM CLIP NAME:  ERN_F9242_NSCR_1998-02-11_RACE B-ROLL INTV DESR BEFORE DAYTONA 500_1989-NAS-YDZFHP-S001.NEW.01 
*TO CLIP NAME:  ERN_F9242_NSCR_1998-02-11_RACE B-ROLL INTV DESR BEFORE DAYTONA 500_1989-NAS-YDZFHP-S001.NEW.01 
*SOURCE FILE: ERN_F9242_NSCR_1998-02-11_RACE B-ROLL INTV DESR BEFORE DAYTONA 500_1989-NAS-YDZFHP-S001
000031  ERN_F9242_NSCR_1998-02-11_RACE_B-ROLL_INTV_DESR_BEFORE_DAYTONA_500_1989-NAS-YDZFHP-S001                                           A18   C        00:09:28:13 00:09:29:11 00:58:13:02 00:58:14:00 
M2      ERN_F9242_NSCR_1998-02-11_RACE_B-ROLL_INTV_DESR_BEFORE_DAYTONA_500_1989-NAS-YDZFHP-S001                                                    030.0 00:09:28:13 
*FROM CLIP NAME:  ERN_F9242_NSCR_1998-02-11_RACE B-ROLL INTV DESR BEFORE DAYTONA 500_1989-NAS-YDZFHP-S001.NEW.01 
*SOURCE FILE: ERN_F9242_NSCR_1998-02-11_RACE B-ROLL INTV DESR BEFORE DAYTONA 500_1989-NAS-YDZFHP-S001
000032  ERN_F2038_NSCR_1994-12-02_2_OF_2_BANQUET_BROADCAST_WINSTON_CUP_AWARDS_W_INTV_DESR_&_TERESA_EARNHARDT_SE004920                     V     C        00:12:19:07 00:12:20:13 00:58:13:06 00:58:14:10 
M2      ERN_F2038_NSCR_1994-12-02_2_OF_2_BANQUET_BROADCAST_WINSTON_CUP_AWARDS_W_INTV_DESR_&_TERESA_EARNHARDT_SE004920                              030.0 00:12:19:07 
*FROM CLIP NAME:  ERN_F2038_NSCR_1994-12-02_2 OF 2 BANQUET BROADCAST WINSTON CUP AWARDS W INTV DESR & TERESA EARNHARDT_SE004920.NEW.01 
*SOURCE FILE: ERN_F2038_NSCR_1994-12-02_2 OF 2 BANQUET BROADCAST WINSTON CUP AWARDS W INTV DESR & TERESA EARNHARDT_SE004920
000033  ERN_F9242_NSCR_1998-02-11_RACE_B-ROLL_INTV_DESR_BEFORE_DAYTONA_500_1989-NAS-YDZFHP-S001                                           A18   C        00:09:29:20 00:09:29:22 00:58:14:00 00:58:14:01 
M2      ERN_F9242_NSCR_1998-02-11_RACE_B-ROLL_INTV_DESR_BEFORE_DAYTONA_500_1989-NAS-YDZFHP-S001                                                    030.0 00:09:29:20 
*FROM CLIP NAME:  ERN_F9242_NSCR_1998-02-11_RACE B-ROLL INTV DESR BEFORE DAYTONA 500_1989-NAS-YDZFHP-S001.NEW.01 
*TO CLIP NAME:  ERN_F9242_NSCR_1998-02-11_RACE B-ROLL INTV DESR BEFORE DAYTONA 500_1989-NAS-YDZFHP-S001.NEW.01 
*SOURCE FILE: ERN_F9242_NSCR_1998-02-11_RACE B-ROLL INTV DESR BEFORE DAYTONA 500_1989-NAS-YDZFHP-S001
000034  ERN_F9242_NSCR_1998-02-11_RACE_B-ROLL_INTV_DESR_BEFORE_DAYTONA_500_1989-NAS-YDZFHP-S001                                           A18   C        00:09:29:21 00:09:30:26 00:58:14:01 00:58:15:04 
M2      ERN_F9242_NSCR_1998-02-11_RACE_B-ROLL_INTV_DESR_BEFORE_DAYTONA_500_1989-NAS-YDZFHP-S001                                                    030.0 00:09:29:21 
*FROM CLIP NAME:  ERN_F9242_NSCR_1998-02-11_RACE B-ROLL INTV DESR BEFORE DAYTONA 500_1989-NAS-YDZFHP-S001.NEW.01 
*SOURCE FILE: ERN_F9242_NSCR_1998-02-11_RACE B-ROLL INTV DESR BEFORE DAYTONA 500_1989-NAS-YDZFHP-S001
000035  ERN_F2038_NSCR_1994-12-02_2_OF_2_BANQUET_BROADCAST_WINSTON_CUP_AWARDS_W_INTV_DESR_&_TERESA_EARNHARDT_SE004920                     V     C        00:12:24:11 00:12:25:21 00:58:14:10 00:58:16:01 
M2      ERN_F2038_NSCR_1994-12-02_2_OF_2_BANQUET_BROADCAST_WINSTON_CUP_AWARDS_W_INTV_DESR_&_TERESA_EARNHARDT_SE004920                              024.0 00:12:24:11 
*FROM CLIP NAME:  ERN_F2038_NSCR_1994-12-02_2 OF 2 BANQUET BROADCAST WINSTON CUP AWARDS W INTV DESR & TERESA EARNHARDT_SE004920.NEW.01 
*SOURCE FILE: ERN_F2038_NSCR_1994-12-02_2 OF 2 BANQUET BROADCAST WINSTON CUP AWARDS W INTV DESR & TERESA EARNHARDT_SE004920
000036  ERN_F1011_NSCR_1990S_RACE_B-ROLL_SPORTSMAN_RACE_CHARLOTTE_DESR_NO3_KIRK_SHELMERDINE_14_EARNHARDT_SATAM                            A22   C        00:18:07:23 00:18:08:08 00:58:15:13 00:58:16:01 
M2      ERN_F1011_NSCR_1990S_RACE_B-ROLL_SPORTSMAN_RACE_CHARLOTTE_DESR_NO3_KIRK_SHELMERDINE_14_EARNHARDT_SATAM                                     030.0 00:18:07:23 
*FROM CLIP NAME:  ERN_F1011_NSCR_1990S_RACE B-ROLL SPORTSMAN RACE CHARLOTTE DESR NO3 KIRK SHELMERDINE_14_EARNHARDT SATAM.NEW.01.COPY.01 
*SOURCE FILE: ERN_F1011_NSCR_1990S_RACE B-ROLL SPORTSMAN RACE CHARLOTTE DESR NO3 KIRK SHELMERDINE_14_EARNHARDT SATAM
000037  ERN_F0515_NSCR_1990S_B-ROLL_BTS_INTV_YOUNG_DALE_EARNHARDT_JR_AT_TRACK_W_DALE_EARNHARDT_TERESA_EARNHARDT__14141_DALEJR_KID         V     C        00:12:22:28 00:12:24:27 00:58:16:01 00:58:17:23 
M2      ERN_F0515_NSCR_1990S_B-ROLL_BTS_INTV_YOUNG_DALE_EARNHARDT_JR_AT_TRACK_W_DALE_EARNHARDT_TERESA_EARNHARDT__14141_DALEJR_KID                  030.0 00:12:22:28 
*FROM CLIP NAME:  ERN_F0515_NSCR_1990S_B-ROLL BTS INTV YOUNG DALE EARNHARDT JR AT TRACK W DALE EARNHARDT TERESA EARNHARDT _14141_DALEJR_KID.NEW.01 
*SOURCE FILE: ERN_F0515_NSCR_1990S_B-ROLL BTS INTV YOUNG DALE EARNHARDT JR AT TRACK W DALE EARNHARDT TERESA EARNHARDT _14141_DALEJR_KID
000038  ERN_F1011_NSCR_1990S_RACE_B-ROLL_SPORTSMAN_RACE_CHARLOTTE_DESR_NO3_KIRK_SHELMERDINE_14_EARNHARDT_SATAM                            A22   C        00:18:08:08 00:18:10:07 00:58:16:01 00:58:18:00 
M2      ERN_F1011_NSCR_1990S_RACE_B-ROLL_SPORTSMAN_RACE_CHARLOTTE_DESR_NO3_KIRK_SHELMERDINE_14_EARNHARDT_SATAM                                     030.0 00:18:08:08 
*FROM CLIP NAME:  ERN_F1011_NSCR_1990S_RACE B-ROLL SPORTSMAN RACE CHARLOTTE DESR NO3 KIRK SHELMERDINE_14_EARNHARDT SATAM.NEW.01.COPY.01 
*SOURCE FILE: ERN_F1011_NSCR_1990S_RACE B-ROLL SPORTSMAN RACE CHARLOTTE DESR NO3 KIRK SHELMERDINE_14_EARNHARDT SATAM
000039  ERN_F0507_NSCR_1995_INTV_DALE_EARNHARDT_JR_TOPICS_-_DALE_AS_A_DAD_&_MAKING_HIM_PROUD_&_DALE_AT_HOME_1995-NAS-00033_S001           A18   C        02:37:31:04 02:37:31:09 00:58:16:03 00:58:16:07 
M2      ERN_F0507_NSCR_1995_INTV_DALE_EARNHARDT_JR_TOPICS_-_DALE_AS_A_DAD_&_MAKING_HIM_PROUD_&_DALE_AT_HOME_1995-NAS-00033_S001                    030.0 02:37:31:04 
*FROM CLIP NAME:  ERN_F0507_NSCR_1995_INTV DALE EARNHARDT JR TOPICS - DALE AS A DAD & MAKING HIM PROUD & DALE AT HOME_1995-NAS-00033_S001.NEW.02 
*SOURCE FILE: ERN_F0507_NSCR_1995_INTV DALE EARNHARDT JR TOPICS - DALE AS A DAD & MAKING HIM PROUD & DALE AT HOME_1995-NAS-00033_S001
000040  ERN_F0507_NSCR_1995_INTV_DALE_EARNHARDT_JR_TOPICS_-_DALE_AS_A_DAD_&_MAKING_HIM_PROUD_&_DALE_AT_HOME_1995-NAS-00033_S001           A18   C        02:37:31:09 02:37:33:07 00:58:16:07 00:58:18:05 
M2      ERN_F0507_NSCR_1995_INTV_DALE_EARNHARDT_JR_TOPICS_-_DALE_AS_A_DAD_&_MAKING_HIM_PROUD_&_DALE_AT_HOME_1995-NAS-00033_S001                    030.0 02:37:31:09 
*FROM CLIP NAME:  ERN_F0507_NSCR_1995_INTV DALE EARNHARDT JR TOPICS - DALE AS A DAD & MAKING HIM PROUD & DALE AT HOME_1995-NAS-00033_S001.NEW.02 
*SOURCE FILE: ERN_F0507_NSCR_1995_INTV DALE EARNHARDT JR TOPICS - DALE AS A DAD & MAKING HIM PROUD & DALE AT HOME_1995-NAS-00033_S001
000041  ERN_F1047_NSCR_1990S_RACE_B-ROLL_DEJR_STOCK_CAR_&_RACE_PREP_54__DALE_JR_2                                                         V     C        00:18:25:23 00:18:27:10 00:58:17:23 00:58:19:12 
M2      ERN_F1047_NSCR_1990S_RACE_B-ROLL_DEJR_STOCK_CAR_&_RACE_PREP_54__DALE_JR_2                                                                  030.0 00:18:25:23 
*FROM CLIP NAME:  ERN_F1047_NSCR_1990S_RACE B-ROLL DEJR STOCK CAR & RACE PREP_54_ DALE JR 2.NEW.01 
*SOURCE FILE: ERN_F1047_NSCR_1990S_RACE B-ROLL DEJR STOCK CAR & RACE PREP_54_ DALE JR 2
000042  ERN_F0238_NSCR_1990_13_OF_17_B-ROLL_DALE_EARNHARDT_TALKING_W_RUSTY_WALLACE_&_GARAGE_&_SPEEDWAY_&_IN_CAR_SE005535_S013             A22   C        00:20:15:27 00:20:16:13 00:58:18:00 00:58:18:12 
M2      ERN_F0238_NSCR_1990_13_OF_17_B-ROLL_DALE_EARNHARDT_TALKING_W_RUSTY_WALLACE_&_GARAGE_&_SPEEDWAY_&_IN_CAR_SE005535_S013                      030.0 00:20:15:27 
*FROM CLIP NAME:  ERN_F0238_NSCR_1990_13 OF 17 B-ROLL DALE EARNHARDT TALKING W RUSTY WALLACE & GARAGE & SPEEDWAY & IN CAR_SE005535_S013.NEW.01 
*TO CLIP NAME:  ERN_F1011_NSCR_1990S_RACE B-ROLL SPORTSMAN RACE CHARLOTTE DESR NO3 KIRK SHELMERDINE_14_EARNHARDT SATAM.NEW.01.COPY.01 
*SOURCE FILE: ERN_F0238_NSCR_1990_13 OF 17 B-ROLL DALE EARNHARDT TALKING W RUSTY WALLACE & GARAGE & SPEEDWAY & IN CAR_SE005535_S013
000043  ERN_F0507_NSCR_1995_INTV_DALE_EARNHARDT_JR_TOPICS_-_DALE_AS_A_DAD_&_MAKING_HIM_PROUD_&_DALE_AT_HOME_1995-NAS-00033_S001           A18   C        02:37:24:22 02:37:24:26 00:58:18:05 00:58:18:07 
M2      ERN_F0507_NSCR_1995_INTV_DALE_EARNHARDT_JR_TOPICS_-_DALE_AS_A_DAD_&_MAKING_HIM_PROUD_&_DALE_AT_HOME_1995-NAS-00033_S001                    030.0 02:37:24:22 
*FROM CLIP NAME:  ERN_F0507_NSCR_1995_INTV DALE EARNHARDT JR TOPICS - DALE AS A DAD & MAKING HIM PROUD & DALE AT HOME_1995-NAS-00033_S001.NEW.02 
*TO CLIP NAME:  ERN_F0507_NSCR_1995_INTV DALE EARNHARDT JR TOPICS - DALE AS A DAD & MAKING HIM PROUD & DALE AT HOME_1995-NAS-00033_S001.NEW.02 
*SOURCE FILE: ERN_F0507_NSCR_1995_INTV DALE EARNHARDT JR TOPICS - DALE AS A DAD & MAKING HIM PROUD & DALE AT HOME_1995-NAS-00033_S001
000044  ERN_F0507_NSCR_1995_INTV_DALE_EARNHARDT_JR_TOPICS_-_DALE_AS_A_DAD_&_MAKING_HIM_PROUD_&_DALE_AT_HOME_1995-NAS-00033_S001           A18   C        02:37:24:25 02:37:25:13 00:58:18:07 00:58:18:21 
M2      ERN_F0507_NSCR_1995_INTV_DALE_EARNHARDT_JR_TOPICS_-_DALE_AS_A_DAD_&_MAKING_HIM_PROUD_&_DALE_AT_HOME_1995-NAS-00033_S001                    030.0 02:37:24:25 
*FROM CLIP NAME:  ERN_F0507_NSCR_1995_INTV DALE EARNHARDT JR TOPICS - DALE AS A DAD & MAKING HIM PROUD & DALE AT HOME_1995-NAS-00033_S001.NEW.02 
*SOURCE FILE: ERN_F0507_NSCR_1995_INTV DALE EARNHARDT JR TOPICS - DALE AS A DAD & MAKING HIM PROUD & DALE AT HOME_1995-NAS-00033_S001
000045  ERN_F0238_NSCR_1990_13_OF_17_B-ROLL_DALE_EARNHARDT_TALKING_W_RUSTY_WALLACE_&_GARAGE_&_SPEEDWAY_&_IN_CAR_SE005535_S013             A22   C        00:20:16:12 00:20:22:29 00:58:18:12 00:58:25:01 
M2      ERN_F0238_NSCR_1990_13_OF_17_B-ROLL_DALE_EARNHARDT_TALKING_W_RUSTY_WALLACE_&_GARAGE_&_SPEEDWAY_&_IN_CAR_SE005535_S013                      030.0 00:20:16:12 
*FROM CLIP NAME:  ERN_F0238_NSCR_1990_13 OF 17 B-ROLL DALE EARNHARDT TALKING W RUSTY WALLACE & GARAGE & SPEEDWAY & IN CAR_SE005535_S013.NEW.01 
*SOURCE FILE: ERN_F0238_NSCR_1990_13 OF 17 B-ROLL DALE EARNHARDT TALKING W RUSTY WALLACE & GARAGE & SPEEDWAY & IN CAR_SE005535_S013
000046  ERN_F0775_NSCR_1997-06-28_RACE_NASCAR_BUSCH_SERIES_(XFINITY)_-_WATKINS_GLEN_DALE_DEJR_INTV_97-EV-0569                             V     C        00:14:48:24 00:14:50:10 00:58:19:12 00:58:21:00 
M2      ERN_F0775_NSCR_1997-06-28_RACE_NASCAR_BUSCH_SERIES_(XFINITY)_-_WATKINS_GLEN_DALE_DEJR_INTV_97-EV-0569                                      030.0 00:14:48:24 
*FROM CLIP NAME:  ERN_F0775_NSCR_1997-06-28_RACE NASCAR BUSCH SERIES (XFINITY) - WATKINS GLEN DALE DEJR INTV_97-EV-0569.NEW.01 
*SOURCE FILE: ERN_F0775_NSCR_1997-06-28_RACE NASCAR BUSCH SERIES (XFINITY) - WATKINS GLEN DALE DEJR INTV_97-EV-0569
000047  ERN_F5782_NSCR_1997-07-26_RACEB-ROLL_INTV_DEJR_GATEWAY_300_W_GARAGE_PREP_TNN011828_S001                                           V     C        01:12:02:17 01:12:03:20 00:58:21:00 00:58:22:02 
M2      ERN_F5782_NSCR_1997-07-26_RACEB-ROLL_INTV_DEJR_GATEWAY_300_W_GARAGE_PREP_TNN011828_S001                                                    030.0 01:12:02:17 
*FROM CLIP NAME:  ERN_F5782_NSCR_1997-07-26_RACEB-ROLL INTV DEJR GATEWAY 300 W GARAGE PREP_TNN011828_S001.NEW.01 
*SOURCE FILE: ERN_F5782_NSCR_1997-07-26_RACEB-ROLL INTV DEJR GATEWAY 300 W GARAGE PREP_TNN011828_S001
000048  ERN_F0426_NSCR_1998-02-14_B-ROLL_RICHARD_PETTY_SEGMENTS_DALE_EARNHARDT_JR_DRIVER_INTROS_NAPA_300_W_DALE_EARNHARDT_&_TERESA_EARNHA V     C        00:10:03:02 00:10:04:20 00:58:22:02 00:58:23:16 
M2      ERN_F0426_NSCR_1998-02-14_B-ROLL_RICHARD_PETTY_SEGMENTS_DALE_EARNHARDT_JR_DRIVER_INTROS_NAPA_300_W_DALE_EARNHARDT_&_TERESA_EARNHA          030.0 00:10:03:02 
*FROM CLIP NAME:  ERN_F0426_NSCR_1998-02-14_B-ROLL RICHARD PETTY SEGMENTS DALE EARNHARDT JR DRIVER INTROS NAPA 300 W DALE EARNHARDT & TERESA EARNHARDT_98-EV-0090.NEW.01 
*SOURCE FILE: ERN_F0426_NSCR_1998-02-14_B-ROLL RICHARD PETTY SEGMENTS DALE EARNHARDT JR DRIVER INTROS NAPA 300 W DALE EARNHARDT & TERESA EARNHARDT_98-EV-0090
000049  ERN_F2089_DIRT_1995-04-03_RACE_BTS_B-ROLL_RAW_KELLEY_KERRY_FAMILY_HICKORY_MOTOR_SPEEDWAY_NC_DMO_DRIVE                             V     C        01:50:37:20 01:50:39:14 00:58:23:16 00:58:25:10 
*FROM CLIP NAME:  ERN_F2089_DIRT_1995-04-03_RACE BTS B-ROLL RAW KELLEY KERRY FAMILY HICKORY MOTOR SPEEDWAY NC_DMO DRIVE.NEW.01 
*SOURCE FILE: ERN_F2089_DIRT_1995-04-03_RACE BTS B-ROLL RAW KELLEY KERRY FAMILY HICKORY MOTOR SPEEDWAY NC_DMO DRIVE
000050  ERN_F6467_NSCR_2000-05-20_3_OF_3_RACE_BROADCAST_THE_WINSTON_ALL_STAR_00-EV-1157                                                   A22   C        20:54:42:07 20:54:42:23 00:58:25:01 00:58:25:13 
M2      ERN_F6467_NSCR_2000-05-20_3_OF_3_RACE_BROADCAST_THE_WINSTON_ALL_STAR_00-EV-1157                                                            030.0 20:54:42:07 
*FROM CLIP NAME:  ERN_F6467_NSCR_2000-05-20_3 OF 3 RACE BROADCAST THE WINSTON ALL STAR_00-EV-1157.NEW.01 
*TO CLIP NAME:  ERN_F0238_NSCR_1990_13 OF 17 B-ROLL DALE EARNHARDT TALKING W RUSTY WALLACE & GARAGE & SPEEDWAY & IN CAR_SE005535_S013.NEW.01 
*SOURCE FILE: ERN_F6467_NSCR_2000-05-20_3 OF 3 RACE BROADCAST THE WINSTON ALL STAR_00-EV-1157
000051  ERN_F6467_NSCR_2000-05-20_3_OF_3_RACE_BROADCAST_THE_WINSTON_ALL_STAR_00-EV-1157                                                   V     C        20:54:42:19 20:54:44:12 00:58:25:10 00:58:27:04 
M2      ERN_F6467_NSCR_2000-05-20_3_OF_3_RACE_BROADCAST_THE_WINSTON_ALL_STAR_00-EV-1157                                                            030.0 20:54:42:19 
*FROM CLIP NAME:  ERN_F6467_NSCR_2000-05-20_3 OF 3 RACE BROADCAST THE WINSTON ALL STAR_00-EV-1157.NEW.01 
*SOURCE FILE: ERN_F6467_NSCR_2000-05-20_3 OF 3 RACE BROADCAST THE WINSTON ALL STAR_00-EV-1157
000052  ERN_F6467_NSCR_2000-05-20_3_OF_3_RACE_BROADCAST_THE_WINSTON_ALL_STAR_00-EV-1157                                                   A22   C        20:54:42:22 20:54:44:06 00:58:25:13 00:58:26:23 
M2      ERN_F6467_NSCR_2000-05-20_3_OF_3_RACE_BROADCAST_THE_WINSTON_ALL_STAR_00-EV-1157                                                            030.0 20:54:42:22 
*FROM CLIP NAME:  ERN_F6467_NSCR_2000-05-20_3 OF 3 RACE BROADCAST THE WINSTON ALL STAR_00-EV-1157.NEW.01 
*SOURCE FILE: ERN_F6467_NSCR_2000-05-20_3 OF 3 RACE BROADCAST THE WINSTON ALL STAR_00-EV-1157
000053  ERN_F6467_NSCR_2000-05-20_3_OF_3_RACE_BROADCAST_THE_WINSTON_ALL_STAR_00-EV-1157                                                   A22   C        20:19:21:19 20:19:22:05 00:58:26:23 00:58:27:11 
M2      ERN_F6467_NSCR_2000-05-20_3_OF_3_RACE_BROADCAST_THE_WINSTON_ALL_STAR_00-EV-1157                                                            030.0 20:19:21:19 
*FROM CLIP NAME:  ERN_F6467_NSCR_2000-05-20_3 OF 3 RACE BROADCAST THE WINSTON ALL STAR_00-EV-1157.NEW.01 
*TO CLIP NAME:  ERN_F6467_NSCR_2000-05-20_3 OF 3 RACE BROADCAST THE WINSTON ALL STAR_00-EV-1157.NEW.01 
*SOURCE FILE: ERN_F6467_NSCR_2000-05-20_3 OF 3 RACE BROADCAST THE WINSTON ALL STAR_00-EV-1157
000054  ERN_F6467_NSCR_2000-05-20_3_OF_3_RACE_BROADCAST_THE_WINSTON_ALL_STAR_00-EV-1157                                                   V     C        20:19:21:25 20:19:22:21 00:58:27:04 00:58:28:00 
M2      ERN_F6467_NSCR_2000-05-20_3_OF_3_RACE_BROADCAST_THE_WINSTON_ALL_STAR_00-EV-1157                                                            030.0 20:19:21:25 
*FROM CLIP NAME:  ERN_F6467_NSCR_2000-05-20_3 OF 3 RACE BROADCAST THE WINSTON ALL STAR_00-EV-1157.NEW.01 
*SOURCE FILE: ERN_F6467_NSCR_2000-05-20_3 OF 3 RACE BROADCAST THE WINSTON ALL STAR_00-EV-1157
000055  ERN_F6467_NSCR_2000-05-20_3_OF_3_RACE_BROADCAST_THE_WINSTON_ALL_STAR_00-EV-1157                                                   A22   C        20:19:22:04 20:19:22:21 00:58:27:11 00:58:28:00 
M2      ERN_F6467_NSCR_2000-05-20_3_OF_3_RACE_BROADCAST_THE_WINSTON_ALL_STAR_00-EV-1157                                                            030.0 20:19:22:04 
*FROM CLIP NAME:  ERN_F6467_NSCR_2000-05-20_3 OF 3 RACE BROADCAST THE WINSTON ALL STAR_00-EV-1157.NEW.01 
*SOURCE FILE: ERN_F6467_NSCR_2000-05-20_3 OF 3 RACE BROADCAST THE WINSTON ALL STAR_00-EV-1157
000056  ERN_F0076_NSCR_MIXED_DATES_RACE_B-ROLL_INTV_1_HOUR_DEJR_&_DESR_COMPILATION_REEL_2003-NAS-00080_S001                               A22   C        01:38:32:11 01:38:32:27 00:58:28:00 00:58:28:12 
M2      ERN_F0076_NSCR_MIXED_DATES_RACE_B-ROLL_INTV_1_HOUR_DEJR_&_DESR_COMPILATION_REEL_2003-NAS-00080_S001                                        030.0 01:38:32:11 
*FROM CLIP NAME:  ERN_F0076_NSCR_MIXED DATES_RACE B-ROLL INTV 1 HOUR DEJR & DESR COMPILATION REEL_2003-NAS-00080_S001.NEW.01 
*TO CLIP NAME:  ERN_F6467_NSCR_2000-05-20_3 OF 3 RACE BROADCAST THE WINSTON ALL STAR_00-EV-1157.NEW.01 
*SOURCE FILE: ERN_F0076_NSCR_MIXED DATES_RACE B-ROLL INTV 1 HOUR DEJR & DESR COMPILATION REEL_2003-NAS-00080_S001
000057  ERN_F0076_NSCR_MIXED_DATES_RACE_B-ROLL_INTV_1_HOUR_DEJR_&_DESR_COMPILATION_REEL_2003-NAS-00080_S001                               V     C        01:38:32:11 01:38:33:27 00:58:28:00 00:58:29:12 
M2      ERN_F0076_NSCR_MIXED_DATES_RACE_B-ROLL_INTV_1_HOUR_DEJR_&_DESR_COMPILATION_REEL_2003-NAS-00080_S001                                        030.0 01:38:32:11 
*FROM CLIP NAME:  ERN_F0076_NSCR_MIXED DATES_RACE B-ROLL INTV 1 HOUR DEJR & DESR COMPILATION REEL_2003-NAS-00080_S001.NEW.01 
*SOURCE FILE: ERN_F0076_NSCR_MIXED DATES_RACE B-ROLL INTV 1 HOUR DEJR & DESR COMPILATION REEL_2003-NAS-00080_S001
000058  ERN_F0076_NSCR_MIXED_DATES_RACE_B-ROLL_INTV_1_HOUR_DEJR_&_DESR_COMPILATION_REEL_2003-NAS-00080_S001                               A22   C        01:38:32:26 01:38:33:10 00:58:28:12 00:58:28:22 
M2      ERN_F0076_NSCR_MIXED_DATES_RACE_B-ROLL_INTV_1_HOUR_DEJR_&_DESR_COMPILATION_REEL_2003-NAS-00080_S001                                        030.0 01:38:32:26 
*FROM CLIP NAME:  ERN_F0076_NSCR_MIXED DATES_RACE B-ROLL INTV 1 HOUR DEJR & DESR COMPILATION REEL_2003-NAS-00080_S001.NEW.01 
*SOURCE FILE: ERN_F0076_NSCR_MIXED DATES_RACE B-ROLL INTV 1 HOUR DEJR & DESR COMPILATION REEL_2003-NAS-00080_S001
000059  ERN_F6467_NSCR_2000-05-20_3_OF_3_RACE_BROADCAST_THE_WINSTON_ALL_STAR_00-EV-1157                                                   A22   C        21:34:06:27 21:34:07:28 00:58:28:22 00:58:29:22 
M2      ERN_F6467_NSCR_2000-05-20_3_OF_3_RACE_BROADCAST_THE_WINSTON_ALL_STAR_00-EV-1157                                                            030.0 21:34:06:27 
*FROM CLIP NAME:  ERN_F6467_NSCR_2000-05-20_3 OF 3 RACE BROADCAST THE WINSTON ALL STAR_00-EV-1157.NEW.01 
*TO CLIP NAME:  ERN_F0076_NSCR_MIXED DATES_RACE B-ROLL INTV 1 HOUR DEJR & DESR COMPILATION REEL_2003-NAS-00080_S001.NEW.01 
*SOURCE FILE: ERN_F6467_NSCR_2000-05-20_3 OF 3 RACE BROADCAST THE WINSTON ALL STAR_00-EV-1157
000060  ERN_F6467_NSCR_2000-05-20_3_OF_3_RACE_BROADCAST_THE_WINSTON_ALL_STAR_00-EV-1157                                                   V     C        21:34:07:26 21:34:08:19 00:58:29:12 00:58:30:06 
M2      ERN_F6467_NSCR_2000-05-20_3_OF_3_RACE_BROADCAST_THE_WINSTON_ALL_STAR_00-EV-1157                                                            030.0 21:34:07:26 
*FROM CLIP NAME:  ERN_F6467_NSCR_2000-05-20_3 OF 3 RACE BROADCAST THE WINSTON ALL STAR_00-EV-1157.NEW.01 
*SOURCE FILE: ERN_F6467_NSCR_2000-05-20_3 OF 3 RACE BROADCAST THE WINSTON ALL STAR_00-EV-1157
000061  ERN_F6467_NSCR_2000-05-20_3_OF_3_RACE_BROADCAST_THE_WINSTON_ALL_STAR_00-EV-1157                                                   A22   C        21:34:07:27 21:34:08:09 00:58:29:22 00:58:30:07 
M2      ERN_F6467_NSCR_2000-05-20_3_OF_3_RACE_BROADCAST_THE_WINSTON_ALL_STAR_00-EV-1157                                                            030.0 21:34:07:27 
*FROM CLIP NAME:  ERN_F6467_NSCR_2000-05-20_3 OF 3 RACE BROADCAST THE WINSTON ALL STAR_00-EV-1157.NEW.01 
*SOURCE FILE: ERN_F6467_NSCR_2000-05-20_3 OF 3 RACE BROADCAST THE WINSTON ALL STAR_00-EV-1157
000062  ERN_F0076_NSCR_MIXED_DATES_RACE_B-ROLL_INTV_1_HOUR_DEJR_&_DESR_COMPILATION_REEL_2003-NAS-00080_S001                               V     C        01:39:32:01 01:39:33:13 00:58:30:06 00:58:31:15 
M2      ERN_F0076_NSCR_MIXED_DATES_RACE_B-ROLL_INTV_1_HOUR_DEJR_&_DESR_COMPILATION_REEL_2003-NAS-00080_S001                                        030.0 01:39:32:01 
*FROM CLIP NAME:  ERN_F0076_NSCR_MIXED DATES_RACE B-ROLL INTV 1 HOUR DEJR & DESR COMPILATION REEL_2003-NAS-00080_S001.NEW.01 
*SOURCE FILE: ERN_F0076_NSCR_MIXED DATES_RACE B-ROLL INTV 1 HOUR DEJR & DESR COMPILATION REEL_2003-NAS-00080_S001
000063  ERN_F0076_NSCR_MIXED_DATES_RACE_B-ROLL_INTV_1_HOUR_DEJR_&_DESR_COMPILATION_REEL_2003-NAS-00080_S001                               A22   C        01:39:31:21 01:39:32:22 00:58:30:07 00:58:31:07 
M2      ERN_F0076_NSCR_MIXED_DATES_RACE_B-ROLL_INTV_1_HOUR_DEJR_&_DESR_COMPILATION_REEL_2003-NAS-00080_S001                                        030.0 01:39:31:21 
*FROM CLIP NAME:  ERN_F0076_NSCR_MIXED DATES_RACE B-ROLL INTV 1 HOUR DEJR & DESR COMPILATION REEL_2003-NAS-00080_S001.NEW.01 
*TO CLIP NAME:  ERN_F6467_NSCR_2000-05-20_3 OF 3 RACE BROADCAST THE WINSTON ALL STAR_00-EV-1157.NEW.01 
*SOURCE FILE: ERN_F0076_NSCR_MIXED DATES_RACE B-ROLL INTV 1 HOUR DEJR & DESR COMPILATION REEL_2003-NAS-00080_S001
000064  ERN_F0076_NSCR_MIXED_DATES_RACE_B-ROLL_INTV_1_HOUR_DEJR_&_DESR_COMPILATION_REEL_2003-NAS-00080_S001                               A22   C        01:39:32:21 01:39:33:03 00:58:31:07 00:58:31:16 
M2      ERN_F0076_NSCR_MIXED_DATES_RACE_B-ROLL_INTV_1_HOUR_DEJR_&_DESR_COMPILATION_REEL_2003-NAS-00080_S001                                        030.0 01:39:32:21 
*FROM CLIP NAME:  ERN_F0076_NSCR_MIXED DATES_RACE B-ROLL INTV 1 HOUR DEJR & DESR COMPILATION REEL_2003-NAS-00080_S001.NEW.01 
*SOURCE FILE: ERN_F0076_NSCR_MIXED DATES_RACE B-ROLL INTV 1 HOUR DEJR & DESR COMPILATION REEL_2003-NAS-00080_S001
000065  ERN_F1339_NSCR_2000S_RACE_B-ROLL_INTV_DESR_RETIREMENT_&_LONGEVITY_W_DEJR_CAR_PREP_SCENES_&_WALKING_ON_TRACK_SE002900              V     C        00:20:49:19 00:20:52:13 00:58:31:15 00:58:34:09 
M2      ERN_F1339_NSCR_2000S_RACE_B-ROLL_INTV_DESR_RETIREMENT_&_LONGEVITY_W_DEJR_CAR_PREP_SCENES_&_WALKING_ON_TRACK_SE002900                       030.0 00:20:49:19 
*FROM CLIP NAME:  ERN_F1339_NSCR_2000S_RACE B-ROLL INTV DESR RETIREMENT & LONGEVITY W DEJR CAR PREP SCENES & WALKING ON TRACK_SE002900.NEW.01 
*SOURCE FILE: ERN_F1339_NSCR_2000S_RACE B-ROLL INTV DESR RETIREMENT & LONGEVITY W DEJR CAR PREP SCENES & WALKING ON TRACK_SE002900
000066  ERN_F1147_NSCR_2001-02-18_RACE_B-ROLL_DAYTONA_500_DESR_INFIELD_PREP_&_STARTING_LAPS_&_FANS_01-EV-0065-EDIT_PROXY                  A20   C        00:12:39:11 00:12:39:16 00:58:33:18 00:58:33:21 
M2      ERN_F1147_NSCR_2001-02-18_RACE_B-ROLL_DAYTONA_500_DESR_INFIELD_PREP_&_STARTING_LAPS_&_FANS_01-EV-0065-EDIT_PROXY                           030.0 00:12:39:11 
*FROM CLIP NAME:  ERN_F1147_NSCR_2001-02-18_RACE B-ROLL DAYTONA 500 DESR INFIELD PREP & STARTING LAPS & FANS_01-EV-0065-EDIT_PROXY.NEW.01 
*SOURCE FILE: ERN_F1147_NSCR_2001-02-18_RACE B-ROLL DAYTONA 500 DESR INFIELD PREP & STARTING LAPS & FANS_01-EV-0065-EDIT_PROXY
000067  ERN_F1147_NSCR_2001-02-18_RACE_B-ROLL_DAYTONA_500_DESR_INFIELD_PREP_&_STARTING_LAPS_&_FANS_01-EV-0065-EDIT_PROXY                  A20   C        00:12:39:15 00:12:40:02 00:58:33:21 00:58:34:10 
M2      ERN_F1147_NSCR_2001-02-18_RACE_B-ROLL_DAYTONA_500_DESR_INFIELD_PREP_&_STARTING_LAPS_&_FANS_01-EV-0065-EDIT_PROXY                           030.0 00:12:39:15 
*FROM CLIP NAME:  ERN_F1147_NSCR_2001-02-18_RACE B-ROLL DAYTONA 500 DESR INFIELD PREP & STARTING LAPS & FANS_01-EV-0065-EDIT_PROXY.NEW.01 
*SOURCE FILE: ERN_F1147_NSCR_2001-02-18_RACE B-ROLL DAYTONA 500 DESR INFIELD PREP & STARTING LAPS & FANS_01-EV-0065-EDIT_PROXY
000068  ERN_F1083_NSCR_2001-02-18_1_OF_3_RACE_DAYTONA_500_BROADCAST_DESR_DEADLY_CRASH_01-EV-0111_TAPE_1                                   V     C        09:51:52:10 09:51:53:28 00:58:34:09 00:58:35:23 
M2      ERN_F1083_NSCR_2001-02-18_1_OF_3_RACE_DAYTONA_500_BROADCAST_DESR_DEADLY_CRASH_01-EV-0111_TAPE_1                                            030.0 09:51:52:10 
*FROM CLIP NAME:  ERN_F1083_NSCR_2001-02-18_1 OF 3 RACE DAYTONA 500 BROADCAST DESR DEADLY CRASH_01-EV-0111_TAPE_1.NEW.01 
*SOURCE FILE: ERN_F1083_NSCR_2001-02-18_1 OF 3 RACE DAYTONA 500 BROADCAST DESR DEADLY CRASH_01-EV-0111_TAPE_1
000069  ERN_F1147_NSCR_2001-02-18_RACE_B-ROLL_DAYTONA_500_DESR_INFIELD_PREP_&_STARTING_LAPS_&_FANS_01-EV-0065-EDIT_PROXY                  A20   C        00:12:40:17 00:12:40:19 00:58:34:10 00:58:34:11 
M2      ERN_F1147_NSCR_2001-02-18_RACE_B-ROLL_DAYTONA_500_DESR_INFIELD_PREP_&_STARTING_LAPS_&_FANS_01-EV-0065-EDIT_PROXY                           030.0 00:12:40:17 
*FROM CLIP NAME:  ERN_F1147_NSCR_2001-02-18_RACE B-ROLL DAYTONA 500 DESR INFIELD PREP & STARTING LAPS & FANS_01-EV-0065-EDIT_PROXY.NEW.01 
*TO CLIP NAME:  ERN_F1147_NSCR_2001-02-18_RACE B-ROLL DAYTONA 500 DESR INFIELD PREP & STARTING LAPS & FANS_01-EV-0065-EDIT_PROXY.NEW.01 
*SOURCE FILE: ERN_F1147_NSCR_2001-02-18_RACE B-ROLL DAYTONA 500 DESR INFIELD PREP & STARTING LAPS & FANS_01-EV-0065-EDIT_PROXY
000070  ERN_F1147_NSCR_2001-02-18_RACE_B-ROLL_DAYTONA_500_DESR_INFIELD_PREP_&_STARTING_LAPS_&_FANS_01-EV-0065-EDIT_PROXY                  A20   C        00:12:40:19 00:12:41:09 00:58:34:11 00:58:35:03 
M2      ERN_F1147_NSCR_2001-02-18_RACE_B-ROLL_DAYTONA_500_DESR_INFIELD_PREP_&_STARTING_LAPS_&_FANS_01-EV-0065-EDIT_PROXY                           030.0 00:12:40:19 
*FROM CLIP NAME:  ERN_F1147_NSCR_2001-02-18_RACE B-ROLL DAYTONA 500 DESR INFIELD PREP & STARTING LAPS & FANS_01-EV-0065-EDIT_PROXY.NEW.01 
*SOURCE FILE: ERN_F1147_NSCR_2001-02-18_RACE B-ROLL DAYTONA 500 DESR INFIELD PREP & STARTING LAPS & FANS_01-EV-0065-EDIT_PROXY
000071  ERN_F1147_NSCR_2001-02-18_RACE_B-ROLL_DAYTONA_500_DESR_INFIELD_PREP_&_STARTING_LAPS_&_FANS_01-EV-0065-EDIT_PROXY                  A20   C        00:12:42:02 00:12:42:04 00:58:35:03 00:58:35:04 
M2      ERN_F1147_NSCR_2001-02-18_RACE_B-ROLL_DAYTONA_500_DESR_INFIELD_PREP_&_STARTING_LAPS_&_FANS_01-EV-0065-EDIT_PROXY                           030.0 00:12:42:02 
*FROM CLIP NAME:  ERN_F1147_NSCR_2001-02-18_RACE B-ROLL DAYTONA 500 DESR INFIELD PREP & STARTING LAPS & FANS_01-EV-0065-EDIT_PROXY.NEW.01 
*TO CLIP NAME:  ERN_F1147_NSCR_2001-02-18_RACE B-ROLL DAYTONA 500 DESR INFIELD PREP & STARTING LAPS & FANS_01-EV-0065-EDIT_PROXY.NEW.01 
*SOURCE FILE: ERN_F1147_NSCR_2001-02-18_RACE B-ROLL DAYTONA 500 DESR INFIELD PREP & STARTING LAPS & FANS_01-EV-0065-EDIT_PROXY
000072  ERN_F1147_NSCR_2001-02-18_RACE_B-ROLL_DAYTONA_500_DESR_INFIELD_PREP_&_STARTING_LAPS_&_FANS_01-EV-0065-EDIT_PROXY                  A20   C        00:12:42:04 00:12:43:06 00:58:35:04 00:58:36:05 
M2      ERN_F1147_NSCR_2001-02-18_RACE_B-ROLL_DAYTONA_500_DESR_INFIELD_PREP_&_STARTING_LAPS_&_FANS_01-EV-0065-EDIT_PROXY                           030.0 00:12:42:04 
*FROM CLIP NAME:  ERN_F1147_NSCR_2001-02-18_RACE B-ROLL DAYTONA 500 DESR INFIELD PREP & STARTING LAPS & FANS_01-EV-0065-EDIT_PROXY.NEW.01 
*SOURCE FILE: ERN_F1147_NSCR_2001-02-18_RACE B-ROLL DAYTONA 500 DESR INFIELD PREP & STARTING LAPS & FANS_01-EV-0065-EDIT_PROXY
000073  ERN_F5729_NSCR_2001-02-18_RACE_B-ROLL_DAYTONA_500_PRE_RACE_TRACK_SCENES_&_FLY-BYS_W_VICTORY_LANE_SCENES_01-EV-0123A               V     C        01:38:35:18 01:38:37:10 00:58:35:23 00:58:37:16 
M2      ERN_F5729_NSCR_2001-02-18_RACE_B-ROLL_DAYTONA_500_PRE_RACE_TRACK_SCENES_&_FLY-BYS_W_VICTORY_LANE_SCENES_01-EV-0123A                        030.0 01:38:35:18 
*FROM CLIP NAME:  ERN_F5729_NSCR_2001-02-18_RACE B-ROLL DAYTONA 500 PRE RACE TRACK SCENES & FLY-BYS W VICTORY LANE SCENES_01-EV-0123A.NEW.01 
*SOURCE FILE: ERN_F5729_NSCR_2001-02-18_RACE B-ROLL DAYTONA 500 PRE RACE TRACK SCENES & FLY-BYS W VICTORY LANE SCENES_01-EV-0123A
000074  ERN_F1401_NSCR_2001-02-18_RACE_B-ROLL_DAYTONA_500_TRACK_SCENES_W_DEJR_DONALD_TRUMP_TN01_E01052_S002                               A20   C        23:19:56:26 23:19:58:26 00:58:36:05 00:58:38:05 
M2      ERN_F1401_NSCR_2001-02-18_RACE_B-ROLL_DAYTONA_500_TRACK_SCENES_W_DEJR_DONALD_TRUMP_TN01_E01052_S002                                        030.0 23:19:56:26 
*FROM CLIP NAME:  ERN_F1401_NSCR_2001-02-18_RACE B-ROLL DAYTONA 500 TRACK SCENES W DEJR DONALD TRUMP_TN01_E01052_S002.NEW.01 
*TO CLIP NAME:  ERN_F1147_NSCR_2001-02-18_RACE B-ROLL DAYTONA 500 DESR INFIELD PREP & STARTING LAPS & FANS_01-EV-0065-EDIT_PROXY.NEW.01 
*SOURCE FILE: ERN_F1401_NSCR_2001-02-18_RACE B-ROLL DAYTONA 500 TRACK SCENES W DEJR DONALD TRUMP_TN01_E01052_S002
000075  ERN_F1738_NSCR_1997-05-21_CHARLOTTE_MOTOR_SPEEDWAY-COCA-COLA_600-DESR_INTV_1997-NAS-00020                                         A22   C        00:24:34:21 00:24:36:25 00:58:36:22 00:58:39:01 
M2      ERN_F1738_NSCR_1997-05-21_CHARLOTTE_MOTOR_SPEEDWAY-COCA-COLA_600-DESR_INTV_1997-NAS-00020                                                  030.0 00:24:34:21 
*FROM CLIP NAME:  ERN_F1738_NSCR_1997-05-21_CHARLOTTE MOTOR SPEEDWAY-COCA-COLA 600-DESR INTV_1997-NAS-00020.NEW.01 
*SOURCE FILE: ERN_F1738_NSCR_1997-05-21_CHARLOTTE MOTOR SPEEDWAY-COCA-COLA 600-DESR INTV_1997-NAS-00020
000076  ERN_F1401_NSCR_2001-02-18_RACE_B-ROLL_DAYTONA_500_TRACK_SCENES_W_DEJR_DONALD_TRUMP_TN01_E01052_S002                               V     C        23:19:58:09 23:19:59:28 00:58:37:16 00:58:39:06 
M2      ERN_F1401_NSCR_2001-02-18_RACE_B-ROLL_DAYTONA_500_TRACK_SCENES_W_DEJR_DONALD_TRUMP_TN01_E01052_S002                                        030.0 23:19:58:09 
*FROM CLIP NAME:  ERN_F1401_NSCR_2001-02-18_RACE B-ROLL DAYTONA 500 TRACK SCENES W DEJR DONALD TRUMP_TN01_E01052_S002.NEW.01 
*SOURCE FILE: ERN_F1401_NSCR_2001-02-18_RACE B-ROLL DAYTONA 500 TRACK SCENES W DEJR DONALD TRUMP_TN01_E01052_S002
000077  ERN_F1401_NSCR_2001-02-18_RACE_B-ROLL_DAYTONA_500_TRACK_SCENES_W_DEJR_DONALD_TRUMP_TN01_E01052_S002                               A20   C        23:19:58:26 23:19:59:23 00:58:38:05 00:58:39:02 
M2      ERN_F1401_NSCR_2001-02-18_RACE_B-ROLL_DAYTONA_500_TRACK_SCENES_W_DEJR_DONALD_TRUMP_TN01_E01052_S002                                        030.0 23:19:58:26 
*FROM CLIP NAME:  ERN_F1401_NSCR_2001-02-18_RACE B-ROLL DAYTONA 500 TRACK SCENES W DEJR DONALD TRUMP_TN01_E01052_S002.NEW.01 
*SOURCE FILE: ERN_F1401_NSCR_2001-02-18_RACE B-ROLL DAYTONA 500 TRACK SCENES W DEJR DONALD TRUMP_TN01_E01052_S002
000078  ERN_F0429_NSCR_1998-02-15_RACE_PART_3_DALE_EARNHARDT_WINS_DAYTONA_500_98-EV-0099                                                  V     C        02:59:27:17 02:59:29:15 00:58:39:06 00:58:41:04 
M2      ERN_F0429_NSCR_1998-02-15_RACE_PART_3_DALE_EARNHARDT_WINS_DAYTONA_500_98-EV-0099                                                           030.0 02:59:27:17 
*FROM CLIP NAME:  ERN_F0429_NSCR_1998-02-15_RACE PART 3 DALE EARNHARDT WINS DAYTONA 500_98-EV-0099.NEW.02 
*SOURCE FILE: ERN_F0429_NSCR_1998-02-15_RACE PART 3 DALE EARNHARDT WINS DAYTONA 500_98-EV-0099
000079  ERN_F0310_NSCR_2000-08-24_2_OF_6_CAM_A_BTS_COMMERCIAL_INTV_DALE_EARNHARDT_TOPICS_-_INTIMIDATOR_NAME_&_BEING_REMEMBERED_&_BLOOPERS A18   C        18:01:09:12 18:01:11:09 00:58:39:08 00:58:41:05 
M2      ERN_F0310_NSCR_2000-08-24_2_OF_6_CAM_A_BTS_COMMERCIAL_INTV_DALE_EARNHARDT_TOPICS_-_INTIMIDATOR_NAME_&_BEING_REMEMBERED_&_BLOOPERS          030.0 18:01:09:12 
*FROM CLIP NAME:  ERN_F0310_NSCR_2000-08-24_2 OF 6 CAM A BTS COMMERCIAL INTV DALE EARNHARDT TOPICS - INTIMIDATOR NAME & BEING REMEMBERED & BLOOPERS_SE006223_S002.NEW.01 
*SOURCE FILE: ERN_F0310_NSCR_2000-08-24_2 OF 6 CAM A BTS COMMERCIAL INTV DALE EARNHARDT TOPICS - INTIMIDATOR NAME & BEING REMEMBERED & BLOOPERS_SE006223_S002
000080  ERN_F0235_NSCR_1990_10_OF_17_B-ROLL_FANS_WEARING_DALE_EARNHARDT_MERCH_AND_RACE_CROWD_SE005535_S010                                A20   C        00:17:46:21 00:17:47:29 00:58:41:01 00:58:42:07 
M2      ERN_F0235_NSCR_1990_10_OF_17_B-ROLL_FANS_WEARING_DALE_EARNHARDT_MERCH_AND_RACE_CROWD_SE005535_S010                                         030.0 00:17:46:21 
*FROM CLIP NAME:  ERN_F0235_NSCR_1990_10 OF 17 B-ROLL FANS WEARING DALE EARNHARDT MERCH AND RACE CROWD_SE005535_S010.NEW.01 
*SOURCE FILE: ERN_F0235_NSCR_1990_10 OF 17 B-ROLL FANS WEARING DALE EARNHARDT MERCH AND RACE CROWD_SE005535_S010
000081  ERN_F3513_NSCR_1995-10-08_RACE_B-ROLL_CHARLOTTE_QUALITY_500_FLY-BYS_95-EV-0573_001                                                A24   C        00:19:27:25 00:19:28:21 00:58:41:03 00:58:41:23 
M2      ERN_F3513_NSCR_1995-10-08_RACE_B-ROLL_CHARLOTTE_QUALITY_500_FLY-BYS_95-EV-0573_001                                                         030.0 00:19:27:25 
*FROM CLIP NAME:  ERN_F3513_NSCR_1995-10-08_RACE B-ROLL CHARLOTTE QUALITY 500 FLY-BYS_95-EV-0573_001.NEW.01 
*SOURCE FILE: ERN_F3513_NSCR_1995-10-08_RACE B-ROLL CHARLOTTE QUALITY 500 FLY-BYS_95-EV-0573_001
000082  ERN_F1673_NSCR_1995-08-05_INDIANAPOLIS_-_BRICKYARD_400_INDIANAPOLIS_-_BRICKYARD_400_POLE__RACE_B-ROLL_JEFF_GORDON_WINNER__DALE_EA V     C        19:04:01:02 19:04:03:14 00:58:41:04 00:58:43:13 
M2      ERN_F1673_NSCR_1995-08-05_INDIANAPOLIS_-_BRICKYARD_400_INDIANAPOLIS_-_BRICKYARD_400_POLE__RACE_B-ROLL_JEFF_GORDON_WINNER__DALE_EA          030.0 19:04:01:02 
*FROM CLIP NAME:  ERN_F1673_NSCR_1995-08-05_INDIANAPOLIS - BRICKYARD 400 INDIANAPOLIS - BRICKYARD 400 POLE_ RACE B-ROLL JEFF GORDON WINNER_ DALE EARNHARDT_95-EV-0743.NEW.01 
*SOURCE FILE: ERN_F1673_NSCR_1995-08-05_INDIANAPOLIS - BRICKYARD 400 INDIANAPOLIS - BRICKYARD 400 POLE_ RACE B-ROLL JEFF GORDON WINNER_ DALE EARNHARDT_95-EV-0743
000083  ERN_F0310_NSCR_2000-08-24_2_OF_6_CAM_A_BTS_COMMERCIAL_INTV_DALE_EARNHARDT_TOPICS_-_INTIMIDATOR_NAME_&_BEING_REMEMBERED_&_BLOOPERS A18   C        18:01:11:14 18:01:12:11 00:58:41:05 00:58:42:02 
M2      ERN_F0310_NSCR_2000-08-24_2_OF_6_CAM_A_BTS_COMMERCIAL_INTV_DALE_EARNHARDT_TOPICS_-_INTIMIDATOR_NAME_&_BEING_REMEMBERED_&_BLOOPERS          030.0 18:01:11:14 
*FROM CLIP NAME:  ERN_F0310_NSCR_2000-08-24_2 OF 6 CAM A BTS COMMERCIAL INTV DALE EARNHARDT TOPICS - INTIMIDATOR NAME & BEING REMEMBERED & BLOOPERS_SE006223_S002.NEW.01 
*SOURCE FILE: ERN_F0310_NSCR_2000-08-24_2 OF 6 CAM A BTS COMMERCIAL INTV DALE EARNHARDT TOPICS - INTIMIDATOR NAME & BEING REMEMBERED & BLOOPERS_SE006223_S002
000084  ERN_F1673_NSCR_1995-08-05_INDIANAPOLIS_-_BRICKYARD_400_INDIANAPOLIS_-_BRICKYARD_400_POLE__RACE_B-ROLL_JEFF_GORDON_WINNER__DALE_EA A26   C        19:04:00:25 19:04:01:04 00:58:41:17 00:58:42:00 
M2      ERN_F1673_NSCR_1995-08-05_INDIANAPOLIS_-_BRICKYARD_400_INDIANAPOLIS_-_BRICKYARD_400_POLE__RACE_B-ROLL_JEFF_GORDON_WINNER__DALE_EA          030.0 19:04:00:25 
*FROM CLIP NAME:  ERN_F1673_NSCR_1995-08-05_INDIANAPOLIS - BRICKYARD 400 INDIANAPOLIS - BRICKYARD 400 POLE_ RACE B-ROLL JEFF GORDON WINNER_ DALE EARNHARDT_95-EV-0743.NEW.01 
*SOURCE FILE: ERN_F1673_NSCR_1995-08-05_INDIANAPOLIS - BRICKYARD 400 INDIANAPOLIS - BRICKYARD 400 POLE_ RACE B-ROLL JEFF GORDON WINNER_ DALE EARNHARDT_95-EV-0743
000085  ERN_F3513_NSCR_1995-10-08_RACE_B-ROLL_CHARLOTTE_QUALITY_500_FLY-BYS_95-EV-0573_001                                                A24   C        00:19:28:20 00:19:30:07 00:58:41:23 00:58:43:12 
M2      ERN_F3513_NSCR_1995-10-08_RACE_B-ROLL_CHARLOTTE_QUALITY_500_FLY-BYS_95-EV-0573_001                                                         030.0 00:19:28:20 
*FROM CLIP NAME:  ERN_F3513_NSCR_1995-10-08_RACE B-ROLL CHARLOTTE QUALITY 500 FLY-BYS_95-EV-0573_001.NEW.01 
*SOURCE FILE: ERN_F3513_NSCR_1995-10-08_RACE B-ROLL CHARLOTTE QUALITY 500 FLY-BYS_95-EV-0573_001
000086  ERN_F1673_NSCR_1995-08-05_INDIANAPOLIS_-_BRICKYARD_400_INDIANAPOLIS_-_BRICKYARD_400_POLE__RACE_B-ROLL_JEFF_GORDON_WINNER__DALE_EA A26   C        19:04:01:04 19:04:03:07 00:58:42:00 00:58:44:02 
M2      ERN_F1673_NSCR_1995-08-05_INDIANAPOLIS_-_BRICKYARD_400_INDIANAPOLIS_-_BRICKYARD_400_POLE__RACE_B-ROLL_JEFF_GORDON_WINNER__DALE_EA          030.0 19:04:01:04 
*FROM CLIP NAME:  ERN_F1673_NSCR_1995-08-05_INDIANAPOLIS - BRICKYARD 400 INDIANAPOLIS - BRICKYARD 400 POLE_ RACE B-ROLL JEFF GORDON WINNER_ DALE EARNHARDT_95-EV-0743.NEW.01 
*SOURCE FILE: ERN_F1673_NSCR_1995-08-05_INDIANAPOLIS - BRICKYARD 400 INDIANAPOLIS - BRICKYARD 400 POLE_ RACE B-ROLL JEFF GORDON WINNER_ DALE EARNHARDT_95-EV-0743
000087  ERN_F1673_NSCR_1995-08-05_INDIANAPOLIS_-_BRICKYARD_400_INDIANAPOLIS_-_BRICKYARD_400_POLE__RACE_B-ROLL_JEFF_GORDON_WINNER__DALE_EA A18   C        19:03:56:03 19:03:56:11 00:58:42:02 00:58:42:08 
M2      ERN_F1673_NSCR_1995-08-05_INDIANAPOLIS_-_BRICKYARD_400_INDIANAPOLIS_-_BRICKYARD_400_POLE__RACE_B-ROLL_JEFF_GORDON_WINNER__DALE_EA          030.0 19:03:56:03 
*FROM CLIP NAME:  ERN_F1673_NSCR_1995-08-05_INDIANAPOLIS - BRICKYARD 400 INDIANAPOLIS - BRICKYARD 400 POLE_ RACE B-ROLL JEFF GORDON WINNER_ DALE EARNHARDT_95-EV-0743.NEW.01 
*TO CLIP NAME:  ERN_F0310_NSCR_2000-08-24_2 OF 6 CAM A BTS COMMERCIAL INTV DALE EARNHARDT TOPICS - INTIMIDATOR NAME & BEING REMEMBERED & BLOOPERS_SE006223_S002.NEW.01 
*SOURCE FILE: ERN_F1673_NSCR_1995-08-05_INDIANAPOLIS - BRICKYARD 400 INDIANAPOLIS - BRICKYARD 400 POLE_ RACE B-ROLL JEFF GORDON WINNER_ DALE EARNHARDT_95-EV-0743
000088  ERN_F0235_NSCR_1990_10_OF_17_B-ROLL_FANS_WEARING_DALE_EARNHARDT_MERCH_AND_RACE_CROWD_SE005535_S010                                A20   C        00:17:47:28 00:17:50:06 00:58:42:07 00:58:44:13 
M2      ERN_F0235_NSCR_1990_10_OF_17_B-ROLL_FANS_WEARING_DALE_EARNHARDT_MERCH_AND_RACE_CROWD_SE005535_S010                                         030.0 00:17:47:28 
*FROM CLIP NAME:  ERN_F0235_NSCR_1990_10 OF 17 B-ROLL FANS WEARING DALE EARNHARDT MERCH AND RACE CROWD_SE005535_S010.NEW.01 
*SOURCE FILE: ERN_F0235_NSCR_1990_10 OF 17 B-ROLL FANS WEARING DALE EARNHARDT MERCH AND RACE CROWD_SE005535_S010
000089  ERN_F1673_NSCR_1995-08-05_INDIANAPOLIS_-_BRICKYARD_400_INDIANAPOLIS_-_BRICKYARD_400_POLE__RACE_B-ROLL_JEFF_GORDON_WINNER__DALE_EA A18   C        19:03:56:10 19:03:58:10 00:58:42:08 00:58:44:07 
M2      ERN_F1673_NSCR_1995-08-05_INDIANAPOLIS_-_BRICKYARD_400_INDIANAPOLIS_-_BRICKYARD_400_POLE__RACE_B-ROLL_JEFF_GORDON_WINNER__DALE_EA          030.0 19:03:56:10 
*FROM CLIP NAME:  ERN_F1673_NSCR_1995-08-05_INDIANAPOLIS - BRICKYARD 400 INDIANAPOLIS - BRICKYARD 400 POLE_ RACE B-ROLL JEFF GORDON WINNER_ DALE EARNHARDT_95-EV-0743.NEW.01 
*SOURCE FILE: ERN_F1673_NSCR_1995-08-05_INDIANAPOLIS - BRICKYARD 400 INDIANAPOLIS - BRICKYARD 400 POLE_ RACE B-ROLL JEFF GORDON WINNER_ DALE EARNHARDT_95-EV-0743
000090  ERN_F0721_NSCR_2000-10-15_RACE_DESR_LATE_FINISH_WIN_NASCAR_CUP_SERIES__-_TALLADEGA_2000-NAS-00004_S001                            V     C        16:26:22:08 16:26:23:07 00:58:43:13 00:58:44:13 
M2      ERN_F0721_NSCR_2000-10-15_RACE_DESR_LATE_FINISH_WIN_NASCAR_CUP_SERIES__-_TALLADEGA_2000-NAS-00004_S001                                     030.0 16:26:22:08 
*FROM CLIP NAME:  ERN_F0721_NSCR_2000-10-15_RACE DESR LATE FINISH WIN NASCAR CUP SERIES  - TALLADEGA_2000-NAS-00004_S001.NEW.01 
*SOURCE FILE: ERN_F0721_NSCR_2000-10-15_RACE DESR LATE FINISH WIN NASCAR CUP SERIES  - TALLADEGA_2000-NAS-00004_S001
000091  ERN_F0212_NSCR_1990-06-23_CAR_POV_DALE_EARNHARDT_MILLER_400_SE000386                                                              A22   C        00:12:47:16 00:12:47:25 00:58:44:01 00:58:44:08 
M2      ERN_F0212_NSCR_1990-06-23_CAR_POV_DALE_EARNHARDT_MILLER_400_SE000386                                                                       030.0 00:12:47:16 
*FROM CLIP NAME:  ERN_F0212_NSCR_1990-06-23_CAR POV DALE EARNHARDT MILLER 400_SE000386.NEW.01 
*SOURCE FILE: ERN_F0212_NSCR_1990-06-23_CAR POV DALE EARNHARDT MILLER 400_SE000386
000092  ERN_F0212_NSCR_1990-06-23_CAR_POV_DALE_EARNHARDT_MILLER_400_SE000386                                                              A22   C        00:12:47:25 00:12:51:27 00:58:44:08 00:58:48:09 
M2      ERN_F0212_NSCR_1990-06-23_CAR_POV_DALE_EARNHARDT_MILLER_400_SE000386                                                                       030.0 00:12:47:25 
*FROM CLIP NAME:  ERN_F0212_NSCR_1990-06-23_CAR POV DALE EARNHARDT MILLER 400_SE000386.NEW.01 
*SOURCE FILE: ERN_F0212_NSCR_1990-06-23_CAR POV DALE EARNHARDT MILLER 400_SE000386
000093  ERN_F0111_XXXX_1980_DALE_EARNHARDT_INTERVIEW_WITH_KEN_SQUIER_YOUTUBE                                                              A18   C        00:01:38:25 00:01:39:03 00:58:44:13 00:58:44:19 
M2      ERN_F0111_XXXX_1980_DALE_EARNHARDT_INTERVIEW_WITH_KEN_SQUIER_YOUTUBE                                                                       030.0 00:01:38:25 
*FROM CLIP NAME:  ERN_F0111_XXXX_1980_DALE EARNHARDT INTERVIEW WITH KEN SQUIER_YOUTUBE.NEW.01 
*SOURCE FILE: ERN_F0111_XXXX_1980_DALE EARNHARDT INTERVIEW WITH KEN SQUIER_YOUTUBE
000094  ERN_F0212_NSCR_1990-06-23_CAR_POV_DALE_EARNHARDT_MILLER_400_SE000386                                                              V     C        00:13:11:14 00:13:15:01 00:58:44:13 00:58:48:02 
M2      ERN_F0212_NSCR_1990-06-23_CAR_POV_DALE_EARNHARDT_MILLER_400_SE000386                                                                       030.0 00:13:11:14 
*FROM CLIP NAME:  ERN_F0212_NSCR_1990-06-23_CAR POV DALE EARNHARDT MILLER 400_SE000386.NEW.01 
*SOURCE FILE: ERN_F0212_NSCR_1990-06-23_CAR POV DALE EARNHARDT MILLER 400_SE000386
000095  ERN_F0111_XXXX_1980_DALE_EARNHARDT_INTERVIEW_WITH_KEN_SQUIER_YOUTUBE                                                              A18   C        00:01:39:02 00:01:40:13 00:58:44:19 00:58:46:03 
M2      ERN_F0111_XXXX_1980_DALE_EARNHARDT_INTERVIEW_WITH_KEN_SQUIER_YOUTUBE                                                                       030.0 00:01:39:02 
*FROM CLIP NAME:  ERN_F0111_XXXX_1980_DALE EARNHARDT INTERVIEW WITH KEN SQUIER_YOUTUBE.NEW.01 
*SOURCE FILE: ERN_F0111_XXXX_1980_DALE EARNHARDT INTERVIEW WITH KEN SQUIER_YOUTUBE
000096  ERN_F0111_XXXX_1980_DALE_EARNHARDT_INTERVIEW_WITH_KEN_SQUIER_YOUTUBE                                                              A20   C        00:01:41:02 00:01:41:05 00:58:46:01 00:58:46:03 
M2      ERN_F0111_XXXX_1980_DALE_EARNHARDT_INTERVIEW_WITH_KEN_SQUIER_YOUTUBE                                                                       030.0 00:01:41:02 
*FROM CLIP NAME:  ERN_F0111_XXXX_1980_DALE EARNHARDT INTERVIEW WITH KEN SQUIER_YOUTUBE.NEW.01 
*SOURCE FILE: ERN_F0111_XXXX_1980_DALE EARNHARDT INTERVIEW WITH KEN SQUIER_YOUTUBE
000097  ERN_F0111_XXXX_1980_DALE_EARNHARDT_INTERVIEW_WITH_KEN_SQUIER_YOUTUBE                                                              A20   C        00:01:41:05 00:01:42:05 00:58:46:03 00:58:47:03 
M2      ERN_F0111_XXXX_1980_DALE_EARNHARDT_INTERVIEW_WITH_KEN_SQUIER_YOUTUBE                                                                       030.0 00:01:41:05 
*FROM CLIP NAME:  ERN_F0111_XXXX_1980_DALE EARNHARDT INTERVIEW WITH KEN SQUIER_YOUTUBE.NEW.01 
*SOURCE FILE: ERN_F0111_XXXX_1980_DALE EARNHARDT INTERVIEW WITH KEN SQUIER_YOUTUBE
000098  ERN_F0111_XXXX_1980_DALE_EARNHARDT_INTERVIEW_WITH_KEN_SQUIER_YOUTUBE                                                              A18   C        00:01:43:20 00:01:43:23 00:58:47:02 00:58:47:04 
M2      ERN_F0111_XXXX_1980_DALE_EARNHARDT_INTERVIEW_WITH_KEN_SQUIER_YOUTUBE                                                                       030.0 00:01:43:20 
*FROM CLIP NAME:  ERN_F0111_XXXX_1980_DALE EARNHARDT INTERVIEW WITH KEN SQUIER_YOUTUBE.NEW.01 
*SOURCE FILE: ERN_F0111_XXXX_1980_DALE EARNHARDT INTERVIEW WITH KEN SQUIER_YOUTUBE
000099  ERN_F0111_XXXX_1980_DALE_EARNHARDT_INTERVIEW_WITH_KEN_SQUIER_YOUTUBE                                                              A18   C        00:01:43:22 00:01:44:05 00:58:47:04 00:58:47:14 
M2      ERN_F0111_XXXX_1980_DALE_EARNHARDT_INTERVIEW_WITH_KEN_SQUIER_YOUTUBE                                                                       030.0 00:01:43:22 
*FROM CLIP NAME:  ERN_F0111_XXXX_1980_DALE EARNHARDT INTERVIEW WITH KEN SQUIER_YOUTUBE.NEW.01 
*SOURCE FILE: ERN_F0111_XXXX_1980_DALE EARNHARDT INTERVIEW WITH KEN SQUIER_YOUTUBE
000100  ERN_F0111_XXXX_1980_DALE_EARNHARDT_INTERVIEW_WITH_KEN_SQUIER_YOUTUBE                                                              A18   C        00:01:45:22 00:01:45:25 00:58:47:14 00:58:47:16 
M2      ERN_F0111_XXXX_1980_DALE_EARNHARDT_INTERVIEW_WITH_KEN_SQUIER_YOUTUBE                                                                       030.0 00:01:45:22 
*FROM CLIP NAME:  ERN_F0111_XXXX_1980_DALE EARNHARDT INTERVIEW WITH KEN SQUIER_YOUTUBE.NEW.01 
*TO CLIP NAME:  ERN_F0111_XXXX_1980_DALE EARNHARDT INTERVIEW WITH KEN SQUIER_YOUTUBE.NEW.01 
*SOURCE FILE: ERN_F0111_XXXX_1980_DALE EARNHARDT INTERVIEW WITH KEN SQUIER_YOUTUBE
000101  ERN_F0111_XXXX_1980_DALE_EARNHARDT_INTERVIEW_WITH_KEN_SQUIER_YOUTUBE                                                              A18   C        00:01:45:25 00:01:47:07 00:58:47:16 00:58:49:01 
M2      ERN_F0111_XXXX_1980_DALE_EARNHARDT_INTERVIEW_WITH_KEN_SQUIER_YOUTUBE                                                                       030.0 00:01:45:25 
*FROM CLIP NAME:  ERN_F0111_XXXX_1980_DALE EARNHARDT INTERVIEW WITH KEN SQUIER_YOUTUBE.NEW.01 
*SOURCE FILE: ERN_F0111_XXXX_1980_DALE EARNHARDT INTERVIEW WITH KEN SQUIER_YOUTUBE
000102  ERN_F5264_NSCR_1997-02-16_DAYTONA_500-RACE_BROADCAST_DESR_NO3_GOODWRENCH_97-EV-0087                                               V     C        03:38:58:27 03:39:01:07 00:58:48:02 00:58:49:06 
M2      ERN_F5264_NSCR_1997-02-16_DAYTONA_500-RACE_BROADCAST_DESR_NO3_GOODWRENCH_97-EV-0087                                                        060.0 03:38:58:27 
*FROM CLIP NAME:  ERN_F5264_NSCR_1997-02-16_DAYTONA 500-RACE BROADCAST DESR NO3 GOODWRENCH_97-EV-0087.NEW.01 
*SOURCE FILE: ERN_F5264_NSCR_1997-02-16_DAYTONA 500-RACE BROADCAST DESR NO3 GOODWRENCH_97-EV-0087
000103  ERN_F2211_NSCR_1996-07-28_TALLADEGA-DIEHARD_501_RACE_B-ROLL_RICHARD_CHILDRESS_INTV_DESR_CRASH_NO3_JEFF_GORDON_WINNER_DESR_INTV_IS A22   C        03:24:07:17 03:24:08:03 00:58:49:01 00:58:49:13 
M2      ERN_F2211_NSCR_1996-07-28_TALLADEGA-DIEHARD_501_RACE_B-ROLL_RICHARD_CHILDRESS_INTV_DESR_CRASH_NO3_JEFF_GORDON_WINNER_DESR_INTV_IS          030.0 03:24:07:17 
*FROM CLIP NAME:  ERN_F2211_NSCR_1996-07-28_TALLADEGA-DIEHARD 501 RACE B-ROLL RICHARD CHILDRESS INTV DESR CRASH NO3 JEFF GORDON WINNER DESR INTV_ISC-00961.NEW.01 
*SOURCE FILE: ERN_F2211_NSCR_1996-07-28_TALLADEGA-DIEHARD 501 RACE B-ROLL RICHARD CHILDRESS INTV DESR CRASH NO3 JEFF GORDON WINNER DESR INTV_ISC-00961
000104  ERN_F1085_NSCR_2001-02-18_3_OF_3_RACE_DAYTONA_500_BROADCAST_DESR_DEADLY_CRASH_01-EV-0113_TAPE_3                                   A20   C        10:17:03:09 10:17:03:17 00:58:49:02 00:58:49:08 
M2      ERN_F1085_NSCR_2001-02-18_3_OF_3_RACE_DAYTONA_500_BROADCAST_DESR_DEADLY_CRASH_01-EV-0113_TAPE_3                                            030.0 10:17:03:09 
*FROM CLIP NAME:  ERN_F1085_NSCR_2001-02-18_3 OF 3 RACE DAYTONA 500 BROADCAST DESR DEADLY CRASH_01-EV-0113_TAPE_3.NEW.01 
*SOURCE FILE: ERN_F1085_NSCR_2001-02-18_3 OF 3 RACE DAYTONA 500 BROADCAST DESR DEADLY CRASH_01-EV-0113_TAPE_3
000105  ERN_F5264_NSCR_1997-02-16_DAYTONA_500-RACE_BROADCAST_DESR_NO3_GOODWRENCH_97-EV-0087                                               V     C        03:39:18:11 03:39:19:09 00:58:49:06 00:58:50:04 
M2      ERN_F5264_NSCR_1997-02-16_DAYTONA_500-RACE_BROADCAST_DESR_NO3_GOODWRENCH_97-EV-0087                                                        030.0 03:39:18:11 
*FROM CLIP NAME:  ERN_F5264_NSCR_1997-02-16_DAYTONA 500-RACE BROADCAST DESR NO3 GOODWRENCH_97-EV-0087.NEW.01 
*SOURCE FILE: ERN_F5264_NSCR_1997-02-16_DAYTONA 500-RACE BROADCAST DESR NO3 GOODWRENCH_97-EV-0087
000106  ERN_F1085_NSCR_2001-02-18_3_OF_3_RACE_DAYTONA_500_BROADCAST_DESR_DEADLY_CRASH_01-EV-0113_TAPE_3                                   A20   C        10:17:03:16 10:17:04:05 00:58:49:08 00:58:49:22 
M2      ERN_F1085_NSCR_2001-02-18_3_OF_3_RACE_DAYTONA_500_BROADCAST_DESR_DEADLY_CRASH_01-EV-0113_TAPE_3                                            030.0 10:17:03:16 
*FROM CLIP NAME:  ERN_F1085_NSCR_2001-02-18_3 OF 3 RACE DAYTONA 500 BROADCAST DESR DEADLY CRASH_01-EV-0113_TAPE_3.NEW.01 
*SOURCE FILE: ERN_F1085_NSCR_2001-02-18_3 OF 3 RACE DAYTONA 500 BROADCAST DESR DEADLY CRASH_01-EV-0113_TAPE_3
000107  ERN_F2211_NSCR_1996-07-28_TALLADEGA-DIEHARD_501_RACE_B-ROLL_RICHARD_CHILDRESS_INTV_DESR_CRASH_NO3_JEFF_GORDON_WINNER_DESR_INTV_IS A22   C        03:24:08:02 03:24:08:14 00:58:49:13 00:58:49:22 
M2      ERN_F2211_NSCR_1996-07-28_TALLADEGA-DIEHARD_501_RACE_B-ROLL_RICHARD_CHILDRESS_INTV_DESR_CRASH_NO3_JEFF_GORDON_WINNER_DESR_INTV_IS          030.0 03:24:08:02 
*FROM CLIP NAME:  ERN_F2211_NSCR_1996-07-28_TALLADEGA-DIEHARD 501 RACE B-ROLL RICHARD CHILDRESS INTV DESR CRASH NO3 JEFF GORDON WINNER DESR INTV_ISC-00961.NEW.01 
*SOURCE FILE: ERN_F2211_NSCR_1996-07-28_TALLADEGA-DIEHARD 501 RACE B-ROLL RICHARD CHILDRESS INTV DESR CRASH NO3 JEFF GORDON WINNER DESR INTV_ISC-00961
000108  ERN_F2211_NSCR_1996-07-28_TALLADEGA-DIEHARD_501_RACE_B-ROLL_RICHARD_CHILDRESS_INTV_DESR_CRASH_NO3_JEFF_GORDON_WINNER_DESR_INTV_IS A22   C        03:24:07:10 03:24:07:26 00:58:49:22 00:58:50:10 
M2      ERN_F2211_NSCR_1996-07-28_TALLADEGA-DIEHARD_501_RACE_B-ROLL_RICHARD_CHILDRESS_INTV_DESR_CRASH_NO3_JEFF_GORDON_WINNER_DESR_INTV_IS          030.0 03:24:07:10 
*FROM CLIP NAME:  ERN_F2211_NSCR_1996-07-28_TALLADEGA-DIEHARD 501 RACE B-ROLL RICHARD CHILDRESS INTV DESR CRASH NO3 JEFF GORDON WINNER DESR INTV_ISC-00961.NEW.01 
*TO CLIP NAME:  ERN_F2211_NSCR_1996-07-28_TALLADEGA-DIEHARD 501 RACE B-ROLL RICHARD CHILDRESS INTV DESR CRASH NO3 JEFF GORDON WINNER DESR INTV_ISC-00961.NEW.01 
*SOURCE FILE: ERN_F2211_NSCR_1996-07-28_TALLADEGA-DIEHARD 501 RACE B-ROLL RICHARD CHILDRESS INTV DESR CRASH NO3 JEFF GORDON WINNER DESR INTV_ISC-00961
000109  ERN_F1085_NSCR_2001-02-18_3_OF_3_RACE_DAYTONA_500_BROADCAST_DESR_DEADLY_CRASH_01-EV-0113_TAPE_3                                   A18   C        10:17:06:26 10:17:06:28 00:58:50:04 00:58:50:05 
M2      ERN_F1085_NSCR_2001-02-18_3_OF_3_RACE_DAYTONA_500_BROADCAST_DESR_DEADLY_CRASH_01-EV-0113_TAPE_3                                            030.0 10:17:06:26 
*FROM CLIP NAME:  ERN_F1085_NSCR_2001-02-18_3 OF 3 RACE DAYTONA 500 BROADCAST DESR DEADLY CRASH_01-EV-0113_TAPE_3.NEW.01 
*SOURCE FILE: ERN_F1085_NSCR_2001-02-18_3 OF 3 RACE DAYTONA 500 BROADCAST DESR DEADLY CRASH_01-EV-0113_TAPE_3
000110  ERN_F5264_NSCR_1997-02-16_DAYTONA_500-RACE_BROADCAST_DESR_NO3_GOODWRENCH_97-EV-0087                                               V     C        03:38:27:23 03:38:29:15 00:58:50:04 00:58:51:01 
M2      ERN_F5264_NSCR_1997-02-16_DAYTONA_500-RACE_BROADCAST_DESR_NO3_GOODWRENCH_97-EV-0087                                                        060.0 03:38:27:23 
*FROM CLIP NAME:  ERN_F5264_NSCR_1997-02-16_DAYTONA 500-RACE BROADCAST DESR NO3 GOODWRENCH_97-EV-0087.NEW.01 
*SOURCE FILE: ERN_F5264_NSCR_1997-02-16_DAYTONA 500-RACE BROADCAST DESR NO3 GOODWRENCH_97-EV-0087
000111  ERN_F1085_NSCR_2001-02-18_3_OF_3_RACE_DAYTONA_500_BROADCAST_DESR_DEADLY_CRASH_01-EV-0113_TAPE_3                                   A18   C        10:17:06:28 10:17:07:05 00:58:50:05 00:58:50:10 
M2      ERN_F1085_NSCR_2001-02-18_3_OF_3_RACE_DAYTONA_500_BROADCAST_DESR_DEADLY_CRASH_01-EV-0113_TAPE_3                                            030.0 10:17:06:28 
*FROM CLIP NAME:  ERN_F1085_NSCR_2001-02-18_3 OF 3 RACE DAYTONA 500 BROADCAST DESR DEADLY CRASH_01-EV-0113_TAPE_3.NEW.01 
*SOURCE FILE: ERN_F1085_NSCR_2001-02-18_3 OF 3 RACE DAYTONA 500 BROADCAST DESR DEADLY CRASH_01-EV-0113_TAPE_3
000112  ERN_F1085_NSCR_2001-02-18_3_OF_3_RACE_DAYTONA_500_BROADCAST_DESR_DEADLY_CRASH_01-EV-0113_TAPE_3                                   A18   C        10:17:02:24 10:17:02:26 00:58:50:10 00:58:50:11 
M2      ERN_F1085_NSCR_2001-02-18_3_OF_3_RACE_DAYTONA_500_BROADCAST_DESR_DEADLY_CRASH_01-EV-0113_TAPE_3                                            030.0 10:17:02:24 
*FROM CLIP NAME:  ERN_F1085_NSCR_2001-02-18_3 OF 3 RACE DAYTONA 500 BROADCAST DESR DEADLY CRASH_01-EV-0113_TAPE_3.NEW.01 
*TO CLIP NAME:  ERN_F1085_NSCR_2001-02-18_3 OF 3 RACE DAYTONA 500 BROADCAST DESR DEADLY CRASH_01-EV-0113_TAPE_3.NEW.01 
*SOURCE FILE: ERN_F1085_NSCR_2001-02-18_3 OF 3 RACE DAYTONA 500 BROADCAST DESR DEADLY CRASH_01-EV-0113_TAPE_3
000113  ERN_F2211_NSCR_1996-07-28_TALLADEGA-DIEHARD_501_RACE_B-ROLL_RICHARD_CHILDRESS_INTV_DESR_CRASH_NO3_JEFF_GORDON_WINNER_DESR_INTV_IS A22   C        03:24:07:25 03:24:08:29 00:58:50:10 00:58:51:13 
M2      ERN_F2211_NSCR_1996-07-28_TALLADEGA-DIEHARD_501_RACE_B-ROLL_RICHARD_CHILDRESS_INTV_DESR_CRASH_NO3_JEFF_GORDON_WINNER_DESR_INTV_IS          030.0 03:24:07:25 
*FROM CLIP NAME:  ERN_F2211_NSCR_1996-07-28_TALLADEGA-DIEHARD 501 RACE B-ROLL RICHARD CHILDRESS INTV DESR CRASH NO3 JEFF GORDON WINNER DESR INTV_ISC-00961.NEW.01 
*SOURCE FILE: ERN_F2211_NSCR_1996-07-28_TALLADEGA-DIEHARD 501 RACE B-ROLL RICHARD CHILDRESS INTV DESR CRASH NO3 JEFF GORDON WINNER DESR INTV_ISC-00961
000114  ERN_F1085_NSCR_2001-02-18_3_OF_3_RACE_DAYTONA_500_BROADCAST_DESR_DEADLY_CRASH_01-EV-0113_TAPE_3                                   A18   C        10:17:02:25 10:17:03:15 00:58:50:11 00:58:51:02 
M2      ERN_F1085_NSCR_2001-02-18_3_OF_3_RACE_DAYTONA_500_BROADCAST_DESR_DEADLY_CRASH_01-EV-0113_TAPE_3                                            030.0 10:17:02:25 
*FROM CLIP NAME:  ERN_F1085_NSCR_2001-02-18_3 OF 3 RACE DAYTONA 500 BROADCAST DESR DEADLY CRASH_01-EV-0113_TAPE_3.NEW.01 
*SOURCE FILE: ERN_F1085_NSCR_2001-02-18_3 OF 3 RACE DAYTONA 500 BROADCAST DESR DEADLY CRASH_01-EV-0113_TAPE_3
000115  ERN_F2211_NSCR_1996-07-28_TALLADEGA-DIEHARD_501_RACE_B-ROLL_RICHARD_CHILDRESS_INTV_DESR_CRASH_NO3_JEFF_GORDON_WINNER_DESR_INTV_IS V     C        03:24:08:27 03:24:09:19 00:58:51:01 00:58:51:18 
M2      ERN_F2211_NSCR_1996-07-28_TALLADEGA-DIEHARD_501_RACE_B-ROLL_RICHARD_CHILDRESS_INTV_DESR_CRASH_NO3_JEFF_GORDON_WINNER_DESR_INTV_IS          030.0 03:24:08:27 
*FROM CLIP NAME:  ERN_F2211_NSCR_1996-07-28_TALLADEGA-DIEHARD 501 RACE B-ROLL RICHARD CHILDRESS INTV DESR CRASH NO3 JEFF GORDON WINNER DESR INTV_ISC-00961.NEW.01 
*SOURCE FILE: ERN_F2211_NSCR_1996-07-28_TALLADEGA-DIEHARD 501 RACE B-ROLL RICHARD CHILDRESS INTV DESR CRASH NO3 JEFF GORDON WINNER DESR INTV_ISC-00961
000116  ERN_F2211_NSCR_1996-07-28_TALLADEGA-DIEHARD_501_RACE_B-ROLL_RICHARD_CHILDRESS_INTV_DESR_CRASH_NO3_JEFF_GORDON_WINNER_DESR_INTV_IS A22   C        03:24:10:12 03:24:10:21 00:58:51:13 00:58:51:19 
M2      ERN_F2211_NSCR_1996-07-28_TALLADEGA-DIEHARD_501_RACE_B-ROLL_RICHARD_CHILDRESS_INTV_DESR_CRASH_NO3_JEFF_GORDON_WINNER_DESR_INTV_IS          030.0 03:24:10:12 
*FROM CLIP NAME:  ERN_F2211_NSCR_1996-07-28_TALLADEGA-DIEHARD 501 RACE B-ROLL RICHARD CHILDRESS INTV DESR CRASH NO3 JEFF GORDON WINNER DESR INTV_ISC-00961.NEW.01 
*TO CLIP NAME:  ERN_F2211_NSCR_1996-07-28_TALLADEGA-DIEHARD 501 RACE B-ROLL RICHARD CHILDRESS INTV DESR CRASH NO3 JEFF GORDON WINNER DESR INTV_ISC-00961.NEW.01 
*SOURCE FILE: ERN_F2211_NSCR_1996-07-28_TALLADEGA-DIEHARD 501 RACE B-ROLL RICHARD CHILDRESS INTV DESR CRASH NO3 JEFF GORDON WINNER DESR INTV_ISC-00961
000117  ERN_F2211_NSCR_1996-07-28_TALLADEGA-DIEHARD_501_RACE_B-ROLL_RICHARD_CHILDRESS_INTV_DESR_CRASH_NO3_JEFF_GORDON_WINNER_DESR_INTV_IS V     C        03:24:10:05 03:24:10:09 00:58:51:18 00:58:51:21 
M2      ERN_F2211_NSCR_1996-07-28_TALLADEGA-DIEHARD_501_RACE_B-ROLL_RICHARD_CHILDRESS_INTV_DESR_CRASH_NO3_JEFF_GORDON_WINNER_DESR_INTV_IS          030.0 03:24:10:05 
*FROM CLIP NAME:  ERN_F2211_NSCR_1996-07-28_TALLADEGA-DIEHARD 501 RACE B-ROLL RICHARD CHILDRESS INTV DESR CRASH NO3 JEFF GORDON WINNER DESR INTV_ISC-00961.NEW.01 
*SOURCE FILE: ERN_F2211_NSCR_1996-07-28_TALLADEGA-DIEHARD 501 RACE B-ROLL RICHARD CHILDRESS INTV DESR CRASH NO3 JEFF GORDON WINNER DESR INTV_ISC-00961
000118  ERN_F2211_NSCR_1996-07-28_TALLADEGA-DIEHARD_501_RACE_B-ROLL_RICHARD_CHILDRESS_INTV_DESR_CRASH_NO3_JEFF_GORDON_WINNER_DESR_INTV_IS A22   C        03:24:10:20 03:24:10:22 00:58:51:19 00:58:51:20 
M2      ERN_F2211_NSCR_1996-07-28_TALLADEGA-DIEHARD_501_RACE_B-ROLL_RICHARD_CHILDRESS_INTV_DESR_CRASH_NO3_JEFF_GORDON_WINNER_DESR_INTV_IS          030.0 03:24:10:20 
*FROM CLIP NAME:  ERN_F2211_NSCR_1996-07-28_TALLADEGA-DIEHARD 501 RACE B-ROLL RICHARD CHILDRESS INTV DESR CRASH NO3 JEFF GORDON WINNER DESR INTV_ISC-00961.NEW.01 
*SOURCE FILE: ERN_F2211_NSCR_1996-07-28_TALLADEGA-DIEHARD 501 RACE B-ROLL RICHARD CHILDRESS INTV DESR CRASH NO3 JEFF GORDON WINNER DESR INTV_ISC-00961