TITLE:   ERN_102_EXT_PL_20250318_HARDLOCK 
FCM: NON-DROP FRAME
000001  ERN_F3076_NSCR_1972_23RD_SOUTHERN_500-FILM_FOOTAGE_QUIRKY_DARLINGTON_PACKAGE_CLASSIC_70S_NARRATION__1973-NAS-00008                V     C        00:03:30:16 00:03:34:01 00:00:01:00 00:00:04:08 
M2      ERN_F3076_NSCR_1972_23RD_SOUTHERN_500-FILM_FOOTAGE_QUIRKY_DARLINGTON_PACKAGE_CLASSIC_70S_NARRATION__1973-NAS-00008                         024.0 00:03:30:16 
*FROM CLIP NAME:  ERN_F3076_NSCR_1972_23RD SOUTHERN 500-FILM FOOTAGE QUIRKY DARLINGTON PACKAGE CLASSIC 70S NARRATION _1973-NAS-00008.NEW.01 
*SOURCE FILE: ERN_F3076_NSCR_1972_23RD SOUTHERN 500-FILM FOOTAGE QUIRKY DARLINGTON PACKAGE CLASSIC 70S NARRATION _1973-NAS-00008
000002  ERN_F3076_NSCR_1972_23RD_SOUTHERN_500-FILM_FOOTAGE_QUIRKY_DARLINGTON_PACKAGE_CLASSIC_70S_NARRATION__1973-NAS-00008                V     C        00:04:06:09 00:04:10:15 00:00:07:08 00:00:11:12 
M2      ERN_F3076_NSCR_1972_23RD_SOUTHERN_500-FILM_FOOTAGE_QUIRKY_DARLINGTON_PACKAGE_CLASSIC_70S_NARRATION__1973-NAS-00008                         024.0 00:04:06:09 
*FROM CLIP NAME:  ERN_F3076_NSCR_1972_23RD SOUTHERN 500-FILM FOOTAGE QUIRKY DARLINGTON PACKAGE CLASSIC 70S NARRATION _1973-NAS-00008.NEW.01 
*SOURCE FILE: ERN_F3076_NSCR_1972_23RD SOUTHERN 500-FILM FOOTAGE QUIRKY DARLINGTON PACKAGE CLASSIC 70S NARRATION _1973-NAS-00008
000003  ERN_F3076_NSCR_1972_23RD_SOUTHERN_500-FILM_FOOTAGE_QUIRKY_DARLINGTON_PACKAGE_CLASSIC_70S_NARRATION__1973-NAS-00008                V     C        00:03:45:12 00:03:47:12 00:00:14:12 00:00:16:11 
M2      ERN_F3076_NSCR_1972_23RD_SOUTHERN_500-FILM_FOOTAGE_QUIRKY_DARLINGTON_PACKAGE_CLASSIC_70S_NARRATION__1973-NAS-00008                         024.0 00:03:45:12 
*FROM CLIP NAME:  ERN_F3076_NSCR_1972_23RD SOUTHERN 500-FILM FOOTAGE QUIRKY DARLINGTON PACKAGE CLASSIC 70S NARRATION _1973-NAS-00008.NEW.01 
*SOURCE FILE: ERN_F3076_NSCR_1972_23RD SOUTHERN 500-FILM FOOTAGE QUIRKY DARLINGTON PACKAGE CLASSIC 70S NARRATION _1973-NAS-00008
000004  ERN_F3076_NSCR_1972_23RD_SOUTHERN_500-FILM_FOOTAGE_QUIRKY_DARLINGTON_PACKAGE_CLASSIC_70S_NARRATION__1973-NAS-00008                V     C        00:03:49:14 00:03:51:13 00:00:16:11 00:00:18:09 
M2      ERN_F3076_NSCR_1972_23RD_SOUTHERN_500-FILM_FOOTAGE_QUIRKY_DARLINGTON_PACKAGE_CLASSIC_70S_NARRATION__1973-NAS-00008                         024.0 00:03:49:14 
*FROM CLIP NAME:  ERN_F3076_NSCR_1972_23RD SOUTHERN 500-FILM FOOTAGE QUIRKY DARLINGTON PACKAGE CLASSIC 70S NARRATION _1973-NAS-00008.NEW.01 
*SOURCE FILE: ERN_F3076_NSCR_1972_23RD SOUTHERN 500-FILM FOOTAGE QUIRKY DARLINGTON PACKAGE CLASSIC 70S NARRATION _1973-NAS-00008
000005  ERN_F3071_NSCR_1972-05-07_TALLADEGA-FILM_FOOTAGE_NO_AUDIO_RACE_FLYBYS_PIT_CREW_DRIVER_WINSTON_GIRLS_B-ROLL_1972-NAS-00013_S001    V     C        00:11:56:18 00:11:58:04 00:00:18:09 00:00:19:18 
M2      ERN_F3071_NSCR_1972-05-07_TALLADEGA-FILM_FOOTAGE_NO_AUDIO_RACE_FLYBYS_PIT_CREW_DRIVER_WINSTON_GIRLS_B-ROLL_1972-NAS-00013_S001             024.0 00:11:56:18 
*FROM CLIP NAME:  ERN_F3071_NSCR_1972-05-07_TALLADEGA-FILM FOOTAGE NO AUDIO RACE FLYBYS PIT CREW DRIVER WINSTON GIRLS B-ROLL_1972-NAS-00013_S001.NEW.01 
*SOURCE FILE: ERN_F3071_NSCR_1972-05-07_TALLADEGA-FILM FOOTAGE NO AUDIO RACE FLYBYS PIT CREW DRIVER WINSTON GIRLS B-ROLL_1972-NAS-00013_S001
000006  ERN_F3071_NSCR_1972-05-07_TALLADEGA-FILM_FOOTAGE_NO_AUDIO_RACE_FLYBYS_PIT_CREW_DRIVER_WINSTON_GIRLS_B-ROLL_1972-NAS-00013_S001    V     C        00:11:26:11 00:11:28:16 00:00:19:18 00:00:21:22 
M2      ERN_F3071_NSCR_1972-05-07_TALLADEGA-FILM_FOOTAGE_NO_AUDIO_RACE_FLYBYS_PIT_CREW_DRIVER_WINSTON_GIRLS_B-ROLL_1972-NAS-00013_S001             024.0 00:11:26:11 
*FROM CLIP NAME:  ERN_F3071_NSCR_1972-05-07_TALLADEGA-FILM FOOTAGE NO AUDIO RACE FLYBYS PIT CREW DRIVER WINSTON GIRLS B-ROLL_1972-NAS-00013_S001.NEW.01 
*SOURCE FILE: ERN_F3071_NSCR_1972-05-07_TALLADEGA-FILM FOOTAGE NO AUDIO RACE FLYBYS PIT CREW DRIVER WINSTON GIRLS B-ROLL_1972-NAS-00013_S001
000007  ERN_F2996_NSCR_1983_DAYTONA_FILM_FOOTAGE_NO_AUDIO_FAN_B-ROLL_RACE_B-ROLL_FLYBYS_1983-NAS-00066_S001                               V     C        00:00:37:13 00:00:39:05 00:00:24:22 00:00:26:13 
M2      ERN_F2996_NSCR_1983_DAYTONA_FILM_FOOTAGE_NO_AUDIO_FAN_B-ROLL_RACE_B-ROLL_FLYBYS_1983-NAS-00066_S001                                        024.0 00:00:37:13 
*FROM CLIP NAME:  ERN_F2996_NSCR_1983_DAYTONA FILM FOOTAGE NO AUDIO FAN B-ROLL RACE B-ROLL FLYBYS_1983-NAS-00066_S001.NEW.01 
*SOURCE FILE: ERN_F2996_NSCR_1983_DAYTONA FILM FOOTAGE NO AUDIO FAN B-ROLL RACE B-ROLL FLYBYS_1983-NAS-00066_S001
000008  ERN_F2893_NSCR_1983_DAYTONA_500_FILM_FOOTAGE_RACE_FLYBYS_FAN_B-ROLL_PARADE__1983-NAS-017907-S002                                  V     C        00:12:55:09 00:12:56:23 00:00:26:13 00:00:28:02 
M2      ERN_F2893_NSCR_1983_DAYTONA_500_FILM_FOOTAGE_RACE_FLYBYS_FAN_B-ROLL_PARADE__1983-NAS-017907-S002                                           024.0 00:12:55:09 
*FROM CLIP NAME:  ERN_F2893_NSCR_1983_DAYTONA 500 FILM FOOTAGE RACE FLYBYS FAN B-ROLL PARADE _1983-NAS-017907-S002.NEW.01 
*SOURCE FILE: ERN_F2893_NSCR_1983_DAYTONA 500 FILM FOOTAGE RACE FLYBYS FAN B-ROLL PARADE _1983-NAS-017907-S002
000009  ERN_F2992_NSCR_1983_DAYTONA_500_FILM_FOOTAGE_FAN_B-ROLL_NO28_VICTORY_LANE_ROLL-IN_INT_CAR_RACE_FOOTAGE_FLYBYS__1983-NAS-017907-S0 V     C        00:23:28:13 00:23:30:03 00:00:28:02 00:00:29:15 
M2      ERN_F2992_NSCR_1983_DAYTONA_500_FILM_FOOTAGE_FAN_B-ROLL_NO28_VICTORY_LANE_ROLL-IN_INT_CAR_RACE_FOOTAGE_FLYBYS__1983-NAS-017907-S0          024.0 00:23:28:13 
*FROM CLIP NAME:  ERN_F2992_NSCR_1983_DAYTONA 500 FILM FOOTAGE FAN B-ROLL NO28 VICTORY LANE ROLL-IN INT CAR RACE FOOTAGE FLYBYS _1983-NAS-017907-S001.NEW.01 
*SOURCE FILE: ERN_F2992_NSCR_1983_DAYTONA 500 FILM FOOTAGE FAN B-ROLL NO28 VICTORY LANE ROLL-IN INT CAR RACE FOOTAGE FLYBYS _1983-NAS-017907-S001
000010  ERN_F2893_NSCR_1983_DAYTONA_500_FILM_FOOTAGE_RACE_FLYBYS_FAN_B-ROLL_PARADE__1983-NAS-017907-S002                                  V     C        00:13:04:20 00:13:06:06 00:00:29:15 00:00:31:00 
M2      ERN_F2893_NSCR_1983_DAYTONA_500_FILM_FOOTAGE_RACE_FLYBYS_FAN_B-ROLL_PARADE__1983-NAS-017907-S002                                           024.0 00:13:04:20 
*FROM CLIP NAME:  ERN_F2893_NSCR_1983_DAYTONA 500 FILM FOOTAGE RACE FLYBYS FAN B-ROLL PARADE _1983-NAS-017907-S002.NEW.01 
*SOURCE FILE: ERN_F2893_NSCR_1983_DAYTONA 500 FILM FOOTAGE RACE FLYBYS FAN B-ROLL PARADE _1983-NAS-017907-S002
000011  ERN_F1929_NSCR_1988-05-29_CHARLOTTE-COCA_COLA_600_HANG_GLIDING_B-ROLL_CIRCUS_PERFORMERS_B-ROLL_AWARDS_CEREMONY_88-EV-0159         V     C        00:05:48:17 00:05:50:03 00:00:34:00 00:00:35:02 
M2      ERN_F1929_NSCR_1988-05-29_CHARLOTTE-COCA_COLA_600_HANG_GLIDING_B-ROLL_CIRCUS_PERFORMERS_B-ROLL_AWARDS_CEREMONY_88-EV-0159                  042.6 00:05:48:17 
*FROM CLIP NAME:  ERN_F1929_NSCR_1988-05-29_CHARLOTTE-COCA COLA 600 HANG GLIDING B-ROLL CIRCUS PERFORMERS B-ROLL AWARDS CEREMONY_88-EV-0159.NEW.01 
*SOURCE FILE: ERN_F1929_NSCR_1988-05-29_CHARLOTTE-COCA COLA 600 HANG GLIDING B-ROLL CIRCUS PERFORMERS B-ROLL AWARDS CEREMONY_88-EV-0159
000012  ERN_F1929_NSCR_1988-05-29_CHARLOTTE-COCA_COLA_600_HANG_GLIDING_B-ROLL_CIRCUS_PERFORMERS_B-ROLL_AWARDS_CEREMONY_88-EV-0159         V     C        00:05:50:19 00:05:53:13 00:00:35:02 00:00:37:10 
M2      ERN_F1929_NSCR_1988-05-29_CHARLOTTE-COCA_COLA_600_HANG_GLIDING_B-ROLL_CIRCUS_PERFORMERS_B-ROLL_AWARDS_CEREMONY_88-EV-0159                  036.0 00:05:50:19 
*FROM CLIP NAME:  ERN_F1929_NSCR_1988-05-29_CHARLOTTE-COCA COLA 600 HANG GLIDING B-ROLL CIRCUS PERFORMERS B-ROLL AWARDS CEREMONY_88-EV-0159.NEW.01 
*SOURCE FILE: ERN_F1929_NSCR_1988-05-29_CHARLOTTE-COCA COLA 600 HANG GLIDING B-ROLL CIRCUS PERFORMERS B-ROLL AWARDS CEREMONY_88-EV-0159
000013  ERN_F1929_NSCR_1988-05-29_CHARLOTTE-COCA_COLA_600_HA_VOCALS_SPLIT_BY_LALALAI.WAV                                                  A18   C        01:00:00:23 01:00:05:15 00:00:35:05 00:00:39:21 
*FROM CLIP NAME:  ERN_F1929_NSCR_1988-05-29_CHARLOTTE-COCA COLA 600 HA_VOCALS_SPLIT_BY_LALALAI.WAV 
*SOURCE FILE: ERN_F1929_NSCR_1988-05-29_CHARLOTTE-COCA COLA 600 HA_VOCALS_SPLIT_BY_LALALAI.WAV
000014  ERN_F1929_NSCR_1988-05-29_CHARLOTTE-COCA_COLA_600_HANG_GLIDING_B-ROLL_CIRCUS_PERFORMERS_B-ROLL_AWARDS_CEREMONY_88-EV-0159         V     C        00:10:20:08 00:10:23:16 00:00:37:10 00:00:40:16 
M2      ERN_F1929_NSCR_1988-05-29_CHARLOTTE-COCA_COLA_600_HANG_GLIDING_B-ROLL_CIRCUS_PERFORMERS_B-ROLL_AWARDS_CEREMONY_88-EV-0159                  030.0 00:10:20:08 
*FROM CLIP NAME:  ERN_F1929_NSCR_1988-05-29_CHARLOTTE-COCA COLA 600 HANG GLIDING B-ROLL CIRCUS PERFORMERS B-ROLL AWARDS CEREMONY_88-EV-0159.NEW.01 
*SOURCE FILE: ERN_F1929_NSCR_1988-05-29_CHARLOTTE-COCA COLA 600 HANG GLIDING B-ROLL CIRCUS PERFORMERS B-ROLL AWARDS CEREMONY_88-EV-0159
000015  ERN_F0785_NSCR_1986-02-23_RACE_DESR_AND_DARRELL_WALTRIP_CRASH_NASCAR_CUP_SERIES_-_RICHMOND_TNN001790                              A18   C        00:06:06:14 00:06:09:00 00:00:43:11 00:00:45:23 
M2      ERN_F0785_NSCR_1986-02-23_RACE_DESR_AND_DARRELL_WALTRIP_CRASH_NASCAR_CUP_SERIES_-_RICHMOND_TNN001790                                       030.0 00:06:06:14 
*FROM CLIP NAME:  ERN_F0785_NSCR_1986-02-23_RACE DESR AND DARRELL WALTRIP CRASH NASCAR CUP SERIES - RICHMOND_TNN001790.NEW.01 
*SOURCE FILE: ERN_F0785_NSCR_1986-02-23_RACE DESR AND DARRELL WALTRIP CRASH NASCAR CUP SERIES - RICHMOND_TNN001790
000016  ERN_F4120_NSCR_1983-05-29_CHARLOTTE_YELLO_MELLO_300-16MM_FILM_FOOTAGE_GARAGE_PREP_B-ROLL_RACE_B-ROLL_VICTORY_LANE_BALLOONS_12-FB- V     C        05:19:53:28 05:19:56:19 00:00:43:16 00:00:46:08 
M2      ERN_F4120_NSCR_1983-05-29_CHARLOTTE_YELLO_MELLO_300-16MM_FILM_FOOTAGE_GARAGE_PREP_B-ROLL_RACE_B-ROLL_VICTORY_LANE_BALLOONS_12-FB-          060.0 05:19:53:28 
*FROM CLIP NAME:  ERN_F4120_NSCR_1983-05-29_CHARLOTTE YELLO MELLO 300-16MM FILM FOOTAGE GARAGE PREP B-ROLL RACE B-ROLL VICTORY LANE BALLOONS_12-FB-02106.NEW.01 
*SOURCE FILE: ERN_F4120_NSCR_1983-05-29_CHARLOTTE YELLO MELLO 300-16MM FILM FOOTAGE GARAGE PREP B-ROLL RACE B-ROLL VICTORY LANE BALLOONS_12-FB-02106
000017  ERN_F0785_NSCR_1986-02-23_RACE_DESR_AND_DARRELL_WALTRIP_CRASH_NASCAR_CUP_SERIES_-_RICHMOND_TNN001790                              A18   C        00:06:08:29 00:06:10:28 00:00:45:23 00:00:47:22 
M2      ERN_F0785_NSCR_1986-02-23_RACE_DESR_AND_DARRELL_WALTRIP_CRASH_NASCAR_CUP_SERIES_-_RICHMOND_TNN001790                                       030.0 00:06:08:29 
*FROM CLIP NAME:  ERN_F0785_NSCR_1986-02-23_RACE DESR AND DARRELL WALTRIP CRASH NASCAR CUP SERIES - RICHMOND_TNN001790.NEW.01 
*SOURCE FILE: ERN_F0785_NSCR_1986-02-23_RACE DESR AND DARRELL WALTRIP CRASH NASCAR CUP SERIES - RICHMOND_TNN001790
000018  ERN_F3071_NSCR_1972-05-07_TALLADEGA-FILM_FOOTAGE_NO_AUDIO_RACE_FLYBYS_PIT_CREW_DRIVER_WINSTON_GIRLS_B-ROLL_1972-NAS-00013_S001    V     C        00:12:12:13 00:12:14:04 00:00:46:08 00:00:47:22 
M2      ERN_F3071_NSCR_1972-05-07_TALLADEGA-FILM_FOOTAGE_NO_AUDIO_RACE_FLYBYS_PIT_CREW_DRIVER_WINSTON_GIRLS_B-ROLL_1972-NAS-00013_S001             024.0 00:12:12:13 
*FROM CLIP NAME:  ERN_F3071_NSCR_1972-05-07_TALLADEGA-FILM FOOTAGE NO AUDIO RACE FLYBYS PIT CREW DRIVER WINSTON GIRLS B-ROLL_1972-NAS-00013_S001.NEW.01 
*SOURCE FILE: ERN_F3071_NSCR_1972-05-07_TALLADEGA-FILM FOOTAGE NO AUDIO RACE FLYBYS PIT CREW DRIVER WINSTON GIRLS B-ROLL_1972-NAS-00013_S001
000019  ERN_F2891_NSCR_1984_FILM_FOOTAGE_RACE_B-ROLL_CAR_WRECKS_SMOKE_GARAGE_PREP__1984-NAS-017106-S001                                   V     C        00:06:29:00 00:06:30:15 00:00:47:22 00:00:49:12 
M2      ERN_F2891_NSCR_1984_FILM_FOOTAGE_RACE_B-ROLL_CAR_WRECKS_SMOKE_GARAGE_PREP__1984-NAS-017106-S001                                            024.0 00:06:29:00 
*FROM CLIP NAME:  ERN_F2891_NSCR_1984_FILM FOOTAGE RACE B-ROLL CAR WRECKS SMOKE GARAGE PREP _1984-NAS-017106-S001.NEW.01 
*SOURCE FILE: ERN_F2891_NSCR_1984_FILM FOOTAGE RACE B-ROLL CAR WRECKS SMOKE GARAGE PREP _1984-NAS-017106-S001
000020  ERN_F0785_NSCR_1986-02-23_RACE_DESR_AND_DARRELL_WALTRIP_CRASH_NASCAR_CUP_SERIES_-_RICHMOND_TNN001790                              A18   C        00:06:10:28 00:06:13:28 00:00:47:22 00:00:50:22 
M2      ERN_F0785_NSCR_1986-02-23_RACE_DESR_AND_DARRELL_WALTRIP_CRASH_NASCAR_CUP_SERIES_-_RICHMOND_TNN001790                                       030.0 00:06:10:28 
*FROM CLIP NAME:  ERN_F0785_NSCR_1986-02-23_RACE DESR AND DARRELL WALTRIP CRASH NASCAR CUP SERIES - RICHMOND_TNN001790.NEW.01 
*TO CLIP NAME:  ERN_F0785_NSCR_1986-02-23_RACE DESR AND DARRELL WALTRIP CRASH NASCAR CUP SERIES - RICHMOND_TNN001790.NEW.01 
*SOURCE FILE: ERN_F0785_NSCR_1986-02-23_RACE DESR AND DARRELL WALTRIP CRASH NASCAR CUP SERIES - RICHMOND_TNN001790
000021  ERN_F3071_NSCR_1972-05-07_TALLADEGA-FILM_FOOTAGE_NO_AUDIO_RACE_FLYBYS_PIT_CREW_DRIVER_WINSTON_GIRLS_B-ROLL_1972-NAS-00013_S001    V     C        00:08:03:16 00:08:05:15 00:00:49:12 00:00:51:10 
M2      ERN_F3071_NSCR_1972-05-07_TALLADEGA-FILM_FOOTAGE_NO_AUDIO_RACE_FLYBYS_PIT_CREW_DRIVER_WINSTON_GIRLS_B-ROLL_1972-NAS-00013_S001             024.0 00:08:03:16 
*FROM CLIP NAME:  ERN_F3071_NSCR_1972-05-07_TALLADEGA-FILM FOOTAGE NO AUDIO RACE FLYBYS PIT CREW DRIVER WINSTON GIRLS B-ROLL_1972-NAS-00013_S001.NEW.01 
*SOURCE FILE: ERN_F3071_NSCR_1972-05-07_TALLADEGA-FILM FOOTAGE NO AUDIO RACE FLYBYS PIT CREW DRIVER WINSTON GIRLS B-ROLL_1972-NAS-00013_S001
000022  ERN_F0785_NSCR_1986-02-23_RACE_DESR_AND_DARRELL_WALTRIP_CRASH_NASCAR_CUP_SERIES_-_RICHMOND_TNN001790                              A18   C        00:06:13:28 00:06:16:10 00:00:50:22 00:00:53:07 
M2      ERN_F0785_NSCR_1986-02-23_RACE_DESR_AND_DARRELL_WALTRIP_CRASH_NASCAR_CUP_SERIES_-_RICHMOND_TNN001790                                       030.0 00:06:13:28 
*FROM CLIP NAME:  ERN_F0785_NSCR_1986-02-23_RACE DESR AND DARRELL WALTRIP CRASH NASCAR CUP SERIES - RICHMOND_TNN001790.NEW.01 
*SOURCE FILE: ERN_F0785_NSCR_1986-02-23_RACE DESR AND DARRELL WALTRIP CRASH NASCAR CUP SERIES - RICHMOND_TNN001790
000023  ERN_F4824_NSCR_1981_CHARLOTTE_MONTH_OF_SUNDAYS-FILM_FOOTAGE_16MM_PIT_ROAD_BUDDY_BAKE_CALE_YARBOROUGH_DARRELL_WALTRIP_ISC-00020    V     C        01:42:30:05 01:42:32:07 00:00:51:10 00:00:53:11 
M2      ERN_F4824_NSCR_1981_CHARLOTTE_MONTH_OF_SUNDAYS-FILM_FOOTAGE_16MM_PIT_ROAD_BUDDY_BAKE_CALE_YARBOROUGH_DARRELL_WALTRIP_ISC-00020             030.0 01:42:30:05 
*FROM CLIP NAME:  ERN_F4824_NSCR_1981_CHARLOTTE MONTH OF SUNDAYS-FILM FOOTAGE 16MM PIT ROAD BUDDY BAKE CALE YARBOROUGH DARRELL WALTRIP_ISC-00020.NEW.01 
*SOURCE FILE: ERN_F4824_NSCR_1981_CHARLOTTE MONTH OF SUNDAYS-FILM FOOTAGE 16MM PIT ROAD BUDDY BAKE CALE YARBOROUGH DARRELL WALTRIP_ISC-00020
000024  ERN_F2886_NSCR_1989-02-10_DAYTONA_BUSCH_CLASH-DEJR_NO3_INTV_PRE-RACE_TERESA_ROLL-INS_ROLL-OUTS_89-EV-0008                         V     C        00:03:55:14 00:03:58:05 00:00:53:11 00:00:56:03 
M2      ERN_F2886_NSCR_1989-02-10_DAYTONA_BUSCH_CLASH-DEJR_NO3_INTV_PRE-RACE_TERESA_ROLL-INS_ROLL-OUTS_89-EV-0008                                  060.0 00:03:55:14 
*FROM CLIP NAME:  ERN_F2886_NSCR_1989-02-10_DAYTONA BUSCH CLASH-DEJR NO3 INTV PRE-RACE TERESA ROLL-INS ROLL-OUTS_89-EV-0008.NEW.01 
*SOURCE FILE: ERN_F2886_NSCR_1989-02-10_DAYTONA BUSCH CLASH-DEJR NO3 INTV PRE-RACE TERESA ROLL-INS ROLL-OUTS_89-EV-0008
000025  ERN_F3931_NSCR_1979-11-18_CORPORATE_MOTORSPORTS-16MM_FILM_FOOTAGE_NO_AUDIO_PRE-RACE_DRIVERS_GETTING_INTO_CARS_DESR_FLYBYS_VICTORY V     C        00:12:51:28 00:12:53:11 00:00:56:03 00:00:57:13 
M2      ERN_F3931_NSCR_1979-11-18_CORPORATE_MOTORSPORTS-16MM_FILM_FOOTAGE_NO_AUDIO_PRE-RACE_DRIVERS_GETTING_INTO_CARS_DESR_FLYBYS_VICTORY          060.0 00:12:51:28 
*FROM CLIP NAME:  ERN_F3931_NSCR_1979-11-18_CORPORATE MOTORSPORTS-16MM FILM FOOTAGE NO AUDIO PRE-RACE DRIVERS GETTING INTO CARS DESR FLYBYS VICTORY LANE B-ROLL_12-FB-01648.NEW.01 
*SOURCE FILE: ERN_F3931_NSCR_1979-11-18_CORPORATE MOTORSPORTS-16MM FILM FOOTAGE NO AUDIO PRE-RACE DRIVERS GETTING INTO CARS DESR FLYBYS VICTORY LANE B-ROLL_12-FB-01648
000026  ERN_F0785_NSCR_1986-02-23_RACE_DESR_AND_DARRELL_WALTRIP_CRASH_NASCAR_CUP_SERIES_-_RICHMOND_TNN001790                              A18   C        00:06:11:06 00:06:12:07 00:00:56:22 00:00:57:22 
M2      ERN_F0785_NSCR_1986-02-23_RACE_DESR_AND_DARRELL_WALTRIP_CRASH_NASCAR_CUP_SERIES_-_RICHMOND_TNN001790                                       030.0 00:06:11:06 
*FROM CLIP NAME:  ERN_F0785_NSCR_1986-02-23_RACE DESR AND DARRELL WALTRIP CRASH NASCAR CUP SERIES - RICHMOND_TNN001790.NEW.01 
*SOURCE FILE: ERN_F0785_NSCR_1986-02-23_RACE DESR AND DARRELL WALTRIP CRASH NASCAR CUP SERIES - RICHMOND_TNN001790
000027  ERN_F2999_NSCR_1970_KLAC_570-FILM_FOOTAGE_NO_AUDIO_FLYBYS_YOUNG_BOY_DRIVING_YELLOW_CAR_OPEN_ROAD_SPRINT_CAR_TRACK_B-ROLL_1970-NAS V     C        00:00:39:17 00:00:41:00 00:00:57:13 00:00:58:19 
M2      ERN_F2999_NSCR_1970_KLAC_570-FILM_FOOTAGE_NO_AUDIO_FLYBYS_YOUNG_BOY_DRIVING_YELLOW_CAR_OPEN_ROAD_SPRINT_CAR_TRACK_B-ROLL_1970-NAS          024.0 00:00:39:17 
*FROM CLIP NAME:  ERN_F2999_NSCR_1970_KLAC 570-FILM FOOTAGE NO AUDIO FLYBYS YOUNG BOY DRIVING YELLOW CAR OPEN ROAD SPRINT CAR TRACK B-ROLL_1970-NAS-046399-FOX00164_ORIGINAL_C_AND_T_501_002_PRORES 2K SUPER 16MM.NEW.01 
*SOURCE FILE: ERN_F2999_NSCR_1970_KLAC 570-FILM FOOTAGE NO AUDIO FLYBYS YOUNG BOY DRIVING YELLOW CAR OPEN ROAD SPRINT CAR TRACK B-ROLL_1970-NAS-046399-FOX00164_ORIGINAL_C_AND_T_501_002_PRORES 2K SUPER 16MM
000028  ERN_F0785_NSCR_1986-02-23_RACE_DESR_AND_DARRELL_WALTRIP_CRASH_NASCAR_CUP_SERIES_-_RICHMOND_TNN001790                              A18   C        00:06:12:06 00:06:18:16 00:00:57:22 00:01:04:05 
M2      ERN_F0785_NSCR_1986-02-23_RACE_DESR_AND_DARRELL_WALTRIP_CRASH_NASCAR_CUP_SERIES_-_RICHMOND_TNN001790                                       030.0 00:06:12:06 
*FROM CLIP NAME:  ERN_F0785_NSCR_1986-02-23_RACE DESR AND DARRELL WALTRIP CRASH NASCAR CUP SERIES - RICHMOND_TNN001790.NEW.01 
*SOURCE FILE: ERN_F0785_NSCR_1986-02-23_RACE DESR AND DARRELL WALTRIP CRASH NASCAR CUP SERIES - RICHMOND_TNN001790
000029  ERN_F2998_NSCR_1970_BRISTOL-FILM_FOOTAGE_FLYBYS_PIT__CREW_B-ROLL_CAR_CONES__1970-NAS-046200-FOX000103_CAR_AND_TRACK_SHOW_406_001_ V     C        00:00:04:22 00:00:06:01 00:00:58:19 00:00:59:21 
M2      ERN_F2998_NSCR_1970_BRISTOL-FILM_FOOTAGE_FLYBYS_PIT__CREW_B-ROLL_CAR_CONES__1970-NAS-046200-FOX000103_CAR_AND_TRACK_SHOW_406_001_          024.0 00:00:04:22 
*FROM CLIP NAME:  ERN_F2998_NSCR_1970_BRISTOL-FILM FOOTAGE FLYBYS PIT  CREW B-ROLL CAR CONES _1970-NAS-046200-FOX000103_CAR_AND_TRACK_SHOW_406_001_PRORES 2K SUPER 16MM.NEW.01 
*SOURCE FILE: ERN_F2998_NSCR_1970_BRISTOL-FILM FOOTAGE FLYBYS PIT  CREW B-ROLL CAR CONES _1970-NAS-046200-FOX000103_CAR_AND_TRACK_SHOW_406_001_PRORES 2K SUPER 16MM
000030  ERN_F2509_NSCR_1990-02-18_RACE_B-ROLL_DAYTONA_500_PRE_RACE_DESR_NO3_W_MIKE_JOY_TNN000637                                          V     C        00:14:26:13 00:14:29:00 00:00:59:21 00:01:02:00 
M2      ERN_F2509_NSCR_1990-02-18_RACE_B-ROLL_DAYTONA_500_PRE_RACE_DESR_NO3_W_MIKE_JOY_TNN000637                                                   036.0 00:14:26:13 
*FROM CLIP NAME:  ERN_F2509_NSCR_1990-02-18_RACE B-ROLL DAYTONA 500 PRE RACE DESR NO3 W MIKE JOY_TNN000637.NEW.01 
*SOURCE FILE: ERN_F2509_NSCR_1990-02-18_RACE B-ROLL DAYTONA 500 PRE RACE DESR NO3 W MIKE JOY_TNN000637
000031  ERN_F3084_NSCR_1979_DARLINGTON-FILM_FOOTAGE_QUIRKY_PACKAGE_CLASSIC_70S_NARRATION_MECHANICS_RACE_REPORTING_PIT_CREWS_RICHARD_CHILD V     C        00:02:24:23 00:02:26:20 00:01:02:00 00:01:03:21 
M2      ERN_F3084_NSCR_1979_DARLINGTON-FILM_FOOTAGE_QUIRKY_PACKAGE_CLASSIC_70S_NARRATION_MECHANICS_RACE_REPORTING_PIT_CREWS_RICHARD_CHILD          060.0 00:02:24:23 
*FROM CLIP NAME:  ERN_F3084_NSCR_1979_DARLINGTON-FILM FOOTAGE QUIRKY PACKAGE CLASSIC 70S NARRATION MECHANICS RACE REPORTING PIT CREWS RICHARD CHILDRESS NO3 DRIVER DARRELL WALTRIP VICTORY LANE_1979-NAS-00056_S001.NEW.01 
*SOURCE FILE: ERN_F3084_NSCR_1979_DARLINGTON-FILM FOOTAGE QUIRKY PACKAGE CLASSIC 70S NARRATION MECHANICS RACE REPORTING PIT CREWS RICHARD CHILDRESS NO3 DRIVER DARRELL WALTRIP VICTORY LANE_1979-NAS-00056_S001
000032  ERN_F5042_NSCR_1979-08-25_SOUTHEASTERN_500-FILM_FOOTAGE_16MM_RACE_B-ROLL_DESR_NO2_WRANGLER_ISC-00158                              V     C        01:06:07:15 01:06:08:28 00:01:03:21 00:01:05:07 
M2      ERN_F5042_NSCR_1979-08-25_SOUTHEASTERN_500-FILM_FOOTAGE_16MM_RACE_B-ROLL_DESR_NO2_WRANGLER_ISC-00158                                       030.0 01:06:07:15 
*FROM CLIP NAME:  ERN_F5042_NSCR_1979-08-25_SOUTHEASTERN 500-FILM FOOTAGE 16MM RACE B-ROLL DESR NO2 WRANGLER_ISC-00158.NEW.01 
*SOURCE FILE: ERN_F5042_NSCR_1979-08-25_SOUTHEASTERN 500-FILM FOOTAGE 16MM RACE B-ROLL DESR NO2 WRANGLER_ISC-00158
000033  ERN_F0785_NSCR_1986-02-23_RACE_DESR_AND_DARRELL_WALTRIP_CRASH_NASCAR_CUP_SERIES_-_RICHMOND_TNN001790                              A22   C        00:06:11:03 00:06:12:03 00:01:04:02 00:01:05:02 
M2      ERN_F0785_NSCR_1986-02-23_RACE_DESR_AND_DARRELL_WALTRIP_CRASH_NASCAR_CUP_SERIES_-_RICHMOND_TNN001790                                       030.0 00:06:11:03 
*FROM CLIP NAME:  ERN_F0785_NSCR_1986-02-23_RACE DESR AND DARRELL WALTRIP CRASH NASCAR CUP SERIES - RICHMOND_TNN001790.NEW.01 
*SOURCE FILE: ERN_F0785_NSCR_1986-02-23_RACE DESR AND DARRELL WALTRIP CRASH NASCAR CUP SERIES - RICHMOND_TNN001790
000034  ERN_F0785_NSCR_1986-02-23_RACE_DESR_AND_DARRELL_WALTRIP_CRASH_NASCAR_CUP_SERIES_-_RICHMOND_TNN001790                              A18   C        00:06:18:15 00:06:21:16 00:01:04:05 00:01:07:05 
M2      ERN_F0785_NSCR_1986-02-23_RACE_DESR_AND_DARRELL_WALTRIP_CRASH_NASCAR_CUP_SERIES_-_RICHMOND_TNN001790                                       030.0 00:06:18:15 
*FROM CLIP NAME:  ERN_F0785_NSCR_1986-02-23_RACE DESR AND DARRELL WALTRIP CRASH NASCAR CUP SERIES - RICHMOND_TNN001790.NEW.01 
*TO CLIP NAME:  ERN_F0785_NSCR_1986-02-23_RACE DESR AND DARRELL WALTRIP CRASH NASCAR CUP SERIES - RICHMOND_TNN001790.NEW.01 
*SOURCE FILE: ERN_F0785_NSCR_1986-02-23_RACE DESR AND DARRELL WALTRIP CRASH NASCAR CUP SERIES - RICHMOND_TNN001790
000035  ERN_F0785_NSCR_1986-02-23_RACE_DESR_AND_DARRELL_WALTRIP_CRASH_NASCAR_CUP_SERIES_-_RICHMOND_TNN001790                              A22   C        00:06:12:03 00:06:16:07 00:01:05:02 00:01:09:05 
M2      ERN_F0785_NSCR_1986-02-23_RACE_DESR_AND_DARRELL_WALTRIP_CRASH_NASCAR_CUP_SERIES_-_RICHMOND_TNN001790                                       030.0 00:06:12:03 
*FROM CLIP NAME:  ERN_F0785_NSCR_1986-02-23_RACE DESR AND DARRELL WALTRIP CRASH NASCAR CUP SERIES - RICHMOND_TNN001790.NEW.01 
*SOURCE FILE: ERN_F0785_NSCR_1986-02-23_RACE DESR AND DARRELL WALTRIP CRASH NASCAR CUP SERIES - RICHMOND_TNN001790
000036  ERN_F5044_NSCR_1979-08-25_SOUTHEASTERN_500-FILM_FOOTAGE_16MM_RACE_B-ROLL_FLYBYS_ISC-00158                                         V     C        01:25:53:24 01:25:56:09 00:01:05:07 00:01:07:18 
M2      ERN_F5044_NSCR_1979-08-25_SOUTHEASTERN_500-FILM_FOOTAGE_16MM_RACE_B-ROLL_FLYBYS_ISC-00158                                                  030.0 01:25:53:24 
*FROM CLIP NAME:  ERN_F5044_NSCR_1979-08-25_SOUTHEASTERN 500-FILM FOOTAGE 16MM RACE B-ROLL FLYBYS_ISC-00158.NEW.01 
*SOURCE FILE: ERN_F5044_NSCR_1979-08-25_SOUTHEASTERN 500-FILM FOOTAGE 16MM RACE B-ROLL FLYBYS_ISC-00158
000037  ERN_F5578_NSCR_1975-05-25_1_OF_2_RACE_FILM_CHARLOTTE_MOTOR_SPEEDWAY_WORLD_600_RICHARD_PETTY_WIN_ISC-00153                         V     C        01:04:15:08 01:04:17:12 00:01:07:18 00:01:09:21 
M2      ERN_F5578_NSCR_1975-05-25_1_OF_2_RACE_FILM_CHARLOTTE_MOTOR_SPEEDWAY_WORLD_600_RICHARD_PETTY_WIN_ISC-00153                                  030.0 01:04:15:08 
*FROM CLIP NAME:  ERN_F5578_NSCR_1975-05-25_1 OF 2 RACE FILM CHARLOTTE MOTOR SPEEDWAY WORLD 600 RICHARD PETTY WIN_ISC-00153.NEW.01 
*SOURCE FILE: ERN_F5578_NSCR_1975-05-25_1 OF 2 RACE FILM CHARLOTTE MOTOR SPEEDWAY WORLD 600 RICHARD PETTY WIN_ISC-00153
000038  ERN_F0785_NSCR_1986-02-23_RACE_DESR_AND_DARRELL_WALTRIP_CRASH_NASCAR_CUP_SERIES_-_RICHMOND_TNN001790                              A22   C        00:06:16:06 00:06:18:07 00:01:09:05 00:01:11:05 
M2      ERN_F0785_NSCR_1986-02-23_RACE_DESR_AND_DARRELL_WALTRIP_CRASH_NASCAR_CUP_SERIES_-_RICHMOND_TNN001790                                       030.0 00:06:16:06 
*FROM CLIP NAME:  ERN_F0785_NSCR_1986-02-23_RACE DESR AND DARRELL WALTRIP CRASH NASCAR CUP SERIES - RICHMOND_TNN001790.NEW.01 
*TO CLIP NAME:  ERN_F0785_NSCR_1986-02-23_RACE DESR AND DARRELL WALTRIP CRASH NASCAR CUP SERIES - RICHMOND_TNN001790.NEW.01 
*SOURCE FILE: ERN_F0785_NSCR_1986-02-23_RACE DESR AND DARRELL WALTRIP CRASH NASCAR CUP SERIES - RICHMOND_TNN001790
000039  ERN_F3076_NSCR_1972_23RD_SOUTHERN_500-FILM_FOOTAGE_QUIRKY_DARLINGTON_PACKAGE_CLASSIC_70S_NARRATION__1973-NAS-00008                V     C        00:05:31:11 00:05:33:07 00:01:09:21 00:01:11:16 
M2      ERN_F3076_NSCR_1972_23RD_SOUTHERN_500-FILM_FOOTAGE_QUIRKY_DARLINGTON_PACKAGE_CLASSIC_70S_NARRATION__1973-NAS-00008                         024.0 00:05:31:11 
*FROM CLIP NAME:  ERN_F3076_NSCR_1972_23RD SOUTHERN 500-FILM FOOTAGE QUIRKY DARLINGTON PACKAGE CLASSIC 70S NARRATION _1973-NAS-00008.NEW.01 
*SOURCE FILE: ERN_F3076_NSCR_1972_23RD SOUTHERN 500-FILM FOOTAGE QUIRKY DARLINGTON PACKAGE CLASSIC 70S NARRATION _1973-NAS-00008
000040  ERN_F0785_NSCR_1986-02-23_RACE_DESR_AND_DARRELL_WALTRIP_CRASH_NASCAR_CUP_SERIES_-_RICHMOND_TNN001790                              A22   C        00:06:18:06 00:06:20:13 00:01:11:05 00:01:13:10 
M2      ERN_F0785_NSCR_1986-02-23_RACE_DESR_AND_DARRELL_WALTRIP_CRASH_NASCAR_CUP_SERIES_-_RICHMOND_TNN001790                                       030.0 00:06:18:06 
*FROM CLIP NAME:  ERN_F0785_NSCR_1986-02-23_RACE DESR AND DARRELL WALTRIP CRASH NASCAR CUP SERIES - RICHMOND_TNN001790.NEW.01 
*SOURCE FILE: ERN_F0785_NSCR_1986-02-23_RACE DESR AND DARRELL WALTRIP CRASH NASCAR CUP SERIES - RICHMOND_TNN001790
000041  ERN_F1008_NSCR_1990S_RACE_B-ROLL_POLE_DAY_CHARLOTTE_DESR_TRACK_PRACTICE_W_CHOCOLATE_MYERS_&_KIRK_SHELMERDINE_&_CREW_13A_EARNHARDT A20   C        00:05:18:04 00:05:18:19 00:01:11:14 00:01:12:02 
M2      ERN_F1008_NSCR_1990S_RACE_B-ROLL_POLE_DAY_CHARLOTTE_DESR_TRACK_PRACTICE_W_CHOCOLATE_MYERS_&_KIRK_SHELMERDINE_&_CREW_13A_EARNHARDT          030.0 00:05:18:04 
*FROM CLIP NAME:  ERN_F1008_NSCR_1990S_RACE B-ROLL POLE DAY CHARLOTTE DESR TRACK PRACTICE W CHOCOLATE MYERS & KIRK SHELMERDINE & CREW_13A_EARNHARDT PRAX 2.NEW.01.COPY.01 
*SOURCE FILE: ERN_F1008_NSCR_1990S_RACE B-ROLL POLE DAY CHARLOTTE DESR TRACK PRACTICE W CHOCOLATE MYERS & KIRK SHELMERDINE & CREW_13A_EARNHARDT PRAX 2
000042  ERN_F3931_NSCR_1979-11-18_CORPORATE_MOTORSPORTS-16MM_FILM_FOOTAGE_NO_AUDIO_PRE-RACE_DRIVERS_GETTING_INTO_CARS_DESR_FLYBYS_VICTORY V     C        00:00:57:00 00:00:59:09 00:01:11:16 00:01:13:23 
M2      ERN_F3931_NSCR_1979-11-18_CORPORATE_MOTORSPORTS-16MM_FILM_FOOTAGE_NO_AUDIO_PRE-RACE_DRIVERS_GETTING_INTO_CARS_DESR_FLYBYS_VICTORY          060.0 00:00:57:00 
*FROM CLIP NAME:  ERN_F3931_NSCR_1979-11-18_CORPORATE MOTORSPORTS-16MM FILM FOOTAGE NO AUDIO PRE-RACE DRIVERS GETTING INTO CARS DESR FLYBYS VICTORY LANE B-ROLL_12-FB-01648.NEW.01 
*SOURCE FILE: ERN_F3931_NSCR_1979-11-18_CORPORATE MOTORSPORTS-16MM FILM FOOTAGE NO AUDIO PRE-RACE DRIVERS GETTING INTO CARS DESR FLYBYS VICTORY LANE B-ROLL_12-FB-01648
000043  ERN_F1008_NSCR_1990S_RACE_B-ROLL_POLE_DAY_CHARLOTTE_DESR_TRACK_PRACTICE_W_CHOCOLATE_MYERS_&_KIRK_SHELMERDINE_&_CREW_13A_EARNHARDT A20   C        00:05:18:19 00:05:19:24 00:01:12:02 00:01:13:06 
M2      ERN_F1008_NSCR_1990S_RACE_B-ROLL_POLE_DAY_CHARLOTTE_DESR_TRACK_PRACTICE_W_CHOCOLATE_MYERS_&_KIRK_SHELMERDINE_&_CREW_13A_EARNHARDT          030.0 00:05:18:19 
*FROM CLIP NAME:  ERN_F1008_NSCR_1990S_RACE B-ROLL POLE DAY CHARLOTTE DESR TRACK PRACTICE W CHOCOLATE MYERS & KIRK SHELMERDINE & CREW_13A_EARNHARDT PRAX 2.NEW.01.COPY.01 
*TO CLIP NAME:  ERN_F1008_NSCR_1990S_RACE B-ROLL POLE DAY CHARLOTTE DESR TRACK PRACTICE W CHOCOLATE MYERS & KIRK SHELMERDINE & CREW_13A_EARNHARDT PRAX 2.NEW.01.COPY.01 
*SOURCE FILE: ERN_F1008_NSCR_1990S_RACE B-ROLL POLE DAY CHARLOTTE DESR TRACK PRACTICE W CHOCOLATE MYERS & KIRK SHELMERDINE & CREW_13A_EARNHARDT PRAX 2
000044  ERN_F1008_NSCR_1990S_RACE_B-ROLL_POLE_DAY_CHARLOTTE_DESR_TRACK_PRACTICE_W_CHOCOLATE_MYERS_&_KIRK_SHELMERDINE_&_CREW_13A_EARNHARDT A20   C        00:05:19:24 00:05:22:07 00:01:13:06 00:01:15:16 
M2      ERN_F1008_NSCR_1990S_RACE_B-ROLL_POLE_DAY_CHARLOTTE_DESR_TRACK_PRACTICE_W_CHOCOLATE_MYERS_&_KIRK_SHELMERDINE_&_CREW_13A_EARNHARDT          030.0 00:05:19:24 
*FROM CLIP NAME:  ERN_F1008_NSCR_1990S_RACE B-ROLL POLE DAY CHARLOTTE DESR TRACK PRACTICE W CHOCOLATE MYERS & KIRK SHELMERDINE & CREW_13A_EARNHARDT PRAX 2.NEW.01.COPY.01 
*SOURCE FILE: ERN_F1008_NSCR_1990S_RACE B-ROLL POLE DAY CHARLOTTE DESR TRACK PRACTICE W CHOCOLATE MYERS & KIRK SHELMERDINE & CREW_13A_EARNHARDT PRAX 2
000045  ERN_F9148_NSCR_1983-02_RACE_B-ROLL_ON_FILM_DAYTONA_500-COLOR-DARRELL_WALTRIP_CU_1983-NAS-00064_S001                               V     C        00:11:58:17 00:12:01:00 00:01:13:23 00:01:16:05 
M2      ERN_F9148_NSCR_1983-02_RACE_B-ROLL_ON_FILM_DAYTONA_500-COLOR-DARRELL_WALTRIP_CU_1983-NAS-00064_S001                                        024.0 00:11:58:17 
*FROM CLIP NAME:  ERN_F3000_NSCR_1983_WINSTON CUP-FILM FOOTAGE NO AUDIO DARRELL WALTRIP PRE-RACE B-ROLL FLYBYS PITCREWS NO11 WRECK_1983-NAS-00064_S001.NEW.01 
*SOURCE FILE: ERN_F9148_NSCR_1983-02_RACE B-ROLL ON FILM DAYTONA 500-COLOR-DARRELL WALTRIP CU_1983-NAS-00064_S001
000046  ERN_F0785_NSCR_1986-02-23_RACE_DESR_AND_DARRELL_WALTRIP_CRASH_NASCAR_CUP_SERIES_-_RICHMOND_TNN001790                              A18   C        00:11:04:01 00:11:05:01 00:01:15:20 00:01:16:20 
M2      ERN_F0785_NSCR_1986-02-23_RACE_DESR_AND_DARRELL_WALTRIP_CRASH_NASCAR_CUP_SERIES_-_RICHMOND_TNN001790                                       030.0 00:11:04:01 
*FROM CLIP NAME:  ERN_F0785_NSCR_1986-02-23_RACE DESR AND DARRELL WALTRIP CRASH NASCAR CUP SERIES - RICHMOND_TNN001790.NEW.01 
*SOURCE FILE: ERN_F0785_NSCR_1986-02-23_RACE DESR AND DARRELL WALTRIP CRASH NASCAR CUP SERIES - RICHMOND_TNN001790
000047  ERN_F3091_NSCR_1981_CHARLOTTE_SPEEDWAY_MONTH_OF_SUNDAYS-FILM_FOOTAGE_NO_AUDIO_RACE_B-ROLL_FLYBYS_NO3_DESR_SLOMO_PIT_CREW_DRIVER_A V     C        00:21:45:11 00:21:47:21 00:01:16:05 00:01:18:14 
M2      ERN_F3091_NSCR_1981_CHARLOTTE_SPEEDWAY_MONTH_OF_SUNDAYS-FILM_FOOTAGE_NO_AUDIO_RACE_B-ROLL_FLYBYS_NO3_DESR_SLOMO_PIT_CREW_DRIVER_A          024.0 00:21:45:11 
*FROM CLIP NAME:  ERN_F3091_NSCR_1981_CHARLOTTE SPEEDWAY MONTH OF SUNDAYS-FILM FOOTAGE NO AUDIO RACE B-ROLL FLYBYS NO3 DESR SLOMO PIT CREW DRIVER AWARDS CEREMONY_1981-NAS-00026_S001.NEW.01 
*SOURCE FILE: ERN_F3091_NSCR_1981_CHARLOTTE SPEEDWAY MONTH OF SUNDAYS-FILM FOOTAGE NO AUDIO RACE B-ROLL FLYBYS NO3 DESR SLOMO PIT CREW DRIVER AWARDS CEREMONY_1981-NAS-00026_S001
000048  ERN_F0785_NSCR_1986-02-23_RACE_DESR_AND_DARRELL_WALTRIP_CRASH_NASCAR_CUP_SERIES_-_RICHMOND_TNN001790                              A18   C        00:11:05:01 00:11:05:11 00:01:16:20 00:01:17:04 
M2      ERN_F0785_NSCR_1986-02-23_RACE_DESR_AND_DARRELL_WALTRIP_CRASH_NASCAR_CUP_SERIES_-_RICHMOND_TNN001790                                       030.0 00:11:05:01 
*FROM CLIP NAME:  ERN_F0785_NSCR_1986-02-23_RACE DESR AND DARRELL WALTRIP CRASH NASCAR CUP SERIES - RICHMOND_TNN001790.NEW.01 
*SOURCE FILE: ERN_F0785_NSCR_1986-02-23_RACE DESR AND DARRELL WALTRIP CRASH NASCAR CUP SERIES - RICHMOND_TNN001790
000049  ERN_F0785_NSCR_1986-02-23_RACE_DESR_AND_DARRELL_WALTRIP_CRASH_NASCAR_CUP_SERIES_-_RICHMOND_TNN001790                              A18   C        00:11:05:11 00:11:06:11 00:01:17:04 00:01:18:04 
M2      ERN_F0785_NSCR_1986-02-23_RACE_DESR_AND_DARRELL_WALTRIP_CRASH_NASCAR_CUP_SERIES_-_RICHMOND_TNN001790                                       030.0 00:11:05:11 
*FROM CLIP NAME:  ERN_F0785_NSCR_1986-02-23_RACE DESR AND DARRELL WALTRIP CRASH NASCAR CUP SERIES - RICHMOND_TNN001790.NEW.01 
*TO CLIP NAME:  ERN_F0785_NSCR_1986-02-23_RACE DESR AND DARRELL WALTRIP CRASH NASCAR CUP SERIES - RICHMOND_TNN001790.NEW.01 
*SOURCE FILE: ERN_F0785_NSCR_1986-02-23_RACE DESR AND DARRELL WALTRIP CRASH NASCAR CUP SERIES - RICHMOND_TNN001790
000050  ERN_F0785_NSCR_1986-02-23_RACE_DESR_AND_DARRELL_WALTRIP_CRASH_NASCAR_CUP_SERIES_-_RICHMOND_TNN001790                              A18   C        00:11:06:11 00:11:06:19 00:01:18:04 00:01:18:10 
M2      ERN_F0785_NSCR_1986-02-23_RACE_DESR_AND_DARRELL_WALTRIP_CRASH_NASCAR_CUP_SERIES_-_RICHMOND_TNN001790                                       030.0 00:11:06:11 
*FROM CLIP NAME:  ERN_F0785_NSCR_1986-02-23_RACE DESR AND DARRELL WALTRIP CRASH NASCAR CUP SERIES - RICHMOND_TNN001790.NEW.01 
*SOURCE FILE: ERN_F0785_NSCR_1986-02-23_RACE DESR AND DARRELL WALTRIP CRASH NASCAR CUP SERIES - RICHMOND_TNN001790
000051  ERN_F0785_NSCR_1986-02-23_RACE_DESR_AND_DARRELL_WALTRIP_CRASH_NASCAR_CUP_SERIES_-_RICHMOND_TNN001790                              A18   C        00:11:06:18 00:11:07:09 00:01:18:10 00:01:19:02 
M2      ERN_F0785_NSCR_1986-02-23_RACE_DESR_AND_DARRELL_WALTRIP_CRASH_NASCAR_CUP_SERIES_-_RICHMOND_TNN001790                                       030.0 00:11:06:18 
*FROM CLIP NAME:  ERN_F0785_NSCR_1986-02-23_RACE DESR AND DARRELL WALTRIP CRASH NASCAR CUP SERIES - RICHMOND_TNN001790.NEW.01 
*TO CLIP NAME:  ERN_F0785_NSCR_1986-02-23_RACE DESR AND DARRELL WALTRIP CRASH NASCAR CUP SERIES - RICHMOND_TNN001790.NEW.01 
*SOURCE FILE: ERN_F0785_NSCR_1986-02-23_RACE DESR AND DARRELL WALTRIP CRASH NASCAR CUP SERIES - RICHMOND_TNN001790
000052  ERN_F2996_NSCR_1983_DAYTONA_FILM_FOOTAGE_NO_AUDIO_FAN_B-ROLL_RACE_B-ROLL_FLYBYS_1983-NAS-00066_S001                               V     C        00:03:29:11 00:03:31:23 00:01:18:14 00:01:21:01 
M2      ERN_F2996_NSCR_1983_DAYTONA_FILM_FOOTAGE_NO_AUDIO_FAN_B-ROLL_RACE_B-ROLL_FLYBYS_1983-NAS-00066_S001                                        024.0 00:03:29:11 
*FROM CLIP NAME:  ERN_F2996_NSCR_1983_DAYTONA FILM FOOTAGE NO AUDIO FAN B-ROLL RACE B-ROLL FLYBYS_1983-NAS-00066_S001.NEW.01 
*SOURCE FILE: ERN_F2996_NSCR_1983_DAYTONA FILM FOOTAGE NO AUDIO FAN B-ROLL RACE B-ROLL FLYBYS_1983-NAS-00066_S001
000053  ERN_F0785_NSCR_1986-02-23_RACE_DESR_AND_DARRELL_WALTRIP_CRASH_NASCAR_CUP_SERIES_-_RICHMOND_TNN001790                              A18   C        00:11:07:08 00:11:11:28 00:01:19:02 00:01:23:17 
M2      ERN_F0785_NSCR_1986-02-23_RACE_DESR_AND_DARRELL_WALTRIP_CRASH_NASCAR_CUP_SERIES_-_RICHMOND_TNN001790                                       030.0 00:11:07:08 
*FROM CLIP NAME:  ERN_F0785_NSCR_1986-02-23_RACE DESR AND DARRELL WALTRIP CRASH NASCAR CUP SERIES - RICHMOND_TNN001790.NEW.01 
*SOURCE FILE: ERN_F0785_NSCR_1986-02-23_RACE DESR AND DARRELL WALTRIP CRASH NASCAR CUP SERIES - RICHMOND_TNN001790
000054  ERN_F5081_NSCR_1983-11-20_RIVERSIDE_WESTERN_500-KEN_SQUIER_INTVS_CALE_YARBOROUGH_RACE_BROADCAST_1983-NAS-00058                    V     C        00:19:00:18 00:19:02:21 00:01:21:01 00:01:23:03 
M2      ERN_F5081_NSCR_1983-11-20_RIVERSIDE_WESTERN_500-KEN_SQUIER_INTVS_CALE_YARBOROUGH_RACE_BROADCAST_1983-NAS-00058                             030.0 00:19:00:18 
*FROM CLIP NAME:  ERN_F5081_NSCR_1983-11-20_RIVERSIDE WESTERN 500-KEN SQUIER INTVS CALE YARBOROUGH RACE BROADCAST_1983-NAS-00058.NEW.01 
*SOURCE FILE: ERN_F5081_NSCR_1983-11-20_RIVERSIDE WESTERN 500-KEN SQUIER INTVS CALE YARBOROUGH RACE BROADCAST_1983-NAS-00058
000055  ERN_F0768_NSCR_1981-08-02_RACE_DESR_NASCAR_CUP_SERIES_-_TALLADEGA_(RACE_BEGINNING)_ISC-01270                                      A20   C        01:02:22:06 01:02:23:07 00:01:22:03 00:01:23:03 
M2      ERN_F0768_NSCR_1981-08-02_RACE_DESR_NASCAR_CUP_SERIES_-_TALLADEGA_(RACE_BEGINNING)_ISC-01270                                               030.0 01:02:22:06 
*FROM CLIP NAME:  ERN_F0768_NSCR_1981-08-02_RACE DESR NASCAR CUP SERIES - TALLADEGA (RACE BEGINNING)_ISC-01270.NEW.01 
*SOURCE FILE: ERN_F0768_NSCR_1981-08-02_RACE DESR NASCAR CUP SERIES - TALLADEGA (RACE BEGINNING)_ISC-01270
000056  ERN_F0768_NSCR_1981-08-02_RACE_DESR_NASCAR_CUP_SERIES_-_TALLADEGA_(RACE_BEGINNING)_ISC-01270                                      A20   C        01:02:23:06 01:02:25:05 00:01:23:03 00:01:25:01 
M2      ERN_F0768_NSCR_1981-08-02_RACE_DESR_NASCAR_CUP_SERIES_-_TALLADEGA_(RACE_BEGINNING)_ISC-01270                                               030.0 01:02:23:06 
*FROM CLIP NAME:  ERN_F0768_NSCR_1981-08-02_RACE DESR NASCAR CUP SERIES - TALLADEGA (RACE BEGINNING)_ISC-01270.NEW.01 
*SOURCE FILE: ERN_F0768_NSCR_1981-08-02_RACE DESR NASCAR CUP SERIES - TALLADEGA (RACE BEGINNING)_ISC-01270
000057  ERN_F2992_NSCR_1983_DAYTONA_500_FILM_FOOTAGE_FAN_B-ROLL_NO28_VICTORY_LANE_ROLL-IN_INT_CAR_RACE_FOOTAGE_FLYBYS__1983-NAS-017907-S0 V     C        00:02:03:18 00:02:07:14 00:01:23:03 00:01:26:21 
M2      ERN_F2992_NSCR_1983_DAYTONA_500_FILM_FOOTAGE_FAN_B-ROLL_NO28_VICTORY_LANE_ROLL-IN_INT_CAR_RACE_FOOTAGE_FLYBYS__1983-NAS-017907-S0          024.0 00:02:03:18 
*FROM CLIP NAME:  ERN_F2992_NSCR_1983_DAYTONA 500 FILM FOOTAGE FAN B-ROLL NO28 VICTORY LANE ROLL-IN INT CAR RACE FOOTAGE FLYBYS _1983-NAS-017907-S001.NEW.01 
*SOURCE FILE: ERN_F2992_NSCR_1983_DAYTONA 500 FILM FOOTAGE FAN B-ROLL NO28 VICTORY LANE ROLL-IN INT CAR RACE FOOTAGE FLYBYS _1983-NAS-017907-S001
000058  ERN_F0768_NSCR_1981-08-02_RACE_DESR_NASCAR_CUP_SERIES_-_TALLADEGA_(RACE_BEGINNING)_ISC-01270                                      A20   C        01:02:25:04 01:02:26:20 00:01:25:01 00:01:26:13 
M2      ERN_F0768_NSCR_1981-08-02_RACE_DESR_NASCAR_CUP_SERIES_-_TALLADEGA_(RACE_BEGINNING)_ISC-01270                                               030.0 01:02:25:04 
*FROM CLIP NAME:  ERN_F0768_NSCR_1981-08-02_RACE DESR NASCAR CUP SERIES - TALLADEGA (RACE BEGINNING)_ISC-01270.NEW.01 
*TO CLIP NAME:  ERN_F0768_NSCR_1981-08-02_RACE DESR NASCAR CUP SERIES - TALLADEGA (RACE BEGINNING)_ISC-01270.NEW.01 
*SOURCE FILE: ERN_F0768_NSCR_1981-08-02_RACE DESR NASCAR CUP SERIES - TALLADEGA (RACE BEGINNING)_ISC-01270
000059  ERN_F1090_NSCR_1986-02-23_RACE_B-ROLL_RICHMOND_MILLER_HIGH_LIFE_400_DESR_NO3_GRANDSTAND_SCENES_&_BILL_ELLIOTT_CRASH_86-EV-0339    A24   C        00:13:21:12 00:13:22:28 00:01:26:12 00:01:28:00 
M2      ERN_F1090_NSCR_1986-02-23_RACE_B-ROLL_RICHMOND_MILLER_HIGH_LIFE_400_DESR_NO3_GRANDSTAND_SCENES_&_BILL_ELLIOTT_CRASH_86-EV-0339             030.0 00:13:21:12 
*FROM CLIP NAME:  ERN_F1090_NSCR_1986-02-23_RACE B-ROLL RICHMOND MILLER HIGH LIFE 400 DESR NO3 GRANDSTAND SCENES & BILL ELLIOTT CRASH_86-EV-0339.NEW.01.COPY.01 
*SOURCE FILE: ERN_F1090_NSCR_1986-02-23_RACE B-ROLL RICHMOND MILLER HIGH LIFE 400 DESR NO3 GRANDSTAND SCENES & BILL ELLIOTT CRASH_86-EV-0339
000060  ERN_F0768_NSCR_1981-08-02_RACE_DESR_NASCAR_CUP_SERIES_-_TALLADEGA_(RACE_BEGINNING)_ISC-01270                                      A20   C        01:02:26:19 01:02:26:25 00:01:26:13 00:01:26:17 
M2      ERN_F0768_NSCR_1981-08-02_RACE_DESR_NASCAR_CUP_SERIES_-_TALLADEGA_(RACE_BEGINNING)_ISC-01270                                               030.0 01:02:26:19 
*FROM CLIP NAME:  ERN_F0768_NSCR_1981-08-02_RACE DESR NASCAR CUP SERIES - TALLADEGA (RACE BEGINNING)_ISC-01270.NEW.01 
*SOURCE FILE: ERN_F0768_NSCR_1981-08-02_RACE DESR NASCAR CUP SERIES - TALLADEGA (RACE BEGINNING)_ISC-01270
000061  ERN_F0653_NSCR_1990-01-04_DESR_RACE_NASCAR_CUP_SERIES_-_DARLINGTON_90-EV-0664                                                     A22   C        01:08:28:21 01:08:30:02 00:01:26:14 00:01:27:22 
M2      ERN_F0653_NSCR_1990-01-04_DESR_RACE_NASCAR_CUP_SERIES_-_DARLINGTON_90-EV-0664                                                              030.0 01:08:28:21 
*FROM CLIP NAME:  ERN_F0653_NSCR_1990-01-04_DESR RACE NASCAR CUP SERIES - DARLINGTON_90-EV-0664.NEW.01 
*SOURCE FILE: ERN_F0653_NSCR_1990-01-04_DESR RACE NASCAR CUP SERIES - DARLINGTON_90-EV-0664
000062  ERN_F2992_NSCR_1983_DAYTONA_500_FILM_FOOTAGE_FAN_B-ROLL_NO28_VICTORY_LANE_ROLL-IN_INT_CAR_RACE_FOOTAGE_FLYBYS__1983-NAS-017907-S0 V     C        00:02:07:13 00:02:07:22 00:01:26:21 00:01:27:03 
M2      ERN_F2992_NSCR_1983_DAYTONA_500_FILM_FOOTAGE_FAN_B-ROLL_NO28_VICTORY_LANE_ROLL-IN_INT_CAR_RACE_FOOTAGE_FLYBYS__1983-NAS-017907-S0          042.0 00:02:07:13 
*FROM CLIP NAME:  ERN_F2992_NSCR_1983_DAYTONA 500 FILM FOOTAGE FAN B-ROLL NO28 VICTORY LANE ROLL-IN INT CAR RACE FOOTAGE FLYBYS _1983-NAS-017907-S001.NEW.01 
*SOURCE FILE: ERN_F2992_NSCR_1983_DAYTONA 500 FILM FOOTAGE FAN B-ROLL NO28 VICTORY LANE ROLL-IN INT CAR RACE FOOTAGE FLYBYS _1983-NAS-017907-S001
000063  ERN_F9629_XXXX_1960S_ONLINE_COMP_TOP_TEN_FLIPS_OF_THE_1960S_YOUTUBE                                                               A18   C        00:03:48:22 00:03:50:08 00:01:26:22 00:01:28:10 
M2      ERN_F9629_XXXX_1960S_ONLINE_COMP_TOP_TEN_FLIPS_OF_THE_1960S_YOUTUBE                                                                        030.0 00:03:48:22 
*FROM CLIP NAME:  ERN_F9629_XXXX_1960S_ONLINE COMP TOP TEN FLIPS OF THE 1960S_YOUTUBE.NEW.01 
*SOURCE FILE: ERN_F9629_XXXX_1960S_ONLINE COMP TOP TEN FLIPS OF THE 1960S_YOUTUBE
000064  ERN_F3077_NSCR_1974-09-02_25TH_SOUTHERN_500-FILM_FOOTAGE_QUIRKY_DARLINGTON_PACKAGE_CLASSIC_70S_NARRATION_PARADE_BEAUTY_PAGEANT_RA V     C        00:09:38:08 00:09:39:12 00:01:27:03 00:01:28:06 
M2      ERN_F3077_NSCR_1974-09-02_25TH_SOUTHERN_500-FILM_FOOTAGE_QUIRKY_DARLINGTON_PACKAGE_CLASSIC_70S_NARRATION_PARADE_BEAUTY_PAGEANT_RA          024.0 00:09:38:08 
*FROM CLIP NAME:  ERN_F3077_NSCR_1974-09-02_25TH SOUTHERN 500-FILM FOOTAGE QUIRKY DARLINGTON PACKAGE CLASSIC 70S NARRATION PARADE BEAUTY PAGEANT RACE RECAP _1974-NAS-00002_S001.NEW.01 
*SOURCE FILE: ERN_F3077_NSCR_1974-09-02_25TH SOUTHERN 500-FILM FOOTAGE QUIRKY DARLINGTON PACKAGE CLASSIC 70S NARRATION PARADE BEAUTY PAGEANT RACE RECAP _1974-NAS-00002_S001
000065  ERN_F9411_XXXX_1956_RACE_JUNIOR_JOHNSON_FLIP_@_DAYTONA_BEACH_YOUTUBE                                                              A20   C        00:00:28:15 00:00:29:15 00:01:27:18 00:01:28:18 
M2      ERN_F9411_XXXX_1956_RACE_JUNIOR_JOHNSON_FLIP_@_DAYTONA_BEACH_YOUTUBE                                                                       030.0 00:00:28:15 
*FROM CLIP NAME:  ERN_F9411_XXXX_1956_RACE JUNIOR JOHNSON FLIP @ DAYTONA BEACH_YOUTUBE.NEW.01 
*SOURCE FILE: ERN_F9411_XXXX_1956_RACE JUNIOR JOHNSON FLIP @ DAYTONA BEACH_YOUTUBE
000066  ERN_F0653_NSCR_1990-01-04_DESR_RACE_NASCAR_CUP_SERIES_-_DARLINGTON_90-EV-0664                                                     A22   C        01:08:30:25 01:08:31:25 00:01:27:22 00:01:28:22 
M2      ERN_F0653_NSCR_1990-01-04_DESR_RACE_NASCAR_CUP_SERIES_-_DARLINGTON_90-EV-0664                                                              030.0 01:08:30:25 
*FROM CLIP NAME:  ERN_F0653_NSCR_1990-01-04_DESR RACE NASCAR CUP SERIES - DARLINGTON_90-EV-0664.NEW.01 
*TO CLIP NAME:  ERN_F0653_NSCR_1990-01-04_DESR RACE NASCAR CUP SERIES - DARLINGTON_90-EV-0664.NEW.01 
*SOURCE FILE: ERN_F0653_NSCR_1990-01-04_DESR RACE NASCAR CUP SERIES - DARLINGTON_90-EV-0664
000067  ERN_F1090_NSCR_1986-02-23_RACE_B-ROLL_RICHMOND_MILLER_HIGH_LIFE_400_DESR_NO3_GRANDSTAND_SCENES_&_BILL_ELLIOTT_CRASH_86-EV-0339    A24   C        00:13:22:27 00:13:25:24 00:01:28:00 00:01:30:21 
M2      ERN_F1090_NSCR_1986-02-23_RACE_B-ROLL_RICHMOND_MILLER_HIGH_LIFE_400_DESR_NO3_GRANDSTAND_SCENES_&_BILL_ELLIOTT_CRASH_86-EV-0339             030.0 00:13:22:27 
*FROM CLIP NAME:  ERN_F1090_NSCR_1986-02-23_RACE B-ROLL RICHMOND MILLER HIGH LIFE 400 DESR NO3 GRANDSTAND SCENES & BILL ELLIOTT CRASH_86-EV-0339.NEW.01.COPY.01 
*SOURCE FILE: ERN_F1090_NSCR_1986-02-23_RACE B-ROLL RICHMOND MILLER HIGH LIFE 400 DESR NO3 GRANDSTAND SCENES & BILL ELLIOTT CRASH_86-EV-0339
000068  ERN_F9629_XXXX_1960S_ONLINE_COMP_TOP_TEN_FLIPS_OF_THE_1960S_YOUTUBE                                                               V     C        00:03:50:02 00:03:51:09 00:01:28:06 00:01:29:11 
M2      ERN_F9629_XXXX_1960S_ONLINE_COMP_TOP_TEN_FLIPS_OF_THE_1960S_YOUTUBE                                                                        030.0 00:03:50:02 
*FROM CLIP NAME:  ERN_F9629_XXXX_1960S_ONLINE COMP TOP TEN FLIPS OF THE 1960S_YOUTUBE.NEW.01 
*SOURCE FILE: ERN_F9629_XXXX_1960S_ONLINE COMP TOP TEN FLIPS OF THE 1960S_YOUTUBE
000069  ERN_F9629_XXXX_1960S_ONLINE_COMP_TOP_TEN_FLIPS_OF_THE_1960S_YOUTUBE                                                               A18   C        00:03:50:07 00:03:50:18 00:01:28:10 00:01:28:18 
M2      ERN_F9629_XXXX_1960S_ONLINE_COMP_TOP_TEN_FLIPS_OF_THE_1960S_YOUTUBE                                                                        030.0 00:03:50:07 
*FROM CLIP NAME:  ERN_F9629_XXXX_1960S_ONLINE COMP TOP TEN FLIPS OF THE 1960S_YOUTUBE.NEW.01 
*SOURCE FILE: ERN_F9629_XXXX_1960S_ONLINE COMP TOP TEN FLIPS OF THE 1960S_YOUTUBE
000070  ERN_F0653_NSCR_1990-01-04_DESR_RACE_NASCAR_CUP_SERIES_-_DARLINGTON_90-EV-0664                                                     A22   C        01:08:31:25 01:08:33:24 00:01:28:22 00:01:30:21 
M2      ERN_F0653_NSCR_1990-01-04_DESR_RACE_NASCAR_CUP_SERIES_-_DARLINGTON_90-EV-0664                                                              030.0 01:08:31:25 
*FROM CLIP NAME:  ERN_F0653_NSCR_1990-01-04_DESR RACE NASCAR CUP SERIES - DARLINGTON_90-EV-0664.NEW.01 
*SOURCE FILE: ERN_F0653_NSCR_1990-01-04_DESR RACE NASCAR CUP SERIES - DARLINGTON_90-EV-0664
000071  ERN_F0700_NSCR_1993-02-14_RACE_DESR_LOSS_TO_DALE_JARRETT_JEFF_GORDON_NASCAR_CUP_SERIES_-_DAYTONA_500_ISC-00203                    V     C        00:15:17:29 00:15:19:27 00:01:29:11 00:01:31:09 
M2      ERN_F0700_NSCR_1993-02-14_RACE_DESR_LOSS_TO_DALE_JARRETT_JEFF_GORDON_NASCAR_CUP_SERIES_-_DAYTONA_500_ISC-00203                             030.0 00:15:17:29 
*FROM CLIP NAME:  ERN_F0700_NSCR_1993-02-14_RACE DESR LOSS TO DALE JARRETT JEFF GORDON NASCAR CUP SERIES - DAYTONA 500_ISC-00203.NEW.01 
*SOURCE FILE: ERN_F0700_NSCR_1993-02-14_RACE DESR LOSS TO DALE JARRETT JEFF GORDON NASCAR CUP SERIES - DAYTONA 500_ISC-00203
000072  ERN_F1084_NSCR_2001-02-18_2_OF_3_RACE_DAYTONA_500_BROADCAST_DESR_DEADLY_CRASH_01-EV-0112_TAPE_2                                   A26   C        11:10:12:12 11:10:13:24 00:01:29:14 00:01:30:23 
M2      ERN_F1084_NSCR_2001-02-18_2_OF_3_RACE_DAYTONA_500_BROADCAST_DESR_DEADLY_CRASH_01-EV-0112_TAPE_2                                            030.0 11:10:12:12 
*FROM CLIP NAME:  ERN_F1084_NSCR_2001-02-18_2 OF 3 RACE DAYTONA 500 BROADCAST DESR DEADLY CRASH_01-EV-0112_TAPE_2.NEW.01 
*SOURCE FILE: ERN_F1084_NSCR_2001-02-18_2 OF 3 RACE DAYTONA 500 BROADCAST DESR DEADLY CRASH_01-EV-0112_TAPE_2
000073  ERN_F1084_NSCR_2001-02-18_2_OF_3_RACE_DAYTONA_500_BROADCAST_DESR_DEADLY_CRASH_01-EV-0112_TAPE_2                                   A18   C        11:10:13:29 11:10:14:13 00:01:30:10 00:01:30:21 
M2      ERN_F1084_NSCR_2001-02-18_2_OF_3_RACE_DAYTONA_500_BROADCAST_DESR_DEADLY_CRASH_01-EV-0112_TAPE_2                                            030.0 11:10:13:29 
*FROM CLIP NAME:  ERN_F1084_NSCR_2001-02-18_2 OF 3 RACE DAYTONA 500 BROADCAST DESR DEADLY CRASH_01-EV-0112_TAPE_2.NEW.01 
*SOURCE FILE: ERN_F1084_NSCR_2001-02-18_2 OF 3 RACE DAYTONA 500 BROADCAST DESR DEADLY CRASH_01-EV-0112_TAPE_2
000074  ERN_F0653_NSCR_1990-01-04_DESR_RACE_NASCAR_CUP_SERIES_-_DARLINGTON_90-EV-0664                                                     A22   C        01:08:33:23 01:08:34:24 00:01:30:21 00:01:31:21 
M2      ERN_F0653_NSCR_1990-01-04_DESR_RACE_NASCAR_CUP_SERIES_-_DARLINGTON_90-EV-0664                                                              030.0 01:08:33:23 
*FROM CLIP NAME:  ERN_F0653_NSCR_1990-01-04_DESR RACE NASCAR CUP SERIES - DARLINGTON_90-EV-0664.NEW.01 
*TO CLIP NAME:  ERN_F0653_NSCR_1990-01-04_DESR RACE NASCAR CUP SERIES - DARLINGTON_90-EV-0664.NEW.01 
*SOURCE FILE: ERN_F0653_NSCR_1990-01-04_DESR RACE NASCAR CUP SERIES - DARLINGTON_90-EV-0664
000075  ERN_F1090_NSCR_1986-02-23_RACE_B-ROLL_RICHMOND_MILLER_HIGH_LIFE_400_DESR_NO3_GRANDSTAND_SCENES_&_BILL_ELLIOTT_CRASH_86-EV-0339    A24   C        00:13:25:23 00:13:26:24 00:01:30:21 00:01:31:21 
M2      ERN_F1090_NSCR_1986-02-23_RACE_B-ROLL_RICHMOND_MILLER_HIGH_LIFE_400_DESR_NO3_GRANDSTAND_SCENES_&_BILL_ELLIOTT_CRASH_86-EV-0339             030.0 00:13:25:23 
*FROM CLIP NAME:  ERN_F1090_NSCR_1986-02-23_RACE B-ROLL RICHMOND MILLER HIGH LIFE 400 DESR NO3 GRANDSTAND SCENES & BILL ELLIOTT CRASH_86-EV-0339.NEW.01.COPY.01 
*TO CLIP NAME:  ERN_F1090_NSCR_1986-02-23_RACE B-ROLL RICHMOND MILLER HIGH LIFE 400 DESR NO3 GRANDSTAND SCENES & BILL ELLIOTT CRASH_86-EV-0339.NEW.01.COPY.01 
*SOURCE FILE: ERN_F1090_NSCR_1986-02-23_RACE B-ROLL RICHMOND MILLER HIGH LIFE 400 DESR NO3 GRANDSTAND SCENES & BILL ELLIOTT CRASH_86-EV-0339
000076  ERN_F2913_NSCR_1989-11-19_RACE_&_B-ROLL_ON_FILM_ATLANTA_JOURNAL_500_RUSTY_WALLACE_WC_CHAMPION_1989-NAS-00151_S001                 V     C        00:04:10:22 00:04:12:22 00:01:31:09 00:01:33:00 
M2      ERN_F2913_NSCR_1989-11-19_RACE_&_B-ROLL_ON_FILM_ATLANTA_JOURNAL_500_RUSTY_WALLACE_WC_CHAMPION_1989-NAS-00151_S001                          030.0 00:04:10:22 
*FROM CLIP NAME:  ERN_F2913_NSCR_1989-11-19_RACE & B-ROLL ON FILM ATLANTA JOURNAL 500 RUSTY WALLACE WC CHAMPION_1989-NAS-00151_S001.NEW.01 
*SOURCE FILE: ERN_F2913_NSCR_1989-11-19_RACE & B-ROLL ON FILM ATLANTA JOURNAL 500 RUSTY WALLACE WC CHAMPION_1989-NAS-00151_S001
000077  ERN_F0653_NSCR_1990-01-04_DESR_RACE_NASCAR_CUP_SERIES_-_DARLINGTON_90-EV-0664                                                     A22   C        01:08:34:23 01:08:36:00 00:01:31:21 00:01:33:02 
M2      ERN_F0653_NSCR_1990-01-04_DESR_RACE_NASCAR_CUP_SERIES_-_DARLINGTON_90-EV-0664                                                              030.0 01:08:34:23 
*FROM CLIP NAME:  ERN_F0653_NSCR_1990-01-04_DESR RACE NASCAR CUP SERIES - DARLINGTON_90-EV-0664.NEW.01 
*SOURCE FILE: ERN_F0653_NSCR_1990-01-04_DESR RACE NASCAR CUP SERIES - DARLINGTON_90-EV-0664
000078  ERN_F1090_NSCR_1986-02-23_RACE_B-ROLL_RICHMOND_MILLER_HIGH_LIFE_400_DESR_NO3_GRANDSTAND_SCENES_&_BILL_ELLIOTT_CRASH_86-EV-0339    A24   C        00:13:26:23 00:13:28:22 00:01:31:21 00:01:33:19 
M2      ERN_F1090_NSCR_1986-02-23_RACE_B-ROLL_RICHMOND_MILLER_HIGH_LIFE_400_DESR_NO3_GRANDSTAND_SCENES_&_BILL_ELLIOTT_CRASH_86-EV-0339             030.0 00:13:26:23 
*FROM CLIP NAME:  ERN_F1090_NSCR_1986-02-23_RACE B-ROLL RICHMOND MILLER HIGH LIFE 400 DESR NO3 GRANDSTAND SCENES & BILL ELLIOTT CRASH_86-EV-0339.NEW.01.COPY.01 
*SOURCE FILE: ERN_F1090_NSCR_1986-02-23_RACE B-ROLL RICHMOND MILLER HIGH LIFE 400 DESR NO3 GRANDSTAND SCENES & BILL ELLIOTT CRASH_86-EV-0339
000079  ERN_F9412_XXXX_1950S_RACE_NASCAR_FLIP_COMPILATION_YOUTUBE                                                                         V     C        00:03:01:17 00:03:03:08 00:01:33:00 00:01:34:16 
M2      ERN_F9412_XXXX_1950S_RACE_NASCAR_FLIP_COMPILATION_YOUTUBE                                                                                  030.0 00:03:01:17 
*FROM CLIP NAME:  ERN_F9412_XXXX_1950S_RACE NASCAR FLIP COMPILATION_YOUTUBE.NEW.01 
*SOURCE FILE: ERN_F9412_XXXX_1950S_RACE NASCAR FLIP COMPILATION_YOUTUBE
000080  ERN_F1090_NSCR_1986-02-23_RACE_B-ROLL_RICHMOND_MILLER_HIGH_LIFE_400_DESR_NO3_GRANDSTAND_SCENES_&_BILL_ELLIOTT_CRASH_86-EV-0339    A24   C        00:13:28:21 00:13:30:22 00:01:33:19 00:01:35:19 
M2      ERN_F1090_NSCR_1986-02-23_RACE_B-ROLL_RICHMOND_MILLER_HIGH_LIFE_400_DESR_NO3_GRANDSTAND_SCENES_&_BILL_ELLIOTT_CRASH_86-EV-0339             030.0 00:13:28:21 
*FROM CLIP NAME:  ERN_F1090_NSCR_1986-02-23_RACE B-ROLL RICHMOND MILLER HIGH LIFE 400 DESR NO3 GRANDSTAND SCENES & BILL ELLIOTT CRASH_86-EV-0339.NEW.01.COPY.01 
*TO CLIP NAME:  ERN_F1090_NSCR_1986-02-23_RACE B-ROLL RICHMOND MILLER HIGH LIFE 400 DESR NO3 GRANDSTAND SCENES & BILL ELLIOTT CRASH_86-EV-0339.NEW.01.COPY.01 
*SOURCE FILE: ERN_F1090_NSCR_1986-02-23_RACE B-ROLL RICHMOND MILLER HIGH LIFE 400 DESR NO3 GRANDSTAND SCENES & BILL ELLIOTT CRASH_86-EV-0339
000081  ERN_F9412_XXXX_1950S_RACE_NASCAR_FLIP_COMPILATION_YOUTUBE                                                                         V     C        00:03:03:26 00:03:05:19 00:01:34:16 00:01:36:10 
M2      ERN_F9412_XXXX_1950S_RACE_NASCAR_FLIP_COMPILATION_YOUTUBE                                                                                  030.0 00:03:03:26 
*FROM CLIP NAME:  ERN_F9412_XXXX_1950S_RACE NASCAR FLIP COMPILATION_YOUTUBE.NEW.01 
*SOURCE FILE: ERN_F9412_XXXX_1950S_RACE NASCAR FLIP COMPILATION_YOUTUBE
000082  ERN_F1090_NSCR_1986-02-23_RACE_B-ROLL_RICHMOND_MILLER_HIGH_LIFE_400_DESR_NO3_GRANDSTAND_SCENES_&_BILL_ELLIOTT_CRASH_86-EV-0339    A24   C        00:13:30:21 00:13:37:02 00:01:35:19 00:01:42:03 
M2      ERN_F1090_NSCR_1986-02-23_RACE_B-ROLL_RICHMOND_MILLER_HIGH_LIFE_400_DESR_NO3_GRANDSTAND_SCENES_&_BILL_ELLIOTT_CRASH_86-EV-0339             030.0 00:13:30:21 
*FROM CLIP NAME:  ERN_F1090_NSCR_1986-02-23_RACE B-ROLL RICHMOND MILLER HIGH LIFE 400 DESR NO3 GRANDSTAND SCENES & BILL ELLIOTT CRASH_86-EV-0339.NEW.01.COPY.01 
*SOURCE FILE: ERN_F1090_NSCR_1986-02-23_RACE B-ROLL RICHMOND MILLER HIGH LIFE 400 DESR NO3 GRANDSTAND SCENES & BILL ELLIOTT CRASH_86-EV-0339
000083  ERN_F8696_NSCR_1991-07-06_2_OF_3_RACE_BROADCAST_DAYTONA_PEPSI_400_DESR_IN_LEAD_91-EV-0358B                                        V     C        13:07:17:25 13:07:19:24 00:01:36:10 00:01:38:08 
M2      ERN_F8696_NSCR_1991-07-06_2_OF_3_RACE_BROADCAST_DAYTONA_PEPSI_400_DESR_IN_LEAD_91-EV-0358B                                                 030.0 13:07:17:25 
*FROM CLIP NAME:  ERN_F8696_NSCR_1991-07-06_2 OF 3 RACE BROADCAST DAYTONA PEPSI 400 DESR IN LEAD_91-EV-0358B.NEW.01 
*SOURCE FILE: ERN_F8696_NSCR_1991-07-06_2 OF 3 RACE BROADCAST DAYTONA PEPSI 400 DESR IN LEAD_91-EV-0358B
000084  ERN_F0641_NSCR_1989-11-19_DESR_RACE_RUSTY_WALLACE_NASCAR_CUP_SERIES_-_ATLANTA_89-EV-0708                                          V     C        15:12:30:25 15:12:32:27 00:01:38:08 00:01:40:09 
M2      ERN_F0641_NSCR_1989-11-19_DESR_RACE_RUSTY_WALLACE_NASCAR_CUP_SERIES_-_ATLANTA_89-EV-0708                                                   030.0 15:12:30:25 
*FROM CLIP NAME:  ERN_F0641_NSCR_1989-11-19_DESR RACE RUSTY WALLACE NASCAR CUP SERIES - ATLANTA_89-EV-0708.NEW.01 
*SOURCE FILE: ERN_F0641_NSCR_1989-11-19_DESR RACE RUSTY WALLACE NASCAR CUP SERIES - ATLANTA_89-EV-0708
000085  ERN_F0757_NSCR_1988-02-14_RACE_DESR_NASCAR_CUP_SERIES_-_DAYTONA_500_88-EV-0044                                                    V     C        02:05:56:26 02:06:00:09 00:01:40:09 00:01:43:19 
M2      ERN_F0757_NSCR_1988-02-14_RACE_DESR_NASCAR_CUP_SERIES_-_DAYTONA_500_88-EV-0044                                                             030.0 02:05:56:26 
*FROM CLIP NAME:  ERN_F0757_NSCR_1988-02-14_RACE DESR NASCAR CUP SERIES - DAYTONA 500_88-EV-0044.NEW.01 
*SOURCE FILE: ERN_F0757_NSCR_1988-02-14_RACE DESR NASCAR CUP SERIES - DAYTONA 500_88-EV-0044
000086  ERN_F0768_NSCR_1981-08-02_RACE_DESR_NASCAR_CUP_SERIES_-_TALLADEGA_(RACE_BEGINNING)_ISC-01270                                      A22   C        01:02:22:06 01:02:23:07 00:01:42:21 00:01:43:21 
M2      ERN_F0768_NSCR_1981-08-02_RACE_DESR_NASCAR_CUP_SERIES_-_TALLADEGA_(RACE_BEGINNING)_ISC-01270                                               030.0 01:02:22:06 
*FROM CLIP NAME:  ERN_F0768_NSCR_1981-08-02_RACE DESR NASCAR CUP SERIES - TALLADEGA (RACE BEGINNING)_ISC-01270.NEW.01 
*SOURCE FILE: ERN_F0768_NSCR_1981-08-02_RACE DESR NASCAR CUP SERIES - TALLADEGA (RACE BEGINNING)_ISC-01270
000087  ERN_F9783_NSCR_1986-06-15_2_OF_4_RACE_BROADCAST_MICHIGAN_MILLER_400_ISC-00488_S002                                                V     C        01:10:53:18 01:10:57:02 00:01:43:19 00:01:46:16 
M2      ERN_F9783_NSCR_1986-06-15_2_OF_4_RACE_BROADCAST_MICHIGAN_MILLER_400_ISC-00488_S002                                                         036.0 01:10:53:18 
*FROM CLIP NAME:  ERN_F9783_NSCR_1986-06-15_2 OF 4 RACE BROADCAST MICHIGAN MILLER 400_ISC-00488_S002.NEW.01 
*SOURCE FILE: ERN_F9783_NSCR_1986-06-15_2 OF 4 RACE BROADCAST MICHIGAN MILLER 400_ISC-00488_S002
000088  ERN_F0768_NSCR_1981-08-02_RACE_DESR_NASCAR_CUP_SERIES_-_TALLADEGA_(RACE_BEGINNING)_ISC-01270                                      A22   C        01:02:23:06 01:02:25:16 00:01:43:21 00:01:46:04 
M2      ERN_F0768_NSCR_1981-08-02_RACE_DESR_NASCAR_CUP_SERIES_-_TALLADEGA_(RACE_BEGINNING)_ISC-01270                                               030.0 01:02:23:06 
*FROM CLIP NAME:  ERN_F0768_NSCR_1981-08-02_RACE DESR NASCAR CUP SERIES - TALLADEGA (RACE BEGINNING)_ISC-01270.NEW.01 
*SOURCE FILE: ERN_F0768_NSCR_1981-08-02_RACE DESR NASCAR CUP SERIES - TALLADEGA (RACE BEGINNING)_ISC-01270
000089  ERN_F6195_NSCR_1985-02-17_RACE_B-ROLL_DAYTONA_500_BILL_ELLIOTT_WINNER_85-EV-0012_S001                                             A18   C        00:16:10:11 00:16:11:12 00:01:45:17 00:01:46:17 
M2      ERN_F6195_NSCR_1985-02-17_RACE_B-ROLL_DAYTONA_500_BILL_ELLIOTT_WINNER_85-EV-0012_S001                                                      030.0 00:16:10:11 
*FROM CLIP NAME:  ERN_F6195_NSCR_1985-02-17_RACE B-ROLL DAYTONA 500 BILL ELLIOTT WINNER_85-EV-0012_S001.NEW.01 
*SOURCE FILE: ERN_F6195_NSCR_1985-02-17_RACE B-ROLL DAYTONA 500 BILL ELLIOTT WINNER_85-EV-0012_S001
000090  ERN_F0768_NSCR_1981-08-02_RACE_DESR_NASCAR_CUP_SERIES_-_TALLADEGA_(RACE_BEGINNING)_ISC-01270                                      A22   C        01:02:25:15 01:02:27:01 00:01:46:04 00:01:47:16 
M2      ERN_F0768_NSCR_1981-08-02_RACE_DESR_NASCAR_CUP_SERIES_-_TALLADEGA_(RACE_BEGINNING)_ISC-01270                                               030.0 01:02:25:15 
*FROM CLIP NAME:  ERN_F0768_NSCR_1981-08-02_RACE DESR NASCAR CUP SERIES - TALLADEGA (RACE BEGINNING)_ISC-01270.NEW.01 
*TO CLIP NAME:  ERN_F0768_NSCR_1981-08-02_RACE DESR NASCAR CUP SERIES - TALLADEGA (RACE BEGINNING)_ISC-01270.NEW.01 
*SOURCE FILE: ERN_F0768_NSCR_1981-08-02_RACE DESR NASCAR CUP SERIES - TALLADEGA (RACE BEGINNING)_ISC-01270
000091  ERN_F2913_NSCR_1989-11-19_RACE_&_B-ROLL_ON_FILM_ATLANTA_JOURNAL_500_RUSTY_WALLACE_WC_CHAMPION_1989-NAS-00151_S001                 V     C        00:01:56:09 00:01:58:10 00:01:46:16 00:01:48:16 
M2      ERN_F2913_NSCR_1989-11-19_RACE_&_B-ROLL_ON_FILM_ATLANTA_JOURNAL_500_RUSTY_WALLACE_WC_CHAMPION_1989-NAS-00151_S001                          024.0 00:01:56:09 
*FROM CLIP NAME:  ERN_F2913_NSCR_1989-11-19_RACE & B-ROLL ON FILM ATLANTA JOURNAL 500 RUSTY WALLACE WC CHAMPION_1989-NAS-00151_S001.NEW.01 
*SOURCE FILE: ERN_F2913_NSCR_1989-11-19_RACE & B-ROLL ON FILM ATLANTA JOURNAL 500 RUSTY WALLACE WC CHAMPION_1989-NAS-00151_S001
000092  ERN_F6195_NSCR_1985-02-17_RACE_B-ROLL_DAYTONA_500_BILL_ELLIOTT_WINNER_85-EV-0012_S001                                             A18   C        00:16:11:11 00:16:12:12 00:01:46:17 00:01:47:17 
M2      ERN_F6195_NSCR_1985-02-17_RACE_B-ROLL_DAYTONA_500_BILL_ELLIOTT_WINNER_85-EV-0012_S001                                                      030.0 00:16:11:11 
*FROM CLIP NAME:  ERN_F6195_NSCR_1985-02-17_RACE B-ROLL DAYTONA 500 BILL ELLIOTT WINNER_85-EV-0012_S001.NEW.01 
*SOURCE FILE: ERN_F6195_NSCR_1985-02-17_RACE B-ROLL DAYTONA 500 BILL ELLIOTT WINNER_85-EV-0012_S001
000093  ERN_F0800_NSCR_1987-05-17_RACE_DESR_WINNER_BILL_ELLIOTT_CHARLOTTE_-_THE_WINSTON_87-EV-0287                                        A24   C        00:50:26:11 00:50:28:12 00:01:47:00 00:01:49:00 
M2      ERN_F0800_NSCR_1987-05-17_RACE_DESR_WINNER_BILL_ELLIOTT_CHARLOTTE_-_THE_WINSTON_87-EV-0287                                                 030.0 00:50:26:11 
*FROM CLIP NAME:  ERN_F0800_NSCR_1987-05-17_RACE DESR WINNER BILL ELLIOTT CHARLOTTE - THE WINSTON_87-EV-0287.NEW.01 
*SOURCE FILE: ERN_F0800_NSCR_1987-05-17_RACE DESR WINNER BILL ELLIOTT CHARLOTTE - THE WINSTON_87-EV-0287
000094  ERN_F6195_NSCR_1985-02-17_RACE_B-ROLL_DAYTONA_500_BILL_ELLIOTT_WINNER_85-EV-0012_S001                                             A20   C        00:16:12:24 00:16:14:02 00:01:47:04 00:01:48:10 
M2      ERN_F6195_NSCR_1985-02-17_RACE_B-ROLL_DAYTONA_500_BILL_ELLIOTT_WINNER_85-EV-0012_S001                                                      030.0 00:16:12:24 
*FROM CLIP NAME:  ERN_F6195_NSCR_1985-02-17_RACE B-ROLL DAYTONA 500 BILL ELLIOTT WINNER_85-EV-0012_S001.NEW.01 
*SOURCE FILE: ERN_F6195_NSCR_1985-02-17_RACE B-ROLL DAYTONA 500 BILL ELLIOTT WINNER_85-EV-0012_S001
000095  ERN_F0768_NSCR_1981-08-02_RACE_DESR_NASCAR_CUP_SERIES_-_TALLADEGA_(RACE_BEGINNING)_ISC-01270                                      A22   C        01:02:27:00 01:02:28:08 00:01:47:16 00:01:48:22 
M2      ERN_F0768_NSCR_1981-08-02_RACE_DESR_NASCAR_CUP_SERIES_-_TALLADEGA_(RACE_BEGINNING)_ISC-01270                                               030.0 01:02:27:00 
*FROM CLIP NAME:  ERN_F0768_NSCR_1981-08-02_RACE DESR NASCAR CUP SERIES - TALLADEGA (RACE BEGINNING)_ISC-01270.NEW.01 
*SOURCE FILE: ERN_F0768_NSCR_1981-08-02_RACE DESR NASCAR CUP SERIES - TALLADEGA (RACE BEGINNING)_ISC-01270
000096  ERN_F6195_NSCR_1985-02-17_RACE_B-ROLL_DAYTONA_500_BILL_ELLIOTT_WINNER_85-EV-0012_S001                                             A18   C        00:16:14:01 00:16:14:17 00:01:47:17 00:01:48:05 
M2      ERN_F6195_NSCR_1985-02-17_RACE_B-ROLL_DAYTONA_500_BILL_ELLIOTT_WINNER_85-EV-0012_S001                                                      030.0 00:16:14:01 
*FROM CLIP NAME:  ERN_F6195_NSCR_1985-02-17_RACE B-ROLL DAYTONA 500 BILL ELLIOTT WINNER_85-EV-0012_S001.NEW.01 
*SOURCE FILE: ERN_F6195_NSCR_1985-02-17_RACE B-ROLL DAYTONA 500 BILL ELLIOTT WINNER_85-EV-0012_S001
000097  ERN_F6195_NSCR_1985-02-17_RACE_B-ROLL_DAYTONA_500_BILL_ELLIOTT_WINNER_85-EV-0012_S001                                             A20   C        00:16:11:06 00:16:11:25 00:01:48:11 00:01:49:01 
M2      ERN_F6195_NSCR_1985-02-17_RACE_B-ROLL_DAYTONA_500_BILL_ELLIOTT_WINNER_85-EV-0012_S001                                                      030.0 00:16:11:06 
*FROM CLIP NAME:  ERN_F6195_NSCR_1985-02-17_RACE B-ROLL DAYTONA 500 BILL ELLIOTT WINNER_85-EV-0012_S001.NEW.01 
*SOURCE FILE: ERN_F6195_NSCR_1985-02-17_RACE B-ROLL DAYTONA 500 BILL ELLIOTT WINNER_85-EV-0012_S001
000098  ERN_F2663_NSCR_1987_RACE_B-ROLL_FILM_CHARLOTTE_500_DESR_BILL_ELLIOTT_RICHARD_PETTY_FLY-BYS_VICTORY_LANE_&_GROUNDS_1987-NAS-00112_ V     C        00:05:37:07 00:05:40:21 00:01:48:16 00:01:52:05 
M2      ERN_F2663_NSCR_1987_RACE_B-ROLL_FILM_CHARLOTTE_500_DESR_BILL_ELLIOTT_RICHARD_PETTY_FLY-BYS_VICTORY_LANE_&_GROUNDS_1987-NAS-00112_          024.0 00:05:37:07 
*FROM CLIP NAME:  ERN_F2663_NSCR_1987_RACE B-ROLL FILM CHARLOTTE 500 DESR BILL ELLIOTT RICHARD PETTY FLY-BYS VICTORY LANE & GROUNDS_1987-NAS-00112_S003.NEW.01 
*SOURCE FILE: ERN_F2663_NSCR_1987_RACE B-ROLL FILM CHARLOTTE 500 DESR BILL ELLIOTT RICHARD PETTY FLY-BYS VICTORY LANE & GROUNDS_1987-NAS-00112_S003
000099  ERN_F0800_NSCR_1987-05-17_RACE_DESR_WINNER_BILL_ELLIOTT_CHARLOTTE_-_THE_WINSTON_87-EV-0287                                        A24   C        00:50:28:11 00:50:29:19 00:01:49:00 00:01:50:06 
M2      ERN_F0800_NSCR_1987-05-17_RACE_DESR_WINNER_BILL_ELLIOTT_CHARLOTTE_-_THE_WINSTON_87-EV-0287                                                 030.0 00:50:28:11 
*FROM CLIP NAME:  ERN_F0800_NSCR_1987-05-17_RACE DESR WINNER BILL ELLIOTT CHARLOTTE - THE WINSTON_87-EV-0287.NEW.01 
*SOURCE FILE: ERN_F0800_NSCR_1987-05-17_RACE DESR WINNER BILL ELLIOTT CHARLOTTE - THE WINSTON_87-EV-0287
000100  ERN_F6195_NSCR_1985-02-17_RACE_B-ROLL_DAYTONA_500_BILL_ELLIOTT_WINNER_85-EV-0012_S001                                             A20   C        00:16:11:24 00:16:12:17 00:01:49:01 00:01:49:19 
M2      ERN_F6195_NSCR_1985-02-17_RACE_B-ROLL_DAYTONA_500_BILL_ELLIOTT_WINNER_85-EV-0012_S001                                                      030.0 00:16:11:24 
*FROM CLIP NAME:  ERN_F6195_NSCR_1985-02-17_RACE B-ROLL DAYTONA 500 BILL ELLIOTT WINNER_85-EV-0012_S001.NEW.01 
*SOURCE FILE: ERN_F6195_NSCR_1985-02-17_RACE B-ROLL DAYTONA 500 BILL ELLIOTT WINNER_85-EV-0012_S001
000101  ERN_F1761_NSCR_2001-01-18_DESR_1987_VICTORY_LANE_THERESA_EARNHARDT_SE002862                                                       V     C        00:13:00:11 00:13:04:25 00:01:52:05 00:01:56:16 
M2      ERN_F1761_NSCR_2001-01-18_DESR_1987_VICTORY_LANE_THERESA_EARNHARDT_SE002862                                                                030.0 00:13:00:11 
*FROM CLIP NAME:  ERN_F1761_NSCR_2001-01-18_DESR 1987 VICTORY LANE THERESA EARNHARDT_SE002862.NEW.01 
*SOURCE FILE: ERN_F1761_NSCR_2001-01-18_DESR 1987 VICTORY LANE THERESA EARNHARDT_SE002862
000102  ERN_F2587_NSCR_1988-05-28_PART_1_RACE_B-ROLL_CHARLOTTE_WINN_DIXIE_300_DESR_NO8_TNN010644                                          A18   C        00:08:46:18 00:08:52:19 00:02:04:20 00:02:10:20 
M2      ERN_F2587_NSCR_1988-05-28_PART_1_RACE_B-ROLL_CHARLOTTE_WINN_DIXIE_300_DESR_NO8_TNN010644                                                   030.0 00:08:46:18 
*FROM CLIP NAME:  ERN_F2587_NSCR_1988-05-28_PART 1 RACE B-ROLL CHARLOTTE WINN DIXIE 300 DESR NO8_TNN010644.NEW.01 
*SOURCE FILE: ERN_F2587_NSCR_1988-05-28_PART 1 RACE B-ROLL CHARLOTTE WINN DIXIE 300 DESR NO8_TNN010644
000103  ERN_F2665_NSCR_1987_RACE_B-ROLL_FILM_CHARLOTTE_500_SPEEDWAY_SCENES_DESR_CAR_PREP_W_FLY-BYS_1987-NAS-00113_S002                    V     C        00:02:11:14 00:02:15:15 00:02:07:15 00:02:11:15 
M2      ERN_F2665_NSCR_1987_RACE_B-ROLL_FILM_CHARLOTTE_500_SPEEDWAY_SCENES_DESR_CAR_PREP_W_FLY-BYS_1987-NAS-00113_S002                             024.0 00:02:11:14 
*FROM CLIP NAME:  ERN_F2665_NSCR_1987_RACE B-ROLL FILM CHARLOTTE 500 SPEEDWAY SCENES DESR CAR PREP W FLY-BYS_1987-NAS-00113_S002.NEW.01 
*SOURCE FILE: ERN_F2665_NSCR_1987_RACE B-ROLL FILM CHARLOTTE 500 SPEEDWAY SCENES DESR CAR PREP W FLY-BYS_1987-NAS-00113_S002
000104  ERN_F2587_NSCR_1988-05-28_PART_1_RACE_B-ROLL_CHARLOTTE_WINN_DIXIE_300_DESR_NO8_TNN010644                                          A18   C        00:08:52:18 00:08:54:07 00:02:10:20 00:02:12:10 
M2      ERN_F2587_NSCR_1988-05-28_PART_1_RACE_B-ROLL_CHARLOTTE_WINN_DIXIE_300_DESR_NO8_TNN010644                                                   030.0 00:08:52:18 
*FROM CLIP NAME:  ERN_F2587_NSCR_1988-05-28_PART 1 RACE B-ROLL CHARLOTTE WINN DIXIE 300 DESR NO8_TNN010644.NEW.01 
*SOURCE FILE: ERN_F2587_NSCR_1988-05-28_PART 1 RACE B-ROLL CHARLOTTE WINN DIXIE 300 DESR NO8_TNN010644
000105  ERN_F2665_NSCR_1987_RACE_B-ROLL_FILM_CHARLOTTE_500_SPEEDWAY_SCENES_DESR_CAR_PREP_W_FLY-BYS_1987-NAS-00113_S002                    V     C        00:00:44:00 00:00:50:02 00:02:11:15 00:02:17:16 
M2      ERN_F2665_NSCR_1987_RACE_B-ROLL_FILM_CHARLOTTE_500_SPEEDWAY_SCENES_DESR_CAR_PREP_W_FLY-BYS_1987-NAS-00113_S002                             024.0 00:00:44:00 
*FROM CLIP NAME:  ERN_F2665_NSCR_1987_RACE B-ROLL FILM CHARLOTTE 500 SPEEDWAY SCENES DESR CAR PREP W FLY-BYS_1987-NAS-00113_S002.NEW.01 
*SOURCE FILE: ERN_F2665_NSCR_1987_RACE B-ROLL FILM CHARLOTTE 500 SPEEDWAY SCENES DESR CAR PREP W FLY-BYS_1987-NAS-00113_S002
000106  ERN_F8037_NSCR_1987-09-20_3_OF_5_RACE_BROADCAST_DOVER_DOWN_DELAWARE_500_LGP02299                                                  A20   C        00:32:23:00 00:32:23:21 00:02:16:17 00:02:17:09 
M2      ERN_F8037_NSCR_1987-09-20_3_OF_5_RACE_BROADCAST_DOVER_DOWN_DELAWARE_500_LGP02299                                                           030.0 00:32:23:00 
*FROM CLIP NAME:  ERN_F8037_NSCR_1987-09-20_3 OF 5 RACE BROADCAST D.SUB.01 
*SOURCE FILE: ERN_F8037_NSCR_1987-09-20_3 OF 5 RACE BROADCAST DOVER DOWN DELAWARE 500_LGP02299
000107  ERN_F8037_NSCR_1987-09-20_3_OF_5_RACE_BROADCAST_DOVER_DOWN_DELAWARE_500_LGP02299                                                  A20   C        00:32:23:20 00:32:33:12 00:02:17:09 00:02:27:02 
M2      ERN_F8037_NSCR_1987-09-20_3_OF_5_RACE_BROADCAST_DOVER_DOWN_DELAWARE_500_LGP02299                                                           030.0 00:32:23:20 
*FROM CLIP NAME:  ERN_F8037_NSCR_1987-09-20_3 OF 5 RACE BROADCAST D.SUB.01 
*SOURCE FILE: ERN_F8037_NSCR_1987-09-20_3 OF 5 RACE BROADCAST DOVER DOWN DELAWARE 500_LGP02299
000108  ERN_F1501_NSCR_1987-05-17_CHARLOTTE_ALL-STAR_RACE_B-ROLL_FLYBYS_DESR_NO3_BILL_ELLIOT_NO9_MERCH_STAND_87-EV-0112                   V     C        00:14:41:20 00:14:46:21 00:02:17:16 00:02:21:14 
M2      ERN_F1501_NSCR_1987-05-17_CHARLOTTE_ALL-STAR_RACE_B-ROLL_FLYBYS_DESR_NO3_BILL_ELLIOT_NO9_MERCH_STAND_87-EV-0112                            038.4 00:14:41:20 
*FROM CLIP NAME:  ERN_F1501_NSCR_1987-05-17_CHARLOTTE ALL-STAR RACE B-ROLL FLYBYS DESR NO3 BILL ELLIOT NO9 MERCH STAND_87-EV-0112.NEW.01 
*SOURCE FILE: ERN_F1501_NSCR_1987-05-17_CHARLOTTE ALL-STAR RACE B-ROLL FLYBYS DESR NO3 BILL ELLIOT NO9 MERCH STAND_87-EV-0112
000109  ERN_F8037_NSCR_1987-09-20_3_OF_5_RACE_BROADCAST_DOVER_DOWN_DELAWARE_500_LGP02299                                                  V     C        00:32:27:27 00:32:29:24 00:02:21:14 00:02:23:11 
M2      ERN_F8037_NSCR_1987-09-20_3_OF_5_RACE_BROADCAST_DOVER_DOWN_DELAWARE_500_LGP02299                                                           030.0 00:32:27:27 
*FROM CLIP NAME:  ERN_F8037_NSCR_1987-09-20_3 OF 5 RACE BROADCAST D.SUB.01 
*SOURCE FILE: ERN_F8037_NSCR_1987-09-20_3 OF 5 RACE BROADCAST DOVER DOWN DELAWARE 500_LGP02299
000110  ERN_F8037_NSCR_1987-09-20_3_OF_5_RACE_BROADCAST_DOVER_DOWN_DELAWARE_500_LGP02299                                                  V     C        00:32:52:14 00:32:57:10 00:02:23:11 00:02:28:07 
M2      ERN_F8037_NSCR_1987-09-20_3_OF_5_RACE_BROADCAST_DOVER_DOWN_DELAWARE_500_LGP02299                                                           030.0 00:32:52:14 
*FROM CLIP NAME:  ERN_F8037_NSCR_1987-09-20_3 OF 5 RACE BROADCAST D.SUB.01 
*SOURCE FILE: ERN_F8037_NSCR_1987-09-20_3 OF 5 RACE BROADCAST DOVER DOWN DELAWARE 500_LGP02299
000111  ERN_F8037_NSCR_1987-09-20_3_OF_5_RACE_BROADCAST_DOVER_DOWN_DELAWARE_500_LGP02299                                                  A20   C        00:32:35:03 00:32:35:07 00:02:27:02 00:02:27:05 
M2      ERN_F8037_NSCR_1987-09-20_3_OF_5_RACE_BROADCAST_DOVER_DOWN_DELAWARE_500_LGP02299                                                           030.0 00:32:35:03 
*FROM CLIP NAME:  ERN_F8037_NSCR_1987-09-20_3 OF 5 RACE BROADCAST D.SUB.01 
*TO CLIP NAME:  ERN_F8037_NSCR_1987-09-20_3 OF 5 RACE BROADCAST D.SUB.01 
*SOURCE FILE: ERN_F8037_NSCR_1987-09-20_3 OF 5 RACE BROADCAST DOVER DOWN DELAWARE 500_LGP02299
000112  ERN_F8037_NSCR_1987-09-20_3_OF_5_RACE_BROADCAST_DOVER_DOWN_DELAWARE_500_LGP02299                                                  A20   C        00:32:35:07 00:32:35:17 00:02:27:05 00:02:27:13 
M2      ERN_F8037_NSCR_1987-09-20_3_OF_5_RACE_BROADCAST_DOVER_DOWN_DELAWARE_500_LGP02299                                                           030.0 00:32:35:07 
*FROM CLIP NAME:  ERN_F8037_NSCR_1987-09-20_3 OF 5 RACE BROADCAST D.SUB.01 
*SOURCE FILE: ERN_F8037_NSCR_1987-09-20_3 OF 5 RACE BROADCAST DOVER DOWN DELAWARE 500_LGP02299
000113  ERN_F8037_NSCR_1987-09-20_3_OF_5_RACE_BROADCAST_DOVER_DOWN_DELAWARE_500_LGP02299                                                  A18   C        00:32:39:02 00:32:39:10 00:02:27:10 00:02:27:16 
M2      ERN_F8037_NSCR_1987-09-20_3_OF_5_RACE_BROADCAST_DOVER_DOWN_DELAWARE_500_LGP02299                                                           030.0 00:32:39:02 
*FROM CLIP NAME:  ERN_F8037_NSCR_1987-09-20_3 OF 5 RACE BROADCAST D.SUB.01 
*SOURCE FILE: ERN_F8037_NSCR_1987-09-20_3 OF 5 RACE BROADCAST DOVER DOWN DELAWARE 500_LGP02299
000114  ERN_F8037_NSCR_1987-09-20_3_OF_5_RACE_BROADCAST_DOVER_DOWN_DELAWARE_500_LGP02299                                                  A22   C        00:33:56:02 00:33:56:17 00:02:27:23 00:02:28:11 
M2      ERN_F8037_NSCR_1987-09-20_3_OF_5_RACE_BROADCAST_DOVER_DOWN_DELAWARE_500_LGP02299                                                           030.0 00:33:56:02 
*FROM CLIP NAME:  ERN_F8037_NSCR_1987-09-20_3 OF 5 RACE BROADCAST D.SUB.01 
*SOURCE FILE: ERN_F8037_NSCR_1987-09-20_3 OF 5 RACE BROADCAST DOVER DOWN DELAWARE 500_LGP02299
000115  ERN_F8037_NSCR_1987-09-20_3_OF_5_RACE_BROADCAST_DOVER_DOWN_DELAWARE_500_LGP02299                                                  V     C        00:34:10:02 00:34:13:16 00:02:28:07 00:02:31:18 
M2      ERN_F8037_NSCR_1987-09-20_3_OF_5_RACE_BROADCAST_DOVER_DOWN_DELAWARE_500_LGP02299                                                           030.0 00:34:10:02 
*FROM CLIP NAME:  ERN_F8037_NSCR_1987-09-20_3 OF 5 RACE BROADCAST D.SUB.01 
*SOURCE FILE: ERN_F8037_NSCR_1987-09-20_3 OF 5 RACE BROADCAST DOVER DOWN DELAWARE 500_LGP02299
000116  ERN_F8037_NSCR_1987-09-20_3_OF_5_RACE_BROADCAST_DOVER_DOWN_DELAWARE_500_LGP02299                                                  A22   C        00:33:56:17 00:33:58:01 00:02:28:11 00:02:29:22 
M2      ERN_F8037_NSCR_1987-09-20_3_OF_5_RACE_BROADCAST_DOVER_DOWN_DELAWARE_500_LGP02299                                                           030.0 00:33:56:17 
*FROM CLIP NAME:  ERN_F8037_NSCR_1987-09-20_3 OF 5 RACE BROADCAST D.SUB.01 
*SOURCE FILE: ERN_F8037_NSCR_1987-09-20_3 OF 5 RACE BROADCAST DOVER DOWN DELAWARE 500_LGP02299
000117  ERN_F8037_NSCR_1987-09-20_3_OF_5_RACE_BROADCAST_DOVER_DOWN_DELAWARE_500_LGP02299                                                  A22   C        00:34:11:20 00:34:13:12 00:02:29:22 00:02:31:15 
M2      ERN_F8037_NSCR_1987-09-20_3_OF_5_RACE_BROADCAST_DOVER_DOWN_DELAWARE_500_LGP02299                                                           030.0 00:34:11:20 
*FROM CLIP NAME:  ERN_F8037_NSCR_1987-09-20_3 OF 5 RACE BROADCAST D.SUB.01 
*SOURCE FILE: ERN_F8037_NSCR_1987-09-20_3 OF 5 RACE BROADCAST DOVER DOWN DELAWARE 500_LGP02299
000118  ERN_F8037_NSCR_1987-09-20_3_OF_5_RACE_BROADCAST_DOVER_DOWN_DELAWARE_500_LGP02299                                                  A22   C        00:34:11:05 00:34:11:11 00:02:31:15 00:02:31:19 
M2      ERN_F8037_NSCR_1987-09-20_3_OF_5_RACE_BROADCAST_DOVER_DOWN_DELAWARE_500_LGP02299                                                           030.0 00:34:11:05 
*FROM CLIP NAME:  ERN_F8037_NSCR_1987-09-20_3 OF 5 RACE BROADCAST D.SUB.01 
*TO CLIP NAME:  ERN_F8037_NSCR_1987-09-20_3 OF 5 RACE BROADCAST D.SUB.01 
*SOURCE FILE: ERN_F8037_NSCR_1987-09-20_3 OF 5 RACE BROADCAST DOVER DOWN DELAWARE 500_LGP02299
000119  ERN_F8037_NSCR_1987-09-20_3_OF_5_RACE_BROADCAST_DOVER_DOWN_DELAWARE_500_LGP02299                                                  V     C        00:34:26:21 00:34:26:23 00:02:31:18 00:02:33:08 
M2      ERN_F8037_NSCR_1987-09-20_3_OF_5_RACE_BROADCAST_DOVER_DOWN_DELAWARE_500_LGP02299                                                          -030.0 00:34:26:21 
*FROM CLIP NAME:  ERN_F8037_NSCR_1987-09-20_3 OF 5 RACE BROADCAST D.SUB.01 
*SOURCE FILE: ERN_F8037_NSCR_1987-09-20_3 OF 5 RACE BROADCAST DOVER DOWN DELAWARE 500_LGP02299
000120  ERN_F8037_NSCR_1987-09-20_3_OF_5_RACE_BROADCAST_DOVER_DOWN_DELAWARE_500_LGP02299                                                  A22   C        00:34:11:10 00:34:11:15 00:02:31:19 00:02:31:22 
M2      ERN_F8037_NSCR_1987-09-20_3_OF_5_RACE_BROADCAST_DOVER_DOWN_DELAWARE_500_LGP02299                                                           030.0 00:34:11:10 
*FROM CLIP NAME:  ERN_F8037_NSCR_1987-09-20_3 OF 5 RACE BROADCAST D.SUB.01 
*SOURCE FILE: ERN_F8037_NSCR_1987-09-20_3 OF 5 RACE BROADCAST DOVER DOWN DELAWARE 500_LGP02299
000121  ERN_F6035_NSCR_1987-10-11_RACE_INTVS_FANS_MISC_JIMMY_MEANS_87-EV-0339                                                             A18   C        00:04:47:11 00:04:47:19 00:02:31:21 00:02:32:03 
M2      ERN_F6035_NSCR_1987-10-11_RACE_INTVS_FANS_MISC_JIMMY_MEANS_87-EV-0339                                                                      030.0 00:04:47:11 
*FROM CLIP NAME:  ERN_F6035_NSCR_1987-10-11_RACE INTVS FANS MISC JIMMY MEANS_87-EV-0339.NEW.01 
*SOURCE FILE: ERN_F6035_NSCR_1987-10-11_RACE INTVS FANS MISC JIMMY MEANS_87-EV-0339
000122  ERN_F6035_NSCR_1987-10-11_RACE_INTVS_FANS_MISC_JIMMY_MEANS_87-EV-0339                                                             A18   C        00:04:47:18 00:04:48:19 00:02:32:03 00:02:33:03 
M2      ERN_F6035_NSCR_1987-10-11_RACE_INTVS_FANS_MISC_JIMMY_MEANS_87-EV-0339                                                                      030.0 00:04:47:18 
*FROM CLIP NAME:  ERN_F6035_NSCR_1987-10-11_RACE INTVS FANS MISC JIMMY MEANS_87-EV-0339.NEW.01 
*SOURCE FILE: ERN_F6035_NSCR_1987-10-11_RACE INTVS FANS MISC JIMMY MEANS_87-EV-0339
000123  ERN_F8037_NSCR_1987-09-20_3_OF_5_RACE_BROADCAST_DOVER_DOWN_DELAWARE_500_LGP02299                                                  A18   C        00:33:32:12 00:33:32:17 00:02:33:03 00:02:33:07 
M2      ERN_F8037_NSCR_1987-09-20_3_OF_5_RACE_BROADCAST_DOVER_DOWN_DELAWARE_500_LGP02299                                                           030.0 00:33:32:12 
*FROM CLIP NAME:  ERN_F8037_NSCR_1987-09-20_3 OF 5 RACE BROADCAST D.SUB.01 
*TO CLIP NAME:  ERN_F6035_NSCR_1987-10-11_RACE INTVS FANS MISC JIMMY MEANS_87-EV-0339.NEW.01 
*SOURCE FILE: ERN_F8037_NSCR_1987-09-20_3 OF 5 RACE BROADCAST DOVER DOWN DELAWARE 500_LGP02299
000124  ERN_F8037_NSCR_1987-09-20_3_OF_5_RACE_BROADCAST_DOVER_DOWN_DELAWARE_500_LGP02299                                                  A18   C        00:33:32:17 00:33:33:09 00:02:33:07 00:02:34:00 
M2      ERN_F8037_NSCR_1987-09-20_3_OF_5_RACE_BROADCAST_DOVER_DOWN_DELAWARE_500_LGP02299                                                           030.0 00:33:32:17 
*FROM CLIP NAME:  ERN_F8037_NSCR_1987-09-20_3 OF 5 RACE BROADCAST D.SUB.01 
*SOURCE FILE: ERN_F8037_NSCR_1987-09-20_3 OF 5 RACE BROADCAST DOVER DOWN DELAWARE 500_LGP02299
000125  ERN_F8037_NSCR_1987-09-20_3_OF_5_RACE_BROADCAST_DOVER_DOWN_DELAWARE_500_LGP02299                                                  V     C        00:33:32:18 00:33:33:15 00:02:33:08 00:02:34:05 
M2      ERN_F8037_NSCR_1987-09-20_3_OF_5_RACE_BROADCAST_DOVER_DOWN_DELAWARE_500_LGP02299                                                           030.0 00:33:32:18 
*FROM CLIP NAME:  ERN_F8037_NSCR_1987-09-20_3 OF 5 RACE BROADCAST D.SUB.01 
*SOURCE FILE: ERN_F8037_NSCR_1987-09-20_3 OF 5 RACE BROADCAST DOVER DOWN DELAWARE 500_LGP02299
000126  ERN_F8037_NSCR_1987-09-20_3_OF_5_RACE_BROADCAST_DOVER_DOWN_DELAWARE_500_LGP02299                                                  A18   C        00:33:35:13 00:33:35:21 00:02:34:00 00:02:34:06 
M2      ERN_F8037_NSCR_1987-09-20_3_OF_5_RACE_BROADCAST_DOVER_DOWN_DELAWARE_500_LGP02299                                                           030.0 00:33:35:13 
*FROM CLIP NAME:  ERN_F8037_NSCR_1987-09-20_3 OF 5 RACE BROADCAST D.SUB.01 
*TO CLIP NAME:  ERN_F8037_NSCR_1987-09-20_3 OF 5 RACE BROADCAST D.SUB.01 
*SOURCE FILE: ERN_F8037_NSCR_1987-09-20_3 OF 5 RACE BROADCAST DOVER DOWN DELAWARE 500_LGP02299
000127  ERN_F8037_NSCR_1987-09-20_3_OF_5_RACE_BROADCAST_DOVER_DOWN_DELAWARE_500_LGP02299                                                  V     C        00:33:35:19 00:33:41:27 00:02:34:05 00:02:40:11 
M2      ERN_F8037_NSCR_1987-09-20_3_OF_5_RACE_BROADCAST_DOVER_DOWN_DELAWARE_500_LGP02299                                                           030.0 00:33:35:19 
*FROM CLIP NAME:  ERN_F8037_NSCR_1987-09-20_3 OF 5 RACE BROADCAST D.SUB.01 
*SOURCE FILE: ERN_F8037_NSCR_1987-09-20_3 OF 5 RACE BROADCAST DOVER DOWN DELAWARE 500_LGP02299
000128  ERN_F8037_NSCR_1987-09-20_3_OF_5_RACE_BROADCAST_DOVER_DOWN_DELAWARE_500_LGP02299                                                  A18   C        00:33:35:20 00:33:41:12 00:02:34:06 00:02:39:23 
M2      ERN_F8037_NSCR_1987-09-20_3_OF_5_RACE_BROADCAST_DOVER_DOWN_DELAWARE_500_LGP02299                                                           030.0 00:33:35:20 
*FROM CLIP NAME:  ERN_F8037_NSCR_1987-09-20_3 OF 5 RACE BROADCAST D.SUB.01 
*SOURCE FILE: ERN_F8037_NSCR_1987-09-20_3 OF 5 RACE BROADCAST DOVER DOWN DELAWARE 500_LGP02299
000129  ERN_F3647_NSCR_1986-10-05_CHARLOTTE-OAKWOOD_HOMES_500_FANS_IN_STANDS_B-ROLL_RACE_B-ROLL_86-EV-0202                                A22   C        00:08:25:01 00:08:26:17 00:02:37:23 00:02:39:11 
M2      ERN_F3647_NSCR_1986-10-05_CHARLOTTE-OAKWOOD_HOMES_500_FANS_IN_STANDS_B-ROLL_RACE_B-ROLL_86-EV-0202                                         030.0 00:08:25:01 
*FROM CLIP NAME:  ERN_F3647_NSCR_1986-10-05_CHARLOTTE-OAKWOOD HOMES 500 FANS IN STANDS B-ROLL RACE B-ROLL_86-EV-0202.NEW.01 
*SOURCE FILE: ERN_F3647_NSCR_1986-10-05_CHARLOTTE-OAKWOOD HOMES 500 FANS IN STANDS B-ROLL RACE B-ROLL_86-EV-0202
000130  ERN_F3647_NSCR_1986-10-05_CHARLOTTE-OAKWOOD_HOMES_500_FANS_IN_STANDS_B-ROLL_RACE_B-ROLL_86-EV-0202                                A22   C        00:08:26:16 00:08:27:27 00:02:39:11 00:02:40:19 
M2      ERN_F3647_NSCR_1986-10-05_CHARLOTTE-OAKWOOD_HOMES_500_FANS_IN_STANDS_B-ROLL_RACE_B-ROLL_86-EV-0202                                         030.0 00:08:26:16 
*FROM CLIP NAME:  ERN_F3647_NSCR_1986-10-05_CHARLOTTE-OAKWOOD HOMES 500 FANS IN STANDS B-ROLL RACE B-ROLL_86-EV-0202.NEW.01 
*SOURCE FILE: ERN_F3647_NSCR_1986-10-05_CHARLOTTE-OAKWOOD HOMES 500 FANS IN STANDS B-ROLL RACE B-ROLL_86-EV-0202
000131  ERN_F2677_DEJR_1987-09-13_INTV_W_FANS_RICHMOND_POINTS_VS_RACES_&_GAS_USAGE_IN_RACES_87-EV-0328                                    A20   C        00:14:01:26 00:14:03:08 00:02:39:11 00:02:40:20 
M2      ERN_F2677_DEJR_1987-09-13_INTV_W_FANS_RICHMOND_POINTS_VS_RACES_&_GAS_USAGE_IN_RACES_87-EV-0328                                             030.0 00:14:01:26 
*FROM CLIP NAME:  ERN_F2677_DEJR_1987-09-13_INTV W FANS RICHMOND POINTS VS RACES & GAS USAGE IN RACES_87-EV-0328.NEW.01 
*SOURCE FILE: ERN_F2677_DEJR_1987-09-13_INTV W FANS RICHMOND POINTS VS RACES & GAS USAGE IN RACES_87-EV-0328
000132  ERN_F3647_NSCR_1986-10-05_CHARLOTTE-OAKWOOD_HOMES_500_FANS_IN_STANDS_B-ROLL_RACE_B-ROLL_86-EV-0202                                V     C        00:05:13:05 00:05:15:07 00:02:40:11 00:02:42:12 
M2      ERN_F3647_NSCR_1986-10-05_CHARLOTTE-OAKWOOD_HOMES_500_FANS_IN_STANDS_B-ROLL_RACE_B-ROLL_86-EV-0202                                         030.0 00:05:13:05 
*FROM CLIP NAME:  ERN_F3647_NSCR_1986-10-05_CHARLOTTE-OAKWOOD HOMES 500 FANS IN STANDS B-ROLL RACE B-ROLL_86-EV-0202.NEW.01 
*SOURCE FILE: ERN_F3647_NSCR_1986-10-05_CHARLOTTE-OAKWOOD HOMES 500 FANS IN STANDS B-ROLL RACE B-ROLL_86-EV-0202
000133  ERN_F2677_DEJR_1987-09-13_INTV_W_FANS_RICHMOND_POINTS_VS_RACES_&_GAS_USAGE_IN_RACES_87-EV-0328                                    A20   C        00:13:59:03 00:13:59:08 00:02:40:20 00:02:41:00 
M2      ERN_F2677_DEJR_1987-09-13_INTV_W_FANS_RICHMOND_POINTS_VS_RACES_&_GAS_USAGE_IN_RACES_87-EV-0328                                             030.0 00:13:59:03 
*FROM CLIP NAME:  ERN_F2677_DEJR_1987-09-13_INTV W FANS RICHMOND POINTS VS RACES & GAS USAGE IN RACES_87-EV-0328.NEW.01 
*TO CLIP NAME:  ERN_F2677_DEJR_1987-09-13_INTV W FANS RICHMOND POINTS VS RACES & GAS USAGE IN RACES_87-EV-0328.NEW.01 
*SOURCE FILE: ERN_F2677_DEJR_1987-09-13_INTV W FANS RICHMOND POINTS VS RACES & GAS USAGE IN RACES_87-EV-0328
000134  ERN_F2677_DEJR_1987-09-13_INTV_W_FANS_RICHMOND_POINTS_VS_RACES_&_GAS_USAGE_IN_RACES_87-EV-0328                                    A20   C        00:13:59:08 00:14:00:10 00:02:41:00 00:02:42:00 
M2      ERN_F2677_DEJR_1987-09-13_INTV_W_FANS_RICHMOND_POINTS_VS_RACES_&_GAS_USAGE_IN_RACES_87-EV-0328                                             030.0 00:13:59:08 
*FROM CLIP NAME:  ERN_F2677_DEJR_1987-09-13_INTV W FANS RICHMOND POINTS VS RACES & GAS USAGE IN RACES_87-EV-0328.NEW.01 
*SOURCE FILE: ERN_F2677_DEJR_1987-09-13_INTV W FANS RICHMOND POINTS VS RACES & GAS USAGE IN RACES_87-EV-0328
000135  ERN_F2677_DEJR_1987-09-13_INTV_W_FANS_RICHMOND_POINTS_VS_RACES_&_GAS_USAGE_IN_RACES_87-EV-0328                                    A20   C        00:14:03:13 00:14:03:17 00:02:42:00 00:02:42:02 
M2      ERN_F2677_DEJR_1987-09-13_INTV_W_FANS_RICHMOND_POINTS_VS_RACES_&_GAS_USAGE_IN_RACES_87-EV-0328                                             030.0 00:14:03:13 
*FROM CLIP NAME:  ERN_F2677_DEJR_1987-09-13_INTV W FANS RICHMOND POINTS VS RACES & GAS USAGE IN RACES_87-EV-0328.NEW.01 
*TO CLIP NAME:  ERN_F2677_DEJR_1987-09-13_INTV W FANS RICHMOND POINTS VS RACES & GAS USAGE IN RACES_87-EV-0328.NEW.01 
*SOURCE FILE: ERN_F2677_DEJR_1987-09-13_INTV W FANS RICHMOND POINTS VS RACES & GAS USAGE IN RACES_87-EV-0328
000136  ERN_F2677_DEJR_1987-09-13_INTV_W_FANS_RICHMOND_POINTS_VS_RACES_&_GAS_USAGE_IN_RACES_87-EV-0328                                    A20   C        00:14:03:16 00:14:05:23 00:02:42:02 00:02:44:07 
M2      ERN_F2677_DEJR_1987-09-13_INTV_W_FANS_RICHMOND_POINTS_VS_RACES_&_GAS_USAGE_IN_RACES_87-EV-0328                                             030.0 00:14:03:16 
*FROM CLIP NAME:  ERN_F2677_DEJR_1987-09-13_INTV W FANS RICHMOND POINTS VS RACES & GAS USAGE IN RACES_87-EV-0328.NEW.01 
*SOURCE FILE: ERN_F2677_DEJR_1987-09-13_INTV W FANS RICHMOND POINTS VS RACES & GAS USAGE IN RACES_87-EV-0328
000137  ERN_F2677_DEJR_1987-09-13_INTV_W_FANS_RICHMOND_POINTS_VS_RACES_&_GAS_USAGE_IN_RACES_87-EV-0328                                    V     C        00:14:03:28 00:14:05:25 00:02:42:12 00:02:44:09 
M2      ERN_F2677_DEJR_1987-09-13_INTV_W_FANS_RICHMOND_POINTS_VS_RACES_&_GAS_USAGE_IN_RACES_87-EV-0328                                             030.0 00:14:03:28 
*FROM CLIP NAME:  ERN_F2677_DEJR_1987-09-13_INTV W FANS RICHMOND POINTS VS RACES & GAS USAGE IN RACES_87-EV-0328.NEW.01 
*SOURCE FILE: ERN_F2677_DEJR_1987-09-13_INTV W FANS RICHMOND POINTS VS RACES & GAS USAGE IN RACES_87-EV-0328
000138  ERN_F2677_DEJR_1987-09-13_INTV_W_FANS_RICHMOND_POINTS_VS_RACES_&_GAS_USAGE_IN_RACES_87-EV-0328                                    A18   C        00:10:05:00 00:10:05:09 00:02:44:06 00:02:44:12 
M2      ERN_F2677_DEJR_1987-09-13_INTV_W_FANS_RICHMOND_POINTS_VS_RACES_&_GAS_USAGE_IN_RACES_87-EV-0328                                             030.0 00:10:05:00 
*FROM CLIP NAME:  ERN_F2677_DEJR_1987-09-13_INTV W FANS RICHMOND POINTS VS RACES & GAS USAGE IN RACES_87-EV-0328.NEW.01 
*SOURCE FILE: ERN_F2677_DEJR_1987-09-13_INTV W FANS RICHMOND POINTS VS RACES & GAS USAGE IN RACES_87-EV-0328
000139  ERN_F2677_DEJR_1987-09-13_INTV_W_FANS_RICHMOND_POINTS_VS_RACES_&_GAS_USAGE_IN_RACES_87-EV-0328                                    V     C        00:09:52:14 00:09:53:22 00:02:44:09 00:02:45:15 
M2      ERN_F2677_DEJR_1987-09-13_INTV_W_FANS_RICHMOND_POINTS_VS_RACES_&_GAS_USAGE_IN_RACES_87-EV-0328                                             030.0 00:09:52:14 
*FROM CLIP NAME:  ERN_F2677_DEJR_1987-09-13_INTV W FANS RICHMOND POINTS VS RACES & GAS USAGE IN RACES_87-EV-0328.NEW.01 
*SOURCE FILE: ERN_F2677_DEJR_1987-09-13_INTV W FANS RICHMOND POINTS VS RACES & GAS USAGE IN RACES_87-EV-0328
000140  ERN_F2677_DEJR_1987-09-13_INTV_W_FANS_RICHMOND_POINTS_VS_RACES_&_GAS_USAGE_IN_RACES_87-EV-0328                                    A18   C        00:09:52:18 00:09:52:21 00:02:44:12 00:02:44:14 
M2      ERN_F2677_DEJR_1987-09-13_INTV_W_FANS_RICHMOND_POINTS_VS_RACES_&_GAS_USAGE_IN_RACES_87-EV-0328                                             030.0 00:09:52:18 
*FROM CLIP NAME:  ERN_F2677_DEJR_1987-09-13_INTV W FANS RICHMOND POINTS VS RACES & GAS USAGE IN RACES_87-EV-0328.NEW.01 
*TO CLIP NAME:  ERN_F2677_DEJR_1987-09-13_INTV W FANS RICHMOND POINTS VS RACES & GAS USAGE IN RACES_87-EV-0328.NEW.01 
*SOURCE FILE: ERN_F2677_DEJR_1987-09-13_INTV W FANS RICHMOND POINTS VS RACES & GAS USAGE IN RACES_87-EV-0328
000141  ERN_F2677_DEJR_1987-09-13_INTV_W_FANS_RICHMOND_POINTS_VS_RACES_&_GAS_USAGE_IN_RACES_87-EV-0328                                    A18   C        00:09:52:20 00:09:53:26 00:02:44:14 00:02:45:18 
M2      ERN_F2677_DEJR_1987-09-13_INTV_W_FANS_RICHMOND_POINTS_VS_RACES_&_GAS_USAGE_IN_RACES_87-EV-0328                                             030.0 00:09:52:20 
*FROM CLIP NAME:  ERN_F2677_DEJR_1987-09-13_INTV W FANS RICHMOND POINTS VS RACES & GAS USAGE IN RACES_87-EV-0328.NEW.01 
*SOURCE FILE: ERN_F2677_DEJR_1987-09-13_INTV W FANS RICHMOND POINTS VS RACES & GAS USAGE IN RACES_87-EV-0328
000142  ERN_F2589_NSCR_1988-05-28_PART__RACE_B-ROLL_CHARLOTTE_WINN_DIXIE_300_DESR_NO8_TNN010646                                           A22   C        00:07:04:08 00:07:05:24 00:02:44:16 00:02:46:04 
M2      ERN_F2589_NSCR_1988-05-28_PART__RACE_B-ROLL_CHARLOTTE_WINN_DIXIE_300_DESR_NO8_TNN010646                                                    030.0 00:07:04:08 
*FROM CLIP NAME:  ERN_F2589_NSCR_1988-05-28_PART  RACE B-ROLL CHARLOTTE WINN DIXIE 300 DESR NO8_TNN010646.NEW.01 
*SOURCE FILE: ERN_F2589_NSCR_1988-05-28_PART  RACE B-ROLL CHARLOTTE WINN DIXIE 300 DESR NO8_TNN010646
000143  ERN_F1930_NSCR_1988-05-29_CHARLOTTE-COCA_COLA_600_FANS_TAILGATING_RACE_B-RO_88-EV-0157                                            V     C        00:18:06:12 00:18:09:19 00:02:45:15 00:02:48:20 
M2      ERN_F1930_NSCR_1988-05-29_CHARLOTTE-COCA_COLA_600_FANS_TAILGATING_RACE_B-RO_88-EV-0157                                                     030.0 00:18:06:12 
*FROM CLIP NAME:  ERN_F1930_NSCR_1988-05-29_CHARLOTTE-COCA COLA 600 FANS TAILGATING RACE B-RO_88-EV-0157.NEW.01 
*SOURCE FILE: ERN_F1930_NSCR_1988-05-29_CHARLOTTE-COCA COLA 600 FANS TAILGATING RACE B-RO_88-EV-0157
000144  ERN_F2589_NSCR_1988-05-28_PART__RACE_B-ROLL_CHARLOTTE_WINN_DIXIE_300_DESR_NO8_TNN010646                                           A22   C        00:07:05:23 00:07:07:17 00:02:46:04 00:02:47:22 
M2      ERN_F2589_NSCR_1988-05-28_PART__RACE_B-ROLL_CHARLOTTE_WINN_DIXIE_300_DESR_NO8_TNN010646                                                    030.0 00:07:05:23 
*FROM CLIP NAME:  ERN_F2589_NSCR_1988-05-28_PART  RACE B-ROLL CHARLOTTE WINN DIXIE 300 DESR NO8_TNN010646.NEW.01 
*SOURCE FILE: ERN_F2589_NSCR_1988-05-28_PART  RACE B-ROLL CHARLOTTE WINN DIXIE 300 DESR NO8_TNN010646
000145  ERN_F6035_NSCR_1987-10-11_RACE_INTVS_FANS_MISC_JIMMY_MEANS_87-EV-0339                                                             A20   C        00:05:47:08 00:05:47:13 00:02:46:12 00:02:46:16 
M2      ERN_F6035_NSCR_1987-10-11_RACE_INTVS_FANS_MISC_JIMMY_MEANS_87-EV-0339                                                                      030.0 00:05:47:08 
*FROM CLIP NAME:  ERN_F6035_NSCR_1987-10-11_RACE INTVS FANS MISC JIMMY MEANS_87-EV-0339.NEW.01 
*SOURCE FILE: ERN_F6035_NSCR_1987-10-11_RACE INTVS FANS MISC JIMMY MEANS_87-EV-0339
000146  ERN_F6035_NSCR_1987-10-11_RACE_INTVS_FANS_MISC_JIMMY_MEANS_87-EV-0339                                                             A20   C        00:05:47:13 00:05:49:07 00:02:46:16 00:02:48:11 
M2      ERN_F6035_NSCR_1987-10-11_RACE_INTVS_FANS_MISC_JIMMY_MEANS_87-EV-0339                                                                      030.0 00:05:47:13 
*FROM CLIP NAME:  ERN_F6035_NSCR_1987-10-11_RACE INTVS FANS MISC JIMMY MEANS_87-EV-0339.NEW.01 
*SOURCE FILE: ERN_F6035_NSCR_1987-10-11_RACE INTVS FANS MISC JIMMY MEANS_87-EV-0339
000147  ERN_F6035_NSCR_1987-10-11_RACE_INTVS_FANS_MISC_JIMMY_MEANS_87-EV-0339                                                             A20   C        00:05:59:25 00:06:00:03 00:02:48:11 00:02:48:15 
M2      ERN_F6035_NSCR_1987-10-11_RACE_INTVS_FANS_MISC_JIMMY_MEANS_87-EV-0339                                                                      030.0 00:05:59:25 
*FROM CLIP NAME:  ERN_F6035_NSCR_1987-10-11_RACE INTVS FANS MISC JIMMY MEANS_87-EV-0339.NEW.01 
*TO CLIP NAME:  ERN_F6035_NSCR_1987-10-11_RACE INTVS FANS MISC JIMMY MEANS_87-EV-0339.NEW.01 
*SOURCE FILE: ERN_F6035_NSCR_1987-10-11_RACE INTVS FANS MISC JIMMY MEANS_87-EV-0339
000148  ERN_F6035_NSCR_1987-10-11_RACE_INTVS_FANS_MISC_JIMMY_MEANS_87-EV-0339                                                             A20   C        00:06:00:02 00:06:01:14 00:02:48:15 00:02:50:00 
M2      ERN_F6035_NSCR_1987-10-11_RACE_INTVS_FANS_MISC_JIMMY_MEANS_87-EV-0339                                                                      030.0 00:06:00:02 
*FROM CLIP NAME:  ERN_F6035_NSCR_1987-10-11_RACE INTVS FANS MISC JIMMY MEANS_87-EV-0339.NEW.01 
*SOURCE FILE: ERN_F6035_NSCR_1987-10-11_RACE INTVS FANS MISC JIMMY MEANS_87-EV-0339
000149  ERN_F6035_NSCR_1987-10-11_RACE_INTVS_FANS_MISC_JIMMY_MEANS_87-EV-0339                                                             V     C        00:06:00:08 00:06:01:29 00:02:48:20 00:02:50:12 
M2      ERN_F6035_NSCR_1987-10-11_RACE_INTVS_FANS_MISC_JIMMY_MEANS_87-EV-0339                                                                      030.0 00:06:00:08 
*FROM CLIP NAME:  ERN_F6035_NSCR_1987-10-11_RACE INTVS FANS MISC JIMMY MEANS_87-EV-0339.NEW.01 
*SOURCE FILE: ERN_F6035_NSCR_1987-10-11_RACE INTVS FANS MISC JIMMY MEANS_87-EV-0339
000150  ERN_F6035_NSCR_1987-10-11_RACE_INTVS_FANS_MISC_JIMMY_MEANS_87-EV-0339                                                             A20   C        00:06:02:21 00:06:03:02 00:02:50:00 00:02:50:08 
M2      ERN_F6035_NSCR_1987-10-11_RACE_INTVS_FANS_MISC_JIMMY_MEANS_87-EV-0339                                                                      030.0 00:06:02:21 
*FROM CLIP NAME:  ERN_F6035_NSCR_1987-10-11_RACE INTVS FANS MISC JIMMY MEANS_87-EV-0339.NEW.01 
*TO CLIP NAME:  ERN_F6035_NSCR_1987-10-11_RACE INTVS FANS MISC JIMMY MEANS_87-EV-0339.NEW.01 
*SOURCE FILE: ERN_F6035_NSCR_1987-10-11_RACE INTVS FANS MISC JIMMY MEANS_87-EV-0339
000151  ERN_F6035_NSCR_1987-10-11_RACE_INTVS_FANS_MISC_JIMMY_MEANS_87-EV-0339                                                             A20   C        00:06:03:01 00:06:04:25 00:02:50:08 00:02:52:03 
M2      ERN_F6035_NSCR_1987-10-11_RACE_INTVS_FANS_MISC_JIMMY_MEANS_87-EV-0339                                                                      030.0 00:06:03:01 
*FROM CLIP NAME:  ERN_F6035_NSCR_1987-10-11_RACE INTVS FANS MISC JIMMY MEANS_87-EV-0339.NEW.01 
*SOURCE FILE: ERN_F6035_NSCR_1987-10-11_RACE INTVS FANS MISC JIMMY MEANS_87-EV-0339
000152  ERN_F6035_NSCR_1987-10-11_RACE_INTVS_FANS_MISC_JIMMY_MEANS_87-EV-0339                                                             V     C        00:06:03:06 00:06:04:09 00:02:50:12 00:02:51:14 
M2      ERN_F6035_NSCR_1987-10-11_RACE_INTVS_FANS_MISC_JIMMY_MEANS_87-EV-0339                                                                      030.0 00:06:03:06 
*FROM CLIP NAME:  ERN_F6035_NSCR_1987-10-11_RACE INTVS FANS MISC JIMMY MEANS_87-EV-0339.NEW.01 
*SOURCE FILE: ERN_F6035_NSCR_1987-10-11_RACE INTVS FANS MISC JIMMY MEANS_87-EV-0339
000153  ERN_F1930_NSCR_1988-05-29_CHARLOTTE-COCA_COLA_600_FANS_TAILGATING_RACE_B-RO_88-EV-0157                                            A22   C        00:18:05:19 00:18:07:22 00:02:51:03 00:02:53:05 
M2      ERN_F1930_NSCR_1988-05-29_CHARLOTTE-COCA_COLA_600_FANS_TAILGATING_RACE_B-RO_88-EV-0157                                                     030.0 00:18:05:19 
*FROM CLIP NAME:  ERN_F1930_NSCR_1988-05-29_CHARLOTTE-COCA COLA 600 FANS TAILGATING RACE B-RO_88-EV-0157.NEW.01 
*SOURCE FILE: ERN_F1930_NSCR_1988-05-29_CHARLOTTE-COCA COLA 600 FANS TAILGATING RACE B-RO_88-EV-0157
000154  ERN_F8037_NSCR_1987-09-20_3_OF_5_RACE_BROADCAST_DOVER_DOWN_DELAWARE_500_LGP02299                                                  V     C        00:34:24:00 00:34:24:02 00:02:51:14 00:02:54:08 
M2      ERN_F8037_NSCR_1987-09-20_3_OF_5_RACE_BROADCAST_DOVER_DOWN_DELAWARE_500_LGP02299                                                          -022.2 00:34:24:00 
*FROM CLIP NAME:  ERN_F8037_NSCR_1987-09-20_3 OF 5 RACE BROADCAST D.SUB.01 
*SOURCE FILE: ERN_F8037_NSCR_1987-09-20_3 OF 5 RACE BROADCAST DOVER DOWN DELAWARE 500_LGP02299
000155  ERN_F1930_NSCR_1988-05-29_CHARLOTTE-COCA_COLA_600_FANS_TAILGATING_RACE_B-RO_88-EV-0157                                            A22   C        00:18:07:22 00:18:08:02 00:02:53:05 00:02:53:13 
M2      ERN_F1930_NSCR_1988-05-29_CHARLOTTE-COCA_COLA_600_FANS_TAILGATING_RACE_B-RO_88-EV-0157                                                     030.0 00:18:07:22 
*FROM CLIP NAME:  ERN_F1930_NSCR_1988-05-29_CHARLOTTE-COCA COLA 600 FANS TAILGATING RACE B-RO_88-EV-0157.NEW.01 
*SOURCE FILE: ERN_F1930_NSCR_1988-05-29_CHARLOTTE-COCA COLA 600 FANS TAILGATING RACE B-RO_88-EV-0157
000156  ERN_F1930_NSCR_1988-05-29_CHARLOTTE-COCA_COLA_600_FANS_TAILGATING_RACE_B-RO_88-EV-0157                                            A22   C        00:18:10:27 00:18:12:12 00:02:53:13 00:02:55:01 
M2      ERN_F1930_NSCR_1988-05-29_CHARLOTTE-COCA_COLA_600_FANS_TAILGATING_RACE_B-RO_88-EV-0157                                                     030.0 00:18:10:27 
*FROM CLIP NAME:  ERN_F1930_NSCR_1988-05-29_CHARLOTTE-COCA COLA 600 FANS TAILGATING RACE B-RO_88-EV-0157.NEW.01 
*TO CLIP NAME:  ERN_F1930_NSCR_1988-05-29_CHARLOTTE-COCA COLA 600 FANS TAILGATING RACE B-RO_88-EV-0157.NEW.01 
*SOURCE FILE: ERN_F1930_NSCR_1988-05-29_CHARLOTTE-COCA COLA 600 FANS TAILGATING RACE B-RO_88-EV-0157
000157  ERN_S4546_NEWS_1987-04-30_HEADLINE_IS_EARNHARDTS_RACE_STYLE_DANGEROUS_OR_AGGRESSIVE_M.JPG                                         V     C        01:00:00:20 01:00:07:15 00:02:54:08 00:03:01:03 
*FROM CLIP NAME:  ERN_S4546_NEWS_1987-04-30_HEADLINE IS EARNHARDTS RACE STYLE DANGEROUS OR AGGRESSIVE_M.JPG 
*SOURCE FILE: ERN_S4546_NEWS_1987-04-30_HEADLINE IS EARNHARDTS RACE STYLE DANGEROUS OR AGGRESSIVE_M.JPG
000158  ERN_F5191_NSCR_2005-10-11_RICHARD_CHILDRESS_INTV_SE003105                                                                         A18   C        00:01:31:02 00:01:31:08 00:02:55:04 00:02:55:08 
M2      ERN_F5191_NSCR_2005-10-11_RICHARD_CHILDRESS_INTV_SE003105                                                                                  030.0 00:01:31:02 
*FROM CLIP NAME:  ERN_F5191_NSCR_2005-10-11_RICHARD CHILDRESS INTV_SE003105.NEW.01 
*SOURCE FILE: ERN_F5191_NSCR_2005-10-11_RICHARD CHILDRESS INTV_SE003105
000159  ERN_F5191_NSCR_2005-10-11_RICHARD_CHILDRESS_INTV_SE003105                                                                         A18   C        00:01:31:07 00:01:33:13 00:02:55:08 00:02:57:12 
M2      ERN_F5191_NSCR_2005-10-11_RICHARD_CHILDRESS_INTV_SE003105                                                                                  030.0 00:01:31:07 
*FROM CLIP NAME:  ERN_F5191_NSCR_2005-10-11_RICHARD CHILDRESS INTV_SE003105.NEW.01 
*SOURCE FILE: ERN_F5191_NSCR_2005-10-11_RICHARD CHILDRESS INTV_SE003105
000160  ERN_F5191_NSCR_2005-10-11_RICHARD_CHILDRESS_INTV_SE003105                                                                         A18   C        00:14:16:26 00:14:16:29 00:02:57:12 00:02:57:14 
M2      ERN_F5191_NSCR_2005-10-11_RICHARD_CHILDRESS_INTV_SE003105                                                                                  030.0 00:14:16:26 
*FROM CLIP NAME:  ERN_F5191_NSCR_2005-10-11_RICHARD CHILDRESS INTV_SE003105.NEW.01 
*TO CLIP NAME:  ERN_F5191_NSCR_2005-10-11_RICHARD CHILDRESS INTV_SE003105.NEW.01 
*SOURCE FILE: ERN_F5191_NSCR_2005-10-11_RICHARD CHILDRESS INTV_SE003105
000161  ERN_F5191_NSCR_2005-10-11_RICHARD_CHILDRESS_INTV_SE003105                                                                         A18   C        00:14:16:29 00:14:21:21 00:02:57:14 00:03:02:07 
M2      ERN_F5191_NSCR_2005-10-11_RICHARD_CHILDRESS_INTV_SE003105                                                                                  030.0 00:14:16:29 
*FROM CLIP NAME:  ERN_F5191_NSCR_2005-10-11_RICHARD CHILDRESS INTV_SE003105.NEW.01 
*SOURCE FILE: ERN_F5191_NSCR_2005-10-11_RICHARD CHILDRESS INTV_SE003105
000162  ERN_F5191_NSCR_2005-10-11_RICHARD_CHILDRESS_INTV_SE003105                                                                         V     C        00:00:35:16 00:00:40:23 00:03:01:03 00:03:06:08 
M2      ERN_F5191_NSCR_2005-10-11_RICHARD_CHILDRESS_INTV_SE003105                                                                                  030.0 00:00:35:16 
*FROM CLIP NAME:  ERN_F5191_NSCR_2005-10-11_RICHARD CHILDRESS INTV_SE003105.NEW.01 
*SOURCE FILE: ERN_F5191_NSCR_2005-10-11_RICHARD CHILDRESS INTV_SE003105
000163  ERN_F5191_NSCR_2005-10-11_RICHARD_CHILDRESS_INTV_SE003105                                                                         A18   C        00:14:21:20 00:14:23:22 00:03:02:07 00:03:04:08 
M2      ERN_F5191_NSCR_2005-10-11_RICHARD_CHILDRESS_INTV_SE003105                                                                                  030.0 00:14:21:20 
*FROM CLIP NAME:  ERN_F5191_NSCR_2005-10-11_RICHARD CHILDRESS INTV_SE003105.NEW.01 
*SOURCE FILE: ERN_F5191_NSCR_2005-10-11_RICHARD CHILDRESS INTV_SE003105
000164  ERN_F5191_NSCR_2005-10-11_RICHARD_CHILDRESS_INTV_SE003105                                                                         A18   C        00:14:11:21 00:14:11:24 00:03:04:08 00:03:04:10 
M2      ERN_F5191_NSCR_2005-10-11_RICHARD_CHILDRESS_INTV_SE003105                                                                                  030.0 00:14:11:21 
*FROM CLIP NAME:  ERN_F5191_NSCR_2005-10-11_RICHARD CHILDRESS INTV_SE003105.NEW.01 
*TO CLIP NAME:  ERN_F5191_NSCR_2005-10-11_RICHARD CHILDRESS INTV_SE003105.NEW.01 
*SOURCE FILE: ERN_F5191_NSCR_2005-10-11_RICHARD CHILDRESS INTV_SE003105
000165  ERN_F5191_NSCR_2005-10-11_RICHARD_CHILDRESS_INTV_SE003105                                                                         A18   C        00:14:11:24 00:14:11:28 00:03:04:10 00:03:04:13 
M2      ERN_F5191_NSCR_2005-10-11_RICHARD_CHILDRESS_INTV_SE003105                                                                                  030.0 00:14:11:24 
*FROM CLIP NAME:  ERN_F5191_NSCR_2005-10-11_RICHARD CHILDRESS INTV_SE003105.NEW.01 
*SOURCE FILE: ERN_F5191_NSCR_2005-10-11_RICHARD CHILDRESS INTV_SE003105
000166  ERN_F5191_NSCR_2005-10-11_RICHARD_CHILDRESS_INTV_SE003105                                                                         A18   C        00:14:24:10 00:14:24:14 00:03:04:13 00:03:04:16 
M2      ERN_F5191_NSCR_2005-10-11_RICHARD_CHILDRESS_INTV_SE003105                                                                                  030.0 00:14:24:10 
*FROM CLIP NAME:  ERN_F5191_NSCR_2005-10-11_RICHARD CHILDRESS INTV_SE003105.NEW.01 
*TO CLIP NAME:  ERN_F5191_NSCR_2005-10-11_RICHARD CHILDRESS INTV_SE003105.NEW.01 
*SOURCE FILE: ERN_F5191_NSCR_2005-10-11_RICHARD CHILDRESS INTV_SE003105
000167  ERN_F5191_NSCR_2005-10-11_RICHARD_CHILDRESS_INTV_SE003105                                                                         A18   C        00:14:24:14 00:14:25:08 00:03:04:16 00:03:05:11 
M2      ERN_F5191_NSCR_2005-10-11_RICHARD_CHILDRESS_INTV_SE003105                                                                                  030.0 00:14:24:14 
*FROM CLIP NAME:  ERN_F5191_NSCR_2005-10-11_RICHARD CHILDRESS INTV_SE003105.NEW.01 
*SOURCE FILE: ERN_F5191_NSCR_2005-10-11_RICHARD CHILDRESS INTV_SE003105
000168  ERN_F5191_NSCR_2005-10-11_RICHARD_CHILDRESS_INTV_SE003105                                                                         A18   C        00:14:26:16 00:14:26:19 00:03:05:11 00:03:05:13 
M2      ERN_F5191_NSCR_2005-10-11_RICHARD_CHILDRESS_INTV_SE003105                                                                                  030.0 00:14:26:16 
*FROM CLIP NAME:  ERN_F5191_NSCR_2005-10-11_RICHARD CHILDRESS INTV_SE003105.NEW.01 
*TO CLIP NAME:  ERN_F5191_NSCR_2005-10-11_RICHARD CHILDRESS INTV_SE003105.NEW.01 
*SOURCE FILE: ERN_F5191_NSCR_2005-10-11_RICHARD CHILDRESS INTV_SE003105
000169  ERN_F5191_NSCR_2005-10-11_RICHARD_CHILDRESS_INTV_SE003105                                                                         A18   C        00:14:26:19 00:14:29:04 00:03:05:13 00:03:08:01 
M2      ERN_F5191_NSCR_2005-10-11_RICHARD_CHILDRESS_INTV_SE003105                                                                                  030.0 00:14:26:19 
*FROM CLIP NAME:  ERN_F5191_NSCR_2005-10-11_RICHARD CHILDRESS INTV_SE003105.NEW.01 
*SOURCE FILE: ERN_F5191_NSCR_2005-10-11_RICHARD CHILDRESS INTV_SE003105
000170  ERN_F5191_NSCR_2005-10-11_RICHARD_CHILDRESS_INTV_SE003105                                                                         V     C        00:14:27:12 00:14:34:02 00:03:06:08 00:03:12:23 
M2      ERN_F5191_NSCR_2005-10-11_RICHARD_CHILDRESS_INTV_SE003105                                                                                  030.0 00:14:27:12 
*FROM CLIP NAME:  ERN_F5191_NSCR_2005-10-11_RICHARD CHILDRESS INTV_SE003105.NEW.01 
*SOURCE FILE: ERN_F5191_NSCR_2005-10-11_RICHARD CHILDRESS INTV_SE003105
000171  ERN_F5191_NSCR_2005-10-11_RICHARD_CHILDRESS_INTV_SE003105                                                                         A18   C        00:14:29:04 00:14:30:04 00:03:08:01 00:03:09:01 
M2      ERN_F5191_NSCR_2005-10-11_RICHARD_CHILDRESS_INTV_SE003105                                                                                  030.0 00:14:29:04 
*FROM CLIP NAME:  ERN_F5191_NSCR_2005-10-11_RICHARD CHILDRESS INTV_SE003105.NEW.01 
*TO CLIP NAME:  ERN_F5191_NSCR_2005-10-11_RICHARD CHILDRESS INTV_SE003105.NEW.01 
*SOURCE FILE: ERN_F5191_NSCR_2005-10-11_RICHARD CHILDRESS INTV_SE003105
000172  ERN_F5191_NSCR_2005-10-11_RICHARD_CHILDRESS_INTV_SE003105                                                                         A18   C        00:14:30:04 00:14:33:23 00:03:09:01 00:03:12:16 
M2      ERN_F5191_NSCR_2005-10-11_RICHARD_CHILDRESS_INTV_SE003105                                                                                  030.0 00:14:30:04 
*FROM CLIP NAME:  ERN_F5191_NSCR_2005-10-11_RICHARD CHILDRESS INTV_SE003105.NEW.01 
*SOURCE FILE: ERN_F5191_NSCR_2005-10-11_RICHARD CHILDRESS INTV_SE003105
000173  ERN_F5191_NSCR_2005-10-11_RICHARD_CHILDRESS_INTV_SE003105                                                                         A20   C        00:14:45:01 00:14:45:04 00:03:12:08 00:03:12:10 
M2      ERN_F5191_NSCR_2005-10-11_RICHARD_CHILDRESS_INTV_SE003105                                                                                  030.0 00:14:45:01 
*FROM CLIP NAME:  ERN_F5191_NSCR_2005-10-11_RICHARD CHILDRESS INTV_SE003105.NEW.01 
*SOURCE FILE: ERN_F5191_NSCR_2005-10-11_RICHARD CHILDRESS INTV_SE003105
000174  ERN_F5191_NSCR_2005-10-11_RICHARD_CHILDRESS_INTV_SE003105                                                                         A20   C        00:14:45:04 00:14:51:22 00:03:12:10 00:03:19:00 
M2      ERN_F5191_NSCR_2005-10-11_RICHARD_CHILDRESS_INTV_SE003105                                                                                  030.0 00:14:45:04 
*FROM CLIP NAME:  ERN_F5191_NSCR_2005-10-11_RICHARD CHILDRESS INTV_SE003105.NEW.01 
*SOURCE FILE: ERN_F5191_NSCR_2005-10-11_RICHARD CHILDRESS INTV_SE003105
000175  ERN_F5191_NSCR_2005-10-11_RICHARD_CHILDRESS_INTV_SE003105                                                                         V     C        00:14:45:20 00:14:51:22 00:03:12:23 00:03:19:00 
M2      ERN_F5191_NSCR_2005-10-11_RICHARD_CHILDRESS_INTV_SE003105                                                                                  030.0 00:14:45:20 
*FROM CLIP NAME:  ERN_F5191_NSCR_2005-10-11_RICHARD CHILDRESS INTV_SE003105.NEW.01 
*SOURCE FILE: ERN_F5191_NSCR_2005-10-11_RICHARD CHILDRESS INTV_SE003105
000176  87-EV-0313                                                                                                                        V     C        00:10:30:20 00:10:30:22 00:03:19:00 00:03:27:16 
M2      87-EV-0313                                                                                                                                -030.0 00:10:30:20 
*FROM CLIP NAME:  87-EV-0313 
*SOURCE FILE: 87-EV-0313
000177  ERN_F5191_NSCR_2005-10-11_RICHARD_CHILDRESS_INTV_SE003105                                                                         A20   C        00:14:53:09 00:14:53:14 00:03:21:04 00:03:21:08 
M2      ERN_F5191_NSCR_2005-10-11_RICHARD_CHILDRESS_INTV_SE003105                                                                                  030.0 00:14:53:09 
*FROM CLIP NAME:  ERN_F5191_NSCR_2005-10-11_RICHARD CHILDRESS INTV_SE003105.NEW.01 
*SOURCE FILE: ERN_F5191_NSCR_2005-10-11_RICHARD CHILDRESS INTV_SE003105
000178  ERN_F5191_NSCR_2005-10-11_RICHARD_CHILDRESS_INTV_SE003105                                                                         A20   C        00:14:53:14 00:14:53:23 00:03:21:08 00:03:21:15 
M2      ERN_F5191_NSCR_2005-10-11_RICHARD_CHILDRESS_INTV_SE003105                                                                                  030.0 00:14:53:14 
*FROM CLIP NAME:  ERN_F5191_NSCR_2005-10-11_RICHARD CHILDRESS INTV_SE003105.NEW.01 
*SOURCE FILE: ERN_F5191_NSCR_2005-10-11_RICHARD CHILDRESS INTV_SE003105
000179  ERN_F0366_FOXS_1987-04-30_NEWS_INTV_BILL_ELLIOT_NEIL_BONNETT_DALE_EARNHARDT_TALLADEGA_QUALIFYING_1002762_013                      A20   C        00:01:29:07 00:01:29:12 00:03:23:18 00:03:23:21 
M2      ERN_F0366_FOXS_1987-04-30_NEWS_INTV_BILL_ELLIOT_NEIL_BONNETT_DALE_EARNHARDT_TALLADEGA_QUALIFYING_1002762_013                               030.0 00:01:29:07 
*FROM CLIP NAME:  ERN_F0366_FOXS_1987-04-30_NEWS INTV BILL ELLIOT NEIL BONNETT DALE EARNHARDT TALLADEGA QUALIFYING_1002762_013.NEW.01 
*SOURCE FILE: ERN_F0366_FOXS_1987-04-30_NEWS INTV BILL ELLIOT NEIL BONNETT DALE EARNHARDT TALLADEGA QUALIFYING_1002762_013
000180  ERN_F0366_FOXS_1987-04-30_NEWS_INTV_BILL_ELLIOT_NEIL_BONNETT_DALE_EARNHARDT_TALLADEGA_QUALIFYING_1002762_013                      A20   C        00:01:29:11 00:01:32:22 00:03:23:21 00:03:27:05 
M2      ERN_F0366_FOXS_1987-04-30_NEWS_INTV_BILL_ELLIOT_NEIL_BONNETT_DALE_EARNHARDT_TALLADEGA_QUALIFYING_1002762_013                               030.0 00:01:29:11 
*FROM CLIP NAME:  ERN_F0366_FOXS_1987-04-30_NEWS INTV BILL ELLIOT NEIL BONNETT DALE EARNHARDT TALLADEGA QUALIFYING_1002762_013.NEW.01 
*SOURCE FILE: ERN_F0366_FOXS_1987-04-30_NEWS INTV BILL ELLIOT NEIL BONNETT DALE EARNHARDT TALLADEGA QUALIFYING_1002762_013
000181  ERN_F0935_NSCR_1987-04-12_RACE_INTV_DESR_NO3_VALLEYDALE_MEATS_500_&_OTHER_RACES_STERLING                                          A18   C        00:00:03:03 00:00:04:04 00:03:27:03 00:03:28:03 
M2      ERN_F0935_NSCR_1987-04-12_RACE_INTV_DESR_NO3_VALLEYDALE_MEATS_500_&_OTHER_RACES_STERLING                                                   060.0 00:00:03:03 
*FROM CLIP NAME:  ERN_F0935_NSCR_1987-04-12_RACE INTV DESR NO3 VALLEYDALE MEATS 500 & OTHER RACES_STERLING.NEW.01 
*SOURCE FILE: ERN_F0935_NSCR_1987-04-12_RACE INTV DESR NO3 VALLEYDALE MEATS 500 & OTHER RACES_STERLING
000182  ERN_F1942_NSCR_1987-04-12_BRISTOL-VALLEYDALE_500_RACE_B-ROLL_WINNER_DESR_87-EV-0075                                               V     C        00:15:41:28 00:15:47:17 00:03:27:16 00:03:33:07 
M2      ERN_F1942_NSCR_1987-04-12_BRISTOL-VALLEYDALE_500_RACE_B-ROLL_WINNER_DESR_87-EV-0075                                                        030.0 00:15:41:28 
*FROM CLIP NAME:  ERN_F1942_NSCR_1987-04-12_BRISTOL-VALLEYDALE 500 RACE B-ROLL WINNER DESR_87-EV-0075.NEW.01 
*SOURCE FILE: ERN_F1942_NSCR_1987-04-12_BRISTOL-VALLEYDALE 500 RACE B-ROLL WINNER DESR_87-EV-0075
000183  ERN_F0366_FOXS_1987-04-30_NEWS_INTV_BILL_ELLIOT_NEIL_BONNETT_DALE_EARNHARDT_TALLADEGA_QUALIFYING_1002762_013                      A20   C        00:01:32:26 00:01:33:02 00:03:27:20 00:03:28:00 
M2      ERN_F0366_FOXS_1987-04-30_NEWS_INTV_BILL_ELLIOT_NEIL_BONNETT_DALE_EARNHARDT_TALLADEGA_QUALIFYING_1002762_013                               030.0 00:01:32:26 
*FROM CLIP NAME:  ERN_F0366_FOXS_1987-04-30_NEWS INTV BILL ELLIOT NEIL BONNETT DALE EARNHARDT TALLADEGA QUALIFYING_1002762_013.NEW.01 
*SOURCE FILE: ERN_F0366_FOXS_1987-04-30_NEWS INTV BILL ELLIOT NEIL BONNETT DALE EARNHARDT TALLADEGA QUALIFYING_1002762_013
000184  ERN_F0366_FOXS_1987-04-30_NEWS_INTV_BILL_ELLIOT_NEIL_BONNETT_DALE_EARNHARDT_TALLADEGA_QUALIFYING_1002762_013                      A20   C        00:01:33:01 00:01:35:17 00:03:28:00 00:03:30:12 
M2      ERN_F0366_FOXS_1987-04-30_NEWS_INTV_BILL_ELLIOT_NEIL_BONNETT_DALE_EARNHARDT_TALLADEGA_QUALIFYING_1002762_013                               030.0 00:01:33:01 
*FROM CLIP NAME:  ERN_F0366_FOXS_1987-04-30_NEWS INTV BILL ELLIOT NEIL BONNETT DALE EARNHARDT TALLADEGA QUALIFYING_1002762_013.NEW.01 
*SOURCE FILE: ERN_F0366_FOXS_1987-04-30_NEWS INTV BILL ELLIOT NEIL BONNETT DALE EARNHARDT TALLADEGA QUALIFYING_1002762_013
000185  ERN_F0935_NSCR_1987-04-12_RACE_INTV_DESR_NO3_VALLEYDALE_MEATS_500_&_OTHER_RACES_STERLING                                          A18   C        00:00:04:03 00:00:05:22 00:03:28:03 00:03:29:18 
M2      ERN_F0935_NSCR_1987-04-12_RACE_INTV_DESR_NO3_VALLEYDALE_MEATS_500_&_OTHER_RACES_STERLING                                                   060.0 00:00:04:03 
*FROM CLIP NAME:  ERN_F0935_NSCR_1987-04-12_RACE INTV DESR NO3 VALLEYDALE MEATS 500 & OTHER RACES_STERLING.NEW.01 
*SOURCE FILE: ERN_F0935_NSCR_1987-04-12_RACE INTV DESR NO3 VALLEYDALE MEATS 500 & OTHER RACES_STERLING
000186  ERN_F0935_NSCR_1987-04-12_RACE_INTV_DESR_NO3_VALLEYDALE_MEATS_500_&_OTHER_RACES_STERLING                                          A18   C        00:00:05:22 00:00:07:02 00:03:29:18 00:03:31:02 
M2      ERN_F0935_NSCR_1987-04-12_RACE_INTV_DESR_NO3_VALLEYDALE_MEATS_500_&_OTHER_RACES_STERLING                                                   060.0 00:00:05:22 
*FROM CLIP NAME:  ERN_F0935_NSCR_1987-04-12_RACE INTV DESR NO3 VALLEYDALE MEATS 500 & OTHER RACES_STERLING.NEW.01 
*TO CLIP NAME:  ERN_F0935_NSCR_1987-04-12_RACE INTV DESR NO3 VALLEYDALE MEATS 500 & OTHER RACES_STERLING.NEW.01 
*SOURCE FILE: ERN_F0935_NSCR_1987-04-12_RACE INTV DESR NO3 VALLEYDALE MEATS 500 & OTHER RACES_STERLING
000187  ERN_F0653_NSCR_1990-01-04_DESR_RACE_NASCAR_CUP_SERIES_-_DARLINGTON_90-EV-0664                                                     A22   C        01:08:27:21 01:08:29:22 00:03:29:22 00:03:31:22 
M2      ERN_F0653_NSCR_1990-01-04_DESR_RACE_NASCAR_CUP_SERIES_-_DARLINGTON_90-EV-0664                                                              030.0 01:08:27:21 
*FROM CLIP NAME:  ERN_F0653_NSCR_1990-01-04_DESR RACE NASCAR CUP SERIES - DARLINGTON_90-EV-0664.NEW.01 
*SOURCE FILE: ERN_F0653_NSCR_1990-01-04_DESR RACE NASCAR CUP SERIES - DARLINGTON_90-EV-0664
000188  ERN_F0935_NSCR_1987-04-12_RACE_INTV_DESR_NO3_VALLEYDALE_MEATS_500_&_OTHER_RACES_STERLING                                          A18   C        00:00:07:02 00:00:08:11 00:03:31:02 00:03:32:09 
M2      ERN_F0935_NSCR_1987-04-12_RACE_INTV_DESR_NO3_VALLEYDALE_MEATS_500_&_OTHER_RACES_STERLING                                                   060.0 00:00:07:02 
*FROM CLIP NAME:  ERN_F0935_NSCR_1987-04-12_RACE INTV DESR NO3 VALLEYDALE MEATS 500 & OTHER RACES_STERLING.NEW.01 
*SOURCE FILE: ERN_F0935_NSCR_1987-04-12_RACE INTV DESR NO3 VALLEYDALE MEATS 500 & OTHER RACES_STERLING
000189  ERN_F0653_NSCR_1990-01-04_DESR_RACE_NASCAR_CUP_SERIES_-_DARLINGTON_90-EV-0664                                                     A22   C        01:08:29:21 01:08:31:22 00:03:31:22 00:03:33:22 
M2      ERN_F0653_NSCR_1990-01-04_DESR_RACE_NASCAR_CUP_SERIES_-_DARLINGTON_90-EV-0664                                                              030.0 01:08:29:21 
*FROM CLIP NAME:  ERN_F0653_NSCR_1990-01-04_DESR RACE NASCAR CUP SERIES - DARLINGTON_90-EV-0664.NEW.01 
*TO CLIP NAME:  ERN_F0653_NSCR_1990-01-04_DESR RACE NASCAR CUP SERIES - DARLINGTON_90-EV-0664.NEW.01 
*SOURCE FILE: ERN_F0653_NSCR_1990-01-04_DESR RACE NASCAR CUP SERIES - DARLINGTON_90-EV-0664
000190  ERN_F0935_NSCR_1987-04-12_RACE_INTV_DESR_NO3_VALLEYDALE_MEATS_500_&_OTHER_RACES_STERLING                                          A18   C        00:00:08:11 00:00:10:11 00:03:32:09 00:03:34:09 
M2      ERN_F0935_NSCR_1987-04-12_RACE_INTV_DESR_NO3_VALLEYDALE_MEATS_500_&_OTHER_RACES_STERLING                                                   060.0 00:00:08:11 
*FROM CLIP NAME:  ERN_F0935_NSCR_1987-04-12_RACE INTV DESR NO3 VALLEYDALE MEATS 500 & OTHER RACES_STERLING.NEW.01 
*TO CLIP NAME:  ERN_F0935_NSCR_1987-04-12_RACE INTV DESR NO3 VALLEYDALE MEATS 500 & OTHER RACES_STERLING.NEW.01 
*SOURCE FILE: ERN_F0935_NSCR_1987-04-12_RACE INTV DESR NO3 VALLEYDALE MEATS 500 & OTHER RACES_STERLING
000191  ERN_F0935_NSCR_1987-04-12_RACE_INTV_DESR_NO3_VALLEYDALE_MEATS_500_&_OTHER_RACES_STERLING                                          A20   C        00:00:32:00 00:00:33:00 00:03:32:19 00:03:33:19 
M2      ERN_F0935_NSCR_1987-04-12_RACE_INTV_DESR_NO3_VALLEYDALE_MEATS_500_&_OTHER_RACES_STERLING                                                   060.0 00:00:32:00 
*FROM CLIP NAME:  ERN_F0935_NSCR_1987-04-12_RACE INTV DESR NO3 VALLEYDALE MEATS 500 & OTHER RACES_STERLING.NEW.01 
*SOURCE FILE: ERN_F0935_NSCR_1987-04-12_RACE INTV DESR NO3 VALLEYDALE MEATS 500 & OTHER RACES_STERLING
000192  87-EV-0079                                                                                                                        V     C        00:09:19:22 00:09:25:09 00:03:33:07 00:03:38:20 
M2      87-EV-0079                                                                                                                                 030.0 00:09:19:22 
*FROM CLIP NAME:  87-EV-0079 
*SOURCE FILE: 87-EV-0079
000193  ERN_F0935_NSCR_1987-04-12_RACE_INTV_DESR_NO3_VALLEYDALE_MEATS_500_&_OTHER_RACES_STERLING                                          A20   C        00:00:33:00 00:00:34:04 00:03:33:19 00:03:34:22 
M2      ERN_F0935_NSCR_1987-04-12_RACE_INTV_DESR_NO3_VALLEYDALE_MEATS_500_&_OTHER_RACES_STERLING                                                   060.0 00:00:33:00 
*FROM CLIP NAME:  ERN_F0935_NSCR_1987-04-12_RACE INTV DESR NO3 VALLEYDALE MEATS 500 & OTHER RACES_STERLING.NEW.01 
*SOURCE FILE: ERN_F0935_NSCR_1987-04-12_RACE INTV DESR NO3 VALLEYDALE MEATS 500 & OTHER RACES_STERLING
000194  ERN_F0653_NSCR_1990-01-04_DESR_RACE_NASCAR_CUP_SERIES_-_DARLINGTON_90-EV-0664                                                     A22   C        01:08:31:21 01:08:32:22 00:03:33:22 00:03:34:22 
M2      ERN_F0653_NSCR_1990-01-04_DESR_RACE_NASCAR_CUP_SERIES_-_DARLINGTON_90-EV-0664                                                              030.0 01:08:31:21 
*FROM CLIP NAME:  ERN_F0653_NSCR_1990-01-04_DESR RACE NASCAR CUP SERIES - DARLINGTON_90-EV-0664.NEW.01 
*SOURCE FILE: ERN_F0653_NSCR_1990-01-04_DESR RACE NASCAR CUP SERIES - DARLINGTON_90-EV-0664
000195  ERN_F0935_NSCR_1987-04-12_RACE_INTV_DESR_NO3_VALLEYDALE_MEATS_500_&_OTHER_RACES_STERLING                                          A18   C        00:00:10:11 00:00:10:27 00:03:34:09 00:03:34:22 
M2      ERN_F0935_NSCR_1987-04-12_RACE_INTV_DESR_NO3_VALLEYDALE_MEATS_500_&_OTHER_RACES_STERLING                                                   060.0 00:00:10:11 
*FROM CLIP NAME:  ERN_F0935_NSCR_1987-04-12_RACE INTV DESR NO3 VALLEYDALE MEATS 500 & OTHER RACES_STERLING.NEW.01 
*SOURCE FILE: ERN_F0935_NSCR_1987-04-12_RACE INTV DESR NO3 VALLEYDALE MEATS 500 & OTHER RACES_STERLING
000196  ERN_F0935_NSCR_1987-04-12_RACE_INTV_DESR_NO3_VALLEYDALE_MEATS_500_&_OTHER_RACES_STERLING                                          A18   C        00:00:10:27 00:00:13:05 00:03:34:22 00:03:37:04 
M2      ERN_F0935_NSCR_1987-04-12_RACE_INTV_DESR_NO3_VALLEYDALE_MEATS_500_&_OTHER_RACES_STERLING                                                   060.0 00:00:10:27 
*FROM CLIP NAME:  ERN_F0935_NSCR_1987-04-12_RACE INTV DESR NO3 VALLEYDALE MEATS 500 & OTHER RACES_STERLING.NEW.01 
*TO CLIP NAME:  ERN_F0935_NSCR_1987-04-12_RACE INTV DESR NO3 VALLEYDALE MEATS 500 & OTHER RACES_STERLING.NEW.01 
*SOURCE FILE: ERN_F0935_NSCR_1987-04-12_RACE INTV DESR NO3 VALLEYDALE MEATS 500 & OTHER RACES_STERLING
000197  ERN_F0935_NSCR_1987-04-12_RACE_INTV_DESR_NO3_VALLEYDALE_MEATS_500_&_OTHER_RACES_STERLING                                          A20   C        00:00:34:03 00:00:36:11 00:03:34:22 00:03:37:04 
M2      ERN_F0935_NSCR_1987-04-12_RACE_INTV_DESR_NO3_VALLEYDALE_MEATS_500_&_OTHER_RACES_STERLING                                                   060.0 00:00:34:03 
*FROM CLIP NAME:  ERN_F0935_NSCR_1987-04-12_RACE INTV DESR NO3 VALLEYDALE MEATS 500 & OTHER RACES_STERLING.NEW.01 
*TO CLIP NAME:  ERN_F0935_NSCR_1987-04-12_RACE INTV DESR NO3 VALLEYDALE MEATS 500 & OTHER RACES_STERLING.NEW.01 
*SOURCE FILE: ERN_F0935_NSCR_1987-04-12_RACE INTV DESR NO3 VALLEYDALE MEATS 500 & OTHER RACES_STERLING
000198  ERN_F0653_NSCR_1990-01-04_DESR_RACE_NASCAR_CUP_SERIES_-_DARLINGTON_90-EV-0664                                                     A22   C        01:08:32:21 01:08:34:29 00:03:34:22 00:03:37:04 
M2      ERN_F0653_NSCR_1990-01-04_DESR_RACE_NASCAR_CUP_SERIES_-_DARLINGTON_90-EV-0664                                                              030.0 01:08:32:21 
*FROM CLIP NAME:  ERN_F0653_NSCR_1990-01-04_DESR RACE NASCAR CUP SERIES - DARLINGTON_90-EV-0664.NEW.01 
*TO CLIP NAME:  ERN_F0653_NSCR_1990-01-04_DESR RACE NASCAR CUP SERIES - DARLINGTON_90-EV-0664.NEW.01 
*SOURCE FILE: ERN_F0653_NSCR_1990-01-04_DESR RACE NASCAR CUP SERIES - DARLINGTON_90-EV-0664
000199  ERN_F9703_NSCR_1988-07-01_RACE_INTV_DESR_IROC_WATKINS_GLEN_FEATURE_1988-NAS-00098_S001                                            A24   C        14:42:16:04 14:42:16:13 00:03:36:04 00:03:36:10 
M2      ERN_F9703_NSCR_1988-07-01_RACE_INTV_DESR_IROC_WATKINS_GLEN_FEATURE_1988-NAS-00098_S001                                                     030.0 14:42:16:04 
*FROM CLIP NAME:  ERN_F9703_NSCR_1988-07-01_RACE INTV DESR IROC WATKINS GLEN FEATURE_1988-NAS-00098_S001.NEW.01 
*SOURCE FILE: ERN_F9703_NSCR_1988-07-01_RACE INTV DESR IROC WATKINS GLEN FEATURE_1988-NAS-00098_S001
000200  ERN_F9703_NSCR_1988-07-01_RACE_INTV_DESR_IROC_WATKINS_GLEN_FEATURE_1988-NAS-00098_S001                                            A24   C        14:42:16:12 14:42:17:25 00:03:36:10 00:03:37:20 
M2      ERN_F9703_NSCR_1988-07-01_RACE_INTV_DESR_IROC_WATKINS_GLEN_FEATURE_1988-NAS-00098_S001                                                     030.0 14:42:16:12 
*FROM CLIP NAME:  ERN_F9703_NSCR_1988-07-01_RACE INTV DESR IROC WATKINS GLEN FEATURE_1988-NAS-00098_S001.NEW.01 
*SOURCE FILE: ERN_F9703_NSCR_1988-07-01_RACE INTV DESR IROC WATKINS GLEN FEATURE_1988-NAS-00098_S001
000201  ERN_F0653_NSCR_1990-01-04_DESR_RACE_NASCAR_CUP_SERIES_-_DARLINGTON_90-EV-0664                                                     A22   C        01:08:34:28 01:08:35:29 00:03:37:04 00:03:38:04 
M2      ERN_F0653_NSCR_1990-01-04_DESR_RACE_NASCAR_CUP_SERIES_-_DARLINGTON_90-EV-0664                                                              030.0 01:08:34:28 
*FROM CLIP NAME:  ERN_F0653_NSCR_1990-01-04_DESR RACE NASCAR CUP SERIES - DARLINGTON_90-EV-0664.NEW.01 
*SOURCE FILE: ERN_F0653_NSCR_1990-01-04_DESR RACE NASCAR CUP SERIES - DARLINGTON_90-EV-0664
000202  ERN_F0935_NSCR_1987-04-12_RACE_INTV_DESR_NO3_VALLEYDALE_MEATS_500_&_OTHER_RACES_STERLING                                          A20   C        00:00:36:11 00:00:37:14 00:03:37:04 00:03:38:06 
M2      ERN_F0935_NSCR_1987-04-12_RACE_INTV_DESR_NO3_VALLEYDALE_MEATS_500_&_OTHER_RACES_STERLING                                                   060.0 00:00:36:11 
*FROM CLIP NAME:  ERN_F0935_NSCR_1987-04-12_RACE INTV DESR NO3 VALLEYDALE MEATS 500 & OTHER RACES_STERLING.NEW.01 
*SOURCE FILE: ERN_F0935_NSCR_1987-04-12_RACE INTV DESR NO3 VALLEYDALE MEATS 500 & OTHER RACES_STERLING
000203  ERN_F9703_NSCR_1988-07-01_RACE_INTV_DESR_IROC_WATKINS_GLEN_FEATURE_1988-NAS-00098_S001                                            A24   C        14:42:20:11 14:42:20:19 00:03:38:11 00:03:38:17 
M2      ERN_F9703_NSCR_1988-07-01_RACE_INTV_DESR_IROC_WATKINS_GLEN_FEATURE_1988-NAS-00098_S001                                                     030.0 14:42:20:11 
*FROM CLIP NAME:  ERN_F9703_NSCR_1988-07-01_RACE INTV DESR IROC WATKINS GLEN FEATURE_1988-NAS-00098_S001.NEW.01 
*SOURCE FILE: ERN_F9703_NSCR_1988-07-01_RACE INTV DESR IROC WATKINS GLEN FEATURE_1988-NAS-00098_S001
000204  ERN_F9703_NSCR_1988-07-01_RACE_INTV_DESR_IROC_WATKINS_GLEN_FEATURE_1988-NAS-00098_S001                                            A24   C        14:42:20:18 14:42:25:21 00:03:38:17 00:03:43:19 
M2      ERN_F9703_NSCR_1988-07-01_RACE_INTV_DESR_IROC_WATKINS_GLEN_FEATURE_1988-NAS-00098_S001                                                     030.0 14:42:20:18 
*FROM CLIP NAME:  ERN_F9703_NSCR_1988-07-01_RACE INTV DESR IROC WATKINS GLEN FEATURE_1988-NAS-00098_S001.NEW.01 
*SOURCE FILE: ERN_F9703_NSCR_1988-07-01_RACE INTV DESR IROC WATKINS GLEN FEATURE_1988-NAS-00098_S001
000205  ERN_F9703_NSCR_1988-07-01_RACE_INTV_DESR_IROC_WATKINS_GLEN_FEATURE_1988-NAS-00098_S001                                            V     C        14:42:20:22 14:42:25:21 00:03:38:20 00:03:43:19 
M2      ERN_F9703_NSCR_1988-07-01_RACE_INTV_DESR_IROC_WATKINS_GLEN_FEATURE_1988-NAS-00098_S001                                                     030.0 14:42:20:22 
*FROM CLIP NAME:  ERN_F9703_NSCR_1988-07-01_RACE INTV DESR IROC WATKINS GLEN FEATURE_1988-NAS-00098_S001.NEW.01 
*SOURCE FILE: ERN_F9703_NSCR_1988-07-01_RACE INTV DESR IROC WATKINS GLEN FEATURE_1988-NAS-00098_S001
000206  ERN_F5188_NSCR_1983-04-12_BRISTOL_VALLEYDALE_500-RACE_B-ROLL_VICTORY_LANE_TROPHY_DESR_WINNER_DESR_INTV_SE003352                   V     C        00:04:42:02 00:04:47:14 00:03:43:19 00:03:49:04 
M2      ERN_F5188_NSCR_1983-04-12_BRISTOL_VALLEYDALE_500-RACE_B-ROLL_VICTORY_LANE_TROPHY_DESR_WINNER_DESR_INTV_SE003352                            030.0 00:04:42:02 
*FROM CLIP NAME:  ERN_F5188_NSCR_1987-04-12_BRISTOL VALLEYDALE 500-RACE B-ROLL VICTORY LANE TROPHY DESR WINNER DESR INTV_SE003352.NEW.01 
*SOURCE FILE: ERN_F5188_NSCR_1983-04-12_BRISTOL VALLEYDALE 500-RACE B-ROLL VICTORY LANE TROPHY DESR WINNER DESR INTV_SE003352
000207  ERN_F7930_NSCR_1987-04-26_RACE_HIGHLIGHTS_MARTINSVILLE_SOVRAN_BANK_500_DESR_TRACK_INTV_&_WIN_87-EV-0090A                          A18   C        01:07:25:24 01:07:25:29 00:03:45:12 00:03:45:16 
M2      ERN_F7930_NSCR_1987-04-26_RACE_HIGHLIGHTS_MARTINSVILLE_SOVRAN_BANK_500_DESR_TRACK_INTV_&_WIN_87-EV-0090A                                   030.0 01:07:25:24 
*FROM CLIP NAME:  ERN_F7930_NSCR_1987-04-26_RACE HIGHLIGHTS MARTINSVILLE SOVRAN BANK 500 DESR TRACK INTV & WIN_87-EV-0090A.NEW.01 
*SOURCE FILE: ERN_F7930_NSCR_1987-04-26_RACE HIGHLIGHTS MARTINSVILLE SOVRAN BANK 500 DESR TRACK INTV & WIN_87-EV-0090A
000208  ERN_F7930_NSCR_1987-04-26_RACE_HIGHLIGHTS_MARTINSVILLE_SOVRAN_BANK_500_DESR_TRACK_INTV_&_WIN_87-EV-0090A                          A18   C        01:07:25:29 01:07:27:14 00:03:45:16 00:03:47:04 
M2      ERN_F7930_NSCR_1987-04-26_RACE_HIGHLIGHTS_MARTINSVILLE_SOVRAN_BANK_500_DESR_TRACK_INTV_&_WIN_87-EV-0090A                                   030.0 01:07:25:29 
*FROM CLIP NAME:  ERN_F7930_NSCR_1987-04-26_RACE HIGHLIGHTS MARTINSVILLE SOVRAN BANK 500 DESR TRACK INTV & WIN_87-EV-0090A.NEW.01 
*SOURCE FILE: ERN_F7930_NSCR_1987-04-26_RACE HIGHLIGHTS MARTINSVILLE SOVRAN BANK 500 DESR TRACK INTV & WIN_87-EV-0090A
000209  ERN_F0790_NSCR_1987-05-17_RACE_DESR_WINNER_CHARLOTTE_-_THE_WINSTON_87-EV-0105                                                     V     C        00:15:49:12 00:15:51:23 00:03:49:04 00:03:51:12 
M2      ERN_F0790_NSCR_1987-05-17_RACE_DESR_WINNER_CHARLOTTE_-_THE_WINSTON_87-EV-0105                                                              030.0 00:15:49:12 
*FROM CLIP NAME:  ERN_F0790_NSCR_1987-05-17_RACE DESR WINNER CHARLOTTE - THE WINSTON_87-EV-0105.NEW.01 
*SOURCE FILE: ERN_F0790_NSCR_1987-05-17_RACE DESR WINNER CHARLOTTE - THE WINSTON_87-EV-0105
000210  ERN_F8876_NSCR_1988-10-16_RACE_B-ROLL_NORTH_WILKESBORO_HOLLY_FARMS_400_DESR_BONNETT_WALLACE_ELLIOT_88-EV-0365_S002                V     C        00:05:14:24 00:05:16:15 00:03:51:12 00:03:53:04 
M2      ERN_F8876_NSCR_1988-10-16_RACE_B-ROLL_NORTH_WILKESBORO_HOLLY_FARMS_400_DESR_BONNETT_WALLACE_ELLIOT_88-EV-0365_S002                         030.0 00:05:14:24 
*FROM CLIP NAME:  ERN_F8876_NSCR_1988-10-16_RACE B-ROLL NORTH WILKESBORO HOLLY FARMS 400 DESR BONNETT WALLACE ELLIOT_88-EV-0365_S002.NEW.01 
*SOURCE FILE: ERN_F8876_NSCR_1988-10-16_RACE B-ROLL NORTH WILKESBORO HOLLY FARMS 400 DESR BONNETT WALLACE ELLIOT_88-EV-0365_S002
000211  ERN_F0790_NSCR_1987-05-17_RACE_DESR_WINNER_CHARLOTTE_-_THE_WINSTON_87-EV-0105                                                     A20   C        00:08:15:20 00:08:16:21 00:03:52:16 00:03:53:16 
M2      ERN_F0790_NSCR_1987-05-17_RACE_DESR_WINNER_CHARLOTTE_-_THE_WINSTON_87-EV-0105                                                              030.0 00:08:15:20 
*FROM CLIP NAME:  ERN_F0790_NSCR_1987-05-17_RACE DESR WINNER CHARLOTTE - THE WINSTON_87-EV-0105.NEW.01 
*SOURCE FILE: ERN_F0790_NSCR_1987-05-17_RACE DESR WINNER CHARLOTTE - THE WINSTON_87-EV-0105
000212  ERN_F0795_NSCR_1987-05-17_RACE_DESR_WINNER_CHARLOTTE_-_THE_WINSTON_87-EV-0110                                                     V     C        00:02:46:28 00:02:51:05 00:03:53:04 00:03:57:09 
M2      ERN_F0795_NSCR_1987-05-17_RACE_DESR_WINNER_CHARLOTTE_-_THE_WINSTON_87-EV-0110                                                              030.0 00:02:46:28 
*FROM CLIP NAME:  ERN_F0795_NSCR_1987-05-17_RACE DESR WINNER CHARLOTTE - THE WINSTON_87-EV-0110.NEW.01 
*SOURCE FILE: ERN_F0795_NSCR_1987-05-17_RACE DESR WINNER CHARLOTTE - THE WINSTON_87-EV-0110
000213  ERN_F0790_NSCR_1987-05-17_RACE_DESR_WINNER_CHARLOTTE_-_THE_WINSTON_87-EV-0105                                                     A20   C        00:08:16:20 00:08:18:10 00:03:53:16 00:03:55:07 
M2      ERN_F0790_NSCR_1987-05-17_RACE_DESR_WINNER_CHARLOTTE_-_THE_WINSTON_87-EV-0105                                                              030.0 00:08:16:20 
*FROM CLIP NAME:  ERN_F0790_NSCR_1987-05-17_RACE DESR WINNER CHARLOTTE - THE WINSTON_87-EV-0105.NEW.01 
*SOURCE FILE: ERN_F0790_NSCR_1987-05-17_RACE DESR WINNER CHARLOTTE - THE WINSTON_87-EV-0105
000214  ERN_F0800_NSCR_1987-05-17_RACE_DESR_WINNER_BILL_ELLIOTT_CHARLOTTE_-_THE_WINSTON_87-EV-0287                                        A20   C        00:49:03:22 00:49:04:23 00:03:59:11 00:04:00:11 
M2      ERN_F0800_NSCR_1987-05-17_RACE_DESR_WINNER_BILL_ELLIOTT_CHARLOTTE_-_THE_WINSTON_87-EV-0287                                                 030.0 00:49:03:22 
*FROM CLIP NAME:  ERN_F0800_NSCR_1987-05-17_RACE DESR WINNER BILL ELLIOTT CHARLOTTE - THE WINSTON_87-EV-0287.NEW.01 
*SOURCE FILE: ERN_F0800_NSCR_1987-05-17_RACE DESR WINNER BILL ELLIOTT CHARLOTTE - THE WINSTON_87-EV-0287
000215  ERN_F0802_NSCR_1987-05-17_RACE_DESR_WINNER_BILL_ELLIOTT_CHARLOTTE_-_THE_WINSTON_87-EV-0397                                        V     C        17:38:15:21 17:38:21:04 00:03:59:23 00:04:05:09 
M2      ERN_F0802_NSCR_1987-05-17_RACE_DESR_WINNER_BILL_ELLIOTT_CHARLOTTE_-_THE_WINSTON_87-EV-0397                                                 030.0 17:38:15:21 
*FROM CLIP NAME:  ERN_F0802_NSCR_1987-05-17_RACE DESR WINNER BILL ELLIOTT CHARLOTTE - THE WINSTON_87-EV-0397.NEW.01 
*SOURCE FILE: ERN_F0802_NSCR_1987-05-17_RACE DESR WINNER BILL ELLIOTT CHARLOTTE - THE WINSTON_87-EV-0397
000216  ERN_F0800_NSCR_1987-05-17_RACE_DESR_WINNER_BILL_ELLIOTT_CHARLOTTE_-_THE_WINSTON_87-EV-0287                                        A20   C        00:49:04:22 00:49:05:27 00:04:00:11 00:04:01:14 
M2      ERN_F0800_NSCR_1987-05-17_RACE_DESR_WINNER_BILL_ELLIOTT_CHARLOTTE_-_THE_WINSTON_87-EV-0287                                                 030.0 00:49:04:22 
*FROM CLIP NAME:  ERN_F0800_NSCR_1987-05-17_RACE DESR WINNER BILL ELLIOTT CHARLOTTE - THE WINSTON_87-EV-0287.NEW.01 
*SOURCE FILE: ERN_F0800_NSCR_1987-05-17_RACE DESR WINNER BILL ELLIOTT CHARLOTTE - THE WINSTON_87-EV-0287
000217  ERN_F0800_NSCR_1987-05-17_RACE_DESR_WINNER_BILL_ELLIOTT_CHARLOTTE_-_THE_WINSTON_87-EV-0287                                        A20   C        00:49:05:26 00:49:07:27 00:04:01:14 00:04:03:14 
M2      ERN_F0800_NSCR_1987-05-17_RACE_DESR_WINNER_BILL_ELLIOTT_CHARLOTTE_-_THE_WINSTON_87-EV-0287                                                 030.0 00:49:05:26 
*FROM CLIP NAME:  ERN_F0800_NSCR_1987-05-17_RACE DESR WINNER BILL ELLIOTT CHARLOTTE - THE WINSTON_87-EV-0287.NEW.01 
*TO CLIP NAME:  ERN_F0800_NSCR_1987-05-17_RACE DESR WINNER BILL ELLIOTT CHARLOTTE - THE WINSTON_87-EV-0287.NEW.01 
*SOURCE FILE: ERN_F0800_NSCR_1987-05-17_RACE DESR WINNER BILL ELLIOTT CHARLOTTE - THE WINSTON_87-EV-0287
000218  ERN_F0800_NSCR_1987-05-17_RACE_DESR_WINNER_BILL_ELLIOTT_CHARLOTTE_-_THE_WINSTON_87-EV-0287                                        A18   C        00:49:05:07 00:49:06:23 00:04:02:06 00:04:03:18 
M2      ERN_F0800_NSCR_1987-05-17_RACE_DESR_WINNER_BILL_ELLIOTT_CHARLOTTE_-_THE_WINSTON_87-EV-0287                                                 030.0 00:49:05:07 
*FROM CLIP NAME:  ERN_F0800_NSCR_1987-05-17_RACE DESR WINNER BILL ELLIOTT CHARLOTTE - THE WINSTON_87-EV-0287.NEW.01 
*SOURCE FILE: ERN_F0800_NSCR_1987-05-17_RACE DESR WINNER BILL ELLIOTT CHARLOTTE - THE WINSTON_87-EV-0287
000219  ERN_F0800_NSCR_1987-05-17_RACE_DESR_WINNER_BILL_ELLIOTT_CHARLOTTE_-_THE_WINSTON_87-EV-0287                                        A20   C        00:49:07:26 00:49:09:08 00:04:03:14 00:04:04:23 
M2      ERN_F0800_NSCR_1987-05-17_RACE_DESR_WINNER_BILL_ELLIOTT_CHARLOTTE_-_THE_WINSTON_87-EV-0287                                                 030.0 00:49:07:26 
*FROM CLIP NAME:  ERN_F0800_NSCR_1987-05-17_RACE DESR WINNER BILL ELLIOTT CHARLOTTE - THE WINSTON_87-EV-0287.NEW.01 
*SOURCE FILE: ERN_F0800_NSCR_1987-05-17_RACE DESR WINNER BILL ELLIOTT CHARLOTTE - THE WINSTON_87-EV-0287
000220  ERN_F0800_NSCR_1987-05-17_RACE_DESR_WINNER_BILL_ELLIOTT_CHARLOTTE_-_THE_WINSTON_87-EV-0287                                        A18   C        00:49:06:22 00:49:09:13 00:04:03:18 00:04:06:10 
M2      ERN_F0800_NSCR_1987-05-17_RACE_DESR_WINNER_BILL_ELLIOTT_CHARLOTTE_-_THE_WINSTON_87-EV-0287                                                 030.0 00:49:06:22 
*FROM CLIP NAME:  ERN_F0800_NSCR_1987-05-17_RACE DESR WINNER BILL ELLIOTT CHARLOTTE - THE WINSTON_87-EV-0287.NEW.01 
*SOURCE FILE: ERN_F0800_NSCR_1987-05-17_RACE DESR WINNER BILL ELLIOTT CHARLOTTE - THE WINSTON_87-EV-0287
000221  ERN_F0790_NSCR_1987-05-17_RACE_DESR_WINNER_CHARLOTTE_-_THE_WINSTON_87-EV-0105                                                     A24   C        00:21:08:08 00:21:09:09 00:04:04:13 00:04:05:13 
M2      ERN_F0790_NSCR_1987-05-17_RACE_DESR_WINNER_CHARLOTTE_-_THE_WINSTON_87-EV-0105                                                              030.0 00:21:08:08 
*FROM CLIP NAME:  ERN_F0790_NSCR_1987-05-17_RACE DESR WINNER CHARLOTTE - THE WINSTON_87-EV-0105.NEW.01 
*SOURCE FILE: ERN_F0790_NSCR_1987-05-17_RACE DESR WINNER CHARLOTTE - THE WINSTON_87-EV-0105
000222  ERN_F0800_NSCR_1987-05-17_RACE_DESR_WINNER_BILL_ELLIOTT_CHARLOTTE_-_THE_WINSTON_87-EV-0287                                        A20   C        00:49:13:10 00:49:14:10 00:04:04:23 00:04:05:23 
M2      ERN_F0800_NSCR_1987-05-17_RACE_DESR_WINNER_BILL_ELLIOTT_CHARLOTTE_-_THE_WINSTON_87-EV-0287                                                 030.0 00:49:13:10 
*FROM CLIP NAME:  ERN_F0800_NSCR_1987-05-17_RACE DESR WINNER BILL ELLIOTT CHARLOTTE - THE WINSTON_87-EV-0287.NEW.01 
*TO CLIP NAME:  ERN_F0800_NSCR_1987-05-17_RACE DESR WINNER BILL ELLIOTT CHARLOTTE - THE WINSTON_87-EV-0287.NEW.01 
*SOURCE FILE: ERN_F0800_NSCR_1987-05-17_RACE DESR WINNER BILL ELLIOTT CHARLOTTE - THE WINSTON_87-EV-0287
000223  ERN_F0790_NSCR_1987-05-17_RACE_DESR_WINNER_CHARLOTTE_-_THE_WINSTON_87-EV-0105                                                     V     C        00:21:09:02 00:21:10:26 00:04:05:09 00:04:07:04 
M2      ERN_F0790_NSCR_1987-05-17_RACE_DESR_WINNER_CHARLOTTE_-_THE_WINSTON_87-EV-0105                                                              030.0 00:21:09:02 
*FROM CLIP NAME:  ERN_F0790_NSCR_1987-05-17_RACE DESR WINNER CHARLOTTE - THE WINSTON_87-EV-0105.NEW.01 
*SOURCE FILE: ERN_F0790_NSCR_1987-05-17_RACE DESR WINNER CHARLOTTE - THE WINSTON_87-EV-0105
000224  ERN_F0800_NSCR_1987-05-17_RACE_DESR_WINNER_BILL_ELLIOTT_CHARLOTTE_-_THE_WINSTON_87-EV-0287                                        A22   C        00:49:16:10 00:49:18:10 00:04:05:09 00:04:07:09 
M2      ERN_F0800_NSCR_1987-05-17_RACE_DESR_WINNER_BILL_ELLIOTT_CHARLOTTE_-_THE_WINSTON_87-EV-0287                                                 030.0 00:49:16:10 
*FROM CLIP NAME:  ERN_F0800_NSCR_1987-05-17_RACE DESR WINNER BILL ELLIOTT CHARLOTTE - THE WINSTON_87-EV-0287.NEW.01 
*SOURCE FILE: ERN_F0800_NSCR_1987-05-17_RACE DESR WINNER BILL ELLIOTT CHARLOTTE - THE WINSTON_87-EV-0287
000225  ERN_F0790_NSCR_1987-05-17_RACE_DESR_WINNER_CHARLOTTE_-_THE_WINSTON_87-EV-0105                                                     A24   C        00:21:09:08 00:21:10:22 00:04:05:13 00:04:06:23 
M2      ERN_F0790_NSCR_1987-05-17_RACE_DESR_WINNER_CHARLOTTE_-_THE_WINSTON_87-EV-0105                                                              030.0 00:21:09:08 
*FROM CLIP NAME:  ERN_F0790_NSCR_1987-05-17_RACE DESR WINNER CHARLOTTE - THE WINSTON_87-EV-0105.NEW.01 
*SOURCE FILE: ERN_F0790_NSCR_1987-05-17_RACE DESR WINNER CHARLOTTE - THE WINSTON_87-EV-0105
000226  ERN_F0800_NSCR_1987-05-17_RACE_DESR_WINNER_BILL_ELLIOTT_CHARLOTTE_-_THE_WINSTON_87-EV-0287                                        A20   C        00:49:14:10 00:49:16:09 00:04:05:23 00:04:07:22 
M2      ERN_F0800_NSCR_1987-05-17_RACE_DESR_WINNER_BILL_ELLIOTT_CHARLOTTE_-_THE_WINSTON_87-EV-0287                                                 030.0 00:49:14:10 
*FROM CLIP NAME:  ERN_F0800_NSCR_1987-05-17_RACE DESR WINNER BILL ELLIOTT CHARLOTTE - THE WINSTON_87-EV-0287.NEW.01 
*SOURCE FILE: ERN_F0800_NSCR_1987-05-17_RACE DESR WINNER BILL ELLIOTT CHARLOTTE - THE WINSTON_87-EV-0287
000227  ERN_F0800_NSCR_1987-05-17_RACE_DESR_WINNER_BILL_ELLIOTT_CHARLOTTE_-_THE_WINSTON_87-EV-0287                                        A18   C        00:49:19:01 00:49:20:17 00:04:07:01 00:04:08:13 
M2      ERN_F0800_NSCR_1987-05-17_RACE_DESR_WINNER_BILL_ELLIOTT_CHARLOTTE_-_THE_WINSTON_87-EV-0287                                                 030.0 00:49:19:01 
*FROM CLIP NAME:  ERN_F0800_NSCR_1987-05-17_RACE DESR WINNER BILL ELLIOTT CHARLOTTE - THE WINSTON_87-EV-0287.NEW.01 
*SOURCE FILE: ERN_F0800_NSCR_1987-05-17_RACE DESR WINNER BILL ELLIOTT CHARLOTTE - THE WINSTON_87-EV-0287
000228  ERN_F0800_NSCR_1987-05-17_RACE_DESR_WINNER_BILL_ELLIOTT_CHARLOTTE_-_THE_WINSTON_87-EV-0287                                        A26   C        00:49:23:25 00:49:25:10 00:04:07:01 00:04:08:13 
M2      ERN_F0800_NSCR_1987-05-17_RACE_DESR_WINNER_BILL_ELLIOTT_CHARLOTTE_-_THE_WINSTON_87-EV-0287                                                 030.0 00:49:23:25 
*FROM CLIP NAME:  ERN_F0800_NSCR_1987-05-17_RACE DESR WINNER BILL ELLIOTT CHARLOTTE - THE WINSTON_87-EV-0287.NEW.01 
*SOURCE FILE: ERN_F0800_NSCR_1987-05-17_RACE DESR WINNER BILL ELLIOTT CHARLOTTE - THE WINSTON_87-EV-0287
000229  ERN_F0802_NSCR_1987-05-17_RACE_DESR_WINNER_BILL_ELLIOTT_CHARLOTTE_-_THE_WINSTON_87-EV-0397                                        V     C        17:38:36:13 17:38:40:24 00:04:07:04 00:04:11:18 
M2      ERN_F0802_NSCR_1987-05-17_RACE_DESR_WINNER_BILL_ELLIOTT_CHARLOTTE_-_THE_WINSTON_87-EV-0397                                                 028.3 17:38:36:13 
*FROM CLIP NAME:  ERN_F0802_NSCR_1987-05-17_RACE DESR WINNER BILL ELLIOTT CHARLOTTE - THE WINSTON_87-EV-0397.NEW.01 
*SOURCE FILE: ERN_F0802_NSCR_1987-05-17_RACE DESR WINNER BILL ELLIOTT CHARLOTTE - THE WINSTON_87-EV-0397
000230  ERN_F0800_NSCR_1987-05-17_RACE_DESR_WINNER_BILL_ELLIOTT_CHARLOTTE_-_THE_WINSTON_87-EV-0287                                        A22   C        00:49:18:10 00:49:18:29 00:04:07:09 00:04:08:00 
M2      ERN_F0800_NSCR_1987-05-17_RACE_DESR_WINNER_BILL_ELLIOTT_CHARLOTTE_-_THE_WINSTON_87-EV-0287                                                 030.0 00:49:18:10 
*FROM CLIP NAME:  ERN_F0800_NSCR_1987-05-17_RACE DESR WINNER BILL ELLIOTT CHARLOTTE - THE WINSTON_87-EV-0287.NEW.01 
*SOURCE FILE: ERN_F0800_NSCR_1987-05-17_RACE DESR WINNER BILL ELLIOTT CHARLOTTE - THE WINSTON_87-EV-0287
000231  ERN_F0800_NSCR_1987-05-17_RACE_DESR_WINNER_BILL_ELLIOTT_CHARLOTTE_-_THE_WINSTON_87-EV-0287                                        A22   C        00:49:22:00 00:49:22:05 00:04:08:00 00:04:08:04 
M2      ERN_F0800_NSCR_1987-05-17_RACE_DESR_WINNER_BILL_ELLIOTT_CHARLOTTE_-_THE_WINSTON_87-EV-0287                                                 030.0 00:49:22:00 
*FROM CLIP NAME:  ERN_F0800_NSCR_1987-05-17_RACE DESR WINNER BILL ELLIOTT CHARLOTTE - THE WINSTON_87-EV-0287.NEW.01 
*TO CLIP NAME:  ERN_F0800_NSCR_1987-05-17_RACE DESR WINNER BILL ELLIOTT CHARLOTTE - THE WINSTON_87-EV-0287.NEW.01 
*SOURCE FILE: ERN_F0800_NSCR_1987-05-17_RACE DESR WINNER BILL ELLIOTT CHARLOTTE - THE WINSTON_87-EV-0287
000232  ERN_F0800_NSCR_1987-05-17_RACE_DESR_WINNER_BILL_ELLIOTT_CHARLOTTE_-_THE_WINSTON_87-EV-0287                                        A22   C        00:49:22:05 00:49:23:24 00:04:08:04 00:04:09:19 
M2      ERN_F0800_NSCR_1987-05-17_RACE_DESR_WINNER_BILL_ELLIOTT_CHARLOTTE_-_THE_WINSTON_87-EV-0287                                                 030.0 00:49:22:05 
*FROM CLIP NAME:  ERN_F0800_NSCR_1987-05-17_RACE DESR WINNER BILL ELLIOTT CHARLOTTE - THE WINSTON_87-EV-0287.NEW.01 
*SOURCE FILE: ERN_F0800_NSCR_1987-05-17_RACE DESR WINNER BILL ELLIOTT CHARLOTTE - THE WINSTON_87-EV-0287
000233  ERN_F0800_NSCR_1987-05-17_RACE_DESR_WINNER_BILL_ELLIOTT_CHARLOTTE_-_THE_WINSTON_87-EV-0287                                        A18   C        00:49:20:16 00:49:22:05 00:04:08:13 00:04:10:04 
M2      ERN_F0800_NSCR_1987-05-17_RACE_DESR_WINNER_BILL_ELLIOTT_CHARLOTTE_-_THE_WINSTON_87-EV-0287                                                 030.0 00:49:20:16 
*FROM CLIP NAME:  ERN_F0800_NSCR_1987-05-17_RACE DESR WINNER BILL ELLIOTT CHARLOTTE - THE WINSTON_87-EV-0287.NEW.01 
*SOURCE FILE: ERN_F0800_NSCR_1987-05-17_RACE DESR WINNER BILL ELLIOTT CHARLOTTE - THE WINSTON_87-EV-0287
000234  ERN_F0800_NSCR_1987-05-17_RACE_DESR_WINNER_BILL_ELLIOTT_CHARLOTTE_-_THE_WINSTON_87-EV-0287                                        A26   C        00:49:25:10 00:49:38:23 00:04:08:13 00:04:21:23 
M2      ERN_F0800_NSCR_1987-05-17_RACE_DESR_WINNER_BILL_ELLIOTT_CHARLOTTE_-_THE_WINSTON_87-EV-0287                                                 030.0 00:49:25:10 
*FROM CLIP NAME:  ERN_F0800_NSCR_1987-05-17_RACE DESR WINNER BILL ELLIOTT CHARLOTTE - THE WINSTON_87-EV-0287.NEW.01 
*SOURCE FILE: ERN_F0800_NSCR_1987-05-17_RACE DESR WINNER BILL ELLIOTT CHARLOTTE - THE WINSTON_87-EV-0287
000235  ERN_F0800_NSCR_1987-05-17_RACE_DESR_WINNER_BILL_ELLIOTT_CHARLOTTE_-_THE_WINSTON_87-EV-0287                                        A20   C        00:49:26:17 00:49:27:05 00:04:10:04 00:04:10:18 
M2      ERN_F0800_NSCR_1987-05-17_RACE_DESR_WINNER_BILL_ELLIOTT_CHARLOTTE_-_THE_WINSTON_87-EV-0287                                                 030.0 00:49:26:17 
*FROM CLIP NAME:  ERN_F0800_NSCR_1987-05-17_RACE DESR WINNER BILL ELLIOTT CHARLOTTE - THE WINSTON_87-EV-0287.NEW.01 
*SOURCE FILE: ERN_F0800_NSCR_1987-05-17_RACE DESR WINNER BILL ELLIOTT CHARLOTTE - THE WINSTON_87-EV-0287
000236  ERN_F0800_NSCR_1987-05-17_RACE_DESR_WINNER_BILL_ELLIOTT_CHARLOTTE_-_THE_WINSTON_87-EV-0287                                        A20   C        00:49:27:15 00:49:27:18 00:04:10:18 00:04:10:20 
M2      ERN_F0800_NSCR_1987-05-17_RACE_DESR_WINNER_BILL_ELLIOTT_CHARLOTTE_-_THE_WINSTON_87-EV-0287                                                 030.0 00:49:27:15 
*FROM CLIP NAME:  ERN_F0800_NSCR_1987-05-17_RACE DESR WINNER BILL ELLIOTT CHARLOTTE - THE WINSTON_87-EV-0287.NEW.01 
*TO CLIP NAME:  ERN_F0800_NSCR_1987-05-17_RACE DESR WINNER BILL ELLIOTT CHARLOTTE - THE WINSTON_87-EV-0287.NEW.01 
*SOURCE FILE: ERN_F0800_NSCR_1987-05-17_RACE DESR WINNER BILL ELLIOTT CHARLOTTE - THE WINSTON_87-EV-0287
000237  ERN_F0800_NSCR_1987-05-17_RACE_DESR_WINNER_BILL_ELLIOTT_CHARLOTTE_-_THE_WINSTON_87-EV-0287                                        A20   C        00:49:27:17 00:49:31:04 00:04:10:20 00:04:14:09 
M2      ERN_F0800_NSCR_1987-05-17_RACE_DESR_WINNER_BILL_ELLIOTT_CHARLOTTE_-_THE_WINSTON_87-EV-0287                                                 030.0 00:49:27:17 
*FROM CLIP NAME:  ERN_F0800_NSCR_1987-05-17_RACE DESR WINNER BILL ELLIOTT CHARLOTTE - THE WINSTON_87-EV-0287.NEW.01 
*SOURCE FILE: ERN_F0800_NSCR_1987-05-17_RACE DESR WINNER BILL ELLIOTT CHARLOTTE - THE WINSTON_87-EV-0287
000238  ERN_F0370_FOXS_1987-05-18_RACE_B-ROLL_DALE_EARNHARDT_BILL_ELLIOT_PASS_IN_THE_GRASS_1002772_018                                    V     C        00:00:12:14 00:00:14:16 00:04:11:18 00:04:14:07 
M2      ERN_F0370_FOXS_1987-05-18_RACE_B-ROLL_DALE_EARNHARDT_BILL_ELLIOT_PASS_IN_THE_GRASS_1002772_018                                             024.0 00:00:12:14 
*FROM CLIP NAME:  ERN_F0370_FOXS_1987-05-18_RACE B-ROLL DALE EARNHARDT BILL ELLIOT PASS IN THE GRASS_1002772_018.NEW.01 
*SOURCE FILE: ERN_F0370_FOXS_1987-05-18_RACE B-ROLL DALE EARNHARDT BILL ELLIOT PASS IN THE GRASS_1002772_018
000239  ERN_F0802_NSCR_1987-05-17_RACE_DESR_WINNER_BILL_ELLIOTT_CHARLOTTE_-_THE_WINSTON_87-EV-0397                                        V     C        17:38:43:17 17:38:45:29 00:04:14:07 00:04:16:16 
M2      ERN_F0802_NSCR_1987-05-17_RACE_DESR_WINNER_BILL_ELLIOTT_CHARLOTTE_-_THE_WINSTON_87-EV-0397                                                 030.0 17:38:43:17 
*FROM CLIP NAME:  ERN_F0802_NSCR_1987-05-17_RACE DESR WINNER BILL ELLIOTT CHARLOTTE - THE WINSTON_87-EV-0397.NEW.01 
*SOURCE FILE: ERN_F0802_NSCR_1987-05-17_RACE DESR WINNER BILL ELLIOTT CHARLOTTE - THE WINSTON_87-EV-0397
000240  ERN_F0800_NSCR_1987-05-17_RACE_DESR_WINNER_BILL_ELLIOTT_CHARLOTTE_-_THE_WINSTON_87-EV-0287                                        A20   C        00:49:33:25 00:49:39:07 00:04:14:09 00:04:19:18 
M2      ERN_F0800_NSCR_1987-05-17_RACE_DESR_WINNER_BILL_ELLIOTT_CHARLOTTE_-_THE_WINSTON_87-EV-0287                                                 030.0 00:49:33:25 
*FROM CLIP NAME:  ERN_F0800_NSCR_1987-05-17_RACE DESR WINNER BILL ELLIOTT CHARLOTTE - THE WINSTON_87-EV-0287.NEW.01 
*SOURCE FILE: ERN_F0800_NSCR_1987-05-17_RACE DESR WINNER BILL ELLIOTT CHARLOTTE - THE WINSTON_87-EV-0287
000241  ERN_F0802_NSCR_1987-05-17_RACE_DESR_WINNER_BILL_ELLIOTT_CHARLOTTE_-_THE_WINSTON_87-EV-0397                                        V     C        17:38:49:27 17:38:52:10 00:04:16:16 00:04:19:02 
M2      ERN_F0802_NSCR_1987-05-17_RACE_DESR_WINNER_BILL_ELLIOTT_CHARLOTTE_-_THE_WINSTON_87-EV-0397                                                 030.0 17:38:49:27 
*FROM CLIP NAME:  ERN_F0802_NSCR_1987-05-17_RACE DESR WINNER BILL ELLIOTT CHARLOTTE - THE WINSTON_87-EV-0397.NEW.01 
*SOURCE FILE: ERN_F0802_NSCR_1987-05-17_RACE DESR WINNER BILL ELLIOTT CHARLOTTE - THE WINSTON_87-EV-0397
000242  ERN_F0790_NSCR_1987-05-17_RACE_DESR_WINNER_CHARLOTTE_-_THE_WINSTON_87-EV-0105                                                     A24   C        00:16:44:08 00:16:46:09 00:04:18:00 00:04:20:00 
M2      ERN_F0790_NSCR_1987-05-17_RACE_DESR_WINNER_CHARLOTTE_-_THE_WINSTON_87-EV-0105                                                              030.0 00:16:44:08 
*FROM CLIP NAME:  ERN_F0790_NSCR_1987-05-17_RACE DESR WINNER CHARLOTTE - THE WINSTON_87-EV-0105.NEW.01 
*SOURCE FILE: ERN_F0790_NSCR_1987-05-17_RACE DESR WINNER CHARLOTTE - THE WINSTON_87-EV-0105
000243  ERN_F0802_NSCR_1987-05-17_RACE_DESR_WINNER_BILL_ELLIOTT_CHARLOTTE_-_THE_WINSTON_87-EV-0397                                        V     C        17:38:52:11 17:38:54:01 00:04:19:02 00:04:20:18 
M2      ERN_F0802_NSCR_1987-05-17_RACE_DESR_WINNER_BILL_ELLIOTT_CHARLOTTE_-_THE_WINSTON_87-EV-0397                                                 030.0 17:38:52:11 
*FROM CLIP NAME:  ERN_F0802_NSCR_1987-05-17_RACE DESR WINNER BILL ELLIOTT CHARLOTTE - THE WINSTON_87-EV-0397.NEW.01 
*SOURCE FILE: ERN_F0802_NSCR_1987-05-17_RACE DESR WINNER BILL ELLIOTT CHARLOTTE - THE WINSTON_87-EV-0397
000244  ERN_F0790_NSCR_1987-05-17_RACE_DESR_WINNER_CHARLOTTE_-_THE_WINSTON_87-EV-0105                                                     A24   C        00:16:46:08 00:16:48:22 00:04:20:00 00:04:22:11 
M2      ERN_F0790_NSCR_1987-05-17_RACE_DESR_WINNER_CHARLOTTE_-_THE_WINSTON_87-EV-0105                                                              030.0 00:16:46:08 
*FROM CLIP NAME:  ERN_F0790_NSCR_1987-05-17_RACE DESR WINNER CHARLOTTE - THE WINSTON_87-EV-0105.NEW.01 
*SOURCE FILE: ERN_F0790_NSCR_1987-05-17_RACE DESR WINNER CHARLOTTE - THE WINSTON_87-EV-0105
000245  ERN_F0790_NSCR_1987-05-17_RACE_DESR_WINNER_CHARLOTTE_-_THE_WINSTON_87-EV-0105                                                     V     C        00:16:46:07 00:16:49:07 00:04:20:18 00:04:23:18 
M2      ERN_F0790_NSCR_1987-05-17_RACE_DESR_WINNER_CHARLOTTE_-_THE_WINSTON_87-EV-0105                                                              030.0 00:16:46:07 
*FROM CLIP NAME:  ERN_F0790_NSCR_1987-05-17_RACE DESR WINNER CHARLOTTE - THE WINSTON_87-EV-0105.NEW.01 
*SOURCE FILE: ERN_F0790_NSCR_1987-05-17_RACE DESR WINNER CHARLOTTE - THE WINSTON_87-EV-0105
000246  ERN_F0800_NSCR_1987-05-17_RACE_DESR_WINNER_BILL_ELLIOTT_CHARLOTTE_-_THE_WINSTON_87-EV-0287                                        A26   C        00:53:15:01 00:53:16:16 00:04:21:23 00:04:23:11 
M2      ERN_F0800_NSCR_1987-05-17_RACE_DESR_WINNER_BILL_ELLIOTT_CHARLOTTE_-_THE_WINSTON_87-EV-0287                                                 030.0 00:53:15:01 
*FROM CLIP NAME:  ERN_F0800_NSCR_1987-05-17_RACE DESR WINNER BILL ELLIOTT CHARLOTTE - THE WINSTON_87-EV-0287.NEW.01 
*TO CLIP NAME:  ERN_F0800_NSCR_1987-05-17_RACE DESR WINNER BILL ELLIOTT CHARLOTTE - THE WINSTON_87-EV-0287.NEW.01 
*SOURCE FILE: ERN_F0800_NSCR_1987-05-17_RACE DESR WINNER BILL ELLIOTT CHARLOTTE - THE WINSTON_87-EV-0287
000247  ERN_F0800_NSCR_1987-05-17_RACE_DESR_WINNER_BILL_ELLIOTT_CHARLOTTE_-_THE_WINSTON_87-EV-0287                                        A26   C        00:53:16:16 00:53:18:09 00:04:23:11 00:04:25:05 
M2      ERN_F0800_NSCR_1987-05-17_RACE_DESR_WINNER_BILL_ELLIOTT_CHARLOTTE_-_THE_WINSTON_87-EV-0287                                                 030.0 00:53:16:16 
*FROM CLIP NAME:  ERN_F0800_NSCR_1987-05-17_RACE DESR WINNER BILL ELLIOTT CHARLOTTE - THE WINSTON_87-EV-0287.NEW.01 
*SOURCE FILE: ERN_F0800_NSCR_1987-05-17_RACE DESR WINNER BILL ELLIOTT CHARLOTTE - THE WINSTON_87-EV-0287
000248  ERN_F0802_NSCR_1987-05-17_RACE_DESR_WINNER_BILL_ELLIOTT_CHARLOTTE_-_THE_WINSTON_87-EV-0397                                        V     C        17:42:29:15 17:42:32:21 00:04:23:18 00:04:26:22 
M2      ERN_F0802_NSCR_1987-05-17_RACE_DESR_WINNER_BILL_ELLIOTT_CHARLOTTE_-_THE_WINSTON_87-EV-0397                                                 030.0 17:42:29:15 
*FROM CLIP NAME:  ERN_F0802_NSCR_1987-05-17_RACE DESR WINNER BILL ELLIOTT CHARLOTTE - THE WINSTON_87-EV-0397.NEW.01 
*SOURCE FILE: ERN_F0802_NSCR_1987-05-17_RACE DESR WINNER BILL ELLIOTT CHARLOTTE - THE WINSTON_87-EV-0397
000249  ERN_F0800_NSCR_1987-05-17_RACE_DESR_WINNER_BILL_ELLIOTT_CHARLOTTE_-_THE_WINSTON_87-EV-0287                                        A18   C        00:55:34:20 00:55:35:00 00:04:25:04 00:04:25:12 
M2      ERN_F0800_NSCR_1987-05-17_RACE_DESR_WINNER_BILL_ELLIOTT_CHARLOTTE_-_THE_WINSTON_87-EV-0287                                                 030.0 00:55:34:20 
*FROM CLIP NAME:  ERN_F0800_NSCR_1987-05-17_RACE DESR WINNER BILL ELLIOTT CHARLOTTE - THE WINSTON_87-EV-0287.NEW.01 
*SOURCE FILE: ERN_F0800_NSCR_1987-05-17_RACE DESR WINNER BILL ELLIOTT CHARLOTTE - THE WINSTON_87-EV-0287
000250  ERN_F0800_NSCR_1987-05-17_RACE_DESR_WINNER_BILL_ELLIOTT_CHARLOTTE_-_THE_WINSTON_87-EV-0287                                        A18   C        00:55:35:00 00:55:36:05 00:04:25:12 00:04:26:16 
M2      ERN_F0800_NSCR_1987-05-17_RACE_DESR_WINNER_BILL_ELLIOTT_CHARLOTTE_-_THE_WINSTON_87-EV-0287                                                 030.0 00:55:35:00 
*FROM CLIP NAME:  ERN_F0800_NSCR_1987-05-17_RACE DESR WINNER BILL ELLIOTT CHARLOTTE - THE WINSTON_87-EV-0287.NEW.01 
*SOURCE FILE: ERN_F0800_NSCR_1987-05-17_RACE DESR WINNER BILL ELLIOTT CHARLOTTE - THE WINSTON_87-EV-0287
000251  ERN_F0800_NSCR_1987-05-17_RACE_DESR_WINNER_BILL_ELLIOTT_CHARLOTTE_-_THE_WINSTON_87-EV-0287                                        A18   C        00:55:36:15 00:55:36:27 00:04:26:16 00:04:27:01 
M2      ERN_F0800_NSCR_1987-05-17_RACE_DESR_WINNER_BILL_ELLIOTT_CHARLOTTE_-_THE_WINSTON_87-EV-0287                                                 030.0 00:55:36:15 
*FROM CLIP NAME:  ERN_F0800_NSCR_1987-05-17_RACE DESR WINNER BILL ELLIOTT CHARLOTTE - THE WINSTON_87-EV-0287.NEW.01 
*SOURCE FILE: ERN_F0800_NSCR_1987-05-17_RACE DESR WINNER BILL ELLIOTT CHARLOTTE - THE WINSTON_87-EV-0287
000252  ERN_F0802_NSCR_1987-05-17_RACE_DESR_WINNER_BILL_ELLIOTT_CHARLOTTE_-_THE_WINSTON_87-EV-0397                                        V     C        17:44:52:19 17:44:56:05 00:04:26:22 00:04:30:13 
M2      ERN_F0802_NSCR_1987-05-17_RACE_DESR_WINNER_BILL_ELLIOTT_CHARLOTTE_-_THE_WINSTON_87-EV-0397                                                 028.9 17:44:52:19 
*FROM CLIP NAME:  ERN_F0802_NSCR_1987-05-17_RACE DESR WINNER BILL ELLIOTT CHARLOTTE - THE WINSTON_87-EV-0397.NEW.01 
*SOURCE FILE: ERN_F0802_NSCR_1987-05-17_RACE DESR WINNER BILL ELLIOTT CHARLOTTE - THE WINSTON_87-EV-0397
000253  ERN_F0800_NSCR_1987-05-17_RACE_DESR_WINNER_BILL_ELLIOTT_CHARLOTTE_-_THE_WINSTON_87-EV-0287                                        A18   C        00:55:40:03 00:55:40:07 00:04:27:01 00:04:27:03 
M2      ERN_F0800_NSCR_1987-05-17_RACE_DESR_WINNER_BILL_ELLIOTT_CHARLOTTE_-_THE_WINSTON_87-EV-0287                                                 030.0 00:55:40:03 
*FROM CLIP NAME:  ERN_F0800_NSCR_1987-05-17_RACE DESR WINNER BILL ELLIOTT CHARLOTTE - THE WINSTON_87-EV-0287.NEW.01 
*TO CLIP NAME:  ERN_F0800_NSCR_1987-05-17_RACE DESR WINNER BILL ELLIOTT CHARLOTTE - THE WINSTON_87-EV-0287.NEW.01 
*SOURCE FILE: ERN_F0800_NSCR_1987-05-17_RACE DESR WINNER BILL ELLIOTT CHARLOTTE - THE WINSTON_87-EV-0287
000254  ERN_F0800_NSCR_1987-05-17_RACE_DESR_WINNER_BILL_ELLIOTT_CHARLOTTE_-_THE_WINSTON_87-EV-0287                                        A18   C        00:55:40:06 00:55:43:24 00:04:27:03 00:04:30:17 
M2      ERN_F0800_NSCR_1987-05-17_RACE_DESR_WINNER_BILL_ELLIOTT_CHARLOTTE_-_THE_WINSTON_87-EV-0287                                                 030.0 00:55:40:06 
*FROM CLIP NAME:  ERN_F0800_NSCR_1987-05-17_RACE DESR WINNER BILL ELLIOTT CHARLOTTE - THE WINSTON_87-EV-0287.NEW.01 
*SOURCE FILE: ERN_F0800_NSCR_1987-05-17_RACE DESR WINNER BILL ELLIOTT CHARLOTTE - THE WINSTON_87-EV-0287
000255  ERN_F0800_NSCR_1987-05-17_RACE_DESR_WINNER_BILL_ELLIOTT_CHARLOTTE_-_THE_WINSTON_87-EV-0287                                        A20   C        00:53:39:22 00:53:42:23 00:04:29:07 00:04:32:07 
M2      ERN_F0800_NSCR_1987-05-17_RACE_DESR_WINNER_BILL_ELLIOTT_CHARLOTTE_-_THE_WINSTON_87-EV-0287                                                 030.0 00:53:39:22 
*FROM CLIP NAME:  ERN_F0800_NSCR_1987-05-17_RACE DESR WINNER BILL ELLIOTT CHARLOTTE - THE WINSTON_87-EV-0287.NEW.01 
*SOURCE FILE: ERN_F0800_NSCR_1987-05-17_RACE DESR WINNER BILL ELLIOTT CHARLOTTE - THE WINSTON_87-EV-0287
000256  ERN_F0802_NSCR_1987-05-17_RACE_DESR_WINNER_BILL_ELLIOTT_CHARLOTTE_-_THE_WINSTON_87-EV-0397                                        V     C        17:42:53:20 17:42:59:00 00:04:30:13 00:04:35:20 
M2      ERN_F0802_NSCR_1987-05-17_RACE_DESR_WINNER_BILL_ELLIOTT_CHARLOTTE_-_THE_WINSTON_87-EV-0397                                                 030.0 17:42:53:20 
*FROM CLIP NAME:  ERN_F0802_NSCR_1987-05-17_RACE DESR WINNER BILL ELLIOTT CHARLOTTE - THE WINSTON_87-EV-0397.NEW.01 
*SOURCE FILE: ERN_F0802_NSCR_1987-05-17_RACE DESR WINNER BILL ELLIOTT CHARLOTTE - THE WINSTON_87-EV-0397
000257  ERN_F0800_NSCR_1987-05-17_RACE_DESR_WINNER_BILL_ELLIOTT_CHARLOTTE_-_THE_WINSTON_87-EV-0287                                        A18   C        00:56:22:24 00:56:22:27 00:04:30:17 00:04:30:19 
M2      ERN_F0800_NSCR_1987-05-17_RACE_DESR_WINNER_BILL_ELLIOTT_CHARLOTTE_-_THE_WINSTON_87-EV-0287                                                 030.0 00:56:22:24 
*FROM CLIP NAME:  ERN_F0800_NSCR_1987-05-17_RACE DESR WINNER BILL ELLIOTT CHARLOTTE - THE WINSTON_87-EV-0287.NEW.01 
*TO CLIP NAME:  ERN_F0800_NSCR_1987-05-17_RACE DESR WINNER BILL ELLIOTT CHARLOTTE - THE WINSTON_87-EV-0287.NEW.01 
*SOURCE FILE: ERN_F0800_NSCR_1987-05-17_RACE DESR WINNER BILL ELLIOTT CHARLOTTE - THE WINSTON_87-EV-0287
000258  ERN_F0800_NSCR_1987-05-17_RACE_DESR_WINNER_BILL_ELLIOTT_CHARLOTTE_-_THE_WINSTON_87-EV-0287                                        A18   C        00:56:22:27 00:56:23:24 00:04:30:19 00:04:31:16 
M2      ERN_F0800_NSCR_1987-05-17_RACE_DESR_WINNER_BILL_ELLIOTT_CHARLOTTE_-_THE_WINSTON_87-EV-0287                                                 030.0 00:56:22:27 
*FROM CLIP NAME:  ERN_F0800_NSCR_1987-05-17_RACE DESR WINNER BILL ELLIOTT CHARLOTTE - THE WINSTON_87-EV-0287.NEW.01 
*SOURCE FILE: ERN_F0800_NSCR_1987-05-17_RACE DESR WINNER BILL ELLIOTT CHARLOTTE - THE WINSTON_87-EV-0287
000259  ERN_F0800_NSCR_1987-05-17_RACE_DESR_WINNER_BILL_ELLIOTT_CHARLOTTE_-_THE_WINSTON_87-EV-0287                                        A20   C        00:53:42:22 00:53:43:25 00:04:32:07 00:04:33:09 
M2      ERN_F0800_NSCR_1987-05-17_RACE_DESR_WINNER_BILL_ELLIOTT_CHARLOTTE_-_THE_WINSTON_87-EV-0287                                                 030.0 00:53:42:22 
*FROM CLIP NAME:  ERN_F0800_NSCR_1987-05-17_RACE DESR WINNER BILL ELLIOTT CHARLOTTE - THE WINSTON_87-EV-0287.NEW.01 
*SOURCE FILE: ERN_F0800_NSCR_1987-05-17_RACE DESR WINNER BILL ELLIOTT CHARLOTTE - THE WINSTON_87-EV-0287
000260  ERN_F0802_NSCR_1987-05-17_RACE_DESR_WINNER_BILL_ELLIOTT_CHARLOTTE_-_THE_WINSTON_87-EV-0397                                        A18   C        17:50:50:02 17:50:50:18 00:04:33:20 00:04:34:08 
M2      ERN_F0802_NSCR_1987-05-17_RACE_DESR_WINNER_BILL_ELLIOTT_CHARLOTTE_-_THE_WINSTON_87-EV-0397                                                 030.0 17:50:50:02 
*FROM CLIP NAME:  ERN_F0802_NSCR_1987-05-17_RACE DESR WINNER BILL ELLIOTT CHARLOTTE - THE WINSTON_87-EV-0397.NEW.01 
*SOURCE FILE: ERN_F0802_NSCR_1987-05-17_RACE DESR WINNER BILL ELLIOTT CHARLOTTE - THE WINSTON_87-EV-0397
000261  ERN_F0802_NSCR_1987-05-17_RACE_DESR_WINNER_BILL_ELLIOTT_CHARLOTTE_-_THE_WINSTON_87-EV-0397                                        A18   C        17:50:50:17 17:51:00:17 00:04:34:08 00:04:44:06 
M2      ERN_F0802_NSCR_1987-05-17_RACE_DESR_WINNER_BILL_ELLIOTT_CHARLOTTE_-_THE_WINSTON_87-EV-0397                                                 030.0 17:50:50:17 
*FROM CLIP NAME:  ERN_F0802_NSCR_1987-05-17_RACE DESR WINNER BILL ELLIOTT CHARLOTTE - THE WINSTON_87-EV-0397.NEW.01 
*SOURCE FILE: ERN_F0802_NSCR_1987-05-17_RACE DESR WINNER BILL ELLIOTT CHARLOTTE - THE WINSTON_87-EV-0397
000262  ERN_F0802_NSCR_1987-05-17_RACE_DESR_WINNER_BILL_ELLIOTT_CHARLOTTE_-_THE_WINSTON_87-EV-0397                                        V     C        17:50:51:29 17:51:00:13 00:04:35:20 00:04:44:05 
M2      ERN_F0802_NSCR_1987-05-17_RACE_DESR_WINNER_BILL_ELLIOTT_CHARLOTTE_-_THE_WINSTON_87-EV-0397                                                 030.0 17:50:51:29 
*FROM CLIP NAME:  ERN_F0802_NSCR_1987-05-17_RACE DESR WINNER BILL ELLIOTT CHARLOTTE - THE WINSTON_87-EV-0397.NEW.01 
*SOURCE FILE: ERN_F0802_NSCR_1987-05-17_RACE DESR WINNER BILL ELLIOTT CHARLOTTE - THE WINSTON_87-EV-0397
000263  ERN_F0802_NSCR_1987-05-17_RACE_DESR_WINNER_BILL_ELLIOTT_CHARLOTTE_-_THE_WINSTON_87-EV-0397                                        V     C        17:45:58:06 17:46:06:13 00:04:44:05 00:04:52:08 
M2      ERN_F0802_NSCR_1987-05-17_RACE_DESR_WINNER_BILL_ELLIOTT_CHARLOTTE_-_THE_WINSTON_87-EV-0397                                                 030.0 17:45:58:06 
*FROM CLIP NAME:  ERN_F0802_NSCR_1987-05-17_RACE DESR WINNER BILL ELLIOTT CHARLOTTE - THE WINSTON_87-EV-0397.NEW.01 
*SOURCE FILE: ERN_F0802_NSCR_1987-05-17_RACE DESR WINNER BILL ELLIOTT CHARLOTTE - THE WINSTON_87-EV-0397
000264  ERN_F0802_NSCR_1987-05-17_RACE_DESR_WINNER_BILL_ELLIOTT_CHARLOTTE_-_THE_WINSTON_87-EV-0397                                        A18   C        17:51:07:21 17:51:07:25 00:04:44:18 00:04:44:20 
M2      ERN_F0802_NSCR_1987-05-17_RACE_DESR_WINNER_BILL_ELLIOTT_CHARLOTTE_-_THE_WINSTON_87-EV-0397                                                 030.0 17:51:07:21 
*FROM CLIP NAME:  ERN_F0802_NSCR_1987-05-17_RACE DESR WINNER BILL ELLIOTT CHARLOTTE - THE WINSTON_87-EV-0397.NEW.01 
*SOURCE FILE: ERN_F0802_NSCR_1987-05-17_RACE DESR WINNER BILL ELLIOTT CHARLOTTE - THE WINSTON_87-EV-0397
000265  ERN_F0802_NSCR_1987-05-17_RACE_DESR_WINNER_BILL_ELLIOTT_CHARLOTTE_-_THE_WINSTON_87-EV-0397                                        A18   C        17:51:07:24 17:51:09:05 00:04:44:20 00:04:46:04 
M2      ERN_F0802_NSCR_1987-05-17_RACE_DESR_WINNER_BILL_ELLIOTT_CHARLOTTE_-_THE_WINSTON_87-EV-0397                                                 030.0 17:51:07:24 
*FROM CLIP NAME:  ERN_F0802_NSCR_1987-05-17_RACE DESR WINNER BILL ELLIOTT CHARLOTTE - THE WINSTON_87-EV-0397.NEW.01 
*SOURCE FILE: ERN_F0802_NSCR_1987-05-17_RACE DESR WINNER BILL ELLIOTT CHARLOTTE - THE WINSTON_87-EV-0397
000266  ERN_F3279_NSCR_1987_COMP_DESR_INTVS_&_B-ROLL_EARNHARDT298328                                                                      A22   C        00:07:17:16 00:07:19:07 00:04:45:16 00:04:47:08 
M2      ERN_F3279_NSCR_1987_COMP_DESR_INTVS_&_B-ROLL_EARNHARDT298328                                                                               030.0 00:07:17:16 
*FROM CLIP NAME:  ERN_F3279_NSCR_1987_COMP DESR INTVS & B-ROLL_EARNHARDT298328.NEW.01 
*SOURCE FILE: ERN_F3279_NSCR_1987_COMP DESR INTVS & B-ROLL_EARNHARDT298328
000267  ERN_F0798_NSCR_1987-05-17_RACE_DESR_WINNER_CHARLOTTE_-_THE_WINSTON_87-EV-0114                                                     A20   C        00:04:55:10 00:04:56:13 00:04:45:18 00:04:46:20 
M2      ERN_F0798_NSCR_1987-05-17_RACE_DESR_WINNER_CHARLOTTE_-_THE_WINSTON_87-EV-0114                                                              030.0 00:04:55:10 
*FROM CLIP NAME:  ERN_F0798_NSCR_1987-05-17_RACE DESR WINNER CHARLOTTE - THE WINSTON_87-EV-0114.NEW.01 
*SOURCE FILE: ERN_F0798_NSCR_1987-05-17_RACE DESR WINNER CHARLOTTE - THE WINSTON_87-EV-0114
000268  ERN_F0798_NSCR_1987-05-17_RACE_DESR_WINNER_CHARLOTTE_-_THE_WINSTON_87-EV-0114                                                     A20   C        00:04:56:12 00:04:59:23 00:04:46:20 00:04:50:04 
M2      ERN_F0798_NSCR_1987-05-17_RACE_DESR_WINNER_CHARLOTTE_-_THE_WINSTON_87-EV-0114                                                              030.0 00:04:56:12 
*FROM CLIP NAME:  ERN_F0798_NSCR_1987-05-17_RACE DESR WINNER CHARLOTTE - THE WINSTON_87-EV-0114.NEW.01 
*SOURCE FILE: ERN_F0798_NSCR_1987-05-17_RACE DESR WINNER CHARLOTTE - THE WINSTON_87-EV-0114
000269  ERN_F3279_NSCR_1987_COMP_DESR_INTVS_&_B-ROLL_EARNHARDT298328                                                                      A22   C        00:07:19:06 00:07:22:02 00:04:47:08 00:04:50:04 
M2      ERN_F3279_NSCR_1987_COMP_DESR_INTVS_&_B-ROLL_EARNHARDT298328                                                                               030.0 00:07:19:06 
*FROM CLIP NAME:  ERN_F3279_NSCR_1987_COMP DESR INTVS & B-ROLL_EARNHARDT298328.NEW.01 
*SOURCE FILE: ERN_F3279_NSCR_1987_COMP DESR INTVS & B-ROLL_EARNHARDT298328
000270  ERN_F0982_NSCR_1991-12-31_RACE_DESR_COMPILATION_W_TERESA_EARNHARDT_INTV_1991-NAS-00036_S001                                       A18   C        02:14:58:13 02:14:58:21 00:04:49:21 00:04:50:03 
M2      ERN_F0982_NSCR_1991-12-31_RACE_DESR_COMPILATION_W_TERESA_EARNHARDT_INTV_1991-NAS-00036_S001                                                030.0 02:14:58:13 
*FROM CLIP NAME:  ERN_F0982_NSCR_1991-12-31_RACE DESR COMPILATION W TERESA EARNHARDT INTV_1991-NAS-00036_S001.NEW.01 
*SOURCE FILE: ERN_F0982_NSCR_1991-12-31_RACE DESR COMPILATION W TERESA EARNHARDT INTV_1991-NAS-00036_S001
000271  ERN_F0982_NSCR_1991-12-31_RACE_DESR_COMPILATION_W_TERESA_EARNHARDT_INTV_1991-NAS-00036_S001                                       A18   C        02:14:58:20 02:15:00:08 00:04:50:03 00:04:51:15 
M2      ERN_F0982_NSCR_1991-12-31_RACE_DESR_COMPILATION_W_TERESA_EARNHARDT_INTV_1991-NAS-00036_S001                                                030.0 02:14:58:20 
*FROM CLIP NAME:  ERN_F0982_NSCR_1991-12-31_RACE DESR COMPILATION W TERESA EARNHARDT INTV_1991-NAS-00036_S001.NEW.01 
*SOURCE FILE: ERN_F0982_NSCR_1991-12-31_RACE DESR COMPILATION W TERESA EARNHARDT INTV_1991-NAS-00036_S001
000272  ERN_F0982_NSCR_1991-12-31_RACE_DESR_COMPILATION_W_TERESA_EARNHARDT_INTV_1991-NAS-00036_S001                                       A18   C        02:15:00:17 02:15:02:11 00:04:51:15 00:04:53:09 
M2      ERN_F0982_NSCR_1991-12-31_RACE_DESR_COMPILATION_W_TERESA_EARNHARDT_INTV_1991-NAS-00036_S001                                                030.0 02:15:00:17 
*FROM CLIP NAME:  ERN_F0982_NSCR_1991-12-31_RACE DESR COMPILATION W TERESA EARNHARDT INTV_1991-NAS-00036_S001.NEW.01 
*SOURCE FILE: ERN_F0982_NSCR_1991-12-31_RACE DESR COMPILATION W TERESA EARNHARDT INTV_1991-NAS-00036_S001
000273  ERN_F0982_NSCR_1991-12-31_RACE_DESR_COMPILATION_W_TERESA_EARNHARDT_INTV_1991-NAS-00036_S001                                       V     C        02:15:05:12 02:15:10:01 00:04:52:08 00:04:56:22 
M2      ERN_F0982_NSCR_1991-12-31_RACE_DESR_COMPILATION_W_TERESA_EARNHARDT_INTV_1991-NAS-00036_S001                                                030.0 02:15:05:12 
*FROM CLIP NAME:  ERN_F0982_NSCR_1991-12-31_RACE DESR COMPILATION W TERESA EARNHARDT INTV_1991-NAS-00036_S001.NEW.01 
*SOURCE FILE: ERN_F0982_NSCR_1991-12-31_RACE DESR COMPILATION W TERESA EARNHARDT INTV_1991-NAS-00036_S001
000274  ERN_F0982_NSCR_1991-12-31_RACE_DESR_COMPILATION_W_TERESA_EARNHARDT_INTV_1991-NAS-00036_S001                                       A18   C        02:15:03:05 02:15:03:22 00:04:53:09 00:04:53:22 
M2      ERN_F0982_NSCR_1991-12-31_RACE_DESR_COMPILATION_W_TERESA_EARNHARDT_INTV_1991-NAS-00036_S001                                                030.0 02:15:03:05 
*FROM CLIP NAME:  ERN_F0982_NSCR_1991-12-31_RACE DESR COMPILATION W TERESA EARNHARDT INTV_1991-NAS-00036_S001.NEW.01 
*SOURCE FILE: ERN_F0982_NSCR_1991-12-31_RACE DESR COMPILATION W TERESA EARNHARDT INTV_1991-NAS-00036_S001
000275  ERN_F0982_NSCR_1991-12-31_RACE_DESR_COMPILATION_W_TERESA_EARNHARDT_INTV_1991-NAS-00036_S001                                       A18   C        02:15:07:00 02:15:07:11 00:04:53:22 00:04:54:06 
M2      ERN_F0982_NSCR_1991-12-31_RACE_DESR_COMPILATION_W_TERESA_EARNHARDT_INTV_1991-NAS-00036_S001                                                030.0 02:15:07:00 
*FROM CLIP NAME:  ERN_F0982_NSCR_1991-12-31_RACE DESR COMPILATION W TERESA EARNHARDT INTV_1991-NAS-00036_S001.NEW.01 
*TO CLIP NAME:  ERN_F0982_NSCR_1991-12-31_RACE DESR COMPILATION W TERESA EARNHARDT INTV_1991-NAS-00036_S001.NEW.01 
*SOURCE FILE: ERN_F0982_NSCR_1991-12-31_RACE DESR COMPILATION W TERESA EARNHARDT INTV_1991-NAS-00036_S001
000276  ERN_F0982_NSCR_1991-12-31_RACE_DESR_COMPILATION_W_TERESA_EARNHARDT_INTV_1991-NAS-00036_S001                                       A18   C        02:15:07:10 02:15:09:17 00:04:54:06 00:04:56:11 
M2      ERN_F0982_NSCR_1991-12-31_RACE_DESR_COMPILATION_W_TERESA_EARNHARDT_INTV_1991-NAS-00036_S001                                                030.0 02:15:07:10 
*FROM CLIP NAME:  ERN_F0982_NSCR_1991-12-31_RACE DESR COMPILATION W TERESA EARNHARDT INTV_1991-NAS-00036_S001.NEW.01 
*SOURCE FILE: ERN_F0982_NSCR_1991-12-31_RACE DESR COMPILATION W TERESA EARNHARDT INTV_1991-NAS-00036_S001
000277  ERN_F3279_NSCR_1987_COMP_DESR_INTVS_&_B-ROLL_EARNHARDT298328                                                                      V     C        01:11:35:19 01:11:38:11 00:04:56:22 00:04:59:15 
M2      ERN_F3279_NSCR_1987_COMP_DESR_INTVS_&_B-ROLL_EARNHARDT298328                                                                               030.0 01:11:35:19 
*FROM CLIP NAME:  ERN_F3279_NSCR_1987_COMP DESR INTVS & B-ROLL_EARNHARDT298328.NEW.01 
*SOURCE FILE: ERN_F3279_NSCR_1987_COMP DESR INTVS & B-ROLL_EARNHARDT298328
000278  ERN_F0982_NSCR_1991-12-31_RACE_DESR_COMPILATION_W_TERESA_EARNHARDT_INTV_1991-NAS-00036_S001                                       A18   C        02:15:12:04 02:15:12:14 00:04:58:05 00:04:58:13 
M2      ERN_F0982_NSCR_1991-12-31_RACE_DESR_COMPILATION_W_TERESA_EARNHARDT_INTV_1991-NAS-00036_S001                                                030.0 02:15:12:04 
*FROM CLIP NAME:  ERN_F0982_NSCR_1991-12-31_RACE DESR COMPILATION W TERESA EARNHARDT INTV_1991-NAS-00036_S001.NEW.01 
*SOURCE FILE: ERN_F0982_NSCR_1991-12-31_RACE DESR COMPILATION W TERESA EARNHARDT INTV_1991-NAS-00036_S001
000279  ERN_F0982_NSCR_1991-12-31_RACE_DESR_COMPILATION_W_TERESA_EARNHARDT_INTV_1991-NAS-00036_S001                                       A18   C        02:15:12:14 02:15:14:08 00:04:58:13 00:05:00:08 
M2      ERN_F0982_NSCR_1991-12-31_RACE_DESR_COMPILATION_W_TERESA_EARNHARDT_INTV_1991-NAS-00036_S001                                                030.0 02:15:12:14 
*FROM CLIP NAME:  ERN_F0982_NSCR_1991-12-31_RACE DESR COMPILATION W TERESA EARNHARDT INTV_1991-NAS-00036_S001.NEW.01 
*SOURCE FILE: ERN_F0982_NSCR_1991-12-31_RACE DESR COMPILATION W TERESA EARNHARDT INTV_1991-NAS-00036_S001
000280  ERN_F2659_NSCR_1987_RACE_B-ROLL_FILM_CHARLOTTE_SPEEDWAY_AC_DELCO_500_BILL_ELLIOTT_DESR_1987-NAS-00107_S002                        V     C        00:02:45:11 00:02:46:18 00:04:59:15 00:05:00:21 
M2      ERN_F2659_NSCR_1987_RACE_B-ROLL_FILM_CHARLOTTE_SPEEDWAY_AC_DELCO_500_BILL_ELLIOTT_DESR_1987-NAS-00107_S002                                 024.0 00:02:45:11 
*FROM CLIP NAME:  ERN_F2659_NSCR_1987_RACE B-ROLL FILM CHARLOTTE SPEEDWAY AC DELCO 500 BILL ELLIOTT DESR_1987-NAS-00107_S002.NEW.01 
*SOURCE FILE: ERN_F2659_NSCR_1987_RACE B-ROLL FILM CHARLOTTE SPEEDWAY AC DELCO 500 BILL ELLIOTT DESR_1987-NAS-00107_S002
000281  ERN_F0982_NSCR_1991-12-31_RACE_DESR_COMPILATION_W_TERESA_EARNHARDT_INTV_1991-NAS-00036_S001                                       A18   C        02:15:16:15 02:15:18:07 00:05:00:08 00:05:02:01 
M2      ERN_F0982_NSCR_1991-12-31_RACE_DESR_COMPILATION_W_TERESA_EARNHARDT_INTV_1991-NAS-00036_S001                                                030.0 02:15:16:15 
*FROM CLIP NAME:  ERN_F0982_NSCR_1991-12-31_RACE DESR COMPILATION W TERESA EARNHARDT INTV_1991-NAS-00036_S001.NEW.01 
*SOURCE FILE: ERN_F0982_NSCR_1991-12-31_RACE DESR COMPILATION W TERESA EARNHARDT INTV_1991-NAS-00036_S001
000282  ERN_F1007_NSCR_1990S_RACE_B-ROLL_POLE_DAY_CHARLOTTE_DESR_QUALIFYING_QUALIFYING_052192                                             V     C        13:50:30:12 13:50:31:24 00:05:00:21 00:05:02:14 
M2      ERN_F1007_NSCR_1990S_RACE_B-ROLL_POLE_DAY_CHARLOTTE_DESR_QUALIFYING_QUALIFYING_052192                                                      024.0 13:50:30:12 
*FROM CLIP NAME:  ERN_F1007_NSCR_1990S_RACE B-ROLL POLE DAY CHARLOTTE DESR QUALIFYING_QUALIFYING_052192.NEW.01 
*SOURCE FILE: ERN_F1007_NSCR_1990S_RACE B-ROLL POLE DAY CHARLOTTE DESR QUALIFYING_QUALIFYING_052192
000283  ERN_F3277_NSCR_1987_COMP_RCR_3_TEAM_CHILDRESS_MEYERS_SHELMERDINE_EARNHARDT298328                                                  V     C        01:04:59:16 01:05:04:09 00:05:02:14 00:05:07:08 
M2      ERN_F3277_NSCR_1987_COMP_RCR_3_TEAM_CHILDRESS_MEYERS_SHELMERDINE_EARNHARDT298328                                                           030.0 01:04:59:16 
*FROM CLIP NAME:  ERN_F3277_NSCR_1987_COMP RCR 3 TEAM CHILDRESS MEYERS SHELMERDINE_EARNHARDT298328.NEW.01 
*SOURCE FILE: ERN_F3277_NSCR_1987_COMP RCR 3 TEAM CHILDRESS MEYERS SHELMERDINE_EARNHARDT298328
000284  ERN_F0800_NSCR_1987-05-17_RACE_DESR_WINNER_BILL_ELLIOTT_CHARLOTTE_-_THE_WINSTON_87-EV-0287                                        A20   C        00:19:10:09 00:19:11:10 00:05:10:14 00:05:11:14 
M2      ERN_F0800_NSCR_1987-05-17_RACE_DESR_WINNER_BILL_ELLIOTT_CHARLOTTE_-_THE_WINSTON_87-EV-0287                                                 030.0 00:19:10:09 
*FROM CLIP NAME:  ERN_F0800_NSCR_1987-05-17_RACE DESR WINNER BILL ELLIOTT CHARLOTTE - THE WINSTON_87-EV-0287.NEW.01 
*SOURCE FILE: ERN_F0800_NSCR_1987-05-17_RACE DESR WINNER BILL ELLIOTT CHARLOTTE - THE WINSTON_87-EV-0287
000285  ERN_F3682_NSCR_1987-11-11_PART_5_RACE_BROADCAST_RIVERSIDE_WINSTON_WESTERN_500_DESR_KEN_SQUIER_87-EV-0290                          V     C        00:07:55:03 00:07:59:09 00:05:11:01 00:05:15:05 
M2      ERN_F3682_NSCR_1987-11-11_PART_5_RACE_BROADCAST_RIVERSIDE_WINSTON_WESTERN_500_DESR_KEN_SQUIER_87-EV-0290                                   030.0 00:07:55:03 
*FROM CLIP NAME:  ERN_F3682_NSCR_1987-11-08_PART 5 RACE BROADCAST RIVERSIDE WINSTON WESTERN 500 DESR KEN SQUIER_87-EV-0290.NEW.01 
*SOURCE FILE: ERN_F3682_NSCR_1987-11-11_PART 5 RACE BROADCAST RIVERSIDE WINSTON WESTERN 500 DESR KEN SQUIER_87-EV-0290
000286  ERN_F0800_NSCR_1987-05-17_RACE_DESR_WINNER_BILL_ELLIOTT_CHARLOTTE_-_THE_WINSTON_87-EV-0287                                        A20   C        00:19:11:09 00:19:12:03 00:05:11:14 00:05:12:08 
M2      ERN_F0800_NSCR_1987-05-17_RACE_DESR_WINNER_BILL_ELLIOTT_CHARLOTTE_-_THE_WINSTON_87-EV-0287                                                 030.0 00:19:11:09 
*FROM CLIP NAME:  ERN_F0800_NSCR_1987-05-17_RACE DESR WINNER BILL ELLIOTT CHARLOTTE - THE WINSTON_87-EV-0287.NEW.01 
*SOURCE FILE: ERN_F0800_NSCR_1987-05-17_RACE DESR WINNER BILL ELLIOTT CHARLOTTE - THE WINSTON_87-EV-0287
000287  ERN_F3682_NSCR_1987-11-11_PART_5_RACE_BROADCAST_RIVERSIDE_WINSTON_WESTERN_500_DESR_KEN_SQUIER_87-EV-0290                          A18   C        00:15:39:28 00:15:40:14 00:05:12:03 00:05:12:15 
M2      ERN_F3682_NSCR_1987-11-11_PART_5_RACE_BROADCAST_RIVERSIDE_WINSTON_WESTERN_500_DESR_KEN_SQUIER_87-EV-0290                                   030.0 00:15:39:28 
*FROM CLIP NAME:  ERN_F3682_NSCR_1987-11-08_PART 5 RACE BROADCAST RIVERSIDE WINSTON WESTERN 500 DESR KEN SQUIER_87-EV-0290.NEW.01 
*SOURCE FILE: ERN_F3682_NSCR_1987-11-11_PART 5 RACE BROADCAST RIVERSIDE WINSTON WESTERN 500 DESR KEN SQUIER_87-EV-0290
000288  ERN_F0800_NSCR_1987-05-17_RACE_DESR_WINNER_BILL_ELLIOTT_CHARLOTTE_-_THE_WINSTON_87-EV-0287                                        A20   C        00:19:12:02 00:19:13:03 00:05:12:08 00:05:13:08 
M2      ERN_F0800_NSCR_1987-05-17_RACE_DESR_WINNER_BILL_ELLIOTT_CHARLOTTE_-_THE_WINSTON_87-EV-0287                                                 030.0 00:19:12:02 
*FROM CLIP NAME:  ERN_F0800_NSCR_1987-05-17_RACE DESR WINNER BILL ELLIOTT CHARLOTTE - THE WINSTON_87-EV-0287.NEW.01 
*TO CLIP NAME:  ERN_F0800_NSCR_1987-05-17_RACE DESR WINNER BILL ELLIOTT CHARLOTTE - THE WINSTON_87-EV-0287.NEW.01 
*SOURCE FILE: ERN_F0800_NSCR_1987-05-17_RACE DESR WINNER BILL ELLIOTT CHARLOTTE - THE WINSTON_87-EV-0287
000289  ERN_F3682_NSCR_1987-11-11_PART_5_RACE_BROADCAST_RIVERSIDE_WINSTON_WESTERN_500_DESR_KEN_SQUIER_87-EV-0290                          A18   C        00:15:40:13 00:15:43:02 00:05:12:15 00:05:15:05 
M2      ERN_F3682_NSCR_1987-11-11_PART_5_RACE_BROADCAST_RIVERSIDE_WINSTON_WESTERN_500_DESR_KEN_SQUIER_87-EV-0290                                   030.0 00:15:40:13 
*FROM CLIP NAME:  ERN_F3682_NSCR_1987-11-08_PART 5 RACE BROADCAST RIVERSIDE WINSTON WESTERN 500 DESR KEN SQUIER_87-EV-0290.NEW.01 
*SOURCE FILE: ERN_F3682_NSCR_1987-11-11_PART 5 RACE BROADCAST RIVERSIDE WINSTON WESTERN 500 DESR KEN SQUIER_87-EV-0290
000290  ERN_F0800_NSCR_1987-05-17_RACE_DESR_WINNER_BILL_ELLIOTT_CHARLOTTE_-_THE_WINSTON_87-EV-0287                                        A20   C        00:19:13:02 00:19:14:24 00:05:13:08 00:05:15:01 
M2      ERN_F0800_NSCR_1987-05-17_RACE_DESR_WINNER_BILL_ELLIOTT_CHARLOTTE_-_THE_WINSTON_87-EV-0287                                                 030.0 00:19:13:02 
*FROM CLIP NAME:  ERN_F0800_NSCR_1987-05-17_RACE DESR WINNER BILL ELLIOTT CHARLOTTE - THE WINSTON_87-EV-0287.NEW.01 
*SOURCE FILE: ERN_F0800_NSCR_1987-05-17_RACE DESR WINNER BILL ELLIOTT CHARLOTTE - THE WINSTON_87-EV-0287
000291  ERN_F0800_NSCR_1987-05-17_RACE_DESR_WINNER_BILL_ELLIOTT_CHARLOTTE_-_THE_WINSTON_87-EV-0287                                        A22   C        00:19:31:08 00:19:32:24 00:05:14:10 00:05:15:22 
M2      ERN_F0800_NSCR_1987-05-17_RACE_DESR_WINNER_BILL_ELLIOTT_CHARLOTTE_-_THE_WINSTON_87-EV-0287                                                 030.0 00:19:31:08 
*FROM CLIP NAME:  ERN_F0800_NSCR_1987-05-17_RACE DESR WINNER BILL ELLIOTT CHARLOTTE - THE WINSTON_87-EV-0287.NEW.01 
*SOURCE FILE: ERN_F0800_NSCR_1987-05-17_RACE DESR WINNER BILL ELLIOTT CHARLOTTE - THE WINSTON_87-EV-0287
000292  ERN_F3682_NSCR_1987-11-11_PART_5_RACE_BROADCAST_RIVERSIDE_WINSTON_WESTERN_500_DESR_KEN_SQUIER_87-EV-0290                          A18   C        00:15:44:08 00:15:44:17 00:05:15:05 00:05:15:11 
M2      ERN_F3682_NSCR_1987-11-11_PART_5_RACE_BROADCAST_RIVERSIDE_WINSTON_WESTERN_500_DESR_KEN_SQUIER_87-EV-0290                                   030.0 00:15:44:08 
*FROM CLIP NAME:  ERN_F3682_NSCR_1987-11-08_PART 5 RACE BROADCAST RIVERSIDE WINSTON WESTERN 500 DESR KEN SQUIER_87-EV-0290.NEW.01 
*TO CLIP NAME:  ERN_F3682_NSCR_1987-11-08_PART 5 RACE BROADCAST RIVERSIDE WINSTON WESTERN 500 DESR KEN SQUIER_87-EV-0290.NEW.01 
*SOURCE FILE: ERN_F3682_NSCR_1987-11-11_PART 5 RACE BROADCAST RIVERSIDE WINSTON WESTERN 500 DESR KEN SQUIER_87-EV-0290
000293  ERN_F3682_NSCR_1987-11-11_PART_5_RACE_BROADCAST_RIVERSIDE_WINSTON_WESTERN_500_DESR_KEN_SQUIER_87-EV-0290                          V     C        00:15:39:07 00:15:45:00 00:05:15:05 00:05:18:10 
M2      ERN_F3682_NSCR_1987-11-11_PART_5_RACE_BROADCAST_RIVERSIDE_WINSTON_WESTERN_500_DESR_KEN_SQUIER_87-EV-0290                                   054.0 00:15:39:07 
*FROM CLIP NAME:  ERN_F3682_NSCR_1987-11-08_PART 5 RACE BROADCAST RIVERSIDE WINSTON WESTERN 500 DESR KEN SQUIER_87-EV-0290.NEW.01 
*SOURCE FILE: ERN_F3682_NSCR_1987-11-11_PART 5 RACE BROADCAST RIVERSIDE WINSTON WESTERN 500 DESR KEN SQUIER_87-EV-0290
000294  ERN_F3682_NSCR_1987-11-11_PART_5_RACE_BROADCAST_RIVERSIDE_WINSTON_WESTERN_500_DESR_KEN_SQUIER_87-EV-0290                          A18   C        00:15:44:16 00:15:47:19 00:05:15:11 00:05:18:13 
M2      ERN_F3682_NSCR_1987-11-11_PART_5_RACE_BROADCAST_RIVERSIDE_WINSTON_WESTERN_500_DESR_KEN_SQUIER_87-EV-0290                                   030.0 00:15:44:16 
*FROM CLIP NAME:  ERN_F3682_NSCR_1987-11-08_PART 5 RACE BROADCAST RIVERSIDE WINSTON WESTERN 500 DESR KEN SQUIER_87-EV-0290.NEW.01 
*SOURCE FILE: ERN_F3682_NSCR_1987-11-11_PART 5 RACE BROADCAST RIVERSIDE WINSTON WESTERN 500 DESR KEN SQUIER_87-EV-0290
000295  ERN_F0800_NSCR_1987-05-17_RACE_DESR_WINNER_BILL_ELLIOTT_CHARLOTTE_-_THE_WINSTON_87-EV-0287                                        A22   C        00:19:32:23 00:19:37:06 00:05:15:22 00:05:20:08 
M2      ERN_F0800_NSCR_1987-05-17_RACE_DESR_WINNER_BILL_ELLIOTT_CHARLOTTE_-_THE_WINSTON_87-EV-0287                                                 030.0 00:19:32:23 
*FROM CLIP NAME:  ERN_F0800_NSCR_1987-05-17_RACE DESR WINNER BILL ELLIOTT CHARLOTTE - THE WINSTON_87-EV-0287.NEW.01 
*SOURCE FILE: ERN_F0800_NSCR_1987-05-17_RACE DESR WINNER BILL ELLIOTT CHARLOTTE - THE WINSTON_87-EV-0287
000296  ERN_F0800_NSCR_1987-05-17_RACE_DESR_WINNER_BILL_ELLIOTT_CHARLOTTE_-_THE_WINSTON_87-EV-0287                                        A20   C        00:19:08:23 00:19:11:09 00:05:18:09 00:05:20:21 
M2      ERN_F0800_NSCR_1987-05-17_RACE_DESR_WINNER_BILL_ELLIOTT_CHARLOTTE_-_THE_WINSTON_87-EV-0287                                                 030.0 00:19:08:23 
*FROM CLIP NAME:  ERN_F0800_NSCR_1987-05-17_RACE DESR WINNER BILL ELLIOTT CHARLOTTE - THE WINSTON_87-EV-0287.NEW.01 
*SOURCE FILE: ERN_F0800_NSCR_1987-05-17_RACE DESR WINNER BILL ELLIOTT CHARLOTTE - THE WINSTON_87-EV-0287
000297  ERN_F3682_NSCR_1987-11-11_PART_5_RACE_BROADCAST_RIVERSIDE_WINSTON_WESTERN_500_DESR_KEN_SQUIER_87-EV-0290                          V     C        00:18:56:06 00:18:58:14 00:05:18:10 00:05:20:16 
M2      ERN_F3682_NSCR_1987-11-11_PART_5_RACE_BROADCAST_RIVERSIDE_WINSTON_WESTERN_500_DESR_KEN_SQUIER_87-EV-0290                                   030.0 00:18:56:06 
*FROM CLIP NAME:  ERN_F3682_NSCR_1987-11-08_PART 5 RACE BROADCAST RIVERSIDE WINSTON WESTERN 500 DESR KEN SQUIER_87-EV-0290.NEW.01 
*SOURCE FILE: ERN_F3682_NSCR_1987-11-11_PART 5 RACE BROADCAST RIVERSIDE WINSTON WESTERN 500 DESR KEN SQUIER_87-EV-0290
000298  ERN_F3682_NSCR_1987-11-11_PART_5_RACE_BROADCAST_RIVERSIDE_WINSTON_WESTERN_500_DESR_KEN_SQUIER_87-EV-0290                          V     C        00:17:08:15 00:17:14:05 00:05:20:16 00:05:26:08 
M2      ERN_F3682_NSCR_1987-11-11_PART_5_RACE_BROADCAST_RIVERSIDE_WINSTON_WESTERN_500_DESR_KEN_SQUIER_87-EV-0290                                   030.0 00:17:08:15 
*FROM CLIP NAME:  ERN_F3682_NSCR_1987-11-08_PART 5 RACE BROADCAST RIVERSIDE WINSTON WESTERN 500 DESR KEN SQUIER_87-EV-0290.NEW.01 
*SOURCE FILE: ERN_F3682_NSCR_1987-11-11_PART 5 RACE BROADCAST RIVERSIDE WINSTON WESTERN 500 DESR KEN SQUIER_87-EV-0290
000299  ERN_F0800_NSCR_1987-05-17_RACE_DESR_WINNER_BILL_ELLIOTT_CHARLOTTE_-_THE_WINSTON_87-EV-0287                                        A20   C        00:19:11:08 00:19:12:16 00:05:20:21 00:05:22:03 
M2      ERN_F0800_NSCR_1987-05-17_RACE_DESR_WINNER_BILL_ELLIOTT_CHARLOTTE_-_THE_WINSTON_87-EV-0287                                                 030.0 00:19:11:08 
*FROM CLIP NAME:  ERN_F0800_NSCR_1987-05-17_RACE DESR WINNER BILL ELLIOTT CHARLOTTE - THE WINSTON_87-EV-0287.NEW.01 
*SOURCE FILE: ERN_F0800_NSCR_1987-05-17_RACE DESR WINNER BILL ELLIOTT CHARLOTTE - THE WINSTON_87-EV-0287
000300  ERN_F0800_NSCR_1987-05-17_RACE_DESR_WINNER_BILL_ELLIOTT_CHARLOTTE_-_THE_WINSTON_87-EV-0287                                        A20   C        00:19:12:16 00:19:14:16 00:05:22:03 00:05:24:03 
M2      ERN_F0800_NSCR_1987-05-17_RACE_DESR_WINNER_BILL_ELLIOTT_CHARLOTTE_-_THE_WINSTON_87-EV-0287                                                 030.0 00:19:12:16 
*FROM CLIP NAME:  ERN_F0800_NSCR_1987-05-17_RACE DESR WINNER BILL ELLIOTT CHARLOTTE - THE WINSTON_87-EV-0287.NEW.01 
*TO CLIP NAME:  ERN_F0800_NSCR_1987-05-17_RACE DESR WINNER BILL ELLIOTT CHARLOTTE - THE WINSTON_87-EV-0287.NEW.01 
*SOURCE FILE: ERN_F0800_NSCR_1987-05-17_RACE DESR WINNER BILL ELLIOTT CHARLOTTE - THE WINSTON_87-EV-0287
000301  ERN_F0800_NSCR_1987-05-17_RACE_DESR_WINNER_BILL_ELLIOTT_CHARLOTTE_-_THE_WINSTON_87-EV-0287                                        A20   C        00:19:14:16 00:19:15:28 00:05:24:03 00:05:25:12 
M2      ERN_F0800_NSCR_1987-05-17_RACE_DESR_WINNER_BILL_ELLIOTT_CHARLOTTE_-_THE_WINSTON_87-EV-0287                                                 030.0 00:19:14:16 
*FROM CLIP NAME:  ERN_F0800_NSCR_1987-05-17_RACE DESR WINNER BILL ELLIOTT CHARLOTTE - THE WINSTON_87-EV-0287.NEW.01 
*SOURCE FILE: ERN_F0800_NSCR_1987-05-17_RACE DESR WINNER BILL ELLIOTT CHARLOTTE - THE WINSTON_87-EV-0287
000302  ERN_F0800_NSCR_1987-05-17_RACE_DESR_WINNER_BILL_ELLIOTT_CHARLOTTE_-_THE_WINSTON_87-EV-0287                                        A18   C        00:19:12:18 00:19:13:19 00:05:28:20 00:05:29:20 
M2      ERN_F0800_NSCR_1987-05-17_RACE_DESR_WINNER_BILL_ELLIOTT_CHARLOTTE_-_THE_WINSTON_87-EV-0287                                                 030.0 00:19:12:18 
*FROM CLIP NAME:  ERN_F0800_NSCR_1987-05-17_RACE DESR WINNER BILL ELLIOTT CHARLOTTE - THE WINSTON_87-EV-0287.NEW.01 
*SOURCE FILE: ERN_F0800_NSCR_1987-05-17_RACE DESR WINNER BILL ELLIOTT CHARLOTTE - THE WINSTON_87-EV-0287
000303  ERN_F3682_NSCR_1987-11-11_PART_5_RACE_BROADCAST_RIVERSIDE_WINSTON_WESTERN_500_DESR_KEN_SQUIER_87-EV-0290                          V     C        00:06:12:03 00:06:20:05 00:05:29:02 00:05:37:03 
M2      ERN_F3682_NSCR_1987-11-11_PART_5_RACE_BROADCAST_RIVERSIDE_WINSTON_WESTERN_500_DESR_KEN_SQUIER_87-EV-0290                                   030.0 00:06:12:03 
*FROM CLIP NAME:  ERN_F3682_NSCR_1987-11-08_PART 5 RACE BROADCAST RIVERSIDE WINSTON WESTERN 500 DESR KEN SQUIER_87-EV-0290.NEW.01 
*SOURCE FILE: ERN_F3682_NSCR_1987-11-11_PART 5 RACE BROADCAST RIVERSIDE WINSTON WESTERN 500 DESR KEN SQUIER_87-EV-0290
000304  ERN_F0800_NSCR_1987-05-17_RACE_DESR_WINNER_BILL_ELLIOTT_CHARLOTTE_-_THE_WINSTON_87-EV-0287                                        A18   C        00:19:13:18 00:19:17:04 00:05:29:20 00:05:33:08 
M2      ERN_F0800_NSCR_1987-05-17_RACE_DESR_WINNER_BILL_ELLIOTT_CHARLOTTE_-_THE_WINSTON_87-EV-0287                                                 030.0 00:19:13:18 
*FROM CLIP NAME:  ERN_F0800_NSCR_1987-05-17_RACE DESR WINNER BILL ELLIOTT CHARLOTTE - THE WINSTON_87-EV-0287.NEW.01 
*SOURCE FILE: ERN_F0800_NSCR_1987-05-17_RACE DESR WINNER BILL ELLIOTT CHARLOTTE - THE WINSTON_87-EV-0287
000305  ERN_F0800_NSCR_1987-05-17_RACE_DESR_WINNER_BILL_ELLIOTT_CHARLOTTE_-_THE_WINSTON_87-EV-0287                                        A18   C        00:19:17:03 00:19:18:19 00:05:33:08 00:05:34:20 
M2      ERN_F0800_NSCR_1987-05-17_RACE_DESR_WINNER_BILL_ELLIOTT_CHARLOTTE_-_THE_WINSTON_87-EV-0287                                                 030.0 00:19:17:03 
*FROM CLIP NAME:  ERN_F0800_NSCR_1987-05-17_RACE DESR WINNER BILL ELLIOTT CHARLOTTE - THE WINSTON_87-EV-0287.NEW.01 
*TO CLIP NAME:  ERN_F0800_NSCR_1987-05-17_RACE DESR WINNER BILL ELLIOTT CHARLOTTE - THE WINSTON_87-EV-0287.NEW.01 
*SOURCE FILE: ERN_F0800_NSCR_1987-05-17_RACE DESR WINNER BILL ELLIOTT CHARLOTTE - THE WINSTON_87-EV-0287
000306  ERN_F0800_NSCR_1987-05-17_RACE_DESR_WINNER_BILL_ELLIOTT_CHARLOTTE_-_THE_WINSTON_87-EV-0287                                        A18   C        00:19:18:18 00:19:21:08 00:05:34:20 00:05:37:11 
M2      ERN_F0800_NSCR_1987-05-17_RACE_DESR_WINNER_BILL_ELLIOTT_CHARLOTTE_-_THE_WINSTON_87-EV-0287                                                 030.0 00:19:18:18 
*FROM CLIP NAME:  ERN_F0800_NSCR_1987-05-17_RACE DESR WINNER BILL ELLIOTT CHARLOTTE - THE WINSTON_87-EV-0287.NEW.01 
*SOURCE FILE: ERN_F0800_NSCR_1987-05-17_RACE DESR WINNER BILL ELLIOTT CHARLOTTE - THE WINSTON_87-EV-0287
000307  ERN_F3682_NSCR_1987-11-11_PART_5_RACE_BROADCAST_RIVERSIDE_WINSTON_WESTERN_500_DESR_KEN_SQUIER_87-EV-0290                          V     C        00:07:52:13 00:07:54:22 00:05:37:03 00:05:39:09 
M2      ERN_F3682_NSCR_1987-11-11_PART_5_RACE_BROADCAST_RIVERSIDE_WINSTON_WESTERN_500_DESR_KEN_SQUIER_87-EV-0290                                   030.0 00:07:52:13 
*FROM CLIP NAME:  ERN_F3682_NSCR_1987-11-08_PART 5 RACE BROADCAST RIVERSIDE WINSTON WESTERN 500 DESR KEN SQUIER_87-EV-0290.NEW.01 
*SOURCE FILE: ERN_F3682_NSCR_1987-11-11_PART 5 RACE BROADCAST RIVERSIDE WINSTON WESTERN 500 DESR KEN SQUIER_87-EV-0290
000308  ERN_F0800_NSCR_1987-05-17_RACE_DESR_WINNER_BILL_ELLIOTT_CHARLOTTE_-_THE_WINSTON_87-EV-0287                                        A18   C        00:19:17:16 00:19:19:01 00:05:37:11 00:05:38:23 
M2      ERN_F0800_NSCR_1987-05-17_RACE_DESR_WINNER_BILL_ELLIOTT_CHARLOTTE_-_THE_WINSTON_87-EV-0287                                                 030.0 00:19:17:16 
*FROM CLIP NAME:  ERN_F0800_NSCR_1987-05-17_RACE DESR WINNER BILL ELLIOTT CHARLOTTE - THE WINSTON_87-EV-0287.NEW.01 
*TO CLIP NAME:  ERN_F0800_NSCR_1987-05-17_RACE DESR WINNER BILL ELLIOTT CHARLOTTE - THE WINSTON_87-EV-0287.NEW.01 
*SOURCE FILE: ERN_F0800_NSCR_1987-05-17_RACE DESR WINNER BILL ELLIOTT CHARLOTTE - THE WINSTON_87-EV-0287
000309  ERN_F5144_NSCR_1987-04-12_BRISTOL_VALLEYDALE_500-ESPN_RACE_BROADCAST_DESR_NO3_WRANGLER_WINNER_DESR_LGP07007                       A20   C        04:24:30:28 04:24:31:14 00:05:37:19 00:05:38:07 
M2      ERN_F5144_NSCR_1987-04-12_BRISTOL_VALLEYDALE_500-ESPN_RACE_BROADCAST_DESR_NO3_WRANGLER_WINNER_DESR_LGP07007                                030.0 04:24:30:28 
*FROM CLIP NAME:  ERN_F5144_NSCR_1987-04-12_BRISTOL VALLEYDALE 500-ESPN RACE BROADCAST DESR NO3 WRANGLER WINNER DESR_LGP07007.NEW.01 
*SOURCE FILE: ERN_F5144_NSCR_1987-04-12_BRISTOL VALLEYDALE 500-ESPN RACE BROADCAST DESR NO3 WRANGLER WINNER DESR_LGP07007
000310  ERN_F5144_NSCR_1987-04-12_BRISTOL_VALLEYDALE_500-ESPN_RACE_BROADCAST_DESR_NO3_WRANGLER_WINNER_DESR_LGP07007                       A20   C        04:24:31:13 04:24:34:16 00:05:38:07 00:05:41:09 
M2      ERN_F5144_NSCR_1987-04-12_BRISTOL_VALLEYDALE_500-ESPN_RACE_BROADCAST_DESR_NO3_WRANGLER_WINNER_DESR_LGP07007                                030.0 04:24:31:13 
*FROM CLIP NAME:  ERN_F5144_NSCR_1987-04-12_BRISTOL VALLEYDALE 500-ESPN RACE BROADCAST DESR NO3 WRANGLER WINNER DESR_LGP07007.NEW.01 
*SOURCE FILE: ERN_F5144_NSCR_1987-04-12_BRISTOL VALLEYDALE 500-ESPN RACE BROADCAST DESR NO3 WRANGLER WINNER DESR_LGP07007
000311  ERN_F0800_NSCR_1987-05-17_RACE_DESR_WINNER_BILL_ELLIOTT_CHARLOTTE_-_THE_WINSTON_87-EV-0287                                        A18   C        00:19:19:01 00:19:20:25 00:05:38:23 00:05:40:18 
M2      ERN_F0800_NSCR_1987-05-17_RACE_DESR_WINNER_BILL_ELLIOTT_CHARLOTTE_-_THE_WINSTON_87-EV-0287                                                 030.0 00:19:19:01 
*FROM CLIP NAME:  ERN_F0800_NSCR_1987-05-17_RACE DESR WINNER BILL ELLIOTT CHARLOTTE - THE WINSTON_87-EV-0287.NEW.01 
*SOURCE FILE: ERN_F0800_NSCR_1987-05-17_RACE DESR WINNER BILL ELLIOTT CHARLOTTE - THE WINSTON_87-EV-0287
000312  ERN_F5144_NSCR_1987-04-12_BRISTOL_VALLEYDALE_500-ESPN_RACE_BROADCAST_DESR_NO3_WRANGLER_WINNER_DESR_LGP07007                       V     C        04:24:32:16 04:24:34:18 00:05:39:09 00:05:41:10 
M2      ERN_F5144_NSCR_1987-04-12_BRISTOL_VALLEYDALE_500-ESPN_RACE_BROADCAST_DESR_NO3_WRANGLER_WINNER_DESR_LGP07007                                030.0 04:24:32:16 
*FROM CLIP NAME:  ERN_F5144_NSCR_1987-04-12_BRISTOL VALLEYDALE 500-ESPN RACE BROADCAST DESR NO3 WRANGLER WINNER DESR_LGP07007.NEW.01 
*SOURCE FILE: ERN_F5144_NSCR_1987-04-12_BRISTOL VALLEYDALE 500-ESPN RACE BROADCAST DESR NO3 WRANGLER WINNER DESR_LGP07007
000313  ERN_F0800_NSCR_1987-05-17_RACE_DESR_WINNER_BILL_ELLIOTT_CHARLOTTE_-_THE_WINSTON_87-EV-0287                                        A18   C        00:19:38:02 00:19:39:03 00:05:40:18 00:05:41:18 
M2      ERN_F0800_NSCR_1987-05-17_RACE_DESR_WINNER_BILL_ELLIOTT_CHARLOTTE_-_THE_WINSTON_87-EV-0287                                                 030.0 00:19:38:02 
*FROM CLIP NAME:  ERN_F0800_NSCR_1987-05-17_RACE DESR WINNER BILL ELLIOTT CHARLOTTE - THE WINSTON_87-EV-0287.NEW.01 
*TO CLIP NAME:  ERN_F0800_NSCR_1987-05-17_RACE DESR WINNER BILL ELLIOTT CHARLOTTE - THE WINSTON_87-EV-0287.NEW.01 
*SOURCE FILE: ERN_F0800_NSCR_1987-05-17_RACE DESR WINNER BILL ELLIOTT CHARLOTTE - THE WINSTON_87-EV-0287
000314  ERN_F3682_NSCR_1987-11-11_PART_5_RACE_BROADCAST_RIVERSIDE_WINSTON_WESTERN_500_DESR_KEN_SQUIER_87-EV-0290                          V     C        00:20:01:16 00:20:06:24 00:05:41:10 00:05:47:23 
M2      ERN_F3682_NSCR_1987-11-11_PART_5_RACE_BROADCAST_RIVERSIDE_WINSTON_WESTERN_500_DESR_KEN_SQUIER_87-EV-0290                                   024.0 00:20:01:16 
*FROM CLIP NAME:  ERN_F3682_NSCR_1987-11-08_PART 5 RACE BROADCAST RIVERSIDE WINSTON WESTERN 500 DESR KEN SQUIER_87-EV-0290.NEW.01 
*SOURCE FILE: ERN_F3682_NSCR_1987-11-11_PART 5 RACE BROADCAST RIVERSIDE WINSTON WESTERN 500 DESR KEN SQUIER_87-EV-0290
000315  ERN_F0800_NSCR_1987-05-17_RACE_DESR_WINNER_BILL_ELLIOTT_CHARLOTTE_-_THE_WINSTON_87-EV-0287                                        A18   C        00:19:39:02 00:19:45:14 00:05:41:18 00:05:48:03 
M2      ERN_F0800_NSCR_1987-05-17_RACE_DESR_WINNER_BILL_ELLIOTT_CHARLOTTE_-_THE_WINSTON_87-EV-0287                                                 030.0 00:19:39:02 
*FROM CLIP NAME:  ERN_F0800_NSCR_1987-05-17_RACE DESR WINNER BILL ELLIOTT CHARLOTTE - THE WINSTON_87-EV-0287.NEW.01 
*SOURCE FILE: ERN_F0800_NSCR_1987-05-17_RACE DESR WINNER BILL ELLIOTT CHARLOTTE - THE WINSTON_87-EV-0287
000316  ERN_F5144_NSCR_1987-04-12_BRISTOL_VALLEYDALE_500-ESPN_RACE_BROADCAST_DESR_NO3_WRANGLER_WINNER_DESR_LGP07007                       A22   C        04:24:39:19 04:24:39:23 00:05:42:03 00:05:42:05 
M2      ERN_F5144_NSCR_1987-04-12_BRISTOL_VALLEYDALE_500-ESPN_RACE_BROADCAST_DESR_NO3_WRANGLER_WINNER_DESR_LGP07007                                030.0 04:24:39:19 
*FROM CLIP NAME:  ERN_F5144_NSCR_1987-04-12_BRISTOL VALLEYDALE 500-ESPN RACE BROADCAST DESR NO3 WRANGLER WINNER DESR_LGP07007.NEW.01 
*SOURCE FILE: ERN_F5144_NSCR_1987-04-12_BRISTOL VALLEYDALE 500-ESPN RACE BROADCAST DESR NO3 WRANGLER WINNER DESR_LGP07007
000317  ERN_F5144_NSCR_1987-04-12_BRISTOL_VALLEYDALE_500-ESPN_RACE_BROADCAST_DESR_NO3_WRANGLER_WINNER_DESR_LGP07007                       A22   C        04:24:39:22 04:24:41:10 00:05:42:05 00:05:43:19 
M2      ERN_F5144_NSCR_1987-04-12_BRISTOL_VALLEYDALE_500-ESPN_RACE_BROADCAST_DESR_NO3_WRANGLER_WINNER_DESR_LGP07007                                030.0 04:24:39:22 
*FROM CLIP NAME:  ERN_F5144_NSCR_1987-04-12_BRISTOL VALLEYDALE 500-ESPN RACE BROADCAST DESR NO3 WRANGLER WINNER DESR_LGP07007.NEW.01 
*SOURCE FILE: ERN_F5144_NSCR_1987-04-12_BRISTOL VALLEYDALE 500-ESPN RACE BROADCAST DESR NO3 WRANGLER WINNER DESR_LGP07007
000318  ERN_F5144_NSCR_1987-04-12_BRISTOL_VALLEYDALE_500-ESPN_RACE_BROADCAST_DESR_NO3_WRANGLER_WINNER_DESR_LGP07007                       A20   C        04:25:09:25 04:25:10:01 00:05:43:16 00:05:43:20 
M2      ERN_F5144_NSCR_1987-04-12_BRISTOL_VALLEYDALE_500-ESPN_RACE_BROADCAST_DESR_NO3_WRANGLER_WINNER_DESR_LGP07007                                030.0 04:25:09:25 
*FROM CLIP NAME:  ERN_F5144_NSCR_1987-04-12_BRISTOL VALLEYDALE 500-ESPN RACE BROADCAST DESR NO3 WRANGLER WINNER DESR_LGP07007.NEW.01 
*SOURCE FILE: ERN_F5144_NSCR_1987-04-12_BRISTOL VALLEYDALE 500-ESPN RACE BROADCAST DESR NO3 WRANGLER WINNER DESR_LGP07007
000319  ERN_F5144_NSCR_1987-04-12_BRISTOL_VALLEYDALE_500-ESPN_RACE_BROADCAST_DESR_NO3_WRANGLER_WINNER_DESR_LGP07007                       A20   C        04:25:10:00 04:25:11:13 00:05:43:20 00:05:45:06 
M2      ERN_F5144_NSCR_1987-04-12_BRISTOL_VALLEYDALE_500-ESPN_RACE_BROADCAST_DESR_NO3_WRANGLER_WINNER_DESR_LGP07007                                030.0 04:25:10:00 
*FROM CLIP NAME:  ERN_F5144_NSCR_1987-04-12_BRISTOL VALLEYDALE 500-ESPN RACE BROADCAST DESR NO3 WRANGLER WINNER DESR_LGP07007.NEW.01 
*SOURCE FILE: ERN_F5144_NSCR_1987-04-12_BRISTOL VALLEYDALE 500-ESPN RACE BROADCAST DESR NO3 WRANGLER WINNER DESR_LGP07007
000320  ERN_F5144_NSCR_1987-04-12_BRISTOL_VALLEYDALE_500-ESPN_RACE_BROADCAST_DESR_NO3_WRANGLER_WINNER_DESR_LGP07007                       A20   C        04:25:04:21 04:25:05:02 00:05:45:06 00:05:45:14 
M2      ERN_F5144_NSCR_1987-04-12_BRISTOL_VALLEYDALE_500-ESPN_RACE_BROADCAST_DESR_NO3_WRANGLER_WINNER_DESR_LGP07007                                030.0 04:25:04:21 
*FROM CLIP NAME:  ERN_F5144_NSCR_1987-04-12_BRISTOL VALLEYDALE 500-ESPN RACE BROADCAST DESR NO3 WRANGLER WINNER DESR_LGP07007.NEW.01 
*TO CLIP NAME:  ERN_F5144_NSCR_1987-04-12_BRISTOL VALLEYDALE 500-ESPN RACE BROADCAST DESR NO3 WRANGLER WINNER DESR_LGP07007.NEW.01 
*SOURCE FILE: ERN_F5144_NSCR_1987-04-12_BRISTOL VALLEYDALE 500-ESPN RACE BROADCAST DESR NO3 WRANGLER WINNER DESR_LGP07007
000321  ERN_F5144_NSCR_1987-04-12_BRISTOL_VALLEYDALE_500-ESPN_RACE_BROADCAST_DESR_NO3_WRANGLER_WINNER_DESR_LGP07007                       A20   C        04:25:05:01 04:25:06:22 00:05:45:14 00:05:47:06 
M2      ERN_F5144_NSCR_1987-04-12_BRISTOL_VALLEYDALE_500-ESPN_RACE_BROADCAST_DESR_NO3_WRANGLER_WINNER_DESR_LGP07007                                030.0 04:25:05:01 
*FROM CLIP NAME:  ERN_F5144_NSCR_1987-04-12_BRISTOL VALLEYDALE 500-ESPN RACE BROADCAST DESR NO3 WRANGLER WINNER DESR_LGP07007.NEW.01 
*SOURCE FILE: ERN_F5144_NSCR_1987-04-12_BRISTOL VALLEYDALE 500-ESPN RACE BROADCAST DESR NO3 WRANGLER WINNER DESR_LGP07007
000322  ERN_F0800_NSCR_1987-05-17_RACE_DESR_WINNER_BILL_ELLIOTT_CHARLOTTE_-_THE_WINSTON_87-EV-0287                                        A22   C        00:49:34:10 00:49:35:25 00:05:46:17 00:05:48:05 
M2      ERN_F0800_NSCR_1987-05-17_RACE_DESR_WINNER_BILL_ELLIOTT_CHARLOTTE_-_THE_WINSTON_87-EV-0287                                                 030.0 00:49:34:10 
*FROM CLIP NAME:  ERN_F0800_NSCR_1987-05-17_RACE DESR WINNER BILL ELLIOTT CHARLOTTE - THE WINSTON_87-EV-0287.NEW.01 
*SOURCE FILE: ERN_F0800_NSCR_1987-05-17_RACE DESR WINNER BILL ELLIOTT CHARLOTTE - THE WINSTON_87-EV-0287
000323  ERN_F9899_NSCR_1987-10-04_1_OF_3_RACE_BROADCAST_HOLLY_FARMS_400_NORTH_WILKESBORO_LGP02304                                         V     C        00:59:19:15 00:59:26:27 00:05:47:23 00:05:55:08 
M2      ERN_F9899_NSCR_1987-10-04_1_OF_3_RACE_BROADCAST_HOLLY_FARMS_400_NORTH_WILKESBORO_LGP02304                                                  030.0 00:59:19:15 
*FROM CLIP NAME:  ERN_F9899_NSCR_1987-10-04_1 OF 3 RACE BROADCAST HOLLY FARMS 400 NORTH WILKESBORO_LGP02304.NEW.01 
*SOURCE FILE: ERN_F9899_NSCR_1987-10-04_1 OF 3 RACE BROADCAST HOLLY FARMS 400 NORTH WILKESBORO_LGP02304
000324  ERN_F0800_NSCR_1987-05-17_RACE_DESR_WINNER_BILL_ELLIOTT_CHARLOTTE_-_THE_WINSTON_87-EV-0287                                        A18   C        00:19:45:13 00:19:46:29 00:05:48:03 00:05:49:15 
M2      ERN_F0800_NSCR_1987-05-17_RACE_DESR_WINNER_BILL_ELLIOTT_CHARLOTTE_-_THE_WINSTON_87-EV-0287                                                 030.0 00:19:45:13 
*FROM CLIP NAME:  ERN_F0800_NSCR_1987-05-17_RACE DESR WINNER BILL ELLIOTT CHARLOTTE - THE WINSTON_87-EV-0287.NEW.01 
*TO CLIP NAME:  ERN_F0800_NSCR_1987-05-17_RACE DESR WINNER BILL ELLIOTT CHARLOTTE - THE WINSTON_87-EV-0287.NEW.01 
*SOURCE FILE: ERN_F0800_NSCR_1987-05-17_RACE DESR WINNER BILL ELLIOTT CHARLOTTE - THE WINSTON_87-EV-0287
000325  ERN_F0800_NSCR_1987-05-17_RACE_DESR_WINNER_BILL_ELLIOTT_CHARLOTTE_-_THE_WINSTON_87-EV-0287                                        A22   C        00:49:35:25 00:49:44:28 00:05:48:05 00:05:57:07 
M2      ERN_F0800_NSCR_1987-05-17_RACE_DESR_WINNER_BILL_ELLIOTT_CHARLOTTE_-_THE_WINSTON_87-EV-0287                                                 030.0 00:49:35:25 
*FROM CLIP NAME:  ERN_F0800_NSCR_1987-05-17_RACE DESR WINNER BILL ELLIOTT CHARLOTTE - THE WINSTON_87-EV-0287.NEW.01 
*SOURCE FILE: ERN_F0800_NSCR_1987-05-17_RACE DESR WINNER BILL ELLIOTT CHARLOTTE - THE WINSTON_87-EV-0287
000326  ERN_F0800_NSCR_1987-05-17_RACE_DESR_WINNER_BILL_ELLIOTT_CHARLOTTE_-_THE_WINSTON_87-EV-0287                                        A18   C        00:19:46:28 00:19:47:06 00:05:49:15 00:05:49:21 
M2      ERN_F0800_NSCR_1987-05-17_RACE_DESR_WINNER_BILL_ELLIOTT_CHARLOTTE_-_THE_WINSTON_87-EV-0287                                                 030.0 00:19:46:28 
*FROM CLIP NAME:  ERN_F0800_NSCR_1987-05-17_RACE DESR WINNER BILL ELLIOTT CHARLOTTE - THE WINSTON_87-EV-0287.NEW.01 
*SOURCE FILE: ERN_F0800_NSCR_1987-05-17_RACE DESR WINNER BILL ELLIOTT CHARLOTTE - THE WINSTON_87-EV-0287
000327  ERN_F0994_NSCR_1993_RACE_NEIL_BONNETT_BLOWN_ENGINE_DESR_AMASS_POINTS_NEEDED_FOR_CHAMPIONSHIP_93TALLADEGA                          A18   C        00:18:07:14 00:18:08:14 00:05:54:19 00:05:55:19 
M2      ERN_F0994_NSCR_1993_RACE_NEIL_BONNETT_BLOWN_ENGINE_DESR_AMASS_POINTS_NEEDED_FOR_CHAMPIONSHIP_93TALLADEGA                                   030.0 00:18:07:14 
*FROM CLIP NAME:  ERN_F0994_NSCR_1993_RACE NEIL BONNETT BLOWN ENGINE DESR AMASS POINTS NEEDED FOR CHAMPIONSHIP_93TALLADEGA.NEW.01 
*SOURCE FILE: ERN_F0994_NSCR_1993_RACE NEIL BONNETT BLOWN ENGINE DESR AMASS POINTS NEEDED FOR CHAMPIONSHIP_93TALLADEGA
000328  ERN_F9899_NSCR_1987-10-04_1_OF_3_RACE_BROADCAST_HOLLY_FARMS_400_NORTH_WILKESBORO_LGP02304                                         V     C        00:08:48:10 00:08:53:13 00:05:55:08 00:05:59:14 
M2      ERN_F9899_NSCR_1987-10-04_1_OF_3_RACE_BROADCAST_HOLLY_FARMS_400_NORTH_WILKESBORO_LGP02304                                                  036.0 00:08:48:10 
*FROM CLIP NAME:  ERN_F9899_NSCR_1987-10-04_1 OF 3 RACE BROADCAST HOLLY FARMS 400 NORTH WILKESBORO_LGP02304.NEW.01 
*SOURCE FILE: ERN_F9899_NSCR_1987-10-04_1 OF 3 RACE BROADCAST HOLLY FARMS 400 NORTH WILKESBORO_LGP02304
000329  ERN_F0994_NSCR_1993_RACE_NEIL_BONNETT_BLOWN_ENGINE_DESR_AMASS_POINTS_NEEDED_FOR_CHAMPIONSHIP_93TALLADEGA                          A18   C        00:18:08:14 00:18:17:13 00:05:55:19 00:06:04:18 
M2      ERN_F0994_NSCR_1993_RACE_NEIL_BONNETT_BLOWN_ENGINE_DESR_AMASS_POINTS_NEEDED_FOR_CHAMPIONSHIP_93TALLADEGA                                   030.0 00:18:08:14 
*FROM CLIP NAME:  ERN_F0994_NSCR_1993_RACE NEIL BONNETT BLOWN ENGINE DESR AMASS POINTS NEEDED FOR CHAMPIONSHIP_93TALLADEGA.NEW.01 
*SOURCE FILE: ERN_F0994_NSCR_1993_RACE NEIL BONNETT BLOWN ENGINE DESR AMASS POINTS NEEDED FOR CHAMPIONSHIP_93TALLADEGA
000330  ERN_F0899_NSCR_1994-11-23_INTV_COMPILATION_DESR_INTRO_BY_NEIL_BONNETT__LGP04418                                                   A20   C        01:04:18:10 01:04:19:11 00:05:58:06 00:05:59:06 
M2      ERN_F0899_NSCR_1994-11-23_INTV_COMPILATION_DESR_INTRO_BY_NEIL_BONNETT__LGP04418                                                            030.0 01:04:18:10 
*FROM CLIP NAME:  ERN_F0899_NSCR_1994-11-23_INTV COMPILATION DESR INTRO BY NEIL BONNETT _LGP04418.NEW.01 
*SOURCE FILE: ERN_F0899_NSCR_1994-11-23_INTV COMPILATION DESR INTRO BY NEIL BONNETT _LGP04418
000331  ERN_F0899_NSCR_1994-11-23_INTV_COMPILATION_DESR_INTRO_BY_NEIL_BONNETT__LGP04418                                                   A20   C        01:04:19:10 01:04:20:26 00:05:59:06 00:06:00:18 
M2      ERN_F0899_NSCR_1994-11-23_INTV_COMPILATION_DESR_INTRO_BY_NEIL_BONNETT__LGP04418                                                            030.0 01:04:19:10 
*FROM CLIP NAME:  ERN_F0899_NSCR_1994-11-23_INTV COMPILATION DESR INTRO BY NEIL BONNETT _LGP04418.NEW.01 
*SOURCE FILE: ERN_F0899_NSCR_1994-11-23_INTV COMPILATION DESR INTRO BY NEIL BONNETT _LGP04418
000332  ERN_F9899_NSCR_1987-10-04_1_OF_3_RACE_BROADCAST_HOLLY_FARMS_400_NORTH_WILKESBORO_LGP02304                                         V     C        00:41:41:07 00:41:48:08 00:05:59:14 00:06:06:14 
M2      ERN_F9899_NSCR_1987-10-04_1_OF_3_RACE_BROADCAST_HOLLY_FARMS_400_NORTH_WILKESBORO_LGP02304                                                  030.0 00:41:41:07 
*FROM CLIP NAME:  ERN_F9899_NSCR_1987-10-04_1 OF 3 RACE BROADCAST HOLLY FARMS 400 NORTH WILKESBORO_LGP02304.NEW.01 
*SOURCE FILE: ERN_F9899_NSCR_1987-10-04_1 OF 3 RACE BROADCAST HOLLY FARMS 400 NORTH WILKESBORO_LGP02304
000333  ERN_F0899_NSCR_1994-11-23_INTV_COMPILATION_DESR_INTRO_BY_NEIL_BONNETT__LGP04418                                                   A20   C        01:04:32:00 01:04:32:03 00:06:00:18 00:06:00:20 
M2      ERN_F0899_NSCR_1994-11-23_INTV_COMPILATION_DESR_INTRO_BY_NEIL_BONNETT__LGP04418                                                            030.0 01:04:32:00 
*FROM CLIP NAME:  ERN_F0899_NSCR_1994-11-23_INTV COMPILATION DESR INTRO BY NEIL BONNETT _LGP04418.NEW.01 
*TO CLIP NAME:  ERN_F0899_NSCR_1994-11-23_INTV COMPILATION DESR INTRO BY NEIL BONNETT _LGP04418.NEW.01 
*SOURCE FILE: ERN_F0899_NSCR_1994-11-23_INTV COMPILATION DESR INTRO BY NEIL BONNETT _LGP04418
000334  ERN_F0899_NSCR_1994-11-23_INTV_COMPILATION_DESR_INTRO_BY_NEIL_BONNETT__LGP04418                                                   A20   C        01:04:32:03 01:04:33:12 00:06:00:20 00:06:02:03 
M2      ERN_F0899_NSCR_1994-11-23_INTV_COMPILATION_DESR_INTRO_BY_NEIL_BONNETT__LGP04418                                                            030.0 01:04:32:03 
*FROM CLIP NAME:  ERN_F0899_NSCR_1994-11-23_INTV COMPILATION DESR INTRO BY NEIL BONNETT _LGP04418.NEW.01 
*SOURCE FILE: ERN_F0899_NSCR_1994-11-23_INTV COMPILATION DESR INTRO BY NEIL BONNETT _LGP04418
000335  ERN_F0899_NSCR_1994-11-23_INTV_COMPILATION_DESR_INTRO_BY_NEIL_BONNETT__LGP04418                                                   A20   C        01:04:35:09 01:04:35:12 00:06:02:03 00:06:02:05 
M2      ERN_F0899_NSCR_1994-11-23_INTV_COMPILATION_DESR_INTRO_BY_NEIL_BONNETT__LGP04418                                                            030.0 01:04:35:09 
*FROM CLIP NAME:  ERN_F0899_NSCR_1994-11-23_INTV COMPILATION DESR INTRO BY NEIL BONNETT _LGP04418.NEW.01 
*TO CLIP NAME:  ERN_F0899_NSCR_1994-11-23_INTV COMPILATION DESR INTRO BY NEIL BONNETT _LGP04418.NEW.01 
*SOURCE FILE: ERN_F0899_NSCR_1994-11-23_INTV COMPILATION DESR INTRO BY NEIL BONNETT _LGP04418
000336  ERN_F0899_NSCR_1994-11-23_INTV_COMPILATION_DESR_INTRO_BY_NEIL_BONNETT__LGP04418                                                   A20   C        01:04:35:11 01:04:39:12 00:06:02:05 00:06:06:05 
M2      ERN_F0899_NSCR_1994-11-23_INTV_COMPILATION_DESR_INTRO_BY_NEIL_BONNETT__LGP04418                                                            030.0 01:04:35:11 
*FROM CLIP NAME:  ERN_F0899_NSCR_1994-11-23_INTV COMPILATION DESR INTRO BY NEIL BONNETT _LGP04418.NEW.01 
*SOURCE FILE: ERN_F0899_NSCR_1994-11-23_INTV COMPILATION DESR INTRO BY NEIL BONNETT _LGP04418
000337  ERN_F0800_NSCR_1987-05-17_RACE_DESR_WINNER_BILL_ELLIOTT_CHARLOTTE_-_THE_WINSTON_87-EV-0287                                        A22   C        00:49:56:27 00:49:57:28 00:06:05:17 00:06:06:17 
M2      ERN_F0800_NSCR_1987-05-17_RACE_DESR_WINNER_BILL_ELLIOTT_CHARLOTTE_-_THE_WINSTON_87-EV-0287                                                 030.0 00:49:56:27 
*FROM CLIP NAME:  ERN_F0800_NSCR_1987-05-17_RACE DESR WINNER BILL ELLIOTT CHARLOTTE - THE WINSTON_87-EV-0287.NEW.01 
*SOURCE FILE: ERN_F0800_NSCR_1987-05-17_RACE DESR WINNER BILL ELLIOTT CHARLOTTE - THE WINSTON_87-EV-0287
000338  ERN_F0899_NSCR_1994-11-23_INTV_COMPILATION_DESR_INTRO_BY_NEIL_BONNETT__LGP04418                                                   A20   C        01:04:44:08 01:04:44:21 00:06:06:05 00:06:06:15 
M2      ERN_F0899_NSCR_1994-11-23_INTV_COMPILATION_DESR_INTRO_BY_NEIL_BONNETT__LGP04418                                                            030.0 01:04:44:08 
*FROM CLIP NAME:  ERN_F0899_NSCR_1994-11-23_INTV COMPILATION DESR INTRO BY NEIL BONNETT _LGP04418.NEW.01 
*TO CLIP NAME:  ERN_F0899_NSCR_1994-11-23_INTV COMPILATION DESR INTRO BY NEIL BONNETT _LGP04418.NEW.01 
*SOURCE FILE: ERN_F0899_NSCR_1994-11-23_INTV COMPILATION DESR INTRO BY NEIL BONNETT _LGP04418
000339  ERN_F9899_NSCR_1987-10-04_1_OF_3_RACE_BROADCAST_HOLLY_FARMS_400_NORTH_WILKESBORO_LGP02304                                         V     C        00:41:49:07 00:41:56:14 00:06:06:14 00:06:13:19 
M2      ERN_F9899_NSCR_1987-10-04_1_OF_3_RACE_BROADCAST_HOLLY_FARMS_400_NORTH_WILKESBORO_LGP02304                                                  030.0 00:41:49:07 
*FROM CLIP NAME:  ERN_F9899_NSCR_1987-10-04_1 OF 3 RACE BROADCAST HOLLY FARMS 400 NORTH WILKESBORO_LGP02304.NEW.01 
*SOURCE FILE: ERN_F9899_NSCR_1987-10-04_1 OF 3 RACE BROADCAST HOLLY FARMS 400 NORTH WILKESBORO_LGP02304
000340  ERN_F0899_NSCR_1994-11-23_INTV_COMPILATION_DESR_INTRO_BY_NEIL_BONNETT__LGP04418                                                   A20   C        01:04:44:20 01:04:44:26 00:06:06:15 00:06:06:19 
M2      ERN_F0899_NSCR_1994-11-23_INTV_COMPILATION_DESR_INTRO_BY_NEIL_BONNETT__LGP04418                                                            030.0 01:04:44:20 
*FROM CLIP NAME:  ERN_F0899_NSCR_1994-11-23_INTV COMPILATION DESR INTRO BY NEIL BONNETT _LGP04418.NEW.01 
*SOURCE FILE: ERN_F0899_NSCR_1994-11-23_INTV COMPILATION DESR INTRO BY NEIL BONNETT _LGP04418
000341  ERN_F0800_NSCR_1987-05-17_RACE_DESR_WINNER_BILL_ELLIOTT_CHARLOTTE_-_THE_WINSTON_87-EV-0287                                        A22   C        00:49:57:27 00:49:58:29 00:06:06:17 00:06:07:18 
M2      ERN_F0800_NSCR_1987-05-17_RACE_DESR_WINNER_BILL_ELLIOTT_CHARLOTTE_-_THE_WINSTON_87-EV-0287                                                 030.0 00:49:57:27 
*FROM CLIP NAME:  ERN_F0800_NSCR_1987-05-17_RACE DESR WINNER BILL ELLIOTT CHARLOTTE - THE WINSTON_87-EV-0287.NEW.01 
*SOURCE FILE: ERN_F0800_NSCR_1987-05-17_RACE DESR WINNER BILL ELLIOTT CHARLOTTE - THE WINSTON_87-EV-0287
000342  ERN_F0800_NSCR_1987-05-17_RACE_DESR_WINNER_BILL_ELLIOTT_CHARLOTTE_-_THE_WINSTON_87-EV-0287                                        A22   C        00:49:58:28 00:50:00:14 00:06:07:18 00:06:09:06 
M2      ERN_F0800_NSCR_1987-05-17_RACE_DESR_WINNER_BILL_ELLIOTT_CHARLOTTE_-_THE_WINSTON_87-EV-0287                                                 030.0 00:49:58:28 
*FROM CLIP NAME:  ERN_F0800_NSCR_1987-05-17_RACE DESR WINNER BILL ELLIOTT CHARLOTTE - THE WINSTON_87-EV-0287.NEW.01 
*TO CLIP NAME:  ERN_F0800_NSCR_1987-05-17_RACE DESR WINNER BILL ELLIOTT CHARLOTTE - THE WINSTON_87-EV-0287.NEW.01 
*SOURCE FILE: ERN_F0800_NSCR_1987-05-17_RACE DESR WINNER BILL ELLIOTT CHARLOTTE - THE WINSTON_87-EV-0287
000343  ERN_F2723__2007-03-23_BONNET_INTV_SE003124                                                                                        A20   C        00:20:23:04 00:20:23:09 00:06:08:12 00:06:08:16 
M2      ERN_F2723__2007-03-23_BONNET_INTV_SE003124                                                                                                 030.0 00:20:23:04 
*FROM CLIP NAME:  ERN_F2723__2007-03-23_BONNET INTV_SE003124.NEW.01 
*SOURCE FILE: ERN_F2723__2007-03-23_BONNET INTV_SE003124
000344  ERN_F0994_NSCR_1993_RACE_NEIL_BONNETT_BLOWN_ENGINE_DESR_AMASS_POINTS_NEEDED_FOR_CHAMPIONSHIP_93TALLADEGA                          A18   C        00:18:06:27 00:18:07:28 00:06:08:16 00:06:09:16 
M2      ERN_F0994_NSCR_1993_RACE_NEIL_BONNETT_BLOWN_ENGINE_DESR_AMASS_POINTS_NEEDED_FOR_CHAMPIONSHIP_93TALLADEGA                                   030.0 00:18:06:27 
*FROM CLIP NAME:  ERN_F0994_NSCR_1993_RACE NEIL BONNETT BLOWN ENGINE DESR AMASS POINTS NEEDED FOR CHAMPIONSHIP_93TALLADEGA.NEW.01 
*SOURCE FILE: ERN_F0994_NSCR_1993_RACE NEIL BONNETT BLOWN ENGINE DESR AMASS POINTS NEEDED FOR CHAMPIONSHIP_93TALLADEGA
000345  ERN_F2723__2007-03-23_BONNET_INTV_SE003124                                                                                        A20   C        00:20:23:09 00:20:26:18 00:06:08:16 00:06:11:23 
M2      ERN_F2723__2007-03-23_BONNET_INTV_SE003124                                                                                                 030.0 00:20:23:09 
*FROM CLIP NAME:  ERN_F2723__2007-03-23_BONNET INTV_SE003124.NEW.01 
*SOURCE FILE: ERN_F2723__2007-03-23_BONNET INTV_SE003124
000346  ERN_F0800_NSCR_1987-05-17_RACE_DESR_WINNER_BILL_ELLIOTT_CHARLOTTE_-_THE_WINSTON_87-EV-0287                                        A22   C        00:50:00:13 00:50:04:02 00:06:09:06 00:06:12:20 
M2      ERN_F0800_NSCR_1987-05-17_RACE_DESR_WINNER_BILL_ELLIOTT_CHARLOTTE_-_THE_WINSTON_87-EV-0287                                                 030.0 00:50:00:13 
*FROM CLIP NAME:  ERN_F0800_NSCR_1987-05-17_RACE DESR WINNER BILL ELLIOTT CHARLOTTE - THE WINSTON_87-EV-0287.NEW.01 
*SOURCE FILE: ERN_F0800_NSCR_1987-05-17_RACE DESR WINNER BILL ELLIOTT CHARLOTTE - THE WINSTON_87-EV-0287
000347  ERN_F0994_NSCR_1993_RACE_NEIL_BONNETT_BLOWN_ENGINE_DESR_AMASS_POINTS_NEEDED_FOR_CHAMPIONSHIP_93TALLADEGA                          A18   C        00:18:07:27 00:18:11:17 00:06:09:16 00:06:13:07 
M2      ERN_F0994_NSCR_1993_RACE_NEIL_BONNETT_BLOWN_ENGINE_DESR_AMASS_POINTS_NEEDED_FOR_CHAMPIONSHIP_93TALLADEGA                                   030.0 00:18:07:27 
*FROM CLIP NAME:  ERN_F0994_NSCR_1993_RACE NEIL BONNETT BLOWN ENGINE DESR AMASS POINTS NEEDED FOR CHAMPIONSHIP_93TALLADEGA.NEW.01 
*SOURCE FILE: ERN_F0994_NSCR_1993_RACE NEIL BONNETT BLOWN ENGINE DESR AMASS POINTS NEEDED FOR CHAMPIONSHIP_93TALLADEGA
000348  ERN_F2723__2007-03-23_BONNET_INTV_SE003124                                                                                        A20   C        00:20:32:17 00:20:32:23 00:06:12:14 00:06:12:18 
M2      ERN_F2723__2007-03-23_BONNET_INTV_SE003124                                                                                                 030.0 00:20:32:17 
*FROM CLIP NAME:  ERN_F2723__2007-03-23_BONNET INTV_SE003124.NEW.01 
*SOURCE FILE: ERN_F2723__2007-03-23_BONNET INTV_SE003124
000349  ERN_F2723__2007-03-23_BONNET_INTV_SE003124                                                                                        A20   C        00:20:32:22 00:20:39:09 00:06:12:18 00:06:19:07 
M2      ERN_F2723__2007-03-23_BONNET_INTV_SE003124                                                                                                 030.0 00:20:32:22 
*FROM CLIP NAME:  ERN_F2723__2007-03-23_BONNET INTV_SE003124.NEW.01 
*SOURCE FILE: ERN_F2723__2007-03-23_BONNET INTV_SE003124
000350  ERN_F2723__2007-03-23_BONNET_INTV_SE003124                                                                                        V     C        00:20:33:24 00:20:38:12 00:06:13:19 00:06:18:09 
M2      ERN_F2723__2007-03-23_BONNET_INTV_SE003124                                                                                                 030.0 00:20:33:24 
*FROM CLIP NAME:  ERN_F2723__2007-03-23_BONNET INTV_SE003124.NEW.01 
*SOURCE FILE: ERN_F2723__2007-03-23_BONNET INTV_SE003124
000351  ERN_F0793_NSCR_1987-05-17_RACE_DESR_WINNER_CHARLOTTE_-_THE_WINSTON_87-EV-0108                                                     A22   C        00:10:48:00 00:10:49:15 00:06:18:04 00:06:19:16 
M2      ERN_F0793_NSCR_1987-05-17_RACE_DESR_WINNER_CHARLOTTE_-_THE_WINSTON_87-EV-0108                                                              030.0 00:10:48:00 
*FROM CLIP NAME:  ERN_F0793_NSCR_1987-05-17_RACE DESR WINNER CHARLOTTE - THE WINSTON_87-EV-0108.NEW.01 
*SOURCE FILE: ERN_F0793_NSCR_1987-05-17_RACE DESR WINNER CHARLOTTE - THE WINSTON_87-EV-0108
000352  ERN_F0793_NSCR_1987-05-17_RACE_DESR_WINNER_CHARLOTTE_-_THE_WINSTON_87-EV-0108                                                     V     C        00:10:56:08 00:11:04:02 00:06:18:09 00:06:26:02 
M2      ERN_F0793_NSCR_1987-05-17_RACE_DESR_WINNER_CHARLOTTE_-_THE_WINSTON_87-EV-0108                                                              030.0 00:10:56:08 
*FROM CLIP NAME:  ERN_F0793_NSCR_1987-05-17_RACE DESR WINNER CHARLOTTE - THE WINSTON_87-EV-0108.NEW.01 
*SOURCE FILE: ERN_F0793_NSCR_1987-05-17_RACE DESR WINNER CHARLOTTE - THE WINSTON_87-EV-0108
000353  ERN_F0793_NSCR_1987-05-17_RACE_DESR_WINNER_CHARLOTTE_-_THE_WINSTON_87-EV-0108                                                     A22   C        00:10:49:15 00:10:50:19 00:06:19:16 00:06:20:19 
M2      ERN_F0793_NSCR_1987-05-17_RACE_DESR_WINNER_CHARLOTTE_-_THE_WINSTON_87-EV-0108                                                              030.0 00:10:49:15 
*FROM CLIP NAME:  ERN_F0793_NSCR_1987-05-17_RACE DESR WINNER CHARLOTTE - THE WINSTON_87-EV-0108.NEW.01 
*SOURCE FILE: ERN_F0793_NSCR_1987-05-17_RACE DESR WINNER CHARLOTTE - THE WINSTON_87-EV-0108
000354  ERN_F0793_NSCR_1987-05-17_RACE_DESR_WINNER_CHARLOTTE_-_THE_WINSTON_87-EV-0108                                                     A22   C        00:10:50:18 00:10:52:12 00:06:20:19 00:06:22:13 
M2      ERN_F0793_NSCR_1987-05-17_RACE_DESR_WINNER_CHARLOTTE_-_THE_WINSTON_87-EV-0108                                                              030.0 00:10:50:18 
*FROM CLIP NAME:  ERN_F0793_NSCR_1987-05-17_RACE DESR WINNER CHARLOTTE - THE WINSTON_87-EV-0108.NEW.01 
*TO CLIP NAME:  ERN_F0793_NSCR_1987-05-17_RACE DESR WINNER CHARLOTTE - THE WINSTON_87-EV-0108.NEW.01 
*SOURCE FILE: ERN_F0793_NSCR_1987-05-17_RACE DESR WINNER CHARLOTTE - THE WINSTON_87-EV-0108
000355  ERN_F0793_NSCR_1987-05-17_RACE_DESR_WINNER_CHARLOTTE_-_THE_WINSTON_87-EV-0108                                                     A22   C        00:10:52:11 00:10:54:19 00:06:22:13 00:06:24:19 
M2      ERN_F0793_NSCR_1987-05-17_RACE_DESR_WINNER_CHARLOTTE_-_THE_WINSTON_87-EV-0108                                                              030.0 00:10:52:11 
*FROM CLIP NAME:  ERN_F0793_NSCR_1987-05-17_RACE DESR WINNER CHARLOTTE - THE WINSTON_87-EV-0108.NEW.01 
*SOURCE FILE: ERN_F0793_NSCR_1987-05-17_RACE DESR WINNER CHARLOTTE - THE WINSTON_87-EV-0108
000356  ERN_F0294_NSCR_1990-04-04_2_OF_3_CAM_A_INTV_DALE_EARNHARDT_FISHING_TOPICS_-_LIFE_AFTER_RACING_&_FANS_&_AND_WINNING_RACES_AS_A_TEA A18   C        00:16:04:20 00:16:04:25 00:06:22:15 00:06:22:19 
M2      ERN_F0294_NSCR_1990-04-04_2_OF_3_CAM_A_INTV_DALE_EARNHARDT_FISHING_TOPICS_-_LIFE_AFTER_RACING_&_FANS_&_AND_WINNING_RACES_AS_A_TEA          030.0 00:16:04:20 
*FROM CLIP NAME:  ERN_F0294_NSCR_1990-04-04_2 OF 3 CAM A INTV DALE EARNHARDT FISHING TOPICS - LIFE AFTER RACING & FANS & AND WINNING RACES AS A TEAM_SE005926_S001.NEW.01 
*SOURCE FILE: ERN_F0294_NSCR_1990-04-04_2 OF 3 CAM A INTV DALE EARNHARDT FISHING TOPICS - LIFE AFTER RACING & FANS & AND WINNING RACES AS A TEAM_SE005926_S001
000357  ERN_F0294_NSCR_1990-04-04_2_OF_3_CAM_A_INTV_DALE_EARNHARDT_FISHING_TOPICS_-_LIFE_AFTER_RACING_&_FANS_&_AND_WINNING_RACES_AS_A_TEA A18   C        00:16:04:25 00:16:06:27 00:06:22:19 00:06:24:20 
M2      ERN_F0294_NSCR_1990-04-04_2_OF_3_CAM_A_INTV_DALE_EARNHARDT_FISHING_TOPICS_-_LIFE_AFTER_RACING_&_FANS_&_AND_WINNING_RACES_AS_A_TEA          030.0 00:16:04:25 
*FROM CLIP NAME:  ERN_F0294_NSCR_1990-04-04_2 OF 3 CAM A INTV DALE EARNHARDT FISHING TOPICS - LIFE AFTER RACING & FANS & AND WINNING RACES AS A TEAM_SE005926_S001.NEW.01 
*SOURCE FILE: ERN_F0294_NSCR_1990-04-04_2 OF 3 CAM A INTV DALE EARNHARDT FISHING TOPICS - LIFE AFTER RACING & FANS & AND WINNING RACES AS A TEAM_SE005926_S001
000358  ERN_F0294_NSCR_1990-04-04_2_OF_3_CAM_A_INTV_DALE_EARNHARDT_FISHING_TOPICS_-_LIFE_AFTER_RACING_&_FANS_&_AND_WINNING_RACES_AS_A_TEA A18   C        00:16:11:12 00:16:16:28 00:06:24:20 00:06:30:08 
M2      ERN_F0294_NSCR_1990-04-04_2_OF_3_CAM_A_INTV_DALE_EARNHARDT_FISHING_TOPICS_-_LIFE_AFTER_RACING_&_FANS_&_AND_WINNING_RACES_AS_A_TEA          030.0 00:16:11:12 
*FROM CLIP NAME:  ERN_F0294_NSCR_1990-04-04_2 OF 3 CAM A INTV DALE EARNHARDT FISHING TOPICS - LIFE AFTER RACING & FANS & AND WINNING RACES AS A TEAM_SE005926_S001.NEW.01 
*SOURCE FILE: ERN_F0294_NSCR_1990-04-04_2 OF 3 CAM A INTV DALE EARNHARDT FISHING TOPICS - LIFE AFTER RACING & FANS & AND WINNING RACES AS A TEAM_SE005926_S001
000359  ERN_F0294_NSCR_1990-04-04_2_OF_3_CAM_A_INTV_DALE_EARNHARDT_FISHING_TOPICS_-_LIFE_AFTER_RACING_&_FANS_&_AND_WINNING_RACES_AS_A_TEA V     C        00:16:12:21 00:16:14:23 00:06:26:02 00:06:28:03 
M2      ERN_F0294_NSCR_1990-04-04_2_OF_3_CAM_A_INTV_DALE_EARNHARDT_FISHING_TOPICS_-_LIFE_AFTER_RACING_&_FANS_&_AND_WINNING_RACES_AS_A_TEA          030.0 00:16:12:21 
*FROM CLIP NAME:  ERN_F0294_NSCR_1990-04-04_2 OF 3 CAM A INTV DALE EARNHARDT FISHING TOPICS - LIFE AFTER RACING & FANS & AND WINNING RACES AS A TEAM_SE005926_S001.NEW.01 
*SOURCE FILE: ERN_F0294_NSCR_1990-04-04_2 OF 3 CAM A INTV DALE EARNHARDT FISHING TOPICS - LIFE AFTER RACING & FANS & AND WINNING RACES AS A TEAM_SE005926_S001
000360  ERN_F0785_NSCR_1986-02-23_RACE_DESR_AND_DARRELL_WALTRIP_CRASH_NASCAR_CUP_SERIES_-_RICHMOND_TNN001790                              A22   C        00:06:09:06 00:06:10:00 00:06:28:02 00:06:28:20 
M2      ERN_F0785_NSCR_1986-02-23_RACE_DESR_AND_DARRELL_WALTRIP_CRASH_NASCAR_CUP_SERIES_-_RICHMOND_TNN001790                                       030.0 00:06:09:06 
*FROM CLIP NAME:  ERN_F0785_NSCR_1986-02-23_RACE DESR AND DARRELL WALTRIP CRASH NASCAR CUP SERIES - RICHMOND_TNN001790.NEW.01 
*SOURCE FILE: ERN_F0785_NSCR_1986-02-23_RACE DESR AND DARRELL WALTRIP CRASH NASCAR CUP SERIES - RICHMOND_TNN001790
000361  ERN_F3931_NSCR_1979-11-18_CORPORATE_MOTORSPORTS-16MM_FILM_FOOTAGE_NO_AUDIO_PRE-RACE_DRIVERS_GETTING_INTO_CARS_DESR_FLYBYS_VICTORY V     C        00:05:26:02 00:05:33:26 00:06:28:03 00:06:35:22 
M2      ERN_F3931_NSCR_1979-11-18_CORPORATE_MOTORSPORTS-16MM_FILM_FOOTAGE_NO_AUDIO_PRE-RACE_DRIVERS_GETTING_INTO_CARS_DESR_FLYBYS_VICTORY          060.0 00:05:26:02 
*FROM CLIP NAME:  ERN_F3931_NSCR_1979-11-18_CORPORATE MOTORSPORTS-16MM FILM FOOTAGE NO AUDIO PRE-RACE DRIVERS GETTING INTO CARS DESR FLYBYS VICTORY LANE B-ROLL_12-FB-01648.NEW.01 
*SOURCE FILE: ERN_F3931_NSCR_1979-11-18_CORPORATE MOTORSPORTS-16MM FILM FOOTAGE NO AUDIO PRE-RACE DRIVERS GETTING INTO CARS DESR FLYBYS VICTORY LANE B-ROLL_12-FB-01648
000362  ERN_F0785_NSCR_1986-02-23_RACE_DESR_AND_DARRELL_WALTRIP_CRASH_NASCAR_CUP_SERIES_-_RICHMOND_TNN001790                              A22   C        00:06:09:29 00:06:11:02 00:06:28:20 00:06:29:22 
M2      ERN_F0785_NSCR_1986-02-23_RACE_DESR_AND_DARRELL_WALTRIP_CRASH_NASCAR_CUP_SERIES_-_RICHMOND_TNN001790                                       030.0 00:06:09:29 
*FROM CLIP NAME:  ERN_F0785_NSCR_1986-02-23_RACE DESR AND DARRELL WALTRIP CRASH NASCAR CUP SERIES - RICHMOND_TNN001790.NEW.01 
*SOURCE FILE: ERN_F0785_NSCR_1986-02-23_RACE DESR AND DARRELL WALTRIP CRASH NASCAR CUP SERIES - RICHMOND_TNN001790
000363  ERN_F0785_NSCR_1986-02-23_RACE_DESR_AND_DARRELL_WALTRIP_CRASH_NASCAR_CUP_SERIES_-_RICHMOND_TNN001790                              A22   C        00:06:11:01 00:06:12:17 00:06:29:22 00:06:31:10 
M2      ERN_F0785_NSCR_1986-02-23_RACE_DESR_AND_DARRELL_WALTRIP_CRASH_NASCAR_CUP_SERIES_-_RICHMOND_TNN001790                                       030.0 00:06:11:01 
*FROM CLIP NAME:  ERN_F0785_NSCR_1986-02-23_RACE DESR AND DARRELL WALTRIP CRASH NASCAR CUP SERIES - RICHMOND_TNN001790.NEW.01 
*TO CLIP NAME:  ERN_F0785_NSCR_1986-02-23_RACE DESR AND DARRELL WALTRIP CRASH NASCAR CUP SERIES - RICHMOND_TNN001790.NEW.01 
*SOURCE FILE: ERN_F0785_NSCR_1986-02-23_RACE DESR AND DARRELL WALTRIP CRASH NASCAR CUP SERIES - RICHMOND_TNN001790
000364  ERN_F0294_NSCR_1990-04-04_2_OF_3_CAM_A_INTV_DALE_EARNHARDT_FISHING_TOPICS_-_LIFE_AFTER_RACING_&_FANS_&_AND_WINNING_RACES_AS_A_TEA A18   C        00:19:35:23 00:19:35:26 00:06:30:08 00:06:30:10 
M2      ERN_F0294_NSCR_1990-04-04_2_OF_3_CAM_A_INTV_DALE_EARNHARDT_FISHING_TOPICS_-_LIFE_AFTER_RACING_&_FANS_&_AND_WINNING_RACES_AS_A_TEA          030.0 00:19:35:23 
*FROM CLIP NAME:  ERN_F0294_NSCR_1990-04-04_2 OF 3 CAM A INTV DALE EARNHARDT FISHING TOPICS - LIFE AFTER RACING & FANS & AND WINNING RACES AS A TEAM_SE005926_S001.NEW.01 
*TO CLIP NAME:  ERN_F0294_NSCR_1990-04-04_2 OF 3 CAM A INTV DALE EARNHARDT FISHING TOPICS - LIFE AFTER RACING & FANS & AND WINNING RACES AS A TEAM_SE005926_S001.NEW.01 
*SOURCE FILE: ERN_F0294_NSCR_1990-04-04_2 OF 3 CAM A INTV DALE EARNHARDT FISHING TOPICS - LIFE AFTER RACING & FANS & AND WINNING RACES AS A TEAM_SE005926_S001
000365  ERN_F0294_NSCR_1990-04-04_2_OF_3_CAM_A_INTV_DALE_EARNHARDT_FISHING_TOPICS_-_LIFE_AFTER_RACING_&_FANS_&_AND_WINNING_RACES_AS_A_TEA A18   C        00:19:35:26 00:19:36:01 00:06:30:10 00:06:30:14 
M2      ERN_F0294_NSCR_1990-04-04_2_OF_3_CAM_A_INTV_DALE_EARNHARDT_FISHING_TOPICS_-_LIFE_AFTER_RACING_&_FANS_&_AND_WINNING_RACES_AS_A_TEA          030.0 00:19:35:26 
*FROM CLIP NAME:  ERN_F0294_NSCR_1990-04-04_2 OF 3 CAM A INTV DALE EARNHARDT FISHING TOPICS - LIFE AFTER RACING & FANS & AND WINNING RACES AS A TEAM_SE005926_S001.NEW.01 
*SOURCE FILE: ERN_F0294_NSCR_1990-04-04_2 OF 3 CAM A INTV DALE EARNHARDT FISHING TOPICS - LIFE AFTER RACING & FANS & AND WINNING RACES AS A TEAM_SE005926_S001
000366  ERN_F1101_NSCR_1993-01-26_B-ROLL_BTS_INTV_DESR_NEIL_BONNETT_IN_GARAGE_&_TALKING_FRIENDSHIP_1993-NAS-00005_S001                    A20   C        00:15:45:27 00:15:46:01 00:06:30:23 00:06:31:01 
M2      ERN_F1101_NSCR_1993-01-26_B-ROLL_BTS_INTV_DESR_NEIL_BONNETT_IN_GARAGE_&_TALKING_FRIENDSHIP_1993-NAS-00005_S001                             030.0 00:15:45:27 
*FROM CLIP NAME:  ERN_F1101_NSCR_1993-01-26_B-ROLL BTS INTV DESR NEIL BONNETT IN GARAGE & TALKING FRIENDSHIP_1993-NAS-00005_S001.NEW.02 
*SOURCE FILE: ERN_F1101_NSCR_1993-01-26_B-ROLL BTS INTV DESR NEIL BONNETT IN GARAGE & TALKING FRIENDSHIP_1993-NAS-00005_S001
000367  ERN_F1101_NSCR_1993-01-26_B-ROLL_BTS_INTV_DESR_NEIL_BONNETT_IN_GARAGE_&_TALKING_FRIENDSHIP_1993-NAS-00005_S001                    A20   C        00:15:46:00 00:15:46:11 00:06:31:01 00:06:31:09 
M2      ERN_F1101_NSCR_1993-01-26_B-ROLL_BTS_INTV_DESR_NEIL_BONNETT_IN_GARAGE_&_TALKING_FRIENDSHIP_1993-NAS-00005_S001                             030.0 00:15:46:00 
*FROM CLIP NAME:  ERN_F1101_NSCR_1993-01-26_B-ROLL BTS INTV DESR NEIL BONNETT IN GARAGE & TALKING FRIENDSHIP_1993-NAS-00005_S001.NEW.02 
*SOURCE FILE: ERN_F1101_NSCR_1993-01-26_B-ROLL BTS INTV DESR NEIL BONNETT IN GARAGE & TALKING FRIENDSHIP_1993-NAS-00005_S001
000368  ERN_F1101_NSCR_1993-01-26_B-ROLL_BTS_INTV_DESR_NEIL_BONNETT_IN_GARAGE_&_TALKING_FRIENDSHIP_1993-NAS-00005_S001                    A20   C        00:16:15:22 00:16:15:26 00:06:31:09 00:06:31:12 
M2      ERN_F1101_NSCR_1993-01-26_B-ROLL_BTS_INTV_DESR_NEIL_BONNETT_IN_GARAGE_&_TALKING_FRIENDSHIP_1993-NAS-00005_S001                             030.0 00:16:15:22 
*FROM CLIP NAME:  ERN_F1101_NSCR_1993-01-26_B-ROLL BTS INTV DESR NEIL BONNETT IN GARAGE & TALKING FRIENDSHIP_1993-NAS-00005_S001.NEW.02 
*TO CLIP NAME:  ERN_F1101_NSCR_1993-01-26_B-ROLL BTS INTV DESR NEIL BONNETT IN GARAGE & TALKING FRIENDSHIP_1993-NAS-00005_S001.NEW.02 
*SOURCE FILE: ERN_F1101_NSCR_1993-01-26_B-ROLL BTS INTV DESR NEIL BONNETT IN GARAGE & TALKING FRIENDSHIP_1993-NAS-00005_S001
000369  ERN_F0785_NSCR_1986-02-23_RACE_DESR_AND_DARRELL_WALTRIP_CRASH_NASCAR_CUP_SERIES_-_RICHMOND_TNN001790                              A22   C        00:06:12:16 00:06:15:28 00:06:31:10 00:06:34:19 
M2      ERN_F0785_NSCR_1986-02-23_RACE_DESR_AND_DARRELL_WALTRIP_CRASH_NASCAR_CUP_SERIES_-_RICHMOND_TNN001790                                       030.0 00:06:12:16 
*FROM CLIP NAME:  ERN_F0785_NSCR_1986-02-23_RACE DESR AND DARRELL WALTRIP CRASH NASCAR CUP SERIES - RICHMOND_TNN001790.NEW.01 
*SOURCE FILE: ERN_F0785_NSCR_1986-02-23_RACE DESR AND DARRELL WALTRIP CRASH NASCAR CUP SERIES - RICHMOND_TNN001790
000370  ERN_F1101_NSCR_1993-01-26_B-ROLL_BTS_INTV_DESR_NEIL_BONNETT_IN_GARAGE_&_TALKING_FRIENDSHIP_1993-NAS-00005_S001                    A20   C        00:16:15:26 00:16:18:23 00:06:31:12 00:06:34:09 
M2      ERN_F1101_NSCR_1993-01-26_B-ROLL_BTS_INTV_DESR_NEIL_BONNETT_IN_GARAGE_&_TALKING_FRIENDSHIP_1993-NAS-00005_S001                             030.0 00:16:15:26 
*FROM CLIP NAME:  ERN_F1101_NSCR_1993-01-26_B-ROLL BTS INTV DESR NEIL BONNETT IN GARAGE & TALKING FRIENDSHIP_1993-NAS-00005_S001.NEW.02 
*SOURCE FILE: ERN_F1101_NSCR_1993-01-26_B-ROLL BTS INTV DESR NEIL BONNETT IN GARAGE & TALKING FRIENDSHIP_1993-NAS-00005_S001
000371  ERN_F1101_NSCR_1993-01-26_B-ROLL_BTS_INTV_DESR_NEIL_BONNETT_IN_GARAGE_&_TALKING_FRIENDSHIP_1993-NAS-00005_S001                    A20   C        00:15:45:26 00:15:46:02 00:06:34:09 00:06:34:13 
M2      ERN_F1101_NSCR_1993-01-26_B-ROLL_BTS_INTV_DESR_NEIL_BONNETT_IN_GARAGE_&_TALKING_FRIENDSHIP_1993-NAS-00005_S001                             030.0 00:15:45:26 
*FROM CLIP NAME:  ERN_F1101_NSCR_1993-01-26_B-ROLL BTS INTV DESR NEIL BONNETT IN GARAGE & TALKING FRIENDSHIP_1993-NAS-00005_S001.NEW.02 
*TO CLIP NAME:  ERN_F1101_NSCR_1993-01-26_B-ROLL BTS INTV DESR NEIL BONNETT IN GARAGE & TALKING FRIENDSHIP_1993-NAS-00005_S001.NEW.02 
*SOURCE FILE: ERN_F1101_NSCR_1993-01-26_B-ROLL BTS INTV DESR NEIL BONNETT IN GARAGE & TALKING FRIENDSHIP_1993-NAS-00005_S001
000372  ERN_F1101_NSCR_1993-01-26_B-ROLL_BTS_INTV_DESR_NEIL_BONNETT_IN_GARAGE_&_TALKING_FRIENDSHIP_1993-NAS-00005_S001                    A20   C        00:15:46:01 00:15:46:11 00:06:34:13 00:06:34:20 
M2      ERN_F1101_NSCR_1993-01-26_B-ROLL_BTS_INTV_DESR_NEIL_BONNETT_IN_GARAGE_&_TALKING_FRIENDSHIP_1993-NAS-00005_S001                             030.0 00:15:46:01 
*FROM CLIP NAME:  ERN_F1101_NSCR_1993-01-26_B-ROLL BTS INTV DESR NEIL BONNETT IN GARAGE & TALKING FRIENDSHIP_1993-NAS-00005_S001.NEW.02 
*SOURCE FILE: ERN_F1101_NSCR_1993-01-26_B-ROLL BTS INTV DESR NEIL BONNETT IN GARAGE & TALKING FRIENDSHIP_1993-NAS-00005_S001
000373  ERN_F1101_NSCR_1993-01-26_B-ROLL_BTS_INTV_DESR_NEIL_BONNETT_IN_GARAGE_&_TALKING_FRIENDSHIP_1993-NAS-00005_S001                    A20   C        00:26:46:02 00:26:46:06 00:06:34:20 00:06:34:22 
M2      ERN_F1101_NSCR_1993-01-26_B-ROLL_BTS_INTV_DESR_NEIL_BONNETT_IN_GARAGE_&_TALKING_FRIENDSHIP_1993-NAS-00005_S001                             030.0 00:26:46:02 
*FROM CLIP NAME:  ERN_F1101_NSCR_1993-01-26_B-ROLL BTS INTV DESR NEIL BONNETT IN GARAGE & TALKING FRIENDSHIP_1993-NAS-00005_S001.NEW.02 
*TO CLIP NAME:  ERN_F1101_NSCR_1993-01-26_B-ROLL BTS INTV DESR NEIL BONNETT IN GARAGE & TALKING FRIENDSHIP_1993-NAS-00005_S001.NEW.02 
*SOURCE FILE: ERN_F1101_NSCR_1993-01-26_B-ROLL BTS INTV DESR NEIL BONNETT IN GARAGE & TALKING FRIENDSHIP_1993-NAS-00005_S001
000374  ERN_F1101_NSCR_1993-01-26_B-ROLL_BTS_INTV_DESR_NEIL_BONNETT_IN_GARAGE_&_TALKING_FRIENDSHIP_1993-NAS-00005_S001                    A20   C        00:26:46:05 00:26:46:13 00:06:34:22 00:06:35:04 
M2      ERN_F1101_NSCR_1993-01-26_B-ROLL_BTS_INTV_DESR_NEIL_BONNETT_IN_GARAGE_&_TALKING_FRIENDSHIP_1993-NAS-00005_S001                             030.0 00:26:46:05 
*FROM CLIP NAME:  ERN_F1101_NSCR_1993-01-26_B-ROLL BTS INTV DESR NEIL BONNETT IN GARAGE & TALKING FRIENDSHIP_1993-NAS-00005_S001.NEW.02 
*SOURCE FILE: ERN_F1101_NSCR_1993-01-26_B-ROLL BTS INTV DESR NEIL BONNETT IN GARAGE & TALKING FRIENDSHIP_1993-NAS-00005_S001
000375  ERN_F1101_NSCR_1993-01-26_B-ROLL_BTS_INTV_DESR_NEIL_BONNETT_IN_GARAGE_&_TALKING_FRIENDSHIP_1993-NAS-00005_S001                    A20   C        00:16:32:21 00:16:32:24 00:06:35:04 00:06:35:06 
M2      ERN_F1101_NSCR_1993-01-26_B-ROLL_BTS_INTV_DESR_NEIL_BONNETT_IN_GARAGE_&_TALKING_FRIENDSHIP_1993-NAS-00005_S001                             030.0 00:16:32:21 
*FROM CLIP NAME:  ERN_F1101_NSCR_1993-01-26_B-ROLL BTS INTV DESR NEIL BONNETT IN GARAGE & TALKING FRIENDSHIP_1993-NAS-00005_S001.NEW.02 
*TO CLIP NAME:  ERN_F1101_NSCR_1993-01-26_B-ROLL BTS INTV DESR NEIL BONNETT IN GARAGE & TALKING FRIENDSHIP_1993-NAS-00005_S001.NEW.02 
*SOURCE FILE: ERN_F1101_NSCR_1993-01-26_B-ROLL BTS INTV DESR NEIL BONNETT IN GARAGE & TALKING FRIENDSHIP_1993-NAS-00005_S001
000376  ERN_F1101_NSCR_1993-01-26_B-ROLL_BTS_INTV_DESR_NEIL_BONNETT_IN_GARAGE_&_TALKING_FRIENDSHIP_1993-NAS-00005_S001                    A20   C        00:16:32:23 00:16:38:13 00:06:35:06 00:06:40:21 
M2      ERN_F1101_NSCR_1993-01-26_B-ROLL_BTS_INTV_DESR_NEIL_BONNETT_IN_GARAGE_&_TALKING_FRIENDSHIP_1993-NAS-00005_S001                             030.0 00:16:32:23 
*FROM CLIP NAME:  ERN_F1101_NSCR_1993-01-26_B-ROLL BTS INTV DESR NEIL BONNETT IN GARAGE & TALKING FRIENDSHIP_1993-NAS-00005_S001.NEW.02 
*SOURCE FILE: ERN_F1101_NSCR_1993-01-26_B-ROLL BTS INTV DESR NEIL BONNETT IN GARAGE & TALKING FRIENDSHIP_1993-NAS-00005_S001
000377  ERN_F0979_NSCR_1999-01-22_INTV_B-ROLL_DESR_W_NEIL_BONNETT_HUNTING_&_WALKING_AROUND_FARM_TOPICS-WILL_TO_WIN__1991-NAS-00019_S001   V     C        03:02:53:26 03:02:56:18 00:06:35:22 00:06:38:15 
M2      ERN_F0979_NSCR_1999-01-22_INTV_B-ROLL_DESR_W_NEIL_BONNETT_HUNTING_&_WALKING_AROUND_FARM_TOPICS-WILL_TO_WIN__1991-NAS-00019_S001            030.0 03:02:53:26 
*FROM CLIP NAME:  ERN_F0979_NSCR_1999-01-22_INTV B-ROLL DESR W NEIL BONNETT HUNTING & WALKING AROUND FARM TOPICS-WILL TO WIN _1991-NAS-00019_S001.NEW.02 
*SOURCE FILE: ERN_F0979_NSCR_1999-01-22_INTV B-ROLL DESR W NEIL BONNETT HUNTING & WALKING AROUND FARM TOPICS-WILL TO WIN _1991-NAS-00019_S001
000378  ERN_F0979_NSCR_1999-01-22_INTV_B-ROLL_DESR_W_NEIL_BONNETT_HUNTING_&_WALKING_AROUND_FARM_TOPICS-WILL_TO_WIN__1991-NAS-00019_S001   V     C        03:04:13:20 03:04:17:19 00:06:38:15 00:06:42:13 
M2      ERN_F0979_NSCR_1999-01-22_INTV_B-ROLL_DESR_W_NEIL_BONNETT_HUNTING_&_WALKING_AROUND_FARM_TOPICS-WILL_TO_WIN__1991-NAS-00019_S001            030.0 03:04:13:20 
*FROM CLIP NAME:  ERN_F0979_NSCR_1999-01-22_INTV B-ROLL DESR W NEIL BONNETT HUNTING & WALKING AROUND FARM TOPICS-WILL TO WIN _1991-NAS-00019_S001.NEW.02 
*SOURCE FILE: ERN_F0979_NSCR_1999-01-22_INTV B-ROLL DESR W NEIL BONNETT HUNTING & WALKING AROUND FARM TOPICS-WILL TO WIN _1991-NAS-00019_S001
000379  ERN_F1101_NSCR_1993-01-26_B-ROLL_BTS_INTV_DESR_NEIL_BONNETT_IN_GARAGE_&_TALKING_FRIENDSHIP_1993-NAS-00005_S001                    A20   C        00:16:42:24 00:16:42:28 00:06:40:21 00:06:40:23 
M2      ERN_F1101_NSCR_1993-01-26_B-ROLL_BTS_INTV_DESR_NEIL_BONNETT_IN_GARAGE_&_TALKING_FRIENDSHIP_1993-NAS-00005_S001                             030.0 00:16:42:24 
*FROM CLIP NAME:  ERN_F1101_NSCR_1993-01-26_B-ROLL BTS INTV DESR NEIL BONNETT IN GARAGE & TALKING FRIENDSHIP_1993-NAS-00005_S001.NEW.02 
*TO CLIP NAME:  ERN_F1101_NSCR_1993-01-26_B-ROLL BTS INTV DESR NEIL BONNETT IN GARAGE & TALKING FRIENDSHIP_1993-NAS-00005_S001.NEW.02 
*SOURCE FILE: ERN_F1101_NSCR_1993-01-26_B-ROLL BTS INTV DESR NEIL BONNETT IN GARAGE & TALKING FRIENDSHIP_1993-NAS-00005_S001
000380  ERN_F1101_NSCR_1993-01-26_B-ROLL_BTS_INTV_DESR_NEIL_BONNETT_IN_GARAGE_&_TALKING_FRIENDSHIP_1993-NAS-00005_S001                    A20   C        00:16:42:27 00:16:44:00 00:06:40:23 00:06:42:01 
M2      ERN_F1101_NSCR_1993-01-26_B-ROLL_BTS_INTV_DESR_NEIL_BONNETT_IN_GARAGE_&_TALKING_FRIENDSHIP_1993-NAS-00005_S001                             030.0 00:16:42:27 
*FROM CLIP NAME:  ERN_F1101_NSCR_1993-01-26_B-ROLL BTS INTV DESR NEIL BONNETT IN GARAGE & TALKING FRIENDSHIP_1993-NAS-00005_S001.NEW.02 
*SOURCE FILE: ERN_F1101_NSCR_1993-01-26_B-ROLL BTS INTV DESR NEIL BONNETT IN GARAGE & TALKING FRIENDSHIP_1993-NAS-00005_S001
000381  ERN_F1034_NSCR_1992-09-02_FARM_B-ROLL_DESR_W_NEIL_BONNETT_ON_BOAT_IN_RAIN_&_CONSTRUCTION_&_TERESA_EARNHARDT_PHONE_CALL_37_EARNHAR V     C        00:18:14:23 00:18:17:13 00:06:42:13 00:06:45:05 
M2      ERN_F1034_NSCR_1992-09-02_FARM_B-ROLL_DESR_W_NEIL_BONNETT_ON_BOAT_IN_RAIN_&_CONSTRUCTION_&_TERESA_EARNHARDT_PHONE_CALL_37_EARNHAR          030.0 00:18:14:23 
*FROM CLIP NAME:  ERN_F1034_NSCR_1992-09-02_FARM B-ROLL DESR W NEIL BONNETT ON BOAT IN RAIN & CONSTRUCTION & TERESA EARNHARDT PHONE CALL_37_EARNHARDT FARM.NEW.01 
*SOURCE FILE: ERN_F1034_NSCR_1992-09-02_FARM B-ROLL DESR W NEIL BONNETT ON BOAT IN RAIN & CONSTRUCTION & TERESA EARNHARDT PHONE CALL_37_EARNHARDT FARM
000382  ERN_F1034_NSCR_1992-09-02_FARM_B-ROLL_DESR_W_NEIL_BONNETT_ON_BOAT_IN_RAIN_&_CONSTRUCTION_&_TERESA_EARNHARDT_PHONE_CALL_37_EARNHAR A18   C        00:15:49:04 00:15:50:05 00:06:43:07 00:06:44:07 
M2      ERN_F1034_NSCR_1992-09-02_FARM_B-ROLL_DESR_W_NEIL_BONNETT_ON_BOAT_IN_RAIN_&_CONSTRUCTION_&_TERESA_EARNHARDT_PHONE_CALL_37_EARNHAR          030.0 00:15:49:04 
*FROM CLIP NAME:  ERN_F1034_NSCR_1992-09-02_FARM B-ROLL DESR W NEIL BONNETT ON BOAT IN RAIN & CONSTRUCTION & TERESA EARNHARDT PHONE CALL_37_EARNHARDT FARM.NEW.01 
*SOURCE FILE: ERN_F1034_NSCR_1992-09-02_FARM B-ROLL DESR W NEIL BONNETT ON BOAT IN RAIN & CONSTRUCTION & TERESA EARNHARDT PHONE CALL_37_EARNHARDT FARM
000383  ERN_F1034_NSCR_1992-09-02_FARM_B-ROLL_DESR_W_NEIL_BONNETT_ON_BOAT_IN_RAIN_&_CONSTRUCTION_&_TERESA_EARNHARDT_PHONE_CALL_37_EARNHAR A18   C        00:15:50:04 00:15:52:21 00:06:44:07 00:06:46:20 
M2      ERN_F1034_NSCR_1992-09-02_FARM_B-ROLL_DESR_W_NEIL_BONNETT_ON_BOAT_IN_RAIN_&_CONSTRUCTION_&_TERESA_EARNHARDT_PHONE_CALL_37_EARNHAR          030.0 00:15:50:04 
*FROM CLIP NAME:  ERN_F1034_NSCR_1992-09-02_FARM B-ROLL DESR W NEIL BONNETT ON BOAT IN RAIN & CONSTRUCTION & TERESA EARNHARDT PHONE CALL_37_EARNHARDT FARM.NEW.01 
*SOURCE FILE: ERN_F1034_NSCR_1992-09-02_FARM B-ROLL DESR W NEIL BONNETT ON BOAT IN RAIN & CONSTRUCTION & TERESA EARNHARDT PHONE CALL_37_EARNHARDT FARM
000384  ERN_F1034_NSCR_1992-09-02_FARM_B-ROLL_DESR_W_NEIL_BONNETT_ON_BOAT_IN_RAIN_&_CONSTRUCTION_&_TERESA_EARNHARDT_PHONE_CALL_37_EARNHAR V     C        00:15:53:14 00:15:58:23 00:06:45:05 00:06:50:16 
M2      ERN_F1034_NSCR_1992-09-02_FARM_B-ROLL_DESR_W_NEIL_BONNETT_ON_BOAT_IN_RAIN_&_CONSTRUCTION_&_TERESA_EARNHARDT_PHONE_CALL_37_EARNHAR          029.0 00:15:53:14 
*FROM CLIP NAME:  ERN_F1034_NSCR_1992-09-02_FARM B-ROLL DESR W NEIL BONNETT ON BOAT IN RAIN & CONSTRUCTION & TERESA EARNHARDT PHONE CALL_37_EARNHARDT FARM.NEW.01 
*SOURCE FILE: ERN_F1034_NSCR_1992-09-02_FARM B-ROLL DESR W NEIL BONNETT ON BOAT IN RAIN & CONSTRUCTION & TERESA EARNHARDT PHONE CALL_37_EARNHARDT FARM
000385  ERN_F1034_NSCR_1992-09-02_FARM_B-ROLL_DESR_W_NEIL_BONNETT_ON_BOAT_IN_RAIN_&_CONSTRUCTION_&_TERESA_EARNHARDT_PHONE_CALL_37_EARNHAR A18   C        00:15:55:03 00:15:58:17 00:06:46:20 00:06:50:07 
M2      ERN_F1034_NSCR_1992-09-02_FARM_B-ROLL_DESR_W_NEIL_BONNETT_ON_BOAT_IN_RAIN_&_CONSTRUCTION_&_TERESA_EARNHARDT_PHONE_CALL_37_EARNHAR          030.0 00:15:55:03 
*FROM CLIP NAME:  ERN_F1034_NSCR_1992-09-02_FARM B-ROLL DESR W NEIL BONNETT ON BOAT IN RAIN & CONSTRUCTION & TERESA EARNHARDT PHONE CALL_37_EARNHARDT FARM.NEW.01 
*SOURCE FILE: ERN_F1034_NSCR_1992-09-02_FARM B-ROLL DESR W NEIL BONNETT ON BOAT IN RAIN & CONSTRUCTION & TERESA EARNHARDT PHONE CALL_37_EARNHARDT FARM
000386  ERN_F1034_NSCR_1992-09-02_FARM_B-ROLL_DESR_W_NEIL_BONNETT_ON_BOAT_IN_RAIN_&_CONSTRUCTION_&_TERESA_EARNHARDT_PHONE_CALL_37_EARNHAR V     C        00:19:54:21 00:20:00:03 00:06:50:16 00:06:56:09 
M2      ERN_F1034_NSCR_1992-09-02_FARM_B-ROLL_DESR_W_NEIL_BONNETT_ON_BOAT_IN_RAIN_&_CONSTRUCTION_&_TERESA_EARNHARDT_PHONE_CALL_37_EARNHAR          028.4 00:19:54:21 
*FROM CLIP NAME:  ERN_F1034_NSCR_1992-09-02_FARM B-ROLL DESR W NEIL BONNETT ON BOAT IN RAIN & CONSTRUCTION & TERESA EARNHARDT PHONE CALL_37_EARNHARDT FARM.NEW.01 
*SOURCE FILE: ERN_F1034_NSCR_1992-09-02_FARM B-ROLL DESR W NEIL BONNETT ON BOAT IN RAIN & CONSTRUCTION & TERESA EARNHARDT PHONE CALL_37_EARNHARDT FARM
000387  ERN_F1034_NSCR_1992-09-02_FARM_B-ROLL_DESR_W_NEIL_BONNETT_ON_BOAT_IN_RAIN_&_CONSTRUCTION_&_TERESA_EARNHARDT_PHONE_CALL_37_EARNHAR A18   C        00:19:55:12 00:19:55:28 00:06:51:09 00:06:51:21 
M2      ERN_F1034_NSCR_1992-09-02_FARM_B-ROLL_DESR_W_NEIL_BONNETT_ON_BOAT_IN_RAIN_&_CONSTRUCTION_&_TERESA_EARNHARDT_PHONE_CALL_37_EARNHAR          030.0 00:19:55:12 
*FROM CLIP NAME:  ERN_F1034_NSCR_1992-09-02_FARM B-ROLL DESR W NEIL BONNETT ON BOAT IN RAIN & CONSTRUCTION & TERESA EARNHARDT PHONE CALL_37_EARNHARDT FARM.NEW.01 
*SOURCE FILE: ERN_F1034_NSCR_1992-09-02_FARM B-ROLL DESR W NEIL BONNETT ON BOAT IN RAIN & CONSTRUCTION & TERESA EARNHARDT PHONE CALL_37_EARNHARDT FARM
000388  ERN_F1034_NSCR_1992-09-02_FARM_B-ROLL_DESR_W_NEIL_BONNETT_ON_BOAT_IN_RAIN_&_CONSTRUCTION_&_TERESA_EARNHARDT_PHONE_CALL_37_EARNHAR A18   C        00:19:55:27 00:19:59:04 00:06:51:21 00:06:55:02 
M2      ERN_F1034_NSCR_1992-09-02_FARM_B-ROLL_DESR_W_NEIL_BONNETT_ON_BOAT_IN_RAIN_&_CONSTRUCTION_&_TERESA_EARNHARDT_PHONE_CALL_37_EARNHAR          030.0 00:19:55:27 
*FROM CLIP NAME:  ERN_F1034_NSCR_1992-09-02_FARM B-ROLL DESR W NEIL BONNETT ON BOAT IN RAIN & CONSTRUCTION & TERESA EARNHARDT PHONE CALL_37_EARNHARDT FARM.NEW.01 
*SOURCE FILE: ERN_F1034_NSCR_1992-09-02_FARM B-ROLL DESR W NEIL BONNETT ON BOAT IN RAIN & CONSTRUCTION & TERESA EARNHARDT PHONE CALL_37_EARNHARDT FARM
000389  ERN_F1034_NSCR_1992-09-02_FARM_B-ROLL_DESR_W_NEIL_BONNETT_ON_BOAT_IN_RAIN_&_CONSTRUCTION_&_TERESA_EARNHARDT_PHONE_CALL_37_EARNHAR A20   C        00:23:57:14 00:23:58:00 00:06:54:21 00:06:55:09 
M2      ERN_F1034_NSCR_1992-09-02_FARM_B-ROLL_DESR_W_NEIL_BONNETT_ON_BOAT_IN_RAIN_&_CONSTRUCTION_&_TERESA_EARNHARDT_PHONE_CALL_37_EARNHAR          030.0 00:23:57:14 
*FROM CLIP NAME:  ERN_F1034_NSCR_1992-09-02_FARM B-ROLL DESR W NEIL BONNETT ON BOAT IN RAIN & CONSTRUCTION & TERESA EARNHARDT PHONE CALL_37_EARNHARDT FARM.NEW.01 
*SOURCE FILE: ERN_F1034_NSCR_1992-09-02_FARM B-ROLL DESR W NEIL BONNETT ON BOAT IN RAIN & CONSTRUCTION & TERESA EARNHARDT PHONE CALL_37_EARNHARDT FARM
000390  ERN_F1034_NSCR_1992-09-02_FARM_B-ROLL_DESR_W_NEIL_BONNETT_ON_BOAT_IN_RAIN_&_CONSTRUCTION_&_TERESA_EARNHARDT_PHONE_CALL_37_EARNHAR A20   C        00:23:57:29 00:23:58:13 00:06:55:09 00:06:55:19 
M2      ERN_F1034_NSCR_1992-09-02_FARM_B-ROLL_DESR_W_NEIL_BONNETT_ON_BOAT_IN_RAIN_&_CONSTRUCTION_&_TERESA_EARNHARDT_PHONE_CALL_37_EARNHAR          030.0 00:23:57:29 
*FROM CLIP NAME:  ERN_F1034_NSCR_1992-09-02_FARM B-ROLL DESR W NEIL BONNETT ON BOAT IN RAIN & CONSTRUCTION & TERESA EARNHARDT PHONE CALL_37_EARNHARDT FARM.NEW.01 
*SOURCE FILE: ERN_F1034_NSCR_1992-09-02_FARM B-ROLL DESR W NEIL BONNETT ON BOAT IN RAIN & CONSTRUCTION & TERESA EARNHARDT PHONE CALL_37_EARNHARDT FARM
000391  ERN_F1034_NSCR_1992-09-02_FARM_B-ROLL_DESR_W_NEIL_BONNETT_ON_BOAT_IN_RAIN_&_CONSTRUCTION_&_TERESA_EARNHARDT_PHONE_CALL_37_EARNHAR V     C        00:20:26:26 00:20:30:03 00:06:56:09 00:06:59:14 
M2      ERN_F1034_NSCR_1992-09-02_FARM_B-ROLL_DESR_W_NEIL_BONNETT_ON_BOAT_IN_RAIN_&_CONSTRUCTION_&_TERESA_EARNHARDT_PHONE_CALL_37_EARNHAR          030.0 00:20:26:26 
*FROM CLIP NAME:  ERN_F1034_NSCR_1992-09-02_FARM B-ROLL DESR W NEIL BONNETT ON BOAT IN RAIN & CONSTRUCTION & TERESA EARNHARDT PHONE CALL_37_EARNHARDT FARM.NEW.01 
*SOURCE FILE: ERN_F1034_NSCR_1992-09-02_FARM B-ROLL DESR W NEIL BONNETT ON BOAT IN RAIN & CONSTRUCTION & TERESA EARNHARDT PHONE CALL_37_EARNHARDT FARM
000392  ERN_F0793_NSCR_1987-05-17_RACE_DESR_WINNER_CHARLOTTE_-_THE_WINSTON_87-EV-0108                                                     A20   C        00:10:49:18 00:10:51:19 00:06:58:03 00:07:00:03 
M2      ERN_F0793_NSCR_1987-05-17_RACE_DESR_WINNER_CHARLOTTE_-_THE_WINSTON_87-EV-0108                                                              030.0 00:10:49:18 
*FROM CLIP NAME:  ERN_F0793_NSCR_1987-05-17_RACE DESR WINNER CHARLOTTE - THE WINSTON_87-EV-0108.NEW.01 
*SOURCE FILE: ERN_F0793_NSCR_1987-05-17_RACE DESR WINNER CHARLOTTE - THE WINSTON_87-EV-0108
000393  ERN_F3482_WSOC_VARIOUS_DATES_NEWS_COMP_NEIL_BONNETT_INTV_&_FUNERAL_SCREENER                                                       A18   C        00:05:13:01 00:05:24:09 00:06:58:04 00:07:09:10 
M2      ERN_F3482_WSOC_VARIOUS_DATES_NEWS_COMP_NEIL_BONNETT_INTV_&_FUNERAL_SCREENER                                                                060.0 00:05:13:01 
*FROM CLIP NAME:  ERN_F3482_WSOC_VARIOUS DATES_NEWS COMP NEIL BONNETT INTV & FUNERAL_SCREENER.NEW.01 
*SOURCE FILE: ERN_F3482_WSOC_VARIOUS DATES_NEWS COMP NEIL BONNETT INTV & FUNERAL_SCREENER
000394  ERN_F0800_NSCR_1987-05-17_RACE_DESR_WINNER_BILL_ELLIOTT_CHARLOTTE_-_THE_WINSTON_87-EV-0287                                        A22   C        00:50:08:13 00:50:10:14 00:06:58:05 00:07:00:05 
M2      ERN_F0800_NSCR_1987-05-17_RACE_DESR_WINNER_BILL_ELLIOTT_CHARLOTTE_-_THE_WINSTON_87-EV-0287                                                 030.0 00:50:08:13 
*FROM CLIP NAME:  ERN_F0800_NSCR_1987-05-17_RACE DESR WINNER BILL ELLIOTT CHARLOTTE - THE WINSTON_87-EV-0287.NEW.01 
*SOURCE FILE: ERN_F0800_NSCR_1987-05-17_RACE DESR WINNER BILL ELLIOTT CHARLOTTE - THE WINSTON_87-EV-0287
000395  ERN_F3418_NSCR_1983-09-05_PART_2_RACE_B-ROLL_DARLINGTON_SOUTHERN_500_NEIL_BONNETT_WIN_1983-NAS-00032_S001                         V     C        00:15:49:20 00:15:53:25 00:06:59:14 00:07:03:18 
M2      ERN_F3418_NSCR_1983-09-05_PART_2_RACE_B-ROLL_DARLINGTON_SOUTHERN_500_NEIL_BONNETT_WIN_1983-NAS-00032_S001                                  030.0 00:15:49:20 
*FROM CLIP NAME:  ERN_F3418_NSCR_1983-09-05_PART 2 RACE B-ROLL DARLINGTON SOUTHERN 500 NEIL BONNETT WIN_1983-NAS-00032_S001.NEW.01 
*SOURCE FILE: ERN_F3418_NSCR_1983-09-05_PART 2 RACE B-ROLL DARLINGTON SOUTHERN 500 NEIL BONNETT WIN_1983-NAS-00032_S001
000396  ERN_F0793_NSCR_1987-05-17_RACE_DESR_WINNER_CHARLOTTE_-_THE_WINSTON_87-EV-0108                                                     A20   C        00:10:51:18 00:10:53:03 00:07:00:03 00:07:01:14 
M2      ERN_F0793_NSCR_1987-05-17_RACE_DESR_WINNER_CHARLOTTE_-_THE_WINSTON_87-EV-0108                                                              030.0 00:10:51:18 
*FROM CLIP NAME:  ERN_F0793_NSCR_1987-05-17_RACE DESR WINNER CHARLOTTE - THE WINSTON_87-EV-0108.NEW.01 
*SOURCE FILE: ERN_F0793_NSCR_1987-05-17_RACE DESR WINNER CHARLOTTE - THE WINSTON_87-EV-0108
000397  ERN_F0800_NSCR_1987-05-17_RACE_DESR_WINNER_BILL_ELLIOTT_CHARLOTTE_-_THE_WINSTON_87-EV-0287                                        A22   C        00:50:10:13 00:50:13:20 00:07:00:05 00:07:03:10 
M2      ERN_F0800_NSCR_1987-05-17_RACE_DESR_WINNER_BILL_ELLIOTT_CHARLOTTE_-_THE_WINSTON_87-EV-0287                                                 030.0 00:50:10:13 
*FROM CLIP NAME:  ERN_F0800_NSCR_1987-05-17_RACE DESR WINNER BILL ELLIOTT CHARLOTTE - THE WINSTON_87-EV-0287.NEW.01 
*SOURCE FILE: ERN_F0800_NSCR_1987-05-17_RACE DESR WINNER BILL ELLIOTT CHARLOTTE - THE WINSTON_87-EV-0287
000398  ERN_F3311_NSCR_1983_DAYTONA_500_TRAVELING_ROAD_SHOW-TV_PACKAGE_ON_BUILDING_A_RACE_CAR_NEIL_BONNETT_CALE_YARBOROUGH_INTV_DARRELL_W V     C        00:01:57:08 00:02:00:22 00:07:03:18 00:07:07:07 
M2      ERN_F3311_NSCR_1983_DAYTONA_500_TRAVELING_ROAD_SHOW-TV_PACKAGE_ON_BUILDING_A_RACE_CAR_NEIL_BONNETT_CALE_YARBOROUGH_INTV_DARRELL_W          024.0 00:01:57:08 
*FROM CLIP NAME:  ERN_F3311_NSCR_1983_DAYTONA 500 TRAVELING ROAD SHOW-TV PACKAGE ON BUILDING A RACE CAR NEIL BONNETT CALE YARBOROUGH INTV DARRELL WALTIRP INTV_1983-NAS-00057_S001.NEW.01 
*SOURCE FILE: ERN_F3311_NSCR_1983_DAYTONA 500 TRAVELING ROAD SHOW-TV PACKAGE ON BUILDING A RACE CAR NEIL BONNETT CALE YARBOROUGH INTV DARRELL WALTIRP INTV_1983-NAS-00057_S001
000399  ERN_F2809_NSCR_1988_WINSTON_CUP-FILM_FOOTAGE_NO_AUDIO_16MM_NEIL_BONNETT_INTV_ROLL-OUTS_DESR_NO3_FLYBYS_1988-NAS-016870-S001       V     C        00:06:27:17 00:06:31:15 00:07:07:07 00:07:11:04 
M2      ERN_F2809_NSCR_1988_WINSTON_CUP-FILM_FOOTAGE_NO_AUDIO_16MM_NEIL_BONNETT_INTV_ROLL-OUTS_DESR_NO3_FLYBYS_1988-NAS-016870-S001                024.0 00:06:27:17 
*FROM CLIP NAME:  ERN_F2809_NSCR_1988_WINSTON CUP-FILM FOOTAGE NO AUDIO 16MM NEIL BONNETT INTV ROLL-OUTS DESR NO3 FLYBYS_1988-NAS-016870-S001.NEW.01 
*SOURCE FILE: ERN_F2809_NSCR_1988_WINSTON CUP-FILM FOOTAGE NO AUDIO 16MM NEIL BONNETT INTV ROLL-OUTS DESR NO3 FLYBYS_1988-NAS-016870-S001
000400  ERN_F9389_NSCR_1990-07-27_CAM_A_INTV_NEIL_BONNETT__90-EV-0598                                                                     A18   C        00:16:21:03 00:16:21:08 00:07:10:05 00:07:10:08 
M2      ERN_F9389_NSCR_1990-07-27_CAM_A_INTV_NEIL_BONNETT__90-EV-0598                                                                              030.0 00:16:21:03 
*FROM CLIP NAME:  ERN_F9389_NSCR_1990-07-27_CAM A INTV NEIL BONNETT _90-EV-0598.NEW.01 
*SOURCE FILE: ERN_F9389_NSCR_1990-07-27_CAM A INTV NEIL BONNETT _90-EV-0598
000401  ERN_F9389_NSCR_1990-07-27_CAM_A_INTV_NEIL_BONNETT__90-EV-0598                                                                     A18   C        00:16:21:07 00:16:22:10 00:07:10:08 00:07:11:10 
M2      ERN_F9389_NSCR_1990-07-27_CAM_A_INTV_NEIL_BONNETT__90-EV-0598                                                                              030.0 00:16:21:07 
*FROM CLIP NAME:  ERN_F9389_NSCR_1990-07-27_CAM A INTV NEIL BONNETT _90-EV-0598.NEW.01 
*SOURCE FILE: ERN_F9389_NSCR_1990-07-27_CAM A INTV NEIL BONNETT _90-EV-0598
000402  ERN_F9389_NSCR_1990-07-27_CAM_A_INTV_NEIL_BONNETT__90-EV-0598                                                                     V     C        00:16:22:16 00:16:24:15 00:07:11:04 00:07:13:03 
M2      ERN_F9389_NSCR_1990-07-27_CAM_A_INTV_NEIL_BONNETT__90-EV-0598                                                                              030.0 00:16:22:16 
*FROM CLIP NAME:  ERN_F9389_NSCR_1990-07-27_CAM A INTV NEIL BONNETT _90-EV-0598.NEW.01 
*SOURCE FILE: ERN_F9389_NSCR_1990-07-27_CAM A INTV NEIL BONNETT _90-EV-0598
000403  ERN_F9389_NSCR_1990-07-27_CAM_A_INTV_NEIL_BONNETT__90-EV-0598                                                                     A18   C        00:16:22:23 00:16:22:26 00:07:11:10 00:07:11:12 
M2      ERN_F9389_NSCR_1990-07-27_CAM_A_INTV_NEIL_BONNETT__90-EV-0598                                                                              030.0 00:16:22:23 
*FROM CLIP NAME:  ERN_F9389_NSCR_1990-07-27_CAM A INTV NEIL BONNETT _90-EV-0598.NEW.01 
*TO CLIP NAME:  ERN_F9389_NSCR_1990-07-27_CAM A INTV NEIL BONNETT _90-EV-0598.NEW.01 
*SOURCE FILE: ERN_F9389_NSCR_1990-07-27_CAM A INTV NEIL BONNETT _90-EV-0598
000404  ERN_F9389_NSCR_1990-07-27_CAM_A_INTV_NEIL_BONNETT__90-EV-0598                                                                     A18   C        00:16:22:26 00:16:24:16 00:07:11:12 00:07:13:04 
M2      ERN_F9389_NSCR_1990-07-27_CAM_A_INTV_NEIL_BONNETT__90-EV-0598                                                                              030.0 00:16:22:26 
*FROM CLIP NAME:  ERN_F9389_NSCR_1990-07-27_CAM A INTV NEIL BONNETT _90-EV-0598.NEW.01 
*SOURCE FILE: ERN_F9389_NSCR_1990-07-27_CAM A INTV NEIL BONNETT _90-EV-0598
000405  ERN_F0994_NSCR_1993_RACE_NEIL_BONNETT_BLOWN_ENGINE_DESR_AMASS_POINTS_NEEDED_FOR_CHAMPIONSHIP_93TALLADEGA                          A20   C        00:18:08:09 00:18:09:19 00:07:12:17 00:07:14:01 
M2      ERN_F0994_NSCR_1993_RACE_NEIL_BONNETT_BLOWN_ENGINE_DESR_AMASS_POINTS_NEEDED_FOR_CHAMPIONSHIP_93TALLADEGA                                   030.0 00:18:08:09 
*FROM CLIP NAME:  ERN_F0994_NSCR_1993_RACE NEIL BONNETT BLOWN ENGINE DESR AMASS POINTS NEEDED FOR CHAMPIONSHIP_93TALLADEGA.NEW.01 
*SOURCE FILE: ERN_F0994_NSCR_1993_RACE NEIL BONNETT BLOWN ENGINE DESR AMASS POINTS NEEDED FOR CHAMPIONSHIP_93TALLADEGA
000406  ERN_F3054_NSCR_1983-04-10_DARLINGTON-ABC_BROADCAST_GEOFF_BODINE_DARRELL_WALTRIP_RICKY_RUDD_NEIL_BONNETT__XX                       V     C        01:02:21:03 01:02:22:29 00:07:13:03 00:07:14:23 
M2      ERN_F3054_NSCR_1983-04-10_DARLINGTON-ABC_BROADCAST_GEOFF_BODINE_DARRELL_WALTRIP_RICKY_RUDD_NEIL_BONNETT__XX                                030.0 01:02:21:03 
*FROM CLIP NAME:  ERN_F3054_NSCR_1983-04-10_DARLINGTON-ABC BROADCAST GEOFF BODINE DARRELL WALTRIP RICKY RUDD NEIL BONNETT _XX.NEW.01 
*SOURCE FILE: ERN_F3054_NSCR_1983-04-10_DARLINGTON-ABC BROADCAST GEOFF BODINE DARRELL WALTRIP RICKY RUDD NEIL BONNETT _XX
000407  ERN_F9389_NSCR_1990-07-27_CAM_A_INTV_NEIL_BONNETT__90-EV-0598                                                                     A18   C        00:16:24:16 00:16:25:01 00:07:13:04 00:07:13:16 
M2      ERN_F9389_NSCR_1990-07-27_CAM_A_INTV_NEIL_BONNETT__90-EV-0598                                                                              030.0 00:16:24:16 
*FROM CLIP NAME:  ERN_F9389_NSCR_1990-07-27_CAM A INTV NEIL BONNETT _90-EV-0598.NEW.01 
*TO CLIP NAME:  ERN_F9389_NSCR_1990-07-27_CAM A INTV NEIL BONNETT _90-EV-0598.NEW.01 
*SOURCE FILE: ERN_F9389_NSCR_1990-07-27_CAM A INTV NEIL BONNETT _90-EV-0598
000408  ERN_F9389_NSCR_1990-07-27_CAM_A_INTV_NEIL_BONNETT__90-EV-0598                                                                     A18   C        00:16:25:01 00:16:25:06 00:07:13:16 00:07:13:20 
M2      ERN_F9389_NSCR_1990-07-27_CAM_A_INTV_NEIL_BONNETT__90-EV-0598                                                                              030.0 00:16:25:01 
*FROM CLIP NAME:  ERN_F9389_NSCR_1990-07-27_CAM A INTV NEIL BONNETT _90-EV-0598.NEW.01 
*SOURCE FILE: ERN_F9389_NSCR_1990-07-27_CAM A INTV NEIL BONNETT _90-EV-0598
000409  ERN_F0994_NSCR_1993_RACE_NEIL_BONNETT_BLOWN_ENGINE_DESR_AMASS_POINTS_NEEDED_FOR_CHAMPIONSHIP_93TALLADEGA                          A20   C        00:18:09:19 00:18:14:12 00:07:14:01 00:07:18:19 
M2      ERN_F0994_NSCR_1993_RACE_NEIL_BONNETT_BLOWN_ENGINE_DESR_AMASS_POINTS_NEEDED_FOR_CHAMPIONSHIP_93TALLADEGA                                   030.0 00:18:09:19 
*FROM CLIP NAME:  ERN_F0994_NSCR_1993_RACE NEIL BONNETT BLOWN ENGINE DESR AMASS POINTS NEEDED FOR CHAMPIONSHIP_93TALLADEGA.NEW.01 
*SOURCE FILE: ERN_F0994_NSCR_1993_RACE NEIL BONNETT BLOWN ENGINE DESR AMASS POINTS NEEDED FOR CHAMPIONSHIP_93TALLADEGA
000410  ERN_F3054_NSCR_1983-04-10_DARLINGTON-ABC_BROADCAST_GEOFF_BODINE_DARRELL_WALTRIP_RICKY_RUDD_NEIL_BONNETT__XX                       V     C        01:02:23:21 01:02:27:27 00:07:14:23 00:07:19:03 
M2      ERN_F3054_NSCR_1983-04-10_DARLINGTON-ABC_BROADCAST_GEOFF_BODINE_DARRELL_WALTRIP_RICKY_RUDD_NEIL_BONNETT__XX                                030.0 01:02:23:21 
*FROM CLIP NAME:  ERN_F3054_NSCR_1983-04-10_DARLINGTON-ABC BROADCAST GEOFF BODINE DARRELL WALTRIP RICKY RUDD NEIL BONNETT _XX.NEW.01 
*SOURCE FILE: ERN_F3054_NSCR_1983-04-10_DARLINGTON-ABC BROADCAST GEOFF BODINE DARRELL WALTRIP RICKY RUDD NEIL BONNETT _XX
000411  ERN_F9389_NSCR_1990-07-27_CAM_A_INTV_NEIL_BONNETT__90-EV-0598                                                                     A18   C        00:16:31:06 00:16:32:29 00:07:16:06 00:07:18:00 
M2      ERN_F9389_NSCR_1990-07-27_CAM_A_INTV_NEIL_BONNETT__90-EV-0598                                                                              030.0 00:16:31:06 
*FROM CLIP NAME:  ERN_F9389_NSCR_1990-07-27_CAM A INTV NEIL BONNETT _90-EV-0598.NEW.01 
*SOURCE FILE: ERN_F9389_NSCR_1990-07-27_CAM A INTV NEIL BONNETT _90-EV-0598
000412  ERN_F9389_NSCR_1990-07-27_CAM_A_INTV_NEIL_BONNETT__90-EV-0598                                                                     A18   C        00:16:33:11 00:16:33:14 00:07:18:00 00:07:18:02 
M2      ERN_F9389_NSCR_1990-07-27_CAM_A_INTV_NEIL_BONNETT__90-EV-0598                                                                              030.0 00:16:33:11 
*FROM CLIP NAME:  ERN_F9389_NSCR_1990-07-27_CAM A INTV NEIL BONNETT _90-EV-0598.NEW.01 
*TO CLIP NAME:  ERN_F9389_NSCR_1990-07-27_CAM A INTV NEIL BONNETT _90-EV-0598.NEW.01 
*SOURCE FILE: ERN_F9389_NSCR_1990-07-27_CAM A INTV NEIL BONNETT _90-EV-0598
000413  ERN_F9389_NSCR_1990-07-27_CAM_A_INTV_NEIL_BONNETT__90-EV-0598                                                                     A18   C        00:16:33:13 00:16:36:16 00:07:18:02 00:07:21:04 
M2      ERN_F9389_NSCR_1990-07-27_CAM_A_INTV_NEIL_BONNETT__90-EV-0598                                                                              030.0 00:16:33:13 
*FROM CLIP NAME:  ERN_F9389_NSCR_1990-07-27_CAM A INTV NEIL BONNETT _90-EV-0598.NEW.01 
*SOURCE FILE: ERN_F9389_NSCR_1990-07-27_CAM A INTV NEIL BONNETT _90-EV-0598
000414  ERN_F1090_NSCR_1986-02-23_RACE_B-ROLL_RICHMOND_MILLER_HIGH_LIFE_400_DESR_NO3_GRANDSTAND_SCENES_&_BILL_ELLIOTT_CRASH_86-EV-0339    A22   C        00:13:20:20 00:13:21:20 00:07:18:23 00:07:19:23 
M2      ERN_F1090_NSCR_1986-02-23_RACE_B-ROLL_RICHMOND_MILLER_HIGH_LIFE_400_DESR_NO3_GRANDSTAND_SCENES_&_BILL_ELLIOTT_CRASH_86-EV-0339             030.0 00:13:20:20 
*FROM CLIP NAME:  ERN_F1090_NSCR_1986-02-23_RACE B-ROLL RICHMOND MILLER HIGH LIFE 400 DESR NO3 GRANDSTAND SCENES & BILL ELLIOTT CRASH_86-EV-0339.NEW.01.COPY.01 
*SOURCE FILE: ERN_F1090_NSCR_1986-02-23_RACE B-ROLL RICHMOND MILLER HIGH LIFE 400 DESR NO3 GRANDSTAND SCENES & BILL ELLIOTT CRASH_86-EV-0339
000415  ERN_F3621_NSCR_1986-07-20_POCONO-SUMMER_500_RACE_BROADCAST_CRASH_REPLAY_FROM_JUNE_8_1986__86-EV-0126B                             V     C        08:47:03:22 08:47:13:01 00:07:19:03 00:07:28:09 
M2      ERN_F3621_NSCR_1986-07-20_POCONO-SUMMER_500_RACE_BROADCAST_CRASH_REPLAY_FROM_JUNE_8_1986__86-EV-0126B                                      030.0 08:47:03:22 
*FROM CLIP NAME:  ERN_F3621_NSCR_1986-07-20_POCONO-SUMMER 500 RACE BROADCAST CRASH REPLAY FROM JUNE 8 1986 _86-EV-0126B.NEW.01 
*SOURCE FILE: ERN_F3621_NSCR_1986-07-20_POCONO-SUMMER 500 RACE BROADCAST CRASH REPLAY FROM JUNE 8 1986 _86-EV-0126B
000416  ERN_F1090_NSCR_1986-02-23_RACE_B-ROLL_RICHMOND_MILLER_HIGH_LIFE_400_DESR_NO3_GRANDSTAND_SCENES_&_BILL_ELLIOTT_CRASH_86-EV-0339    A22   C        00:13:21:20 00:13:24:04 00:07:19:23 00:07:22:10 
M2      ERN_F1090_NSCR_1986-02-23_RACE_B-ROLL_RICHMOND_MILLER_HIGH_LIFE_400_DESR_NO3_GRANDSTAND_SCENES_&_BILL_ELLIOTT_CRASH_86-EV-0339             030.0 00:13:21:20 
*FROM CLIP NAME:  ERN_F1090_NSCR_1986-02-23_RACE B-ROLL RICHMOND MILLER HIGH LIFE 400 DESR NO3 GRANDSTAND SCENES & BILL ELLIOTT CRASH_86-EV-0339.NEW.01.COPY.01 
*SOURCE FILE: ERN_F1090_NSCR_1986-02-23_RACE B-ROLL RICHMOND MILLER HIGH LIFE 400 DESR NO3 GRANDSTAND SCENES & BILL ELLIOTT CRASH_86-EV-0339
000417  ERN_F0653_NSCR_1990-01-04_DESR_RACE_NASCAR_CUP_SERIES_-_DARLINGTON_90-EV-0664                                                     A20   C        01:08:28:21 01:08:29:22 00:07:20:22 00:07:21:22 
M2      ERN_F0653_NSCR_1990-01-04_DESR_RACE_NASCAR_CUP_SERIES_-_DARLINGTON_90-EV-0664                                                              030.0 01:08:28:21 
*FROM CLIP NAME:  ERN_F0653_NSCR_1990-01-04_DESR RACE NASCAR CUP SERIES - DARLINGTON_90-EV-0664.NEW.01 
*SOURCE FILE: ERN_F0653_NSCR_1990-01-04_DESR RACE NASCAR CUP SERIES - DARLINGTON_90-EV-0664
000418  ERN_F0653_NSCR_1990-01-04_DESR_RACE_NASCAR_CUP_SERIES_-_DARLINGTON_90-EV-0664                                                     A20   C        01:08:29:21 01:08:30:07 00:07:21:22 00:07:22:10 
M2      ERN_F0653_NSCR_1990-01-04_DESR_RACE_NASCAR_CUP_SERIES_-_DARLINGTON_90-EV-0664                                                              030.0 01:08:29:21 
*FROM CLIP NAME:  ERN_F0653_NSCR_1990-01-04_DESR RACE NASCAR CUP SERIES - DARLINGTON_90-EV-0664.NEW.01 
*SOURCE FILE: ERN_F0653_NSCR_1990-01-04_DESR RACE NASCAR CUP SERIES - DARLINGTON_90-EV-0664
000419  ERN_F9389_NSCR_1990-07-27_CAM_A_INTV_NEIL_BONNETT__90-EV-0598                                                                     A18   C        00:16:43:22 00:16:43:26 00:07:22:02 00:07:22:05 
M2      ERN_F9389_NSCR_1990-07-27_CAM_A_INTV_NEIL_BONNETT__90-EV-0598                                                                              030.0 00:16:43:22 
*FROM CLIP NAME:  ERN_F9389_NSCR_1990-07-27_CAM A INTV NEIL BONNETT _90-EV-0598.NEW.01 
*SOURCE FILE: ERN_F9389_NSCR_1990-07-27_CAM A INTV NEIL BONNETT _90-EV-0598
000420  ERN_F9389_NSCR_1990-07-27_CAM_A_INTV_NEIL_BONNETT__90-EV-0598                                                                     A18   C        00:16:43:26 00:16:44:19 00:07:22:05 00:07:22:23 
M2      ERN_F9389_NSCR_1990-07-27_CAM_A_INTV_NEIL_BONNETT__90-EV-0598                                                                              030.0 00:16:43:26 
*FROM CLIP NAME:  ERN_F9389_NSCR_1990-07-27_CAM A INTV NEIL BONNETT _90-EV-0598.NEW.01 
*SOURCE FILE: ERN_F9389_NSCR_1990-07-27_CAM A INTV NEIL BONNETT _90-EV-0598
000421  ERN_F0653_NSCR_1990-01-04_DESR_RACE_NASCAR_CUP_SERIES_-_DARLINGTON_90-EV-0664                                                     A20   C        01:08:30:06 01:08:31:22 00:07:22:10 00:07:23:22 
M2      ERN_F0653_NSCR_1990-01-04_DESR_RACE_NASCAR_CUP_SERIES_-_DARLINGTON_90-EV-0664                                                              030.0 01:08:30:06 
*FROM CLIP NAME:  ERN_F0653_NSCR_1990-01-04_DESR RACE NASCAR CUP SERIES - DARLINGTON_90-EV-0664.NEW.01 
*TO CLIP NAME:  ERN_F0653_NSCR_1990-01-04_DESR RACE NASCAR CUP SERIES - DARLINGTON_90-EV-0664.NEW.01 
*SOURCE FILE: ERN_F0653_NSCR_1990-01-04_DESR RACE NASCAR CUP SERIES - DARLINGTON_90-EV-0664
000422  ERN_F1090_NSCR_1986-02-23_RACE_B-ROLL_RICHMOND_MILLER_HIGH_LIFE_400_DESR_NO3_GRANDSTAND_SCENES_&_BILL_ELLIOTT_CRASH_86-EV-0339    A22   C        00:13:24:03 00:13:25:19 00:07:22:10 00:07:23:22 
M2      ERN_F1090_NSCR_1986-02-23_RACE_B-ROLL_RICHMOND_MILLER_HIGH_LIFE_400_DESR_NO3_GRANDSTAND_SCENES_&_BILL_ELLIOTT_CRASH_86-EV-0339             030.0 00:13:24:03 
*FROM CLIP NAME:  ERN_F1090_NSCR_1986-02-23_RACE B-ROLL RICHMOND MILLER HIGH LIFE 400 DESR NO3 GRANDSTAND SCENES & BILL ELLIOTT CRASH_86-EV-0339.NEW.01.COPY.01 
*TO CLIP NAME:  ERN_F1090_NSCR_1986-02-23_RACE B-ROLL RICHMOND MILLER HIGH LIFE 400 DESR NO3 GRANDSTAND SCENES & BILL ELLIOTT CRASH_86-EV-0339.NEW.01.COPY.01 
*SOURCE FILE: ERN_F1090_NSCR_1986-02-23_RACE B-ROLL RICHMOND MILLER HIGH LIFE 400 DESR NO3 GRANDSTAND SCENES & BILL ELLIOTT CRASH_86-EV-0339
000423  ERN_F3621_NSCR_1986-07-20_POCONO-SUMMER_500_RACE_BROADCAST_CRASH_REPLAY_FROM_JUNE_8_1986__86-EV-0126B                             A18   C        08:47:10:16 08:47:11:17 00:07:23:18 00:07:24:18 
M2      ERN_F3621_NSCR_1986-07-20_POCONO-SUMMER_500_RACE_BROADCAST_CRASH_REPLAY_FROM_JUNE_8_1986__86-EV-0126B                                      030.0 08:47:10:16 
*FROM CLIP NAME:  ERN_F3621_NSCR_1986-07-20_POCONO-SUMMER 500 RACE BROADCAST CRASH REPLAY FROM JUNE 8 1986 _86-EV-0126B.NEW.01 
*SOURCE FILE: ERN_F3621_NSCR_1986-07-20_POCONO-SUMMER 500 RACE BROADCAST CRASH REPLAY FROM JUNE 8 1986 _86-EV-0126B
000424  ERN_F0653_NSCR_1990-01-04_DESR_RACE_NASCAR_CUP_SERIES_-_DARLINGTON_90-EV-0664                                                     A20   C        01:08:31:21 01:08:36:00 00:07:23:22 00:07:28:05 
M2      ERN_F0653_NSCR_1990-01-04_DESR_RACE_NASCAR_CUP_SERIES_-_DARLINGTON_90-EV-0664                                                              030.0 01:08:31:21 
*FROM CLIP NAME:  ERN_F0653_NSCR_1990-01-04_DESR RACE NASCAR CUP SERIES - DARLINGTON_90-EV-0664.NEW.01 
*SOURCE FILE: ERN_F0653_NSCR_1990-01-04_DESR RACE NASCAR CUP SERIES - DARLINGTON_90-EV-0664
000425  ERN_F1090_NSCR_1986-02-23_RACE_B-ROLL_RICHMOND_MILLER_HIGH_LIFE_400_DESR_NO3_GRANDSTAND_SCENES_&_BILL_ELLIOTT_CRASH_86-EV-0339    A22   C        00:13:25:18 00:13:40:20 00:07:23:22 00:07:38:23 
M2      ERN_F1090_NSCR_1986-02-23_RACE_B-ROLL_RICHMOND_MILLER_HIGH_LIFE_400_DESR_NO3_GRANDSTAND_SCENES_&_BILL_ELLIOTT_CRASH_86-EV-0339             030.0 00:13:25:18 
*FROM CLIP NAME:  ERN_F1090_NSCR_1986-02-23_RACE B-ROLL RICHMOND MILLER HIGH LIFE 400 DESR NO3 GRANDSTAND SCENES & BILL ELLIOTT CRASH_86-EV-0339.NEW.01.COPY.01 
*SOURCE FILE: ERN_F1090_NSCR_1986-02-23_RACE B-ROLL RICHMOND MILLER HIGH LIFE 400 DESR NO3 GRANDSTAND SCENES & BILL ELLIOTT CRASH_86-EV-0339
000426  ERN_F3621_NSCR_1986-07-20_POCONO-SUMMER_500_RACE_BROADCAST_CRASH_REPLAY_FROM_JUNE_8_1986__86-EV-0126B                             A18   C        08:47:11:16 08:47:13:03 00:07:24:18 00:07:26:07 
M2      ERN_F3621_NSCR_1986-07-20_POCONO-SUMMER_500_RACE_BROADCAST_CRASH_REPLAY_FROM_JUNE_8_1986__86-EV-0126B                                      030.0 08:47:11:16 
*FROM CLIP NAME:  ERN_F3621_NSCR_1986-07-20_POCONO-SUMMER 500 RACE BROADCAST CRASH REPLAY FROM JUNE 8 1986 _86-EV-0126B.NEW.01 
*SOURCE FILE: ERN_F3621_NSCR_1986-07-20_POCONO-SUMMER 500 RACE BROADCAST CRASH REPLAY FROM JUNE 8 1986 _86-EV-0126B
000427  ERN_F3621_NSCR_1986-07-20_POCONO-SUMMER_500_RACE_BROADCAST_CRASH_REPLAY_FROM_JUNE_8_1986__86-EV-0126B                             A18   C        08:47:15:07 08:47:15:11 00:07:26:07 00:07:26:09 
M2      ERN_F3621_NSCR_1986-07-20_POCONO-SUMMER_500_RACE_BROADCAST_CRASH_REPLAY_FROM_JUNE_8_1986__86-EV-0126B                                      030.0 08:47:15:07 
*FROM CLIP NAME:  ERN_F3621_NSCR_1986-07-20_POCONO-SUMMER 500 RACE BROADCAST CRASH REPLAY FROM JUNE 8 1986 _86-EV-0126B.NEW.01 
*TO CLIP NAME:  ERN_F3621_NSCR_1986-07-20_POCONO-SUMMER 500 RACE BROADCAST CRASH REPLAY FROM JUNE 8 1986 _86-EV-0126B.NEW.01 
*SOURCE FILE: ERN_F3621_NSCR_1986-07-20_POCONO-SUMMER 500 RACE BROADCAST CRASH REPLAY FROM JUNE 8 1986 _86-EV-0126B
000428  ERN_F3621_NSCR_1986-07-20_POCONO-SUMMER_500_RACE_BROADCAST_CRASH_REPLAY_FROM_JUNE_8_1986__86-EV-0126B                             A18   C        08:47:15:10 08:47:18:06 00:07:26:09 00:07:29:05 
M2      ERN_F3621_NSCR_1986-07-20_POCONO-SUMMER_500_RACE_BROADCAST_CRASH_REPLAY_FROM_JUNE_8_1986__86-EV-0126B                                      030.0 08:47:15:10 
*FROM CLIP NAME:  ERN_F3621_NSCR_1986-07-20_POCONO-SUMMER 500 RACE BROADCAST CRASH REPLAY FROM JUNE 8 1986 _86-EV-0126B.NEW.01 
*SOURCE FILE: ERN_F3621_NSCR_1986-07-20_POCONO-SUMMER 500 RACE BROADCAST CRASH REPLAY FROM JUNE 8 1986 _86-EV-0126B
000429  ERN_F3621_NSCR_1986-07-20_POCONO-SUMMER_500_RACE_BROADCAST_CRASH_REPLAY_FROM_JUNE_8_1986__86-EV-0126B                             V     C        08:47:14:15 08:47:18:14 00:07:28:09 00:07:32:08 
M2      ERN_F3621_NSCR_1986-07-20_POCONO-SUMMER_500_RACE_BROADCAST_CRASH_REPLAY_FROM_JUNE_8_1986__86-EV-0126B                                      030.0 08:47:14:15 
*FROM CLIP NAME:  ERN_F3621_NSCR_1986-07-20_POCONO-SUMMER 500 RACE BROADCAST CRASH REPLAY FROM JUNE 8 1986 _86-EV-0126B.NEW.01 
*SOURCE FILE: ERN_F3621_NSCR_1986-07-20_POCONO-SUMMER 500 RACE BROADCAST CRASH REPLAY FROM JUNE 8 1986 _86-EV-0126B
000430  ERN_F3621_NSCR_1986-07-20_POCONO-SUMMER_500_RACE_BROADCAST_CRASH_REPLAY_FROM_JUNE_8_1986__86-EV-0126B                             A18   C        08:47:20:01 08:47:20:17 00:07:29:05 00:07:29:17 
M2      ERN_F3621_NSCR_1986-07-20_POCONO-SUMMER_500_RACE_BROADCAST_CRASH_REPLAY_FROM_JUNE_8_1986__86-EV-0126B                                      030.0 08:47:20:01 
*FROM CLIP NAME:  ERN_F3621_NSCR_1986-07-20_POCONO-SUMMER 500 RACE BROADCAST CRASH REPLAY FROM JUNE 8 1986 _86-EV-0126B.NEW.01 
*TO CLIP NAME:  ERN_F3621_NSCR_1986-07-20_POCONO-SUMMER 500 RACE BROADCAST CRASH REPLAY FROM JUNE 8 1986 _86-EV-0126B.NEW.01 
*SOURCE FILE: ERN_F3621_NSCR_1986-07-20_POCONO-SUMMER 500 RACE BROADCAST CRASH REPLAY FROM JUNE 8 1986 _86-EV-0126B
000431  ERN_F3621_NSCR_1986-07-20_POCONO-SUMMER_500_RACE_BROADCAST_CRASH_REPLAY_FROM_JUNE_8_1986__86-EV-0126B                             A18   C        08:47:39:00 08:47:39:03 00:07:31:20 00:07:31:22 
M2      ERN_F3621_NSCR_1986-07-20_POCONO-SUMMER_500_RACE_BROADCAST_CRASH_REPLAY_FROM_JUNE_8_1986__86-EV-0126B                                      030.0 08:47:39:00 
*FROM CLIP NAME:  ERN_F3621_NSCR_1986-07-20_POCONO-SUMMER 500 RACE BROADCAST CRASH REPLAY FROM JUNE 8 1986 _86-EV-0126B.NEW.01 
*SOURCE FILE: ERN_F3621_NSCR_1986-07-20_POCONO-SUMMER 500 RACE BROADCAST CRASH REPLAY FROM JUNE 8 1986 _86-EV-0126B
000432  ERN_F3621_NSCR_1986-07-20_POCONO-SUMMER_500_RACE_BROADCAST_CRASH_REPLAY_FROM_JUNE_8_1986__86-EV-0126B                             A18   C        08:47:39:02 08:47:40:21 00:07:31:22 00:07:33:12 
M2      ERN_F3621_NSCR_1986-07-20_POCONO-SUMMER_500_RACE_BROADCAST_CRASH_REPLAY_FROM_JUNE_8_1986__86-EV-0126B                                      030.0 08:47:39:02 
*FROM CLIP NAME:  ERN_F3621_NSCR_1986-07-20_POCONO-SUMMER 500 RACE BROADCAST CRASH REPLAY FROM JUNE 8 1986 _86-EV-0126B.NEW.01 
*SOURCE FILE: ERN_F3621_NSCR_1986-07-20_POCONO-SUMMER 500 RACE BROADCAST CRASH REPLAY FROM JUNE 8 1986 _86-EV-0126B
000433  ERN_F3621_NSCR_1986-07-20_POCONO-SUMMER_500_RACE_BROADCAST_CRASH_REPLAY_FROM_JUNE_8_1986__86-EV-0126B                             V     C        08:47:35:24 08:47:37:23 00:07:32:08 00:07:34:07 
M2      ERN_F3621_NSCR_1986-07-20_POCONO-SUMMER_500_RACE_BROADCAST_CRASH_REPLAY_FROM_JUNE_8_1986__86-EV-0126B                                      030.0 08:47:35:24 
*FROM CLIP NAME:  ERN_F3621_NSCR_1986-07-20_POCONO-SUMMER 500 RACE BROADCAST CRASH REPLAY FROM JUNE 8 1986 _86-EV-0126B.NEW.01 
*SOURCE FILE: ERN_F3621_NSCR_1986-07-20_POCONO-SUMMER 500 RACE BROADCAST CRASH REPLAY FROM JUNE 8 1986 _86-EV-0126B
000434  ERN_F3621_NSCR_1986-07-20_POCONO-SUMMER_500_RACE_BROADCAST_CRASH_REPLAY_FROM_JUNE_8_1986__86-EV-0126B                             A18   C        08:47:43:20 08:47:43:23 00:07:33:12 00:07:33:14 
M2      ERN_F3621_NSCR_1986-07-20_POCONO-SUMMER_500_RACE_BROADCAST_CRASH_REPLAY_FROM_JUNE_8_1986__86-EV-0126B                                      030.0 08:47:43:20 
*FROM CLIP NAME:  ERN_F3621_NSCR_1986-07-20_POCONO-SUMMER 500 RACE BROADCAST CRASH REPLAY FROM JUNE 8 1986 _86-EV-0126B.NEW.01 
*TO CLIP NAME:  ERN_F3621_NSCR_1986-07-20_POCONO-SUMMER 500 RACE BROADCAST CRASH REPLAY FROM JUNE 8 1986 _86-EV-0126B.NEW.01 
*SOURCE FILE: ERN_F3621_NSCR_1986-07-20_POCONO-SUMMER 500 RACE BROADCAST CRASH REPLAY FROM JUNE 8 1986 _86-EV-0126B
000435  ERN_F3621_NSCR_1986-07-20_POCONO-SUMMER_500_RACE_BROADCAST_CRASH_REPLAY_FROM_JUNE_8_1986__86-EV-0126B                             A18   C        08:47:43:22 08:47:47:03 00:07:33:14 00:07:36:22 
M2      ERN_F3621_NSCR_1986-07-20_POCONO-SUMMER_500_RACE_BROADCAST_CRASH_REPLAY_FROM_JUNE_8_1986__86-EV-0126B                                      030.0 08:47:43:22 
*FROM CLIP NAME:  ERN_F3621_NSCR_1986-07-20_POCONO-SUMMER 500 RACE BROADCAST CRASH REPLAY FROM JUNE 8 1986 _86-EV-0126B.NEW.01 
*SOURCE FILE: ERN_F3621_NSCR_1986-07-20_POCONO-SUMMER 500 RACE BROADCAST CRASH REPLAY FROM JUNE 8 1986 _86-EV-0126B
000436  ERN_F3621_NSCR_1986-07-20_POCONO-SUMMER_500_RACE_BROADCAST_CRASH_REPLAY_FROM_JUNE_8_1986__86-EV-0126B                             V     C        08:47:45:10 08:47:54:01 00:07:34:07 00:07:42:23 
M2      ERN_F3621_NSCR_1986-07-20_POCONO-SUMMER_500_RACE_BROADCAST_CRASH_REPLAY_FROM_JUNE_8_1986__86-EV-0126B                                      030.0 08:47:45:10 
*FROM CLIP NAME:  ERN_F3621_NSCR_1986-07-20_POCONO-SUMMER 500 RACE BROADCAST CRASH REPLAY FROM JUNE 8 1986 _86-EV-0126B.NEW.01 
*SOURCE FILE: ERN_F3621_NSCR_1986-07-20_POCONO-SUMMER 500 RACE BROADCAST CRASH REPLAY FROM JUNE 8 1986 _86-EV-0126B
000437  ERN_F1090_NSCR_1986-02-23_RACE_B-ROLL_RICHMOND_MILLER_HIGH_LIFE_400_DESR_NO3_GRANDSTAND_SCENES_&_BILL_ELLIOTT_CRASH_86-EV-0339    A22   C        00:13:42:15 00:13:43:15 00:07:38:23 00:07:39:23 
M2      ERN_F1090_NSCR_1986-02-23_RACE_B-ROLL_RICHMOND_MILLER_HIGH_LIFE_400_DESR_NO3_GRANDSTAND_SCENES_&_BILL_ELLIOTT_CRASH_86-EV-0339             030.0 00:13:42:15 
*FROM CLIP NAME:  ERN_F1090_NSCR_1986-02-23_RACE B-ROLL RICHMOND MILLER HIGH LIFE 400 DESR NO3 GRANDSTAND SCENES & BILL ELLIOTT CRASH_86-EV-0339.NEW.01.COPY.01 
*TO CLIP NAME:  ERN_F1090_NSCR_1986-02-23_RACE B-ROLL RICHMOND MILLER HIGH LIFE 400 DESR NO3 GRANDSTAND SCENES & BILL ELLIOTT CRASH_86-EV-0339.NEW.01.COPY.01 
*SOURCE FILE: ERN_F1090_NSCR_1986-02-23_RACE B-ROLL RICHMOND MILLER HIGH LIFE 400 DESR NO3 GRANDSTAND SCENES & BILL ELLIOTT CRASH_86-EV-0339
000438  ERN_F0410_HIST_1995_INTV_DALE_EARNHARDT_SPORTS_INTERVIEW_ANN_LIGUORI_ALP-37A                                                      A18   C        00:23:08:17 00:23:08:24 00:07:40:18 00:07:40:23 
M2      ERN_F0410_HIST_1995_INTV_DALE_EARNHARDT_SPORTS_INTERVIEW_ANN_LIGUORI_ALP-37A                                                               030.0 00:23:08:17 
*FROM CLIP NAME:  ERN_F0410_HIST_1995_INTV DALE EARNHARDT SPORTS INTERVIEW ANN LIGUORI_ALP-37A.NEW.01 
*SOURCE FILE: ERN_F0410_HIST_1995_INTV DALE EARNHARDT SPORTS INTERVIEW ANN LIGUORI_ALP-37A
000439  ERN_F0410_HIST_1995_INTV_DALE_EARNHARDT_SPORTS_INTERVIEW_ANN_LIGUORI_ALP-37A                                                      A18   C        00:23:08:23 00:23:14:23 00:07:40:23 00:07:46:22 
M2      ERN_F0410_HIST_1995_INTV_DALE_EARNHARDT_SPORTS_INTERVIEW_ANN_LIGUORI_ALP-37A                                                               030.0 00:23:08:23 
*FROM CLIP NAME:  ERN_F0410_HIST_1995_INTV DALE EARNHARDT SPORTS INTERVIEW ANN LIGUORI_ALP-37A.NEW.01 
*SOURCE FILE: ERN_F0410_HIST_1995_INTV DALE EARNHARDT SPORTS INTERVIEW ANN LIGUORI_ALP-37A
000440  ERN_F0653_NSCR_1990-01-04_DESR_RACE_NASCAR_CUP_SERIES_-_DARLINGTON_90-EV-0664                                                     A20   C        01:08:34:27 01:08:36:13 00:07:42:06 00:07:43:18 
M2      ERN_F0653_NSCR_1990-01-04_DESR_RACE_NASCAR_CUP_SERIES_-_DARLINGTON_90-EV-0664                                                              030.0 01:08:34:27 
*FROM CLIP NAME:  ERN_F0653_NSCR_1990-01-04_DESR RACE NASCAR CUP SERIES - DARLINGTON_90-EV-0664.NEW.01 
*SOURCE FILE: ERN_F0653_NSCR_1990-01-04_DESR RACE NASCAR CUP SERIES - DARLINGTON_90-EV-0664
000441  ERN_F3621_NSCR_1986-07-20_POCONO-SUMMER_500_RACE_BROADCAST_CRASH_REPLAY_FROM_JUNE_8_1986__86-EV-0126B                             V     C        08:48:29:22 08:48:34:25 00:07:42:23 00:07:48:01 
M2      ERN_F3621_NSCR_1986-07-20_POCONO-SUMMER_500_RACE_BROADCAST_CRASH_REPLAY_FROM_JUNE_8_1986__86-EV-0126B                                      030.0 08:48:29:22 
*FROM CLIP NAME:  ERN_F3621_NSCR_1986-07-20_POCONO-SUMMER 500 RACE BROADCAST CRASH REPLAY FROM JUNE 8 1986 _86-EV-0126B.NEW.01 
*SOURCE FILE: ERN_F3621_NSCR_1986-07-20_POCONO-SUMMER 500 RACE BROADCAST CRASH REPLAY FROM JUNE 8 1986 _86-EV-0126B
000442  ERN_F0653_NSCR_1990-01-04_DESR_RACE_NASCAR_CUP_SERIES_-_DARLINGTON_90-EV-0664                                                     A20   C        01:08:36:12 01:08:39:13 00:07:43:18 00:07:46:18 
M2      ERN_F0653_NSCR_1990-01-04_DESR_RACE_NASCAR_CUP_SERIES_-_DARLINGTON_90-EV-0664                                                              030.0 01:08:36:12 
*FROM CLIP NAME:  ERN_F0653_NSCR_1990-01-04_DESR RACE NASCAR CUP SERIES - DARLINGTON_90-EV-0664.NEW.01 
*SOURCE FILE: ERN_F0653_NSCR_1990-01-04_DESR RACE NASCAR CUP SERIES - DARLINGTON_90-EV-0664
000443  ERN_F9703_NSCR_1988-07-01_RACE_INTV_DESR_IROC_WATKINS_GLEN_FEATURE_1988-NAS-00098_S001                                            A18   C        14:49:47:00 14:49:47:05 00:07:47:11 00:07:47:15 
M2      ERN_F9703_NSCR_1988-07-01_RACE_INTV_DESR_IROC_WATKINS_GLEN_FEATURE_1988-NAS-00098_S001                                                     030.0 14:49:47:00 
*FROM CLIP NAME:  ERN_F9703_NSCR_1988-07-01_RACE INTV DESR IROC WATKINS GLEN FEATURE_1988-NAS-00098_S001.NEW.01 
*SOURCE FILE: ERN_F9703_NSCR_1988-07-01_RACE INTV DESR IROC WATKINS GLEN FEATURE_1988-NAS-00098_S001
000444  ERN_F9703_NSCR_1988-07-01_RACE_INTV_DESR_IROC_WATKINS_GLEN_FEATURE_1988-NAS-00098_S001                                            A18   C        14:49:47:05 14:49:47:14 00:07:47:15 00:07:47:22 
M2      ERN_F9703_NSCR_1988-07-01_RACE_INTV_DESR_IROC_WATKINS_GLEN_FEATURE_1988-NAS-00098_S001                                                     030.0 14:49:47:05 
*FROM CLIP NAME:  ERN_F9703_NSCR_1988-07-01_RACE INTV DESR IROC WATKINS GLEN FEATURE_1988-NAS-00098_S001.NEW.01 
*SOURCE FILE: ERN_F9703_NSCR_1988-07-01_RACE INTV DESR IROC WATKINS GLEN FEATURE_1988-NAS-00098_S001
000445  ERN_F9703_NSCR_1988-07-01_RACE_INTV_DESR_IROC_WATKINS_GLEN_FEATURE_1988-NAS-00098_S001                                            A18   C        14:49:03:26 14:49:03:29 00:07:47:22 00:07:48:00 
M2      ERN_F9703_NSCR_1988-07-01_RACE_INTV_DESR_IROC_WATKINS_GLEN_FEATURE_1988-NAS-00098_S001                                                     030.0 14:49:03:26 
*FROM CLIP NAME:  ERN_F9703_NSCR_1988-07-01_RACE INTV DESR IROC WATKINS GLEN FEATURE_1988-NAS-00098_S001.NEW.01 
*TO CLIP NAME:  ERN_F9703_NSCR_1988-07-01_RACE INTV DESR IROC WATKINS GLEN FEATURE_1988-NAS-00098_S001.NEW.01 
*SOURCE FILE: ERN_F9703_NSCR_1988-07-01_RACE INTV DESR IROC WATKINS GLEN FEATURE_1988-NAS-00098_S001
000446  ERN_F9703_NSCR_1988-07-01_RACE_INTV_DESR_IROC_WATKINS_GLEN_FEATURE_1988-NAS-00098_S001                                            A18   C        14:49:03:28 14:49:11:15 00:07:48:00 00:07:55:13 
M2      ERN_F9703_NSCR_1988-07-01_RACE_INTV_DESR_IROC_WATKINS_GLEN_FEATURE_1988-NAS-00098_S001                                                     030.0 14:49:03:28 
*FROM CLIP NAME:  ERN_F9703_NSCR_1988-07-01_RACE INTV DESR IROC WATKINS GLEN FEATURE_1988-NAS-00098_S001.NEW.01 
*SOURCE FILE: ERN_F9703_NSCR_1988-07-01_RACE INTV DESR IROC WATKINS GLEN FEATURE_1988-NAS-00098_S001
000447  ERN_F9703_NSCR_1988-07-01_RACE_INTV_DESR_IROC_WATKINS_GLEN_FEATURE_1988-NAS-00098_S001                                            V     C        14:49:04:00 14:49:10:12 00:07:48:01 00:07:54:10 
M2      ERN_F9703_NSCR_1988-07-01_RACE_INTV_DESR_IROC_WATKINS_GLEN_FEATURE_1988-NAS-00098_S001                                                     030.0 14:49:04:00 
*FROM CLIP NAME:  ERN_F9703_NSCR_1988-07-01_RACE INTV DESR IROC WATKINS GLEN FEATURE_1988-NAS-00098_S001.NEW.01 
*SOURCE FILE: ERN_F9703_NSCR_1988-07-01_RACE INTV DESR IROC WATKINS GLEN FEATURE_1988-NAS-00098_S001
000448  ERN_F1761_NSCR_2001-01-18_DESR_1987_VICTORY_LANE_THERESA_EARNHARDT_SE002862                                                       A20   C        00:01:25:27 00:01:28:28 00:07:54:05 00:07:57:05 
M2      ERN_F1761_NSCR_2001-01-18_DESR_1987_VICTORY_LANE_THERESA_EARNHARDT_SE002862                                                                030.0 00:01:25:27 
*FROM CLIP NAME:  ERN_F1761_NSCR_2001-01-18_DESR 1987 VICTORY LANE THERESA EARNHARDT_SE002862.NEW.01 
*SOURCE FILE: ERN_F1761_NSCR_2001-01-18_DESR 1987 VICTORY LANE THERESA EARNHARDT_SE002862
000449  ERN_F9637_NSCR_1987-03-08_3_OF_3_RACE_RICHMOND_MILLER_400_87-EV-0043                                                              V     C        00:14:57:29 00:15:11:02 00:07:54:10 00:08:07:10 
M2      ERN_F9637_NSCR_1987-03-08_3_OF_3_RACE_RICHMOND_MILLER_400_87-EV-0043                                                                       030.0 00:14:57:29 
*FROM CLIP NAME:  ERN_F9637_NSCR_1987-03-08_3 OF 3 RACE RICHMOND MILLER 400_87-EV-0043.NEW.01 
*SOURCE FILE: ERN_F9637_NSCR_1987-03-08_3 OF 3 RACE RICHMOND MILLER 400_87-EV-0043
000450  ERN_F0799_NSCR_1987-05-17_RACE_DESR_WINNER_BILL_ELLIOTT_CHARLOTTE_-_THE_WINSTON_87-EV-0287                                        A24   C        00:03:12:25 00:03:15:02 00:07:55:21 00:07:58:02 
M2      ERN_F0799_NSCR_1987-05-17_RACE_DESR_WINNER_BILL_ELLIOTT_CHARLOTTE_-_THE_WINSTON_87-EV-0287                                                 030.0 00:03:12:25 
*FROM CLIP NAME:  ERN_F0799_NSCR_1987-05-17_RACE DESR WINNER BILL ELLIOTT CHARLOTTE - THE WINSTON_87-EV-0287.NEW.01 
*SOURCE FILE: ERN_F0799_NSCR_1987-05-17_RACE DESR WINNER BILL ELLIOTT CHARLOTTE - THE WINSTON_87-EV-0287
000451  ERN_F1761_NSCR_2001-01-18_DESR_1987_VICTORY_LANE_THERESA_EARNHARDT_SE002862                                                       A20   C        00:01:28:27 00:01:29:06 00:07:57:05 00:07:57:11 
M2      ERN_F1761_NSCR_2001-01-18_DESR_1987_VICTORY_LANE_THERESA_EARNHARDT_SE002862                                                                030.0 00:01:28:27 
*FROM CLIP NAME:  ERN_F1761_NSCR_2001-01-18_DESR 1987 VICTORY LANE THERESA EARNHARDT_SE002862.NEW.01 
*SOURCE FILE: ERN_F1761_NSCR_2001-01-18_DESR 1987 VICTORY LANE THERESA EARNHARDT_SE002862
000452  ERN_F1761_NSCR_2001-01-18_DESR_1987_VICTORY_LANE_THERESA_EARNHARDT_SE002862                                                       A20   C        00:01:29:05 00:01:30:06 00:07:57:11 00:07:58:11 
M2      ERN_F1761_NSCR_2001-01-18_DESR_1987_VICTORY_LANE_THERESA_EARNHARDT_SE002862                                                                030.0 00:01:29:05 
*FROM CLIP NAME:  ERN_F1761_NSCR_2001-01-18_DESR 1987 VICTORY LANE THERESA EARNHARDT_SE002862.NEW.01 
*TO CLIP NAME:  ERN_F1761_NSCR_2001-01-18_DESR 1987 VICTORY LANE THERESA EARNHARDT_SE002862.NEW.01 
*SOURCE FILE: ERN_F1761_NSCR_2001-01-18_DESR 1987 VICTORY LANE THERESA EARNHARDT_SE002862
000453  ERN_F9703_NSCR_1988-07-01_RACE_INTV_DESR_IROC_WATKINS_GLEN_FEATURE_1988-NAS-00098_S001                                            A18   C        14:49:51:07 14:49:51:10 00:07:57:19 00:07:57:21 
M2      ERN_F9703_NSCR_1988-07-01_RACE_INTV_DESR_IROC_WATKINS_GLEN_FEATURE_1988-NAS-00098_S001                                                     030.0 14:49:51:07 
*FROM CLIP NAME:  ERN_F9703_NSCR_1988-07-01_RACE INTV DESR IROC WATKINS GLEN FEATURE_1988-NAS-00098_S001.NEW.01 
*SOURCE FILE: ERN_F9703_NSCR_1988-07-01_RACE INTV DESR IROC WATKINS GLEN FEATURE_1988-NAS-00098_S001
000454  ERN_F0799_NSCR_1987-05-17_RACE_DESR_WINNER_BILL_ELLIOTT_CHARLOTTE_-_THE_WINSTON_87-EV-0287                                        A22   C        00:02:12:15 00:02:15:22 00:07:57:20 00:08:01:01 
M2      ERN_F0799_NSCR_1987-05-17_RACE_DESR_WINNER_BILL_ELLIOTT_CHARLOTTE_-_THE_WINSTON_87-EV-0287                                                 030.0 00:02:12:15 
*FROM CLIP NAME:  ERN_F0799_NSCR_1987-05-17_RACE DESR WINNER BILL ELLIOTT CHARLOTTE - THE WINSTON_87-EV-0287.NEW.01 
*SOURCE FILE: ERN_F0799_NSCR_1987-05-17_RACE DESR WINNER BILL ELLIOTT CHARLOTTE - THE WINSTON_87-EV-0287
000455  ERN_F9703_NSCR_1988-07-01_RACE_INTV_DESR_IROC_WATKINS_GLEN_FEATURE_1988-NAS-00098_S001                                            A18   C        14:49:51:10 14:49:54:22 00:07:57:21 00:08:01:06 
M2      ERN_F9703_NSCR_1988-07-01_RACE_INTV_DESR_IROC_WATKINS_GLEN_FEATURE_1988-NAS-00098_S001                                                     030.0 14:49:51:10 
*FROM CLIP NAME:  ERN_F9703_NSCR_1988-07-01_RACE INTV DESR IROC WATKINS GLEN FEATURE_1988-NAS-00098_S001.NEW.01 
*SOURCE FILE: ERN_F9703_NSCR_1988-07-01_RACE INTV DESR IROC WATKINS GLEN FEATURE_1988-NAS-00098_S001
000456  ERN_F1761_NSCR_2001-01-18_DESR_1987_VICTORY_LANE_THERESA_EARNHARDT_SE002862                                                       A20   C        00:01:30:05 00:01:31:02 00:07:58:11 00:07:59:08 
M2      ERN_F1761_NSCR_2001-01-18_DESR_1987_VICTORY_LANE_THERESA_EARNHARDT_SE002862                                                                030.0 00:01:30:05 
*FROM CLIP NAME:  ERN_F1761_NSCR_2001-01-18_DESR 1987 VICTORY LANE THERESA EARNHARDT_SE002862.NEW.01 
*SOURCE FILE: ERN_F1761_NSCR_2001-01-18_DESR 1987 VICTORY LANE THERESA EARNHARDT_SE002862
000457  ERN_F1761_NSCR_2001-01-18_DESR_1987_VICTORY_LANE_THERESA_EARNHARDT_SE002862                                                       A20   C        00:01:31:17 00:01:32:11 00:07:59:08 00:08:00:02 
M2      ERN_F1761_NSCR_2001-01-18_DESR_1987_VICTORY_LANE_THERESA_EARNHARDT_SE002862                                                                030.0 00:01:31:17 
*FROM CLIP NAME:  ERN_F1761_NSCR_2001-01-18_DESR 1987 VICTORY LANE THERESA EARNHARDT_SE002862.NEW.01 
*TO CLIP NAME:  ERN_F1761_NSCR_2001-01-18_DESR 1987 VICTORY LANE THERESA EARNHARDT_SE002862.NEW.01 
*SOURCE FILE: ERN_F1761_NSCR_2001-01-18_DESR 1987 VICTORY LANE THERESA EARNHARDT_SE002862
000458  ERN_F1761_NSCR_2001-01-18_DESR_1987_VICTORY_LANE_THERESA_EARNHARDT_SE002862                                                       A20   C        00:01:32:10 00:01:39:21 00:08:00:02 00:08:07:10 
M2      ERN_F1761_NSCR_2001-01-18_DESR_1987_VICTORY_LANE_THERESA_EARNHARDT_SE002862                                                                030.0 00:01:32:10 
*FROM CLIP NAME:  ERN_F1761_NSCR_2001-01-18_DESR 1987 VICTORY LANE THERESA EARNHARDT_SE002862.NEW.01 
*SOURCE FILE: ERN_F1761_NSCR_2001-01-18_DESR 1987 VICTORY LANE THERESA EARNHARDT_SE002862
000459  ERN_F0800_NSCR_1987-05-17_RACE_DESR_WINNER_BILL_ELLIOTT_CHARLOTTE_-_THE_WINSTON_87-EV-0287                                        A22   C        00:53:10:06 00:53:12:21 00:08:01:01 00:08:03:13 
M2      ERN_F0800_NSCR_1987-05-17_RACE_DESR_WINNER_BILL_ELLIOTT_CHARLOTTE_-_THE_WINSTON_87-EV-0287                                                 030.0 00:53:10:06 
*FROM CLIP NAME:  ERN_F0800_NSCR_1987-05-17_RACE DESR WINNER BILL ELLIOTT CHARLOTTE - THE WINSTON_87-EV-0287.NEW.01 
*TO CLIP NAME:  ERN_F0799_NSCR_1987-05-17_RACE DESR WINNER BILL ELLIOTT CHARLOTTE - THE WINSTON_87-EV-0287.NEW.01 
*SOURCE FILE: ERN_F0800_NSCR_1987-05-17_RACE DESR WINNER BILL ELLIOTT CHARLOTTE - THE WINSTON_87-EV-0287
000460  ERN_F9703_NSCR_1988-07-01_RACE_INTV_DESR_IROC_WATKINS_GLEN_FEATURE_1988-NAS-00098_S001                                            A18   C        14:49:01:03 14:49:01:07 00:08:01:14 00:08:01:16 
M2      ERN_F9703_NSCR_1988-07-01_RACE_INTV_DESR_IROC_WATKINS_GLEN_FEATURE_1988-NAS-00098_S001                                                     030.0 14:49:01:03 
*FROM CLIP NAME:  ERN_F9703_NSCR_1988-07-01_RACE INTV DESR IROC WATKINS GLEN FEATURE_1988-NAS-00098_S001.NEW.01 
*SOURCE FILE: ERN_F9703_NSCR_1988-07-01_RACE INTV DESR IROC WATKINS GLEN FEATURE_1988-NAS-00098_S001
000461  ERN_F9703_NSCR_1988-07-01_RACE_INTV_DESR_IROC_WATKINS_GLEN_FEATURE_1988-NAS-00098_S001                                            A18   C        14:49:01:06 14:49:01:24 00:08:01:16 00:08:02:06 
M2      ERN_F9703_NSCR_1988-07-01_RACE_INTV_DESR_IROC_WATKINS_GLEN_FEATURE_1988-NAS-00098_S001                                                     030.0 14:49:01:06 
*FROM CLIP NAME:  ERN_F9703_NSCR_1988-07-01_RACE INTV DESR IROC WATKINS GLEN FEATURE_1988-NAS-00098_S001.NEW.01 
*SOURCE FILE: ERN_F9703_NSCR_1988-07-01_RACE INTV DESR IROC WATKINS GLEN FEATURE_1988-NAS-00098_S001
000462  ERN_F9703_NSCR_1988-07-01_RACE_INTV_DESR_IROC_WATKINS_GLEN_FEATURE_1988-NAS-00098_S001                                            A18   C        14:49:02:05 14:49:02:08 00:08:02:06 00:08:02:08 
M2      ERN_F9703_NSCR_1988-07-01_RACE_INTV_DESR_IROC_WATKINS_GLEN_FEATURE_1988-NAS-00098_S001                                                     030.0 14:49:02:05 
*FROM CLIP NAME:  ERN_F9703_NSCR_1988-07-01_RACE INTV DESR IROC WATKINS GLEN FEATURE_1988-NAS-00098_S001.NEW.01 
*TO CLIP NAME:  ERN_F9703_NSCR_1988-07-01_RACE INTV DESR IROC WATKINS GLEN FEATURE_1988-NAS-00098_S001.NEW.01 
*SOURCE FILE: ERN_F9703_NSCR_1988-07-01_RACE INTV DESR IROC WATKINS GLEN FEATURE_1988-NAS-00098_S001
000463  ERN_F9703_NSCR_1988-07-01_RACE_INTV_DESR_IROC_WATKINS_GLEN_FEATURE_1988-NAS-00098_S001                                            A18   C        14:49:02:07 14:49:03:04 00:08:02:08 00:08:03:05 
M2      ERN_F9703_NSCR_1988-07-01_RACE_INTV_DESR_IROC_WATKINS_GLEN_FEATURE_1988-NAS-00098_S001                                                     030.0 14:49:02:07 
*FROM CLIP NAME:  ERN_F9703_NSCR_1988-07-01_RACE INTV DESR IROC WATKINS GLEN FEATURE_1988-NAS-00098_S001.NEW.01 
*SOURCE FILE: ERN_F9703_NSCR_1988-07-01_RACE INTV DESR IROC WATKINS GLEN FEATURE_1988-NAS-00098_S001
000464  ERN_F0800_NSCR_1987-05-17_RACE_DESR_WINNER_BILL_ELLIOTT_CHARLOTTE_-_THE_WINSTON_87-EV-0287                                        A22   C        00:53:12:21 00:53:15:25 00:08:03:13 00:08:06:16 
M2      ERN_F0800_NSCR_1987-05-17_RACE_DESR_WINNER_BILL_ELLIOTT_CHARLOTTE_-_THE_WINSTON_87-EV-0287                                                 030.0 00:53:12:21 
*FROM CLIP NAME:  ERN_F0800_NSCR_1987-05-17_RACE DESR WINNER BILL ELLIOTT CHARLOTTE - THE WINSTON_87-EV-0287.NEW.01 
*SOURCE FILE: ERN_F0800_NSCR_1987-05-17_RACE DESR WINNER BILL ELLIOTT CHARLOTTE - THE WINSTON_87-EV-0287
000465  ERN_F0800_NSCR_1987-05-17_RACE_DESR_WINNER_BILL_ELLIOTT_CHARLOTTE_-_THE_WINSTON_87-EV-0287                                        A24   C        00:53:14:29 00:53:17:00 00:08:03:21 00:08:05:21 
M2      ERN_F0800_NSCR_1987-05-17_RACE_DESR_WINNER_BILL_ELLIOTT_CHARLOTTE_-_THE_WINSTON_87-EV-0287                                                 030.0 00:53:14:29 
*FROM CLIP NAME:  ERN_F0800_NSCR_1987-05-17_RACE DESR WINNER BILL ELLIOTT CHARLOTTE - THE WINSTON_87-EV-0287.NEW.01 
*SOURCE FILE: ERN_F0800_NSCR_1987-05-17_RACE DESR WINNER BILL ELLIOTT CHARLOTTE - THE WINSTON_87-EV-0287
000466  ERN_F3528_NASX_1987-03-08_RACE_MILLER_HIGH_LIFE_400_RICHMOND_FAIRGROUNDS_RACEWAY_YOUTUBE                                          A18   C        02:06:04:22 02:06:04:28 00:08:04:12 00:08:04:16 
M2      ERN_F3528_NASX_1987-03-08_RACE_MILLER_HIGH_LIFE_400_RICHMOND_FAIRGROUNDS_RACEWAY_YOUTUBE                                                   030.0 02:06:04:22 
*FROM CLIP NAME:  ERN_F3528_NASX_1987-03-08_RACE MILLER HIGH LIFE 400 RICHMOND FAIRGROUNDS RACEWAY_YOUTUBE.NEW.01 
*SOURCE FILE: ERN_F3528_NASX_1987-03-08_RACE MILLER HIGH LIFE 400 RICHMOND FAIRGROUNDS RACEWAY_YOUTUBE
000467  ERN_F3528_NASX_1987-03-08_RACE_MILLER_HIGH_LIFE_400_RICHMOND_FAIRGROUNDS_RACEWAY_YOUTUBE                                          A18   C        02:06:04:27 02:06:06:11 00:08:04:16 00:08:06:02 
M2      ERN_F3528_NASX_1987-03-08_RACE_MILLER_HIGH_LIFE_400_RICHMOND_FAIRGROUNDS_RACEWAY_YOUTUBE                                                   030.0 02:06:04:27 
*FROM CLIP NAME:  ERN_F3528_NASX_1987-03-08_RACE MILLER HIGH LIFE 400 RICHMOND FAIRGROUNDS RACEWAY_YOUTUBE.NEW.01 
*SOURCE FILE: ERN_F3528_NASX_1987-03-08_RACE MILLER HIGH LIFE 400 RICHMOND FAIRGROUNDS RACEWAY_YOUTUBE
000468  ERN_F0800_NSCR_1987-05-17_RACE_DESR_WINNER_BILL_ELLIOTT_CHARLOTTE_-_THE_WINSTON_87-EV-0287                                        A24   C        00:53:16:29 00:53:18:16 00:08:05:21 00:08:07:10 
M2      ERN_F0800_NSCR_1987-05-17_RACE_DESR_WINNER_BILL_ELLIOTT_CHARLOTTE_-_THE_WINSTON_87-EV-0287                                                 030.0 00:53:16:29 
*FROM CLIP NAME:  ERN_F0800_NSCR_1987-05-17_RACE DESR WINNER BILL ELLIOTT CHARLOTTE - THE WINSTON_87-EV-0287.NEW.01 
*SOURCE FILE: ERN_F0800_NSCR_1987-05-17_RACE DESR WINNER BILL ELLIOTT CHARLOTTE - THE WINSTON_87-EV-0287
000469  ERN_F3528_NASX_1987-03-08_RACE_MILLER_HIGH_LIFE_400_RICHMOND_FAIRGROUNDS_RACEWAY_YOUTUBE                                          A18   C        02:06:06:16 02:06:08:12 00:08:06:02 00:08:07:22 
M2      ERN_F3528_NASX_1987-03-08_RACE_MILLER_HIGH_LIFE_400_RICHMOND_FAIRGROUNDS_RACEWAY_YOUTUBE                                                   030.0 02:06:06:16 
*FROM CLIP NAME:  ERN_F3528_NASX_1987-03-08_RACE MILLER HIGH LIFE 400 RICHMOND FAIRGROUNDS RACEWAY_YOUTUBE.NEW.01 
*SOURCE FILE: ERN_F3528_NASX_1987-03-08_RACE MILLER HIGH LIFE 400 RICHMOND FAIRGROUNDS RACEWAY_YOUTUBE
000470  ERN_F1761_NSCR_2001-01-18_DESR_1987_VICTORY_LANE_THERESA_EARNHARDT_SE002862                                                       A20   C        00:01:39:20 00:01:41:08 00:08:07:10 00:08:09:00 
M2      ERN_F1761_NSCR_2001-01-18_DESR_1987_VICTORY_LANE_THERESA_EARNHARDT_SE002862                                                                030.0 00:01:39:20 
*FROM CLIP NAME:  ERN_F1761_NSCR_2001-01-18_DESR 1987 VICTORY LANE THERESA EARNHARDT_SE002862.NEW.01 
*TO CLIP NAME:  ERN_F1761_NSCR_2001-01-18_DESR 1987 VICTORY LANE THERESA EARNHARDT_SE002862.NEW.01 
*SOURCE FILE: ERN_F1761_NSCR_2001-01-18_DESR 1987 VICTORY LANE THERESA EARNHARDT_SE002862
000471  ERN_F0800_NSCR_1987-05-17_RACE_DESR_WINNER_BILL_ELLIOTT_CHARLOTTE_-_THE_WINSTON_87-EV-0287                                        A24   C        00:53:18:16 00:53:20:04 00:08:07:10 00:08:09:00 
M2      ERN_F0800_NSCR_1987-05-17_RACE_DESR_WINNER_BILL_ELLIOTT_CHARLOTTE_-_THE_WINSTON_87-EV-0287                                                 030.0 00:53:18:16 
*FROM CLIP NAME:  ERN_F0800_NSCR_1987-05-17_RACE DESR WINNER BILL ELLIOTT CHARLOTTE - THE WINSTON_87-EV-0287.NEW.01 
*TO CLIP NAME:  ERN_F0800_NSCR_1987-05-17_RACE DESR WINNER BILL ELLIOTT CHARLOTTE - THE WINSTON_87-EV-0287.NEW.01 
*SOURCE FILE: ERN_F0800_NSCR_1987-05-17_RACE DESR WINNER BILL ELLIOTT CHARLOTTE - THE WINSTON_87-EV-0287
000472  ERN_F9640_NSCR_1987-03-08_RACE_B-ROLL_INTV_RICHMOND_MILLER_400_W_DESR_VICTORY_LANE_&_FLY-BYS_87-EV-0046                           V     C        00:01:27:21 00:01:30:02 00:08:07:10 00:08:09:18 
M2      ERN_F9640_NSCR_1987-03-08_RACE_B-ROLL_INTV_RICHMOND_MILLER_400_W_DESR_VICTORY_LANE_&_FLY-BYS_87-EV-0046                                    030.0 00:01:27:21 
*FROM CLIP NAME:  ERN_F9640_NSCR_1987-03-08_RACE B-ROLL INTV RICHMOND MILLER 400 W DESR VICTORY LANE & FLY-BYS_87-EV-0046.NEW.01 
*SOURCE FILE: ERN_F9640_NSCR_1987-03-08_RACE B-ROLL INTV RICHMOND MILLER 400 W DESR VICTORY LANE & FLY-BYS_87-EV-0046
000473  ERN_F1761_NSCR_2001-01-18_DESR_1987_VICTORY_LANE_THERESA_EARNHARDT_SE002862                                                       A20   C        00:01:41:07 00:01:41:19 00:08:09:00 00:08:09:09 
M2      ERN_F1761_NSCR_2001-01-18_DESR_1987_VICTORY_LANE_THERESA_EARNHARDT_SE002862                                                                030.0 00:01:41:07 
*FROM CLIP NAME:  ERN_F1761_NSCR_2001-01-18_DESR 1987 VICTORY LANE THERESA EARNHARDT_SE002862.NEW.01 
*SOURCE FILE: ERN_F1761_NSCR_2001-01-18_DESR 1987 VICTORY LANE THERESA EARNHARDT_SE002862
000474  ERN_F0800_NSCR_1987-05-17_RACE_DESR_WINNER_BILL_ELLIOTT_CHARLOTTE_-_THE_WINSTON_87-EV-0287                                        A24   C        00:53:20:03 00:53:23:15 00:08:09:00 00:08:12:09 
M2      ERN_F0800_NSCR_1987-05-17_RACE_DESR_WINNER_BILL_ELLIOTT_CHARLOTTE_-_THE_WINSTON_87-EV-0287                                                 030.0 00:53:20:03 
*FROM CLIP NAME:  ERN_F0800_NSCR_1987-05-17_RACE DESR WINNER BILL ELLIOTT CHARLOTTE - THE WINSTON_87-EV-0287.NEW.01 
*SOURCE FILE: ERN_F0800_NSCR_1987-05-17_RACE DESR WINNER BILL ELLIOTT CHARLOTTE - THE WINSTON_87-EV-0287
000475  ERN_F0800_NSCR_1987-05-17_RACE_DESR_WINNER_BILL_ELLIOTT_CHARLOTTE_-_THE_WINSTON_87-EV-0287                                        A22   C        00:53:18:28 00:53:20:14 00:08:09:13 00:08:11:01 
M2      ERN_F0800_NSCR_1987-05-17_RACE_DESR_WINNER_BILL_ELLIOTT_CHARLOTTE_-_THE_WINSTON_87-EV-0287                                                 030.0 00:53:18:28 
*FROM CLIP NAME:  ERN_F0800_NSCR_1987-05-17_RACE DESR WINNER BILL ELLIOTT CHARLOTTE - THE WINSTON_87-EV-0287.NEW.01 
*SOURCE FILE: ERN_F0800_NSCR_1987-05-17_RACE DESR WINNER BILL ELLIOTT CHARLOTTE - THE WINSTON_87-EV-0287
000476  ERN_F0982_NSCR_1991-12-31_RACE_DESR_COMPILATION_W_TERESA_EARNHARDT_INTV_1991-NAS-00036_S001                                       V     C        02:07:23:23 02:07:27:07 00:08:09:18 00:08:13:04 
M2      ERN_F0982_NSCR_1991-12-31_RACE_DESR_COMPILATION_W_TERESA_EARNHARDT_INTV_1991-NAS-00036_S001                                                030.0 02:07:23:23 
*FROM CLIP NAME:  ERN_F0982_NSCR_1991-12-31_RACE DESR COMPILATION W TERESA EARNHARDT INTV_1991-NAS-00036_S001.NEW.01 
*SOURCE FILE: ERN_F0982_NSCR_1991-12-31_RACE DESR COMPILATION W TERESA EARNHARDT INTV_1991-NAS-00036_S001
000477  ERN_F0800_NSCR_1987-05-17_RACE_DESR_WINNER_BILL_ELLIOTT_CHARLOTTE_-_THE_WINSTON_87-EV-0287                                        A22   C        00:53:20:13 00:53:23:19 00:08:11:01 00:08:14:05 
M2      ERN_F0800_NSCR_1987-05-17_RACE_DESR_WINNER_BILL_ELLIOTT_CHARLOTTE_-_THE_WINSTON_87-EV-0287                                                 030.0 00:53:20:13 
*FROM CLIP NAME:  ERN_F0800_NSCR_1987-05-17_RACE DESR WINNER BILL ELLIOTT CHARLOTTE - THE WINSTON_87-EV-0287.NEW.01 
*SOURCE FILE: ERN_F0800_NSCR_1987-05-17_RACE DESR WINNER BILL ELLIOTT CHARLOTTE - THE WINSTON_87-EV-0287
000478  ERN_F7929_NSCR_1987-03-29_4_OF_4_RACE_BROADCAST_DARLINGTON_TRANSOUTH_500_DESR_WIN_87-EV-0065D                                     A18   C        17:11:38:14 17:11:39:04 00:08:11:20 00:08:12:12 
M2      ERN_F7929_NSCR_1987-03-29_4_OF_4_RACE_BROADCAST_DARLINGTON_TRANSOUTH_500_DESR_WIN_87-EV-0065D                                              030.0 17:11:38:14 
*FROM CLIP NAME:  ERN_F7929_NSCR_1987-03-29_4 OF 4 RACE BROADCAST DARLINGTON TRANSOUTH 500 DESR WIN_87-EV-0065D.NEW.01 
*SOURCE FILE: ERN_F7929_NSCR_1987-03-29_4 OF 4 RACE BROADCAST DARLINGTON TRANSOUTH 500 DESR WIN_87-EV-0065D
000479  ERN_F0800_NSCR_1987-05-17_RACE_DESR_WINNER_BILL_ELLIOTT_CHARLOTTE_-_THE_WINSTON_87-EV-0287                                        A24   C        00:53:23:14 00:53:25:00 00:08:12:09 00:08:13:21 
M2      ERN_F0800_NSCR_1987-05-17_RACE_DESR_WINNER_BILL_ELLIOTT_CHARLOTTE_-_THE_WINSTON_87-EV-0287                                                 030.0 00:53:23:14 
*FROM CLIP NAME:  ERN_F0800_NSCR_1987-05-17_RACE DESR WINNER BILL ELLIOTT CHARLOTTE - THE WINSTON_87-EV-0287.NEW.01 
*TO CLIP NAME:  ERN_F0800_NSCR_1987-05-17_RACE DESR WINNER BILL ELLIOTT CHARLOTTE - THE WINSTON_87-EV-0287.NEW.01 
*SOURCE FILE: ERN_F0800_NSCR_1987-05-17_RACE DESR WINNER BILL ELLIOTT CHARLOTTE - THE WINSTON_87-EV-0287
000480  ERN_F7929_NSCR_1987-03-29_4_OF_4_RACE_BROADCAST_DARLINGTON_TRANSOUTH_500_DESR_WIN_87-EV-0065D                                     A18   C        17:11:39:04 17:11:41:29 00:08:12:12 00:08:15:08 
M2      ERN_F7929_NSCR_1987-03-29_4_OF_4_RACE_BROADCAST_DARLINGTON_TRANSOUTH_500_DESR_WIN_87-EV-0065D                                              030.0 17:11:39:04 
*FROM CLIP NAME:  ERN_F7929_NSCR_1987-03-29_4 OF 4 RACE BROADCAST DARLINGTON TRANSOUTH 500 DESR WIN_87-EV-0065D.NEW.01 
*SOURCE FILE: ERN_F7929_NSCR_1987-03-29_4 OF 4 RACE BROADCAST DARLINGTON TRANSOUTH 500 DESR WIN_87-EV-0065D
000481  ERN_F7929_NSCR_1987-03-29_4_OF_4_RACE_BROADCAST_DARLINGTON_TRANSOUTH_500_DESR_WIN_87-EV-0065D                                     V     C        17:11:39:24 17:11:42:12 00:08:13:04 00:08:15:18 
M2      ERN_F7929_NSCR_1987-03-29_4_OF_4_RACE_BROADCAST_DARLINGTON_TRANSOUTH_500_DESR_WIN_87-EV-0065D                                              030.0 17:11:39:24 
*FROM CLIP NAME:  ERN_F7929_NSCR_1987-03-29_4 OF 4 RACE BROADCAST DARLINGTON TRANSOUTH 500 DESR WIN_87-EV-0065D.NEW.01 
*SOURCE FILE: ERN_F7929_NSCR_1987-03-29_4 OF 4 RACE BROADCAST DARLINGTON TRANSOUTH 500 DESR WIN_87-EV-0065D
000482  ERN_F0800_NSCR_1987-05-17_RACE_DESR_WINNER_BILL_ELLIOTT_CHARLOTTE_-_THE_WINSTON_87-EV-0287                                        A24   C        00:53:24:29 00:53:28:09 00:08:13:21 00:08:17:04 
M2      ERN_F0800_NSCR_1987-05-17_RACE_DESR_WINNER_BILL_ELLIOTT_CHARLOTTE_-_THE_WINSTON_87-EV-0287                                                 030.0 00:53:24:29 
*FROM CLIP NAME:  ERN_F0800_NSCR_1987-05-17_RACE DESR WINNER BILL ELLIOTT CHARLOTTE - THE WINSTON_87-EV-0287.NEW.01 
*SOURCE FILE: ERN_F0800_NSCR_1987-05-17_RACE DESR WINNER BILL ELLIOTT CHARLOTTE - THE WINSTON_87-EV-0287
000483  ERN_F1761_NSCR_2001-01-18_DESR_1987_VICTORY_LANE_THERESA_EARNHARDT_SE002862                                                       A20   C        00:10:04:03 00:10:05:19 00:08:15:01 00:08:16:13 
M2      ERN_F1761_NSCR_2001-01-18_DESR_1987_VICTORY_LANE_THERESA_EARNHARDT_SE002862                                                                030.0 00:10:04:03 
*FROM CLIP NAME:  ERN_F1761_NSCR_2001-01-18_DESR 1987 VICTORY LANE THERESA EARNHARDT_SE002862.NEW.01 
*SOURCE FILE: ERN_F1761_NSCR_2001-01-18_DESR 1987 VICTORY LANE THERESA EARNHARDT_SE002862
000484  ERN_F1761_NSCR_2001-01-18_DESR_1987_VICTORY_LANE_THERESA_EARNHARDT_SE002862                                                       V     C        00:10:04:25 00:10:10:14 00:08:15:18 00:08:21:09 
M2      ERN_F1761_NSCR_2001-01-18_DESR_1987_VICTORY_LANE_THERESA_EARNHARDT_SE002862                                                                030.0 00:10:04:25 
*FROM CLIP NAME:  ERN_F1761_NSCR_2001-01-18_DESR 1987 VICTORY LANE THERESA EARNHARDT_SE002862.NEW.01 
*SOURCE FILE: ERN_F1761_NSCR_2001-01-18_DESR 1987 VICTORY LANE THERESA EARNHARDT_SE002862
000485  ERN_F1761_NSCR_2001-01-18_DESR_1987_VICTORY_LANE_THERESA_EARNHARDT_SE002862                                                       A20   C        00:10:05:18 00:10:08:28 00:08:16:13 00:08:19:20 
M2      ERN_F1761_NSCR_2001-01-18_DESR_1987_VICTORY_LANE_THERESA_EARNHARDT_SE002862                                                                030.0 00:10:05:18 
*FROM CLIP NAME:  ERN_F1761_NSCR_2001-01-18_DESR 1987 VICTORY LANE THERESA EARNHARDT_SE002862.NEW.01 
*SOURCE FILE: ERN_F1761_NSCR_2001-01-18_DESR 1987 VICTORY LANE THERESA EARNHARDT_SE002862
000486  ERN_F7926_NSCR_1987-03-29_1_OF_4_RACE_BROADCAST_DARLINGTON_TRANSOUTH_500_87-EV-0065A                                              A18   C        01:05:02:06 01:05:02:12 00:08:16:23 00:08:17:03 
M2      ERN_F7926_NSCR_1987-03-29_1_OF_4_RACE_BROADCAST_DARLINGTON_TRANSOUTH_500_87-EV-0065A                                                       030.0 01:05:02:06 
*FROM CLIP NAME:  ERN_F7926_NSCR_1987-03-29_1 OF 4 RACE BROADCAST DARLINGTON TRANSOUTH 500_87-EV-0065A.NEW.01 
*SOURCE FILE: ERN_F7926_NSCR_1987-03-29_1 OF 4 RACE BROADCAST DARLINGTON TRANSOUTH 500_87-EV-0065A
000487  ERN_F7926_NSCR_1987-03-29_1_OF_4_RACE_BROADCAST_DARLINGTON_TRANSOUTH_500_87-EV-0065A                                              A18   C        01:05:02:11 01:05:07:14 00:08:17:03 00:08:22:05 
M2      ERN_F7926_NSCR_1987-03-29_1_OF_4_RACE_BROADCAST_DARLINGTON_TRANSOUTH_500_87-EV-0065A                                                       030.0 01:05:02:11 
*FROM CLIP NAME:  ERN_F7926_NSCR_1987-03-29_1 OF 4 RACE BROADCAST DARLINGTON TRANSOUTH 500_87-EV-0065A.NEW.01 
*SOURCE FILE: ERN_F7926_NSCR_1987-03-29_1 OF 4 RACE BROADCAST DARLINGTON TRANSOUTH 500_87-EV-0065A
000488  ERN_F3279_NSCR_1987_COMP_DESR_INTVS_&_B-ROLL_EARNHARDT298328                                                                      V     C        01:18:20:15 01:18:23:18 00:08:21:09 00:08:24:11 
M2      ERN_F3279_NSCR_1987_COMP_DESR_INTVS_&_B-ROLL_EARNHARDT298328                                                                               030.0 01:18:20:15 
*FROM CLIP NAME:  ERN_F3279_NSCR_1987_COMP DESR INTVS & B-ROLL_EARNHARDT298328.NEW.01 
*SOURCE FILE: ERN_F3279_NSCR_1987_COMP DESR INTVS & B-ROLL_EARNHARDT298328
000489  ERN_F0800_NSCR_1987-05-17_RACE_DESR_WINNER_BILL_ELLIOTT_CHARLOTTE_-_THE_WINSTON_87-EV-0287                                        A20   C        00:53:19:12 00:53:20:28 00:08:26:13 00:08:28:01 
M2      ERN_F0800_NSCR_1987-05-17_RACE_DESR_WINNER_BILL_ELLIOTT_CHARLOTTE_-_THE_WINSTON_87-EV-0287                                                 030.0 00:53:19:12 
*FROM CLIP NAME:  ERN_F0800_NSCR_1987-05-17_RACE DESR WINNER BILL ELLIOTT CHARLOTTE - THE WINSTON_87-EV-0287.NEW.01 
*SOURCE FILE: ERN_F0800_NSCR_1987-05-17_RACE DESR WINNER BILL ELLIOTT CHARLOTTE - THE WINSTON_87-EV-0287
000490  ERN_F7929_NSCR_1987-03-29_4_OF_4_RACE_BROADCAST_DARLINGTON_TRANSOUTH_500_DESR_WIN_87-EV-0065D                                     V     C        17:08:44:20 17:08:46:13 00:08:26:20 00:08:28:14 
M2      ERN_F7929_NSCR_1987-03-29_4_OF_4_RACE_BROADCAST_DARLINGTON_TRANSOUTH_500_DESR_WIN_87-EV-0065D                                              030.0 17:08:44:20 
*FROM CLIP NAME:  ERN_F7929_NSCR_1987-03-29_4 OF 4 RACE BROADCAST DARLINGTON TRANSOUTH 500 DESR WIN_87-EV-0065D.NEW.01 
*SOURCE FILE: ERN_F7929_NSCR_1987-03-29_4 OF 4 RACE BROADCAST DARLINGTON TRANSOUTH 500 DESR WIN_87-EV-0065D
000491  ERN_F0800_NSCR_1987-05-17_RACE_DESR_WINNER_BILL_ELLIOTT_CHARLOTTE_-_THE_WINSTON_87-EV-0287                                        A20   C        00:53:20:27 00:53:23:06 00:08:28:01 00:08:30:08 
M2      ERN_F0800_NSCR_1987-05-17_RACE_DESR_WINNER_BILL_ELLIOTT_CHARLOTTE_-_THE_WINSTON_87-EV-0287                                                 030.0 00:53:20:27 
*FROM CLIP NAME:  ERN_F0800_NSCR_1987-05-17_RACE DESR WINNER BILL ELLIOTT CHARLOTTE - THE WINSTON_87-EV-0287.NEW.01 
*SOURCE FILE: ERN_F0800_NSCR_1987-05-17_RACE DESR WINNER BILL ELLIOTT CHARLOTTE - THE WINSTON_87-EV-0287
000492  ERN_F7929_NSCR_1987-03-29_4_OF_4_RACE_BROADCAST_DARLINGTON_TRANSOUTH_500_DESR_WIN_87-EV-0065D                                     V     C        17:08:54:07 17:08:57:08 00:08:28:14 00:08:31:14 
M2      ERN_F7929_NSCR_1987-03-29_4_OF_4_RACE_BROADCAST_DARLINGTON_TRANSOUTH_500_DESR_WIN_87-EV-0065D                                              030.0 17:08:54:07 
*FROM CLIP NAME:  ERN_F7929_NSCR_1987-03-29_4 OF 4 RACE BROADCAST DARLINGTON TRANSOUTH 500 DESR WIN_87-EV-0065D.NEW.01 
*SOURCE FILE: ERN_F7929_NSCR_1987-03-29_4 OF 4 RACE BROADCAST DARLINGTON TRANSOUTH 500 DESR WIN_87-EV-0065D
000493  ERN_F1761_NSCR_2001-01-18_DESR_1987_VICTORY_LANE_THERESA_EARNHARDT_SE002862                                                       A18   C        00:12:34:26 00:12:35:27 00:08:30:11 00:08:31:11 
M2      ERN_F1761_NSCR_2001-01-18_DESR_1987_VICTORY_LANE_THERESA_EARNHARDT_SE002862                                                                030.0 00:12:34:26 
*FROM CLIP NAME:  ERN_F1761_NSCR_2001-01-18_DESR 1987 VICTORY LANE THERESA EARNHARDT_SE002862.NEW.01 
*SOURCE FILE: ERN_F1761_NSCR_2001-01-18_DESR 1987 VICTORY LANE THERESA EARNHARDT_SE002862
000494  ERN_F1761_NSCR_2001-01-18_DESR_1987_VICTORY_LANE_THERESA_EARNHARDT_SE002862                                                       A18   C        00:12:35:26 00:12:39:16 00:08:31:11 00:08:35:02 
M2      ERN_F1761_NSCR_2001-01-18_DESR_1987_VICTORY_LANE_THERESA_EARNHARDT_SE002862                                                                030.0 00:12:35:26 
*FROM CLIP NAME:  ERN_F1761_NSCR_2001-01-18_DESR 1987 VICTORY LANE THERESA EARNHARDT_SE002862.NEW.01 
*SOURCE FILE: ERN_F1761_NSCR_2001-01-18_DESR 1987 VICTORY LANE THERESA EARNHARDT_SE002862
000495  ERN_F1761_NSCR_2001-01-18_DESR_1987_VICTORY_LANE_THERESA_EARNHARDT_SE002862                                                       V     C        00:12:33:05 00:12:37:21 00:08:31:14 00:08:36:02 
M2      ERN_F1761_NSCR_2001-01-18_DESR_1987_VICTORY_LANE_THERESA_EARNHARDT_SE002862                                                                030.0 00:12:33:05 
*FROM CLIP NAME:  ERN_F1761_NSCR_2001-01-18_DESR 1987 VICTORY LANE THERESA EARNHARDT_SE002862.NEW.01 
*SOURCE FILE: ERN_F1761_NSCR_2001-01-18_DESR 1987 VICTORY LANE THERESA EARNHARDT_SE002862
000496  ERN_F1761_NSCR_2001-01-18_DESR_1987_VICTORY_LANE_THERESA_EARNHARDT_SE002862                                                       A20   C        00:03:49:06 00:03:50:07 00:08:37:04 00:08:38:04 
M2      ERN_F1761_NSCR_2001-01-18_DESR_1987_VICTORY_LANE_THERESA_EARNHARDT_SE002862                                                                030.0 00:03:49:06 
*FROM CLIP NAME:  ERN_F1761_NSCR_2001-01-18_DESR 1987 VICTORY LANE THERESA EARNHARDT_SE002862.NEW.01 
*SOURCE FILE: ERN_F1761_NSCR_2001-01-18_DESR 1987 VICTORY LANE THERESA EARNHARDT_SE002862
000497  ERN_F1761_NSCR_2001-01-18_DESR_1987_VICTORY_LANE_THERESA_EARNHARDT_SE002862                                                       A18   C        00:04:03:01 00:04:04:02 00:08:37:08 00:08:38:08 
M2      ERN_F1761_NSCR_2001-01-18_DESR_1987_VICTORY_LANE_THERESA_EARNHARDT_SE002862                                                                030.0 00:04:03:01 
*FROM CLIP NAME:  ERN_F1761_NSCR_2001-01-18_DESR 1987 VICTORY LANE THERESA EARNHARDT_SE002862.NEW.01 
*SOURCE FILE: ERN_F1761_NSCR_2001-01-18_DESR 1987 VICTORY LANE THERESA EARNHARDT_SE002862
000498  ERN_F1761_NSCR_2001-01-18_DESR_1987_VICTORY_LANE_THERESA_EARNHARDT_SE002862                                                       V     C        00:04:04:08 00:04:07:10 00:08:37:16 00:08:40:17 
M2      ERN_F1761_NSCR_2001-01-18_DESR_1987_VICTORY_LANE_THERESA_EARNHARDT_SE002862                                                                030.0 00:04:04:08 
*FROM CLIP NAME:  ERN_F1761_NSCR_2001-01-18_DESR 1987 VICTORY LANE THERESA EARNHARDT_SE002862.NEW.01 
*SOURCE FILE: ERN_F1761_NSCR_2001-01-18_DESR 1987 VICTORY LANE THERESA EARNHARDT_SE002862
000499  ERN_F1761_NSCR_2001-01-18_DESR_1987_VICTORY_LANE_THERESA_EARNHARDT_SE002862                                                       A20   C        00:03:50:06 00:03:52:22 00:08:38:04 00:08:40:16 
M2      ERN_F1761_NSCR_2001-01-18_DESR_1987_VICTORY_LANE_THERESA_EARNHARDT_SE002862                                                                030.0 00:03:50:06 
*FROM CLIP NAME:  ERN_F1761_NSCR_2001-01-18_DESR 1987 VICTORY LANE THERESA EARNHARDT_SE002862.NEW.01 
*SOURCE FILE: ERN_F1761_NSCR_2001-01-18_DESR 1987 VICTORY LANE THERESA EARNHARDT_SE002862
000500  ERN_F1761_NSCR_2001-01-18_DESR_1987_VICTORY_LANE_THERESA_EARNHARDT_SE002862                                                       A18   C        00:04:04:01 00:04:04:05 00:08:38:08 00:08:38:11 
M2      ERN_F1761_NSCR_2001-01-18_DESR_1987_VICTORY_LANE_THERESA_EARNHARDT_SE002862                                                                030.0 00:04:04:01 
*FROM CLIP NAME:  ERN_F1761_NSCR_2001-01-18_DESR 1987 VICTORY LANE THERESA EARNHARDT_SE002862.NEW.01 
*SOURCE FILE: ERN_F1761_NSCR_2001-01-18_DESR 1987 VICTORY LANE THERESA EARNHARDT_SE002862
000501  ERN_F4085_NSCR_1987-03-28_RACE_B-ROLL_DARLINGTON_COUNTRY_SQUIRE_200_DESR_WINS_W_VICTORY_LANE_87-EV-0069                           A18   C        00:09:59:21 00:10:00:12 00:08:44:00 00:08:44:16 
M2      ERN_F4085_NSCR_1987-03-28_RACE_B-ROLL_DARLINGTON_COUNTRY_SQUIRE_200_DESR_WINS_W_VICTORY_LANE_87-EV-0069                                    030.0 00:09:59:21 
*FROM CLIP NAME:  ERN_F4085_NSCR_1987-03-28_RACE B-ROLL DARLINGTON COUNTRY SQUIRE 200 DESR WINS W VICTORY LANE_87-EV-0069.NEW.01 
*SOURCE FILE: ERN_F4085_NSCR_1987-03-28_RACE B-ROLL DARLINGTON COUNTRY SQUIRE 200 DESR WINS W VICTORY LANE_87-EV-0069
000502  ERN_F4085_NSCR_1987-03-28_RACE_B-ROLL_DARLINGTON_COUNTRY_SQUIRE_200_DESR_WINS_W_VICTORY_LANE_87-EV-0069                           V     C        00:10:00:01 00:10:02:25 00:08:44:08 00:08:47:02 
M2      ERN_F4085_NSCR_1987-03-28_RACE_B-ROLL_DARLINGTON_COUNTRY_SQUIRE_200_DESR_WINS_W_VICTORY_LANE_87-EV-0069                                    030.0 00:10:00:01 
*FROM CLIP NAME:  ERN_F4085_NSCR_1987-03-28_RACE B-ROLL DARLINGTON COUNTRY SQUIRE 200 DESR WINS W VICTORY LANE_87-EV-0069.NEW.01 
*SOURCE FILE: ERN_F4085_NSCR_1987-03-28_RACE B-ROLL DARLINGTON COUNTRY SQUIRE 200 DESR WINS W VICTORY LANE_87-EV-0069
000503  ERN_F4085_NSCR_1987-03-28_RACE_B-ROLL_DARLINGTON_COUNTRY_SQUIRE_200_DESR_WINS_W_VICTORY_LANE_87-EV-0069                           A18   C        00:10:00:11 00:10:02:10 00:08:44:16 00:08:46:14 
M2      ERN_F4085_NSCR_1987-03-28_RACE_B-ROLL_DARLINGTON_COUNTRY_SQUIRE_200_DESR_WINS_W_VICTORY_LANE_87-EV-0069                                    030.0 00:10:00:11 
*FROM CLIP NAME:  ERN_F4085_NSCR_1987-03-28_RACE B-ROLL DARLINGTON COUNTRY SQUIRE 200 DESR WINS W VICTORY LANE_87-EV-0069.NEW.01 
*SOURCE FILE: ERN_F4085_NSCR_1987-03-28_RACE B-ROLL DARLINGTON COUNTRY SQUIRE 200 DESR WINS W VICTORY LANE_87-EV-0069
000504  ERN_F3279_NSCR_1987_COMP_DESR_INTVS_&_B-ROLL_EARNHARDT298328                                                                      A20   C        00:44:27:28 00:44:31:29 00:08:46:18 00:08:50:18 
M2      ERN_F3279_NSCR_1987_COMP_DESR_INTVS_&_B-ROLL_EARNHARDT298328                                                                               030.0 00:44:27:28 
*FROM CLIP NAME:  ERN_F3279_NSCR_1987_COMP DESR INTVS & B-ROLL_EARNHARDT298328.NEW.01 
*SOURCE FILE: ERN_F3279_NSCR_1987_COMP DESR INTVS & B-ROLL_EARNHARDT298328
000505  ERN_F3279_NSCR_1987_COMP_DESR_INTVS_&_B-ROLL_EARNHARDT298328                                                                      V     C        00:44:29:06 00:44:34:18 00:08:47:02 00:08:52:11 
M2      ERN_F3279_NSCR_1987_COMP_DESR_INTVS_&_B-ROLL_EARNHARDT298328                                                                               030.0 00:44:29:06 
*FROM CLIP NAME:  ERN_F3279_NSCR_1987_COMP DESR INTVS & B-ROLL_EARNHARDT298328.NEW.01 
*SOURCE FILE: ERN_F3279_NSCR_1987_COMP DESR INTVS & B-ROLL_EARNHARDT298328
000506  ERN_F3279_NSCR_1987_COMP_DESR_INTVS_&_B-ROLL_EARNHARDT298328                                                                      A22   C        00:45:34:22 00:45:35:23 00:08:48:09 00:08:49:09 
M2      ERN_F3279_NSCR_1987_COMP_DESR_INTVS_&_B-ROLL_EARNHARDT298328                                                                               030.0 00:45:34:22 
*FROM CLIP NAME:  ERN_F3279_NSCR_1987_COMP DESR INTVS & B-ROLL_EARNHARDT298328.NEW.01 
*SOURCE FILE: ERN_F3279_NSCR_1987_COMP DESR INTVS & B-ROLL_EARNHARDT298328
000507  ERN_F3279_NSCR_1987_COMP_DESR_INTVS_&_B-ROLL_EARNHARDT298328                                                                      A22   C        00:45:35:22 00:45:40:09 00:08:49:09 00:08:53:22 
M2      ERN_F3279_NSCR_1987_COMP_DESR_INTVS_&_B-ROLL_EARNHARDT298328                                                                               030.0 00:45:35:22 
*FROM CLIP NAME:  ERN_F3279_NSCR_1987_COMP DESR INTVS & B-ROLL_EARNHARDT298328.NEW.01 
*SOURCE FILE: ERN_F3279_NSCR_1987_COMP DESR INTVS & B-ROLL_EARNHARDT298328
000508  ERN_F3279_NSCR_1987_COMP_DESR_INTVS_&_B-ROLL_EARNHARDT298328                                                                      A20   C        00:44:31:28 00:44:34:17 00:08:50:18 00:08:53:08 
M2      ERN_F3279_NSCR_1987_COMP_DESR_INTVS_&_B-ROLL_EARNHARDT298328                                                                               030.0 00:44:31:28 
*FROM CLIP NAME:  ERN_F3279_NSCR_1987_COMP DESR INTVS & B-ROLL_EARNHARDT298328.NEW.01 
*SOURCE FILE: ERN_F3279_NSCR_1987_COMP DESR INTVS & B-ROLL_EARNHARDT298328
000509  ERN_F3279_NSCR_1987_COMP_DESR_INTVS_&_B-ROLL_EARNHARDT298328                                                                      V     C        00:45:08:22 00:45:16:02 00:08:52:11 00:08:59:18 
M2      ERN_F3279_NSCR_1987_COMP_DESR_INTVS_&_B-ROLL_EARNHARDT298328                                                                               030.0 00:45:08:22 
*FROM CLIP NAME:  ERN_F3279_NSCR_1987_COMP DESR INTVS & B-ROLL_EARNHARDT298328.NEW.01 
*SOURCE FILE: ERN_F3279_NSCR_1987_COMP DESR INTVS & B-ROLL_EARNHARDT298328
000510  ERN_F3279_NSCR_1987_COMP_DESR_INTVS_&_B-ROLL_EARNHARDT298328                                                                      A22   C        00:45:40:08 00:45:42:09 00:08:53:22 00:08:55:22 
M2      ERN_F3279_NSCR_1987_COMP_DESR_INTVS_&_B-ROLL_EARNHARDT298328                                                                               030.0 00:45:40:08 
*FROM CLIP NAME:  ERN_F3279_NSCR_1987_COMP DESR INTVS & B-ROLL_EARNHARDT298328.NEW.01 
*TO CLIP NAME:  ERN_F3279_NSCR_1987_COMP DESR INTVS & B-ROLL_EARNHARDT298328.NEW.01 
*SOURCE FILE: ERN_F3279_NSCR_1987_COMP DESR INTVS & B-ROLL_EARNHARDT298328
000511  ERN_F3279_NSCR_1987_COMP_DESR_INTVS_&_B-ROLL_EARNHARDT298328                                                                      A18   C        00:51:19:25 00:51:20:03 00:08:54:15 00:08:54:21 
M2      ERN_F3279_NSCR_1987_COMP_DESR_INTVS_&_B-ROLL_EARNHARDT298328                                                                               030.0 00:51:19:25 
*FROM CLIP NAME:  ERN_F3279_NSCR_1987_COMP DESR INTVS & B-ROLL_EARNHARDT298328.NEW.01 
*SOURCE FILE: ERN_F3279_NSCR_1987_COMP DESR INTVS & B-ROLL_EARNHARDT298328
000512  ERN_F3279_NSCR_1987_COMP_DESR_INTVS_&_B-ROLL_EARNHARDT298328                                                                      A18   C        00:51:20:02 00:51:26:00 00:08:54:21 00:09:00:19 
M2      ERN_F3279_NSCR_1987_COMP_DESR_INTVS_&_B-ROLL_EARNHARDT298328                                                                               030.0 00:51:20:02 
*FROM CLIP NAME:  ERN_F3279_NSCR_1987_COMP DESR INTVS & B-ROLL_EARNHARDT298328.NEW.01 
*SOURCE FILE: ERN_F3279_NSCR_1987_COMP DESR INTVS & B-ROLL_EARNHARDT298328
000513  ERN_F3279_NSCR_1987_COMP_DESR_INTVS_&_B-ROLL_EARNHARDT298328                                                                      A22   C        00:45:42:08 00:45:50:07 00:08:55:22 00:09:03:20 
M2      ERN_F3279_NSCR_1987_COMP_DESR_INTVS_&_B-ROLL_EARNHARDT298328                                                                               030.0 00:45:42:08 
*FROM CLIP NAME:  ERN_F3279_NSCR_1987_COMP DESR INTVS & B-ROLL_EARNHARDT298328.NEW.01 
*SOURCE FILE: ERN_F3279_NSCR_1987_COMP DESR INTVS & B-ROLL_EARNHARDT298328
000514  ERN_1987-11-22_DESR_IN_VICTORY_LANE_W_WINSTON_CUP_TROPHY_ATLANTA_JOURNAL_500_GETTYIMAGES-144688496_M.JPG                          V     C        01:00:00:00 01:00:00:03 00:08:59:18 00:08:59:21 
*FROM CLIP NAME:  ERN_1987-11-22_DESR IN VICTORY LANE W WINSTON CUP TROPHY ATLANTA JOURNAL 500_GETTYIMAGES-144688496_M.JPG 
*TO CLIP NAME:  ERN_1987-11-22_DESR IN VICTORY LANE W WINSTON CUP TROPHY ATLANTA JOURNAL 500_GETTYIMAGES-144688496_M.JPG 
*SOURCE FILE: ERN_1987-11-22_DESR IN VICTORY LANE W WINSTON CUP TROPHY ATLANTA JOURNAL 500_GETTYIMAGES-144688496_M.JPG
000515  ERN_1987-11-22_DESR_IN_VICTORY_LANE_W_WINSTON_CUP_TROPHY_ATLANTA_JOURNAL_500_GETTYIMAGES-144688496_M.JPG                          V     C        01:00:00:03 01:00:05:11 00:08:59:21 00:09:05:05 
*FROM CLIP NAME:  ERN_1987-11-22_DESR IN VICTORY LANE W WINSTON CUP TROPHY ATLANTA JOURNAL 500_GETTYIMAGES-144688496_M.JPG 
*SOURCE FILE: ERN_1987-11-22_DESR IN VICTORY LANE W WINSTON CUP TROPHY ATLANTA JOURNAL 500_GETTYIMAGES-144688496_M.JPG
000516  ERN_F3279_NSCR_1987_COMP_DESR_INTVS_&_B-ROLL_EARNHARDT298328                                                                      A20   C        00:53:59:23 00:53:59:27 00:09:01:12 00:09:01:14 
M2      ERN_F3279_NSCR_1987_COMP_DESR_INTVS_&_B-ROLL_EARNHARDT298328                                                                               030.0 00:53:59:23 
*FROM CLIP NAME:  ERN_F3279_NSCR_1987_COMP DESR INTVS & B-ROLL_EARNHARDT298328.NEW.01 
*SOURCE FILE: ERN_F3279_NSCR_1987_COMP DESR INTVS & B-ROLL_EARNHARDT298328
000517  ERN_F3279_NSCR_1987_COMP_DESR_INTVS_&_B-ROLL_EARNHARDT298328                                                                      A20   C        00:53:59:26 00:54:07:10 00:09:01:14 00:09:09:01 
M2      ERN_F3279_NSCR_1987_COMP_DESR_INTVS_&_B-ROLL_EARNHARDT298328                                                                               030.0 00:53:59:26 
*FROM CLIP NAME:  ERN_F3279_NSCR_1987_COMP DESR INTVS & B-ROLL_EARNHARDT298328.NEW.01 
*SOURCE FILE: ERN_F3279_NSCR_1987_COMP DESR INTVS & B-ROLL_EARNHARDT298328
000518  ERN_F3279_NSCR_1987_COMP_DESR_INTVS_&_B-ROLL_EARNHARDT298328                                                                      V     C        00:54:03:15 00:54:07:05 00:09:05:05 00:09:08:21 
M2      ERN_F3279_NSCR_1987_COMP_DESR_INTVS_&_B-ROLL_EARNHARDT298328                                                                               030.0 00:54:03:15 
*FROM CLIP NAME:  ERN_F3279_NSCR_1987_COMP DESR INTVS & B-ROLL_EARNHARDT298328.NEW.01 
*SOURCE FILE: ERN_F3279_NSCR_1987_COMP DESR INTVS & B-ROLL_EARNHARDT298328
000519  ERN_F3279_NSCR_1987_COMP_DESR_INTVS_&_B-ROLL_EARNHARDT298328                                                                      A22   C        00:45:38:12 00:45:39:13 00:09:08:07 00:09:09:07 
M2      ERN_F3279_NSCR_1987_COMP_DESR_INTVS_&_B-ROLL_EARNHARDT298328                                                                               030.0 00:45:38:12 
*FROM CLIP NAME:  ERN_F3279_NSCR_1987_COMP DESR INTVS & B-ROLL_EARNHARDT298328.NEW.01 
*SOURCE FILE: ERN_F3279_NSCR_1987_COMP DESR INTVS & B-ROLL_EARNHARDT298328
000520  ERN_F0933_NSCR_1987_DESR_DRUNK_LAKE_INTV_NAS-00057_S001                                                                           A18   C        01:53:21:26 01:53:24:12 00:09:08:14 00:09:11:02 
M2      ERN_F0933_NSCR_1987_DESR_DRUNK_LAKE_INTV_NAS-00057_S001                                                                                    030.0 01:53:21:26 
*FROM CLIP NAME:  ERN_F0933_NSCR_1987_DESR DRUNK LAKE INTV_NAS-00057_S001.NEW.01 
*SOURCE FILE: ERN_F0933_NSCR_1987_DESR DRUNK LAKE INTV_NAS-00057_S001
000521  ERN_F2660_NSCR_1987_RACE_B-ROLL_FILM_CHARLOTTE_AC_DELCO_500_IN_CAR_POV_DESR_FLY-BYS_1987-NAS-00107_S003                           V     C        00:11:40:05 00:11:43:13 00:09:08:21 00:09:12:04 
M2      ERN_F2660_NSCR_1987_RACE_B-ROLL_FILM_CHARLOTTE_AC_DELCO_500_IN_CAR_POV_DESR_FLY-BYS_1987-NAS-00107_S003                                    024.0 00:11:40:05 
*FROM CLIP NAME:  ERN_F2660_NSCR_1987_RACE B-ROLL FILM CHARLOTTE AC DELCO 500 IN CAR POV DESR FLY-BYS_1987-NAS-00107_S003.NEW.01 
*SOURCE FILE: ERN_F2660_NSCR_1987_RACE B-ROLL FILM CHARLOTTE AC DELCO 500 IN CAR POV DESR FLY-BYS_1987-NAS-00107_S003
000522  ERN_F3279_NSCR_1987_COMP_DESR_INTVS_&_B-ROLL_EARNHARDT298328                                                                      A22   C        00:45:39:12 00:45:57:20 00:09:09:07 00:09:27:13 
M2      ERN_F3279_NSCR_1987_COMP_DESR_INTVS_&_B-ROLL_EARNHARDT298328                                                                               030.0 00:45:39:12 
*FROM CLIP NAME:  ERN_F3279_NSCR_1987_COMP DESR INTVS & B-ROLL_EARNHARDT298328.NEW.01 
*SOURCE FILE: ERN_F3279_NSCR_1987_COMP DESR INTVS & B-ROLL_EARNHARDT298328
000523  ERN_F0933_NSCR_1987_DESR_DRUNK_LAKE_INTV_NAS-00057_S001                                                                           A18   C        01:53:24:11 01:53:25:18 00:09:11:02 00:09:12:07 
M2      ERN_F0933_NSCR_1987_DESR_DRUNK_LAKE_INTV_NAS-00057_S001                                                                                    030.0 01:53:24:11 
*FROM CLIP NAME:  ERN_F0933_NSCR_1987_DESR DRUNK LAKE INTV_NAS-00057_S001.NEW.01 
*SOURCE FILE: ERN_F0933_NSCR_1987_DESR DRUNK LAKE INTV_NAS-00057_S001
000524  ERN_F0910_NSCR_1965-10-16_RACE_RALPH_EARNHARDT_CHARLOTTE_250_POLE_LGP01267                                                        V     C        01:32:46:13 01:32:51:10 00:09:12:04 00:09:17:01 
M2      ERN_F0910_NSCR_1965-10-16_RACE_RALPH_EARNHARDT_CHARLOTTE_250_POLE_LGP01267                                                                 030.0 01:32:46:13 
*FROM CLIP NAME:  ERN_F0910_NSCR_1965-10-16_RACE RALPH EARNHARDT CHARLOTTE 250 POLE_LGP01267.NEW.01 
*SOURCE FILE: ERN_F0910_NSCR_1965-10-16_RACE RALPH EARNHARDT CHARLOTTE 250 POLE_LGP01267
000525  ERN_F0933_NSCR_1987_DESR_DRUNK_LAKE_INTV_NAS-00057_S001                                                                           A18   C        01:53:26:21 01:53:28:14 00:09:12:07 00:09:14:01 
M2      ERN_F0933_NSCR_1987_DESR_DRUNK_LAKE_INTV_NAS-00057_S001                                                                                    030.0 01:53:26:21 
*FROM CLIP NAME:  ERN_F0933_NSCR_1987_DESR DRUNK LAKE INTV_NAS-00057_S001.NEW.01 
*SOURCE FILE: ERN_F0933_NSCR_1987_DESR DRUNK LAKE INTV_NAS-00057_S001
000526  ERN_F0933_NSCR_1987_DESR_DRUNK_LAKE_INTV_NAS-00057_S001                                                                           A18   C        01:53:28:29 01:53:30:21 00:09:14:01 00:09:15:18 
M2      ERN_F0933_NSCR_1987_DESR_DRUNK_LAKE_INTV_NAS-00057_S001                                                                                    030.0 01:53:28:29 
*FROM CLIP NAME:  ERN_F0933_NSCR_1987_DESR DRUNK LAKE INTV_NAS-00057_S001.NEW.01 
*SOURCE FILE: ERN_F0933_NSCR_1987_DESR DRUNK LAKE INTV_NAS-00057_S001
000527  ERN_F2659_NSCR_1987_RACE_B-ROLL_FILM_CHARLOTTE_SPEEDWAY_AC_DELCO_500_BILL_ELLIOTT_DESR_1987-NAS-00107_S002                        V     C        00:20:26:13 00:20:31:02 00:09:17:01 00:09:21:13 
M2      ERN_F2659_NSCR_1987_RACE_B-ROLL_FILM_CHARLOTTE_SPEEDWAY_AC_DELCO_500_BILL_ELLIOTT_DESR_1987-NAS-00107_S002                                 024.0 00:20:26:13 
*FROM CLIP NAME:  ERN_F2659_NSCR_1987_RACE B-ROLL FILM CHARLOTTE SPEEDWAY AC DELCO 500 BILL ELLIOTT DESR_1987-NAS-00107_S002.NEW.01 
*SOURCE FILE: ERN_F2659_NSCR_1987_RACE B-ROLL FILM CHARLOTTE SPEEDWAY AC DELCO 500 BILL ELLIOTT DESR_1987-NAS-00107_S002
000528  ERN_F0933_NSCR_1987_DESR_DRUNK_LAKE_INTV_NAS-00057_S001                                                                           A18   C        01:53:32:21 01:53:33:07 00:09:18:01 00:09:18:13 
M2      ERN_F0933_NSCR_1987_DESR_DRUNK_LAKE_INTV_NAS-00057_S001                                                                                    030.0 01:53:32:21 
*FROM CLIP NAME:  ERN_F0933_NSCR_1987_DESR DRUNK LAKE INTV_NAS-00057_S001.NEW.01 
*SOURCE FILE: ERN_F0933_NSCR_1987_DESR DRUNK LAKE INTV_NAS-00057_S001
000529  ERN_F0933_NSCR_1987_DESR_DRUNK_LAKE_INTV_NAS-00057_S001                                                                           A18   C        01:53:33:06 01:53:39:09 00:09:18:13 00:09:24:15 
M2      ERN_F0933_NSCR_1987_DESR_DRUNK_LAKE_INTV_NAS-00057_S001                                                                                    030.0 01:53:33:06 
*FROM CLIP NAME:  ERN_F0933_NSCR_1987_DESR DRUNK LAKE INTV_NAS-00057_S001.NEW.01 
*SOURCE FILE: ERN_F0933_NSCR_1987_DESR DRUNK LAKE INTV_NAS-00057_S001
000530  ERN_F3279_NSCR_1987_COMP_DESR_INTVS_&_B-ROLL_EARNHARDT298328                                                                      A20   C        00:45:38:03 00:45:39:04 00:09:19:11 00:09:20:11 
M2      ERN_F3279_NSCR_1987_COMP_DESR_INTVS_&_B-ROLL_EARNHARDT298328                                                                               030.0 00:45:38:03 
*FROM CLIP NAME:  ERN_F3279_NSCR_1987_COMP DESR INTVS & B-ROLL_EARNHARDT298328.NEW.01 
*SOURCE FILE: ERN_F3279_NSCR_1987_COMP DESR INTVS & B-ROLL_EARNHARDT298328
000531  ERN_F3279_NSCR_1987_COMP_DESR_INTVS_&_B-ROLL_EARNHARDT298328                                                                      A20   C        00:45:39:03 00:45:40:02 00:09:20:11 00:09:21:09 
M2      ERN_F3279_NSCR_1987_COMP_DESR_INTVS_&_B-ROLL_EARNHARDT298328                                                                               030.0 00:45:39:03 
*FROM CLIP NAME:  ERN_F3279_NSCR_1987_COMP DESR INTVS & B-ROLL_EARNHARDT298328.NEW.01 
*SOURCE FILE: ERN_F3279_NSCR_1987_COMP DESR INTVS & B-ROLL_EARNHARDT298328
000532  ERN_1987-11-22_DESR_W_DEJR_TERESA_EARNHARDT_RICHARD_CHILDRESS_WINSTON_CUP_CHAMPIONSHIP_GETTYIMAGES-83547442_M.JPG                 V     C        01:00:00:00 01:00:00:03 00:09:21:13 00:09:21:16 
*FROM CLIP NAME:  ERN_1987-11-22_DESR W DEJR TERESA EARNHARDT RICHARD CHILDRESS WINSTON CUP CHAMPIONSHIP_GETTYIMAGES-83547442_M.JPG 
*TO CLIP NAME:  ERN_1987-11-22_DESR W DEJR TERESA EARNHARDT RICHARD CHILDRESS WINSTON CUP CHAMPIONSHIP_GETTYIMAGES-83547442_M.JPG 
*SOURCE FILE: ERN_1987-11-22_DESR W DEJR TERESA EARNHARDT RICHARD CHILDRESS WINSTON CUP CHAMPIONSHIP_GETTYIMAGES-83547442_M.JPG
000533  ERN_1987-11-22_DESR_W_DEJR_TERESA_EARNHARDT_RICHARD_CHILDRESS_WINSTON_CUP_CHAMPIONSHIP_GETTYIMAGES-83547442_M.JPG                 V     C        01:00:00:03 01:00:05:08 00:09:21:16 00:09:26:21 
*FROM CLIP NAME:  ERN_1987-11-22_DESR W DEJR TERESA EARNHARDT RICHARD CHILDRESS WINSTON CUP CHAMPIONSHIP_GETTYIMAGES-83547442_M.JPG 
*SOURCE FILE: ERN_1987-11-22_DESR W DEJR TERESA EARNHARDT RICHARD CHILDRESS WINSTON CUP CHAMPIONSHIP_GETTYIMAGES-83547442_M.JPG
000534  ERN_F0933_NSCR_1987_DESR_DRUNK_LAKE_INTV_NAS-00057_S001                                                                           A18   C        01:53:39:21 01:53:39:23 00:09:24:15 00:09:24:16 
M2      ERN_F0933_NSCR_1987_DESR_DRUNK_LAKE_INTV_NAS-00057_S001                                                                                    030.0 01:53:39:21 
*FROM CLIP NAME:  ERN_F0933_NSCR_1987_DESR DRUNK LAKE INTV_NAS-00057_S001.NEW.01 
*TO CLIP NAME:  ERN_F0933_NSCR_1987_DESR DRUNK LAKE INTV_NAS-00057_S001.NEW.01 
*SOURCE FILE: ERN_F0933_NSCR_1987_DESR DRUNK LAKE INTV_NAS-00057_S001
000535  ERN_F0933_NSCR_1987_DESR_DRUNK_LAKE_INTV_NAS-00057_S001                                                                           A18   C        01:53:39:22 01:53:41:23 00:09:24:16 00:09:26:16 
M2      ERN_F0933_NSCR_1987_DESR_DRUNK_LAKE_INTV_NAS-00057_S001                                                                                    030.0 01:53:39:22 
*FROM CLIP NAME:  ERN_F0933_NSCR_1987_DESR DRUNK LAKE INTV_NAS-00057_S001.NEW.01 
*SOURCE FILE: ERN_F0933_NSCR_1987_DESR DRUNK LAKE INTV_NAS-00057_S001
000536  ERN_F0515_NSCR_1990S_B-ROLL_BTS_INTV_YOUNG_DALE_EARNHARDT_JR_AT_TRACK_W_DALE_EARNHARDT_TERESA_EARNHARDT__14141_DALEJR_KID         A20   C        00:00:44:03 00:00:44:19 00:09:26:14 00:09:27:02 
M2      ERN_F0515_NSCR_1990S_B-ROLL_BTS_INTV_YOUNG_DALE_EARNHARDT_JR_AT_TRACK_W_DALE_EARNHARDT_TERESA_EARNHARDT__14141_DALEJR_KID                  030.0 00:00:44:03 
*FROM CLIP NAME:  ERN_F0515_NSCR_1990S_B-ROLL BTS INTV YOUNG DALE EARNHARDT JR AT TRACK W DALE EARNHARDT TERESA EARNHARDT _14141_DALEJR_KID.NEW.01 
*SOURCE FILE: ERN_F0515_NSCR_1990S_B-ROLL BTS INTV YOUNG DALE EARNHARDT JR AT TRACK W DALE EARNHARDT TERESA EARNHARDT _14141_DALEJR_KID
000537  ERN_F0515_NSCR_1990S_B-ROLL_BTS_INTV_YOUNG_DALE_EARNHARDT_JR_AT_TRACK_W_DALE_EARNHARDT_TERESA_EARNHARDT__14141_DALEJR_KID         V     C        00:00:44:26 00:00:47:05 00:09:26:21 00:09:29:04 
M2      ERN_F0515_NSCR_1990S_B-ROLL_BTS_INTV_YOUNG_DALE_EARNHARDT_JR_AT_TRACK_W_DALE_EARNHARDT_TERESA_EARNHARDT__14141_DALEJR_KID                  030.0 00:00:44:26 
*FROM CLIP NAME:  ERN_F0515_NSCR_1990S_B-ROLL BTS INTV YOUNG DALE EARNHARDT JR AT TRACK W DALE EARNHARDT TERESA EARNHARDT _14141_DALEJR_KID.NEW.01 
*SOURCE FILE: ERN_F0515_NSCR_1990S_B-ROLL BTS INTV YOUNG DALE EARNHARDT JR AT TRACK W DALE EARNHARDT TERESA EARNHARDT _14141_DALEJR_KID
000538  ERN_F0515_NSCR_1990S_B-ROLL_BTS_INTV_YOUNG_DALE_EARNHARDT_JR_AT_TRACK_W_DALE_EARNHARDT_TERESA_EARNHARDT__14141_DALEJR_KID         A20   C        00:00:44:18 00:00:46:25 00:09:27:02 00:09:29:07 
M2      ERN_F0515_NSCR_1990S_B-ROLL_BTS_INTV_YOUNG_DALE_EARNHARDT_JR_AT_TRACK_W_DALE_EARNHARDT_TERESA_EARNHARDT__14141_DALEJR_KID                  030.0 00:00:44:18 
*FROM CLIP NAME:  ERN_F0515_NSCR_1990S_B-ROLL BTS INTV YOUNG DALE EARNHARDT JR AT TRACK W DALE EARNHARDT TERESA EARNHARDT _14141_DALEJR_KID.NEW.01 
*SOURCE FILE: ERN_F0515_NSCR_1990S_B-ROLL BTS INTV YOUNG DALE EARNHARDT JR AT TRACK W DALE EARNHARDT TERESA EARNHARDT _14141_DALEJR_KID
000539  ERN_F0933_NSCR_1987_DESR_DRUNK_LAKE_INTV_NAS-00057_S001                                                                           A18   C        01:53:43:24 01:53:44:02 00:09:27:21 00:09:28:03 
M2      ERN_F0933_NSCR_1987_DESR_DRUNK_LAKE_INTV_NAS-00057_S001                                                                                    030.0 01:53:43:24 
*FROM CLIP NAME:  ERN_F0933_NSCR_1987_DESR DRUNK LAKE INTV_NAS-00057_S001.NEW.01 
*SOURCE FILE: ERN_F0933_NSCR_1987_DESR DRUNK LAKE INTV_NAS-00057_S001
000540  ERN_F0933_NSCR_1987_DESR_DRUNK_LAKE_INTV_NAS-00057_S001                                                                           A18   C        01:53:44:01 01:53:45:23 00:09:28:03 00:09:29:20 
M2      ERN_F0933_NSCR_1987_DESR_DRUNK_LAKE_INTV_NAS-00057_S001                                                                                    030.0 01:53:44:01 
*FROM CLIP NAME:  ERN_F0933_NSCR_1987_DESR DRUNK LAKE INTV_NAS-00057_S001.NEW.01 
*SOURCE FILE: ERN_F0933_NSCR_1987_DESR DRUNK LAKE INTV_NAS-00057_S001
000541  ERN_F0515_NSCR_1990S_B-ROLL_BTS_INTV_YOUNG_DALE_EARNHARDT_JR_AT_TRACK_W_DALE_EARNHARDT_TERESA_EARNHARDT__14141_DALEJR_KID         V     C        00:00:48:26 00:00:52:00 00:09:29:04 00:09:32:07 
M2      ERN_F0515_NSCR_1990S_B-ROLL_BTS_INTV_YOUNG_DALE_EARNHARDT_JR_AT_TRACK_W_DALE_EARNHARDT_TERESA_EARNHARDT__14141_DALEJR_KID                  030.0 00:00:48:26 
*FROM CLIP NAME:  ERN_F0515_NSCR_1990S_B-ROLL BTS INTV YOUNG DALE EARNHARDT JR AT TRACK W DALE EARNHARDT TERESA EARNHARDT _14141_DALEJR_KID.NEW.01 
*SOURCE FILE: ERN_F0515_NSCR_1990S_B-ROLL BTS INTV YOUNG DALE EARNHARDT JR AT TRACK W DALE EARNHARDT TERESA EARNHARDT _14141_DALEJR_KID
000542  ERN_F0515_NSCR_1990S_B-ROLL_BTS_INTV_YOUNG_DALE_EARNHARDT_JR_AT_TRACK_W_DALE_EARNHARDT_TERESA_EARNHARDT__14141_DALEJR_KID         A20   C        00:00:49:00 00:00:50:00 00:09:29:07 00:09:30:07 
M2      ERN_F0515_NSCR_1990S_B-ROLL_BTS_INTV_YOUNG_DALE_EARNHARDT_JR_AT_TRACK_W_DALE_EARNHARDT_TERESA_EARNHARDT__14141_DALEJR_KID                  030.0 00:00:49:00 
*FROM CLIP NAME:  ERN_F0515_NSCR_1990S_B-ROLL BTS INTV YOUNG DALE EARNHARDT JR AT TRACK W DALE EARNHARDT TERESA EARNHARDT _14141_DALEJR_KID.NEW.01 
*TO CLIP NAME:  ERN_F0515_NSCR_1990S_B-ROLL BTS INTV YOUNG DALE EARNHARDT JR AT TRACK W DALE EARNHARDT TERESA EARNHARDT _14141_DALEJR_KID.NEW.01 
*SOURCE FILE: ERN_F0515_NSCR_1990S_B-ROLL BTS INTV YOUNG DALE EARNHARDT JR AT TRACK W DALE EARNHARDT TERESA EARNHARDT _14141_DALEJR_KID
000543  ERN_F0933_NSCR_1987_DESR_DRUNK_LAKE_INTV_NAS-00057_S001                                                                           A24   C        01:53:47:11 01:53:47:14 00:09:29:10 00:09:29:12 
M2      ERN_F0933_NSCR_1987_DESR_DRUNK_LAKE_INTV_NAS-00057_S001                                                                                    030.0 01:53:47:11 
*FROM CLIP NAME:  ERN_F0933_NSCR_1987_DESR DRUNK LAKE INTV_NAS-00057_S001.NEW.01 
*SOURCE FILE: ERN_F0933_NSCR_1987_DESR DRUNK LAKE INTV_NAS-00057_S001
000544  ERN_F0933_NSCR_1987_DESR_DRUNK_LAKE_INTV_NAS-00057_S001                                                                           A24   C        01:53:47:14 01:53:48:22 00:09:29:12 00:09:30:18 
M2      ERN_F0933_NSCR_1987_DESR_DRUNK_LAKE_INTV_NAS-00057_S001                                                                                    030.0 01:53:47:14 
*FROM CLIP NAME:  ERN_F0933_NSCR_1987_DESR DRUNK LAKE INTV_NAS-00057_S001.NEW.01 
*SOURCE FILE: ERN_F0933_NSCR_1987_DESR DRUNK LAKE INTV_NAS-00057_S001
000545  ERN_F0515_NSCR_1990S_B-ROLL_BTS_INTV_YOUNG_DALE_EARNHARDT_JR_AT_TRACK_W_DALE_EARNHARDT_TERESA_EARNHARDT__14141_DALEJR_KID         A20   C        00:00:50:00 00:00:54:24 00:09:30:07 00:09:35:02 
M2      ERN_F0515_NSCR_1990S_B-ROLL_BTS_INTV_YOUNG_DALE_EARNHARDT_JR_AT_TRACK_W_DALE_EARNHARDT_TERESA_EARNHARDT__14141_DALEJR_KID                  030.0 00:00:50:00 
*FROM CLIP NAME:  ERN_F0515_NSCR_1990S_B-ROLL BTS INTV YOUNG DALE EARNHARDT JR AT TRACK W DALE EARNHARDT TERESA EARNHARDT _14141_DALEJR_KID.NEW.01 
*SOURCE FILE: ERN_F0515_NSCR_1990S_B-ROLL BTS INTV YOUNG DALE EARNHARDT JR AT TRACK W DALE EARNHARDT TERESA EARNHARDT _14141_DALEJR_KID
000546  ERN_F0933_NSCR_1987_DESR_DRUNK_LAKE_INTV_NAS-00057_S001                                                                           A24   C        01:53:49:12 01:53:49:18 00:09:30:18 00:09:30:22 
M2      ERN_F0933_NSCR_1987_DESR_DRUNK_LAKE_INTV_NAS-00057_S001                                                                                    030.0 01:53:49:12 
*FROM CLIP NAME:  ERN_F0933_NSCR_1987_DESR DRUNK LAKE INTV_NAS-00057_S001.NEW.01 
*TO CLIP NAME:  ERN_F0933_NSCR_1987_DESR DRUNK LAKE INTV_NAS-00057_S001.NEW.01 
*SOURCE FILE: ERN_F0933_NSCR_1987_DESR DRUNK LAKE INTV_NAS-00057_S001
000547  ERN_F0515_NSCR_1990S_B-ROLL_BTS_INTV_YOUNG_DALE_EARNHARDT_JR_AT_TRACK_W_DALE_EARNHARDT_TERESA_EARNHARDT__14141_DALEJR_KID         A18   C        00:01:46:20 00:01:47:00 00:09:32:00 00:09:32:08 
M2      ERN_F0515_NSCR_1990S_B-ROLL_BTS_INTV_YOUNG_DALE_EARNHARDT_JR_AT_TRACK_W_DALE_EARNHARDT_TERESA_EARNHARDT__14141_DALEJR_KID                  030.0 00:01:46:20 
*FROM CLIP NAME:  ERN_F0515_NSCR_1990S_B-ROLL BTS INTV YOUNG DALE EARNHARDT JR AT TRACK W DALE EARNHARDT TERESA EARNHARDT _14141_DALEJR_KID.NEW.01 
*SOURCE FILE: ERN_F0515_NSCR_1990S_B-ROLL BTS INTV YOUNG DALE EARNHARDT JR AT TRACK W DALE EARNHARDT TERESA EARNHARDT _14141_DALEJR_KID
000548  ERN_F0515_NSCR_1990S_B-ROLL_BTS_INTV_YOUNG_DALE_EARNHARDT_JR_AT_TRACK_W_DALE_EARNHARDT_TERESA_EARNHARDT__14141_DALEJR_KID         V     C        00:01:46:28 00:01:49:22 00:09:32:07 00:09:35:18 
M2      ERN_F0515_NSCR_1990S_B-ROLL_BTS_INTV_YOUNG_DALE_EARNHARDT_JR_AT_TRACK_W_DALE_EARNHARDT_TERESA_EARNHARDT__14141_DALEJR_KID                  024.0 00:01:46:28 
*FROM CLIP NAME:  ERN_F0515_NSCR_1990S_B-ROLL BTS INTV YOUNG DALE EARNHARDT JR AT TRACK W DALE EARNHARDT TERESA EARNHARDT _14141_DALEJR_KID.NEW.01 
*SOURCE FILE: ERN_F0515_NSCR_1990S_B-ROLL BTS INTV YOUNG DALE EARNHARDT JR AT TRACK W DALE EARNHARDT TERESA EARNHARDT _14141_DALEJR_KID
000549  ERN_F0515_NSCR_1990S_B-ROLL_BTS_INTV_YOUNG_DALE_EARNHARDT_JR_AT_TRACK_W_DALE_EARNHARDT_TERESA_EARNHARDT__14141_DALEJR_KID         A18   C        00:01:47:00 00:01:48:17 00:09:32:08 00:09:33:21 
M2      ERN_F0515_NSCR_1990S_B-ROLL_BTS_INTV_YOUNG_DALE_EARNHARDT_JR_AT_TRACK_W_DALE_EARNHARDT_TERESA_EARNHARDT__14141_DALEJR_KID                  030.0 00:01:47:00 
*FROM CLIP NAME:  ERN_F0515_NSCR_1990S_B-ROLL BTS INTV YOUNG DALE EARNHARDT JR AT TRACK W DALE EARNHARDT TERESA EARNHARDT _14141_DALEJR_KID.NEW.01 
*SOURCE FILE: ERN_F0515_NSCR_1990S_B-ROLL BTS INTV YOUNG DALE EARNHARDT JR AT TRACK W DALE EARNHARDT TERESA EARNHARDT _14141_DALEJR_KID
000550  AX                               V     C        00:00:00:00 00:00:00:02 00:09:35:18 00:09:35:20 
*TO CLIP NAME:  ERN_F0515_NSCR_1990S_B-ROLL BTS INTV YOUNG DALE EARNHARDT JR AT TRACK W DALE EARNHARDT TERESA EARNHARDT _14141_DALEJR_KID.NEW.01 
*SOURCE FILE: (NULL)
000551  ERN_S6535_XXXX_1970S_CHILDHOOD_PHOTO_KERRY_EARNHARDT_BASEBALL_ONLINE_TEMP.PNG                                                     V     C        01:00:00:00 01:00:06:01 00:09:49:00 00:09:55:01 
*FROM CLIP NAME:  ERN_S6535_XXXX_1970S_CHILDHOOD PHOTO KERRY EARNHARDT BASEBALL_ONLINE_TEMP.PNG 
*SOURCE FILE: ERN_S6535_XXXX_1970S_CHILDHOOD PHOTO KERRY EARNHARDT BASEBALL_ONLINE_TEMP.PNG
000552  ERN_F9135_DANN_1995_NON_RACING_DANNY_SR_HOME_VIDEOS_W_BASEBALL_B-ROLL_7920                                                        V     C        00:07:46:15 00:07:50:09 00:09:55:01 00:09:58:20 
M2      ERN_F9135_DANN_1995_NON_RACING_DANNY_SR_HOME_VIDEOS_W_BASEBALL_B-ROLL_7920                                                                 030.0 00:07:46:15 
*FROM CLIP NAME:  ERN_F9135_DANN_1995_NON RACING DANNY SR HOME VIDEOS W BASEBALL B-ROLL_7920.NEW.01 
*SOURCE FILE: ERN_F9135_DANN_1995_NON RACING DANNY SR HOME VIDEOS W BASEBALL B-ROLL_7920
000553  ERN_F9135_DANN_1995_NON_RACING_DANNY_SR_HOME_VIDEOS_W_BASEBALL_B-ROLL_7920                                                        A18   C        00:07:51:12 00:07:52:28 00:09:55:08 00:09:56:20 
M2      ERN_F9135_DANN_1995_NON_RACING_DANNY_SR_HOME_VIDEOS_W_BASEBALL_B-ROLL_7920                                                                 030.0 00:07:51:12 
*FROM CLIP NAME:  ERN_F9135_DANN_1995_NON RACING DANNY SR HOME VIDEOS W BASEBALL B-ROLL_7920.NEW.01 
*SOURCE FILE: ERN_F9135_DANN_1995_NON RACING DANNY SR HOME VIDEOS W BASEBALL B-ROLL_7920
000554  ERN_F9135_DANN_1995_NON_RACING_DANNY_SR_HOME_VIDEOS_W_BASEBALL_B-ROLL_7920                                                        A18   C        00:07:52:27 00:07:53:12 00:09:56:20 00:09:57:07 
M2      ERN_F9135_DANN_1995_NON_RACING_DANNY_SR_HOME_VIDEOS_W_BASEBALL_B-ROLL_7920                                                                 030.0 00:07:52:27 
*FROM CLIP NAME:  ERN_F9135_DANN_1995_NON RACING DANNY SR HOME VIDEOS W BASEBALL B-ROLL_7920.NEW.01 
*SOURCE FILE: ERN_F9135_DANN_1995_NON RACING DANNY SR HOME VIDEOS W BASEBALL B-ROLL_7920
000555  ERN_F9135_DANN_1995_NON_RACING_DANNY_SR_HOME_VIDEOS_W_BASEBALL_B-ROLL_7920                                                        A18   C        00:07:53:11 00:07:54:27 00:09:57:07 00:09:58:19 
M2      ERN_F9135_DANN_1995_NON_RACING_DANNY_SR_HOME_VIDEOS_W_BASEBALL_B-ROLL_7920                                                                 030.0 00:07:53:11 
*FROM CLIP NAME:  ERN_F9135_DANN_1995_NON RACING DANNY SR HOME VIDEOS W BASEBALL B-ROLL_7920.NEW.01 
*TO CLIP NAME:  ERN_F9135_DANN_1995_NON RACING DANNY SR HOME VIDEOS W BASEBALL B-ROLL_7920.NEW.01 
*SOURCE FILE: ERN_F9135_DANN_1995_NON RACING DANNY SR HOME VIDEOS W BASEBALL B-ROLL_7920
000556  ERN_F9135_DANN_1995_NON_RACING_DANNY_SR_HOME_VIDEOS_W_BASEBALL_B-ROLL_7920                                                        A18   C        00:07:54:26 00:07:56:29 00:09:58:19 00:10:00:21 
M2      ERN_F9135_DANN_1995_NON_RACING_DANNY_SR_HOME_VIDEOS_W_BASEBALL_B-ROLL_7920                                                                 030.0 00:07:54:26 
*FROM CLIP NAME:  ERN_F9135_DANN_1995_NON RACING DANNY SR HOME VIDEOS W BASEBALL B-ROLL_7920.NEW.01 
*SOURCE FILE: ERN_F9135_DANN_1995_NON RACING DANNY SR HOME VIDEOS W BASEBALL B-ROLL_7920
000557  ERN_F9135_DANN_1995_NON_RACING_DANNY_SR_HOME_VIDEOS_W_BASEBALL_B-ROLL_7920                                                        V     C        00:07:53:10 00:07:56:15 00:09:58:20 00:10:02:00 
M2      ERN_F9135_DANN_1995_NON_RACING_DANNY_SR_HOME_VIDEOS_W_BASEBALL_B-ROLL_7920                                                                 030.0 00:07:53:10 
*FROM CLIP NAME:  ERN_F9135_DANN_1995_NON RACING DANNY SR HOME VIDEOS W BASEBALL B-ROLL_7920.NEW.01 
*SOURCE FILE: ERN_F9135_DANN_1995_NON RACING DANNY SR HOME VIDEOS W BASEBALL B-ROLL_7920
000558  ERN_F9135_DANN_1995_NON_RACING_DANNY_SR_HOME_VIDEOS_W_BASEBALL_B-ROLL_7920                                                        V     C        00:09:02:13 00:09:05:08 00:10:02:00 00:10:04:19 
M2      ERN_F9135_DANN_1995_NON_RACING_DANNY_SR_HOME_VIDEOS_W_BASEBALL_B-ROLL_7920                                                                 030.0 00:09:02:13 
*FROM CLIP NAME:  ERN_F9135_DANN_1995_NON RACING DANNY SR HOME VIDEOS W BASEBALL B-ROLL_7920.NEW.01 
*SOURCE FILE: ERN_F9135_DANN_1995_NON RACING DANNY SR HOME VIDEOS W BASEBALL B-ROLL_7920
000559  ERN_F9135_DANN_1995_NON_RACING_DANNY_SR_HOME_VIDEOS_W_BASEBALL_B-ROLL_7920                                                        V     C        00:08:07:05 00:08:11:29 00:10:04:19 00:10:09:14 
M2      ERN_F9135_DANN_1995_NON_RACING_DANNY_SR_HOME_VIDEOS_W_BASEBALL_B-ROLL_7920                                                                 030.0 00:08:07:05 
*FROM CLIP NAME:  ERN_F9135_DANN_1995_NON RACING DANNY SR HOME VIDEOS W BASEBALL B-ROLL_7920.NEW.01 
*SOURCE FILE: ERN_F9135_DANN_1995_NON RACING DANNY SR HOME VIDEOS W BASEBALL B-ROLL_7920
000560  ERN_S1260_DEJR_195_JENNIFER_MARTHA_ASHLYN_AT_BILTMORE_1982_0004.JPG                                                               V     C        01:00:00:17 01:00:05:00 00:10:14:07 00:10:18:14 
*FROM CLIP NAME:  ERN_S1260_DEJR_195_JENNIFER MARTHA ASHLYN AT BILTMORE 1982_0004.JPG 
*SOURCE FILE: ERN_S1260_DEJR_195_JENNIFER MARTHA ASHLYN AT BILTMORE 1982_0004.JPG
000561  ERN_S5856_FAIR_1950S_YEARBOOK_FULL_PAGE_LATANE_BROWN_ANCESTRY.JPG                                                                 V     C        01:00:02:01 01:00:09:21 00:10:18:14 00:10:26:10 
*FROM CLIP NAME:  ERN_S5856_FAIR_1950S_YEARBOOK FULL PAGE LATANE BROWN_ANCESTRY.JPG 
*SOURCE FILE: ERN_S5856_FAIR_1950S_YEARBOOK FULL PAGE LATANE BROWN_ANCESTRY.JPG
000562  ERN_S2589_DEJR_1970S_KERRY_EARNHARDT_BABY_PHOTO_FAMILY6.JPG                                                                       V     C        01:00:15:13 01:00:19:23 00:10:30:09 00:10:34:19 
*FROM CLIP NAME:  ERN_S2589_DEJR_1970S_KERRY EARNHARDT BABY PHOTO_FAMILY6.JPG 
*SOURCE FILE: ERN_S2589_DEJR_1970S_KERRY EARNHARDT BABY PHOTO_FAMILY6.JPG
000563  ERN_S0867_DEJR_1972_DESR_BIRTHDAY_PARTY_19720001.JPG                                                                              V     C        01:00:00:00 01:00:05:03 00:10:34:19 00:10:39:22 
*FROM CLIP NAME:  ERN_S0867_DEJR_1972_DESR BIRTHDAY PARTY_19720001.JPG.COPY.01 
*SOURCE FILE: ERN_S0867_DEJR_1972_DESR BIRTHDAY PARTY_19720001.JPG
000564  ERN_S8226_DEJR_1970S_RACE_DESR_POSES_W_NO8_CAR_OUTSIDE_OF_GARAGE_01.JPG                                                           V     C        01:00:00:00 01:00:07:02 00:10:39:22 00:10:47:00 
*FROM CLIP NAME:  ERN_S8226_DEJR_1970S_RACE DESR POSES W NO8 CAR OUTSIDE OF GARAGE_01.JPG 
*SOURCE FILE: ERN_S8226_DEJR_1970S_RACE DESR POSES W NO8 CAR OUTSIDE OF GARAGE_01.JPG
000565  ERN_S5852_KERR_1970S_FAMILY_PORTRAIT_KERRY_EARNHARDT_LATANE_JACK_ONLINE_TEMP.PNG                                                  V     C        01:00:12:22 01:00:26:04 00:10:50:05 00:11:03:11 
*FROM CLIP NAME:  ERN_S5852_KERR_1970S_FAMILY PORTRAIT KERRY EARNHARDT LATANE JACK_ONLINE TEMP.PNG 
*SOURCE FILE: ERN_S5852_KERR_1970S_FAMILY PORTRAIT KERRY EARNHARDT LATANE JACK_ONLINE TEMP.PNG
000566  ERN_S2085_CHPL_1970S_YOUNG_DESR_LEANS_ON_CAR_03.JPEG                                                                              V     C        01:00:00:00 01:00:05:13 00:11:03:11 00:11:09:00 
*FROM CLIP NAME:  ERN_S2085_CHPL_1970S_YOUNG DESR LEANS ON CAR_03.JPEG.COPY.01 
*SOURCE FILE: ERN_S2085_CHPL_1970S_YOUNG DESR LEANS ON CAR_03.JPEG
000567  ERN_F1037_NSCR_1992-09-02_B-ROLL_EARNHARDT_FAMILY_HOME_&_RALPH_EARNHARDT_GARAGE_&_KANNAPOLIS_40_KANNAPOLIS                        V     C        00:14:30:00 00:14:30:02 00:11:21:23 00:11:34:21 
M2      ERN_F1037_NSCR_1992-09-02_B-ROLL_EARNHARDT_FAMILY_HOME_&_RALPH_EARNHARDT_GARAGE_&_KANNAPOLIS_40_KANNAPOLIS                                -024.0 00:14:30:00 
*FROM CLIP NAME:  ERN_F1037_NSCR_1992-09-02_B-ROLL EARNHARDT FAMILY HOME & RALPH EARNHARDT GARAGE & KANNAPOLIS_40_KANNAPOLIS.NEW.01 
*SOURCE FILE: ERN_F1037_NSCR_1992-09-02_B-ROLL EARNHARDT FAMILY HOME & RALPH EARNHARDT GARAGE & KANNAPOLIS_40_KANNAPOLIS
000568  ERN_S4624_XXXX_1982_DESR_W_CREW_MEMBERS_IN_GARAGE_8283DESHOP369.JPG                                                               V     C        01:00:00:00 01:00:05:13 00:11:37:06 00:11:42:19 
*FROM CLIP NAME:  ERN_S4624_XXXX_1982_DESR W CREW MEMBERS IN GARAGE_8283DESHOP369.JPG 
*SOURCE FILE: ERN_S4624_XXXX_1982_DESR W CREW MEMBERS IN GARAGE_8283DESHOP369.JPG
000569  ERN_S0893_DEJR_1970S_DESR_CANDID_0007.JPG                                                                                         V     C        01:00:00:00 01:00:05:15 00:11:42:19 00:11:48:10 
*FROM CLIP NAME:  ERN_S0893_DEJR_1970S_DESR CANDID_0007.JPG.COPY.01 
*SOURCE FILE: ERN_S0893_DEJR_1970S_DESR CANDID_0007.JPG
000570  ERN_F0260_NSCR_1990-04-04_5_OF_13_CAM_A_BTS_DALE_EARNHARDT_DRIVING_HUNTING_TRIP_SE005912_S006                                     V     C        01:07:52:20 01:07:55:22 00:11:50:05 00:11:53:06 
M2      ERN_F0260_NSCR_1990-04-04_5_OF_13_CAM_A_BTS_DALE_EARNHARDT_DRIVING_HUNTING_TRIP_SE005912_S006                                              030.0 01:07:52:20 
*FROM CLIP NAME:  ERN_F0260_NSCR_1990-04-04_5 OF 13 CAM A BTS DALE EARNHARDT DRIVING HUNTING TRIP_SE005912_S006.NEW.01 
*SOURCE FILE: ERN_F0260_NSCR_1990-04-04_5 OF 13 CAM A BTS DALE EARNHARDT DRIVING HUNTING TRIP_SE005912_S006
000571  ERN_F0271_NSCR_1990-04-04_3_OF_6_CAM_B_2_BTS_B-ROLL_DALE_EARNHARDT_PRIVATE_JET_&_DRIVING_ON_HUNTING_TRIP_SE005913_S004            V     C        00:02:24:18 00:02:29:01 00:11:57:19 00:12:03:07 
M2      ERN_F0271_NSCR_1990-04-04_3_OF_6_CAM_B_2_BTS_B-ROLL_DALE_EARNHARDT_PRIVATE_JET_&_DRIVING_ON_HUNTING_TRIP_SE005913_S004                     024.0 00:02:24:18 
*FROM CLIP NAME:  ERN_F0271_NSCR_1990-04-04_3 OF 6 CAM B 2 BTS B-ROLL DALE EARNHARDT PRIVATE JET & DRIVING ON HUNTING TRIP_SE005913_S004.NEW.01 
*SOURCE FILE: ERN_F0271_NSCR_1990-04-04_3 OF 6 CAM B 2 BTS B-ROLL DALE EARNHARDT PRIVATE JET & DRIVING ON HUNTING TRIP_SE005913_S004
000572  ERN_F0944_NSCR_1988-05-29_B-ROLL_DESR_GAMBLER_BOATS_W_DAVEY_ALLISON_&_TERESA_EARNHARDT__SE003093                                  A20   C        00:13:43:15 00:13:45:16 00:12:05:12 00:12:07:12 
M2      ERN_F0944_NSCR_1988-05-29_B-ROLL_DESR_GAMBLER_BOATS_W_DAVEY_ALLISON_&_TERESA_EARNHARDT__SE003093                                           030.0 00:13:43:15 
*FROM CLIP NAME:  ERN_F0944_NSCR_1988-05-29_B-ROLL DESR GAMBLER BOATS W DAVEY ALLISON & TERESA EARNHARDT _SE003093.NEW.01 
*SOURCE FILE: ERN_F0944_NSCR_1988-05-29_B-ROLL DESR GAMBLER BOATS W DAVEY ALLISON & TERESA EARNHARDT _SE003093
000573  ERN_F0944_NSCR_1988-05-29_B-ROLL_DESR_GAMBLER_BOATS_W_DAVEY_ALLISON_&_TERESA_EARNHARDT__SE003093                                  A20   C        00:13:45:15 00:13:48:01 00:12:07:12 00:12:10:00 
M2      ERN_F0944_NSCR_1988-05-29_B-ROLL_DESR_GAMBLER_BOATS_W_DAVEY_ALLISON_&_TERESA_EARNHARDT__SE003093                                           030.0 00:13:45:15 
*FROM CLIP NAME:  ERN_F0944_NSCR_1988-05-29_B-ROLL DESR GAMBLER BOATS W DAVEY ALLISON & TERESA EARNHARDT _SE003093.NEW.01 
*SOURCE FILE: ERN_F0944_NSCR_1988-05-29_B-ROLL DESR GAMBLER BOATS W DAVEY ALLISON & TERESA EARNHARDT _SE003093
000574  ERN_F9144_DANN_1988_NON_RACING_DANNY_SR_HOME_VIDEOS_THANKSGIVING_W_FAMILY_B-ROLL_7932                                             A18   C        01:31:57:17 01:31:58:18 00:12:10:17 00:12:11:17 
M2      ERN_F9144_DANN_1988_NON_RACING_DANNY_SR_HOME_VIDEOS_THANKSGIVING_W_FAMILY_B-ROLL_7932                                                      030.0 01:31:57:17 
*FROM CLIP NAME:  ERN_F9144_DANN_1988_NON RACING DANNY SR HOME VIDEOS THANKSGIVING W FAMILY B-ROLL_7932.NEW.01 
*SOURCE FILE: ERN_F9144_DANN_1988_NON RACING DANNY SR HOME VIDEOS THANKSGIVING W FAMILY B-ROLL_7932
000575  ERN_F9144_DANN_1988_NON_RACING_DANNY_SR_HOME_VIDEOS_THANKSGIVING_W_FAMILY_B-ROLL_7932                                             V     C        01:31:52:23 01:31:58:15 00:12:11:06 00:12:16:23 
M2      ERN_F9144_DANN_1988_NON_RACING_DANNY_SR_HOME_VIDEOS_THANKSGIVING_W_FAMILY_B-ROLL_7932                                                      030.0 01:31:52:23 
*FROM CLIP NAME:  ERN_F9144_DANN_1988_NON RACING DANNY SR HOME VIDEOS THANKSGIVING W FAMILY B-ROLL_7932.NEW.01 
*SOURCE FILE: ERN_F9144_DANN_1988_NON RACING DANNY SR HOME VIDEOS THANKSGIVING W FAMILY B-ROLL_7932
000576  ERN_F9144_DANN_1988_NON_RACING_DANNY_SR_HOME_VIDEOS_THANKSGIVING_W_FAMILY_B-ROLL_7932                                             A18   C        01:31:58:17 01:31:59:29 00:12:11:17 00:12:13:02 
M2      ERN_F9144_DANN_1988_NON_RACING_DANNY_SR_HOME_VIDEOS_THANKSGIVING_W_FAMILY_B-ROLL_7932                                                      030.0 01:31:58:17 
*FROM CLIP NAME:  ERN_F9144_DANN_1988_NON RACING DANNY SR HOME VIDEOS THANKSGIVING W FAMILY B-ROLL_7932.NEW.01 
*SOURCE FILE: ERN_F9144_DANN_1988_NON RACING DANNY SR HOME VIDEOS THANKSGIVING W FAMILY B-ROLL_7932
000577  ERN_F9144_DANN_1988_NON_RACING_DANNY_SR_HOME_VIDEOS_THANKSGIVING_W_FAMILY_B-ROLL_7932                                             A18   C        01:31:59:28 01:32:01:14 00:12:13:02 00:12:14:14 
M2      ERN_F9144_DANN_1988_NON_RACING_DANNY_SR_HOME_VIDEOS_THANKSGIVING_W_FAMILY_B-ROLL_7932                                                      030.0 01:31:59:28 
*FROM CLIP NAME:  ERN_F9144_DANN_1988_NON RACING DANNY SR HOME VIDEOS THANKSGIVING W FAMILY B-ROLL_7932.NEW.01 
*TO CLIP NAME:  ERN_F9144_DANN_1988_NON RACING DANNY SR HOME VIDEOS THANKSGIVING W FAMILY B-ROLL_7932.NEW.01 
*SOURCE FILE: ERN_F9144_DANN_1988_NON RACING DANNY SR HOME VIDEOS THANKSGIVING W FAMILY B-ROLL_7932
000578  ERN_F9144_DANN_1988_NON_RACING_DANNY_SR_HOME_VIDEOS_THANKSGIVING_W_FAMILY_B-ROLL_7932                                             A18   C        01:32:01:13 01:32:03:19 00:12:14:14 00:12:16:18 
M2      ERN_F9144_DANN_1988_NON_RACING_DANNY_SR_HOME_VIDEOS_THANKSGIVING_W_FAMILY_B-ROLL_7932                                                      030.0 01:32:01:13 
*FROM CLIP NAME:  ERN_F9144_DANN_1988_NON RACING DANNY SR HOME VIDEOS THANKSGIVING W FAMILY B-ROLL_7932.NEW.01 
*SOURCE FILE: ERN_F9144_DANN_1988_NON RACING DANNY SR HOME VIDEOS THANKSGIVING W FAMILY B-ROLL_7932
000579  ERN_F9144_DANN_1988_NON_RACING_DANNY_SR_HOME_VIDEOS_THANKSGIVING_W_FAMILY_B-ROLL_7932                                             A20   C        01:32:03:18 01:32:04:19 00:12:16:13 00:12:17:13 
M2      ERN_F9144_DANN_1988_NON_RACING_DANNY_SR_HOME_VIDEOS_THANKSGIVING_W_FAMILY_B-ROLL_7932                                                      030.0 01:32:03:18 
*FROM CLIP NAME:  ERN_F9144_DANN_1988_NON RACING DANNY SR HOME VIDEOS THANKSGIVING W FAMILY B-ROLL_7932.NEW.01 
*SOURCE FILE: ERN_F9144_DANN_1988_NON RACING DANNY SR HOME VIDEOS THANKSGIVING W FAMILY B-ROLL_7932
000580  ERN_F9144_DANN_1988_NON_RACING_DANNY_SR_HOME_VIDEOS_THANKSGIVING_W_FAMILY_B-ROLL_7932                                             V     C        01:31:58:17 01:32:01:13 00:12:16:23 00:12:19:19 
M2      ERN_F9144_DANN_1988_NON_RACING_DANNY_SR_HOME_VIDEOS_THANKSGIVING_W_FAMILY_B-ROLL_7932                                                      030.0 01:31:58:17 
*FROM CLIP NAME:  ERN_F9144_DANN_1988_NON RACING DANNY SR HOME VIDEOS THANKSGIVING W FAMILY B-ROLL_7932.NEW.01 
*SOURCE FILE: ERN_F9144_DANN_1988_NON RACING DANNY SR HOME VIDEOS THANKSGIVING W FAMILY B-ROLL_7932
000581  ERN_F9144_DANN_1988_NON_RACING_DANNY_SR_HOME_VIDEOS_THANKSGIVING_W_FAMILY_B-ROLL_7932                                             A20   C        01:32:04:18 01:32:06:04 00:12:17:13 00:12:19:01 
M2      ERN_F9144_DANN_1988_NON_RACING_DANNY_SR_HOME_VIDEOS_THANKSGIVING_W_FAMILY_B-ROLL_7932                                                      030.0 01:32:04:18 
*FROM CLIP NAME:  ERN_F9144_DANN_1988_NON RACING DANNY SR HOME VIDEOS THANKSGIVING W FAMILY B-ROLL_7932.NEW.01 
*SOURCE FILE: ERN_F9144_DANN_1988_NON RACING DANNY SR HOME VIDEOS THANKSGIVING W FAMILY B-ROLL_7932
000582  ERN_F9144_DANN_1988_NON_RACING_DANNY_SR_HOME_VIDEOS_THANKSGIVING_W_FAMILY_B-ROLL_7932                                             A18   C        01:29:52:17 01:29:53:18 00:12:27:15 00:12:28:15 
M2      ERN_F9144_DANN_1988_NON_RACING_DANNY_SR_HOME_VIDEOS_THANKSGIVING_W_FAMILY_B-ROLL_7932                                                      030.0 01:29:52:17 
*FROM CLIP NAME:  ERN_F9144_DANN_1988_NON RACING DANNY SR HOME VIDEOS THANKSGIVING W FAMILY B-ROLL_7932.NEW.01 
*SOURCE FILE: ERN_F9144_DANN_1988_NON RACING DANNY SR HOME VIDEOS THANKSGIVING W FAMILY B-ROLL_7932
000583  ERN_F9144_DANN_1988_NON_RACING_DANNY_SR_HOME_VIDEOS_THANKSGIVING_W_FAMILY_B-ROLL_7932                                             V     C        01:29:52:24 01:29:58:15 00:12:28:03 00:12:35:05 
M2      ERN_F9144_DANN_1988_NON_RACING_DANNY_SR_HOME_VIDEOS_THANKSGIVING_W_FAMILY_B-ROLL_7932                                                      024.0 01:29:52:24 
*FROM CLIP NAME:  ERN_F9144_DANN_1988_NON RACING DANNY SR HOME VIDEOS THANKSGIVING W FAMILY B-ROLL_7932.NEW.01 
*SOURCE FILE: ERN_F9144_DANN_1988_NON RACING DANNY SR HOME VIDEOS THANKSGIVING W FAMILY B-ROLL_7932
000584  ERN_F9144_DANN_1988_NON_RACING_DANNY_SR_HOME_VIDEOS_THANKSGIVING_W_FAMILY_B-ROLL_7932                                             A18   C        01:29:53:17 01:29:59:03 00:12:28:15 00:12:34:03 
M2      ERN_F9144_DANN_1988_NON_RACING_DANNY_SR_HOME_VIDEOS_THANKSGIVING_W_FAMILY_B-ROLL_7932                                                      030.0 01:29:53:17 
*FROM CLIP NAME:  ERN_F9144_DANN_1988_NON RACING DANNY SR HOME VIDEOS THANKSGIVING W FAMILY B-ROLL_7932.NEW.01 
*SOURCE FILE: ERN_F9144_DANN_1988_NON RACING DANNY SR HOME VIDEOS THANKSGIVING W FAMILY B-ROLL_7932
000585  ERN_S4628_XXXX_1986_TERESA_EARNHARDT_W_KERRY_EARNHARDT_&_KELLEY_EARNHARDT_DEJR_&_DESR_8611THANKSGIVING462.JPG                     V     C        01:00:00:18 01:00:06:13 00:12:39:05 00:12:45:00 
*FROM CLIP NAME:  ERN_S4628_XXXX_1986_TERESA EARNHARDT W KERRY EARNHARDT & KELLEY EARNHARDT DEJR & DESR_8611THANKSGIVING462.JPG 
*SOURCE FILE: ERN_S4628_XXXX_1986_TERESA EARNHARDT W KERRY EARNHARDT & KELLEY EARNHARDT DEJR & DESR_8611THANKSGIVING462.JPG
000586  ERN_F3677_NSCR_1986-04-13_DARLINGTON-TRANSOUTH_500_RACE_B-ROL_INT_CAR_POV_DESR_NO3_WRANGLER_FLYBYS__86-EV-0048                    A18   C        00:04:58:04 00:04:59:20 00:12:43:17 00:12:45:05 
M2      ERN_F3677_NSCR_1986-04-13_DARLINGTON-TRANSOUTH_500_RACE_B-ROL_INT_CAR_POV_DESR_NO3_WRANGLER_FLYBYS__86-EV-0048                             030.0 00:04:58:04 
*FROM CLIP NAME:  ERN_F3677_NSCR_1986-04-13_DARLINGTON-TRANSOUTH 500 RACE B-ROL INT CAR POV DESR NO3 WRANGLER FLYBYS _86-EV-0048.NEW.01 
*SOURCE FILE: ERN_F3677_NSCR_1986-04-13_DARLINGTON-TRANSOUTH 500 RACE B-ROL INT CAR POV DESR NO3 WRANGLER FLYBYS _86-EV-0048
000587  ERN_F3677_NSCR_1986-04-13_DARLINGTON-TRANSOUTH_500_RACE_B-ROL_INT_CAR_POV_DESR_NO3_WRANGLER_FLYBYS__86-EV-0048                    V     C        00:04:56:28 00:05:03:12 00:12:45:00 00:12:51:09 
M2      ERN_F3677_NSCR_1986-04-13_DARLINGTON-TRANSOUTH_500_RACE_B-ROL_INT_CAR_POV_DESR_NO3_WRANGLER_FLYBYS__86-EV-0048                             030.0 00:04:56:28 
*FROM CLIP NAME:  ERN_F3677_NSCR_1986-04-13_DARLINGTON-TRANSOUTH 500 RACE B-ROL INT CAR POV DESR NO3 WRANGLER FLYBYS _86-EV-0048.NEW.01 
*SOURCE FILE: ERN_F3677_NSCR_1986-04-13_DARLINGTON-TRANSOUTH 500 RACE B-ROL INT CAR POV DESR NO3 WRANGLER FLYBYS _86-EV-0048
000588  ERN_F3677_NSCR_1986-04-13_DARLINGTON-TRANSOUTH_500_RACE_B-ROL_INT_CAR_POV_DESR_NO3_WRANGLER_FLYBYS__86-EV-0048                    A18   C        00:04:59:19 00:05:01:22 00:12:45:05 00:12:47:05 
M2      ERN_F3677_NSCR_1986-04-13_DARLINGTON-TRANSOUTH_500_RACE_B-ROL_INT_CAR_POV_DESR_NO3_WRANGLER_FLYBYS__86-EV-0048                             030.0 00:04:59:19 
*FROM CLIP NAME:  ERN_F3677_NSCR_1986-04-13_DARLINGTON-TRANSOUTH 500 RACE B-ROL INT CAR POV DESR NO3 WRANGLER FLYBYS _86-EV-0048.NEW.01 
*TO CLIP NAME:  ERN_F3677_NSCR_1986-04-13_DARLINGTON-TRANSOUTH 500 RACE B-ROL INT CAR POV DESR NO3 WRANGLER FLYBYS _86-EV-0048.NEW.01 
*SOURCE FILE: ERN_F3677_NSCR_1986-04-13_DARLINGTON-TRANSOUTH 500 RACE B-ROL INT CAR POV DESR NO3 WRANGLER FLYBYS _86-EV-0048
000589  ERN_F3677_NSCR_1986-04-13_DARLINGTON-TRANSOUTH_500_RACE_B-ROL_INT_CAR_POV_DESR_NO3_WRANGLER_FLYBYS__86-EV-0048                    A18   C        00:05:01:21 00:05:05:04 00:12:47:05 00:12:50:15 
M2      ERN_F3677_NSCR_1986-04-13_DARLINGTON-TRANSOUTH_500_RACE_B-ROL_INT_CAR_POV_DESR_NO3_WRANGLER_FLYBYS__86-EV-0048                             030.0 00:05:01:21 
*FROM CLIP NAME:  ERN_F3677_NSCR_1986-04-13_DARLINGTON-TRANSOUTH 500 RACE B-ROL INT CAR POV DESR NO3 WRANGLER FLYBYS _86-EV-0048.NEW.01 
*SOURCE FILE: ERN_F3677_NSCR_1986-04-13_DARLINGTON-TRANSOUTH 500 RACE B-ROL INT CAR POV DESR NO3 WRANGLER FLYBYS _86-EV-0048
000590  ERN_F1491_NSCR_2005-02-07_INTV_KERRY_EARNHARDT_NASCAR_NATION_05-NN-0018                                                           A20   C        00:03:33:27 00:03:34:00 00:12:48:04 00:12:48:06 
M2      ERN_F1491_NSCR_2005-02-07_INTV_KERRY_EARNHARDT_NASCAR_NATION_05-NN-0018                                                                    030.0 00:03:33:27 
*FROM CLIP NAME:  ERN_F1491_NSCR_2005-02-07_INTV KERRY EARNHARDT NASCAR NATION_05-NN-0018.NEW.01 
*SOURCE FILE: ERN_F1491_NSCR_2005-02-07_INTV KERRY EARNHARDT NASCAR NATION_05-NN-0018
000591  ERN_F1491_NSCR_2005-02-07_INTV_KERRY_EARNHARDT_NASCAR_NATION_05-NN-0018                                                           A20   C        00:03:33:29 00:03:34:26 00:12:48:06 00:12:49:03 
M2      ERN_F1491_NSCR_2005-02-07_INTV_KERRY_EARNHARDT_NASCAR_NATION_05-NN-0018                                                                    030.0 00:03:33:29 
*FROM CLIP NAME:  ERN_F1491_NSCR_2005-02-07_INTV KERRY EARNHARDT NASCAR NATION_05-NN-0018.NEW.01 
*SOURCE FILE: ERN_F1491_NSCR_2005-02-07_INTV KERRY EARNHARDT NASCAR NATION_05-NN-0018
000592  ERN_F1491_NSCR_2005-02-07_INTV_KERRY_EARNHARDT_NASCAR_NATION_05-NN-0018                                                           A20   C        00:03:35:16 00:03:35:19 00:12:49:03 00:12:49:05 
M2      ERN_F1491_NSCR_2005-02-07_INTV_KERRY_EARNHARDT_NASCAR_NATION_05-NN-0018                                                                    030.0 00:03:35:16 
*FROM CLIP NAME:  ERN_F1491_NSCR_2005-02-07_INTV KERRY EARNHARDT NASCAR NATION_05-NN-0018.NEW.01 
*TO CLIP NAME:  ERN_F1491_NSCR_2005-02-07_INTV KERRY EARNHARDT NASCAR NATION_05-NN-0018.NEW.01 
*SOURCE FILE: ERN_F1491_NSCR_2005-02-07_INTV KERRY EARNHARDT NASCAR NATION_05-NN-0018
000593  ERN_F1491_NSCR_2005-02-07_INTV_KERRY_EARNHARDT_NASCAR_NATION_05-NN-0018                                                           A20   C        00:03:35:18 00:03:36:06 00:12:49:05 00:12:49:19 
M2      ERN_F1491_NSCR_2005-02-07_INTV_KERRY_EARNHARDT_NASCAR_NATION_05-NN-0018                                                                    030.0 00:03:35:18 
*FROM CLIP NAME:  ERN_F1491_NSCR_2005-02-07_INTV KERRY EARNHARDT NASCAR NATION_05-NN-0018.NEW.01 
*SOURCE FILE: ERN_F1491_NSCR_2005-02-07_INTV KERRY EARNHARDT NASCAR NATION_05-NN-0018
000594  ERN_F1491_NSCR_2005-02-07_INTV_KERRY_EARNHARDT_NASCAR_NATION_05-NN-0018                                                           A20   C        00:02:43:15 00:02:43:18 00:12:49:23 00:12:50:01 
M2      ERN_F1491_NSCR_2005-02-07_INTV_KERRY_EARNHARDT_NASCAR_NATION_05-NN-0018                                                                    030.0 00:02:43:15 
*FROM CLIP NAME:  ERN_F1491_NSCR_2005-02-07_INTV KERRY EARNHARDT NASCAR NATION_05-NN-0018.NEW.01 
*SOURCE FILE: ERN_F1491_NSCR_2005-02-07_INTV KERRY EARNHARDT NASCAR NATION_05-NN-0018
000595  ERN_F1491_NSCR_2005-02-07_INTV_KERRY_EARNHARDT_NASCAR_NATION_05-NN-0018                                                           A20   C        00:02:43:17 00:02:45:18 00:12:50:01 00:12:52:01 
M2      ERN_F1491_NSCR_2005-02-07_INTV_KERRY_EARNHARDT_NASCAR_NATION_05-NN-0018                                                                    030.0 00:02:43:17 
*FROM CLIP NAME:  ERN_F1491_NSCR_2005-02-07_INTV KERRY EARNHARDT NASCAR NATION_05-NN-0018.NEW.01 
*SOURCE FILE: ERN_F1491_NSCR_2005-02-07_INTV KERRY EARNHARDT NASCAR NATION_05-NN-0018
000596  ERN_F3804_NSCR_1986-04-13_DARLINGTON-TRANSOUTH_500_DESR_NO3_WRANGLER_PIT_STOP_PIT_ROAD_B-ROLL_SE003337                            A26   C        00:03:37:16 00:03:39:01 00:12:50:04 00:12:51:16 
M2      ERN_F3804_NSCR_1986-04-13_DARLINGTON-TRANSOUTH_500_DESR_NO3_WRANGLER_PIT_STOP_PIT_ROAD_B-ROLL_SE003337                                     030.0 00:03:37:16 
*FROM CLIP NAME:  ERN_F3804_NSCR_1986-04-13_DARLINGTON-TRANSOUTH 500 DESR NO3 WRANGLER PIT STOP PIT ROAD B-ROLL_SE003337.NEW.01 
*SOURCE FILE: ERN_F3804_NSCR_1986-04-13_DARLINGTON-TRANSOUTH 500 DESR NO3 WRANGLER PIT STOP PIT ROAD B-ROLL_SE003337
000597  ERN_F3669_NSCR_1986-04-13_DARLINGTON-TRANSOUTH_500_RACE_B-ROLL_FLYBYS_DESR_NO3_WRANGLER_PIT_STOP_86-EV-0052                       A22   C        00:02:32:10 00:02:33:11 00:12:50:21 00:12:51:21 
M2      ERN_F3669_NSCR_1986-04-13_DARLINGTON-TRANSOUTH_500_RACE_B-ROLL_FLYBYS_DESR_NO3_WRANGLER_PIT_STOP_86-EV-0052                                030.0 00:02:32:10 
*FROM CLIP NAME:  ERN_F3669_NSCR_1986-04-13_DARLINGTON-TRANSOUTH 500 RACE B-ROLL FLYBYS DESR NO3 WRANGLER PIT STOP_86-EV-0052.NEW.01 
*SOURCE FILE: ERN_F3669_NSCR_1986-04-13_DARLINGTON-TRANSOUTH 500 RACE B-ROLL FLYBYS DESR NO3 WRANGLER PIT STOP_86-EV-0052
000598  ERN_F3804_NSCR_1986-04-13_DARLINGTON-TRANSOUTH_500_DESR_NO3_WRANGLER_PIT_STOP_PIT_ROAD_B-ROLL_SE003337                            V     C        00:03:39:07 00:03:43:16 00:12:51:09 00:12:55:16 
M2      ERN_F3804_NSCR_1986-04-13_DARLINGTON-TRANSOUTH_500_DESR_NO3_WRANGLER_PIT_STOP_PIT_ROAD_B-ROLL_SE003337                                     030.0 00:03:39:07 
*FROM CLIP NAME:  ERN_F3804_NSCR_1986-04-13_DARLINGTON-TRANSOUTH 500 DESR NO3 WRANGLER PIT STOP PIT ROAD B-ROLL_SE003337.NEW.01 
*SOURCE FILE: ERN_F3804_NSCR_1986-04-13_DARLINGTON-TRANSOUTH 500 DESR NO3 WRANGLER PIT STOP PIT ROAD B-ROLL_SE003337
000599  ERN_F3804_NSCR_1986-04-13_DARLINGTON-TRANSOUTH_500_DESR_NO3_WRANGLER_PIT_STOP_PIT_ROAD_B-ROLL_SE003337                            A26   C        00:03:39:01 00:03:41:26 00:12:51:16 00:12:54:12 
M2      ERN_F3804_NSCR_1986-04-13_DARLINGTON-TRANSOUTH_500_DESR_NO3_WRANGLER_PIT_STOP_PIT_ROAD_B-ROLL_SE003337                                     030.0 00:03:39:01 
*FROM CLIP NAME:  ERN_F3804_NSCR_1986-04-13_DARLINGTON-TRANSOUTH 500 DESR NO3 WRANGLER PIT STOP PIT ROAD B-ROLL_SE003337.NEW.01 
*SOURCE FILE: ERN_F3804_NSCR_1986-04-13_DARLINGTON-TRANSOUTH 500 DESR NO3 WRANGLER PIT STOP PIT ROAD B-ROLL_SE003337
000600  ERN_F3669_NSCR_1986-04-13_DARLINGTON-TRANSOUTH_500_RACE_B-ROLL_FLYBYS_DESR_NO3_WRANGLER_PIT_STOP_86-EV-0052                       A22   C        00:02:33:10 00:02:35:13 00:12:51:21 00:12:53:23 
M2      ERN_F3669_NSCR_1986-04-13_DARLINGTON-TRANSOUTH_500_RACE_B-ROLL_FLYBYS_DESR_NO3_WRANGLER_PIT_STOP_86-EV-0052                                030.0 00:02:33:10 
*FROM CLIP NAME:  ERN_F3669_NSCR_1986-04-13_DARLINGTON-TRANSOUTH 500 RACE B-ROLL FLYBYS DESR NO3 WRANGLER PIT STOP_86-EV-0052.NEW.01 
*SOURCE FILE: ERN_F3669_NSCR_1986-04-13_DARLINGTON-TRANSOUTH 500 RACE B-ROLL FLYBYS DESR NO3 WRANGLER PIT STOP_86-EV-0052
000601  ERN_F3804_NSCR_1986-04-13_DARLINGTON-TRANSOUTH_500_DESR_NO3_WRANGLER_PIT_STOP_PIT_ROAD_B-ROLL_SE003337                            A18   C        00:03:45:06 00:03:46:21 00:12:54:16 00:12:56:04 
M2      ERN_F3804_NSCR_1986-04-13_DARLINGTON-TRANSOUTH_500_DESR_NO3_WRANGLER_PIT_STOP_PIT_ROAD_B-ROLL_SE003337                                     030.0 00:03:45:06 
*FROM CLIP NAME:  ERN_F3804_NSCR_1986-04-13_DARLINGTON-TRANSOUTH 500 DESR NO3 WRANGLER PIT STOP PIT ROAD B-ROLL_SE003337.NEW.01 
*SOURCE FILE: ERN_F3804_NSCR_1986-04-13_DARLINGTON-TRANSOUTH 500 DESR NO3 WRANGLER PIT STOP PIT ROAD B-ROLL_SE003337
000602  ERN_F3277_NSCR_1987_COMP_RCR_3_TEAM_CHILDRESS_MEYERS_SHELMERDINE_EARNHARDT298328                                                  A20   C        01:03:03:23 01:03:07:23 00:12:54:16 00:12:58:15 
M2      ERN_F3277_NSCR_1987_COMP_RCR_3_TEAM_CHILDRESS_MEYERS_SHELMERDINE_EARNHARDT298328                                                           030.0 01:03:03:23 
*FROM CLIP NAME:  ERN_F3277_NSCR_1987_COMP RCR 3 TEAM CHILDRESS MEYERS SHELMERDINE_EARNHARDT298328.NEW.01 
*SOURCE FILE: ERN_F3277_NSCR_1987_COMP RCR 3 TEAM CHILDRESS MEYERS SHELMERDINE_EARNHARDT298328
000603  ERN_F3279_NSCR_1987_COMP_DESR_INTVS_&_B-ROLL_EARNHARDT298328                                                                      A24   C        01:04:56:22 01:05:00:22 00:12:54:16 00:12:58:15 
M2      ERN_F3279_NSCR_1987_COMP_DESR_INTVS_&_B-ROLL_EARNHARDT298328                                                                               030.0 01:04:56:22 
*FROM CLIP NAME:  ERN_F3279_NSCR_1987_COMP DESR INTVS & B-ROLL_EARNHARDT298328.NEW.01 
*SOURCE FILE: ERN_F3279_NSCR_1987_COMP DESR INTVS & B-ROLL_EARNHARDT298328
000604  ERN_F3279_NSCR_1987_COMP_DESR_INTVS_&_B-ROLL_EARNHARDT298328                                                                      A22   C        01:05:06:08 01:05:07:18 00:12:55:11 00:12:56:18 
M2      ERN_F3279_NSCR_1987_COMP_DESR_INTVS_&_B-ROLL_EARNHARDT298328                                                                               030.0 01:05:06:08 
*FROM CLIP NAME:  ERN_F3279_NSCR_1987_COMP DESR INTVS & B-ROLL_EARNHARDT298328.NEW.01 
*SOURCE FILE: ERN_F3279_NSCR_1987_COMP DESR INTVS & B-ROLL_EARNHARDT298328
000605  ERN_F3279_NSCR_1987_COMP_DESR_INTVS_&_B-ROLL_EARNHARDT298328                                                                      V     C        01:05:06:12 01:05:18:23 00:12:55:16 00:13:09:12 
M2      ERN_F3279_NSCR_1987_COMP_DESR_INTVS_&_B-ROLL_EARNHARDT298328                                                                               026.8 01:05:06:12 
*FROM CLIP NAME:  ERN_F3279_NSCR_1987_COMP DESR INTVS & B-ROLL_EARNHARDT298328.NEW.01 
*SOURCE FILE: ERN_F3279_NSCR_1987_COMP DESR INTVS & B-ROLL_EARNHARDT298328
000606  ERN_F3804_NSCR_1986-04-13_DARLINGTON-TRANSOUTH_500_DESR_NO3_WRANGLER_PIT_STOP_PIT_ROAD_B-ROLL_SE003337                            A18   C        00:03:46:21 00:03:49:09 00:12:56:04 00:12:58:18 
M2      ERN_F3804_NSCR_1986-04-13_DARLINGTON-TRANSOUTH_500_DESR_NO3_WRANGLER_PIT_STOP_PIT_ROAD_B-ROLL_SE003337                                     030.0 00:03:46:21 
*FROM CLIP NAME:  ERN_F3804_NSCR_1986-04-13_DARLINGTON-TRANSOUTH 500 DESR NO3 WRANGLER PIT STOP PIT ROAD B-ROLL_SE003337.NEW.01 
*SOURCE FILE: ERN_F3804_NSCR_1986-04-13_DARLINGTON-TRANSOUTH 500 DESR NO3 WRANGLER PIT STOP PIT ROAD B-ROLL_SE003337
000607  ERN_F3279_NSCR_1987_COMP_DESR_INTVS_&_B-ROLL_EARNHARDT298328                                                                      A22   C        01:05:07:17 01:05:15:13 00:12:56:18 00:13:04:14 
M2      ERN_F3279_NSCR_1987_COMP_DESR_INTVS_&_B-ROLL_EARNHARDT298328                                                                               030.0 01:05:07:17 
*FROM CLIP NAME:  ERN_F3279_NSCR_1987_COMP DESR INTVS & B-ROLL_EARNHARDT298328.NEW.01 
*SOURCE FILE: ERN_F3279_NSCR_1987_COMP DESR INTVS & B-ROLL_EARNHARDT298328
000608  ERN_F3279_NSCR_1987_COMP_DESR_INTVS_&_B-ROLL_EARNHARDT298328                                                                      A24   C        01:05:00:21 01:05:02:25 00:12:58:15 00:13:00:18 
M2      ERN_F3279_NSCR_1987_COMP_DESR_INTVS_&_B-ROLL_EARNHARDT298328                                                                               030.0 01:05:00:21 
*FROM CLIP NAME:  ERN_F3279_NSCR_1987_COMP DESR INTVS & B-ROLL_EARNHARDT298328.NEW.01 
*SOURCE FILE: ERN_F3279_NSCR_1987_COMP DESR INTVS & B-ROLL_EARNHARDT298328
000609  ERN_F3277_NSCR_1987_COMP_RCR_3_TEAM_CHILDRESS_MEYERS_SHELMERDINE_EARNHARDT298328                                                  A20   C        01:03:07:22 01:03:09:28 00:12:58:15 00:13:00:19 
M2      ERN_F3277_NSCR_1987_COMP_RCR_3_TEAM_CHILDRESS_MEYERS_SHELMERDINE_EARNHARDT298328                                                           030.0 01:03:07:22 
*FROM CLIP NAME:  ERN_F3277_NSCR_1987_COMP RCR 3 TEAM CHILDRESS MEYERS SHELMERDINE_EARNHARDT298328.NEW.01 
*SOURCE FILE: ERN_F3277_NSCR_1987_COMP RCR 3 TEAM CHILDRESS MEYERS SHELMERDINE_EARNHARDT298328
000610  ERN_F1491_NSCR_2005-02-07_INTV_KERRY_EARNHARDT_NASCAR_NATION_05-NN-0018                                                           A18   C        00:03:07:06 00:03:07:09 00:13:02:07 00:13:02:09 
M2      ERN_F1491_NSCR_2005-02-07_INTV_KERRY_EARNHARDT_NASCAR_NATION_05-NN-0018                                                                    030.0 00:03:07:06 
*FROM CLIP NAME:  ERN_F1491_NSCR_2005-02-07_INTV KERRY EARNHARDT NASCAR NATION_05-NN-0018.NEW.01 
*SOURCE FILE: ERN_F1491_NSCR_2005-02-07_INTV KERRY EARNHARDT NASCAR NATION_05-NN-0018
000611  ERN_F1491_NSCR_2005-02-07_INTV_KERRY_EARNHARDT_NASCAR_NATION_05-NN-0018                                                           A18   C        00:03:07:08 00:03:07:20 00:13:02:09 00:13:02:18 
M2      ERN_F1491_NSCR_2005-02-07_INTV_KERRY_EARNHARDT_NASCAR_NATION_05-NN-0018                                                                    030.0 00:03:07:08 
*FROM CLIP NAME:  ERN_F1491_NSCR_2005-02-07_INTV KERRY EARNHARDT NASCAR NATION_05-NN-0018.NEW.01 
*SOURCE FILE: ERN_F1491_NSCR_2005-02-07_INTV KERRY EARNHARDT NASCAR NATION_05-NN-0018
000612  ERN_F1491_NSCR_2005-02-07_INTV_KERRY_EARNHARDT_NASCAR_NATION_05-NN-0018                                                           A18   C        00:03:08:14 00:03:08:18 00:13:02:18 00:13:02:20 
M2      ERN_F1491_NSCR_2005-02-07_INTV_KERRY_EARNHARDT_NASCAR_NATION_05-NN-0018                                                                    030.0 00:03:08:14 
*FROM CLIP NAME:  ERN_F1491_NSCR_2005-02-07_INTV KERRY EARNHARDT NASCAR NATION_05-NN-0018.NEW.01 
*TO CLIP NAME:  ERN_F1491_NSCR_2005-02-07_INTV KERRY EARNHARDT NASCAR NATION_05-NN-0018.NEW.01 
*SOURCE FILE: ERN_F1491_NSCR_2005-02-07_INTV KERRY EARNHARDT NASCAR NATION_05-NN-0018
000613  ERN_F1491_NSCR_2005-02-07_INTV_KERRY_EARNHARDT_NASCAR_NATION_05-NN-0018                                                           A18   C        00:03:08:17 00:03:08:23 00:13:02:20 00:13:03:00 
M2      ERN_F1491_NSCR_2005-02-07_INTV_KERRY_EARNHARDT_NASCAR_NATION_05-NN-0018                                                                    030.0 00:03:08:17 
*FROM CLIP NAME:  ERN_F1491_NSCR_2005-02-07_INTV KERRY EARNHARDT NASCAR NATION_05-NN-0018.NEW.01 
*SOURCE FILE: ERN_F1491_NSCR_2005-02-07_INTV KERRY EARNHARDT NASCAR NATION_05-NN-0018
000614  ERN_F1491_NSCR_2005-02-07_INTV_KERRY_EARNHARDT_NASCAR_NATION_05-NN-0018                                                           A18   C        00:03:23:03 00:03:26:00 00:13:03:00 00:13:05:21 
M2      ERN_F1491_NSCR_2005-02-07_INTV_KERRY_EARNHARDT_NASCAR_NATION_05-NN-0018                                                                    030.0 00:03:23:03 
*FROM CLIP NAME:  ERN_F1491_NSCR_2005-02-07_INTV KERRY EARNHARDT NASCAR NATION_05-NN-0018.NEW.01 
*SOURCE FILE: ERN_F1491_NSCR_2005-02-07_INTV KERRY EARNHARDT NASCAR NATION_05-NN-0018
000615  ERN_F3279_NSCR_1987_COMP_DESR_INTVS_&_B-ROLL_EARNHARDT298328                                                                      A22   C        01:05:02:12 01:05:05:13 00:13:04:14 00:13:07:14 
M2      ERN_F3279_NSCR_1987_COMP_DESR_INTVS_&_B-ROLL_EARNHARDT298328                                                                               030.0 01:05:02:12 
*FROM CLIP NAME:  ERN_F3279_NSCR_1987_COMP DESR INTVS & B-ROLL_EARNHARDT298328.NEW.01 
*TO CLIP NAME:  ERN_F3279_NSCR_1987_COMP DESR INTVS & B-ROLL_EARNHARDT298328.NEW.01 
*SOURCE FILE: ERN_F3279_NSCR_1987_COMP DESR INTVS & B-ROLL_EARNHARDT298328
000616  ERN_F1491_NSCR_2005-02-07_INTV_KERRY_EARNHARDT_NASCAR_NATION_05-NN-0018                                                           A18   C        00:03:26:12 00:03:27:11 00:13:05:21 00:13:06:20 
M2      ERN_F1491_NSCR_2005-02-07_INTV_KERRY_EARNHARDT_NASCAR_NATION_05-NN-0018                                                                    030.0 00:03:26:12 
*FROM CLIP NAME:  ERN_F1491_NSCR_2005-02-07_INTV KERRY EARNHARDT NASCAR NATION_05-NN-0018.NEW.01 
*SOURCE FILE: ERN_F1491_NSCR_2005-02-07_INTV KERRY EARNHARDT NASCAR NATION_05-NN-0018
000617  ERN_F1491_NSCR_2005-02-07_INTV_KERRY_EARNHARDT_NASCAR_NATION_05-NN-0018                                                           A18   C        00:03:27:18 00:03:30:01 00:13:06:20 00:13:09:06 
M2      ERN_F1491_NSCR_2005-02-07_INTV_KERRY_EARNHARDT_NASCAR_NATION_05-NN-0018                                                                    030.0 00:03:27:18 
*FROM CLIP NAME:  ERN_F1491_NSCR_2005-02-07_INTV KERRY EARNHARDT NASCAR NATION_05-NN-0018.NEW.01 
*SOURCE FILE: ERN_F1491_NSCR_2005-02-07_INTV KERRY EARNHARDT NASCAR NATION_05-NN-0018
000618  ERN_F3279_NSCR_1987_COMP_DESR_INTVS_&_B-ROLL_EARNHARDT298328                                                                      A22   C        01:05:05:12 01:05:05:28 00:13:07:14 00:13:08:02 
M2      ERN_F3279_NSCR_1987_COMP_DESR_INTVS_&_B-ROLL_EARNHARDT298328                                                                               030.0 01:05:05:12 
*FROM CLIP NAME:  ERN_F3279_NSCR_1987_COMP DESR INTVS & B-ROLL_EARNHARDT298328.NEW.01 
*SOURCE FILE: ERN_F3279_NSCR_1987_COMP DESR INTVS & B-ROLL_EARNHARDT298328
000619  ERN_F4085_NSCR_1987-03-28_RACE_B-ROLL_DARLINGTON_COUNTRY_SQUIRE_200_DESR_WINS_W_VICTORY_LANE_87-EV-0069                           A20   C        00:09:59:21 00:10:00:12 00:13:09:06 00:13:09:22 
M2      ERN_F4085_NSCR_1987-03-28_RACE_B-ROLL_DARLINGTON_COUNTRY_SQUIRE_200_DESR_WINS_W_VICTORY_LANE_87-EV-0069                                    030.0 00:09:59:21 
*FROM CLIP NAME:  ERN_F4085_NSCR_1987-03-28_RACE B-ROLL DARLINGTON COUNTRY SQUIRE 200 DESR WINS W VICTORY LANE_87-EV-0069.NEW.01 
*SOURCE FILE: ERN_F4085_NSCR_1987-03-28_RACE B-ROLL DARLINGTON COUNTRY SQUIRE 200 DESR WINS W VICTORY LANE_87-EV-0069
000620  ERN_F3279_NSCR_1987_COMP_DESR_INTVS_&_B-ROLL_EARNHARDT298328                                                                      V     C        00:22:46:20 00:22:48:02 00:13:09:12 00:13:10:21 
M2      ERN_F3279_NSCR_1987_COMP_DESR_INTVS_&_B-ROLL_EARNHARDT298328                                                                               030.0 00:22:46:20 
*FROM CLIP NAME:  ERN_F3279_NSCR_1987_COMP DESR INTVS & B-ROLL_EARNHARDT298328.NEW.01 
*SOURCE FILE: ERN_F3279_NSCR_1987_COMP DESR INTVS & B-ROLL_EARNHARDT298328
000621  ERN_F4085_NSCR_1987-03-28_RACE_B-ROLL_DARLINGTON_COUNTRY_SQUIRE_200_DESR_WINS_W_VICTORY_LANE_87-EV-0069                           A20   C        00:10:00:11 00:10:02:10 00:13:09:22 00:13:11:20 
M2      ERN_F4085_NSCR_1987-03-28_RACE_B-ROLL_DARLINGTON_COUNTRY_SQUIRE_200_DESR_WINS_W_VICTORY_LANE_87-EV-0069                                    030.0 00:10:00:11 
*FROM CLIP NAME:  ERN_F4085_NSCR_1987-03-28_RACE B-ROLL DARLINGTON COUNTRY SQUIRE 200 DESR WINS W VICTORY LANE_87-EV-0069.NEW.01 
*SOURCE FILE: ERN_F4085_NSCR_1987-03-28_RACE B-ROLL DARLINGTON COUNTRY SQUIRE 200 DESR WINS W VICTORY LANE_87-EV-0069
000622  ERN_F3279_NSCR_1987_COMP_DESR_INTVS_&_B-ROLL_EARNHARDT298328                                                                      V     C        00:22:54:11 00:22:55:23 00:13:10:21 00:13:12:06 
M2      ERN_F3279_NSCR_1987_COMP_DESR_INTVS_&_B-ROLL_EARNHARDT298328                                                                               030.0 00:22:54:11 
*FROM CLIP NAME:  ERN_F3279_NSCR_1987_COMP DESR INTVS & B-ROLL_EARNHARDT298328.NEW.01 
*SOURCE FILE: ERN_F3279_NSCR_1987_COMP DESR INTVS & B-ROLL_EARNHARDT298328
000623  ERN_F3279_NSCR_1987_COMP_DESR_INTVS_&_B-ROLL_EARNHARDT298328                                                                      A18   C        00:12:12:08 00:12:14:09 00:13:11:01 00:13:13:01 
M2      ERN_F3279_NSCR_1987_COMP_DESR_INTVS_&_B-ROLL_EARNHARDT298328                                                                               030.0 00:12:12:08 
*FROM CLIP NAME:  ERN_F3279_NSCR_1987_COMP DESR INTVS & B-ROLL_EARNHARDT298328.NEW.01 
*SOURCE FILE: ERN_F3279_NSCR_1987_COMP DESR INTVS & B-ROLL_EARNHARDT298328
000624  ERN_F9640_NSCR_1987-03-08_RACE_B-ROLL_INTV_RICHMOND_MILLER_400_W_DESR_VICTORY_LANE_&_FLY-BYS_87-EV-0046                           V     C        00:07:24:18 00:07:28:26 00:13:12:06 00:13:16:12 
M2      ERN_F9640_NSCR_1987-03-08_RACE_B-ROLL_INTV_RICHMOND_MILLER_400_W_DESR_VICTORY_LANE_&_FLY-BYS_87-EV-0046                                    030.0 00:07:24:18 
*FROM CLIP NAME:  ERN_F9640_NSCR_1987-03-08_RACE B-ROLL INTV RICHMOND MILLER 400 W DESR VICTORY LANE & FLY-BYS_87-EV-0046.NEW.01 
*SOURCE FILE: ERN_F9640_NSCR_1987-03-08_RACE B-ROLL INTV RICHMOND MILLER 400 W DESR VICTORY LANE & FLY-BYS_87-EV-0046
000625  ERN_F3279_NSCR_1987_COMP_DESR_INTVS_&_B-ROLL_EARNHARDT298328                                                                      A18   C        00:12:14:08 00:12:20:20 00:13:13:01 00:13:19:10 
M2      ERN_F3279_NSCR_1987_COMP_DESR_INTVS_&_B-ROLL_EARNHARDT298328                                                                               030.0 00:12:14:08 
*FROM CLIP NAME:  ERN_F3279_NSCR_1987_COMP DESR INTVS & B-ROLL_EARNHARDT298328.NEW.01 
*SOURCE FILE: ERN_F3279_NSCR_1987_COMP DESR INTVS & B-ROLL_EARNHARDT298328
000626  ERN_F3279_NSCR_1987_COMP_DESR_INTVS_&_B-ROLL_EARNHARDT298328                                                                      A20   C        00:13:12:18 00:13:13:29 00:13:15:07 00:13:16:15 
M2      ERN_F3279_NSCR_1987_COMP_DESR_INTVS_&_B-ROLL_EARNHARDT298328                                                                               030.0 00:13:12:18 
*FROM CLIP NAME:  ERN_F3279_NSCR_1987_COMP DESR INTVS & B-ROLL_EARNHARDT298328.NEW.01 
*SOURCE FILE: ERN_F3279_NSCR_1987_COMP DESR INTVS & B-ROLL_EARNHARDT298328
000627  ERN_F9640_NSCR_1987-03-08_RACE_B-ROLL_INTV_RICHMOND_MILLER_400_W_DESR_VICTORY_LANE_&_FLY-BYS_87-EV-0046                           V     C        00:06:41:16 00:06:45:19 00:13:16:12 00:13:20:14 
M2      ERN_F9640_NSCR_1987-03-08_RACE_B-ROLL_INTV_RICHMOND_MILLER_400_W_DESR_VICTORY_LANE_&_FLY-BYS_87-EV-0046                                    030.0 00:06:41:16 
*FROM CLIP NAME:  ERN_F9640_NSCR_1987-03-08_RACE B-ROLL INTV RICHMOND MILLER 400 W DESR VICTORY LANE & FLY-BYS_87-EV-0046.NEW.01 
*SOURCE FILE: ERN_F9640_NSCR_1987-03-08_RACE B-ROLL INTV RICHMOND MILLER 400 W DESR VICTORY LANE & FLY-BYS_87-EV-0046
000628  ERN_F3279_NSCR_1987_COMP_DESR_INTVS_&_B-ROLL_EARNHARDT298328                                                                      A20   C        00:13:13:28 00:13:14:29 00:13:16:15 00:13:17:15 
M2      ERN_F3279_NSCR_1987_COMP_DESR_INTVS_&_B-ROLL_EARNHARDT298328                                                                               030.0 00:13:13:28 
*FROM CLIP NAME:  ERN_F3279_NSCR_1987_COMP DESR INTVS & B-ROLL_EARNHARDT298328.NEW.01 
*SOURCE FILE: ERN_F3279_NSCR_1987_COMP DESR INTVS & B-ROLL_EARNHARDT298328
000629  ERN_F3279_NSCR_1987_COMP_DESR_INTVS_&_B-ROLL_EARNHARDT298328                                                                      A20   C        00:13:14:28 00:13:16:29 00:13:17:15 00:13:19:15 
M2      ERN_F3279_NSCR_1987_COMP_DESR_INTVS_&_B-ROLL_EARNHARDT298328                                                                               030.0 00:13:14:28 
*FROM CLIP NAME:  ERN_F3279_NSCR_1987_COMP DESR INTVS & B-ROLL_EARNHARDT298328.NEW.01 
*TO CLIP NAME:  ERN_F3279_NSCR_1987_COMP DESR INTVS & B-ROLL_EARNHARDT298328.NEW.01 
*SOURCE FILE: ERN_F3279_NSCR_1987_COMP DESR INTVS & B-ROLL_EARNHARDT298328
000630  ERN_F3279_NSCR_1987_COMP_DESR_INTVS_&_B-ROLL_EARNHARDT298328                                                                      A18   C        01:56:47:08 01:56:48:24 00:13:19:10 00:13:20:22 
M2      ERN_F3279_NSCR_1987_COMP_DESR_INTVS_&_B-ROLL_EARNHARDT298328                                                                               030.0 01:56:47:08 
*FROM CLIP NAME:  ERN_F3279_NSCR_1987_COMP DESR INTVS & B-ROLL_EARNHARDT298328.NEW.01 
*TO CLIP NAME:  ERN_F3279_NSCR_1987_COMP DESR INTVS & B-ROLL_EARNHARDT298328.NEW.01 
*SOURCE FILE: ERN_F3279_NSCR_1987_COMP DESR INTVS & B-ROLL_EARNHARDT298328
000631  ERN_F3279_NSCR_1987_COMP_DESR_INTVS_&_B-ROLL_EARNHARDT298328                                                                      A20   C        00:13:16:28 00:13:21:09 00:13:19:15 00:13:23:23 
M2      ERN_F3279_NSCR_1987_COMP_DESR_INTVS_&_B-ROLL_EARNHARDT298328                                                                               030.0 00:13:16:28 
*FROM CLIP NAME:  ERN_F3279_NSCR_1987_COMP DESR INTVS & B-ROLL_EARNHARDT298328.NEW.01 
*SOURCE FILE: ERN_F3279_NSCR_1987_COMP DESR INTVS & B-ROLL_EARNHARDT298328
000632  ERN_F9640_NSCR_1987-03-08_RACE_B-ROLL_INTV_RICHMOND_MILLER_400_W_DESR_VICTORY_LANE_&_FLY-BYS_87-EV-0046                           V     C        00:07:45:17 00:07:47:19 00:13:20:14 00:13:22:15 
M2      ERN_F9640_NSCR_1987-03-08_RACE_B-ROLL_INTV_RICHMOND_MILLER_400_W_DESR_VICTORY_LANE_&_FLY-BYS_87-EV-0046                                    030.0 00:07:45:17 
*FROM CLIP NAME:  ERN_F9640_NSCR_1987-03-08_RACE B-ROLL INTV RICHMOND MILLER 400 W DESR VICTORY LANE & FLY-BYS_87-EV-0046.NEW.01 
*SOURCE FILE: ERN_F9640_NSCR_1987-03-08_RACE B-ROLL INTV RICHMOND MILLER 400 W DESR VICTORY LANE & FLY-BYS_87-EV-0046
000633  ERN_F3279_NSCR_1987_COMP_DESR_INTVS_&_B-ROLL_EARNHARDT298328                                                                      A18   C        01:56:48:23 01:56:49:19 00:13:20:22 00:13:21:18 
M2      ERN_F3279_NSCR_1987_COMP_DESR_INTVS_&_B-ROLL_EARNHARDT298328                                                                               030.0 01:56:48:23 
*FROM CLIP NAME:  ERN_F3279_NSCR_1987_COMP DESR INTVS & B-ROLL_EARNHARDT298328.NEW.01 
*SOURCE FILE: ERN_F3279_NSCR_1987_COMP DESR INTVS & B-ROLL_EARNHARDT298328
000634  ERN_F3279_NSCR_1987_COMP_DESR_INTVS_&_B-ROLL_EARNHARDT298328                                                                      A18   C        01:56:49:18 01:56:51:15 00:13:21:18 00:13:23:15 
M2      ERN_F3279_NSCR_1987_COMP_DESR_INTVS_&_B-ROLL_EARNHARDT298328                                                                               030.0 01:56:49:18 
*FROM CLIP NAME:  ERN_F3279_NSCR_1987_COMP DESR INTVS & B-ROLL_EARNHARDT298328.NEW.01 
*TO CLIP NAME:  ERN_F3279_NSCR_1987_COMP DESR INTVS & B-ROLL_EARNHARDT298328.NEW.01 
*SOURCE FILE: ERN_F3279_NSCR_1987_COMP DESR INTVS & B-ROLL_EARNHARDT298328
000635  ERN_F3279_NSCR_1987_COMP_DESR_INTVS_&_B-ROLL_EARNHARDT298328                                                                      V     C        01:56:48:28 01:56:53:09 00:13:22:15 00:13:26:23 
M2      ERN_F3279_NSCR_1987_COMP_DESR_INTVS_&_B-ROLL_EARNHARDT298328                                                                               030.0 01:56:48:28 
*FROM CLIP NAME:  ERN_F3279_NSCR_1987_COMP DESR INTVS & B-ROLL_EARNHARDT298328.NEW.01 
*SOURCE FILE: ERN_F3279_NSCR_1987_COMP DESR INTVS & B-ROLL_EARNHARDT298328
000636  ERN_F3279_NSCR_1987_COMP_DESR_INTVS_&_B-ROLL_EARNHARDT298328                                                                      A18   C        01:56:51:15 01:56:58:04 00:13:23:15 00:13:30:06 
M2      ERN_F3279_NSCR_1987_COMP_DESR_INTVS_&_B-ROLL_EARNHARDT298328                                                                               030.0 01:56:51:15 
*FROM CLIP NAME:  ERN_F3279_NSCR_1987_COMP DESR INTVS & B-ROLL_EARNHARDT298328.NEW.01 
*SOURCE FILE: ERN_F3279_NSCR_1987_COMP DESR INTVS & B-ROLL_EARNHARDT298328
000637  ERN_F3279_NSCR_1987_COMP_DESR_INTVS_&_B-ROLL_EARNHARDT298328                                                                      A22   C        00:14:26:06 00:14:28:07 00:13:24:15 00:13:26:15 
M2      ERN_F3279_NSCR_1987_COMP_DESR_INTVS_&_B-ROLL_EARNHARDT298328                                                                               030.0 00:14:26:06 
*FROM CLIP NAME:  ERN_F3279_NSCR_1987_COMP DESR INTVS & B-ROLL_EARNHARDT298328.NEW.01 
*SOURCE FILE: ERN_F3279_NSCR_1987_COMP DESR INTVS & B-ROLL_EARNHARDT298328
000638  ERN_F3279_NSCR_1987_COMP_DESR_INTVS_&_B-ROLL_EARNHARDT298328                                                                      A24   C        00:09:03:12 00:09:04:13 00:13:25:14 00:13:26:14 
M2      ERN_F3279_NSCR_1987_COMP_DESR_INTVS_&_B-ROLL_EARNHARDT298328                                                                               030.0 00:09:03:12 
*FROM CLIP NAME:  ERN_F3279_NSCR_1987_COMP DESR INTVS & B-ROLL_EARNHARDT298328.NEW.01 
*SOURCE FILE: ERN_F3279_NSCR_1987_COMP DESR INTVS & B-ROLL_EARNHARDT298328
000639  ERN_F3279_NSCR_1987_COMP_DESR_INTVS_&_B-ROLL_EARNHARDT298328                                                                      A24   C        00:09:04:12 00:09:08:19 00:13:26:14 00:13:30:19 
M2      ERN_F3279_NSCR_1987_COMP_DESR_INTVS_&_B-ROLL_EARNHARDT298328                                                                               030.0 00:09:04:12 
*FROM CLIP NAME:  ERN_F3279_NSCR_1987_COMP DESR INTVS & B-ROLL_EARNHARDT298328.NEW.01 
*SOURCE FILE: ERN_F3279_NSCR_1987_COMP DESR INTVS & B-ROLL_EARNHARDT298328
000640  ERN_F3279_NSCR_1987_COMP_DESR_INTVS_&_B-ROLL_EARNHARDT298328                                                                      A22   C        00:14:28:06 00:14:29:03 00:13:26:15 00:13:27:12 
M2      ERN_F3279_NSCR_1987_COMP_DESR_INTVS_&_B-ROLL_EARNHARDT298328                                                                               030.0 00:14:28:06 
*FROM CLIP NAME:  ERN_F3279_NSCR_1987_COMP DESR INTVS & B-ROLL_EARNHARDT298328.NEW.01 
*SOURCE FILE: ERN_F3279_NSCR_1987_COMP DESR INTVS & B-ROLL_EARNHARDT298328
000641  ERN_F9640_NSCR_1987-03-08_RACE_B-ROLL_INTV_RICHMOND_MILLER_400_W_DESR_VICTORY_LANE_&_FLY-BYS_87-EV-0046                           V     C        00:02:29:11 00:02:34:10 00:13:26:23 00:13:31:22 
M2      ERN_F9640_NSCR_1987-03-08_RACE_B-ROLL_INTV_RICHMOND_MILLER_400_W_DESR_VICTORY_LANE_&_FLY-BYS_87-EV-0046                                    030.0 00:02:29:11 
*FROM CLIP NAME:  ERN_F9640_NSCR_1987-03-08_RACE B-ROLL INTV RICHMOND MILLER 400 W DESR VICTORY LANE & FLY-BYS_87-EV-0046.NEW.01 
*SOURCE FILE: ERN_F9640_NSCR_1987-03-08_RACE B-ROLL INTV RICHMOND MILLER 400 W DESR VICTORY LANE & FLY-BYS_87-EV-0046
000642  ERN_F0800_NSCR_1987-05-17_RACE_DESR_WINNER_BILL_ELLIOTT_CHARLOTTE_-_THE_WINSTON_87-EV-0287                                        A20   C        00:31:10:26 00:31:12:26 00:13:32:05 00:13:34:05 
M2      ERN_F0800_NSCR_1987-05-17_RACE_DESR_WINNER_BILL_ELLIOTT_CHARLOTTE_-_THE_WINSTON_87-EV-0287                                                 030.0 00:31:10:26 
*FROM CLIP NAME:  ERN_F0800_NSCR_1987-05-17_RACE DESR WINNER BILL ELLIOTT CHARLOTTE - THE WINSTON_87-EV-0287.NEW.01 
*SOURCE FILE: ERN_F0800_NSCR_1987-05-17_RACE DESR WINNER BILL ELLIOTT CHARLOTTE - THE WINSTON_87-EV-0287
000643  ERN_1979-07-30_DESR_CAR_CRASH_POCONO_500_GETTYIMAGES-516509576_M.JPG                                                              V     C        01:00:01:10 01:00:04:17 00:13:33:00 00:13:36:07 
*FROM CLIP NAME:  ERN_1979-07-30_DESR CAR CRASH POCONO 500_GETTYIMAGES-516509576_M.JPG 
*SOURCE FILE: ERN_1979-07-30_DESR CAR CRASH POCONO 500_GETTYIMAGES-516509576_M.JPG
000644  ERN_F0800_NSCR_1987-05-17_RACE_DESR_WINNER_BILL_ELLIOTT_CHARLOTTE_-_THE_WINSTON_87-EV-0287                                        A20   C        00:31:12:26 00:31:16:16 00:13:34:05 00:13:37:21 
M2      ERN_F0800_NSCR_1987-05-17_RACE_DESR_WINNER_BILL_ELLIOTT_CHARLOTTE_-_THE_WINSTON_87-EV-0287                                                 030.0 00:31:12:26 
*FROM CLIP NAME:  ERN_F0800_NSCR_1987-05-17_RACE DESR WINNER BILL ELLIOTT CHARLOTTE - THE WINSTON_87-EV-0287.NEW.01 
*SOURCE FILE: ERN_F0800_NSCR_1987-05-17_RACE DESR WINNER BILL ELLIOTT CHARLOTTE - THE WINSTON_87-EV-0287
000645  ERN_S3683_APRS_1982-07-25_DESR_POCONO_ACCIDENT_820725032_M.JPG                                                                    V     C        01:00:04:20 01:00:07:21 00:13:36:07 00:13:39:08 
*FROM CLIP NAME:  ERN_S3683_APRS_1982-07-25_DESR POCONO ACCIDENT_820725032_M.JPG 
*SOURCE FILE: ERN_S3683_APRS_1982-07-25_DESR POCONO ACCIDENT_820725032_M.JPG
000646  ERN_1979-07-30_DESR_SITS_NEXT_TO_CRASHED_CAR_POCONO_500_GETTYIMAGES-516511050_M.JPG                                               V     C        01:00:00:22 01:00:03:23 00:13:36:07 00:13:39:08 
*FROM CLIP NAME:  ERN_1979-07-30_DESR SITS NEXT TO CRASHED CAR POCONO 500_GETTYIMAGES-516511050_M.JPG 
*SOURCE FILE: ERN_1979-07-30_DESR SITS NEXT TO CRASHED CAR POCONO 500_GETTYIMAGES-516511050_M.JPG
000647  ERN_F0800_NSCR_1987-05-17_RACE_DESR_WINNER_BILL_ELLIOTT_CHARLOTTE_-_THE_WINSTON_87-EV-0287                                        A20   C        00:31:16:16 00:31:18:01 00:13:37:21 00:13:39:09 
M2      ERN_F0800_NSCR_1987-05-17_RACE_DESR_WINNER_BILL_ELLIOTT_CHARLOTTE_-_THE_WINSTON_87-EV-0287                                                 030.0 00:31:16:16 
*FROM CLIP NAME:  ERN_F0800_NSCR_1987-05-17_RACE DESR WINNER BILL ELLIOTT CHARLOTTE - THE WINSTON_87-EV-0287.NEW.01 
*TO CLIP NAME:  ERN_F0800_NSCR_1987-05-17_RACE DESR WINNER BILL ELLIOTT CHARLOTTE - THE WINSTON_87-EV-0287.NEW.01 
*SOURCE FILE: ERN_F0800_NSCR_1987-05-17_RACE DESR WINNER BILL ELLIOTT CHARLOTTE - THE WINSTON_87-EV-0287
000648  ERN_F0800_NSCR_1987-05-17_RACE_DESR_WINNER_BILL_ELLIOTT_CHARLOTTE_-_THE_WINSTON_87-EV-0287                                        A18   C        00:30:54:17 00:30:56:18 00:13:38:07 00:13:40:07 
M2      ERN_F0800_NSCR_1987-05-17_RACE_DESR_WINNER_BILL_ELLIOTT_CHARLOTTE_-_THE_WINSTON_87-EV-0287                                                 030.0 00:30:54:17 
*FROM CLIP NAME:  ERN_F0800_NSCR_1987-05-17_RACE DESR WINNER BILL ELLIOTT CHARLOTTE - THE WINSTON_87-EV-0287.NEW.01 
*SOURCE FILE: ERN_F0800_NSCR_1987-05-17_RACE DESR WINNER BILL ELLIOTT CHARLOTTE - THE WINSTON_87-EV-0287
000650  ERN_1979-07-30_DESR_SITS_NEXT_TO_CRASHED_CAR_POCONO_500_GETTYIMAGES-516511050_M.JPG                                               V     C        01:00:01:01 01:00:05:15 00:13:39:08 00:13:43:22 
*FROM CLIP NAME:  ERN_1979-07-30_DESR SITS NEXT TO CRASHED CAR POCONO 500_GETTYIMAGES-516511050_M.JPG 
*SOURCE FILE: ERN_1979-07-30_DESR SITS NEXT TO CRASHED CAR POCONO 500_GETTYIMAGES-516511050_M.JPG
000649  ERN_S3682_APRS_1982-07-25_DESR_POCONO_ACCIDENT_TIM_RICHMOND_820725023_M.JPG                                                       V     C        01:00:00:23 01:00:05:13 00:13:39:08 00:13:43:22 
*FROM CLIP NAME:  ERN_S3682_APRS_1982-07-25_DESR POCONO ACCIDENT TIM RICHMOND_820725023_M.JPG 
*SOURCE FILE: ERN_S3682_APRS_1982-07-25_DESR POCONO ACCIDENT TIM RICHMOND_820725023_M.JPG
000651  ERN_F0800_NSCR_1987-05-17_RACE_DESR_WINNER_BILL_ELLIOTT_CHARLOTTE_-_THE_WINSTON_87-EV-0287                                        A20   C        00:31:18:01 00:31:20:04 00:13:39:09 00:13:41:11 
M2      ERN_F0800_NSCR_1987-05-17_RACE_DESR_WINNER_BILL_ELLIOTT_CHARLOTTE_-_THE_WINSTON_87-EV-0287                                                 030.0 00:31:18:01 
*FROM CLIP NAME:  ERN_F0800_NSCR_1987-05-17_RACE DESR WINNER BILL ELLIOTT CHARLOTTE - THE WINSTON_87-EV-0287.NEW.01 
*SOURCE FILE: ERN_F0800_NSCR_1987-05-17_RACE DESR WINNER BILL ELLIOTT CHARLOTTE - THE WINSTON_87-EV-0287
000652  ERN_F0800_NSCR_1987-05-17_RACE_DESR_WINNER_BILL_ELLIOTT_CHARLOTTE_-_THE_WINSTON_87-EV-0287                                        A18   C        00:30:56:17 00:30:59:26 00:13:40:07 00:13:43:13 
M2      ERN_F0800_NSCR_1987-05-17_RACE_DESR_WINNER_BILL_ELLIOTT_CHARLOTTE_-_THE_WINSTON_87-EV-0287                                                 030.0 00:30:56:17 
*FROM CLIP NAME:  ERN_F0800_NSCR_1987-05-17_RACE DESR WINNER BILL ELLIOTT CHARLOTTE - THE WINSTON_87-EV-0287.NEW.01 
*SOURCE FILE: ERN_F0800_NSCR_1987-05-17_RACE DESR WINNER BILL ELLIOTT CHARLOTTE - THE WINSTON_87-EV-0287
000653  ERN_1987-04-28_DESR_&_KELLEY_EARNHARDT_&_DEJR_&_TERESA_EARNHARDT_BEFORE_SOVRAN_BANK_500_GETTYIMAGES-81371979.JPG                  V     C        01:00:00:00 01:00:06:12 00:13:43:22 00:13:50:10 
*FROM CLIP NAME:  ERN_1987-04-28_DESR & KELLEY EARNHARDT & DEJR & TERESA EARNHARDT BEFORE SOVRAN BANK 500_GETTYIMAGES-81371979.JPG 
*SOURCE FILE: ERN_1987-04-28_DESR & KELLEY EARNHARDT & DEJR & TERESA EARNHARDT BEFORE SOVRAN BANK 500_GETTYIMAGES-81371979.JPG
000654  ERN_S0668_SMYL_1980_DESR_IN_CAR_BEFORE_RACE_N-V1-54-5.JPG                                                                         V     C        01:00:00:02 01:00:03:08 00:13:52:00 00:13:55:06 
*FROM CLIP NAME:  ERN_S0668_SMYL_1980_DESR IN CAR BEFORE RACE_N-V1-54-5.JPG.COPY.01 
*SOURCE FILE: ERN_S0668_SMYL_1980_DESR IN CAR BEFORE RACE_N-V1-54-5.JPG
000655  ERN_1984-05-00_DESR_WORKING_ON_CAR_IN_SHOP_GETTYIMAGES-83547275_M.JPG                                                             V     C        01:00:00:00 01:00:02:14 00:13:55:06 00:13:57:20 
*FROM CLIP NAME:  ERN_1984-05-00_DESR WORKING ON CAR IN SHOP_GETTYIMAGES-83547275_M.JPG.COPY.01 
*SOURCE FILE: ERN_1984-05-00_DESR WORKING ON CAR IN SHOP_GETTYIMAGES-83547275_M.JPG
000656  ERN_S6134_DEJR_1990S_SNAPSHOT_DESR_WITH_DEER_HUNTING_SCAN.JPG                                                                     V     C        01:00:00:00 01:00:02:10 00:13:57:20 00:14:00:06 
*FROM CLIP NAME:  ERN_S6134_DEJR_1990S_SNAPSHOT DESR WITH DEER HUNTING_SCAN.JPG 
*SOURCE FILE: ERN_S6134_DEJR_1990S_SNAPSHOT DESR WITH DEER HUNTING_SCAN.JPG
000657  ERN_S1051_DEJR_1980S_DEJR_IN_17_CAR_AGE_9_00.JPG                                                                                  V     C        01:00:00:00 01:00:01:17 00:14:00:06 00:14:01:23 
*FROM CLIP NAME:  ERN_S1051_DEJR_1980S_DEJR IN 17 CAR AGE 9_00.JPG 
*SOURCE FILE: ERN_S1051_DEJR_1980S_DEJR IN 17 CAR AGE 9_00.JPG
000658  ERN_S1030_DEJR_1980S_DEJR_10TH_GRADE_0001.JPG                                                                                     V     C        01:00:01:04 01:00:03:18 00:14:01:23 00:14:04:13 
*FROM CLIP NAME:  ERN_S1030_DEJR_1980S_DEJR 10TH GRADE_0001.JPG 
*SOURCE FILE: ERN_S1030_DEJR_1980S_DEJR 10TH GRADE_0001.JPG
000659  ERN_F3279_NSCR_1987_COMP_DESR_INTVS_&_B-ROLL_EARNHARDT298328                                                                      A18   C        01:29:01:05 01:29:03:00 00:14:04:08 00:14:06:04 
M2      ERN_F3279_NSCR_1987_COMP_DESR_INTVS_&_B-ROLL_EARNHARDT298328                                                                               030.0 01:29:01:05 
*FROM CLIP NAME:  ERN_F3279_NSCR_1987_COMP DESR INTVS & B-ROLL_EARNHARDT298328.NEW.01 
*SOURCE FILE: ERN_F3279_NSCR_1987_COMP DESR INTVS & B-ROLL_EARNHARDT298328
000660  ERN_F9717_NSCR_1990-05-07_RACE_B-ROLL_TALLADEGA_WINSTON_500_DEJR_IN_VICTORY_LANE_90-EV-0208_S006                                  V     C        00:19:57:18 00:19:59:03 00:14:04:13 00:14:06:09 
M2      ERN_F9717_NSCR_1990-05-07_RACE_B-ROLL_TALLADEGA_WINSTON_500_DEJR_IN_VICTORY_LANE_90-EV-0208_S006                                           024.0 00:19:57:18 
*FROM CLIP NAME:  ERN_F9717_NSCR_1990-05-07_RACE B-ROLL TALLADEGA WINSTON 500 DEJR IN VICTORY LANE_90-EV-0208_S006.NEW.01 
*SOURCE FILE: ERN_F9717_NSCR_1990-05-07_RACE B-ROLL TALLADEGA WINSTON 500 DEJR IN VICTORY LANE_90-EV-0208_S006
000661  ERN_F3279_NSCR_1987_COMP_DESR_INTVS_&_B-ROLL_EARNHARDT298328                                                                      A18   C        01:29:03:00 01:29:08:07 00:14:06:04 00:14:11:09 
M2      ERN_F3279_NSCR_1987_COMP_DESR_INTVS_&_B-ROLL_EARNHARDT298328                                                                               030.0 01:29:03:00 
*FROM CLIP NAME:  ERN_F3279_NSCR_1987_COMP DESR INTVS & B-ROLL_EARNHARDT298328.NEW.01 
*SOURCE FILE: ERN_F3279_NSCR_1987_COMP DESR INTVS & B-ROLL_EARNHARDT298328
000662  ERN_F9717_NSCR_1990-05-07_RACE_B-ROLL_TALLADEGA_WINSTON_500_DEJR_IN_VICTORY_LANE_90-EV-0208_S006                                  V     C        00:20:03:09 00:20:10:16 00:14:06:09 00:14:13:14 
M2      ERN_F9717_NSCR_1990-05-07_RACE_B-ROLL_TALLADEGA_WINSTON_500_DEJR_IN_VICTORY_LANE_90-EV-0208_S006                                           030.0 00:20:03:09 
*FROM CLIP NAME:  ERN_F9717_NSCR_1990-05-07_RACE B-ROLL TALLADEGA WINSTON 500 DEJR IN VICTORY LANE_90-EV-0208_S006.NEW.01 
*SOURCE FILE: ERN_F9717_NSCR_1990-05-07_RACE B-ROLL TALLADEGA WINSTON 500 DEJR IN VICTORY LANE_90-EV-0208_S006
000663  ERN_F9144_DANN_1988_NON_RACING_DANNY_SR_HOME_VIDEOS_THANKSGIVING_W_FAMILY_B-ROLL_7932                                             A20   C        01:40:25:16 01:40:26:17 00:14:15:13 00:14:16:13 
M2      ERN_F9144_DANN_1988_NON_RACING_DANNY_SR_HOME_VIDEOS_THANKSGIVING_W_FAMILY_B-ROLL_7932                                                      030.0 01:40:25:16 
*FROM CLIP NAME:  ERN_F9144_DANN_1988_NON RACING DANNY SR HOME VIDEOS THANKSGIVING W FAMILY B-ROLL_7932.NEW.01 
*SOURCE FILE: ERN_F9144_DANN_1988_NON RACING DANNY SR HOME VIDEOS THANKSGIVING W FAMILY B-ROLL_7932
000664  ERN_F2943_NSCR_1990-02-15_BTS_DAYS_OF_THUNDER_DAYTONA_500_RACE_TOM_CRUISE_LGP02888                                                V     C        00:07:52:28 00:07:53:00 00:14:15:14 00:14:16:02 
M2      ERN_F2943_NSCR_1990-02-15_BTS_DAYS_OF_THUNDER_DAYTONA_500_RACE_TOM_CRUISE_LGP02888                                                        -030.0 00:07:52:28 
*FROM CLIP NAME:  ERN_F2577_NSCR_1990-02-15_DAYTONA 500-DAYS OF THUNDER B-ROLL_LGP02888.NEW.01 
*SOURCE FILE: ERN_F2943_NSCR_1990-02-15_BTS DAYS OF THUNDER DAYTONA 500 RACE TOM CRUISE_LGP02888
000665  ERN_F9144_DANN_1988_NON_RACING_DANNY_SR_HOME_VIDEOS_THANKSGIVING_W_FAMILY_B-ROLL_7932                                             V     C        01:40:32:06 01:40:33:18 00:14:15:14 00:14:16:23 
M2      ERN_F9144_DANN_1988_NON_RACING_DANNY_SR_HOME_VIDEOS_THANKSGIVING_W_FAMILY_B-ROLL_7932                                                      030.0 01:40:32:06 
*FROM CLIP NAME:  ERN_F9144_DANN_1988_NON RACING DANNY SR HOME VIDEOS THANKSGIVING W FAMILY B-ROLL_7932.NEW.01 
*SOURCE FILE: ERN_F9144_DANN_1988_NON RACING DANNY SR HOME VIDEOS THANKSGIVING W FAMILY B-ROLL_7932
000666  ERN_F5347_XXXX_1991_GO-KARTING_DIRT_YOUTUBE                                                                                       V     C        00:54:17:20 00:54:17:22 00:14:16:12 00:14:17:06 
M2      ERN_F5347_XXXX_1991_GO-KARTING_DIRT_YOUTUBE                                                                                               -024.0 00:54:17:20 
*FROM CLIP NAME:  ERN_F5347_XXXX_1991_GO-KARTING DIRT_YOUTUBE.NEW.01 
*SOURCE FILE: ERN_F5347_XXXX_1991_GO-KARTING DIRT_YOUTUBE
000667  ERN_F9144_DANN_1988_NON_RACING_DANNY_SR_HOME_VIDEOS_THANKSGIVING_W_FAMILY_B-ROLL_7932                                             A20   C        01:40:26:16 01:40:28:00 00:14:16:13 00:14:18:00 
M2      ERN_F9144_DANN_1988_NON_RACING_DANNY_SR_HOME_VIDEOS_THANKSGIVING_W_FAMILY_B-ROLL_7932                                                      030.0 01:40:26:16 
*FROM CLIP NAME:  ERN_F9144_DANN_1988_NON RACING DANNY SR HOME VIDEOS THANKSGIVING W FAMILY B-ROLL_7932.NEW.01 
*SOURCE FILE: ERN_F9144_DANN_1988_NON RACING DANNY SR HOME VIDEOS THANKSGIVING W FAMILY B-ROLL_7932
000668  ERN_F9144_DANN_1988_NON_RACING_DANNY_SR_HOME_VIDEOS_THANKSGIVING_W_FAMILY_B-ROLL_7932                                             V     C        01:29:38:15 01:29:42:09 00:14:16:23 00:14:20:18 
M2      ERN_F9144_DANN_1988_NON_RACING_DANNY_SR_HOME_VIDEOS_THANKSGIVING_W_FAMILY_B-ROLL_7932                                                      030.0 01:29:38:15 
*FROM CLIP NAME:  ERN_F9144_DANN_1988_NON RACING DANNY SR HOME VIDEOS THANKSGIVING W FAMILY B-ROLL_7932.NEW.01 
*SOURCE FILE: ERN_F9144_DANN_1988_NON RACING DANNY SR HOME VIDEOS THANKSGIVING W FAMILY B-ROLL_7932
000669  ERN_F9144_DANN_1988_NON_RACING_DANNY_SR_HOME_VIDEOS_THANKSGIVING_W_FAMILY_B-ROLL_7932                                             A18   C        01:29:44:16 01:29:45:17 00:14:17:19 00:14:18:19 
M2      ERN_F9144_DANN_1988_NON_RACING_DANNY_SR_HOME_VIDEOS_THANKSGIVING_W_FAMILY_B-ROLL_7932                                                      030.0 01:29:44:16 
*FROM CLIP NAME:  ERN_F9144_DANN_1988_NON RACING DANNY SR HOME VIDEOS THANKSGIVING W FAMILY B-ROLL_7932.NEW.01 
*SOURCE FILE: ERN_F9144_DANN_1988_NON RACING DANNY SR HOME VIDEOS THANKSGIVING W FAMILY B-ROLL_7932
000670  ERN_F9144_DANN_1988_NON_RACING_DANNY_SR_HOME_VIDEOS_THANKSGIVING_W_FAMILY_B-ROLL_7932                                             A18   C        01:29:45:16 01:29:46:17 00:14:18:19 00:14:19:19 
M2      ERN_F9144_DANN_1988_NON_RACING_DANNY_SR_HOME_VIDEOS_THANKSGIVING_W_FAMILY_B-ROLL_7932                                                      030.0 01:29:45:16 
*FROM CLIP NAME:  ERN_F9144_DANN_1988_NON RACING DANNY SR HOME VIDEOS THANKSGIVING W FAMILY B-ROLL_7932.NEW.01 
*SOURCE FILE: ERN_F9144_DANN_1988_NON RACING DANNY SR HOME VIDEOS THANKSGIVING W FAMILY B-ROLL_7932
000671  ERN_F9144_DANN_1988_NON_RACING_DANNY_SR_HOME_VIDEOS_THANKSGIVING_W_FAMILY_B-ROLL_7932                                             A18   C        01:29:30:08 01:29:30:19 00:14:19:19 00:14:20:03 
M2      ERN_F9144_DANN_1988_NON_RACING_DANNY_SR_HOME_VIDEOS_THANKSGIVING_W_FAMILY_B-ROLL_7932                                                      030.0 01:29:30:08 
*FROM CLIP NAME:  ERN_F9144_DANN_1988_NON RACING DANNY SR HOME VIDEOS THANKSGIVING W FAMILY B-ROLL_7932.NEW.01 
*TO CLIP NAME:  ERN_F9144_DANN_1988_NON RACING DANNY SR HOME VIDEOS THANKSGIVING W FAMILY B-ROLL_7932.NEW.01 
*SOURCE FILE: ERN_F9144_DANN_1988_NON RACING DANNY SR HOME VIDEOS THANKSGIVING W FAMILY B-ROLL_7932
000672  ERN_F9144_DANN_1988_NON_RACING_DANNY_SR_HOME_VIDEOS_THANKSGIVING_W_FAMILY_B-ROLL_7932                                             A18   C        01:29:30:18 01:29:33:15 00:14:20:03 00:14:23:00 
M2      ERN_F9144_DANN_1988_NON_RACING_DANNY_SR_HOME_VIDEOS_THANKSGIVING_W_FAMILY_B-ROLL_7932                                                      030.0 01:29:30:18 
*FROM CLIP NAME:  ERN_F9144_DANN_1988_NON RACING DANNY SR HOME VIDEOS THANKSGIVING W FAMILY B-ROLL_7932.NEW.01 
*SOURCE FILE: ERN_F9144_DANN_1988_NON RACING DANNY SR HOME VIDEOS THANKSGIVING W FAMILY B-ROLL_7932
000673  ERN_F9144_DANN_1988_NON_RACING_DANNY_SR_HOME_VIDEOS_THANKSGIVING_W_FAMILY_B-ROLL_7932                                             V     C        01:29:26:02 01:29:28:24 00:14:20:18 00:14:23:11 
M2      ERN_F9144_DANN_1988_NON_RACING_DANNY_SR_HOME_VIDEOS_THANKSGIVING_W_FAMILY_B-ROLL_7932                                                      030.0 01:29:26:02 
*FROM CLIP NAME:  ERN_F9144_DANN_1988_NON RACING DANNY SR HOME VIDEOS THANKSGIVING W FAMILY B-ROLL_7932.NEW.01 
*SOURCE FILE: ERN_F9144_DANN_1988_NON RACING DANNY SR HOME VIDEOS THANKSGIVING W FAMILY B-ROLL_7932
000674  ERN_F9144_DANN_1988_NON_RACING_DANNY_SR_HOME_VIDEOS_THANKSGIVING_W_FAMILY_B-ROLL_7932                                             A20   C        01:41:43:10 01:41:44:00 00:14:22:16 00:14:23:08 
M2      ERN_F9144_DANN_1988_NON_RACING_DANNY_SR_HOME_VIDEOS_THANKSGIVING_W_FAMILY_B-ROLL_7932                                                      030.0 01:41:43:10 
*FROM CLIP NAME:  ERN_F9144_DANN_1988_NON RACING DANNY SR HOME VIDEOS THANKSGIVING W FAMILY B-ROLL_7932.NEW.01 
*SOURCE FILE: ERN_F9144_DANN_1988_NON RACING DANNY SR HOME VIDEOS THANKSGIVING W FAMILY B-ROLL_7932
000675  ERN_F9144_DANN_1988_NON_RACING_DANNY_SR_HOME_VIDEOS_THANKSGIVING_W_FAMILY_B-ROLL_7932                                             A20   C        01:41:44:00 01:41:45:29 00:14:23:08 00:14:25:07 
M2      ERN_F9144_DANN_1988_NON_RACING_DANNY_SR_HOME_VIDEOS_THANKSGIVING_W_FAMILY_B-ROLL_7932                                                      030.0 01:41:44:00 
*FROM CLIP NAME:  ERN_F9144_DANN_1988_NON RACING DANNY SR HOME VIDEOS THANKSGIVING W FAMILY B-ROLL_7932.NEW.01 
*SOURCE FILE: ERN_F9144_DANN_1988_NON RACING DANNY SR HOME VIDEOS THANKSGIVING W FAMILY B-ROLL_7932
000676  ERN_F9144_DANN_1988_NON_RACING_DANNY_SR_HOME_VIDEOS_THANKSGIVING_W_FAMILY_B-ROLL_7932                                             V     C        01:41:38:10 01:41:40:08 00:14:23:11 00:14:25:09 
M2      ERN_F9144_DANN_1988_NON_RACING_DANNY_SR_HOME_VIDEOS_THANKSGIVING_W_FAMILY_B-ROLL_7932                                                      030.0 01:41:38:10 
*FROM CLIP NAME:  ERN_F9144_DANN_1988_NON RACING DANNY SR HOME VIDEOS THANKSGIVING W FAMILY B-ROLL_7932.NEW.01 
*SOURCE FILE: ERN_F9144_DANN_1988_NON RACING DANNY SR HOME VIDEOS THANKSGIVING W FAMILY B-ROLL_7932
000677  ERN_F9143_DANN_1990_NON_RACING_DANNY_SR_HOME_VIDEOS_CHRISTMAS_W_TONY_EURY_SR_&_TONY_EURY_JR_W_DAYTONA_BEACH_7929                  A18   C        00:17:19:28 00:17:20:29 00:14:25:02 00:14:26:02 
M2      ERN_F9143_DANN_1990_NON_RACING_DANNY_SR_HOME_VIDEOS_CHRISTMAS_W_TONY_EURY_SR_&_TONY_EURY_JR_W_DAYTONA_BEACH_7929                           030.0 00:17:19:28 
*FROM CLIP NAME:  ERN_F9143_DANN_1990_NON RACING DANNY SR HOME VIDEOS CHRISTMAS W TONY EURY SR & TONY EURY JR W DAYTONA BEACH_7929.NEW.01 
*SOURCE FILE: ERN_F9143_DANN_1990_NON RACING DANNY SR HOME VIDEOS CHRISTMAS W TONY EURY SR & TONY EURY JR W DAYTONA BEACH_7929
000678  ERN_F5347_XXXX_1991_GO-KARTING_DIRT_YOUTUBE                                                                                       V     C        00:54:17:13 00:54:17:15 00:14:25:06 00:14:25:17 
M2      ERN_F5347_XXXX_1991_GO-KARTING_DIRT_YOUTUBE                                                                                               -024.0 00:54:17:13 
*FROM CLIP NAME:  ERN_F5347_XXXX_1991_GO-KARTING DIRT_YOUTUBE.NEW.01 
*SOURCE FILE: ERN_F5347_XXXX_1991_GO-KARTING DIRT_YOUTUBE
000679  ERN_F9143_DANN_1990_NON_RACING_DANNY_SR_HOME_VIDEOS_CHRISTMAS_W_TONY_EURY_SR_&_TONY_EURY_JR_W_DAYTONA_BEACH_7929                  V     C        00:17:20:07 00:17:26:07 00:14:25:09 00:14:31:08 
M2      ERN_F9143_DANN_1990_NON_RACING_DANNY_SR_HOME_VIDEOS_CHRISTMAS_W_TONY_EURY_SR_&_TONY_EURY_JR_W_DAYTONA_BEACH_7929                           030.0 00:17:20:07 
*FROM CLIP NAME:  ERN_F9143_DANN_1990_NON RACING DANNY SR HOME VIDEOS CHRISTMAS W TONY EURY SR & TONY EURY JR W DAYTONA BEACH_7929.NEW.01 
*SOURCE FILE: ERN_F9143_DANN_1990_NON RACING DANNY SR HOME VIDEOS CHRISTMAS W TONY EURY SR & TONY EURY JR W DAYTONA BEACH_7929
000680  ERN_F9143_DANN_1990_NON_RACING_DANNY_SR_HOME_VIDEOS_CHRISTMAS_W_TONY_EURY_SR_&_TONY_EURY_JR_W_DAYTONA_BEACH_7929                  A18   C        00:17:20:28 00:17:24:27 00:14:26:02 00:14:30:00 
M2      ERN_F9143_DANN_1990_NON_RACING_DANNY_SR_HOME_VIDEOS_CHRISTMAS_W_TONY_EURY_SR_&_TONY_EURY_JR_W_DAYTONA_BEACH_7929                           030.0 00:17:20:28 
*FROM CLIP NAME:  ERN_F9143_DANN_1990_NON RACING DANNY SR HOME VIDEOS CHRISTMAS W TONY EURY SR & TONY EURY JR W DAYTONA BEACH_7929.NEW.01 
*SOURCE FILE: ERN_F9143_DANN_1990_NON RACING DANNY SR HOME VIDEOS CHRISTMAS W TONY EURY SR & TONY EURY JR W DAYTONA BEACH_7929
000681  ERN_F9143_DANN_1990_NON_RACING_DANNY_SR_HOME_VIDEOS_CHRISTMAS_W_TONY_EURY_SR_&_TONY_EURY_JR_W_DAYTONA_BEACH_7929                  A18   C        00:14:30:23 00:14:31:24 00:14:34:09 00:14:35:09 
M2      ERN_F9143_DANN_1990_NON_RACING_DANNY_SR_HOME_VIDEOS_CHRISTMAS_W_TONY_EURY_SR_&_TONY_EURY_JR_W_DAYTONA_BEACH_7929                           030.0 00:14:30:23 
*FROM CLIP NAME:  ERN_F9143_DANN_1990_NON RACING DANNY SR HOME VIDEOS CHRISTMAS W TONY EURY SR & TONY EURY JR W DAYTONA BEACH_7929.NEW.01 
*SOURCE FILE: ERN_F9143_DANN_1990_NON RACING DANNY SR HOME VIDEOS CHRISTMAS W TONY EURY SR & TONY EURY JR W DAYTONA BEACH_7929
000682  ERN_F9143_DANN_1990_NON_RACING_DANNY_SR_HOME_VIDEOS_CHRISTMAS_W_TONY_EURY_SR_&_TONY_EURY_JR_W_DAYTONA_BEACH_7929                  V     C        00:14:31:07 00:14:40:29 00:14:34:20 00:14:44:13 
M2      ERN_F9143_DANN_1990_NON_RACING_DANNY_SR_HOME_VIDEOS_CHRISTMAS_W_TONY_EURY_SR_&_TONY_EURY_JR_W_DAYTONA_BEACH_7929                           030.0 00:14:31:07 
*FROM CLIP NAME:  ERN_F9143_DANN_1990_NON RACING DANNY SR HOME VIDEOS CHRISTMAS W TONY EURY SR & TONY EURY JR W DAYTONA BEACH_7929.NEW.01 
*SOURCE FILE: ERN_F9143_DANN_1990_NON RACING DANNY SR HOME VIDEOS CHRISTMAS W TONY EURY SR & TONY EURY JR W DAYTONA BEACH_7929
000683  ERN_F9143_DANN_1990_NON_RACING_DANNY_SR_HOME_VIDEOS_CHRISTMAS_W_TONY_EURY_SR_&_TONY_EURY_JR_W_DAYTONA_BEACH_7929                  A18   C        00:14:31:23 00:14:39:22 00:14:35:09 00:14:43:07 
M2      ERN_F9143_DANN_1990_NON_RACING_DANNY_SR_HOME_VIDEOS_CHRISTMAS_W_TONY_EURY_SR_&_TONY_EURY_JR_W_DAYTONA_BEACH_7929                           030.0 00:14:31:23 
*FROM CLIP NAME:  ERN_F9143_DANN_1990_NON RACING DANNY SR HOME VIDEOS CHRISTMAS W TONY EURY SR & TONY EURY JR W DAYTONA BEACH_7929.NEW.01 
*SOURCE FILE: ERN_F9143_DANN_1990_NON RACING DANNY SR HOME VIDEOS CHRISTMAS W TONY EURY SR & TONY EURY JR W DAYTONA BEACH_7929
000684  ERN_F9144_DANN_1988_NON_RACING_DANNY_SR_HOME_VIDEOS_THANKSGIVING_W_FAMILY_B-ROLL_7932                                             A20   C        01:41:46:27 01:41:47:28 00:14:46:12 00:14:47:12 
M2      ERN_F9144_DANN_1988_NON_RACING_DANNY_SR_HOME_VIDEOS_THANKSGIVING_W_FAMILY_B-ROLL_7932                                                      030.0 01:41:46:27 
*FROM CLIP NAME:  ERN_F9144_DANN_1988_NON RACING DANNY SR HOME VIDEOS THANKSGIVING W FAMILY B-ROLL_7932.NEW.01 
*SOURCE FILE: ERN_F9144_DANN_1988_NON RACING DANNY SR HOME VIDEOS THANKSGIVING W FAMILY B-ROLL_7932
000685  ERN_F9144_DANN_1988_NON_RACING_DANNY_SR_HOME_VIDEOS_THANKSGIVING_W_FAMILY_B-ROLL_7932                                             V     C        01:41:42:01 01:42:01:07 00:14:46:21 00:15:06:01 
M2      ERN_F9144_DANN_1988_NON_RACING_DANNY_SR_HOME_VIDEOS_THANKSGIVING_W_FAMILY_B-ROLL_7932                                                      030.0 01:41:42:01 
*FROM CLIP NAME:  ERN_F9144_DANN_1988_NON RACING DANNY SR HOME VIDEOS THANKSGIVING W FAMILY B-ROLL_7932.NEW.01 
*SOURCE FILE: ERN_F9144_DANN_1988_NON RACING DANNY SR HOME VIDEOS THANKSGIVING W FAMILY B-ROLL_7932
000686  ERN_F9144_DANN_1988_NON_RACING_DANNY_SR_HOME_VIDEOS_THANKSGIVING_W_FAMILY_B-ROLL_7932                                             A20   C        01:41:47:27 01:41:48:04 00:14:47:12 00:14:47:17 
M2      ERN_F9144_DANN_1988_NON_RACING_DANNY_SR_HOME_VIDEOS_THANKSGIVING_W_FAMILY_B-ROLL_7932                                                      030.0 01:41:47:27 
*FROM CLIP NAME:  ERN_F9144_DANN_1988_NON RACING DANNY SR HOME VIDEOS THANKSGIVING W FAMILY B-ROLL_7932.NEW.01 
*SOURCE FILE: ERN_F9144_DANN_1988_NON RACING DANNY SR HOME VIDEOS THANKSGIVING W FAMILY B-ROLL_7932
000687  ERN_F9144_DANN_1988_NON_RACING_DANNY_SR_HOME_VIDEOS_THANKSGIVING_W_FAMILY_B-ROLL_7932                                             A20   C        01:41:48:03 01:41:49:04 00:14:47:17 00:14:48:17 
M2      ERN_F9144_DANN_1988_NON_RACING_DANNY_SR_HOME_VIDEOS_THANKSGIVING_W_FAMILY_B-ROLL_7932                                                      030.0 01:41:48:03 
*FROM CLIP NAME:  ERN_F9144_DANN_1988_NON RACING DANNY SR HOME VIDEOS THANKSGIVING W FAMILY B-ROLL_7932.NEW.01 
*TO CLIP NAME:  ERN_F9144_DANN_1988_NON RACING DANNY SR HOME VIDEOS THANKSGIVING W FAMILY B-ROLL_7932.NEW.01 
*SOURCE FILE: ERN_F9144_DANN_1988_NON RACING DANNY SR HOME VIDEOS THANKSGIVING W FAMILY B-ROLL_7932
000688  ERN_F9144_DANN_1988_NON_RACING_DANNY_SR_HOME_VIDEOS_THANKSGIVING_W_FAMILY_B-ROLL_7932                                             A20   C        01:41:49:03 01:41:55:12 00:14:48:17 00:14:54:23 
M2      ERN_F9144_DANN_1988_NON_RACING_DANNY_SR_HOME_VIDEOS_THANKSGIVING_W_FAMILY_B-ROLL_7932                                                      030.0 01:41:49:03 
*FROM CLIP NAME:  ERN_F9144_DANN_1988_NON RACING DANNY SR HOME VIDEOS THANKSGIVING W FAMILY B-ROLL_7932.NEW.01 
*SOURCE FILE: ERN_F9144_DANN_1988_NON RACING DANNY SR HOME VIDEOS THANKSGIVING W FAMILY B-ROLL_7932
000689  ERN_F9144_DANN_1988_NON_RACING_DANNY_SR_HOME_VIDEOS_THANKSGIVING_W_FAMILY_B-ROLL_7932                                             A18   C        01:40:10:27 01:40:12:08 00:14:54:18 00:14:56:02 
M2      ERN_F9144_DANN_1988_NON_RACING_DANNY_SR_HOME_VIDEOS_THANKSGIVING_W_FAMILY_B-ROLL_7932                                                      030.0 01:40:10:27 
*FROM CLIP NAME:  ERN_F9144_DANN_1988_NON RACING DANNY SR HOME VIDEOS THANKSGIVING W FAMILY B-ROLL_7932.NEW.01 
*SOURCE FILE: ERN_F9144_DANN_1988_NON RACING DANNY SR HOME VIDEOS THANKSGIVING W FAMILY B-ROLL_7932
000690  ERN_F9144_DANN_1988_NON_RACING_DANNY_SR_HOME_VIDEOS_THANKSGIVING_W_FAMILY_B-ROLL_7932                                             A18   C        01:40:12:07 01:40:20:09 00:14:56:02 00:15:04:03 
M2      ERN_F9144_DANN_1988_NON_RACING_DANNY_SR_HOME_VIDEOS_THANKSGIVING_W_FAMILY_B-ROLL_7932                                                      030.0 01:40:12:07 
*FROM CLIP NAME:  ERN_F9144_DANN_1988_NON RACING DANNY SR HOME VIDEOS THANKSGIVING W FAMILY B-ROLL_7932.NEW.01 
*SOURCE FILE: ERN_F9144_DANN_1988_NON RACING DANNY SR HOME VIDEOS THANKSGIVING W FAMILY B-ROLL_7932
000691  ERN_F9144_DANN_1988_NON_RACING_DANNY_SR_HOME_VIDEOS_THANKSGIVING_W_FAMILY_B-ROLL_7932                                             A22   C        01:41:59:13 01:41:59:29 00:15:00:21 00:15:01:09 
M2      ERN_F9144_DANN_1988_NON_RACING_DANNY_SR_HOME_VIDEOS_THANKSGIVING_W_FAMILY_B-ROLL_7932                                                      030.0 01:41:59:13 
*FROM CLIP NAME:  ERN_F9144_DANN_1988_NON RACING DANNY SR HOME VIDEOS THANKSGIVING W FAMILY B-ROLL_7932.NEW.01 
*SOURCE FILE: ERN_F9144_DANN_1988_NON RACING DANNY SR HOME VIDEOS THANKSGIVING W FAMILY B-ROLL_7932
000692  ERN_F9144_DANN_1988_NON_RACING_DANNY_SR_HOME_VIDEOS_THANKSGIVING_W_FAMILY_B-ROLL_7932                                             A22   C        01:41:59:28 01:42:01:08 00:15:01:09 00:15:02:16 
M2      ERN_F9144_DANN_1988_NON_RACING_DANNY_SR_HOME_VIDEOS_THANKSGIVING_W_FAMILY_B-ROLL_7932                                                      030.0 01:41:59:28 
*FROM CLIP NAME:  ERN_F9144_DANN_1988_NON RACING DANNY SR HOME VIDEOS THANKSGIVING W FAMILY B-ROLL_7932.NEW.01 
*SOURCE FILE: ERN_F9144_DANN_1988_NON RACING DANNY SR HOME VIDEOS THANKSGIVING W FAMILY B-ROLL_7932
000693  ERN_F9144_DANN_1988_NON_RACING_DANNY_SR_HOME_VIDEOS_THANKSGIVING_W_FAMILY_B-ROLL_7932                                             A20   C        01:42:02:11 01:42:02:22 00:15:02:04 00:15:02:12 
M2      ERN_F9144_DANN_1988_NON_RACING_DANNY_SR_HOME_VIDEOS_THANKSGIVING_W_FAMILY_B-ROLL_7932                                                      030.0 01:42:02:11 
*FROM CLIP NAME:  ERN_F9144_DANN_1988_NON RACING DANNY SR HOME VIDEOS THANKSGIVING W FAMILY B-ROLL_7932.NEW.01 
*SOURCE FILE: ERN_F9144_DANN_1988_NON RACING DANNY SR HOME VIDEOS THANKSGIVING W FAMILY B-ROLL_7932
000694  ERN_F9144_DANN_1988_NON_RACING_DANNY_SR_HOME_VIDEOS_THANKSGIVING_W_FAMILY_B-ROLL_7932                                             A20   C        01:42:02:21 01:42:03:24 00:15:02:12 00:15:03:14 
M2      ERN_F9144_DANN_1988_NON_RACING_DANNY_SR_HOME_VIDEOS_THANKSGIVING_W_FAMILY_B-ROLL_7932                                                      030.0 01:42:02:21 
*FROM CLIP NAME:  ERN_F9144_DANN_1988_NON RACING DANNY SR HOME VIDEOS THANKSGIVING W FAMILY B-ROLL_7932.NEW.01 
*SOURCE FILE: ERN_F9144_DANN_1988_NON RACING DANNY SR HOME VIDEOS THANKSGIVING W FAMILY B-ROLL_7932
000695  ERN_F4297_XXXX_1988_OAK_RIDGE_MILITARY_ACADEMY_FALL_PARADE_PART_4_YOUTUBE                                                         A18   C        00:02:09:23 00:02:11:04 00:15:32:15 00:15:33:23 
M2      ERN_F4297_XXXX_1988_OAK_RIDGE_MILITARY_ACADEMY_FALL_PARADE_PART_4_YOUTUBE                                                                  030.0 00:02:09:23 
*FROM CLIP NAME:  ERN_F4297_XXXX_1988_OAK RIDGE MILITARY ACADEMY FALL PARADE PART 4_YOUTUBE.NEW.01 
*SOURCE FILE: ERN_F4297_XXXX_1988_OAK RIDGE MILITARY ACADEMY FALL PARADE PART 4_YOUTUBE
000696  ERN_F4297_XXXX_1988_OAK_RIDGE_MILITARY_ACADEMY_FALL_PARADE_PART_4_YOUTUBE                                                         A18   C        00:02:11:03 00:02:11:19 00:15:33:23 00:15:34:11 
M2      ERN_F4297_XXXX_1988_OAK_RIDGE_MILITARY_ACADEMY_FALL_PARADE_PART_4_YOUTUBE                                                                  030.0 00:02:11:03 
*FROM CLIP NAME:  ERN_F4297_XXXX_1988_OAK RIDGE MILITARY ACADEMY FALL PARADE PART 4_YOUTUBE.NEW.01 
*SOURCE FILE: ERN_F4297_XXXX_1988_OAK RIDGE MILITARY ACADEMY FALL PARADE PART 4_YOUTUBE
000697  ERN_F4297_XXXX_1988_OAK_RIDGE_MILITARY_ACADEMY_FALL_PARADE_PART_4_YOUTUBE                                                         A18   C        00:02:11:18 00:02:12:27 00:15:34:11 00:15:35:17 
M2      ERN_F4297_XXXX_1988_OAK_RIDGE_MILITARY_ACADEMY_FALL_PARADE_PART_4_YOUTUBE                                                                  030.0 00:02:11:18 
*FROM CLIP NAME:  ERN_F4297_XXXX_1988_OAK RIDGE MILITARY ACADEMY FALL PARADE PART 4_YOUTUBE.NEW.01 
*TO CLIP NAME:  ERN_F4297_XXXX_1988_OAK RIDGE MILITARY ACADEMY FALL PARADE PART 4_YOUTUBE.NEW.01 
*SOURCE FILE: ERN_F4297_XXXX_1988_OAK RIDGE MILITARY ACADEMY FALL PARADE PART 4_YOUTUBE
000698  ERN_F4297_XXXX_1988_OAK_RIDGE_MILITARY_ACADEMY_FALL_PARADE_PART_4_YOUTUBE                                                         A18   C        00:02:12:26 00:02:14:13 00:15:35:17 00:15:37:06 
M2      ERN_F4297_XXXX_1988_OAK_RIDGE_MILITARY_ACADEMY_FALL_PARADE_PART_4_YOUTUBE                                                                  030.0 00:02:12:26 
*FROM CLIP NAME:  ERN_F4297_XXXX_1988_OAK RIDGE MILITARY ACADEMY FALL PARADE PART 4_YOUTUBE.NEW.01 
*SOURCE FILE: ERN_F4297_XXXX_1988_OAK RIDGE MILITARY ACADEMY FALL PARADE PART 4_YOUTUBE
000699  ERN_F4297_XXXX_1988_OAK_RIDGE_MILITARY_ACADEMY_FALL_PARADE_PART_4_YOUTUBE                                                         A22   C        00:03:41:10 00:03:42:10 00:15:40:21 00:15:41:21 
M2      ERN_F4297_XXXX_1988_OAK_RIDGE_MILITARY_ACADEMY_FALL_PARADE_PART_4_YOUTUBE                                                                  030.0 00:03:41:10 
*FROM CLIP NAME:  ERN_F4297_XXXX_1988_OAK RIDGE MILITARY ACADEMY FALL PARADE PART 4_YOUTUBE.NEW.01 
*SOURCE FILE: ERN_F4297_XXXX_1988_OAK RIDGE MILITARY ACADEMY FALL PARADE PART 4_YOUTUBE
000700  ERN_F4297_XXXX_1988_OAK_RIDGE_MILITARY_ACADEMY_FALL_PARADE_PART_4_YOUTUBE                                                         A22   C        00:03:42:10 00:03:47:07 00:15:41:21 00:15:46:18 
M2      ERN_F4297_XXXX_1988_OAK_RIDGE_MILITARY_ACADEMY_FALL_PARADE_PART_4_YOUTUBE                                                                  030.0 00:03:42:10 
*FROM CLIP NAME:  ERN_F4297_XXXX_1988_OAK RIDGE MILITARY ACADEMY FALL PARADE PART 4_YOUTUBE.NEW.01 
*SOURCE FILE: ERN_F4297_XXXX_1988_OAK RIDGE MILITARY ACADEMY FALL PARADE PART 4_YOUTUBE
000701  ERN_F4297_XXXX_1988_OAK_RIDGE_MILITARY_ACADEMY_FALL_PARADE_PART_4_YOUTUBE                                                         A18   C        00:00:06:22 00:00:09:15 00:15:43:10 00:15:46:04 
M2      ERN_F4297_XXXX_1988_OAK_RIDGE_MILITARY_ACADEMY_FALL_PARADE_PART_4_YOUTUBE                                                                  030.0 00:00:06:22 
*FROM CLIP NAME:  ERN_F4297_XXXX_1988_OAK RIDGE MILITARY ACADEMY FALL PARADE PART 4_YOUTUBE.NEW.01 
*SOURCE FILE: ERN_F4297_XXXX_1988_OAK RIDGE MILITARY ACADEMY FALL PARADE PART 4_YOUTUBE
000702  ERN_F4297_XXXX_1988_OAK_RIDGE_MILITARY_ACADEMY_FALL_PARADE_PART_4_YOUTUBE                                                         A20   C        00:00:30:26 00:00:31:27 00:15:47:09 00:15:48:09 
M2      ERN_F4297_XXXX_1988_OAK_RIDGE_MILITARY_ACADEMY_FALL_PARADE_PART_4_YOUTUBE                                                                  030.0 00:00:30:26 
*FROM CLIP NAME:  ERN_F4297_XXXX_1988_OAK RIDGE MILITARY ACADEMY FALL PARADE PART 4_YOUTUBE.NEW.01 
*SOURCE FILE: ERN_F4297_XXXX_1988_OAK RIDGE MILITARY ACADEMY FALL PARADE PART 4_YOUTUBE
000703  ERN_F4297_XXXX_1988_OAK_RIDGE_MILITARY_ACADEMY_FALL_PARADE_PART_4_YOUTUBE                                                         A20   C        00:00:31:26 00:00:34:18 00:15:48:09 00:15:51:02 
M2      ERN_F4297_XXXX_1988_OAK_RIDGE_MILITARY_ACADEMY_FALL_PARADE_PART_4_YOUTUBE                                                                  030.0 00:00:31:26 
*FROM CLIP NAME:  ERN_F4297_XXXX_1988_OAK RIDGE MILITARY ACADEMY FALL PARADE PART 4_YOUTUBE.NEW.01 
*SOURCE FILE: ERN_F4297_XXXX_1988_OAK RIDGE MILITARY ACADEMY FALL PARADE PART 4_YOUTUBE
000704  ERN_F5347_XXXX_1991_GO-KARTING_DIRT_YOUTUBE                                                                                       V     C        00:54:17:11 00:54:17:13 00:16:17:17 00:16:18:02 
M2      ERN_F5347_XXXX_1991_GO-KARTING_DIRT_YOUTUBE                                                                                               -024.0 00:54:17:11 
*FROM CLIP NAME:  ERN_F5347_XXXX_1991_GO-KARTING DIRT_YOUTUBE.NEW.01 
*SOURCE FILE: ERN_F5347_XXXX_1991_GO-KARTING DIRT_YOUTUBE
000705  ERN_F0251_NSCR_1990-04-04_4_OF_4_B-ROLL_NORTH_CAROLINA_SCENERY_&_LAKE_&_SUNRISE_SE005910_S004                                     V     C        00:10:25:02 00:10:29:00 00:16:17:19 00:16:21:17 
M2      ERN_F0251_NSCR_1990-04-04_4_OF_4_B-ROLL_NORTH_CAROLINA_SCENERY_&_LAKE_&_SUNRISE_SE005910_S004                                              030.0 00:10:25:02 
*FROM CLIP NAME:  ERN_F0251_NSCR_1990-04-04_4 OF 4 B-ROLL NORTH CAROLINA SCENERY & LAKE & SUNRISE_SE005910_S004.NEW.01 
*SOURCE FILE: ERN_F0251_NSCR_1990-04-04_4 OF 4 B-ROLL NORTH CAROLINA SCENERY & LAKE & SUNRISE_SE005910_S004
000706  ERN_F0282_NSCR_1990-04-04_8_OF_14_B-ROLL_DALE_EARNHARDT_WALKING_THROUGH_FOREST_ON_HUNTING_TRIP_SE005914_S010                      A20   C        00:42:10:28 00:42:12:29 00:16:20:05 00:16:22:05 
M2      ERN_F0282_NSCR_1990-04-04_8_OF_14_B-ROLL_DALE_EARNHARDT_WALKING_THROUGH_FOREST_ON_HUNTING_TRIP_SE005914_S010                               030.0 00:42:10:28 
*FROM CLIP NAME:  ERN_F0282_NSCR_1990-04-04_8 OF 14 B-ROLL DALE EARNHARDT WALKING THROUGH FOREST ON HUNTING TRIP_SE005914_S010.NEW.01 
*SOURCE FILE: ERN_F0282_NSCR_1990-04-04_8 OF 14 B-ROLL DALE EARNHARDT WALKING THROUGH FOREST ON HUNTING TRIP_SE005914_S010
000707  ERN_F0282_NSCR_1990-04-04_8_OF_14_B-ROLL_DALE_EARNHARDT_WALKING_THROUGH_FOREST_ON_HUNTING_TRIP_SE005914_S010                      V     C        00:42:12:13 00:42:19:14 00:16:21:17 00:16:28:17 
M2      ERN_F0282_NSCR_1990-04-04_8_OF_14_B-ROLL_DALE_EARNHARDT_WALKING_THROUGH_FOREST_ON_HUNTING_TRIP_SE005914_S010                               030.0 00:42:12:13 
*FROM CLIP NAME:  ERN_F0282_NSCR_1990-04-04_8 OF 14 B-ROLL DALE EARNHARDT WALKING THROUGH FOREST ON HUNTING TRIP_SE005914_S010.NEW.01 
*SOURCE FILE: ERN_F0282_NSCR_1990-04-04_8 OF 14 B-ROLL DALE EARNHARDT WALKING THROUGH FOREST ON HUNTING TRIP_SE005914_S010
000708  ERN_F0282_NSCR_1990-04-04_8_OF_14_B-ROLL_DALE_EARNHARDT_WALKING_THROUGH_FOREST_ON_HUNTING_TRIP_SE005914_S010                      A20   C        00:42:12:28 00:42:19:23 00:16:22:05 00:16:29:00 
M2      ERN_F0282_NSCR_1990-04-04_8_OF_14_B-ROLL_DALE_EARNHARDT_WALKING_THROUGH_FOREST_ON_HUNTING_TRIP_SE005914_S010                               030.0 00:42:12:28 
*FROM CLIP NAME:  ERN_F0282_NSCR_1990-04-04_8 OF 14 B-ROLL DALE EARNHARDT WALKING THROUGH FOREST ON HUNTING TRIP_SE005914_S010.NEW.01 
*SOURCE FILE: ERN_F0282_NSCR_1990-04-04_8 OF 14 B-ROLL DALE EARNHARDT WALKING THROUGH FOREST ON HUNTING TRIP_SE005914_S010
000709  ERN_F5155_NSCR_2004-07_DEJR_DESR_INTV_AT_SHOP_DESR_SINGLE_INTVS_DESR_AND_TERESA_AT_TRACK_TOGETHER__LGP01081                       A18   C        01:53:28:28 01:53:29:14 00:16:26:03 00:16:26:15 
M2      ERN_F5155_NSCR_2004-07_DEJR_DESR_INTV_AT_SHOP_DESR_SINGLE_INTVS_DESR_AND_TERESA_AT_TRACK_TOGETHER__LGP01081                                030.0 01:53:28:28 
*FROM CLIP NAME:  ERN_F5155_NSCR_2004-07_DESR INTV.SUB.02 
*SOURCE FILE: ERN_F5155_NSCR_2004-07_DEJR DESR INTV AT SHOP DESR SINGLE INTVS DESR AND TERESA AT TRACK TOGETHER _LGP01081
000710  ERN_F5155_NSCR_2004-07_DEJR_DESR_INTV_AT_SHOP_DESR_SINGLE_INTVS_DESR_AND_TERESA_AT_TRACK_TOGETHER__LGP01081                       A18   C        01:53:29:13 01:53:30:27 00:16:26:15 00:16:28:01 
M2      ERN_F5155_NSCR_2004-07_DEJR_DESR_INTV_AT_SHOP_DESR_SINGLE_INTVS_DESR_AND_TERESA_AT_TRACK_TOGETHER__LGP01081                                030.0 01:53:29:13 
*FROM CLIP NAME:  ERN_F5155_NSCR_2004-07_DESR INTV.SUB.02 
*SOURCE FILE: ERN_F5155_NSCR_2004-07_DEJR DESR INTV AT SHOP DESR SINGLE INTVS DESR AND TERESA AT TRACK TOGETHER _LGP01081
000711  ERN_F0280_NSCR_1990-04-04_6_OF_14_B-ROLL_DALE_EARNHARDT_WALKING_THROUGH_FIELD_ON_HUNTING_TRIP_SE005914_S008                       A22   C        00:38:43:08 00:38:44:09 00:16:28:10 00:16:29:10 
M2      ERN_F0280_NSCR_1990-04-04_6_OF_14_B-ROLL_DALE_EARNHARDT_WALKING_THROUGH_FIELD_ON_HUNTING_TRIP_SE005914_S008                                030.0 00:38:43:08 
*FROM CLIP NAME:  ERN_F0280_NSCR_1990-04-04_6 OF 14 B-ROLL DALE EARNHARDT WALKING THROUGH FIELD ON HUNTING TRIP_SE005914_S008.NEW.01 
*SOURCE FILE: ERN_F0280_NSCR_1990-04-04_6 OF 14 B-ROLL DALE EARNHARDT WALKING THROUGH FIELD ON HUNTING TRIP_SE005914_S008
000712  ERN_F0280_NSCR_1990-04-04_6_OF_14_B-ROLL_DALE_EARNHARDT_WALKING_THROUGH_FIELD_ON_HUNTING_TRIP_SE005914_S008                       V     C        00:38:43:17 00:38:48:23 00:16:28:17 00:16:33:21 
M2      ERN_F0280_NSCR_1990-04-04_6_OF_14_B-ROLL_DALE_EARNHARDT_WALKING_THROUGH_FIELD_ON_HUNTING_TRIP_SE005914_S008                                030.0 00:38:43:17 
*FROM CLIP NAME:  ERN_F0280_NSCR_1990-04-04_6 OF 14 B-ROLL DALE EARNHARDT WALKING THROUGH FIELD ON HUNTING TRIP_SE005914_S008.NEW.01 
*SOURCE FILE: ERN_F0280_NSCR_1990-04-04_6 OF 14 B-ROLL DALE EARNHARDT WALKING THROUGH FIELD ON HUNTING TRIP_SE005914_S008
000713  ERN_F0282_NSCR_1990-04-04_8_OF_14_B-ROLL_DALE_EARNHARDT_WALKING_THROUGH_FOREST_ON_HUNTING_TRIP_SE005914_S010                      A20   C        00:42:17:26 00:42:18:17 00:16:29:00 00:16:29:16 
M2      ERN_F0282_NSCR_1990-04-04_8_OF_14_B-ROLL_DALE_EARNHARDT_WALKING_THROUGH_FOREST_ON_HUNTING_TRIP_SE005914_S010                               030.0 00:42:17:26 
*FROM CLIP NAME:  ERN_F0282_NSCR_1990-04-04_8 OF 14 B-ROLL DALE EARNHARDT WALKING THROUGH FOREST ON HUNTING TRIP_SE005914_S010.NEW.01 
*TO CLIP NAME:  ERN_F0282_NSCR_1990-04-04_8 OF 14 B-ROLL DALE EARNHARDT WALKING THROUGH FOREST ON HUNTING TRIP_SE005914_S010.NEW.01 
*SOURCE FILE: ERN_F0282_NSCR_1990-04-04_8 OF 14 B-ROLL DALE EARNHARDT WALKING THROUGH FOREST ON HUNTING TRIP_SE005914_S010
000714  ERN_F0280_NSCR_1990-04-04_6_OF_14_B-ROLL_DALE_EARNHARDT_WALKING_THROUGH_FIELD_ON_HUNTING_TRIP_SE005914_S008                       A22   C        00:38:44:08 00:38:48:20 00:16:29:10 00:16:33:19 
M2      ERN_F0280_NSCR_1990-04-04_6_OF_14_B-ROLL_DALE_EARNHARDT_WALKING_THROUGH_FIELD_ON_HUNTING_TRIP_SE005914_S008                                030.0 00:38:44:08 
*FROM CLIP NAME:  ERN_F0280_NSCR_1990-04-04_6 OF 14 B-ROLL DALE EARNHARDT WALKING THROUGH FIELD ON HUNTING TRIP_SE005914_S008.NEW.01 
*SOURCE FILE: ERN_F0280_NSCR_1990-04-04_6 OF 14 B-ROLL DALE EARNHARDT WALKING THROUGH FIELD ON HUNTING TRIP_SE005914_S008
000715  ERN_F0282_NSCR_1990-04-04_8_OF_14_B-ROLL_DALE_EARNHARDT_WALKING_THROUGH_FOREST_ON_HUNTING_TRIP_SE005914_S010                      A20   C        00:42:18:16 00:42:23:00 00:16:29:16 00:16:34:03 
M2      ERN_F0282_NSCR_1990-04-04_8_OF_14_B-ROLL_DALE_EARNHARDT_WALKING_THROUGH_FOREST_ON_HUNTING_TRIP_SE005914_S010                               030.0 00:42:18:16 
*FROM CLIP NAME:  ERN_F0282_NSCR_1990-04-04_8 OF 14 B-ROLL DALE EARNHARDT WALKING THROUGH FOREST ON HUNTING TRIP_SE005914_S010.NEW.01 
*SOURCE FILE: ERN_F0282_NSCR_1990-04-04_8 OF 14 B-ROLL DALE EARNHARDT WALKING THROUGH FOREST ON HUNTING TRIP_SE005914_S010
000716  ERN_F0447_NSCR_2005-10-17_INTV_B-ROLL_DALE_EARNHARDT_ON_FARM_TOPICS_-_CONFIDENCE_IN_RACING_&_FANS_&_WRECKING_PEOPLE_FP000954      A18   C        00:14:51:14 00:14:52:00 00:16:30:07 00:16:30:19 
M2      ERN_F0447_NSCR_2005-10-17_INTV_B-ROLL_DALE_EARNHARDT_ON_FARM_TOPICS_-_CONFIDENCE_IN_RACING_&_FANS_&_WRECKING_PEOPLE_FP000954               030.0 00:14:51:14 
*FROM CLIP NAME:  ERN_F0447_NSCR_2005-10-17_INTV B-ROLL DALE EARNHARDT ON FARM TOPICS - CONFIDENCE IN RACING & FANS & WRECKING PEOPLE_FP000954.NEW.01 
*SOURCE FILE: ERN_F0447_NSCR_2005-10-17_INTV B-ROLL DALE EARNHARDT ON FARM TOPICS - CONFIDENCE IN RACING & FANS & WRECKING PEOPLE_FP000954
000717  ERN_F0447_NSCR_2005-10-17_INTV_B-ROLL_DALE_EARNHARDT_ON_FARM_TOPICS_-_CONFIDENCE_IN_RACING_&_FANS_&_WRECKING_PEOPLE_FP000954      A18   C        00:14:51:29 00:14:54:07 00:16:30:19 00:16:33:01 
M2      ERN_F0447_NSCR_2005-10-17_INTV_B-ROLL_DALE_EARNHARDT_ON_FARM_TOPICS_-_CONFIDENCE_IN_RACING_&_FANS_&_WRECKING_PEOPLE_FP000954               030.0 00:14:51:29 
*FROM CLIP NAME:  ERN_F0447_NSCR_2005-10-17_INTV B-ROLL DALE EARNHARDT ON FARM TOPICS - CONFIDENCE IN RACING & FANS & WRECKING PEOPLE_FP000954.NEW.01 
*SOURCE FILE: ERN_F0447_NSCR_2005-10-17_INTV B-ROLL DALE EARNHARDT ON FARM TOPICS - CONFIDENCE IN RACING & FANS & WRECKING PEOPLE_FP000954
000718  ERN_F0447_NSCR_2005-10-17_INTV_B-ROLL_DALE_EARNHARDT_ON_FARM_TOPICS_-_CONFIDENCE_IN_RACING_&_FANS_&_WRECKING_PEOPLE_FP000954      A18   C        00:14:55:00 00:14:55:06 00:16:33:01 00:16:33:05 
M2      ERN_F0447_NSCR_2005-10-17_INTV_B-ROLL_DALE_EARNHARDT_ON_FARM_TOPICS_-_CONFIDENCE_IN_RACING_&_FANS_&_WRECKING_PEOPLE_FP000954               030.0 00:14:55:00 
*FROM CLIP NAME:  ERN_F0447_NSCR_2005-10-17_INTV B-ROLL DALE EARNHARDT ON FARM TOPICS - CONFIDENCE IN RACING & FANS & WRECKING PEOPLE_FP000954.NEW.01 
*TO CLIP NAME:  ERN_F0447_NSCR_2005-10-17_INTV B-ROLL DALE EARNHARDT ON FARM TOPICS - CONFIDENCE IN RACING & FANS & WRECKING PEOPLE_FP000954.NEW.01 
*SOURCE FILE: ERN_F0447_NSCR_2005-10-17_INTV B-ROLL DALE EARNHARDT ON FARM TOPICS - CONFIDENCE IN RACING & FANS & WRECKING PEOPLE_FP000954
000719  ERN_F0447_NSCR_2005-10-17_INTV_B-ROLL_DALE_EARNHARDT_ON_FARM_TOPICS_-_CONFIDENCE_IN_RACING_&_FANS_&_WRECKING_PEOPLE_FP000954      A18   C        00:14:55:05 00:14:57:05 00:16:33:05 00:16:35:04 
M2      ERN_F0447_NSCR_2005-10-17_INTV_B-ROLL_DALE_EARNHARDT_ON_FARM_TOPICS_-_CONFIDENCE_IN_RACING_&_FANS_&_WRECKING_PEOPLE_FP000954               030.0 00:14:55:05 
*FROM CLIP NAME:  ERN_F0447_NSCR_2005-10-17_INTV B-ROLL DALE EARNHARDT ON FARM TOPICS - CONFIDENCE IN RACING & FANS & WRECKING PEOPLE_FP000954.NEW.01 
*SOURCE FILE: ERN_F0447_NSCR_2005-10-17_INTV B-ROLL DALE EARNHARDT ON FARM TOPICS - CONFIDENCE IN RACING & FANS & WRECKING PEOPLE_FP000954
000720  ERN_F0280_NSCR_1990-04-04_6_OF_14_B-ROLL_DALE_EARNHARDT_WALKING_THROUGH_FIELD_ON_HUNTING_TRIP_SE005914_S008                       A24   C        00:39:06:24 00:39:07:25 00:16:33:13 00:16:34:13 
M2      ERN_F0280_NSCR_1990-04-04_6_OF_14_B-ROLL_DALE_EARNHARDT_WALKING_THROUGH_FIELD_ON_HUNTING_TRIP_SE005914_S008                                030.0 00:39:06:24 
*FROM CLIP NAME:  ERN_F0280_NSCR_1990-04-04_6 OF 14 B-ROLL DALE EARNHARDT WALKING THROUGH FIELD ON HUNTING TRIP_SE005914_S008.NEW.01 
*SOURCE FILE: ERN_F0280_NSCR_1990-04-04_6 OF 14 B-ROLL DALE EARNHARDT WALKING THROUGH FIELD ON HUNTING TRIP_SE005914_S008
000721  ERN_F0280_NSCR_1990-04-04_6_OF_14_B-ROLL_DALE_EARNHARDT_WALKING_THROUGH_FIELD_ON_HUNTING_TRIP_SE005914_S008                       V     C        00:39:07:04 00:39:12:05 00:16:33:21 00:16:38:21 
M2      ERN_F0280_NSCR_1990-04-04_6_OF_14_B-ROLL_DALE_EARNHARDT_WALKING_THROUGH_FIELD_ON_HUNTING_TRIP_SE005914_S008                                030.0 00:39:07:04 
*FROM CLIP NAME:  ERN_F0280_NSCR_1990-04-04_6 OF 14 B-ROLL DALE EARNHARDT WALKING THROUGH FIELD ON HUNTING TRIP_SE005914_S008.NEW.01 
*SOURCE FILE: ERN_F0280_NSCR_1990-04-04_6 OF 14 B-ROLL DALE EARNHARDT WALKING THROUGH FIELD ON HUNTING TRIP_SE005914_S008
000722  ERN_F0280_NSCR_1990-04-04_6_OF_14_B-ROLL_DALE_EARNHARDT_WALKING_THROUGH_FIELD_ON_HUNTING_TRIP_SE005914_S008                       A24   C        00:39:07:24 00:39:13:09 00:16:34:13 00:16:40:00 
M2      ERN_F0280_NSCR_1990-04-04_6_OF_14_B-ROLL_DALE_EARNHARDT_WALKING_THROUGH_FIELD_ON_HUNTING_TRIP_SE005914_S008                                030.0 00:39:07:24 
*FROM CLIP NAME:  ERN_F0280_NSCR_1990-04-04_6 OF 14 B-ROLL DALE EARNHARDT WALKING THROUGH FIELD ON HUNTING TRIP_SE005914_S008.NEW.01 
*SOURCE FILE: ERN_F0280_NSCR_1990-04-04_6 OF 14 B-ROLL DALE EARNHARDT WALKING THROUGH FIELD ON HUNTING TRIP_SE005914_S008
000723  ERN_F0447_NSCR_2005-10-17_INTV_B-ROLL_DALE_EARNHARDT_ON_FARM_TOPICS_-_CONFIDENCE_IN_RACING_&_FANS_&_WRECKING_PEOPLE_FP000954      A18   C        00:15:30:06 00:15:30:09 00:16:35:04 00:16:35:06 
M2      ERN_F0447_NSCR_2005-10-17_INTV_B-ROLL_DALE_EARNHARDT_ON_FARM_TOPICS_-_CONFIDENCE_IN_RACING_&_FANS_&_WRECKING_PEOPLE_FP000954               030.0 00:15:30:06 
*FROM CLIP NAME:  ERN_F0447_NSCR_2005-10-17_INTV B-ROLL DALE EARNHARDT ON FARM TOPICS - CONFIDENCE IN RACING & FANS & WRECKING PEOPLE_FP000954.NEW.01 
*TO CLIP NAME:  ERN_F0447_NSCR_2005-10-17_INTV B-ROLL DALE EARNHARDT ON FARM TOPICS - CONFIDENCE IN RACING & FANS & WRECKING PEOPLE_FP000954.NEW.01 
*SOURCE FILE: ERN_F0447_NSCR_2005-10-17_INTV B-ROLL DALE EARNHARDT ON FARM TOPICS - CONFIDENCE IN RACING & FANS & WRECKING PEOPLE_FP000954
000724  ERN_F0447_NSCR_2005-10-17_INTV_B-ROLL_DALE_EARNHARDT_ON_FARM_TOPICS_-_CONFIDENCE_IN_RACING_&_FANS_&_WRECKING_PEOPLE_FP000954      A18   C        00:15:30:09 00:15:30:22 00:16:35:06 00:16:35:16 
M2      ERN_F0447_NSCR_2005-10-17_INTV_B-ROLL_DALE_EARNHARDT_ON_FARM_TOPICS_-_CONFIDENCE_IN_RACING_&_FANS_&_WRECKING_PEOPLE_FP000954               030.0 00:15:30:09 
*FROM CLIP NAME:  ERN_F0447_NSCR_2005-10-17_INTV B-ROLL DALE EARNHARDT ON FARM TOPICS - CONFIDENCE IN RACING & FANS & WRECKING PEOPLE_FP000954.NEW.01 
*SOURCE FILE: ERN_F0447_NSCR_2005-10-17_INTV B-ROLL DALE EARNHARDT ON FARM TOPICS - CONFIDENCE IN RACING & FANS & WRECKING PEOPLE_FP000954
000725  ERN_F0447_NSCR_2005-10-17_INTV_B-ROLL_DALE_EARNHARDT_ON_FARM_TOPICS_-_CONFIDENCE_IN_RACING_&_FANS_&_WRECKING_PEOPLE_FP000954      A18   C        00:14:58:18 00:14:58:21 00:16:35:16 00:16:35:18 
M2      ERN_F0447_NSCR_2005-10-17_INTV_B-ROLL_DALE_EARNHARDT_ON_FARM_TOPICS_-_CONFIDENCE_IN_RACING_&_FANS_&_WRECKING_PEOPLE_FP000954               030.0 00:14:58:18 
*FROM CLIP NAME:  ERN_F0447_NSCR_2005-10-17_INTV B-ROLL DALE EARNHARDT ON FARM TOPICS - CONFIDENCE IN RACING & FANS & WRECKING PEOPLE_FP000954.NEW.01 
*TO CLIP NAME:  ERN_F0447_NSCR_2005-10-17_INTV B-ROLL DALE EARNHARDT ON FARM TOPICS - CONFIDENCE IN RACING & FANS & WRECKING PEOPLE_FP000954.NEW.01 
*SOURCE FILE: ERN_F0447_NSCR_2005-10-17_INTV B-ROLL DALE EARNHARDT ON FARM TOPICS - CONFIDENCE IN RACING & FANS & WRECKING PEOPLE_FP000954
000726  ERN_F0447_NSCR_2005-10-17_INTV_B-ROLL_DALE_EARNHARDT_ON_FARM_TOPICS_-_CONFIDENCE_IN_RACING_&_FANS_&_WRECKING_PEOPLE_FP000954      A18   C        00:14:58:20 00:14:59:04 00:16:35:18 00:16:36:04 
M2      ERN_F0447_NSCR_2005-10-17_INTV_B-ROLL_DALE_EARNHARDT_ON_FARM_TOPICS_-_CONFIDENCE_IN_RACING_&_FANS_&_WRECKING_PEOPLE_FP000954               030.0 00:14:58:20 
*FROM CLIP NAME:  ERN_F0447_NSCR_2005-10-17_INTV B-ROLL DALE EARNHARDT ON FARM TOPICS - CONFIDENCE IN RACING & FANS & WRECKING PEOPLE_FP000954.NEW.01 
*SOURCE FILE: ERN_F0447_NSCR_2005-10-17_INTV B-ROLL DALE EARNHARDT ON FARM TOPICS - CONFIDENCE IN RACING & FANS & WRECKING PEOPLE_FP000954
000727  ERN_F0447_NSCR_2005-10-17_INTV_B-ROLL_DALE_EARNHARDT_ON_FARM_TOPICS_-_CONFIDENCE_IN_RACING_&_FANS_&_WRECKING_PEOPLE_FP000954      A18   C        00:15:30:05 00:15:30:08 00:16:36:04 00:16:36:06 
M2      ERN_F0447_NSCR_2005-10-17_INTV_B-ROLL_DALE_EARNHARDT_ON_FARM_TOPICS_-_CONFIDENCE_IN_RACING_&_FANS_&_WRECKING_PEOPLE_FP000954               030.0 00:15:30:05 
*FROM CLIP NAME:  ERN_F0447_NSCR_2005-10-17_INTV B-ROLL DALE EARNHARDT ON FARM TOPICS - CONFIDENCE IN RACING & FANS & WRECKING PEOPLE_FP000954.NEW.01 
*TO CLIP NAME:  ERN_F0447_NSCR_2005-10-17_INTV B-ROLL DALE EARNHARDT ON FARM TOPICS - CONFIDENCE IN RACING & FANS & WRECKING PEOPLE_FP000954.NEW.01 
*SOURCE FILE: ERN_F0447_NSCR_2005-10-17_INTV B-ROLL DALE EARNHARDT ON FARM TOPICS - CONFIDENCE IN RACING & FANS & WRECKING PEOPLE_FP000954
000728  ERN_F0447_NSCR_2005-10-17_INTV_B-ROLL_DALE_EARNHARDT_ON_FARM_TOPICS_-_CONFIDENCE_IN_RACING_&_FANS_&_WRECKING_PEOPLE_FP000954      A18   C        00:15:30:07 00:15:30:11 00:16:36:06 00:16:36:08 
M2      ERN_F0447_NSCR_2005-10-17_INTV_B-ROLL_DALE_EARNHARDT_ON_FARM_TOPICS_-_CONFIDENCE_IN_RACING_&_FANS_&_WRECKING_PEOPLE_FP000954               030.0 00:15:30:07 
*FROM CLIP NAME:  ERN_F0447_NSCR_2005-10-17_INTV B-ROLL DALE EARNHARDT ON FARM TOPICS - CONFIDENCE IN RACING & FANS & WRECKING PEOPLE_FP000954.NEW.01 
*SOURCE FILE: ERN_F0447_NSCR_2005-10-17_INTV B-ROLL DALE EARNHARDT ON FARM TOPICS - CONFIDENCE IN RACING & FANS & WRECKING PEOPLE_FP000954
000729  ERN_F0447_NSCR_2005-10-17_INTV_B-ROLL_DALE_EARNHARDT_ON_FARM_TOPICS_-_CONFIDENCE_IN_RACING_&_FANS_&_WRECKING_PEOPLE_FP000954      A18   C        00:14:57:05 00:14:57:09 00:16:36:08 00:16:36:10 
M2      ERN_F0447_NSCR_2005-10-17_INTV_B-ROLL_DALE_EARNHARDT_ON_FARM_TOPICS_-_CONFIDENCE_IN_RACING_&_FANS_&_WRECKING_PEOPLE_FP000954               030.0 00:14:57:05 
*FROM CLIP NAME:  ERN_F0447_NSCR_2005-10-17_INTV B-ROLL DALE EARNHARDT ON FARM TOPICS - CONFIDENCE IN RACING & FANS & WRECKING PEOPLE_FP000954.NEW.01 
*TO CLIP NAME:  ERN_F0447_NSCR_2005-10-17_INTV B-ROLL DALE EARNHARDT ON FARM TOPICS - CONFIDENCE IN RACING & FANS & WRECKING PEOPLE_FP000954.NEW.01 
*SOURCE FILE: ERN_F0447_NSCR_2005-10-17_INTV B-ROLL DALE EARNHARDT ON FARM TOPICS - CONFIDENCE IN RACING & FANS & WRECKING PEOPLE_FP000954
000730  ERN_F0447_NSCR_2005-10-17_INTV_B-ROLL_DALE_EARNHARDT_ON_FARM_TOPICS_-_CONFIDENCE_IN_RACING_&_FANS_&_WRECKING_PEOPLE_FP000954      A18   C        00:14:57:08 00:14:58:19 00:16:36:10 00:16:37:18 
M2      ERN_F0447_NSCR_2005-10-17_INTV_B-ROLL_DALE_EARNHARDT_ON_FARM_TOPICS_-_CONFIDENCE_IN_RACING_&_FANS_&_WRECKING_PEOPLE_FP000954               030.0 00:14:57:08 
*FROM CLIP NAME:  ERN_F0447_NSCR_2005-10-17_INTV B-ROLL DALE EARNHARDT ON FARM TOPICS - CONFIDENCE IN RACING & FANS & WRECKING PEOPLE_FP000954.NEW.01 
*SOURCE FILE: ERN_F0447_NSCR_2005-10-17_INTV B-ROLL DALE EARNHARDT ON FARM TOPICS - CONFIDENCE IN RACING & FANS & WRECKING PEOPLE_FP000954
000731  ERN_F0277_NSCR_1990-04-04_3_OF_14_B-ROLL_DALE_EARNHARDT_SITTING_&_SCENERY_SE005914_S004                                           A20   C        00:27:19:15 00:27:23:16 00:16:36:23 00:16:40:23 
M2      ERN_F0277_NSCR_1990-04-04_3_OF_14_B-ROLL_DALE_EARNHARDT_SITTING_&_SCENERY_SE005914_S004                                                    030.0 00:27:19:15 
*FROM CLIP NAME:  ERN_F0277_NSCR_1990-04-04_3 OF 14 B-ROLL DALE EARNHARDT SITTING & SCENERY_SE005914_S004.NEW.01 
*SOURCE FILE: ERN_F0277_NSCR_1990-04-04_3 OF 14 B-ROLL DALE EARNHARDT SITTING & SCENERY_SE005914_S004
000732  ERN_F0447_NSCR_2005-10-17_INTV_B-ROLL_DALE_EARNHARDT_ON_FARM_TOPICS_-_CONFIDENCE_IN_RACING_&_FANS_&_WRECKING_PEOPLE_FP000954      A18   C        00:15:30:06 00:15:30:09 00:16:37:18 00:16:37:20 
M2      ERN_F0447_NSCR_2005-10-17_INTV_B-ROLL_DALE_EARNHARDT_ON_FARM_TOPICS_-_CONFIDENCE_IN_RACING_&_FANS_&_WRECKING_PEOPLE_FP000954               030.0 00:15:30:06 
*FROM CLIP NAME:  ERN_F0447_NSCR_2005-10-17_INTV B-ROLL DALE EARNHARDT ON FARM TOPICS - CONFIDENCE IN RACING & FANS & WRECKING PEOPLE_FP000954.NEW.01 
*TO CLIP NAME:  ERN_F0447_NSCR_2005-10-17_INTV B-ROLL DALE EARNHARDT ON FARM TOPICS - CONFIDENCE IN RACING & FANS & WRECKING PEOPLE_FP000954.NEW.01 
*SOURCE FILE: ERN_F0447_NSCR_2005-10-17_INTV B-ROLL DALE EARNHARDT ON FARM TOPICS - CONFIDENCE IN RACING & FANS & WRECKING PEOPLE_FP000954
000733  ERN_F0277_NSCR_1990-04-04_3_OF_14_B-ROLL_DALE_EARNHARDT_SITTING_&_SCENERY_SE005914_S004                                           V     C        00:27:20:04 00:27:24:17 00:16:38:21 00:16:43:07 
M2      ERN_F0277_NSCR_1990-04-04_3_OF_14_B-ROLL_DALE_EARNHARDT_SITTING_&_SCENERY_SE005914_S004                                                    030.0 00:27:20:04 
*FROM CLIP NAME:  ERN_F0277_NSCR_1990-04-04_3 OF 14 B-ROLL DALE EARNHARDT SITTING & SCENERY_SE005914_S004.NEW.01 
*SOURCE FILE: ERN_F0277_NSCR_1990-04-04_3 OF 14 B-ROLL DALE EARNHARDT SITTING & SCENERY_SE005914_S004
000734  ERN_F0277_NSCR_1990-04-04_3_OF_14_B-ROLL_DALE_EARNHARDT_SITTING_&_SCENERY_SE005914_S004                                           A20   C        00:27:23:15 00:27:25:19 00:16:40:23 00:16:43:01 
M2      ERN_F0277_NSCR_1990-04-04_3_OF_14_B-ROLL_DALE_EARNHARDT_SITTING_&_SCENERY_SE005914_S004                                                    030.0 00:27:23:15 
*FROM CLIP NAME:  ERN_F0277_NSCR_1990-04-04_3 OF 14 B-ROLL DALE EARNHARDT SITTING & SCENERY_SE005914_S004.NEW.01 
*SOURCE FILE: ERN_F0277_NSCR_1990-04-04_3 OF 14 B-ROLL DALE EARNHARDT SITTING & SCENERY_SE005914_S004
000735  ERN_F0266_NSCR_1990-04-04_11_OF_13_CAM_A_BTS_DALE_EARNHARDT_DRIVING_ON_HUNTING_TRIP_SE005912_S012                                 A20   C        01:25:21:13 01:25:22:06 00:16:43:01 00:16:43:19 
M2      ERN_F0266_NSCR_1990-04-04_11_OF_13_CAM_A_BTS_DALE_EARNHARDT_DRIVING_ON_HUNTING_TRIP_SE005912_S012                                          030.0 01:25:21:13 
*FROM CLIP NAME:  ERN_F0266_NSCR_1990-04-04_11 OF 13 CAM A BTS DALE EARNHARDT DRIVING ON HUNTING TRIP_SE005912_S012.NEW.01 
*TO CLIP NAME:  ERN_F0277_NSCR_1990-04-04_3 OF 14 B-ROLL DALE EARNHARDT SITTING & SCENERY_SE005914_S004.NEW.01 
*SOURCE FILE: ERN_F0266_NSCR_1990-04-04_11 OF 13 CAM A BTS DALE EARNHARDT DRIVING ON HUNTING TRIP_SE005912_S012
000736  ERN_F0266_NSCR_1990-04-04_11_OF_13_CAM_A_BTS_DALE_EARNHARDT_DRIVING_ON_HUNTING_TRIP_SE005912_S012                                 V     C        01:25:15:01 01:25:21:12 00:16:43:07 00:16:51:05 
M2      ERN_F0266_NSCR_1990-04-04_11_OF_13_CAM_A_BTS_DALE_EARNHARDT_DRIVING_ON_HUNTING_TRIP_SE005912_S012                                          024.0 01:25:15:01 
*FROM CLIP NAME:  ERN_F0266_NSCR_1990-04-04_11 OF 13 CAM A BTS DALE EARNHARDT DRIVING ON HUNTING TRIP_SE005912_S012.NEW.01 
*SOURCE FILE: ERN_F0266_NSCR_1990-04-04_11 OF 13 CAM A BTS DALE EARNHARDT DRIVING ON HUNTING TRIP_SE005912_S012
000737  ERN_F0266_NSCR_1990-04-04_11_OF_13_CAM_A_BTS_DALE_EARNHARDT_DRIVING_ON_HUNTING_TRIP_SE005912_S012                                 A20   C        01:25:22:06 01:25:30:09 00:16:43:19 00:16:51:21 
M2      ERN_F0266_NSCR_1990-04-04_11_OF_13_CAM_A_BTS_DALE_EARNHARDT_DRIVING_ON_HUNTING_TRIP_SE005912_S012                                          030.0 01:25:22:06 
*FROM CLIP NAME:  ERN_F0266_NSCR_1990-04-04_11 OF 13 CAM A BTS DALE EARNHARDT DRIVING ON HUNTING TRIP_SE005912_S012.NEW.01 
*SOURCE FILE: ERN_F0266_NSCR_1990-04-04_11 OF 13 CAM A BTS DALE EARNHARDT DRIVING ON HUNTING TRIP_SE005912_S012
000738  ERN_F1741_NSCR_1997-10-04_CHARLOTTE_MOTOR_SPEEDWAY_INTV_DESR_1997-NAS-00027_S001                                                  A18   C        08:04:05:07 08:04:05:16 00:16:45:07 00:16:45:13 
M2      ERN_F1741_NSCR_1997-10-04_CHARLOTTE_MOTOR_SPEEDWAY_INTV_DESR_1997-NAS-00027_S001                                                           030.0 08:04:05:07 
*FROM CLIP NAME:  ERN_F1741_NSCR_1997-10-04_CHARLOTTE MOTOR SPEEDWAY INTV DESR_1997-NAS-00027_S001.NEW.01 
*SOURCE FILE: ERN_F1741_NSCR_1997-10-04_CHARLOTTE MOTOR SPEEDWAY INTV DESR_1997-NAS-00027_S001
000739  ERN_F1741_NSCR_1997-10-04_CHARLOTTE_MOTOR_SPEEDWAY_INTV_DESR_1997-NAS-00027_S001                                                  A18   C        08:04:05:15 08:04:09:24 00:16:45:13 00:16:49:20 
M2      ERN_F1741_NSCR_1997-10-04_CHARLOTTE_MOTOR_SPEEDWAY_INTV_DESR_1997-NAS-00027_S001                                                           030.0 08:04:05:15 
*FROM CLIP NAME:  ERN_F1741_NSCR_1997-10-04_CHARLOTTE MOTOR SPEEDWAY INTV DESR_1997-NAS-00027_S001.NEW.01 
*SOURCE FILE: ERN_F1741_NSCR_1997-10-04_CHARLOTTE MOTOR SPEEDWAY INTV DESR_1997-NAS-00027_S001
000740  ERN_F0800_NSCR_1987-05-17_RACE_DESR_WINNER_BILL_ELLIOTT_CHARLOTTE_-_THE_WINSTON_87-EV-0287                                        A22   C        00:50:06:11 00:50:07:27 00:16:49:20 00:16:51:08 
M2      ERN_F0800_NSCR_1987-05-17_RACE_DESR_WINNER_BILL_ELLIOTT_CHARLOTTE_-_THE_WINSTON_87-EV-0287                                                 030.0 00:50:06:11 
*FROM CLIP NAME:  ERN_F0800_NSCR_1987-05-17_RACE DESR WINNER BILL ELLIOTT CHARLOTTE - THE WINSTON_87-EV-0287.NEW.01 
*SOURCE FILE: ERN_F0800_NSCR_1987-05-17_RACE DESR WINNER BILL ELLIOTT CHARLOTTE - THE WINSTON_87-EV-0287
000741  ERN_F0800_NSCR_1987-05-17_RACE_DESR_WINNER_BILL_ELLIOTT_CHARLOTTE_-_THE_WINSTON_87-EV-0287                                        A24   C        00:50:08:28 00:50:09:14 00:16:50:22 00:16:51:10 
M2      ERN_F0800_NSCR_1987-05-17_RACE_DESR_WINNER_BILL_ELLIOTT_CHARLOTTE_-_THE_WINSTON_87-EV-0287                                                 030.0 00:50:08:28 
*FROM CLIP NAME:  ERN_F0800_NSCR_1987-05-17_RACE DESR WINNER BILL ELLIOTT CHARLOTTE - THE WINSTON_87-EV-0287.NEW.01 
*SOURCE FILE: ERN_F0800_NSCR_1987-05-17_RACE DESR WINNER BILL ELLIOTT CHARLOTTE - THE WINSTON_87-EV-0287
000742  ERN_F1095_NSCR_1986-11-02_PART_3_OF_3_RACE_INTV_ESPN_DESR_VS_DARRELL_WALTRIP_WINSTON_CUP_CHAMPIONSHIP_86-EV-0362                  V     C        01:52:07:22 01:52:09:07 00:16:51:05 00:16:52:16 
M2      ERN_F1095_NSCR_1986-11-02_PART_3_OF_3_RACE_INTV_ESPN_DESR_VS_DARRELL_WALTRIP_WINSTON_CUP_CHAMPIONSHIP_86-EV-0362                           030.0 01:52:07:22 
*FROM CLIP NAME:  ERN_F1095_NSCR_1986-11-02_PART 3 OF 3 RACE INTV ESPN DESR VS DARRELL WALTRIP WINSTON CUP CHAMPIONSHIP_86-EV-0362.NEW.01 
*SOURCE FILE: ERN_F1095_NSCR_1986-11-02_PART 3 OF 3 RACE INTV ESPN DESR VS DARRELL WALTRIP WINSTON CUP CHAMPIONSHIP_86-EV-0362
000743  ERN_F0800_NSCR_1987-05-17_RACE_DESR_WINNER_BILL_ELLIOTT_CHARLOTTE_-_THE_WINSTON_87-EV-0287                                        A22   C        00:50:07:26 00:50:07:29 00:16:51:08 00:16:51:10 
M2      ERN_F0800_NSCR_1987-05-17_RACE_DESR_WINNER_BILL_ELLIOTT_CHARLOTTE_-_THE_WINSTON_87-EV-0287                                                 030.0 00:50:07:26 
*FROM CLIP NAME:  ERN_F0800_NSCR_1987-05-17_RACE DESR WINNER BILL ELLIOTT CHARLOTTE - THE WINSTON_87-EV-0287.NEW.01 
*SOURCE FILE: ERN_F0800_NSCR_1987-05-17_RACE DESR WINNER BILL ELLIOTT CHARLOTTE - THE WINSTON_87-EV-0287
000744  ERN_F0800_NSCR_1987-05-17_RACE_DESR_WINNER_BILL_ELLIOTT_CHARLOTTE_-_THE_WINSTON_87-EV-0287                                        A24   C        00:50:09:13 00:50:10:19 00:16:51:10 00:16:52:14 
M2      ERN_F0800_NSCR_1987-05-17_RACE_DESR_WINNER_BILL_ELLIOTT_CHARLOTTE_-_THE_WINSTON_87-EV-0287                                                 030.0 00:50:09:13 
*FROM CLIP NAME:  ERN_F0800_NSCR_1987-05-17_RACE DESR WINNER BILL ELLIOTT CHARLOTTE - THE WINSTON_87-EV-0287.NEW.01 
*SOURCE FILE: ERN_F0800_NSCR_1987-05-17_RACE DESR WINNER BILL ELLIOTT CHARLOTTE - THE WINSTON_87-EV-0287
000745  ERN_F2030_NSCR_1986_RACE_B-ROLL_DESR_NO3_CRASHES_&_FLY-BYS_W_TERESA_EARNHARDT_KIRK_SHELMERDINE_RICHARD_CHILDRESS_&_CREW_SE005734  V     C        02:06:13:04 02:06:14:07 00:16:52:16 00:16:53:18 
M2      ERN_F2030_NSCR_1986_RACE_B-ROLL_DESR_NO3_CRASHES_&_FLY-BYS_W_TERESA_EARNHARDT_KIRK_SHELMERDINE_RICHARD_CHILDRESS_&_CREW_SE005734           030.0 02:06:13:04 
*FROM CLIP NAME:  ERN_F2030_NSCR_1986_RACE B-ROLL DESR NO3 CRASHES & FLY-BYS W TERESA EARNHARDT KIRK SHELMERDINE RICHARD CHILDRESS & CREW_SE005734.NEW.01 
*SOURCE FILE: ERN_F2030_NSCR_1986_RACE B-ROLL DESR NO3 CRASHES & FLY-BYS W TERESA EARNHARDT KIRK SHELMERDINE RICHARD CHILDRESS & CREW_SE005734
000746  ERN_F2660_NSCR_1987_RACE_B-ROLL_FILM_CHARLOTTE_AC_DELCO_500_IN_CAR_POV_DESR_FLY-BYS_1987-NAS-00107_S003                           V     C        00:11:41:10 00:11:42:12 00:16:53:18 00:16:54:19 
M2      ERN_F2660_NSCR_1987_RACE_B-ROLL_FILM_CHARLOTTE_AC_DELCO_500_IN_CAR_POV_DESR_FLY-BYS_1987-NAS-00107_S003                                    024.0 00:11:41:10 
*FROM CLIP NAME:  ERN_F2660_NSCR_1987_RACE B-ROLL FILM CHARLOTTE AC DELCO 500 IN CAR POV DESR FLY-BYS_1987-NAS-00107_S003.NEW.01 
*SOURCE FILE: ERN_F2660_NSCR_1987_RACE B-ROLL FILM CHARLOTTE AC DELCO 500 IN CAR POV DESR FLY-BYS_1987-NAS-00107_S003
000747  ERN_F0267_NSCR_1990-04-04_12_OF_13_CAM_A_B-ROLL_DALE_EARNHARDT_SILHOUETTE_IN_SE005912_S014                                        V     C        01:28:56:26 01:29:00:19 00:16:54:19 00:16:58:11 
M2      ERN_F0267_NSCR_1990-04-04_12_OF_13_CAM_A_B-ROLL_DALE_EARNHARDT_SILHOUETTE_IN_SE005912_S014                                                 030.0 01:28:56:26 
*FROM CLIP NAME:  ERN_F0267_NSCR_1990-04-04_12 OF 13 CAM A B-ROLL DALE EARNHARDT SILHOUETTE IN_SE005912_S014.NEW.01 
*SOURCE FILE: ERN_F0267_NSCR_1990-04-04_12 OF 13 CAM A B-ROLL DALE EARNHARDT SILHOUETTE IN_SE005912_S014
000748  ERN_F9703_NSCR_1988-07-01_RACE_INTV_DESR_IROC_WATKINS_GLEN_FEATURE_1988-NAS-00098_S001                                            A18   C        14:45:42:25 14:45:43:04 00:16:56:06 00:16:56:12 
M2      ERN_F9703_NSCR_1988-07-01_RACE_INTV_DESR_IROC_WATKINS_GLEN_FEATURE_1988-NAS-00098_S001                                                     030.0 14:45:42:25 
*FROM CLIP NAME:  ERN_F9703_NSCR_1988-07-01_RACE INTV DESR IROC WATKINS GLEN FEATURE_1988-NAS-00098_S001.NEW.01 
*SOURCE FILE: ERN_F9703_NSCR_1988-07-01_RACE INTV DESR IROC WATKINS GLEN FEATURE_1988-NAS-00098_S001
000749  ERN_F9703_NSCR_1988-07-01_RACE_INTV_DESR_IROC_WATKINS_GLEN_FEATURE_1988-NAS-00098_S001                                            A18   C        14:45:43:03 14:45:47:15 00:16:56:12 00:17:00:21 
M2      ERN_F9703_NSCR_1988-07-01_RACE_INTV_DESR_IROC_WATKINS_GLEN_FEATURE_1988-NAS-00098_S001                                                     030.0 14:45:43:03 
*FROM CLIP NAME:  ERN_F9703_NSCR_1988-07-01_RACE INTV DESR IROC WATKINS GLEN FEATURE_1988-NAS-00098_S001.NEW.01 
*SOURCE FILE: ERN_F9703_NSCR_1988-07-01_RACE INTV DESR IROC WATKINS GLEN FEATURE_1988-NAS-00098_S001
000750  ERN_F0277_NSCR_1990-04-04_3_OF_14_B-ROLL_DALE_EARNHARDT_SITTING_&_SCENERY_SE005914_S004                                           V     C        00:27:44:15 00:27:51:14 00:16:58:11 00:17:05:09 
M2      ERN_F0277_NSCR_1990-04-04_3_OF_14_B-ROLL_DALE_EARNHARDT_SITTING_&_SCENERY_SE005914_S004                                                    030.0 00:27:44:15 
*FROM CLIP NAME:  ERN_F0277_NSCR_1990-04-04_3 OF 14 B-ROLL DALE EARNHARDT SITTING & SCENERY_SE005914_S004.NEW.01 
*SOURCE FILE: ERN_F0277_NSCR_1990-04-04_3 OF 14 B-ROLL DALE EARNHARDT SITTING & SCENERY_SE005914_S004
000751  ERN_F0267_NSCR_1990-04-04_12_OF_13_CAM_A_B-ROLL_DALE_EARNHARDT_SILHOUETTE_IN_SE005912_S014                                        V     C        01:30:42:17 01:30:46:15 00:17:11:12 00:17:15:10 
M2      ERN_F0267_NSCR_1990-04-04_12_OF_13_CAM_A_B-ROLL_DALE_EARNHARDT_SILHOUETTE_IN_SE005912_S014                                                 030.0 01:30:42:17 
*FROM CLIP NAME:  ERN_F0267_NSCR_1990-04-04_12 OF 13 CAM A B-ROLL DALE EARNHARDT SILHOUETTE IN_SE005912_S014.NEW.01 
*SOURCE FILE: ERN_F0267_NSCR_1990-04-04_12 OF 13 CAM A B-ROLL DALE EARNHARDT SILHOUETTE IN_SE005912_S014
000752  ERN_F0253_NSCR_1990-04-04_2_OF_4_B-ROLL_MORNING_EARNHARDT_FARM_SCENES_SE005911_S002                                               V     C        00:02:47:20 00:02:51:07 00:17:15:10 00:17:18:23 
M2      ERN_F0253_NSCR_1990-04-04_2_OF_4_B-ROLL_MORNING_EARNHARDT_FARM_SCENES_SE005911_S002                                                        030.0 00:02:47:20 
*FROM CLIP NAME:  ERN_F0253_NSCR_1990-04-04_2 OF 4 B-ROLL MORNING EARNHARDT FARM SCENES_SE005911_S002.NEW.01 
*SOURCE FILE: ERN_F0253_NSCR_1990-04-04_2 OF 4 B-ROLL MORNING EARNHARDT FARM SCENES_SE005911_S002
000753  ERN_F0785_NSCR_1986-02-23_RACE_DESR_AND_DARRELL_WALTRIP_CRASH_NASCAR_CUP_SERIES_-_RICHMOND_TNN001790                              A18   C        00:06:11:21 00:06:13:07 00:17:25:17 00:17:27:05 
M2      ERN_F0785_NSCR_1986-02-23_RACE_DESR_AND_DARRELL_WALTRIP_CRASH_NASCAR_CUP_SERIES_-_RICHMOND_TNN001790                                       030.0 00:06:11:21 
*FROM CLIP NAME:  ERN_F0785_NSCR_1986-02-23_RACE DESR AND DARRELL WALTRIP CRASH NASCAR CUP SERIES - RICHMOND_TNN001790.NEW.01 
*SOURCE FILE: ERN_F0785_NSCR_1986-02-23_RACE DESR AND DARRELL WALTRIP CRASH NASCAR CUP SERIES - RICHMOND_TNN001790
000754  ERN_F0638_NSCR_1979-02-18_DESR_RACE_ROOKIE_SEASON_DOES_A_BIG_PASS_NASCAR_CUP_SERIES_-_DAYTONA_500_79-EV-0020                      V     C        02:06:38:02 02:06:40:21 00:17:26:02 00:17:28:17 
M2      ERN_F0638_NSCR_1979-02-18_DESR_RACE_ROOKIE_SEASON_DOES_A_BIG_PASS_NASCAR_CUP_SERIES_-_DAYTONA_500_79-EV-0020                               030.0 02:06:38:02 
*FROM CLIP NAME:  ERN_F0638_NSCR_1979-02-18_DESR RACE ROOKIE SEASON DOES A BIG PASS NASCAR CUP SERIES - DAYTONA 500_79-EV-0020.NEW.01 
*SOURCE FILE: ERN_F0638_NSCR_1979-02-18_DESR RACE ROOKIE SEASON DOES A BIG PASS NASCAR CUP SERIES - DAYTONA 500_79-EV-0020
000755  ERN_F0785_NSCR_1986-02-23_RACE_DESR_AND_DARRELL_WALTRIP_CRASH_NASCAR_CUP_SERIES_-_RICHMOND_TNN001790                              A18   C        00:06:13:06 00:06:13:08 00:17:27:05 00:17:27:06 
M2      ERN_F0785_NSCR_1986-02-23_RACE_DESR_AND_DARRELL_WALTRIP_CRASH_NASCAR_CUP_SERIES_-_RICHMOND_TNN001790                                       030.0 00:06:13:06 
*FROM CLIP NAME:  ERN_F0785_NSCR_1986-02-23_RACE DESR AND DARRELL WALTRIP CRASH NASCAR CUP SERIES - RICHMOND_TNN001790.NEW.01 
*SOURCE FILE: ERN_F0785_NSCR_1986-02-23_RACE DESR AND DARRELL WALTRIP CRASH NASCAR CUP SERIES - RICHMOND_TNN001790
000756  ERN_F0785_NSCR_1986-02-23_RACE_DESR_AND_DARRELL_WALTRIP_CRASH_NASCAR_CUP_SERIES_-_RICHMOND_TNN001790                              A18   C        00:06:13:08 00:06:14:18 00:17:27:06 00:17:28:14 
M2      ERN_F0785_NSCR_1986-02-23_RACE_DESR_AND_DARRELL_WALTRIP_CRASH_NASCAR_CUP_SERIES_-_RICHMOND_TNN001790                                       030.0 00:06:13:08 
*FROM CLIP NAME:  ERN_F0785_NSCR_1986-02-23_RACE DESR AND DARRELL WALTRIP CRASH NASCAR CUP SERIES - RICHMOND_TNN001790.NEW.01 
*TO CLIP NAME:  ERN_F0785_NSCR_1986-02-23_RACE DESR AND DARRELL WALTRIP CRASH NASCAR CUP SERIES - RICHMOND_TNN001790.NEW.01 
*SOURCE FILE: ERN_F0785_NSCR_1986-02-23_RACE DESR AND DARRELL WALTRIP CRASH NASCAR CUP SERIES - RICHMOND_TNN001790
000757  ERN_F0785_NSCR_1986-02-23_RACE_DESR_AND_DARRELL_WALTRIP_CRASH_NASCAR_CUP_SERIES_-_RICHMOND_TNN001790                              A18   C        00:06:14:18 00:06:15:21 00:17:28:14 00:17:29:16 
M2      ERN_F0785_NSCR_1986-02-23_RACE_DESR_AND_DARRELL_WALTRIP_CRASH_NASCAR_CUP_SERIES_-_RICHMOND_TNN001790                                       030.0 00:06:14:18 
*FROM CLIP NAME:  ERN_F0785_NSCR_1986-02-23_RACE DESR AND DARRELL WALTRIP CRASH NASCAR CUP SERIES - RICHMOND_TNN001790.NEW.01 
*SOURCE FILE: ERN_F0785_NSCR_1986-02-23_RACE DESR AND DARRELL WALTRIP CRASH NASCAR CUP SERIES - RICHMOND_TNN001790
000758  ERN_F0638_NSCR_1979-02-18_DESR_RACE_ROOKIE_SEASON_DOES_A_BIG_PASS_NASCAR_CUP_SERIES_-_DAYTONA_500_79-EV-0020                      V     C        02:07:15:15 02:07:24:13 00:17:28:17 00:17:37:15 
M2      ERN_F0638_NSCR_1979-02-18_DESR_RACE_ROOKIE_SEASON_DOES_A_BIG_PASS_NASCAR_CUP_SERIES_-_DAYTONA_500_79-EV-0020                               030.0 02:07:15:15 
*FROM CLIP NAME:  ERN_F0638_NSCR_1979-02-18_DESR RACE ROOKIE SEASON DOES A BIG PASS NASCAR CUP SERIES - DAYTONA 500_79-EV-0020.NEW.01 
*SOURCE FILE: ERN_F0638_NSCR_1979-02-18_DESR RACE ROOKIE SEASON DOES A BIG PASS NASCAR CUP SERIES - DAYTONA 500_79-EV-0020
000759  ERN_F9703_NSCR_1988-07-01_RACE_INTV_DESR_IROC_WATKINS_GLEN_FEATURE_1988-NAS-00098_S001                                            A18   C        14:45:47:24 14:45:48:00 00:17:33:01 00:17:33:05 
M2      ERN_F9703_NSCR_1988-07-01_RACE_INTV_DESR_IROC_WATKINS_GLEN_FEATURE_1988-NAS-00098_S001                                                     030.0 14:45:47:24 
*FROM CLIP NAME:  ERN_F9703_NSCR_1988-07-01_RACE INTV DESR IROC WATKINS GLEN FEATURE_1988-NAS-00098_S001.NEW.01 
*SOURCE FILE: ERN_F9703_NSCR_1988-07-01_RACE INTV DESR IROC WATKINS GLEN FEATURE_1988-NAS-00098_S001
000760  ERN_F9703_NSCR_1988-07-01_RACE_INTV_DESR_IROC_WATKINS_GLEN_FEATURE_1988-NAS-00098_S001                                            A18   C        14:45:47:29 14:45:49:02 00:17:33:05 00:17:34:07 
M2      ERN_F9703_NSCR_1988-07-01_RACE_INTV_DESR_IROC_WATKINS_GLEN_FEATURE_1988-NAS-00098_S001                                                     030.0 14:45:47:29 
*FROM CLIP NAME:  ERN_F9703_NSCR_1988-07-01_RACE INTV DESR IROC WATKINS GLEN FEATURE_1988-NAS-00098_S001.NEW.01 
*SOURCE FILE: ERN_F9703_NSCR_1988-07-01_RACE INTV DESR IROC WATKINS GLEN FEATURE_1988-NAS-00098_S001
000761  ERN_F9703_NSCR_1988-07-01_RACE_INTV_DESR_IROC_WATKINS_GLEN_FEATURE_1988-NAS-00098_S001                                            A18   C        14:45:49:24 14:45:50:00 00:17:34:07 00:17:34:11 
M2      ERN_F9703_NSCR_1988-07-01_RACE_INTV_DESR_IROC_WATKINS_GLEN_FEATURE_1988-NAS-00098_S001                                                     030.0 14:45:49:24 
*FROM CLIP NAME:  ERN_F9703_NSCR_1988-07-01_RACE INTV DESR IROC WATKINS GLEN FEATURE_1988-NAS-00098_S001.NEW.01 
*TO CLIP NAME:  ERN_F9703_NSCR_1988-07-01_RACE INTV DESR IROC WATKINS GLEN FEATURE_1988-NAS-00098_S001.NEW.01 
*SOURCE FILE: ERN_F9703_NSCR_1988-07-01_RACE INTV DESR IROC WATKINS GLEN FEATURE_1988-NAS-00098_S001
000762  ERN_F9703_NSCR_1988-07-01_RACE_INTV_DESR_IROC_WATKINS_GLEN_FEATURE_1988-NAS-00098_S001                                            A18   C        14:45:49:29 14:45:51:22 00:17:34:11 00:17:36:05 
M2      ERN_F9703_NSCR_1988-07-01_RACE_INTV_DESR_IROC_WATKINS_GLEN_FEATURE_1988-NAS-00098_S001                                                     030.0 14:45:49:29 
*FROM CLIP NAME:  ERN_F9703_NSCR_1988-07-01_RACE INTV DESR IROC WATKINS GLEN FEATURE_1988-NAS-00098_S001.NEW.01 
*SOURCE FILE: ERN_F9703_NSCR_1988-07-01_RACE INTV DESR IROC WATKINS GLEN FEATURE_1988-NAS-00098_S001
000763  ERN_F9703_NSCR_1988-07-01_RACE_INTV_DESR_IROC_WATKINS_GLEN_FEATURE_1988-NAS-00098_S001                                            A18   C        14:51:12:00 14:51:12:04 00:17:36:05 00:17:36:07 
M2      ERN_F9703_NSCR_1988-07-01_RACE_INTV_DESR_IROC_WATKINS_GLEN_FEATURE_1988-NAS-00098_S001                                                     030.0 14:51:12:00 
*FROM CLIP NAME:  ERN_F9703_NSCR_1988-07-01_RACE INTV DESR IROC WATKINS GLEN FEATURE_1988-NAS-00098_S001.NEW.01 
*TO CLIP NAME:  ERN_F9703_NSCR_1988-07-01_RACE INTV DESR IROC WATKINS GLEN FEATURE_1988-NAS-00098_S001.NEW.01 
*SOURCE FILE: ERN_F9703_NSCR_1988-07-01_RACE INTV DESR IROC WATKINS GLEN FEATURE_1988-NAS-00098_S001
000764  ERN_F9703_NSCR_1988-07-01_RACE_INTV_DESR_IROC_WATKINS_GLEN_FEATURE_1988-NAS-00098_S001                                            A18   C        14:51:12:03 14:51:12:09 00:17:36:07 00:17:36:11 
M2      ERN_F9703_NSCR_1988-07-01_RACE_INTV_DESR_IROC_WATKINS_GLEN_FEATURE_1988-NAS-00098_S001                                                     030.0 14:51:12:03 
*FROM CLIP NAME:  ERN_F9703_NSCR_1988-07-01_RACE INTV DESR IROC WATKINS GLEN FEATURE_1988-NAS-00098_S001.NEW.01 
*SOURCE FILE: ERN_F9703_NSCR_1988-07-01_RACE INTV DESR IROC WATKINS GLEN FEATURE_1988-NAS-00098_S001
000765  ERN_F9703_NSCR_1988-07-01_RACE_INTV_DESR_IROC_WATKINS_GLEN_FEATURE_1988-NAS-00098_S001                                            A18   C        14:45:53:23 14:45:53:29 00:17:37:04 00:17:37:08 
M2      ERN_F9703_NSCR_1988-07-01_RACE_INTV_DESR_IROC_WATKINS_GLEN_FEATURE_1988-NAS-00098_S001                                                     030.0 14:45:53:23 
*FROM CLIP NAME:  ERN_F9703_NSCR_1988-07-01_RACE INTV DESR IROC WATKINS GLEN FEATURE_1988-NAS-00098_S001.NEW.01 
*SOURCE FILE: ERN_F9703_NSCR_1988-07-01_RACE INTV DESR IROC WATKINS GLEN FEATURE_1988-NAS-00098_S001
000766  ERN_F9703_NSCR_1988-07-01_RACE_INTV_DESR_IROC_WATKINS_GLEN_FEATURE_1988-NAS-00098_S001                                            A18   C        14:45:53:28 14:45:57:14 00:17:37:08 00:17:40:20 
M2      ERN_F9703_NSCR_1988-07-01_RACE_INTV_DESR_IROC_WATKINS_GLEN_FEATURE_1988-NAS-00098_S001                                                     030.0 14:45:53:28 
*FROM CLIP NAME:  ERN_F9703_NSCR_1988-07-01_RACE INTV DESR IROC WATKINS GLEN FEATURE_1988-NAS-00098_S001.NEW.01 
*SOURCE FILE: ERN_F9703_NSCR_1988-07-01_RACE INTV DESR IROC WATKINS GLEN FEATURE_1988-NAS-00098_S001
000767  ERN_F9703_NSCR_1988-07-01_RACE_INTV_DESR_IROC_WATKINS_GLEN_FEATURE_1988-NAS-00098_S001                                            V     C        14:45:54:05 14:45:58:02 00:17:37:15 00:17:41:15 
M2      ERN_F9703_NSCR_1988-07-01_RACE_INTV_DESR_IROC_WATKINS_GLEN_FEATURE_1988-NAS-00098_S001                                                     029.0 14:45:54:05 
*FROM CLIP NAME:  ERN_F9703_NSCR_1988-07-01_RACE INTV DESR IROC WATKINS GLEN FEATURE_1988-NAS-00098_S001.NEW.01 
*SOURCE FILE: ERN_F9703_NSCR_1988-07-01_RACE INTV DESR IROC WATKINS GLEN FEATURE_1988-NAS-00098_S001
000768  ERN_F0302_NSCR_1990-04-04_B-ROLL_RICHARD_CHILDRESS_RACING_ENTERPRISES_INC_EXTERIOR__SE005939_S002                                 V     C        00:54:38:20 00:54:47:17 00:17:41:15 00:17:49:19 
M2      ERN_F0302_NSCR_1990-04-04_B-ROLL_RICHARD_CHILDRESS_RACING_ENTERPRISES_INC_EXTERIOR__SE005939_S002                                          032.7 00:54:38:20 
*FROM CLIP NAME:  ERN_F0302_NSCR_1990-04-04_B-ROLL RICHARD CHILDRESS RACING ENTERPRISES INC EXTERIOR _SE005939_S002.NEW.01 
*SOURCE FILE: ERN_F0302_NSCR_1990-04-04_B-ROLL RICHARD CHILDRESS RACING ENTERPRISES INC EXTERIOR _SE005939_S002
000769  ERN_F5123_NSCR_1992_CHILDRESS_GARAGE-DESR_NO3_GOODWRENCH_CAR_MECHANICS_CAR_PARTS_B-ROLL_ISC-00201                                 A20   C        01:05:46:26 01:05:47:27 00:17:47:10 00:17:48:10 
M2      ERN_F5123_NSCR_1992_CHILDRESS_GARAGE-DESR_NO3_GOODWRENCH_CAR_MECHANICS_CAR_PARTS_B-ROLL_ISC-00201                                          030.0 01:05:46:26 
*FROM CLIP NAME:  ERN_F5123_NSCR_1992_CHILDRESS GARAGE-DESR NO3 GOODWRENCH CAR MECHANICS CAR PARTS B-ROLL_ISC-00201.NEW.01 
*SOURCE FILE: ERN_F5123_NSCR_1992_CHILDRESS GARAGE-DESR NO3 GOODWRENCH CAR MECHANICS CAR PARTS B-ROLL_ISC-00201
000770  ERN_F5123_NSCR_1992_CHILDRESS_GARAGE-DESR_NO3_GOODWRENCH_CAR_MECHANICS_CAR_PARTS_B-ROLL_ISC-00201                                 A18   C        01:05:17:26 01:05:18:27 00:17:48:09 00:17:49:09 
M2      ERN_F5123_NSCR_1992_CHILDRESS_GARAGE-DESR_NO3_GOODWRENCH_CAR_MECHANICS_CAR_PARTS_B-ROLL_ISC-00201                                          030.0 01:05:17:26 
*FROM CLIP NAME:  ERN_F5123_NSCR_1992_CHILDRESS GARAGE-DESR NO3 GOODWRENCH CAR MECHANICS CAR PARTS B-ROLL_ISC-00201.NEW.01 
*SOURCE FILE: ERN_F5123_NSCR_1992_CHILDRESS GARAGE-DESR NO3 GOODWRENCH CAR MECHANICS CAR PARTS B-ROLL_ISC-00201
000771  ERN_F5123_NSCR_1992_CHILDRESS_GARAGE-DESR_NO3_GOODWRENCH_CAR_MECHANICS_CAR_PARTS_B-ROLL_ISC-00201                                 A20   C        01:05:47:26 01:05:53:10 00:17:48:10 00:17:53:20 
M2      ERN_F5123_NSCR_1992_CHILDRESS_GARAGE-DESR_NO3_GOODWRENCH_CAR_MECHANICS_CAR_PARTS_B-ROLL_ISC-00201                                          030.0 01:05:47:26 
*FROM CLIP NAME:  ERN_F5123_NSCR_1992_CHILDRESS GARAGE-DESR NO3 GOODWRENCH CAR MECHANICS CAR PARTS B-ROLL_ISC-00201.NEW.01 
*SOURCE FILE: ERN_F5123_NSCR_1992_CHILDRESS GARAGE-DESR NO3 GOODWRENCH CAR MECHANICS CAR PARTS B-ROLL_ISC-00201
000772  ERN_F5123_NSCR_1992_CHILDRESS_GARAGE-DESR_NO3_GOODWRENCH_CAR_MECHANICS_CAR_PARTS_B-ROLL_ISC-00201                                 A18   C        01:05:18:26 01:05:21:13 00:17:49:09 00:17:51:22 
M2      ERN_F5123_NSCR_1992_CHILDRESS_GARAGE-DESR_NO3_GOODWRENCH_CAR_MECHANICS_CAR_PARTS_B-ROLL_ISC-00201                                          030.0 01:05:18:26 
*FROM CLIP NAME:  ERN_F5123_NSCR_1992_CHILDRESS GARAGE-DESR NO3 GOODWRENCH CAR MECHANICS CAR PARTS B-ROLL_ISC-00201.NEW.01 
*SOURCE FILE: ERN_F5123_NSCR_1992_CHILDRESS GARAGE-DESR NO3 GOODWRENCH CAR MECHANICS CAR PARTS B-ROLL_ISC-00201
000773  ERN_F5123_NSCR_1992_CHILDRESS_GARAGE-DESR_NO3_GOODWRENCH_CAR_MECHANICS_CAR_PARTS_B-ROLL_ISC-00201                                 V     C        01:05:19:06 01:05:22:01 00:17:49:19 00:17:52:14 
M2      ERN_F5123_NSCR_1992_CHILDRESS_GARAGE-DESR_NO3_GOODWRENCH_CAR_MECHANICS_CAR_PARTS_B-ROLL_ISC-00201                                          030.0 01:05:19:06 
*FROM CLIP NAME:  ERN_F5123_NSCR_1992_CHILDRESS GARAGE-DESR NO3 GOODWRENCH CAR MECHANICS CAR PARTS B-ROLL_ISC-00201.NEW.01 
*SOURCE FILE: ERN_F5123_NSCR_1992_CHILDRESS GARAGE-DESR NO3 GOODWRENCH CAR MECHANICS CAR PARTS B-ROLL_ISC-00201
000774  ERN_F5123_NSCR_1992_CHILDRESS_GARAGE-DESR_NO3_GOODWRENCH_CAR_MECHANICS_CAR_PARTS_B-ROLL_ISC-00201                                 A18   C        01:05:40:29 01:05:42:00 00:17:51:22 00:17:52:22 
M2      ERN_F5123_NSCR_1992_CHILDRESS_GARAGE-DESR_NO3_GOODWRENCH_CAR_MECHANICS_CAR_PARTS_B-ROLL_ISC-00201                                          030.0 01:05:40:29 
*FROM CLIP NAME:  ERN_F5123_NSCR_1992_CHILDRESS GARAGE-DESR NO3 GOODWRENCH CAR MECHANICS CAR PARTS B-ROLL_ISC-00201.NEW.01 
*TO CLIP NAME:  ERN_F5123_NSCR_1992_CHILDRESS GARAGE-DESR NO3 GOODWRENCH CAR MECHANICS CAR PARTS B-ROLL_ISC-00201.NEW.01 
*SOURCE FILE: ERN_F5123_NSCR_1992_CHILDRESS GARAGE-DESR NO3 GOODWRENCH CAR MECHANICS CAR PARTS B-ROLL_ISC-00201
000775  ERN_F5123_NSCR_1992_CHILDRESS_GARAGE-DESR_NO3_GOODWRENCH_CAR_MECHANICS_CAR_PARTS_B-ROLL_ISC-00201                                 V     C        01:05:41:06 01:05:44:27 00:17:52:14 00:17:56:06 
M2      ERN_F5123_NSCR_1992_CHILDRESS_GARAGE-DESR_NO3_GOODWRENCH_CAR_MECHANICS_CAR_PARTS_B-ROLL_ISC-00201                                          030.0 01:05:41:06 
*FROM CLIP NAME:  ERN_F5123_NSCR_1992_CHILDRESS GARAGE-DESR NO3 GOODWRENCH CAR MECHANICS CAR PARTS B-ROLL_ISC-00201.NEW.01 
*SOURCE FILE: ERN_F5123_NSCR_1992_CHILDRESS GARAGE-DESR NO3 GOODWRENCH CAR MECHANICS CAR PARTS B-ROLL_ISC-00201
000776  ERN_F5123_NSCR_1992_CHILDRESS_GARAGE-DESR_NO3_GOODWRENCH_CAR_MECHANICS_CAR_PARTS_B-ROLL_ISC-00201                                 A18   C        01:05:41:29 01:05:44:26 00:17:52:22 00:17:55:19 
M2      ERN_F5123_NSCR_1992_CHILDRESS_GARAGE-DESR_NO3_GOODWRENCH_CAR_MECHANICS_CAR_PARTS_B-ROLL_ISC-00201                                          030.0 01:05:41:29 
*FROM CLIP NAME:  ERN_F5123_NSCR_1992_CHILDRESS GARAGE-DESR NO3 GOODWRENCH CAR MECHANICS CAR PARTS B-ROLL_ISC-00201.NEW.01 
*SOURCE FILE: ERN_F5123_NSCR_1992_CHILDRESS GARAGE-DESR NO3 GOODWRENCH CAR MECHANICS CAR PARTS B-ROLL_ISC-00201
000777  ERN_F5123_NSCR_1992_CHILDRESS_GARAGE-DESR_NO3_GOODWRENCH_CAR_MECHANICS_CAR_PARTS_B-ROLL_ISC-00201                                 A24   C        01:07:00:24 01:07:01:02 00:17:58:05 00:17:58:11 
M2      ERN_F5123_NSCR_1992_CHILDRESS_GARAGE-DESR_NO3_GOODWRENCH_CAR_MECHANICS_CAR_PARTS_B-ROLL_ISC-00201                                          030.0 01:07:00:24 
*FROM CLIP NAME:  ERN_F5123_NSCR_1992_CHILDRESS GARAGE-DESR NO3 GOODWRENCH CAR MECHANICS CAR PARTS B-ROLL_ISC-00201.NEW.01 
*SOURCE FILE: ERN_F5123_NSCR_1992_CHILDRESS GARAGE-DESR NO3 GOODWRENCH CAR MECHANICS CAR PARTS B-ROLL_ISC-00201
000778  ERN_F5123_NSCR_1992_CHILDRESS_GARAGE-DESR_NO3_GOODWRENCH_CAR_MECHANICS_CAR_PARTS_B-ROLL_ISC-00201                                 V     C        01:07:00:28 01:07:03:00 00:17:58:08 00:18:00:09 
M2      ERN_F5123_NSCR_1992_CHILDRESS_GARAGE-DESR_NO3_GOODWRENCH_CAR_MECHANICS_CAR_PARTS_B-ROLL_ISC-00201                                          030.0 01:07:00:28 
*FROM CLIP NAME:  ERN_F5123_NSCR_1992_CHILDRESS GARAGE-DESR NO3 GOODWRENCH CAR MECHANICS CAR PARTS B-ROLL_ISC-00201.NEW.01 
*SOURCE FILE: ERN_F5123_NSCR_1992_CHILDRESS GARAGE-DESR NO3 GOODWRENCH CAR MECHANICS CAR PARTS B-ROLL_ISC-00201
000779  ERN_F5123_NSCR_1992_CHILDRESS_GARAGE-DESR_NO3_GOODWRENCH_CAR_MECHANICS_CAR_PARTS_B-ROLL_ISC-00201                                 A24   C        01:07:01:02 01:07:03:04 00:17:58:11 00:18:00:12 
M2      ERN_F5123_NSCR_1992_CHILDRESS_GARAGE-DESR_NO3_GOODWRENCH_CAR_MECHANICS_CAR_PARTS_B-ROLL_ISC-00201                                          030.0 01:07:01:02 
*FROM CLIP NAME:  ERN_F5123_NSCR_1992_CHILDRESS GARAGE-DESR NO3 GOODWRENCH CAR MECHANICS CAR PARTS B-ROLL_ISC-00201.NEW.01 
*SOURCE FILE: ERN_F5123_NSCR_1992_CHILDRESS GARAGE-DESR NO3 GOODWRENCH CAR MECHANICS CAR PARTS B-ROLL_ISC-00201
000780  ERN_F5123_NSCR_1992_CHILDRESS_GARAGE-DESR_NO3_GOODWRENCH_CAR_MECHANICS_CAR_PARTS_B-ROLL_ISC-00201                                 A18   C        01:09:16:04 01:09:17:20 00:17:59:12 00:18:01:00 
M2      ERN_F5123_NSCR_1992_CHILDRESS_GARAGE-DESR_NO3_GOODWRENCH_CAR_MECHANICS_CAR_PARTS_B-ROLL_ISC-00201                                          030.0 01:09:16:04 
*FROM CLIP NAME:  ERN_F5123_NSCR_1992_CHILDRESS GARAGE-DESR NO3 GOODWRENCH CAR MECHANICS CAR PARTS B-ROLL_ISC-00201.NEW.01 
*SOURCE FILE: ERN_F5123_NSCR_1992_CHILDRESS GARAGE-DESR NO3 GOODWRENCH CAR MECHANICS CAR PARTS B-ROLL_ISC-00201
000781  ERN_F5123_NSCR_1992_CHILDRESS_GARAGE-DESR_NO3_GOODWRENCH_CAR_MECHANICS_CAR_PARTS_B-ROLL_ISC-00201                                 A22   C        01:02:44:00 01:02:45:11 00:18:00:09 00:18:01:17 
M2      ERN_F5123_NSCR_1992_CHILDRESS_GARAGE-DESR_NO3_GOODWRENCH_CAR_MECHANICS_CAR_PARTS_B-ROLL_ISC-00201                                          030.0 01:02:44:00 
*FROM CLIP NAME:  ERN_F5123_NSCR_1992_CHILDRESS GARAGE-DESR NO3 GOODWRENCH CAR MECHANICS CAR PARTS B-ROLL_ISC-00201.NEW.01 
*SOURCE FILE: ERN_F5123_NSCR_1992_CHILDRESS GARAGE-DESR NO3 GOODWRENCH CAR MECHANICS CAR PARTS B-ROLL_ISC-00201
000782  ERN_F5123_NSCR_1992_CHILDRESS_GARAGE-DESR_NO3_GOODWRENCH_CAR_MECHANICS_CAR_PARTS_B-ROLL_ISC-00201                                 V     C        01:01:47:08 01:01:51:17 00:18:00:09 00:18:03:23 
M2      ERN_F5123_NSCR_1992_CHILDRESS_GARAGE-DESR_NO3_GOODWRENCH_CAR_MECHANICS_CAR_PARTS_B-ROLL_ISC-00201                                          036.0 01:01:47:08 
*FROM CLIP NAME:  ERN_F5123_NSCR_1992_CHILDRESS GARAGE-DESR NO3 GOODWRENCH CAR MECHANICS CAR PARTS B-ROLL_ISC-00201.NEW.01 
*SOURCE FILE: ERN_F5123_NSCR_1992_CHILDRESS GARAGE-DESR NO3 GOODWRENCH CAR MECHANICS CAR PARTS B-ROLL_ISC-00201
000783  ERN_F5123_NSCR_1992_CHILDRESS_GARAGE-DESR_NO3_GOODWRENCH_CAR_MECHANICS_CAR_PARTS_B-ROLL_ISC-00201                                 A24   C        01:04:28:26 01:04:29:24 00:18:00:12 00:18:01:10 
M2      ERN_F5123_NSCR_1992_CHILDRESS_GARAGE-DESR_NO3_GOODWRENCH_CAR_MECHANICS_CAR_PARTS_B-ROLL_ISC-00201                                          030.0 01:04:28:26 
*FROM CLIP NAME:  ERN_F5123_NSCR_1992_CHILDRESS GARAGE-DESR NO3 GOODWRENCH CAR MECHANICS CAR PARTS B-ROLL_ISC-00201.NEW.01 
*SOURCE FILE: ERN_F5123_NSCR_1992_CHILDRESS GARAGE-DESR NO3 GOODWRENCH CAR MECHANICS CAR PARTS B-ROLL_ISC-00201
000784  ERN_F5123_NSCR_1992_CHILDRESS_GARAGE-DESR_NO3_GOODWRENCH_CAR_MECHANICS_CAR_PARTS_B-ROLL_ISC-00201                                 A20   C        01:09:16:04 01:09:18:23 00:18:00:19 00:18:03:09 
M2      ERN_F5123_NSCR_1992_CHILDRESS_GARAGE-DESR_NO3_GOODWRENCH_CAR_MECHANICS_CAR_PARTS_B-ROLL_ISC-00201                                          030.0 01:09:16:04 
*FROM CLIP NAME:  ERN_F5123_NSCR_1992_CHILDRESS GARAGE-DESR NO3 GOODWRENCH CAR MECHANICS CAR PARTS B-ROLL_ISC-00201.NEW.01 
*SOURCE FILE: ERN_F5123_NSCR_1992_CHILDRESS GARAGE-DESR NO3 GOODWRENCH CAR MECHANICS CAR PARTS B-ROLL_ISC-00201
000785  ERN_F5123_NSCR_1992_CHILDRESS_GARAGE-DESR_NO3_GOODWRENCH_CAR_MECHANICS_CAR_PARTS_B-ROLL_ISC-00201                                 A18   C        01:09:17:27 01:09:18:23 00:18:01:00 00:18:01:20 
M2      ERN_F5123_NSCR_1992_CHILDRESS_GARAGE-DESR_NO3_GOODWRENCH_CAR_MECHANICS_CAR_PARTS_B-ROLL_ISC-00201                                          030.0 01:09:17:27 
*FROM CLIP NAME:  ERN_F5123_NSCR_1992_CHILDRESS GARAGE-DESR NO3 GOODWRENCH CAR MECHANICS CAR PARTS B-ROLL_ISC-00201.NEW.01 
*SOURCE FILE: ERN_F5123_NSCR_1992_CHILDRESS GARAGE-DESR NO3 GOODWRENCH CAR MECHANICS CAR PARTS B-ROLL_ISC-00201
000786  ERN_F5123_NSCR_1992_CHILDRESS_GARAGE-DESR_NO3_GOODWRENCH_CAR_MECHANICS_CAR_PARTS_B-ROLL_ISC-00201                                 A24   C        01:04:37:14 01:04:39:29 00:18:01:10 00:18:03:21 
M2      ERN_F5123_NSCR_1992_CHILDRESS_GARAGE-DESR_NO3_GOODWRENCH_CAR_MECHANICS_CAR_PARTS_B-ROLL_ISC-00201                                          030.0 01:04:37:14 
*FROM CLIP NAME:  ERN_F5123_NSCR_1992_CHILDRESS GARAGE-DESR NO3 GOODWRENCH CAR MECHANICS CAR PARTS B-ROLL_ISC-00201.NEW.01 
*SOURCE FILE: ERN_F5123_NSCR_1992_CHILDRESS GARAGE-DESR NO3 GOODWRENCH CAR MECHANICS CAR PARTS B-ROLL_ISC-00201
000787  ERN_F5123_NSCR_1992_CHILDRESS_GARAGE-DESR_NO3_GOODWRENCH_CAR_MECHANICS_CAR_PARTS_B-ROLL_ISC-00201                                 A22   C        01:02:45:10 01:02:47:16 00:18:01:17 00:18:03:21 
M2      ERN_F5123_NSCR_1992_CHILDRESS_GARAGE-DESR_NO3_GOODWRENCH_CAR_MECHANICS_CAR_PARTS_B-ROLL_ISC-00201                                          030.0 01:02:45:10 
*FROM CLIP NAME:  ERN_F5123_NSCR_1992_CHILDRESS GARAGE-DESR NO3 GOODWRENCH CAR MECHANICS CAR PARTS B-ROLL_ISC-00201.NEW.01 
*SOURCE FILE: ERN_F5123_NSCR_1992_CHILDRESS GARAGE-DESR NO3 GOODWRENCH CAR MECHANICS CAR PARTS B-ROLL_ISC-00201
000788  ERN_F9114_NSCR_1988-01-15_INTVS_&_B-ROLL_RCR_GARAGES_SEGMENT_DESR_CHILDRESS_KIRK_GOODWRENCH_NEW_SPONSOR_LGP02351                  A18   C        00:01:12:28 00:01:13:19 00:18:03:11 00:18:04:03 
M2      ERN_F9114_NSCR_1988-01-15_INTVS_&_B-ROLL_RCR_GARAGES_SEGMENT_DESR_CHILDRESS_KIRK_GOODWRENCH_NEW_SPONSOR_LGP02351                           030.0 00:01:12:28 
*FROM CLIP NAME:  ERN_F9114_NSCR_1988-01-15_INTVS & B-ROLL RCR GARAGES SEGMENT DESR CHILDRESS KIRK GOODWRENCH NEW SPONSOR_LGP02351.NEW.01 
*SOURCE FILE: ERN_F9114_NSCR_1988-01-15_INTVS & B-ROLL RCR GARAGES SEGMENT DESR CHILDRESS KIRK GOODWRENCH NEW SPONSOR_LGP02351
000789  ERN_F9114_NSCR_1988-01-15_INTVS_&_B-ROLL_RCR_GARAGES_SEGMENT_DESR_CHILDRESS_KIRK_GOODWRENCH_NEW_SPONSOR_LGP02351                  V     C        00:01:12:27 00:01:14:27 00:18:03:23 00:18:05:22 
M2      ERN_F9114_NSCR_1988-01-15_INTVS_&_B-ROLL_RCR_GARAGES_SEGMENT_DESR_CHILDRESS_KIRK_GOODWRENCH_NEW_SPONSOR_LGP02351                           030.0 00:01:12:27 
*FROM CLIP NAME:  ERN_F9114_NSCR_1988-01-15_INTVS & B-ROLL RCR GARAGES SEGMENT DESR CHILDRESS KIRK GOODWRENCH NEW SPONSOR_LGP02351.NEW.01 
*SOURCE FILE: ERN_F9114_NSCR_1988-01-15_INTVS & B-ROLL RCR GARAGES SEGMENT DESR CHILDRESS KIRK GOODWRENCH NEW SPONSOR_LGP02351
000790  ERN_F9114_NSCR_1988-01-15_INTVS_&_B-ROLL_RCR_GARAGES_SEGMENT_DESR_CHILDRESS_KIRK_GOODWRENCH_NEW_SPONSOR_LGP02351                  A18   C        00:01:13:18 00:01:14:02 00:18:04:03 00:18:04:13 
M2      ERN_F9114_NSCR_1988-01-15_INTVS_&_B-ROLL_RCR_GARAGES_SEGMENT_DESR_CHILDRESS_KIRK_GOODWRENCH_NEW_SPONSOR_LGP02351                           030.0 00:01:13:18 
*FROM CLIP NAME:  ERN_F9114_NSCR_1988-01-15_INTVS & B-ROLL RCR GARAGES SEGMENT DESR CHILDRESS KIRK GOODWRENCH NEW SPONSOR_LGP02351.NEW.01 
*SOURCE FILE: ERN_F9114_NSCR_1988-01-15_INTVS & B-ROLL RCR GARAGES SEGMENT DESR CHILDRESS KIRK GOODWRENCH NEW SPONSOR_LGP02351
000791  ERN_F9114_NSCR_1988-01-15_INTVS_&_B-ROLL_RCR_GARAGES_SEGMENT_DESR_CHILDRESS_KIRK_GOODWRENCH_NEW_SPONSOR_LGP02351                  A18   C        00:01:14:01 00:01:15:17 00:18:04:13 00:18:06:01 
M2      ERN_F9114_NSCR_1988-01-15_INTVS_&_B-ROLL_RCR_GARAGES_SEGMENT_DESR_CHILDRESS_KIRK_GOODWRENCH_NEW_SPONSOR_LGP02351                           030.0 00:01:14:01 
*FROM CLIP NAME:  ERN_F9114_NSCR_1988-01-15_INTVS & B-ROLL RCR GARAGES SEGMENT DESR CHILDRESS KIRK GOODWRENCH NEW SPONSOR_LGP02351.NEW.01 
*TO CLIP NAME:  ERN_F9114_NSCR_1988-01-15_INTVS & B-ROLL RCR GARAGES SEGMENT DESR CHILDRESS KIRK GOODWRENCH NEW SPONSOR_LGP02351.NEW.01 
*SOURCE FILE: ERN_F9114_NSCR_1988-01-15_INTVS & B-ROLL RCR GARAGES SEGMENT DESR CHILDRESS KIRK GOODWRENCH NEW SPONSOR_LGP02351
000792  ERN_F9114_NSCR_1988-01-15_INTVS_&_B-ROLL_RCR_GARAGES_SEGMENT_DESR_CHILDRESS_KIRK_GOODWRENCH_NEW_SPONSOR_LGP02351                  V     C        00:01:19:00 00:01:19:02 00:18:05:22 00:18:09:21 
M2      ERN_F9114_NSCR_1988-01-15_INTVS_&_B-ROLL_RCR_GARAGES_SEGMENT_DESR_CHILDRESS_KIRK_GOODWRENCH_NEW_SPONSOR_LGP02351                          -030.0 00:01:19:00 
*FROM CLIP NAME:  ERN_F9114_NSCR_1988-01-15_INTVS & B-ROLL RCR GARAGES SEGMENT DESR CHILDRESS KIRK GOODWRENCH NEW SPONSOR_LGP02351.NEW.01 
*SOURCE FILE: ERN_F9114_NSCR_1988-01-15_INTVS & B-ROLL RCR GARAGES SEGMENT DESR CHILDRESS KIRK GOODWRENCH NEW SPONSOR_LGP02351
000793  ERN_F9114_NSCR_1988-01-15_INTVS_&_B-ROLL_RCR_GARAGES_SEGMENT_DESR_CHILDRESS_KIRK_GOODWRENCH_NEW_SPONSOR_LGP02351                  A18   C        00:01:15:16 00:01:19:03 00:18:06:01 00:18:09:14 
M2      ERN_F9114_NSCR_1988-01-15_INTVS_&_B-ROLL_RCR_GARAGES_SEGMENT_DESR_CHILDRESS_KIRK_GOODWRENCH_NEW_SPONSOR_LGP02351                           030.0 00:01:15:16 
*FROM CLIP NAME:  ERN_F9114_NSCR_1988-01-15_INTVS & B-ROLL RCR GARAGES SEGMENT DESR CHILDRESS KIRK GOODWRENCH NEW SPONSOR_LGP02351.NEW.01 
*SOURCE FILE: ERN_F9114_NSCR_1988-01-15_INTVS & B-ROLL RCR GARAGES SEGMENT DESR CHILDRESS KIRK GOODWRENCH NEW SPONSOR_LGP02351
000794  ERN_F0150_NSCR_1987-10-25_BTS_&_RACE_B-ROLL_DALE_EARNHARDT_NEW_BLACK_GOODWRENCH_&_WRANGLER_CAR_87-EV-0384                         V     C        00:02:23:06 00:02:27:29 00:18:09:21 00:18:14:06 
M2      ERN_F0150_NSCR_1987-10-25_BTS_&_RACE_B-ROLL_DALE_EARNHARDT_NEW_BLACK_GOODWRENCH_&_WRANGLER_CAR_87-EV-0384                                  032.4 00:02:23:06 
*FROM CLIP NAME:  ERN_F0150_NSCR_1987-10-25_BTS & RACE B-ROLL DALE EARNHARDT NEW BLACK GOODWRENCH & WRANGLER CAR_87-EV-0384.NEW.01 
*SOURCE FILE: ERN_F0150_NSCR_1987-10-25_BTS & RACE B-ROLL DALE EARNHARDT NEW BLACK GOODWRENCH & WRANGLER CAR_87-EV-0384
000795  ERN_F0150_NSCR_1987-10-25_BTS_&_RACE_B-ROLL_DALE_EARNHARDT_NEW_BLACK_GOODWRENCH_&_WRANGLER_CAR_87-EV-0384                         A20   C        00:02:45:02 00:02:46:18 00:18:11:23 00:18:13:11 
M2      ERN_F0150_NSCR_1987-10-25_BTS_&_RACE_B-ROLL_DALE_EARNHARDT_NEW_BLACK_GOODWRENCH_&_WRANGLER_CAR_87-EV-0384                                  030.0 00:02:45:02 
*FROM CLIP NAME:  ERN_F0150_NSCR_1987-10-25_BTS & RACE B-ROLL DALE EARNHARDT NEW BLACK GOODWRENCH & WRANGLER CAR_87-EV-0384.NEW.01 
*SOURCE FILE: ERN_F0150_NSCR_1987-10-25_BTS & RACE B-ROLL DALE EARNHARDT NEW BLACK GOODWRENCH & WRANGLER CAR_87-EV-0384
000796  ERN_F0150_NSCR_1987-10-25_BTS_&_RACE_B-ROLL_DALE_EARNHARDT_NEW_BLACK_GOODWRENCH_&_WRANGLER_CAR_87-EV-0384                         A18   C        00:02:42:21 00:02:45:22 00:18:13:08 00:18:16:08 
M2      ERN_F0150_NSCR_1987-10-25_BTS_&_RACE_B-ROLL_DALE_EARNHARDT_NEW_BLACK_GOODWRENCH_&_WRANGLER_CAR_87-EV-0384                                  030.0 00:02:42:21 
*FROM CLIP NAME:  ERN_F0150_NSCR_1987-10-25_BTS & RACE B-ROLL DALE EARNHARDT NEW BLACK GOODWRENCH & WRANGLER CAR_87-EV-0384.NEW.01 
*SOURCE FILE: ERN_F0150_NSCR_1987-10-25_BTS & RACE B-ROLL DALE EARNHARDT NEW BLACK GOODWRENCH & WRANGLER CAR_87-EV-0384
000797  ERN_F0150_NSCR_1987-10-25_BTS_&_RACE_B-ROLL_DALE_EARNHARDT_NEW_BLACK_GOODWRENCH_&_WRANGLER_CAR_87-EV-0384                         A20   C        00:02:46:17 00:02:48:02 00:18:13:11 00:18:14:22 
M2      ERN_F0150_NSCR_1987-10-25_BTS_&_RACE_B-ROLL_DALE_EARNHARDT_NEW_BLACK_GOODWRENCH_&_WRANGLER_CAR_87-EV-0384                                  030.0 00:02:46:17 
*FROM CLIP NAME:  ERN_F0150_NSCR_1987-10-25_BTS & RACE B-ROLL DALE EARNHARDT NEW BLACK GOODWRENCH & WRANGLER CAR_87-EV-0384.NEW.01 
*SOURCE FILE: ERN_F0150_NSCR_1987-10-25_BTS & RACE B-ROLL DALE EARNHARDT NEW BLACK GOODWRENCH & WRANGLER CAR_87-EV-0384
000798  ERN_F0150_NSCR_1987-10-25_BTS_&_RACE_B-ROLL_DALE_EARNHARDT_NEW_BLACK_GOODWRENCH_&_WRANGLER_CAR_87-EV-0384                         V     C        00:02:39:24 00:02:41:08 00:18:14:06 00:18:15:17 
M2      ERN_F0150_NSCR_1987-10-25_BTS_&_RACE_B-ROLL_DALE_EARNHARDT_NEW_BLACK_GOODWRENCH_&_WRANGLER_CAR_87-EV-0384                                  030.0 00:02:39:24 
*FROM CLIP NAME:  ERN_F0150_NSCR_1987-10-25_BTS & RACE B-ROLL DALE EARNHARDT NEW BLACK GOODWRENCH & WRANGLER CAR_87-EV-0384.NEW.01 
*SOURCE FILE: ERN_F0150_NSCR_1987-10-25_BTS & RACE B-ROLL DALE EARNHARDT NEW BLACK GOODWRENCH & WRANGLER CAR_87-EV-0384
000799  ERN_F0150_NSCR_1987-10-25_BTS_&_RACE_B-ROLL_DALE_EARNHARDT_NEW_BLACK_GOODWRENCH_&_WRANGLER_CAR_87-EV-0384                         V     C        00:02:44:00 00:02:45:11 00:18:15:17 00:18:17:01 
M2      ERN_F0150_NSCR_1987-10-25_BTS_&_RACE_B-ROLL_DALE_EARNHARDT_NEW_BLACK_GOODWRENCH_&_WRANGLER_CAR_87-EV-0384                                  030.0 00:02:44:00 
*FROM CLIP NAME:  ERN_F0150_NSCR_1987-10-25_BTS & RACE B-ROLL DALE EARNHARDT NEW BLACK GOODWRENCH & WRANGLER CAR_87-EV-0384.NEW.01 
*SOURCE FILE: ERN_F0150_NSCR_1987-10-25_BTS & RACE B-ROLL DALE EARNHARDT NEW BLACK GOODWRENCH & WRANGLER CAR_87-EV-0384
000800  ERN_F0150_NSCR_1987-10-25_BTS_&_RACE_B-ROLL_DALE_EARNHARDT_NEW_BLACK_GOODWRENCH_&_WRANGLER_CAR_87-EV-0384                         A20   C        00:02:53:06 00:02:55:07 00:18:16:05 00:18:18:05 
M2      ERN_F0150_NSCR_1987-10-25_BTS_&_RACE_B-ROLL_DALE_EARNHARDT_NEW_BLACK_GOODWRENCH_&_WRANGLER_CAR_87-EV-0384                                  030.0 00:02:53:06 
*FROM CLIP NAME:  ERN_F0150_NSCR_1987-10-25_BTS & RACE B-ROLL DALE EARNHARDT NEW BLACK GOODWRENCH & WRANGLER CAR_87-EV-0384.NEW.01 
*SOURCE FILE: ERN_F0150_NSCR_1987-10-25_BTS & RACE B-ROLL DALE EARNHARDT NEW BLACK GOODWRENCH & WRANGLER CAR_87-EV-0384
000801  ERN_F0150_NSCR_1987-10-25_BTS_&_RACE_B-ROLL_DALE_EARNHARDT_NEW_BLACK_GOODWRENCH_&_WRANGLER_CAR_87-EV-0384                         A18   C        00:02:45:21 00:02:45:24 00:18:16:08 00:18:16:10 
M2      ERN_F0150_NSCR_1987-10-25_BTS_&_RACE_B-ROLL_DALE_EARNHARDT_NEW_BLACK_GOODWRENCH_&_WRANGLER_CAR_87-EV-0384                                  030.0 00:02:45:21 
*FROM CLIP NAME:  ERN_F0150_NSCR_1987-10-25_BTS & RACE B-ROLL DALE EARNHARDT NEW BLACK GOODWRENCH & WRANGLER CAR_87-EV-0384.NEW.01 
*SOURCE FILE: ERN_F0150_NSCR_1987-10-25_BTS & RACE B-ROLL DALE EARNHARDT NEW BLACK GOODWRENCH & WRANGLER CAR_87-EV-0384
000802  ERN_F0150_NSCR_1987-10-25_BTS_&_RACE_B-ROLL_DALE_EARNHARDT_NEW_BLACK_GOODWRENCH_&_WRANGLER_CAR_87-EV-0384                         V     C        00:02:53:02 00:02:55:02 00:18:17:01 00:18:19:00 
M2      ERN_F0150_NSCR_1987-10-25_BTS_&_RACE_B-ROLL_DALE_EARNHARDT_NEW_BLACK_GOODWRENCH_&_WRANGLER_CAR_87-EV-0384                                  030.0 00:02:53:02 
*FROM CLIP NAME:  ERN_F0150_NSCR_1987-10-25_BTS & RACE B-ROLL DALE EARNHARDT NEW BLACK GOODWRENCH & WRANGLER CAR_87-EV-0384.NEW.01 
*SOURCE FILE: ERN_F0150_NSCR_1987-10-25_BTS & RACE B-ROLL DALE EARNHARDT NEW BLACK GOODWRENCH & WRANGLER CAR_87-EV-0384
000803  ERN_F0150_NSCR_1987-10-25_BTS_&_RACE_B-ROLL_DALE_EARNHARDT_NEW_BLACK_GOODWRENCH_&_WRANGLER_CAR_87-EV-0384                         A20   C        00:02:55:06 00:03:00:05 00:18:18:05 00:18:23:02 
M2      ERN_F0150_NSCR_1987-10-25_BTS_&_RACE_B-ROLL_DALE_EARNHARDT_NEW_BLACK_GOODWRENCH_&_WRANGLER_CAR_87-EV-0384                                  030.0 00:02:55:06 
*FROM CLIP NAME:  ERN_F0150_NSCR_1987-10-25_BTS & RACE B-ROLL DALE EARNHARDT NEW BLACK GOODWRENCH & WRANGLER CAR_87-EV-0384.NEW.01 
*SOURCE FILE: ERN_F0150_NSCR_1987-10-25_BTS & RACE B-ROLL DALE EARNHARDT NEW BLACK GOODWRENCH & WRANGLER CAR_87-EV-0384
000804  ERN_F2659_NSCR_1987_RACE_B-ROLL_FILM_CHARLOTTE_SPEEDWAY_AC_DELCO_500_BILL_ELLIOTT_DESR_1987-NAS-00107_S002                        V     C        00:02:56:02 00:03:00:11 00:18:19:00 00:18:23:08 
M2      ERN_F2659_NSCR_1987_RACE_B-ROLL_FILM_CHARLOTTE_SPEEDWAY_AC_DELCO_500_BILL_ELLIOTT_DESR_1987-NAS-00107_S002                                 024.0 00:02:56:02 
*FROM CLIP NAME:  ERN_F2659_NSCR_1987_RACE B-ROLL FILM CHARLOTTE SPEEDWAY AC DELCO 500 BILL ELLIOTT DESR_1987-NAS-00107_S002.NEW.01 
*SOURCE FILE: ERN_F2659_NSCR_1987_RACE B-ROLL FILM CHARLOTTE SPEEDWAY AC DELCO 500 BILL ELLIOTT DESR_1987-NAS-00107_S002
000805  ERN_F2021_NSCR_1996-09-03_FEATURE_DESR_ON_1996_SEASON_W_JEFF_GORDON_&_RUSTY_WALLACE_SE005024                                      A18   C        00:11:08:00 00:11:13:11 00:18:19:22 00:18:25:06 
M2      ERN_F2021_NSCR_1996-09-03_FEATURE_DESR_ON_1996_SEASON_W_JEFF_GORDON_&_RUSTY_WALLACE_SE005024                                               030.0 00:11:08:00 
*FROM CLIP NAME:  ERN_F2021_NSCR_1996-09-03_FEATURE DESR ON 1996 SEASON W JEFF GORDON & RUSTY WALLACE_SE005024.NEW.01 
*SOURCE FILE: ERN_F2021_NSCR_1996-09-03_FEATURE DESR ON 1996 SEASON W JEFF GORDON & RUSTY WALLACE_SE005024
000806  ERN_F2673_NSCR_1988_RACE_B-ROLL_FILM_POCONO_500_DESR_BILL_ELLIOTT_DARRELL_WALTRIP_1988-NAS-00108_S001                             V     C        00:04:26:03 00:04:26:05 00:18:23:08 00:18:23:09 
M2      ERN_F2673_NSCR_1988_RACE_B-ROLL_FILM_POCONO_500_DESR_BILL_ELLIOTT_DARRELL_WALTRIP_1988-NAS-00108_S001                                      024.0 00:04:26:03 
*FROM CLIP NAME:  ERN_F2673_NSCR_1988_RACE B-ROLL FILM POCONO 500 DESR BILL ELLIOTT DARRELL WALTRIP_1988-NAS-00108_S001.NEW.01 
*SOURCE FILE: ERN_F2673_NSCR_1988_RACE B-ROLL FILM POCONO 500 DESR BILL ELLIOTT DARRELL WALTRIP_1988-NAS-00108_S001
000807  ERN_F2021_NSCR_1996-09-03_FEATURE_DESR_ON_1996_SEASON_W_JEFF_GORDON_&_RUSTY_WALLACE_SE005024                                      V     C        00:11:11:14 00:11:14:25 00:18:23:09 00:18:25:08 
M2      ERN_F2021_NSCR_1996-09-03_FEATURE_DESR_ON_1996_SEASON_W_JEFF_GORDON_&_RUSTY_WALLACE_SE005024                                               051.6 00:11:11:14 
*FROM CLIP NAME:  ERN_F2021_NSCR_1996-09-03_FEATURE DESR ON 1996 SEASON W JEFF GORDON & RUSTY WALLACE_SE005024.NEW.01 
*SOURCE FILE: ERN_F2021_NSCR_1996-09-03_FEATURE DESR ON 1996 SEASON W JEFF GORDON & RUSTY WALLACE_SE005024
000808  ERN_F2021_NSCR_1996-09-03_FEATURE_DESR_ON_1996_SEASON_W_JEFF_GORDON_&_RUSTY_WALLACE_SE005024                                      A20   C        00:11:14:25 00:11:15:20 00:18:25:05 00:18:26:00 
M2      ERN_F2021_NSCR_1996-09-03_FEATURE_DESR_ON_1996_SEASON_W_JEFF_GORDON_&_RUSTY_WALLACE_SE005024                                               030.0 00:11:14:25 
*FROM CLIP NAME:  ERN_F2021_NSCR_1996-09-03_FEATURE DESR ON 1996 SEASON W JEFF GORDON & RUSTY WALLACE_SE005024.NEW.01 
*SOURCE FILE: ERN_F2021_NSCR_1996-09-03_FEATURE DESR ON 1996 SEASON W JEFF GORDON & RUSTY WALLACE_SE005024
000809  ERN_F2021_NSCR_1996-09-03_FEATURE_DESR_ON_1996_SEASON_W_JEFF_GORDON_&_RUSTY_WALLACE_SE005024                                      V     C        00:11:14:26 00:11:16:16 00:18:25:08 00:18:26:23 
M2      ERN_F2021_NSCR_1996-09-03_FEATURE_DESR_ON_1996_SEASON_W_JEFF_GORDON_&_RUSTY_WALLACE_SE005024                                               030.0 00:11:14:26 
*FROM CLIP NAME:  ERN_F2021_NSCR_1996-09-03_FEATURE DESR ON 1996 SEASON W JEFF GORDON & RUSTY WALLACE_SE005024.NEW.01 
*SOURCE FILE: ERN_F2021_NSCR_1996-09-03_FEATURE DESR ON 1996 SEASON W JEFF GORDON & RUSTY WALLACE_SE005024
000810  ERN_F0800_NSCR_1987-05-17_RACE_DESR_WINNER_BILL_ELLIOTT_CHARLOTTE_-_THE_WINSTON_87-EV-0287                                        A18   C        00:50:25:10 00:50:27:00 00:18:26:18 00:18:28:10 
M2      ERN_F0800_NSCR_1987-05-17_RACE_DESR_WINNER_BILL_ELLIOTT_CHARLOTTE_-_THE_WINSTON_87-EV-0287                                                 030.0 00:50:25:10 
*FROM CLIP NAME:  ERN_F0800_NSCR_1987-05-17_RACE DESR WINNER BILL ELLIOTT CHARLOTTE - THE WINSTON_87-EV-0287.NEW.01 
*SOURCE FILE: ERN_F0800_NSCR_1987-05-17_RACE DESR WINNER BILL ELLIOTT CHARLOTTE - THE WINSTON_87-EV-0287
000811  ERN_F2673_NSCR_1988_RACE_B-ROLL_FILM_POCONO_500_DESR_BILL_ELLIOTT_DARRELL_WALTRIP_1988-NAS-00108_S001                             V     C        00:04:26:03 00:04:26:05 00:18:26:23 00:18:27:00 
M2      ERN_F2673_NSCR_1988_RACE_B-ROLL_FILM_POCONO_500_DESR_BILL_ELLIOTT_DARRELL_WALTRIP_1988-NAS-00108_S001                                      024.0 00:04:26:03 
*FROM CLIP NAME:  ERN_F2673_NSCR_1988_RACE B-ROLL FILM POCONO 500 DESR BILL ELLIOTT DARRELL WALTRIP_1988-NAS-00108_S001.NEW.01 
*SOURCE FILE: ERN_F2673_NSCR_1988_RACE B-ROLL FILM POCONO 500 DESR BILL ELLIOTT DARRELL WALTRIP_1988-NAS-00108_S001
000812  ERN_F2673_NSCR_1988_RACE_B-ROLL_FILM_POCONO_500_DESR_BILL_ELLIOTT_DARRELL_WALTRIP_1988-NAS-00108_S001                             V     C        00:04:26:10 00:04:31:06 00:18:27:00 00:18:31:19 
M2      ERN_F2673_NSCR_1988_RACE_B-ROLL_FILM_POCONO_500_DESR_BILL_ELLIOTT_DARRELL_WALTRIP_1988-NAS-00108_S001                                      024.0 00:04:26:10 
*FROM CLIP NAME:  ERN_F2673_NSCR_1988_RACE B-ROLL FILM POCONO 500 DESR BILL ELLIOTT DARRELL WALTRIP_1988-NAS-00108_S001.NEW.01 
*SOURCE FILE: ERN_F2673_NSCR_1988_RACE B-ROLL FILM POCONO 500 DESR BILL ELLIOTT DARRELL WALTRIP_1988-NAS-00108_S001
000813  ERN_F0800_NSCR_1987-05-17_RACE_DESR_WINNER_BILL_ELLIOTT_CHARLOTTE_-_THE_WINSTON_87-EV-0287                                        A18   C        00:50:27:00 00:50:28:25 00:18:28:10 00:18:30:06 
M2      ERN_F0800_NSCR_1987-05-17_RACE_DESR_WINNER_BILL_ELLIOTT_CHARLOTTE_-_THE_WINSTON_87-EV-0287                                                 030.0 00:50:27:00 
*FROM CLIP NAME:  ERN_F0800_NSCR_1987-05-17_RACE DESR WINNER BILL ELLIOTT CHARLOTTE - THE WINSTON_87-EV-0287.NEW.01 
*TO CLIP NAME:  ERN_F0800_NSCR_1987-05-17_RACE DESR WINNER BILL ELLIOTT CHARLOTTE - THE WINSTON_87-EV-0287.NEW.01 
*SOURCE FILE: ERN_F0800_NSCR_1987-05-17_RACE DESR WINNER BILL ELLIOTT CHARLOTTE - THE WINSTON_87-EV-0287
000814  ERN_F0310_NSCR_2000-08-24_2_OF_6_CAM_A_BTS_COMMERCIAL_INTV_DALE_EARNHARDT_TOPICS_-_INTIMIDATOR_NAME_&_BEING_REMEMBERED_&_BLOOPERS A20   C        18:01:40:09 18:01:40:25 00:18:28:23 00:18:29:11 
M2      ERN_F0310_NSCR_2000-08-24_2_OF_6_CAM_A_BTS_COMMERCIAL_INTV_DALE_EARNHARDT_TOPICS_-_INTIMIDATOR_NAME_&_BEING_REMEMBERED_&_BLOOPERS          030.0 18:01:40:09 
*FROM CLIP NAME:  ERN_F0310_NSCR_2000-08-24_2 OF 6 CAM A BTS COMMERCIAL INTV DALE EARNHARDT TOPICS - INTIMIDATOR NAME & BEING REMEMBERED & BLOOPERS_SE006223_S002.NEW.01 
*SOURCE FILE: ERN_F0310_NSCR_2000-08-24_2 OF 6 CAM A BTS COMMERCIAL INTV DALE EARNHARDT TOPICS - INTIMIDATOR NAME & BEING REMEMBERED & BLOOPERS_SE006223_S002
000815  ERN_F0310_NSCR_2000-08-24_2_OF_6_CAM_A_BTS_COMMERCIAL_INTV_DALE_EARNHARDT_TOPICS_-_INTIMIDATOR_NAME_&_BEING_REMEMBERED_&_BLOOPERS A20   C        18:01:40:24 18:01:41:24 00:18:29:11 00:18:30:10 
M2      ERN_F0310_NSCR_2000-08-24_2_OF_6_CAM_A_BTS_COMMERCIAL_INTV_DALE_EARNHARDT_TOPICS_-_INTIMIDATOR_NAME_&_BEING_REMEMBERED_&_BLOOPERS          030.0 18:01:40:24 
*FROM CLIP NAME:  ERN_F0310_NSCR_2000-08-24_2 OF 6 CAM A BTS COMMERCIAL INTV DALE EARNHARDT TOPICS - INTIMIDATOR NAME & BEING REMEMBERED & BLOOPERS_SE006223_S002.NEW.01 
*SOURCE FILE: ERN_F0310_NSCR_2000-08-24_2 OF 6 CAM A BTS COMMERCIAL INTV DALE EARNHARDT TOPICS - INTIMIDATOR NAME & BEING REMEMBERED & BLOOPERS_SE006223_S002
000816  ERN_F0800_NSCR_1987-05-17_RACE_DESR_WINNER_BILL_ELLIOTT_CHARLOTTE_-_THE_WINSTON_87-EV-0287                                        A18   C        00:50:28:25 00:50:34:13 00:18:30:06 00:18:35:20 
M2      ERN_F0800_NSCR_1987-05-17_RACE_DESR_WINNER_BILL_ELLIOTT_CHARLOTTE_-_THE_WINSTON_87-EV-0287                                                 030.0 00:50:28:25 
*FROM CLIP NAME:  ERN_F0800_NSCR_1987-05-17_RACE DESR WINNER BILL ELLIOTT CHARLOTTE - THE WINSTON_87-EV-0287.NEW.01 
*SOURCE FILE: ERN_F0800_NSCR_1987-05-17_RACE DESR WINNER BILL ELLIOTT CHARLOTTE - THE WINSTON_87-EV-0287
000817  ERN_F0177_NSCR_1990-11-15_INTV_DALE_EARNHARDT_ATLANTA_JOURNAL_500_TOPIC_-_FAMILY_&_DRIVE_TO_WIN_&_FANS_1990_ATLANTA_EARNHARDT_INT A20   C        01:19:39:17 01:19:39:23 00:18:31:09 00:18:31:13 
M2      ERN_F0177_NSCR_1990-11-15_INTV_DALE_EARNHARDT_ATLANTA_JOURNAL_500_TOPIC_-_FAMILY_&_DRIVE_TO_WIN_&_FANS_1990_ATLANTA_EARNHARDT_INT          030.0 01:19:39:17 
*FROM CLIP NAME:  ERN_F0177_NSCR_1990-11-15_INTV DALE EARNHARDT ATLANTA JOURNAL 500 TOPIC - FAMILY & DRIVE TO WIN & FANS_1990_ATLANTA_EARNHARDT_INT_1.NEW.02 
*SOURCE FILE: ERN_F0177_NSCR_1990-11-15_INTV DALE EARNHARDT ATLANTA JOURNAL 500 TOPIC - FAMILY & DRIVE TO WIN & FANS_1990_ATLANTA_EARNHARDT_INT_1
000818  ERN_F0177_NSCR_1990-11-15_INTV_DALE_EARNHARDT_ATLANTA_JOURNAL_500_TOPIC_-_FAMILY_&_DRIVE_TO_WIN_&_FANS_1990_ATLANTA_EARNHARDT_INT A20   C        01:19:39:22 01:19:42:21 00:18:31:13 00:18:34:12 
M2      ERN_F0177_NSCR_1990-11-15_INTV_DALE_EARNHARDT_ATLANTA_JOURNAL_500_TOPIC_-_FAMILY_&_DRIVE_TO_WIN_&_FANS_1990_ATLANTA_EARNHARDT_INT          030.0 01:19:39:22 
*FROM CLIP NAME:  ERN_F0177_NSCR_1990-11-15_INTV DALE EARNHARDT ATLANTA JOURNAL 500 TOPIC - FAMILY & DRIVE TO WIN & FANS_1990_ATLANTA_EARNHARDT_INT_1.NEW.02 
*SOURCE FILE: ERN_F0177_NSCR_1990-11-15_INTV DALE EARNHARDT ATLANTA JOURNAL 500 TOPIC - FAMILY & DRIVE TO WIN & FANS_1990_ATLANTA_EARNHARDT_INT_1
000819  ERN_F2797_NSCR_1988_WINSTON_CUP_SERIES-FILM_FOOTAGE_NO_AUDIO_16MM_RACE_B-ROLL_FLYBYS_1988-NAS-00114_S002                          V     C        00:03:39:18 00:03:43:23 00:18:31:19 00:18:35:23 
M2      ERN_F2797_NSCR_1988_WINSTON_CUP_SERIES-FILM_FOOTAGE_NO_AUDIO_16MM_RACE_B-ROLL_FLYBYS_1988-NAS-00114_S002                                   024.0 00:03:39:18 
*FROM CLIP NAME:  ERN_F2797_NSCR_1988_WINSTON CUP SERIES-FILM FOOTAGE NO AUDIO 16MM RACE B-ROLL FLYBYS_1988-NAS-00114_S002.NEW.01 
*SOURCE FILE: ERN_F2797_NSCR_1988_WINSTON CUP SERIES-FILM FOOTAGE NO AUDIO 16MM RACE B-ROLL FLYBYS_1988-NAS-00114_S002
000820  ERN_F0177_NSCR_1990-11-15_INTV_DALE_EARNHARDT_ATLANTA_JOURNAL_500_TOPIC_-_FAMILY_&_DRIVE_TO_WIN_&_FANS_1990_ATLANTA_EARNHARDT_INT A20   C        01:19:57:17 01:19:57:20 00:18:34:12 00:18:34:14 
M2      ERN_F0177_NSCR_1990-11-15_INTV_DALE_EARNHARDT_ATLANTA_JOURNAL_500_TOPIC_-_FAMILY_&_DRIVE_TO_WIN_&_FANS_1990_ATLANTA_EARNHARDT_INT          030.0 01:19:57:17 
*FROM CLIP NAME:  ERN_F0177_NSCR_1990-11-15_INTV DALE EARNHARDT ATLANTA JOURNAL 500 TOPIC - FAMILY & DRIVE TO WIN & FANS_1990_ATLANTA_EARNHARDT_INT_1.NEW.02 
*TO CLIP NAME:  ERN_F0177_NSCR_1990-11-15_INTV DALE EARNHARDT ATLANTA JOURNAL 500 TOPIC - FAMILY & DRIVE TO WIN & FANS_1990_ATLANTA_EARNHARDT_INT_1.NEW.02 
*SOURCE FILE: ERN_F0177_NSCR_1990-11-15_INTV DALE EARNHARDT ATLANTA JOURNAL 500 TOPIC - FAMILY & DRIVE TO WIN & FANS_1990_ATLANTA_EARNHARDT_INT_1
000821  ERN_F0177_NSCR_1990-11-15_INTV_DALE_EARNHARDT_ATLANTA_JOURNAL_500_TOPIC_-_FAMILY_&_DRIVE_TO_WIN_&_FANS_1990_ATLANTA_EARNHARDT_INT A20   C        01:19:57:19 01:19:58:25 00:18:34:14 00:18:35:18 
M2      ERN_F0177_NSCR_1990-11-15_INTV_DALE_EARNHARDT_ATLANTA_JOURNAL_500_TOPIC_-_FAMILY_&_DRIVE_TO_WIN_&_FANS_1990_ATLANTA_EARNHARDT_INT          030.0 01:19:57:19 
*FROM CLIP NAME:  ERN_F0177_NSCR_1990-11-15_INTV DALE EARNHARDT ATLANTA JOURNAL 500 TOPIC - FAMILY & DRIVE TO WIN & FANS_1990_ATLANTA_EARNHARDT_INT_1.NEW.02 
*SOURCE FILE: ERN_F0177_NSCR_1990-11-15_INTV DALE EARNHARDT ATLANTA JOURNAL 500 TOPIC - FAMILY & DRIVE TO WIN & FANS_1990_ATLANTA_EARNHARDT_INT_1
000822  ERN_F4201_NSCR_1989-10-15_NORTH_WILKESBORO-HOLLY_FARMS_400_RACE_B-ROLL_89-EV-0525                                                 A22   C        01:16:20:18 01:16:21:19 00:18:35:11 00:18:36:11 
M2      ERN_F4201_NSCR_1989-10-15_NORTH_WILKESBORO-HOLLY_FARMS_400_RACE_B-ROLL_89-EV-0525                                                          030.0 01:16:20:18 
*FROM CLIP NAME:  ERN_F4201_NSCR_1989-10-15_NORTH WILKESBORO-HOLLY FARMS 400 RACE B-ROLL_89-EV-0525.NEW.01 
*SOURCE FILE: ERN_F4201_NSCR_1989-10-15_NORTH WILKESBORO-HOLLY FARMS 400 RACE B-ROLL_89-EV-0525
000823  ERN_F0177_NSCR_1990-11-15_INTV_DALE_EARNHARDT_ATLANTA_JOURNAL_500_TOPIC_-_FAMILY_&_DRIVE_TO_WIN_&_FANS_1990_ATLANTA_EARNHARDT_INT A20   C        01:19:59:17 01:19:59:20 00:18:35:18 00:18:35:20 
M2      ERN_F0177_NSCR_1990-11-15_INTV_DALE_EARNHARDT_ATLANTA_JOURNAL_500_TOPIC_-_FAMILY_&_DRIVE_TO_WIN_&_FANS_1990_ATLANTA_EARNHARDT_INT          030.0 01:19:59:17 
*FROM CLIP NAME:  ERN_F0177_NSCR_1990-11-15_INTV DALE EARNHARDT ATLANTA JOURNAL 500 TOPIC - FAMILY & DRIVE TO WIN & FANS_1990_ATLANTA_EARNHARDT_INT_1.NEW.02 
*TO CLIP NAME:  ERN_F0177_NSCR_1990-11-15_INTV DALE EARNHARDT ATLANTA JOURNAL 500 TOPIC - FAMILY & DRIVE TO WIN & FANS_1990_ATLANTA_EARNHARDT_INT_1.NEW.02 
*SOURCE FILE: ERN_F0177_NSCR_1990-11-15_INTV DALE EARNHARDT ATLANTA JOURNAL 500 TOPIC - FAMILY & DRIVE TO WIN & FANS_1990_ATLANTA_EARNHARDT_INT_1
000824  ERN_F0177_NSCR_1990-11-15_INTV_DALE_EARNHARDT_ATLANTA_JOURNAL_500_TOPIC_-_FAMILY_&_DRIVE_TO_WIN_&_FANS_1990_ATLANTA_EARNHARDT_INT A20   C        01:19:59:19 01:20:00:26 00:18:35:20 00:18:37:01 
M2      ERN_F0177_NSCR_1990-11-15_INTV_DALE_EARNHARDT_ATLANTA_JOURNAL_500_TOPIC_-_FAMILY_&_DRIVE_TO_WIN_&_FANS_1990_ATLANTA_EARNHARDT_INT          030.0 01:19:59:19 
*FROM CLIP NAME:  ERN_F0177_NSCR_1990-11-15_INTV DALE EARNHARDT ATLANTA JOURNAL 500 TOPIC - FAMILY & DRIVE TO WIN & FANS_1990_ATLANTA_EARNHARDT_INT_1.NEW.02 
*SOURCE FILE: ERN_F0177_NSCR_1990-11-15_INTV DALE EARNHARDT ATLANTA JOURNAL 500 TOPIC - FAMILY & DRIVE TO WIN & FANS_1990_ATLANTA_EARNHARDT_INT_1
000825  ERN_F6169_NSCR_1984-02-12_RACE_DAYTONA_QUALIFYING_YARBOROUGH_POLES_ARBOROUGH_84-EV-0005_S001                                      V     C        00:01:48:01 00:01:49:20 00:18:35:23 00:18:37:13 
M2      ERN_F6169_NSCR_1984-02-12_RACE_DAYTONA_QUALIFYING_YARBOROUGH_POLES_ARBOROUGH_84-EV-0005_S001                                               030.0 00:01:48:01 
*FROM CLIP NAME:  ERN_F6169_NSCR_1984-02-12_RACE DAYTONA QUALIFYING YARBOROUGH POLES ARBOROUGH_84-EV-0005_S001.NEW.01 
*SOURCE FILE: ERN_F6169_NSCR_1984-02-12_RACE DAYTONA QUALIFYING YARBOROUGH POLES ARBOROUGH_84-EV-0005_S001
000826  ERN_F4201_NSCR_1989-10-15_NORTH_WILKESBORO-HOLLY_FARMS_400_RACE_B-ROLL_89-EV-0525                                                 A22   C        01:16:21:18 01:16:24:29 00:18:36:11 00:18:39:19 
M2      ERN_F4201_NSCR_1989-10-15_NORTH_WILKESBORO-HOLLY_FARMS_400_RACE_B-ROLL_89-EV-0525                                                          030.0 01:16:21:18 
*FROM CLIP NAME:  ERN_F4201_NSCR_1989-10-15_NORTH WILKESBORO-HOLLY FARMS 400 RACE B-ROLL_89-EV-0525.NEW.01 
*SOURCE FILE: ERN_F4201_NSCR_1989-10-15_NORTH WILKESBORO-HOLLY FARMS 400 RACE B-ROLL_89-EV-0525
000827  ERN_F0177_NSCR_1990-11-15_INTV_DALE_EARNHARDT_ATLANTA_JOURNAL_500_TOPIC_-_FAMILY_&_DRIVE_TO_WIN_&_FANS_1990_ATLANTA_EARNHARDT_INT A20   C        01:20:01:03 01:20:01:06 00:18:37:01 00:18:37:03 
M2      ERN_F0177_NSCR_1990-11-15_INTV_DALE_EARNHARDT_ATLANTA_JOURNAL_500_TOPIC_-_FAMILY_&_DRIVE_TO_WIN_&_FANS_1990_ATLANTA_EARNHARDT_INT          030.0 01:20:01:03 
*FROM CLIP NAME:  ERN_F0177_NSCR_1990-11-15_INTV DALE EARNHARDT ATLANTA JOURNAL 500 TOPIC - FAMILY & DRIVE TO WIN & FANS_1990_ATLANTA_EARNHARDT_INT_1.NEW.02 
*TO CLIP NAME:  ERN_F0177_NSCR_1990-11-15_INTV DALE EARNHARDT ATLANTA JOURNAL 500 TOPIC - FAMILY & DRIVE TO WIN & FANS_1990_ATLANTA_EARNHARDT_INT_1.NEW.02 
*SOURCE FILE: ERN_F0177_NSCR_1990-11-15_INTV DALE EARNHARDT ATLANTA JOURNAL 500 TOPIC - FAMILY & DRIVE TO WIN & FANS_1990_ATLANTA_EARNHARDT_INT_1
000828  ERN_F4284_NSCR_1989-10-15_RACE_BROADCAST_NORTH_WILKESBORO_HOLLY_FARMS_400_89-EV-0736                                              A18   C        01:08:09:01 01:08:10:02 00:18:37:03 00:18:38:03 
M2      ERN_F4284_NSCR_1989-10-15_RACE_BROADCAST_NORTH_WILKESBORO_HOLLY_FARMS_400_89-EV-0736                                                       030.0 01:08:09:01 
*FROM CLIP NAME:  ERN_F4215_NSCR_1989-10-15_NORTH WILKESBORO-HOLLY FARMS 400 ESPN RACE BROADCAST_89-EV-0736.NEW.01 
*SOURCE FILE: ERN_F4284_NSCR_1989-10-15_RACE BROADCAST NORTH WILKESBORO HOLLY FARMS 400_89-EV-0736
000829  ERN_F0177_NSCR_1990-11-15_INTV_DALE_EARNHARDT_ATLANTA_JOURNAL_500_TOPIC_-_FAMILY_&_DRIVE_TO_WIN_&_FANS_1990_ATLANTA_EARNHARDT_INT A20   C        01:20:01:06 01:20:03:15 00:18:37:03 00:18:39:10 
M2      ERN_F0177_NSCR_1990-11-15_INTV_DALE_EARNHARDT_ATLANTA_JOURNAL_500_TOPIC_-_FAMILY_&_DRIVE_TO_WIN_&_FANS_1990_ATLANTA_EARNHARDT_INT          030.0 01:20:01:06 
*FROM CLIP NAME:  ERN_F0177_NSCR_1990-11-15_INTV DALE EARNHARDT ATLANTA JOURNAL 500 TOPIC - FAMILY & DRIVE TO WIN & FANS_1990_ATLANTA_EARNHARDT_INT_1.NEW.02 
*SOURCE FILE: ERN_F0177_NSCR_1990-11-15_INTV DALE EARNHARDT ATLANTA JOURNAL 500 TOPIC - FAMILY & DRIVE TO WIN & FANS_1990_ATLANTA_EARNHARDT_INT_1
000830  ERN_F9736_NSCR_1988-06-12_RACING_B-ROLL_CROWD_SHOTS_FANS_HOLD_ESPN_SIGN_&_NEIL_BONNETT_CITIGO_FLYBY_LGP02462                      V     C        00:17:01:27 00:17:06:15 00:18:37:13 00:18:42:03 
M2      ERN_F9736_NSCR_1988-06-12_RACING_B-ROLL_CROWD_SHOTS_FANS_HOLD_ESPN_SIGN_&_NEIL_BONNETT_CITIGO_FLYBY_LGP02462                               030.0 00:17:01:27 
*FROM CLIP NAME:  ERN_F9736_NSCR_1988-06-12_RACING B-ROLL CROWD SHOTS FANS HOLD ESPN SIGN & NEIL BONNETT CITIGO FLYBY_LGP02462.NEW.01 
*SOURCE FILE: ERN_F9736_NSCR_1988-06-12_RACING B-ROLL CROWD SHOTS FANS HOLD ESPN SIGN & NEIL BONNETT CITIGO FLYBY_LGP02462
000831  ERN_F4284_NSCR_1989-10-15_RACE_BROADCAST_NORTH_WILKESBORO_HOLLY_FARMS_400_89-EV-0736                                              A18   C        01:08:10:01 01:08:13:22 00:18:38:03 00:18:41:19 
M2      ERN_F4284_NSCR_1989-10-15_RACE_BROADCAST_NORTH_WILKESBORO_HOLLY_FARMS_400_89-EV-0736                                                       030.0 01:08:10:01 
*FROM CLIP NAME:  ERN_F4215_NSCR_1989-10-15_NORTH WILKESBORO-HOLLY FARMS 400 ESPN RACE BROADCAST_89-EV-0736.NEW.01 
*SOURCE FILE: ERN_F4284_NSCR_1989-10-15_RACE BROADCAST NORTH WILKESBORO HOLLY FARMS 400_89-EV-0736
000832  ERN_F4201_NSCR_1989-10-15_NORTH_WILKESBORO-HOLLY_FARMS_400_RACE_B-ROLL_89-EV-0525                                                 A22   C        01:16:28:20 01:16:29:20 00:18:39:19 00:18:40:19 
M2      ERN_F4201_NSCR_1989-10-15_NORTH_WILKESBORO-HOLLY_FARMS_400_RACE_B-ROLL_89-EV-0525                                                          030.0 01:16:28:20 
*FROM CLIP NAME:  ERN_F4201_NSCR_1989-10-15_NORTH WILKESBORO-HOLLY FARMS 400 RACE B-ROLL_89-EV-0525.NEW.01 
*TO CLIP NAME:  ERN_F4201_NSCR_1989-10-15_NORTH WILKESBORO-HOLLY FARMS 400 RACE B-ROLL_89-EV-0525.NEW.01 
*SOURCE FILE: ERN_F4201_NSCR_1989-10-15_NORTH WILKESBORO-HOLLY FARMS 400 RACE B-ROLL_89-EV-0525
000833  ERN_F3168_NSCR_1990-11-18_RACE_BROLL_ATLANTA_JOURNAL_500_DRIVING_POV_&_DESR_AGAINST_DARRELL_WALTRIP_90-EV-0652                    A24   C        01:41:33:21 01:41:34:06 00:18:39:23 00:18:40:11 
M2      ERN_F3168_NSCR_1990-11-18_RACE_BROLL_ATLANTA_JOURNAL_500_DRIVING_POV_&_DESR_AGAINST_DARRELL_WALTRIP_90-EV-0652                             030.0 01:41:33:21 
*FROM CLIP NAME:  ERN_F3168_NSCR_1990-11-18_RACE BROLL ATLANTA JOURNAL 500 DRIVING POV & DESR AGAINST DARRELL WALTRIP_90-EV-0652.NEW.01 
*SOURCE FILE: ERN_F3168_NSCR_1990-11-18_RACE BROLL ATLANTA JOURNAL 500 DRIVING POV & DESR AGAINST DARRELL WALTRIP_90-EV-0652
000834  ERN_F0177_NSCR_1990-11-15_INTV_DALE_EARNHARDT_ATLANTA_JOURNAL_500_TOPIC_-_FAMILY_&_DRIVE_TO_WIN_&_FANS_1990_ATLANTA_EARNHARDT_INT A20   C        01:20:03:14 01:20:05:18 00:18:40:05 00:18:42:07 
M2      ERN_F0177_NSCR_1990-11-15_INTV_DALE_EARNHARDT_ATLANTA_JOURNAL_500_TOPIC_-_FAMILY_&_DRIVE_TO_WIN_&_FANS_1990_ATLANTA_EARNHARDT_INT          030.0 01:20:03:14 
*FROM CLIP NAME:  ERN_F0177_NSCR_1990-11-15_INTV DALE EARNHARDT ATLANTA JOURNAL 500 TOPIC - FAMILY & DRIVE TO WIN & FANS_1990_ATLANTA_EARNHARDT_INT_1.NEW.02 
*SOURCE FILE: ERN_F0177_NSCR_1990-11-15_INTV DALE EARNHARDT ATLANTA JOURNAL 500 TOPIC - FAMILY & DRIVE TO WIN & FANS_1990_ATLANTA_EARNHARDT_INT_1
000835  ERN_F3168_NSCR_1990-11-18_RACE_BROLL_ATLANTA_JOURNAL_500_DRIVING_POV_&_DESR_AGAINST_DARRELL_WALTRIP_90-EV-0652                    A24   C        01:41:34:06 01:41:36:21 00:18:40:11 00:18:42:23 
M2      ERN_F3168_NSCR_1990-11-18_RACE_BROLL_ATLANTA_JOURNAL_500_DRIVING_POV_&_DESR_AGAINST_DARRELL_WALTRIP_90-EV-0652                             030.0 01:41:34:06 
*FROM CLIP NAME:  ERN_F3168_NSCR_1990-11-18_RACE BROLL ATLANTA JOURNAL 500 DRIVING POV & DESR AGAINST DARRELL WALTRIP_90-EV-0652.NEW.01 
*SOURCE FILE: ERN_F3168_NSCR_1990-11-18_RACE BROLL ATLANTA JOURNAL 500 DRIVING POV & DESR AGAINST DARRELL WALTRIP_90-EV-0652
000836  ERN_F4201_NSCR_1989-10-15_NORTH_WILKESBORO-HOLLY_FARMS_400_RACE_B-ROLL_89-EV-0525                                                 A22   C        01:16:29:20 01:16:31:14 00:18:40:19 00:18:42:14 
M2      ERN_F4201_NSCR_1989-10-15_NORTH_WILKESBORO-HOLLY_FARMS_400_RACE_B-ROLL_89-EV-0525                                                          030.0 01:16:29:20 
*FROM CLIP NAME:  ERN_F4201_NSCR_1989-10-15_NORTH WILKESBORO-HOLLY FARMS 400 RACE B-ROLL_89-EV-0525.NEW.01 
*SOURCE FILE: ERN_F4201_NSCR_1989-10-15_NORTH WILKESBORO-HOLLY FARMS 400 RACE B-ROLL_89-EV-0525
000837  ERN_F4284_NSCR_1989-10-15_RACE_BROADCAST_NORTH_WILKESBORO_HOLLY_FARMS_400_89-EV-0736                                              A18   C        01:08:13:21 01:08:15:02 00:18:41:19 00:18:43:03 
M2      ERN_F4284_NSCR_1989-10-15_RACE_BROADCAST_NORTH_WILKESBORO_HOLLY_FARMS_400_89-EV-0736                                                       030.0 01:08:13:21 
*FROM CLIP NAME:  ERN_F4215_NSCR_1989-10-15_NORTH WILKESBORO-HOLLY FARMS 400 ESPN RACE BROADCAST_89-EV-0736.NEW.01 
*TO CLIP NAME:  ERN_F4215_NSCR_1989-10-15_NORTH WILKESBORO-HOLLY FARMS 400 ESPN RACE BROADCAST_89-EV-0736.NEW.01 
*SOURCE FILE: ERN_F4284_NSCR_1989-10-15_RACE BROADCAST NORTH WILKESBORO HOLLY FARMS 400_89-EV-0736
000838  ERN_F9820_NSCR_1988_COMP_1988_CRASHES_LIC_EARNHARDT304982_14871_1988_CRASHES                                                      V     C        00:20:02:23 00:20:10:10 00:18:42:03 00:18:49:16 
M2      ERN_F9820_NSCR_1988_COMP_1988_CRASHES_LIC_EARNHARDT304982_14871_1988_CRASHES                                                               060.0 00:20:02:23 
*FROM CLIP NAME:  ERN_F9820_NSCR_1988_COMP 1988 CRASHES_LIC_EARNHARDT304982_14871_1988_CRASHES.NEW.01 
*SOURCE FILE: ERN_F9820_NSCR_1988_COMP 1988 CRASHES_LIC_EARNHARDT304982_14871_1988_CRASHES
000839  ERN_F4284_NSCR_1989-10-15_RACE_BROADCAST_NORTH_WILKESBORO_HOLLY_FARMS_400_89-EV-0736                                              A18   C        01:08:15:01 01:08:15:06 00:18:43:03 00:18:43:06 
M2      ERN_F4284_NSCR_1989-10-15_RACE_BROADCAST_NORTH_WILKESBORO_HOLLY_FARMS_400_89-EV-0736                                                       030.0 01:08:15:01 
*FROM CLIP NAME:  ERN_F4215_NSCR_1989-10-15_NORTH WILKESBORO-HOLLY FARMS 400 ESPN RACE BROADCAST_89-EV-0736.NEW.01 
*SOURCE FILE: ERN_F4284_NSCR_1989-10-15_RACE BROADCAST NORTH WILKESBORO HOLLY FARMS 400_89-EV-0736
000840  ERN_F4284_NSCR_1989-10-15_RACE_BROADCAST_NORTH_WILKESBORO_HOLLY_FARMS_400_89-EV-0736                                              A18   C        01:08:15:05 01:08:16:16 00:18:43:06 00:18:44:14 
M2      ERN_F4284_NSCR_1989-10-15_RACE_BROADCAST_NORTH_WILKESBORO_HOLLY_FARMS_400_89-EV-0736                                                       030.0 01:08:15:05 
*FROM CLIP NAME:  ERN_F4215_NSCR_1989-10-15_NORTH WILKESBORO-HOLLY FARMS 400 ESPN RACE BROADCAST_89-EV-0736.NEW.01 
*TO CLIP NAME:  ERN_F4215_NSCR_1989-10-15_NORTH WILKESBORO-HOLLY FARMS 400 ESPN RACE BROADCAST_89-EV-0736.NEW.01 
*SOURCE FILE: ERN_F4284_NSCR_1989-10-15_RACE BROADCAST NORTH WILKESBORO HOLLY FARMS 400_89-EV-0736
000841  ERN_F4284_NSCR_1989-10-15_RACE_BROADCAST_NORTH_WILKESBORO_HOLLY_FARMS_400_89-EV-0736                                              A18   C        01:08:16:15 01:08:20:07 00:18:44:14 00:18:48:07 
M2      ERN_F4284_NSCR_1989-10-15_RACE_BROADCAST_NORTH_WILKESBORO_HOLLY_FARMS_400_89-EV-0736                                                       030.0 01:08:16:15 
*FROM CLIP NAME:  ERN_F4215_NSCR_1989-10-15_NORTH WILKESBORO-HOLLY FARMS 400 ESPN RACE BROADCAST_89-EV-0736.NEW.01 
*SOURCE FILE: ERN_F4284_NSCR_1989-10-15_RACE BROADCAST NORTH WILKESBORO HOLLY FARMS 400_89-EV-0736
000842  ERN_F4284_NSCR_1989-10-15_RACE_BROADCAST_NORTH_WILKESBORO_HOLLY_FARMS_400_89-EV-0736                                              A18   C        01:20:43:00 01:20:44:11 00:18:51:12 00:18:52:20 
M2      ERN_F4284_NSCR_1989-10-15_RACE_BROADCAST_NORTH_WILKESBORO_HOLLY_FARMS_400_89-EV-0736                                                       030.0 01:20:43:00 
*FROM CLIP NAME:  ERN_F4215_NSCR_1989-10-15_NORTH WILKESBORO-HOLLY FARMS 400 ESPN RACE BROADCAST_89-EV-0736.NEW.01 
*SOURCE FILE: ERN_F4284_NSCR_1989-10-15_RACE BROADCAST NORTH WILKESBORO HOLLY FARMS 400_89-EV-0736
000843  ERN_F9822_NSCR_1988-04-10_RACE_BROADCAST_VALLEYDALE_MEATS_TENNESSEE_ISC-00513                                                     V     C        02:52:20:17 02:52:24:05 00:18:52:13 00:18:56:03 
M2      ERN_F9822_NSCR_1988-04-10_RACE_BROADCAST_VALLEYDALE_MEATS_TENNESSEE_ISC-00513                                                              030.0 02:52:20:17 
*FROM CLIP NAME:  ERN_F9822_NSCR_1988-04-10_RACE BROADCAST VALLEYDALE MEATS TENNESSEE_ISC-00513.NEW.01 
*SOURCE FILE: ERN_F9822_NSCR_1988-04-10_RACE BROADCAST VALLEYDALE MEATS TENNESSEE_ISC-00513
000844  ERN_F4284_NSCR_1989-10-15_RACE_BROADCAST_NORTH_WILKESBORO_HOLLY_FARMS_400_89-EV-0736                                              A18   C        01:20:44:10 01:20:45:23 00:18:52:20 00:18:54:06 
M2      ERN_F4284_NSCR_1989-10-15_RACE_BROADCAST_NORTH_WILKESBORO_HOLLY_FARMS_400_89-EV-0736                                                       030.0 01:20:44:10 
*FROM CLIP NAME:  ERN_F4215_NSCR_1989-10-15_NORTH WILKESBORO-HOLLY FARMS 400 ESPN RACE BROADCAST_89-EV-0736.NEW.01 
*SOURCE FILE: ERN_F4284_NSCR_1989-10-15_RACE BROADCAST NORTH WILKESBORO HOLLY FARMS 400_89-EV-0736
000845  ERN_F4284_NSCR_1989-10-15_RACE_BROADCAST_NORTH_WILKESBORO_HOLLY_FARMS_400_89-EV-0736                                              A20   C        01:20:45:07 01:20:46:08 00:18:53:01 00:18:54:01 
M2      ERN_F4284_NSCR_1989-10-15_RACE_BROADCAST_NORTH_WILKESBORO_HOLLY_FARMS_400_89-EV-0736                                                       030.0 01:20:45:07 
*FROM CLIP NAME:  ERN_F4215_NSCR_1989-10-15_NORTH WILKESBORO-HOLLY FARMS 400 ESPN RACE BROADCAST_89-EV-0736.NEW.01 
*SOURCE FILE: ERN_F4284_NSCR_1989-10-15_RACE BROADCAST NORTH WILKESBORO HOLLY FARMS 400_89-EV-0736
000846  ERN_F4284_NSCR_1989-10-15_RACE_BROADCAST_NORTH_WILKESBORO_HOLLY_FARMS_400_89-EV-0736                                              A20   C        01:20:46:07 01:20:51:13 00:18:54:01 00:18:59:05 
M2      ERN_F4284_NSCR_1989-10-15_RACE_BROADCAST_NORTH_WILKESBORO_HOLLY_FARMS_400_89-EV-0736                                                       030.0 01:20:46:07 
*FROM CLIP NAME:  ERN_F4215_NSCR_1989-10-15_NORTH WILKESBORO-HOLLY FARMS 400 ESPN RACE BROADCAST_89-EV-0736.NEW.01 
*SOURCE FILE: ERN_F4284_NSCR_1989-10-15_RACE BROADCAST NORTH WILKESBORO HOLLY FARMS 400_89-EV-0736
000847  ERN_F4284_NSCR_1989-10-15_RACE_BROADCAST_NORTH_WILKESBORO_HOLLY_FARMS_400_89-EV-0736                                              A18   C        01:17:05:07 01:17:06:23 00:18:56:02 00:18:57:14 
M2      ERN_F4284_NSCR_1989-10-15_RACE_BROADCAST_NORTH_WILKESBORO_HOLLY_FARMS_400_89-EV-0736                                                       030.0 01:17:05:07 
*FROM CLIP NAME:  ERN_F4215_NSCR_1989-10-15_NORTH WILKESBORO-HOLLY FARMS 400 ESPN RACE BROADCAST_89-EV-0736.NEW.01 
*SOURCE FILE: ERN_F4284_NSCR_1989-10-15_RACE BROADCAST NORTH WILKESBORO HOLLY FARMS 400_89-EV-0736
000848  ERN_F9822_NSCR_1988-04-10_RACE_BROADCAST_VALLEYDALE_MEATS_TENNESSEE_ISC-00513                                                     V     C        02:47:37:19 02:47:41:14 00:18:56:03 00:19:00:07 
M2      ERN_F9822_NSCR_1988-04-10_RACE_BROADCAST_VALLEYDALE_MEATS_TENNESSEE_ISC-00513                                                              027.5 02:47:37:19 
*FROM CLIP NAME:  ERN_F9822_NSCR_1988-04-10_RACE BROADCAST VALLEYDALE MEATS TENNESSEE_ISC-00513.NEW.01 
*SOURCE FILE: ERN_F9822_NSCR_1988-04-10_RACE BROADCAST VALLEYDALE MEATS TENNESSEE_ISC-00513
000849  ERN_F4284_NSCR_1989-10-15_RACE_BROADCAST_NORTH_WILKESBORO_HOLLY_FARMS_400_89-EV-0736                                              A18   C        01:17:06:22 01:17:08:12 00:18:57:14 00:18:59:05 
M2      ERN_F4284_NSCR_1989-10-15_RACE_BROADCAST_NORTH_WILKESBORO_HOLLY_FARMS_400_89-EV-0736                                                       030.0 01:17:06:22 
*FROM CLIP NAME:  ERN_F4215_NSCR_1989-10-15_NORTH WILKESBORO-HOLLY FARMS 400 ESPN RACE BROADCAST_89-EV-0736.NEW.01 
*SOURCE FILE: ERN_F4284_NSCR_1989-10-15_RACE BROADCAST NORTH WILKESBORO HOLLY FARMS 400_89-EV-0736
000850  ERN_F4284_NSCR_1989-10-15_RACE_BROADCAST_NORTH_WILKESBORO_HOLLY_FARMS_400_89-EV-0736                                              A18   C        01:17:07:18 01:17:09:19 00:19:01:10 00:19:03:10 
M2      ERN_F4284_NSCR_1989-10-15_RACE_BROADCAST_NORTH_WILKESBORO_HOLLY_FARMS_400_89-EV-0736                                                       030.0 01:17:07:18 
*FROM CLIP NAME:  ERN_F4215_NSCR_1989-10-15_NORTH WILKESBORO-HOLLY FARMS 400 ESPN RACE BROADCAST_89-EV-0736.NEW.01 
*SOURCE FILE: ERN_F4284_NSCR_1989-10-15_RACE BROADCAST NORTH WILKESBORO HOLLY FARMS 400_89-EV-0736
000851  ERN_F4284_NSCR_1989-10-15_RACE_BROADCAST_NORTH_WILKESBORO_HOLLY_FARMS_400_89-EV-0736                                              A20   C        01:20:53:12 01:20:55:13 00:19:01:10 00:19:03:10 
M2      ERN_F4284_NSCR_1989-10-15_RACE_BROADCAST_NORTH_WILKESBORO_HOLLY_FARMS_400_89-EV-0736                                                       030.0 01:20:53:12 
*FROM CLIP NAME:  ERN_F4215_NSCR_1989-10-15_NORTH WILKESBORO-HOLLY FARMS 400 ESPN RACE BROADCAST_89-EV-0736.NEW.01 
*SOURCE FILE: ERN_F4284_NSCR_1989-10-15_RACE BROADCAST NORTH WILKESBORO HOLLY FARMS 400_89-EV-0736
000852  ERN_F9822_NSCR_1988-04-10_RACE_BROADCAST_VALLEYDALE_MEATS_TENNESSEE_ISC-00513                                                     V     C        02:47:33:12 02:47:38:00 00:19:01:21 00:19:06:11 
M2      ERN_F9822_NSCR_1988-04-10_RACE_BROADCAST_VALLEYDALE_MEATS_TENNESSEE_ISC-00513                                                              030.0 02:47:33:12 
*FROM CLIP NAME:  ERN_F9822_NSCR_1988-04-10_RACE BROADCAST VALLEYDALE MEATS TENNESSEE_ISC-00513.NEW.01 
*SOURCE FILE: ERN_F9822_NSCR_1988-04-10_RACE BROADCAST VALLEYDALE MEATS TENNESSEE_ISC-00513
000853  ERN_F4284_NSCR_1989-10-15_RACE_BROADCAST_NORTH_WILKESBORO_HOLLY_FARMS_400_89-EV-0736                                              A18   C        01:17:09:18 01:17:09:24 00:19:03:10 00:19:03:14 
M2      ERN_F4284_NSCR_1989-10-15_RACE_BROADCAST_NORTH_WILKESBORO_HOLLY_FARMS_400_89-EV-0736                                                       030.0 01:17:09:18 
*FROM CLIP NAME:  ERN_F4215_NSCR_1989-10-15_NORTH WILKESBORO-HOLLY FARMS 400 ESPN RACE BROADCAST_89-EV-0736.NEW.01 
*SOURCE FILE: ERN_F4284_NSCR_1989-10-15_RACE BROADCAST NORTH WILKESBORO HOLLY FARMS 400_89-EV-0736
000854  ERN_F4284_NSCR_1989-10-15_RACE_BROADCAST_NORTH_WILKESBORO_HOLLY_FARMS_400_89-EV-0736                                              A20   C        01:20:55:12 01:20:56:29 00:19:03:10 00:19:04:23 
M2      ERN_F4284_NSCR_1989-10-15_RACE_BROADCAST_NORTH_WILKESBORO_HOLLY_FARMS_400_89-EV-0736                                                       030.0 01:20:55:12 
*FROM CLIP NAME:  ERN_F4215_NSCR_1989-10-15_NORTH WILKESBORO-HOLLY FARMS 400 ESPN RACE BROADCAST_89-EV-0736.NEW.01 
*SOURCE FILE: ERN_F4284_NSCR_1989-10-15_RACE BROADCAST NORTH WILKESBORO HOLLY FARMS 400_89-EV-0736
000855  ERN_F8935_NSCR_1989-08-26_RACE-BRISTOL-BUSCH_500-DESR_NO3_FLYBYS_PIT_STOPS_LGP02733                                               A18   C        00:32:46:15 00:32:48:00 00:19:07:10 00:19:08:22 
M2      ERN_F8935_NSCR_1989-08-26_RACE-BRISTOL-BUSCH_500-DESR_NO3_FLYBYS_PIT_STOPS_LGP02733                                                        030.0 00:32:46:15 
*FROM CLIP NAME:  ERN_F8935_NSCR_1989-08-26_RACE-BRISTOL-BUSCH 500-DESR NO3 FLYBYS PIT STOPS_LGP02733.NEW.01 
*SOURCE FILE: ERN_F8935_NSCR_1989-08-26_RACE-BRISTOL-BUSCH 500-DESR NO3 FLYBYS PIT STOPS_LGP02733
000856  ERN_F8935_NSCR_1989-08-26_RACE-BRISTOL-BUSCH_500-DESR_NO3_FLYBYS_PIT_STOPS_LGP02733                                               V     C        00:32:45:17 00:32:47:19 00:19:07:19 00:19:09:20 
M2      ERN_F8935_NSCR_1989-08-26_RACE-BRISTOL-BUSCH_500-DESR_NO3_FLYBYS_PIT_STOPS_LGP02733                                                        030.0 00:32:45:17 
*FROM CLIP NAME:  ERN_F8935_NSCR_1989-08-26_RACE-BRISTOL-BUSCH 500-DESR NO3 FLYBYS PIT STOPS_LGP02733.NEW.01 
*SOURCE FILE: ERN_F8935_NSCR_1989-08-26_RACE-BRISTOL-BUSCH 500-DESR NO3 FLYBYS PIT STOPS_LGP02733
000857  ERN_F8935_NSCR_1989-08-26_RACE-BRISTOL-BUSCH_500-DESR_NO3_FLYBYS_PIT_STOPS_LGP02733                                               A18   C        00:32:48:00 00:32:54:04 00:19:08:22 00:19:15:01 
M2      ERN_F8935_NSCR_1989-08-26_RACE-BRISTOL-BUSCH_500-DESR_NO3_FLYBYS_PIT_STOPS_LGP02733                                                        030.0 00:32:48:00 
*FROM CLIP NAME:  ERN_F8935_NSCR_1989-08-26_RACE-BRISTOL-BUSCH 500-DESR NO3 FLYBYS PIT STOPS_LGP02733.NEW.01 
*SOURCE FILE: ERN_F8935_NSCR_1989-08-26_RACE-BRISTOL-BUSCH 500-DESR NO3 FLYBYS PIT STOPS_LGP02733
000858  ERN_F8935_NSCR_1989-08-26_RACE-BRISTOL-BUSCH_500-DESR_NO3_FLYBYS_PIT_STOPS_LGP02733                                               V     C        00:34:58:08 00:35:11:18 00:19:09:20 00:19:16:12 
M2      ERN_F8935_NSCR_1989-08-26_RACE-BRISTOL-BUSCH_500-DESR_NO3_FLYBYS_PIT_STOPS_LGP02733                                                        060.0 00:34:58:08 
*FROM CLIP NAME:  ERN_F8935_NSCR_1989-08-26_RACE-BRISTOL-BUSCH 500-DESR NO3 FLYBYS PIT STOPS_LGP02733.NEW.01 
*SOURCE FILE: ERN_F8935_NSCR_1989-08-26_RACE-BRISTOL-BUSCH 500-DESR NO3 FLYBYS PIT STOPS_LGP02733
000859  ERN_F8935_NSCR_1989-08-26_RACE-BRISTOL-BUSCH_500-DESR_NO3_FLYBYS_PIT_STOPS_LGP02733                                               A18   C        00:33:11:27 00:33:13:13 00:19:15:01 00:19:16:13 
M2      ERN_F8935_NSCR_1989-08-26_RACE-BRISTOL-BUSCH_500-DESR_NO3_FLYBYS_PIT_STOPS_LGP02733                                                        030.0 00:33:11:27 
*FROM CLIP NAME:  ERN_F8935_NSCR_1989-08-26_RACE-BRISTOL-BUSCH 500-DESR NO3 FLYBYS PIT STOPS_LGP02733.NEW.01 
*TO CLIP NAME:  ERN_F8935_NSCR_1989-08-26_RACE-BRISTOL-BUSCH 500-DESR NO3 FLYBYS PIT STOPS_LGP02733.NEW.01 
*SOURCE FILE: ERN_F8935_NSCR_1989-08-26_RACE-BRISTOL-BUSCH 500-DESR NO3 FLYBYS PIT STOPS_LGP02733
000860  ERN_F8935_NSCR_1989-08-26_RACE-BRISTOL-BUSCH_500-DESR_NO3_FLYBYS_PIT_STOPS_LGP02733                                               V     C        00:33:15:23 00:33:20:23 00:19:16:12 00:19:21:11 
M2      ERN_F8935_NSCR_1989-08-26_RACE-BRISTOL-BUSCH_500-DESR_NO3_FLYBYS_PIT_STOPS_LGP02733                                                        030.0 00:33:15:23 
*FROM CLIP NAME:  ERN_F8935_NSCR_1989-08-26_RACE-BRISTOL-BUSCH 500-DESR NO3 FLYBYS PIT STOPS_LGP02733.NEW.01 
*SOURCE FILE: ERN_F8935_NSCR_1989-08-26_RACE-BRISTOL-BUSCH 500-DESR NO3 FLYBYS PIT STOPS_LGP02733
000861  ERN_F8935_NSCR_1989-08-26_RACE-BRISTOL-BUSCH_500-DESR_NO3_FLYBYS_PIT_STOPS_LGP02733                                               A18   C        00:33:13:12 00:33:17:03 00:19:16:13 00:19:20:05 
M2      ERN_F8935_NSCR_1989-08-26_RACE-BRISTOL-BUSCH_500-DESR_NO3_FLYBYS_PIT_STOPS_LGP02733                                                        030.0 00:33:13:12 
*FROM CLIP NAME:  ERN_F8935_NSCR_1989-08-26_RACE-BRISTOL-BUSCH 500-DESR NO3 FLYBYS PIT STOPS_LGP02733.NEW.01 
*SOURCE FILE: ERN_F8935_NSCR_1989-08-26_RACE-BRISTOL-BUSCH 500-DESR NO3 FLYBYS PIT STOPS_LGP02733
000862  ERN_F2588_NSCR_1988-05-28_PART_2_RACE_B-ROLL_CHARLOTTE_WINN_DIXIE_300_DESR_NO8_TNN010645                                          A22   C        00:48:06:15 00:48:08:00 00:19:24:20 00:19:26:08 
M2      ERN_F2588_NSCR_1988-05-28_PART_2_RACE_B-ROLL_CHARLOTTE_WINN_DIXIE_300_DESR_NO8_TNN010645                                                   030.0 00:48:06:15 
*FROM CLIP NAME:  ERN_F2588_NSCR_1988-05-28_PART 2 RACE B-ROLL CHARLOTTE WINN DIXIE 300 DESR NO8_TNN010645.NEW.01 
*SOURCE FILE: ERN_F2588_NSCR_1988-05-28_PART 2 RACE B-ROLL CHARLOTTE WINN DIXIE 300 DESR NO8_TNN010645
000863  ERN_F2588_NSCR_1988-05-28_PART_2_RACE_B-ROLL_CHARLOTTE_WINN_DIXIE_300_DESR_NO8_TNN010645                                          V     C        00:48:07:22 00:48:11:28 00:19:26:02 00:19:30:06 
M2      ERN_F2588_NSCR_1988-05-28_PART_2_RACE_B-ROLL_CHARLOTTE_WINN_DIXIE_300_DESR_NO8_TNN010645                                                   030.0 00:48:07:22 
*FROM CLIP NAME:  ERN_F2588_NSCR_1988-05-28_PART 2 RACE B-ROLL CHARLOTTE WINN DIXIE 300 DESR NO8_TNN010645.NEW.01 
*SOURCE FILE: ERN_F2588_NSCR_1988-05-28_PART 2 RACE B-ROLL CHARLOTTE WINN DIXIE 300 DESR NO8_TNN010645
000864  ERN_F2588_NSCR_1988-05-28_PART_2_RACE_B-ROLL_CHARLOTTE_WINN_DIXIE_300_DESR_NO8_TNN010645                                          A22   C        00:48:08:00 00:48:11:12 00:19:26:08 00:19:29:17 
M2      ERN_F2588_NSCR_1988-05-28_PART_2_RACE_B-ROLL_CHARLOTTE_WINN_DIXIE_300_DESR_NO8_TNN010645                                                   030.0 00:48:08:00 
*FROM CLIP NAME:  ERN_F2588_NSCR_1988-05-28_PART 2 RACE B-ROLL CHARLOTTE WINN DIXIE 300 DESR NO8_TNN010645.NEW.01 
*SOURCE FILE: ERN_F2588_NSCR_1988-05-28_PART 2 RACE B-ROLL CHARLOTTE WINN DIXIE 300 DESR NO8_TNN010645
000865  ERN_F0653_NSCR_1990-01-04_DESR_RACE_NASCAR_CUP_SERIES_-_DARLINGTON_90-EV-0664                                                     A24   C        01:08:27:21 01:08:29:22 00:19:26:23 00:19:28:23 
M2      ERN_F0653_NSCR_1990-01-04_DESR_RACE_NASCAR_CUP_SERIES_-_DARLINGTON_90-EV-0664                                                              030.0 01:08:27:21 
*FROM CLIP NAME:  ERN_F0653_NSCR_1990-01-04_DESR RACE NASCAR CUP SERIES - DARLINGTON_90-EV-0664.NEW.01 
*SOURCE FILE: ERN_F0653_NSCR_1990-01-04_DESR RACE NASCAR CUP SERIES - DARLINGTON_90-EV-0664
000866  ERN_F0653_NSCR_1990-01-04_DESR_RACE_NASCAR_CUP_SERIES_-_DARLINGTON_90-EV-0664                                                     A24   C        01:08:29:21 01:08:30:13 00:19:28:23 00:19:29:16 
M2      ERN_F0653_NSCR_1990-01-04_DESR_RACE_NASCAR_CUP_SERIES_-_DARLINGTON_90-EV-0664                                                              030.0 01:08:29:21 
*FROM CLIP NAME:  ERN_F0653_NSCR_1990-01-04_DESR RACE NASCAR CUP SERIES - DARLINGTON_90-EV-0664.NEW.01 
*SOURCE FILE: ERN_F0653_NSCR_1990-01-04_DESR RACE NASCAR CUP SERIES - DARLINGTON_90-EV-0664
000867  ERN_F8776_NASX_1988-02-07_RACE_BROADCAST_HIGHLIGHTS_BUSCH_CLASH_DAYTONA_DESR_BODINE_YOUTUBE                                       A18   C        00:02:51:16 00:02:52:09 00:19:29:07 00:19:30:01 
M2      ERN_F8776_NASX_1988-02-07_RACE_BROADCAST_HIGHLIGHTS_BUSCH_CLASH_DAYTONA_DESR_BODINE_YOUTUBE                                                030.0 00:02:51:16 
*FROM CLIP NAME:  ERN_F8776_NASX_1988-02-07_RACE BROADCAST HIGHLIGHTS BUSCH CLASH DAYTONA DESR BODINE_YOUTUBE.NEW.01 
*SOURCE FILE: ERN_F8776_NASX_1988-02-07_RACE BROADCAST HIGHLIGHTS BUSCH CLASH DAYTONA DESR BODINE_YOUTUBE
000868  ERN_F0653_NSCR_1990-01-04_DESR_RACE_NASCAR_CUP_SERIES_-_DARLINGTON_90-EV-0664                                                     A24   C        01:08:30:12 01:08:31:23 00:19:29:16 00:19:31:00 
M2      ERN_F0653_NSCR_1990-01-04_DESR_RACE_NASCAR_CUP_SERIES_-_DARLINGTON_90-EV-0664                                                              030.0 01:08:30:12 
*FROM CLIP NAME:  ERN_F0653_NSCR_1990-01-04_DESR RACE NASCAR CUP SERIES - DARLINGTON_90-EV-0664.NEW.01 
*TO CLIP NAME:  ERN_F0653_NSCR_1990-01-04_DESR RACE NASCAR CUP SERIES - DARLINGTON_90-EV-0664.NEW.01 
*SOURCE FILE: ERN_F0653_NSCR_1990-01-04_DESR RACE NASCAR CUP SERIES - DARLINGTON_90-EV-0664
000869  ERN_F2588_NSCR_1988-05-28_PART_2_RACE_B-ROLL_CHARLOTTE_WINN_DIXIE_300_DESR_NO8_TNN010645                                          A22   C        00:48:11:11 00:48:12:22 00:19:29:17 00:19:31:01 
M2      ERN_F2588_NSCR_1988-05-28_PART_2_RACE_B-ROLL_CHARLOTTE_WINN_DIXIE_300_DESR_NO8_TNN010645                                                   030.0 00:48:11:11 
*FROM CLIP NAME:  ERN_F2588_NSCR_1988-05-28_PART 2 RACE B-ROLL CHARLOTTE WINN DIXIE 300 DESR NO8_TNN010645.NEW.01 
*TO CLIP NAME:  ERN_F2588_NSCR_1988-05-28_PART 2 RACE B-ROLL CHARLOTTE WINN DIXIE 300 DESR NO8_TNN010645.NEW.01 
*SOURCE FILE: ERN_F2588_NSCR_1988-05-28_PART 2 RACE B-ROLL CHARLOTTE WINN DIXIE 300 DESR NO8_TNN010645
000870  ERN_F8776_NASX_1988-02-07_RACE_BROADCAST_HIGHLIGHTS_BUSCH_CLASH_DAYTONA_DESR_BODINE_YOUTUBE                                       A18   C        00:02:52:23 00:02:59:20 00:19:30:01 00:19:36:22 
M2      ERN_F8776_NASX_1988-02-07_RACE_BROADCAST_HIGHLIGHTS_BUSCH_CLASH_DAYTONA_DESR_BODINE_YOUTUBE                                                030.0 00:02:52:23 
*FROM CLIP NAME:  ERN_F8776_NASX_1988-02-07_RACE BROADCAST HIGHLIGHTS BUSCH CLASH DAYTONA DESR BODINE_YOUTUBE.NEW.01 
*SOURCE FILE: ERN_F8776_NASX_1988-02-07_RACE BROADCAST HIGHLIGHTS BUSCH CLASH DAYTONA DESR BODINE_YOUTUBE
000871  ERN_F2243_NSCR_1988-05-28_CHARLOTTE_WINN_DIXIE_300_WINNER_DALE_JARRETT_FANS_IN_STANDS_B-ROLL_RACE_B-ROLL__88-EV-0171              V     C        00:06:09:08 00:06:12:28 00:19:30:06 00:19:33:22 
M2      ERN_F2243_NSCR_1988-05-28_CHARLOTTE_WINN_DIXIE_300_WINNER_DALE_JARRETT_FANS_IN_STANDS_B-ROLL_RACE_B-ROLL__88-EV-0171                       030.0 00:06:09:08 
*FROM CLIP NAME:  ERN_F2243_NSCR_1988-05-28_CHARLOTTE WINN DIXIE 300 WINNER DALE JARRETT FANS IN STANDS B-ROLL RACE B-ROLL _88-EV-0171.NEW.01 
*SOURCE FILE: ERN_F2243_NSCR_1988-05-28_CHARLOTTE WINN DIXIE 300 WINNER DALE JARRETT FANS IN STANDS B-ROLL RACE B-ROLL _88-EV-0171
000872  ERN_F0653_NSCR_1990-01-04_DESR_RACE_NASCAR_CUP_SERIES_-_DARLINGTON_90-EV-0664                                                     A24   C        01:08:31:22 01:08:35:03 00:19:31:00 00:19:34:08 
M2      ERN_F0653_NSCR_1990-01-04_DESR_RACE_NASCAR_CUP_SERIES_-_DARLINGTON_90-EV-0664                                                              030.0 01:08:31:22 
*FROM CLIP NAME:  ERN_F0653_NSCR_1990-01-04_DESR RACE NASCAR CUP SERIES - DARLINGTON_90-EV-0664.NEW.01 
*SOURCE FILE: ERN_F0653_NSCR_1990-01-04_DESR RACE NASCAR CUP SERIES - DARLINGTON_90-EV-0664
000873  ERN_F2588_NSCR_1988-05-28_PART_2_RACE_B-ROLL_CHARLOTTE_WINN_DIXIE_300_DESR_NO8_TNN010645                                          A22   C        00:48:12:21 00:48:16:00 00:19:31:01 00:19:34:08 
M2      ERN_F2588_NSCR_1988-05-28_PART_2_RACE_B-ROLL_CHARLOTTE_WINN_DIXIE_300_DESR_NO8_TNN010645                                                   030.0 00:48:12:21 
*FROM CLIP NAME:  ERN_F2588_NSCR_1988-05-28_PART 2 RACE B-ROLL CHARLOTTE WINN DIXIE 300 DESR NO8_TNN010645.NEW.01 
*SOURCE FILE: ERN_F2588_NSCR_1988-05-28_PART 2 RACE B-ROLL CHARLOTTE WINN DIXIE 300 DESR NO8_TNN010645
000874  ERN_F8776_NASX_1988-02-07_RACE_BROADCAST_HIGHLIGHTS_BUSCH_CLASH_DAYTONA_DESR_BODINE_YOUTUBE                                       V     C        00:02:56:20 00:02:59:27 00:19:33:22 00:19:37:03 
M2      ERN_F8776_NASX_1988-02-07_RACE_BROADCAST_HIGHLIGHTS_BUSCH_CLASH_DAYTONA_DESR_BODINE_YOUTUBE                                                030.0 00:02:56:20 
*FROM CLIP NAME:  ERN_F8776_NASX_1988-02-07_RACE BROADCAST HIGHLIGHTS BUSCH CLASH DAYTONA DESR BODINE_YOUTUBE.NEW.01 
*SOURCE FILE: ERN_F8776_NASX_1988-02-07_RACE BROADCAST HIGHLIGHTS BUSCH CLASH DAYTONA DESR BODINE_YOUTUBE
000875  ERN_F2947_NSCR_1988_COMP_SELECTS-INTV_&_B-ROLL_GEOFF_BODINE_VARIOUS__EARNHARDT298341_14141_BODINE                                 A20   C        00:01:07:10 00:01:07:25 00:19:36:16 00:19:37:04 
M2      ERN_F2947_NSCR_1988_COMP_SELECTS-INTV_&_B-ROLL_GEOFF_BODINE_VARIOUS__EARNHARDT298341_14141_BODINE                                          030.0 00:01:07:10 
*FROM CLIP NAME:  ERN_F2947_NSCR_1988_COMP SELECTS-INTV & B-ROLL GEOFF BODINE VARIOUS _EARNHARDT298341_14141_BODINE.NEW.01 
*SOURCE FILE: ERN_F2947_NSCR_1988_COMP SELECTS-INTV & B-ROLL GEOFF BODINE VARIOUS _EARNHARDT298341_14141_BODINE
000876  ERN_F2947_NSCR_1988_COMP_SELECTS-INTV_&_B-ROLL_GEOFF_BODINE_VARIOUS__EARNHARDT298341_14141_BODINE                                 V     C        00:01:07:10 00:01:12:19 00:19:37:03 00:19:42:10 
M2      ERN_F2947_NSCR_1988_COMP_SELECTS-INTV_&_B-ROLL_GEOFF_BODINE_VARIOUS__EARNHARDT298341_14141_BODINE                                          030.0 00:01:07:10 
*FROM CLIP NAME:  ERN_F2947_NSCR_1988_COMP SELECTS-INTV & B-ROLL GEOFF BODINE VARIOUS _EARNHARDT298341_14141_BODINE.NEW.01 
*SOURCE FILE: ERN_F2947_NSCR_1988_COMP SELECTS-INTV & B-ROLL GEOFF BODINE VARIOUS _EARNHARDT298341_14141_BODINE
000877  ERN_F2947_NSCR_1988_COMP_SELECTS-INTV_&_B-ROLL_GEOFF_BODINE_VARIOUS__EARNHARDT298341_14141_BODINE                                 A20   C        00:01:07:25 00:01:12:13 00:19:37:04 00:19:41:18 
M2      ERN_F2947_NSCR_1988_COMP_SELECTS-INTV_&_B-ROLL_GEOFF_BODINE_VARIOUS__EARNHARDT298341_14141_BODINE                                          030.0 00:01:07:25 
*FROM CLIP NAME:  ERN_F2947_NSCR_1988_COMP SELECTS-INTV & B-ROLL GEOFF BODINE VARIOUS _EARNHARDT298341_14141_BODINE.NEW.01 
*SOURCE FILE: ERN_F2947_NSCR_1988_COMP SELECTS-INTV & B-ROLL GEOFF BODINE VARIOUS _EARNHARDT298341_14141_BODINE
000878  ERN_F2203_NSCR_1988-05-29_WINSTON_CUP_SERIES_DARRELL_WALTRIP_INTV_GEOFF_BODINE_INTV__1988-NAS-00052_S001                          A18   C        00:10:42:24 00:10:42:29 00:19:38:15 00:19:38:19 
M2      ERN_F2203_NSCR_1988-05-29_WINSTON_CUP_SERIES_DARRELL_WALTRIP_INTV_GEOFF_BODINE_INTV__1988-NAS-00052_S001                                   030.0 00:10:42:24 
*FROM CLIP NAME:  ERN_F2203_NSCR_1988-05-29_WINSTON CUP SERIES DARRELL WALTRIP INTV GEOFF BODINE INTV _1988-NAS-00052_S001.NEW.01 
*SOURCE FILE: ERN_F2203_NSCR_1988-05-29_WINSTON CUP SERIES DARRELL WALTRIP INTV GEOFF BODINE INTV _1988-NAS-00052_S001
000879  ERN_F2203_NSCR_1988-05-29_WINSTON_CUP_SERIES_DARRELL_WALTRIP_INTV_GEOFF_BODINE_INTV__1988-NAS-00052_S001                          A18   C        00:10:42:29 00:10:46:19 00:19:38:19 00:19:42:11 
M2      ERN_F2203_NSCR_1988-05-29_WINSTON_CUP_SERIES_DARRELL_WALTRIP_INTV_GEOFF_BODINE_INTV__1988-NAS-00052_S001                                   030.0 00:10:42:29 
*FROM CLIP NAME:  ERN_F2203_NSCR_1988-05-29_WINSTON CUP SERIES DARRELL WALTRIP INTV GEOFF BODINE INTV _1988-NAS-00052_S001.NEW.01 
*SOURCE FILE: ERN_F2203_NSCR_1988-05-29_WINSTON CUP SERIES DARRELL WALTRIP INTV GEOFF BODINE INTV _1988-NAS-00052_S001
000880  ERN_F2203_NSCR_1988-05-29_WINSTON_CUP_SERIES_DARRELL_WALTRIP_INTV_GEOFF_BODINE_INTV__1988-NAS-00052_S001                          V     C        00:11:00:09 00:11:02:19 00:19:42:10 00:19:44:17 
M2      ERN_F2203_NSCR_1988-05-29_WINSTON_CUP_SERIES_DARRELL_WALTRIP_INTV_GEOFF_BODINE_INTV__1988-NAS-00052_S001                                   030.0 00:11:00:09 
*FROM CLIP NAME:  ERN_F2203_NSCR_1988-05-29_WINSTON CUP SERIES DARRELL WALTRIP INTV GEOFF BODINE INTV _1988-NAS-00052_S001.NEW.01 
*SOURCE FILE: ERN_F2203_NSCR_1988-05-29_WINSTON CUP SERIES DARRELL WALTRIP INTV GEOFF BODINE INTV _1988-NAS-00052_S001
000881  ERN_F2203_NSCR_1988-05-29_WINSTON_CUP_SERIES_DARRELL_WALTRIP_INTV_GEOFF_BODINE_INTV__1988-NAS-00052_S001                          A18   C        00:11:00:11 00:11:00:14 00:19:42:11 00:19:42:13 
M2      ERN_F2203_NSCR_1988-05-29_WINSTON_CUP_SERIES_DARRELL_WALTRIP_INTV_GEOFF_BODINE_INTV__1988-NAS-00052_S001                                   030.0 00:11:00:11 
*FROM CLIP NAME:  ERN_F2203_NSCR_1988-05-29_WINSTON CUP SERIES DARRELL WALTRIP INTV GEOFF BODINE INTV _1988-NAS-00052_S001.NEW.01 
*TO CLIP NAME:  ERN_F2203_NSCR_1988-05-29_WINSTON CUP SERIES DARRELL WALTRIP INTV GEOFF BODINE INTV _1988-NAS-00052_S001.NEW.01 
*SOURCE FILE: ERN_F2203_NSCR_1988-05-29_WINSTON CUP SERIES DARRELL WALTRIP INTV GEOFF BODINE INTV _1988-NAS-00052_S001
000882  ERN_F2203_NSCR_1988-05-29_WINSTON_CUP_SERIES_DARRELL_WALTRIP_INTV_GEOFF_BODINE_INTV__1988-NAS-00052_S001                          A18   C        00:11:00:13 00:11:02:23 00:19:42:13 00:19:44:20 
M2      ERN_F2203_NSCR_1988-05-29_WINSTON_CUP_SERIES_DARRELL_WALTRIP_INTV_GEOFF_BODINE_INTV__1988-NAS-00052_S001                                   030.0 00:11:00:13 
*FROM CLIP NAME:  ERN_F2203_NSCR_1988-05-29_WINSTON CUP SERIES DARRELL WALTRIP INTV GEOFF BODINE INTV _1988-NAS-00052_S001.NEW.01 
*SOURCE FILE: ERN_F2203_NSCR_1988-05-29_WINSTON CUP SERIES DARRELL WALTRIP INTV GEOFF BODINE INTV _1988-NAS-00052_S001
000883  ERN_F4214_NSCR_1989-10-15_NORTH_WILKESBORO-HOLLY_FARMS_400_ESPN_RACE_BROADCAST_89-EV-0734                                         A20   C        01:07:30:03 01:07:31:04 00:19:44:12 00:19:45:12 
M2      ERN_F4214_NSCR_1989-10-15_NORTH_WILKESBORO-HOLLY_FARMS_400_ESPN_RACE_BROADCAST_89-EV-0734                                                  030.0 01:07:30:03 
*FROM CLIP NAME:  ERN_F4214_NSCR_1989-10-15_NORTH WILKESBORO-HOLLY FARMS 400 ESPN RACE BROADCAST_89-EV-0734.NEW.01 
*SOURCE FILE: ERN_F4214_NSCR_1989-10-15_NORTH WILKESBORO-HOLLY FARMS 400 ESPN RACE BROADCAST_89-EV-0734
000884  ERN_F2245_NSCR_1988-05-29_CHARLOTTE-WORLD_600_WINNER_DARRELL_WALTRIP_INTV_GEOFF_BODINE_INTV_DALE_JARRETT_NO_57_1988-NAS-027027    V     C        01:13:27:22 01:13:29:01 00:19:44:17 00:19:46:07 
M2      ERN_F2245_NSCR_1988-05-29_CHARLOTTE-WORLD_600_WINNER_DARRELL_WALTRIP_INTV_GEOFF_BODINE_INTV_DALE_JARRETT_NO_57_1988-NAS-027027             024.0 01:13:27:22 
*FROM CLIP NAME:  ERN_F2245_NSCR_1988-05-29_CHARLOTTE-WORLD 600 WINNER DARRELL WALTRIP INTV GEOFF BODINE INTV DALE JARRETT NO 57_1988-NAS-027027.NEW.01 
*SOURCE FILE: ERN_F2245_NSCR_1988-05-29_CHARLOTTE-WORLD 600 WINNER DARRELL WALTRIP INTV GEOFF BODINE INTV DALE JARRETT NO 57_1988-NAS-027027
000885  ERN_F2203_NSCR_1988-05-29_WINSTON_CUP_SERIES_DARRELL_WALTRIP_INTV_GEOFF_BODINE_INTV__1988-NAS-00052_S001                          A18   C        00:11:05:03 00:11:06:08 00:19:45:03 00:19:46:06 
M2      ERN_F2203_NSCR_1988-05-29_WINSTON_CUP_SERIES_DARRELL_WALTRIP_INTV_GEOFF_BODINE_INTV__1988-NAS-00052_S001                                   030.0 00:11:05:03 
*FROM CLIP NAME:  ERN_F2203_NSCR_1988-05-29_WINSTON CUP SERIES DARRELL WALTRIP INTV GEOFF BODINE INTV _1988-NAS-00052_S001.NEW.01 
*SOURCE FILE: ERN_F2203_NSCR_1988-05-29_WINSTON CUP SERIES DARRELL WALTRIP INTV GEOFF BODINE INTV _1988-NAS-00052_S001
000886  ERN_F4214_NSCR_1989-10-15_NORTH_WILKESBORO-HOLLY_FARMS_400_ESPN_RACE_BROADCAST_89-EV-0734                                         A20   C        01:07:31:03 01:07:33:03 00:19:45:12 00:19:47:11 
M2      ERN_F4214_NSCR_1989-10-15_NORTH_WILKESBORO-HOLLY_FARMS_400_ESPN_RACE_BROADCAST_89-EV-0734                                                  030.0 01:07:31:03 
*FROM CLIP NAME:  ERN_F4214_NSCR_1989-10-15_NORTH WILKESBORO-HOLLY FARMS 400 ESPN RACE BROADCAST_89-EV-0734.NEW.01 
*SOURCE FILE: ERN_F4214_NSCR_1989-10-15_NORTH WILKESBORO-HOLLY FARMS 400 ESPN RACE BROADCAST_89-EV-0734
000887  ERN_F2203_NSCR_1988-05-29_WINSTON_CUP_SERIES_DARRELL_WALTRIP_INTV_GEOFF_BODINE_INTV__1988-NAS-00052_S001                          A18   C        00:11:06:16 00:11:07:19 00:19:46:06 00:19:47:08 
M2      ERN_F2203_NSCR_1988-05-29_WINSTON_CUP_SERIES_DARRELL_WALTRIP_INTV_GEOFF_BODINE_INTV__1988-NAS-00052_S001                                   030.0 00:11:06:16 
*FROM CLIP NAME:  ERN_F2203_NSCR_1988-05-29_WINSTON CUP SERIES DARRELL WALTRIP INTV GEOFF BODINE INTV _1988-NAS-00052_S001.NEW.01 
*SOURCE FILE: ERN_F2203_NSCR_1988-05-29_WINSTON CUP SERIES DARRELL WALTRIP INTV GEOFF BODINE INTV _1988-NAS-00052_S001
000888  ERN_F2245_NSCR_1988-05-29_CHARLOTTE-WORLD_600_WINNER_DARRELL_WALTRIP_INTV_GEOFF_BODINE_INTV_DALE_JARRETT_NO_57_1988-NAS-027027    V     C        01:13:25:00 01:13:27:22 00:19:46:07 00:19:49:00 
M2      ERN_F2245_NSCR_1988-05-29_CHARLOTTE-WORLD_600_WINNER_DARRELL_WALTRIP_INTV_GEOFF_BODINE_INTV_DALE_JARRETT_NO_57_1988-NAS-027027             030.0 01:13:25:00 
*FROM CLIP NAME:  ERN_F2245_NSCR_1988-05-29_CHARLOTTE-WORLD 600 WINNER DARRELL WALTRIP INTV GEOFF BODINE INTV DALE JARRETT NO 57_1988-NAS-027027.NEW.01 
*SOURCE FILE: ERN_F2245_NSCR_1988-05-29_CHARLOTTE-WORLD 600 WINNER DARRELL WALTRIP INTV GEOFF BODINE INTV DALE JARRETT NO 57_1988-NAS-027027
000889  ERN_F1008_NSCR_1990S_RACE_B-ROLL_POLE_DAY_CHARLOTTE_DESR_TRACK_PRACTICE_W_CHOCOLATE_MYERS_&_KIRK_SHELMERDINE_&_CREW_13A_EARNHARDT A22   C        00:05:18:04 00:05:18:19 00:19:46:09 00:19:46:21 
M2      ERN_F1008_NSCR_1990S_RACE_B-ROLL_POLE_DAY_CHARLOTTE_DESR_TRACK_PRACTICE_W_CHOCOLATE_MYERS_&_KIRK_SHELMERDINE_&_CREW_13A_EARNHARDT          030.0 00:05:18:04 
*FROM CLIP NAME:  ERN_F1008_NSCR_1990S_RACE B-ROLL POLE DAY CHARLOTTE DESR TRACK PRACTICE W CHOCOLATE MYERS & KIRK SHELMERDINE & CREW_13A_EARNHARDT PRAX 2.NEW.01.COPY.01 
*SOURCE FILE: ERN_F1008_NSCR_1990S_RACE B-ROLL POLE DAY CHARLOTTE DESR TRACK PRACTICE W CHOCOLATE MYERS & KIRK SHELMERDINE & CREW_13A_EARNHARDT PRAX 2
000890  ERN_F1008_NSCR_1990S_RACE_B-ROLL_POLE_DAY_CHARLOTTE_DESR_TRACK_PRACTICE_W_CHOCOLATE_MYERS_&_KIRK_SHELMERDINE_&_CREW_13A_EARNHARDT A22   C        00:05:18:19 00:05:20:23 00:19:46:21 00:19:49:00 
M2      ERN_F1008_NSCR_1990S_RACE_B-ROLL_POLE_DAY_CHARLOTTE_DESR_TRACK_PRACTICE_W_CHOCOLATE_MYERS_&_KIRK_SHELMERDINE_&_CREW_13A_EARNHARDT          030.0 00:05:18:19 
*FROM CLIP NAME:  ERN_F1008_NSCR_1990S_RACE B-ROLL POLE DAY CHARLOTTE DESR TRACK PRACTICE W CHOCOLATE MYERS & KIRK SHELMERDINE & CREW_13A_EARNHARDT PRAX 2.NEW.01.COPY.01 
*SOURCE FILE: ERN_F1008_NSCR_1990S_RACE B-ROLL POLE DAY CHARLOTTE DESR TRACK PRACTICE W CHOCOLATE MYERS & KIRK SHELMERDINE & CREW_13A_EARNHARDT PRAX 2
000891  ERN_F4214_NSCR_1989-10-15_NORTH_WILKESBORO-HOLLY_FARMS_400_ESPN_RACE_BROADCAST_89-EV-0734                                         A20   C        01:07:33:18 01:07:35:05 00:19:47:11 00:19:49:00 
M2      ERN_F4214_NSCR_1989-10-15_NORTH_WILKESBORO-HOLLY_FARMS_400_ESPN_RACE_BROADCAST_89-EV-0734                                                  030.0 01:07:33:18 
*FROM CLIP NAME:  ERN_F4214_NSCR_1989-10-15_NORTH WILKESBORO-HOLLY FARMS 400 ESPN RACE BROADCAST_89-EV-0734.NEW.01 
*TO CLIP NAME:  ERN_F4214_NSCR_1989-10-15_NORTH WILKESBORO-HOLLY FARMS 400 ESPN RACE BROADCAST_89-EV-0734.NEW.01 
*SOURCE FILE: ERN_F4214_NSCR_1989-10-15_NORTH WILKESBORO-HOLLY FARMS 400 ESPN RACE BROADCAST_89-EV-0734
000892  ERN_F0800_NSCR_1987-05-17_RACE_DESR_WINNER_BILL_ELLIOTT_CHARLOTTE_-_THE_WINSTON_87-EV-0287                                        A24   C        00:50:37:02 00:50:38:05 00:19:47:22 00:19:49:00 
M2      ERN_F0800_NSCR_1987-05-17_RACE_DESR_WINNER_BILL_ELLIOTT_CHARLOTTE_-_THE_WINSTON_87-EV-0287                                                 030.0 00:50:37:02 
*FROM CLIP NAME:  ERN_F0800_NSCR_1987-05-17_RACE DESR WINNER BILL ELLIOTT CHARLOTTE - THE WINSTON_87-EV-0287.NEW.01 
*SOURCE FILE: ERN_F0800_NSCR_1987-05-17_RACE DESR WINNER BILL ELLIOTT CHARLOTTE - THE WINSTON_87-EV-0287
000893  ERN_F1923_NSCR_1988-05-29_CHARLOTTE-COCA_COLA_600_ANNOUNCERS_DALE_JARRETT_WINNER_RCE_B-ROLL_FLYBY_88-EV-0165                      A26   C        00:13:02:13 00:13:03:14 00:19:48:16 00:19:49:16 
M2      ERN_F1923_NSCR_1988-05-29_CHARLOTTE-COCA_COLA_600_ANNOUNCERS_DALE_JARRETT_WINNER_RCE_B-ROLL_FLYBY_88-EV-0165                               030.0 00:13:02:13 
*FROM CLIP NAME:  ERN_F1923_NSCR_1988-05-29_CHARLOTTE-COCA COLA 600 ANNOUNCERS DALE JARRETT WINNER RCE B-ROLL FLYBY_88-EV-0165.NEW.01 
*SOURCE FILE: ERN_F1923_NSCR_1988-05-29_CHARLOTTE-COCA COLA 600 ANNOUNCERS DALE JARRETT WINNER RCE B-ROLL FLYBY_88-EV-0165
000894  ERN_F1923_NSCR_1988-05-29_CHARLOTTE-COCA_COLA_600_ANNOUNCERS_DALE_JARRETT_WINNER_RCE_B-ROLL_FLYBY_88-EV-0165                      A18   C        00:12:47:22 00:12:48:00 00:19:48:18 00:19:49:00 
M2      ERN_F1923_NSCR_1988-05-29_CHARLOTTE-COCA_COLA_600_ANNOUNCERS_DALE_JARRETT_WINNER_RCE_B-ROLL_FLYBY_88-EV-0165                               030.0 00:12:47:22 
*FROM CLIP NAME:  ERN_F1923_NSCR_1988-05-29_CHARLOTTE-COCA COLA 600 ANNOUNCERS DALE JARRETT WINNER RCE B-ROLL FLYBY_88-EV-0165.NEW.01 
*SOURCE FILE: ERN_F1923_NSCR_1988-05-29_CHARLOTTE-COCA COLA 600 ANNOUNCERS DALE JARRETT WINNER RCE B-ROLL FLYBY_88-EV-0165
000895  ERN_F0800_NSCR_1987-05-17_RACE_DESR_WINNER_BILL_ELLIOTT_CHARLOTTE_-_THE_WINSTON_87-EV-0287                                        A24   C        00:50:38:05 00:50:38:24 00:19:49:00 00:19:49:15 
M2      ERN_F0800_NSCR_1987-05-17_RACE_DESR_WINNER_BILL_ELLIOTT_CHARLOTTE_-_THE_WINSTON_87-EV-0287                                                 030.0 00:50:38:05 
*FROM CLIP NAME:  ERN_F0800_NSCR_1987-05-17_RACE DESR WINNER BILL ELLIOTT CHARLOTTE - THE WINSTON_87-EV-0287.NEW.01 
*SOURCE FILE: ERN_F0800_NSCR_1987-05-17_RACE DESR WINNER BILL ELLIOTT CHARLOTTE - THE WINSTON_87-EV-0287
000896  ERN_F1923_NSCR_1988-05-29_CHARLOTTE-COCA_COLA_600_ANNOUNCERS_DALE_JARRETT_WINNER_RCE_B-ROLL_FLYBY_88-EV-0165                      A18   C        00:12:47:29 00:12:49:00 00:19:49:00 00:19:50:00 
M2      ERN_F1923_NSCR_1988-05-29_CHARLOTTE-COCA_COLA_600_ANNOUNCERS_DALE_JARRETT_WINNER_RCE_B-ROLL_FLYBY_88-EV-0165                               030.0 00:12:47:29 
*FROM CLIP NAME:  ERN_F1923_NSCR_1988-05-29_CHARLOTTE-COCA COLA 600 ANNOUNCERS DALE JARRETT WINNER RCE B-ROLL FLYBY_88-EV-0165.NEW.01 
*SOURCE FILE: ERN_F1923_NSCR_1988-05-29_CHARLOTTE-COCA COLA 600 ANNOUNCERS DALE JARRETT WINNER RCE B-ROLL FLYBY_88-EV-0165
000897  ERN_F1008_NSCR_1990S_RACE_B-ROLL_POLE_DAY_CHARLOTTE_DESR_TRACK_PRACTICE_W_CHOCOLATE_MYERS_&_KIRK_SHELMERDINE_&_CREW_13A_EARNHARDT A22   C        00:05:20:22 00:05:22:09 00:19:49:00 00:19:50:13 
M2      ERN_F1008_NSCR_1990S_RACE_B-ROLL_POLE_DAY_CHARLOTTE_DESR_TRACK_PRACTICE_W_CHOCOLATE_MYERS_&_KIRK_SHELMERDINE_&_CREW_13A_EARNHARDT          030.0 00:05:20:22 
*FROM CLIP NAME:  ERN_F1008_NSCR_1990S_RACE B-ROLL POLE DAY CHARLOTTE DESR TRACK PRACTICE W CHOCOLATE MYERS & KIRK SHELMERDINE & CREW_13A_EARNHARDT PRAX 2.NEW.01.COPY.01 
*SOURCE FILE: ERN_F1008_NSCR_1990S_RACE B-ROLL POLE DAY CHARLOTTE DESR TRACK PRACTICE W CHOCOLATE MYERS & KIRK SHELMERDINE & CREW_13A_EARNHARDT PRAX 2
000898  ERN_F1930_NSCR_1988-05-29_CHARLOTTE-COCA_COLA_600_FANS_TAILGATING_RACE_B-RO_88-EV-0157                                            V     C        00:17:35:04 00:17:38:26 00:19:49:00 00:19:52:17 
M2      ERN_F1930_NSCR_1988-05-29_CHARLOTTE-COCA_COLA_600_FANS_TAILGATING_RACE_B-RO_88-EV-0157                                                     030.0 00:17:35:04 
*FROM CLIP NAME:  ERN_F1930_NSCR_1988-05-29_CHARLOTTE-COCA COLA 600 FANS TAILGATING RACE B-RO_88-EV-0157.NEW.01 
*SOURCE FILE: ERN_F1930_NSCR_1988-05-29_CHARLOTTE-COCA COLA 600 FANS TAILGATING RACE B-RO_88-EV-0157
000899  ERN_F4214_NSCR_1989-10-15_NORTH_WILKESBORO-HOLLY_FARMS_400_ESPN_RACE_BROADCAST_89-EV-0734                                         A20   C        01:07:35:05 01:07:39:13 00:19:49:00 00:19:53:06 
M2      ERN_F4214_NSCR_1989-10-15_NORTH_WILKESBORO-HOLLY_FARMS_400_ESPN_RACE_BROADCAST_89-EV-0734                                                  030.0 01:07:35:05 
*FROM CLIP NAME:  ERN_F4214_NSCR_1989-10-15_NORTH WILKESBORO-HOLLY FARMS 400 ESPN RACE BROADCAST_89-EV-0734.NEW.01 
*SOURCE FILE: ERN_F4214_NSCR_1989-10-15_NORTH WILKESBORO-HOLLY FARMS 400 ESPN RACE BROADCAST_89-EV-0734
000900  ERN_F0800_NSCR_1987-05-17_RACE_DESR_WINNER_BILL_ELLIOTT_CHARLOTTE_-_THE_WINSTON_87-EV-0287                                        A24   C        00:50:38:23 00:50:40:09 00:19:49:15 00:19:51:03 
M2      ERN_F0800_NSCR_1987-05-17_RACE_DESR_WINNER_BILL_ELLIOTT_CHARLOTTE_-_THE_WINSTON_87-EV-0287                                                 030.0 00:50:38:23 
*FROM CLIP NAME:  ERN_F0800_NSCR_1987-05-17_RACE DESR WINNER BILL ELLIOTT CHARLOTTE - THE WINSTON_87-EV-0287.NEW.01 
*TO CLIP NAME:  ERN_F0800_NSCR_1987-05-17_RACE DESR WINNER BILL ELLIOTT CHARLOTTE - THE WINSTON_87-EV-0287.NEW.01 
*SOURCE FILE: ERN_F0800_NSCR_1987-05-17_RACE DESR WINNER BILL ELLIOTT CHARLOTTE - THE WINSTON_87-EV-0287
000901  ERN_F1923_NSCR_1988-05-29_CHARLOTTE-COCA_COLA_600_ANNOUNCERS_DALE_JARRETT_WINNER_RCE_B-ROLL_FLYBY_88-EV-0165                      A26   C        00:13:03:13 00:13:03:24 00:19:49:16 00:19:50:00 
M2      ERN_F1923_NSCR_1988-05-29_CHARLOTTE-COCA_COLA_600_ANNOUNCERS_DALE_JARRETT_WINNER_RCE_B-ROLL_FLYBY_88-EV-0165                               030.0 00:13:03:13 
*FROM CLIP NAME:  ERN_F1923_NSCR_1988-05-29_CHARLOTTE-COCA COLA 600 ANNOUNCERS DALE JARRETT WINNER RCE B-ROLL FLYBY_88-EV-0165.NEW.01 
*SOURCE FILE: ERN_F1923_NSCR_1988-05-29_CHARLOTTE-COCA COLA 600 ANNOUNCERS DALE JARRETT WINNER RCE B-ROLL FLYBY_88-EV-0165
000902  ERN_F1923_NSCR_1988-05-29_CHARLOTTE-COCA_COLA_600_ANNOUNCERS_DALE_JARRETT_WINNER_RCE_B-ROLL_FLYBY_88-EV-0165                      A18   C        00:12:48:29 00:12:50:15 00:19:50:00 00:19:51:12 
M2      ERN_F1923_NSCR_1988-05-29_CHARLOTTE-COCA_COLA_600_ANNOUNCERS_DALE_JARRETT_WINNER_RCE_B-ROLL_FLYBY_88-EV-0165                               030.0 00:12:48:29 
*FROM CLIP NAME:  ERN_F1923_NSCR_1988-05-29_CHARLOTTE-COCA COLA 600 ANNOUNCERS DALE JARRETT WINNER RCE B-ROLL FLYBY_88-EV-0165.NEW.01 
*TO CLIP NAME:  ERN_F1923_NSCR_1988-05-29_CHARLOTTE-COCA COLA 600 ANNOUNCERS DALE JARRETT WINNER RCE B-ROLL FLYBY_88-EV-0165.NEW.01 
*SOURCE FILE: ERN_F1923_NSCR_1988-05-29_CHARLOTTE-COCA COLA 600 ANNOUNCERS DALE JARRETT WINNER RCE B-ROLL FLYBY_88-EV-0165
000903  ERN_F1923_NSCR_1988-05-29_CHARLOTTE-COCA_COLA_600_ANNOUNCERS_DALE_JARRETT_WINNER_RCE_B-ROLL_FLYBY_88-EV-0165                      A26   C        00:13:03:23 00:13:05:09 00:19:50:00 00:19:51:12 
M2      ERN_F1923_NSCR_1988-05-29_CHARLOTTE-COCA_COLA_600_ANNOUNCERS_DALE_JARRETT_WINNER_RCE_B-ROLL_FLYBY_88-EV-0165                               030.0 00:13:03:23 
*FROM CLIP NAME:  ERN_F1923_NSCR_1988-05-29_CHARLOTTE-COCA COLA 600 ANNOUNCERS DALE JARRETT WINNER RCE B-ROLL FLYBY_88-EV-0165.NEW.01 
*TO CLIP NAME:  ERN_F1923_NSCR_1988-05-29_CHARLOTTE-COCA COLA 600 ANNOUNCERS DALE JARRETT WINNER RCE B-ROLL FLYBY_88-EV-0165.NEW.01 
*SOURCE FILE: ERN_F1923_NSCR_1988-05-29_CHARLOTTE-COCA COLA 600 ANNOUNCERS DALE JARRETT WINNER RCE B-ROLL FLYBY_88-EV-0165
000904  ERN_F0800_NSCR_1987-05-17_RACE_DESR_WINNER_BILL_ELLIOTT_CHARLOTTE_-_THE_WINSTON_87-EV-0287                                        A24   C        00:50:40:08 00:50:41:08 00:19:51:03 00:19:52:02 
M2      ERN_F0800_NSCR_1987-05-17_RACE_DESR_WINNER_BILL_ELLIOTT_CHARLOTTE_-_THE_WINSTON_87-EV-0287                                                 030.0 00:50:40:08 
*FROM CLIP NAME:  ERN_F0800_NSCR_1987-05-17_RACE DESR WINNER BILL ELLIOTT CHARLOTTE - THE WINSTON_87-EV-0287.NEW.01 
*SOURCE FILE: ERN_F0800_NSCR_1987-05-17_RACE DESR WINNER BILL ELLIOTT CHARLOTTE - THE WINSTON_87-EV-0287
000905  ERN_F1923_NSCR_1988-05-29_CHARLOTTE-COCA_COLA_600_ANNOUNCERS_DALE_JARRETT_WINNER_RCE_B-ROLL_FLYBY_88-EV-0165                      A18   C        00:12:50:14 00:12:51:23 00:19:51:12 00:19:52:18 
M2      ERN_F1923_NSCR_1988-05-29_CHARLOTTE-COCA_COLA_600_ANNOUNCERS_DALE_JARRETT_WINNER_RCE_B-ROLL_FLYBY_88-EV-0165                               030.0 00:12:50:14 
*FROM CLIP NAME:  ERN_F1923_NSCR_1988-05-29_CHARLOTTE-COCA COLA 600 ANNOUNCERS DALE JARRETT WINNER RCE B-ROLL FLYBY_88-EV-0165.NEW.01 
*SOURCE FILE: ERN_F1923_NSCR_1988-05-29_CHARLOTTE-COCA COLA 600 ANNOUNCERS DALE JARRETT WINNER RCE B-ROLL FLYBY_88-EV-0165
000906  ERN_F1923_NSCR_1988-05-29_CHARLOTTE-COCA_COLA_600_ANNOUNCERS_DALE_JARRETT_WINNER_RCE_B-ROLL_FLYBY_88-EV-0165                      A26   C        00:13:05:08 00:13:08:09 00:19:51:12 00:19:54:12 
M2      ERN_F1923_NSCR_1988-05-29_CHARLOTTE-COCA_COLA_600_ANNOUNCERS_DALE_JARRETT_WINNER_RCE_B-ROLL_FLYBY_88-EV-0165                               030.0 00:13:05:08 
*FROM CLIP NAME:  ERN_F1923_NSCR_1988-05-29_CHARLOTTE-COCA COLA 600 ANNOUNCERS DALE JARRETT WINNER RCE B-ROLL FLYBY_88-EV-0165.NEW.01 
*SOURCE FILE: ERN_F1923_NSCR_1988-05-29_CHARLOTTE-COCA COLA 600 ANNOUNCERS DALE JARRETT WINNER RCE B-ROLL FLYBY_88-EV-0165
000907  ERN_F0800_NSCR_1987-05-17_RACE_DESR_WINNER_BILL_ELLIOTT_CHARLOTTE_-_THE_WINSTON_87-EV-0287                                        A24   C        00:50:41:07 00:50:42:23 00:19:52:02 00:19:53:14 
M2      ERN_F0800_NSCR_1987-05-17_RACE_DESR_WINNER_BILL_ELLIOTT_CHARLOTTE_-_THE_WINSTON_87-EV-0287                                                 030.0 00:50:41:07 
*FROM CLIP NAME:  ERN_F0800_NSCR_1987-05-17_RACE DESR WINNER BILL ELLIOTT CHARLOTTE - THE WINSTON_87-EV-0287.NEW.01 
*TO CLIP NAME:  ERN_F0800_NSCR_1987-05-17_RACE DESR WINNER BILL ELLIOTT CHARLOTTE - THE WINSTON_87-EV-0287.NEW.01 
*SOURCE FILE: ERN_F0800_NSCR_1987-05-17_RACE DESR WINNER BILL ELLIOTT CHARLOTTE - THE WINSTON_87-EV-0287
000908  ERN_F2223_NSCR_1988-05-29_CHARLOTTE-WORLD_600_WINNER_DARRELL_WALTRIP_RACE_B-ROLL___1988-NAS-027029                                V     C        00:29:50:25 00:29:54:16 00:19:52:17 00:19:56:09 
M2      ERN_F2223_NSCR_1988-05-29_CHARLOTTE-WORLD_600_WINNER_DARRELL_WALTRIP_RACE_B-ROLL___1988-NAS-027029                                         030.0 00:29:50:25 
*FROM CLIP NAME:  ERN_F2223_NSCR_1988-05-29_CHARLOTTE-WORLD 600 WINNER DARRELL WALTRIP RACE B-ROLL  _1988-NAS-027029.NEW.01 
*SOURCE FILE: ERN_F2223_NSCR_1988-05-29_CHARLOTTE-WORLD 600 WINNER DARRELL WALTRIP RACE B-ROLL  _1988-NAS-027029
000909  ERN_F0800_NSCR_1987-05-17_RACE_DESR_WINNER_BILL_ELLIOTT_CHARLOTTE_-_THE_WINSTON_87-EV-0287                                        A24   C        00:50:42:22 00:50:48:07 00:19:53:14 00:19:59:01 
M2      ERN_F0800_NSCR_1987-05-17_RACE_DESR_WINNER_BILL_ELLIOTT_CHARLOTTE_-_THE_WINSTON_87-EV-0287                                                 030.0 00:50:42:22 
*FROM CLIP NAME:  ERN_F0800_NSCR_1987-05-17_RACE DESR WINNER BILL ELLIOTT CHARLOTTE - THE WINSTON_87-EV-0287.NEW.01 
*SOURCE FILE: ERN_F0800_NSCR_1987-05-17_RACE DESR WINNER BILL ELLIOTT CHARLOTTE - THE WINSTON_87-EV-0287
000910  ERN_F2223_NSCR_1988-05-29_CHARLOTTE-WORLD_600_WINNER_DARRELL_WALTRIP_RACE_B-ROLL___1988-NAS-027029                                A18   C        00:00:20:05 00:00:20:15 00:19:55:00 00:19:55:08 
M2      ERN_F2223_NSCR_1988-05-29_CHARLOTTE-WORLD_600_WINNER_DARRELL_WALTRIP_RACE_B-ROLL___1988-NAS-027029                                         030.0 00:00:20:05 
*FROM CLIP NAME:  ERN_F2223_NSCR_1988-05-29_CHARLOTTE-WORLD 600 WINNER DARRELL WALTRIP RACE B-ROLL  _1988-NAS-027029.NEW.01 
*SOURCE FILE: ERN_F2223_NSCR_1988-05-29_CHARLOTTE-WORLD 600 WINNER DARRELL WALTRIP RACE B-ROLL  _1988-NAS-027029
000911  ERN_F2223_NSCR_1988-05-29_CHARLOTTE-WORLD_600_WINNER_DARRELL_WALTRIP_RACE_B-ROLL___1988-NAS-027029                                A18   C        00:00:20:15 00:00:23:14 00:19:55:08 00:19:58:07 
M2      ERN_F2223_NSCR_1988-05-29_CHARLOTTE-WORLD_600_WINNER_DARRELL_WALTRIP_RACE_B-ROLL___1988-NAS-027029                                         030.0 00:00:20:15 
*FROM CLIP NAME:  ERN_F2223_NSCR_1988-05-29_CHARLOTTE-WORLD 600 WINNER DARRELL WALTRIP RACE B-ROLL  _1988-NAS-027029.NEW.01 
*SOURCE FILE: ERN_F2223_NSCR_1988-05-29_CHARLOTTE-WORLD 600 WINNER DARRELL WALTRIP RACE B-ROLL  _1988-NAS-027029
000912  ERN_F2223_NSCR_1988-05-29_CHARLOTTE-WORLD_600_WINNER_DARRELL_WALTRIP_RACE_B-ROLL___1988-NAS-027029                                V     C        00:02:52:26 00:02:57:26 00:19:56:09 00:19:59:23 
M2      ERN_F2223_NSCR_1988-05-29_CHARLOTTE-WORLD_600_WINNER_DARRELL_WALTRIP_RACE_B-ROLL___1988-NAS-027029                                         042.0 00:02:52:26 
*FROM CLIP NAME:  ERN_F2223_NSCR_1988-05-29_CHARLOTTE-WORLD 600 WINNER DARRELL WALTRIP RACE B-ROLL  _1988-NAS-027029.NEW.01 
*SOURCE FILE: ERN_F2223_NSCR_1988-05-29_CHARLOTTE-WORLD 600 WINNER DARRELL WALTRIP RACE B-ROLL  _1988-NAS-027029
000913  ERN_F0800_NSCR_1987-05-17_RACE_DESR_WINNER_BILL_ELLIOTT_CHARLOTTE_-_THE_WINSTON_87-EV-0287                                        A24   C        00:50:48:06 00:50:50:07 00:19:59:01 00:20:01:01 
M2      ERN_F0800_NSCR_1987-05-17_RACE_DESR_WINNER_BILL_ELLIOTT_CHARLOTTE_-_THE_WINSTON_87-EV-0287                                                 030.0 00:50:48:06 
*FROM CLIP NAME:  ERN_F0800_NSCR_1987-05-17_RACE DESR WINNER BILL ELLIOTT CHARLOTTE - THE WINSTON_87-EV-0287.NEW.01 
*TO CLIP NAME:  ERN_F0800_NSCR_1987-05-17_RACE DESR WINNER BILL ELLIOTT CHARLOTTE - THE WINSTON_87-EV-0287.NEW.01 
*SOURCE FILE: ERN_F0800_NSCR_1987-05-17_RACE DESR WINNER BILL ELLIOTT CHARLOTTE - THE WINSTON_87-EV-0287
000914  ERN_F0653_NSCR_1990-01-04_DESR_RACE_NASCAR_CUP_SERIES_-_DARLINGTON_90-EV-0664                                                     A26   C        01:08:27:21 01:08:29:22 00:19:59:11 00:20:01:11 
M2      ERN_F0653_NSCR_1990-01-04_DESR_RACE_NASCAR_CUP_SERIES_-_DARLINGTON_90-EV-0664                                                              030.0 01:08:27:21 
*FROM CLIP NAME:  ERN_F0653_NSCR_1990-01-04_DESR RACE NASCAR CUP SERIES - DARLINGTON_90-EV-0664.NEW.01 
*SOURCE FILE: ERN_F0653_NSCR_1990-01-04_DESR RACE NASCAR CUP SERIES - DARLINGTON_90-EV-0664
000915  ERN_F2248_NSCR_198-05-29_CHARLOTTE-WORLD_600_WINNER_DARRELL_WALTRIP_RACE_B-ROLL_NO3_DESR_RICHARD_CHILDRESS__1988-NAS-027028-S001  V     C        00:13:06:14 00:13:10:19 00:19:59:23 00:20:02:22 
M2      ERN_F2248_NSCR_198-05-29_CHARLOTTE-WORLD_600_WINNER_DARRELL_WALTRIP_RACE_B-ROLL_NO3_DESR_RICHARD_CHILDRESS__1988-NAS-027028-S001           042.2 00:13:06:14 
*FROM CLIP NAME:  ERN_F2248_NSCR_198-05-29_CHARLOTTE-WORLD 600 WINNER DARRELL WALTRIP RACE B-ROLL NO3 DESR RICHARD CHILDRESS _1988-NAS-027028-S001.NEW.01 
*SOURCE FILE: ERN_F2248_NSCR_198-05-29_CHARLOTTE-WORLD 600 WINNER DARRELL WALTRIP RACE B-ROLL NO3 DESR RICHARD CHILDRESS _1988-NAS-027028-S001
000916  ERN_F0800_NSCR_1987-05-17_RACE_DESR_WINNER_BILL_ELLIOTT_CHARLOTTE_-_THE_WINSTON_87-EV-0287                                        A24   C        00:50:50:06 00:50:53:04 00:20:01:01 00:20:03:23 
M2      ERN_F0800_NSCR_1987-05-17_RACE_DESR_WINNER_BILL_ELLIOTT_CHARLOTTE_-_THE_WINSTON_87-EV-0287                                                 030.0 00:50:50:06 
*FROM CLIP NAME:  ERN_F0800_NSCR_1987-05-17_RACE DESR WINNER BILL ELLIOTT CHARLOTTE - THE WINSTON_87-EV-0287.NEW.01 
*SOURCE FILE: ERN_F0800_NSCR_1987-05-17_RACE DESR WINNER BILL ELLIOTT CHARLOTTE - THE WINSTON_87-EV-0287
000917  ERN_F0653_NSCR_1990-01-04_DESR_RACE_NASCAR_CUP_SERIES_-_DARLINGTON_90-EV-0664                                                     A26   C        01:08:29:21 01:08:33:07 00:20:01:11 00:20:04:23 
M2      ERN_F0653_NSCR_1990-01-04_DESR_RACE_NASCAR_CUP_SERIES_-_DARLINGTON_90-EV-0664                                                              030.0 01:08:29:21 
*FROM CLIP NAME:  ERN_F0653_NSCR_1990-01-04_DESR RACE NASCAR CUP SERIES - DARLINGTON_90-EV-0664.NEW.01 
*SOURCE FILE: ERN_F0653_NSCR_1990-01-04_DESR RACE NASCAR CUP SERIES - DARLINGTON_90-EV-0664
000918  ERN_F2223_NSCR_1988-05-29_CHARLOTTE-WORLD_600_WINNER_DARRELL_WALTRIP_RACE_B-ROLL___1988-NAS-027029                                V     C        00:03:00:11 00:03:05:29 00:20:02:22 00:20:07:10 
M2      ERN_F2223_NSCR_1988-05-29_CHARLOTTE-WORLD_600_WINNER_DARRELL_WALTRIP_RACE_B-ROLL___1988-NAS-027029                                         037.4 00:03:00:11 
*FROM CLIP NAME:  ERN_F2223_NSCR_1988-05-29_CHARLOTTE-WORLD 600 WINNER DARRELL WALTRIP RACE B-ROLL  _1988-NAS-027029.NEW.01 
*SOURCE FILE: ERN_F2223_NSCR_1988-05-29_CHARLOTTE-WORLD 600 WINNER DARRELL WALTRIP RACE B-ROLL  _1988-NAS-027029
000919  ERN_F0653_NSCR_1990-01-04_DESR_RACE_NASCAR_CUP_SERIES_-_DARLINGTON_90-EV-0664                                                     A26   C        01:08:33:06 01:08:34:22 00:20:04:23 00:20:06:11 
M2      ERN_F0653_NSCR_1990-01-04_DESR_RACE_NASCAR_CUP_SERIES_-_DARLINGTON_90-EV-0664                                                              030.0 01:08:33:06 
*FROM CLIP NAME:  ERN_F0653_NSCR_1990-01-04_DESR RACE NASCAR CUP SERIES - DARLINGTON_90-EV-0664.NEW.01 
*TO CLIP NAME:  ERN_F0653_NSCR_1990-01-04_DESR RACE NASCAR CUP SERIES - DARLINGTON_90-EV-0664.NEW.01 
*SOURCE FILE: ERN_F0653_NSCR_1990-01-04_DESR RACE NASCAR CUP SERIES - DARLINGTON_90-EV-0664
000920  ERN_F0800_NSCR_1987-05-17_RACE_DESR_WINNER_BILL_ELLIOTT_CHARLOTTE_-_THE_WINSTON_87-EV-0287                                        A24   C        00:51:00:18 00:51:02:11 00:20:06:03 00:20:07:21 
M2      ERN_F0800_NSCR_1987-05-17_RACE_DESR_WINNER_BILL_ELLIOTT_CHARLOTTE_-_THE_WINSTON_87-EV-0287                                                 030.0 00:51:00:18 
*FROM CLIP NAME:  ERN_F0800_NSCR_1987-05-17_RACE DESR WINNER BILL ELLIOTT CHARLOTTE - THE WINSTON_87-EV-0287.NEW.01 
*SOURCE FILE: ERN_F0800_NSCR_1987-05-17_RACE DESR WINNER BILL ELLIOTT CHARLOTTE - THE WINSTON_87-EV-0287
000921  ERN_F0936_NSCR_1980S_BANQUET_INTV_RACE_DESR_NO8_WINN-DIXIE_300_NO3_COCA-COLA_600_BODINE_1                                         A18   C        00:18:15:14 00:18:15:24 00:20:06:04 00:20:06:12 
M2      ERN_F0936_NSCR_1980S_BANQUET_INTV_RACE_DESR_NO8_WINN-DIXIE_300_NO3_COCA-COLA_600_BODINE_1                                                  060.0 00:18:15:14 
*FROM CLIP NAME:  ERN_F0936_NSCR_1980S_BANQUET INTV RACE DESR NO8 WINN-DIXIE 300 NO3 COCA-COLA 600_BODINE_1.NEW.01 
*SOURCE FILE: ERN_F0936_NSCR_1980S_BANQUET INTV RACE DESR NO8 WINN-DIXIE 300 NO3 COCA-COLA 600_BODINE_1
000922  ERN_F0653_NSCR_1990-01-04_DESR_RACE_NASCAR_CUP_SERIES_-_DARLINGTON_90-EV-0664                                                     A26   C        01:08:34:21 01:08:36:20 00:20:06:11 00:20:08:10 
M2      ERN_F0653_NSCR_1990-01-04_DESR_RACE_NASCAR_CUP_SERIES_-_DARLINGTON_90-EV-0664                                                              030.0 01:08:34:21 
*FROM CLIP NAME:  ERN_F0653_NSCR_1990-01-04_DESR RACE NASCAR CUP SERIES - DARLINGTON_90-EV-0664.NEW.01 
*SOURCE FILE: ERN_F0653_NSCR_1990-01-04_DESR RACE NASCAR CUP SERIES - DARLINGTON_90-EV-0664
000923  ERN_F0936_NSCR_1980S_BANQUET_INTV_RACE_DESR_NO8_WINN-DIXIE_300_NO3_COCA-COLA_600_BODINE_1                                         A18   C        00:18:15:24 00:18:17:04 00:20:06:12 00:20:07:20 
M2      ERN_F0936_NSCR_1980S_BANQUET_INTV_RACE_DESR_NO8_WINN-DIXIE_300_NO3_COCA-COLA_600_BODINE_1                                                  060.0 00:18:15:24 
*FROM CLIP NAME:  ERN_F0936_NSCR_1980S_BANQUET INTV RACE DESR NO8 WINN-DIXIE 300 NO3 COCA-COLA 600_BODINE_1.NEW.01 
*SOURCE FILE: ERN_F0936_NSCR_1980S_BANQUET INTV RACE DESR NO8 WINN-DIXIE 300 NO3 COCA-COLA 600_BODINE_1
000924  ERN_F2248_NSCR_198-05-29_CHARLOTTE-WORLD_600_WINNER_DARRELL_WALTRIP_RACE_B-ROLL_NO3_DESR_RICHARD_CHILDRESS__1988-NAS-027028-S001  V     C        00:04:33:16 00:04:39:21 00:20:07:10 00:20:13:13 
M2      ERN_F2248_NSCR_198-05-29_CHARLOTTE-WORLD_600_WINNER_DARRELL_WALTRIP_RACE_B-ROLL_NO3_DESR_RICHARD_CHILDRESS__1988-NAS-027028-S001           030.0 00:04:33:16 
*FROM CLIP NAME:  ERN_F2248_NSCR_198-05-29_CHARLOTTE-WORLD 600 WINNER DARRELL WALTRIP RACE B-ROLL NO3 DESR RICHARD CHILDRESS _1988-NAS-027028-S001.NEW.01 
*SOURCE FILE: ERN_F2248_NSCR_198-05-29_CHARLOTTE-WORLD 600 WINNER DARRELL WALTRIP RACE B-ROLL NO3 DESR RICHARD CHILDRESS _1988-NAS-027028-S001
000925  ERN_F0936_NSCR_1980S_BANQUET_INTV_RACE_DESR_NO8_WINN-DIXIE_300_NO3_COCA-COLA_600_BODINE_1                                         A18   C        00:18:18:09 00:18:20:00 00:20:07:20 00:20:09:13 
M2      ERN_F0936_NSCR_1980S_BANQUET_INTV_RACE_DESR_NO8_WINN-DIXIE_300_NO3_COCA-COLA_600_BODINE_1                                                  060.0 00:18:18:09 
*FROM CLIP NAME:  ERN_F0936_NSCR_1980S_BANQUET INTV RACE DESR NO8 WINN-DIXIE 300 NO3 COCA-COLA 600_BODINE_1.NEW.01 
*SOURCE FILE: ERN_F0936_NSCR_1980S_BANQUET INTV RACE DESR NO8 WINN-DIXIE 300 NO3 COCA-COLA 600_BODINE_1
000926  ERN_F0800_NSCR_1987-05-17_RACE_DESR_WINNER_BILL_ELLIOTT_CHARLOTTE_-_THE_WINSTON_87-EV-0287                                        A24   C        00:51:02:10 00:51:16:27 00:20:07:21 00:20:22:10 
M2      ERN_F0800_NSCR_1987-05-17_RACE_DESR_WINNER_BILL_ELLIOTT_CHARLOTTE_-_THE_WINSTON_87-EV-0287                                                 030.0 00:51:02:10 
*FROM CLIP NAME:  ERN_F0800_NSCR_1987-05-17_RACE DESR WINNER BILL ELLIOTT CHARLOTTE - THE WINSTON_87-EV-0287.NEW.01 
*SOURCE FILE: ERN_F0800_NSCR_1987-05-17_RACE DESR WINNER BILL ELLIOTT CHARLOTTE - THE WINSTON_87-EV-0287
000927  ERN_F0936_NSCR_1980S_BANQUET_INTV_RACE_DESR_NO8_WINN-DIXIE_300_NO3_COCA-COLA_600_BODINE_1                                         A18   C        00:18:21:07 00:18:24:21 00:20:09:13 00:20:13:00 
M2      ERN_F0936_NSCR_1980S_BANQUET_INTV_RACE_DESR_NO8_WINN-DIXIE_300_NO3_COCA-COLA_600_BODINE_1                                                  060.0 00:18:21:07 
*FROM CLIP NAME:  ERN_F0936_NSCR_1980S_BANQUET INTV RACE DESR NO8 WINN-DIXIE 300 NO3 COCA-COLA 600_BODINE_1.NEW.01 
*SOURCE FILE: ERN_F0936_NSCR_1980S_BANQUET INTV RACE DESR NO8 WINN-DIXIE 300 NO3 COCA-COLA 600_BODINE_1
000928  ERN_F0936_NSCR_1980S_BANQUET_INTV_RACE_DESR_NO8_WINN-DIXIE_300_NO3_COCA-COLA_600_BODINE_1                                         V     C        00:16:16:11 00:16:19:11 00:20:13:13 00:20:16:13 
M2      ERN_F0936_NSCR_1980S_BANQUET_INTV_RACE_DESR_NO8_WINN-DIXIE_300_NO3_COCA-COLA_600_BODINE_1                                                  060.0 00:16:16:11 
*FROM CLIP NAME:  ERN_F0936_NSCR_1980S_BANQUET INTV RACE DESR NO8 WINN-DIXIE 300 NO3 COCA-COLA 600_BODINE_1.NEW.01 
*SOURCE FILE: ERN_F0936_NSCR_1980S_BANQUET INTV RACE DESR NO8 WINN-DIXIE 300 NO3 COCA-COLA 600_BODINE_1
000929  ERN_F0936_NSCR_1980S_BANQUET_INTV_RACE_DESR_NO8_WINN-DIXIE_300_NO3_COCA-COLA_600_BODINE_1                                         A22   C        00:17:32:19 00:17:32:24 00:20:14:16 00:20:14:20 
M2      ERN_F0936_NSCR_1980S_BANQUET_INTV_RACE_DESR_NO8_WINN-DIXIE_300_NO3_COCA-COLA_600_BODINE_1                                                  060.0 00:17:32:19 
*FROM CLIP NAME:  ERN_F0936_NSCR_1980S_BANQUET INTV RACE DESR NO8 WINN-DIXIE 300 NO3 COCA-COLA 600_BODINE_1.NEW.01 
*SOURCE FILE: ERN_F0936_NSCR_1980S_BANQUET INTV RACE DESR NO8 WINN-DIXIE 300 NO3 COCA-COLA 600_BODINE_1
000930  ERN_F0936_NSCR_1980S_BANQUET_INTV_RACE_DESR_NO8_WINN-DIXIE_300_NO3_COCA-COLA_600_BODINE_1                                         A22   C        00:17:32:24 00:17:38:06 00:20:14:20 00:20:20:05 
M2      ERN_F0936_NSCR_1980S_BANQUET_INTV_RACE_DESR_NO8_WINN-DIXIE_300_NO3_COCA-COLA_600_BODINE_1                                                  060.0 00:17:32:24 
*FROM CLIP NAME:  ERN_F0936_NSCR_1980S_BANQUET INTV RACE DESR NO8 WINN-DIXIE 300 NO3 COCA-COLA 600_BODINE_1.NEW.01 
*SOURCE FILE: ERN_F0936_NSCR_1980S_BANQUET INTV RACE DESR NO8 WINN-DIXIE 300 NO3 COCA-COLA 600_BODINE_1
000931  ERN_F0936_NSCR_1980S_BANQUET_INTV_RACE_DESR_NO8_WINN-DIXIE_300_NO3_COCA-COLA_600_BODINE_1                                         V     C        00:17:41:04 00:17:53:13 00:20:16:13 00:20:28:20 
M2      ERN_F0936_NSCR_1980S_BANQUET_INTV_RACE_DESR_NO8_WINN-DIXIE_300_NO3_COCA-COLA_600_BODINE_1                                                  060.0 00:17:41:04 
*FROM CLIP NAME:  ERN_F0936_NSCR_1980S_BANQUET INTV RACE DESR NO8 WINN-DIXIE 300 NO3 COCA-COLA 600_BODINE_1.NEW.01 
*SOURCE FILE: ERN_F0936_NSCR_1980S_BANQUET INTV RACE DESR NO8 WINN-DIXIE 300 NO3 COCA-COLA 600_BODINE_1
000932  ERN_F0936_NSCR_1980S_BANQUET_INTV_RACE_DESR_NO8_WINN-DIXIE_300_NO3_COCA-COLA_600_BODINE_1                                         A22   C        00:17:06:27 00:17:07:02 00:20:20:05 00:20:20:09 
M2      ERN_F0936_NSCR_1980S_BANQUET_INTV_RACE_DESR_NO8_WINN-DIXIE_300_NO3_COCA-COLA_600_BODINE_1                                                  060.0 00:17:06:27 
*FROM CLIP NAME:  ERN_F0936_NSCR_1980S_BANQUET INTV RACE DESR NO8 WINN-DIXIE 300 NO3 COCA-COLA 600_BODINE_1.NEW.01 
*TO CLIP NAME:  ERN_F0936_NSCR_1980S_BANQUET INTV RACE DESR NO8 WINN-DIXIE 300 NO3 COCA-COLA 600_BODINE_1.NEW.01 
*SOURCE FILE: ERN_F0936_NSCR_1980S_BANQUET INTV RACE DESR NO8 WINN-DIXIE 300 NO3 COCA-COLA 600_BODINE_1
000933  ERN_F0936_NSCR_1980S_BANQUET_INTV_RACE_DESR_NO8_WINN-DIXIE_300_NO3_COCA-COLA_600_BODINE_1                                         A22   C        00:17:07:02 00:17:10:02 00:20:20:09 00:20:23:09 
M2      ERN_F0936_NSCR_1980S_BANQUET_INTV_RACE_DESR_NO8_WINN-DIXIE_300_NO3_COCA-COLA_600_BODINE_1                                                  060.0 00:17:07:02 
*FROM CLIP NAME:  ERN_F0936_NSCR_1980S_BANQUET INTV RACE DESR NO8 WINN-DIXIE 300 NO3 COCA-COLA 600_BODINE_1.NEW.01 
*SOURCE FILE: ERN_F0936_NSCR_1980S_BANQUET INTV RACE DESR NO8 WINN-DIXIE 300 NO3 COCA-COLA 600_BODINE_1
000934  ERN_F0800_NSCR_1987-05-17_RACE_DESR_WINNER_BILL_ELLIOTT_CHARLOTTE_-_THE_WINSTON_87-EV-0287                                        A24   C        00:51:22:28 00:51:24:29 00:20:22:10 00:20:24:10 
M2      ERN_F0800_NSCR_1987-05-17_RACE_DESR_WINNER_BILL_ELLIOTT_CHARLOTTE_-_THE_WINSTON_87-EV-0287                                                 030.0 00:51:22:28 
*FROM CLIP NAME:  ERN_F0800_NSCR_1987-05-17_RACE DESR WINNER BILL ELLIOTT CHARLOTTE - THE WINSTON_87-EV-0287.NEW.01 
*TO CLIP NAME:  ERN_F0800_NSCR_1987-05-17_RACE DESR WINNER BILL ELLIOTT CHARLOTTE - THE WINSTON_87-EV-0287.NEW.01 
*SOURCE FILE: ERN_F0800_NSCR_1987-05-17_RACE DESR WINNER BILL ELLIOTT CHARLOTTE - THE WINSTON_87-EV-0287
000935  ERN_F0936_NSCR_1980S_BANQUET_INTV_RACE_DESR_NO8_WINN-DIXIE_300_NO3_COCA-COLA_600_BODINE_1                                         A20   C        00:19:51:01 00:19:56:11 00:20:22:22 00:20:28:06 
M2      ERN_F0936_NSCR_1980S_BANQUET_INTV_RACE_DESR_NO8_WINN-DIXIE_300_NO3_COCA-COLA_600_BODINE_1                                                  060.0 00:19:51:01 
*FROM CLIP NAME:  ERN_F0936_NSCR_1980S_BANQUET INTV RACE DESR NO8 WINN-DIXIE 300 NO3 COCA-COLA 600_BODINE_1.NEW.01 
*SOURCE FILE: ERN_F0936_NSCR_1980S_BANQUET INTV RACE DESR NO8 WINN-DIXIE 300 NO3 COCA-COLA 600_BODINE_1
000936  ERN_F0936_NSCR_1980S_BANQUET_INTV_RACE_DESR_NO8_WINN-DIXIE_300_NO3_COCA-COLA_600_BODINE_1                                         A22   C        00:17:52:29 00:17:53:02 00:20:23:09 00:20:23:11 
M2      ERN_F0936_NSCR_1980S_BANQUET_INTV_RACE_DESR_NO8_WINN-DIXIE_300_NO3_COCA-COLA_600_BODINE_1                                                  060.0 00:17:52:29 
*FROM CLIP NAME:  ERN_F0936_NSCR_1980S_BANQUET INTV RACE DESR NO8 WINN-DIXIE 300 NO3 COCA-COLA 600_BODINE_1.NEW.01 
*TO CLIP NAME:  ERN_F0936_NSCR_1980S_BANQUET INTV RACE DESR NO8 WINN-DIXIE 300 NO3 COCA-COLA 600_BODINE_1.NEW.01 
*SOURCE FILE: ERN_F0936_NSCR_1980S_BANQUET INTV RACE DESR NO8 WINN-DIXIE 300 NO3 COCA-COLA 600_BODINE_1
000937  ERN_F0936_NSCR_1980S_BANQUET_INTV_RACE_DESR_NO8_WINN-DIXIE_300_NO3_COCA-COLA_600_BODINE_1                                         A18   C        00:17:54:02 00:17:54:12 00:20:23:10 00:20:23:18 
M2      ERN_F0936_NSCR_1980S_BANQUET_INTV_RACE_DESR_NO8_WINN-DIXIE_300_NO3_COCA-COLA_600_BODINE_1                                                  060.0 00:17:54:02 
*FROM CLIP NAME:  ERN_F0936_NSCR_1980S_BANQUET INTV RACE DESR NO8 WINN-DIXIE 300 NO3 COCA-COLA 600_BODINE_1.NEW.01 
*SOURCE FILE: ERN_F0936_NSCR_1980S_BANQUET INTV RACE DESR NO8 WINN-DIXIE 300 NO3 COCA-COLA 600_BODINE_1
000938  ERN_F0936_NSCR_1980S_BANQUET_INTV_RACE_DESR_NO8_WINN-DIXIE_300_NO3_COCA-COLA_600_BODINE_1                                         A22   C        00:17:53:02 00:17:53:08 00:20:23:11 00:20:23:16 
M2      ERN_F0936_NSCR_1980S_BANQUET_INTV_RACE_DESR_NO8_WINN-DIXIE_300_NO3_COCA-COLA_600_BODINE_1                                                  060.0 00:17:53:02 
*FROM CLIP NAME:  ERN_F0936_NSCR_1980S_BANQUET INTV RACE DESR NO8 WINN-DIXIE 300 NO3 COCA-COLA 600_BODINE_1.NEW.01 
*SOURCE FILE: ERN_F0936_NSCR_1980S_BANQUET INTV RACE DESR NO8 WINN-DIXIE 300 NO3 COCA-COLA 600_BODINE_1
000939  ERN_F0936_NSCR_1980S_BANQUET_INTV_RACE_DESR_NO8_WINN-DIXIE_300_NO3_COCA-COLA_600_BODINE_1                                         A18   C        00:17:54:12 00:17:54:23 00:20:23:18 00:20:24:03 
M2      ERN_F0936_NSCR_1980S_BANQUET_INTV_RACE_DESR_NO8_WINN-DIXIE_300_NO3_COCA-COLA_600_BODINE_1                                                  060.0 00:17:54:12 
*FROM CLIP NAME:  ERN_F0936_NSCR_1980S_BANQUET INTV RACE DESR NO8 WINN-DIXIE 300 NO3 COCA-COLA 600_BODINE_1.NEW.01 
*SOURCE FILE: ERN_F0936_NSCR_1980S_BANQUET INTV RACE DESR NO8 WINN-DIXIE 300 NO3 COCA-COLA 600_BODINE_1
000940  ERN_F0936_NSCR_1980S_BANQUET_INTV_RACE_DESR_NO8_WINN-DIXIE_300_NO3_COCA-COLA_600_BODINE_1                                         A18   C        00:17:50:25 00:17:50:29 00:20:24:03 00:20:24:06 
M2      ERN_F0936_NSCR_1980S_BANQUET_INTV_RACE_DESR_NO8_WINN-DIXIE_300_NO3_COCA-COLA_600_BODINE_1                                                  060.0 00:17:50:25 
*FROM CLIP NAME:  ERN_F0936_NSCR_1980S_BANQUET INTV RACE DESR NO8 WINN-DIXIE 300 NO3 COCA-COLA 600_BODINE_1.NEW.01 
*TO CLIP NAME:  ERN_F0936_NSCR_1980S_BANQUET INTV RACE DESR NO8 WINN-DIXIE 300 NO3 COCA-COLA 600_BODINE_1.NEW.01 
*SOURCE FILE: ERN_F0936_NSCR_1980S_BANQUET INTV RACE DESR NO8 WINN-DIXIE 300 NO3 COCA-COLA 600_BODINE_1
000941  ERN_F0936_NSCR_1980S_BANQUET_INTV_RACE_DESR_NO8_WINN-DIXIE_300_NO3_COCA-COLA_600_BODINE_1                                         A18   C        00:17:50:29 00:17:53:22 00:20:24:06 00:20:27:00 
M2      ERN_F0936_NSCR_1980S_BANQUET_INTV_RACE_DESR_NO8_WINN-DIXIE_300_NO3_COCA-COLA_600_BODINE_1                                                  060.0 00:17:50:29 
*FROM CLIP NAME:  ERN_F0936_NSCR_1980S_BANQUET INTV RACE DESR NO8 WINN-DIXIE 300 NO3 COCA-COLA 600_BODINE_1.NEW.01 
*SOURCE FILE: ERN_F0936_NSCR_1980S_BANQUET INTV RACE DESR NO8 WINN-DIXIE 300 NO3 COCA-COLA 600_BODINE_1
000942  ERN_F0800_NSCR_1987-05-17_RACE_DESR_WINNER_BILL_ELLIOTT_CHARLOTTE_-_THE_WINSTON_87-EV-0287                                        A24   C        00:51:24:28 00:51:43:11 00:20:24:10 00:20:42:20 
M2      ERN_F0800_NSCR_1987-05-17_RACE_DESR_WINNER_BILL_ELLIOTT_CHARLOTTE_-_THE_WINSTON_87-EV-0287                                                 030.0 00:51:24:28 
*FROM CLIP NAME:  ERN_F0800_NSCR_1987-05-17_RACE DESR WINNER BILL ELLIOTT CHARLOTTE - THE WINSTON_87-EV-0287.NEW.01 
*SOURCE FILE: ERN_F0800_NSCR_1987-05-17_RACE DESR WINNER BILL ELLIOTT CHARLOTTE - THE WINSTON_87-EV-0287
000943  ERN_F0936_NSCR_1980S_BANQUET_INTV_RACE_DESR_NO8_WINN-DIXIE_300_NO3_COCA-COLA_600_BODINE_1                                         A20   C        00:19:47:02 00:19:47:07 00:20:28:06 00:20:28:10 
M2      ERN_F0936_NSCR_1980S_BANQUET_INTV_RACE_DESR_NO8_WINN-DIXIE_300_NO3_COCA-COLA_600_BODINE_1                                                  060.0 00:19:47:02 
*FROM CLIP NAME:  ERN_F0936_NSCR_1980S_BANQUET INTV RACE DESR NO8 WINN-DIXIE 300 NO3 COCA-COLA 600_BODINE_1.NEW.01 
*TO CLIP NAME:  ERN_F0936_NSCR_1980S_BANQUET INTV RACE DESR NO8 WINN-DIXIE 300 NO3 COCA-COLA 600_BODINE_1.NEW.01 
*SOURCE FILE: ERN_F0936_NSCR_1980S_BANQUET INTV RACE DESR NO8 WINN-DIXIE 300 NO3 COCA-COLA 600_BODINE_1
000944  ERN_F0936_NSCR_1980S_BANQUET_INTV_RACE_DESR_NO8_WINN-DIXIE_300_NO3_COCA-COLA_600_BODINE_1                                         A20   C        00:19:47:07 00:19:50:26 00:20:28:10 00:20:32:01 
M2      ERN_F0936_NSCR_1980S_BANQUET_INTV_RACE_DESR_NO8_WINN-DIXIE_300_NO3_COCA-COLA_600_BODINE_1                                                  060.0 00:19:47:07 
*FROM CLIP NAME:  ERN_F0936_NSCR_1980S_BANQUET INTV RACE DESR NO8 WINN-DIXIE 300 NO3 COCA-COLA 600_BODINE_1.NEW.01 
*SOURCE FILE: ERN_F0936_NSCR_1980S_BANQUET INTV RACE DESR NO8 WINN-DIXIE 300 NO3 COCA-COLA 600_BODINE_1
000945  ERN_F0936_NSCR_1980S_BANQUET_INTV_RACE_DESR_NO8_WINN-DIXIE_300_NO3_COCA-COLA_600_BODINE_1                                         V     C        00:19:47:19 00:19:56:08 00:20:28:20 00:20:37:11 
M2      ERN_F0936_NSCR_1980S_BANQUET_INTV_RACE_DESR_NO8_WINN-DIXIE_300_NO3_COCA-COLA_600_BODINE_1                                                  060.0 00:19:47:19 
*FROM CLIP NAME:  ERN_F0936_NSCR_1980S_BANQUET INTV RACE DESR NO8 WINN-DIXIE 300 NO3 COCA-COLA 600_BODINE_1.NEW.01 
*SOURCE FILE: ERN_F0936_NSCR_1980S_BANQUET INTV RACE DESR NO8 WINN-DIXIE 300 NO3 COCA-COLA 600_BODINE_1
000946  ERN_F0936_NSCR_1980S_BANQUET_INTV_RACE_DESR_NO8_WINN-DIXIE_300_NO3_COCA-COLA_600_BODINE_1                                         A20   C        00:19:50:26 00:19:52:26 00:20:32:01 00:20:34:01 
M2      ERN_F0936_NSCR_1980S_BANQUET_INTV_RACE_DESR_NO8_WINN-DIXIE_300_NO3_COCA-COLA_600_BODINE_1                                                  060.0 00:19:50:26 
*FROM CLIP NAME:  ERN_F0936_NSCR_1980S_BANQUET INTV RACE DESR NO8 WINN-DIXIE 300 NO3 COCA-COLA 600_BODINE_1.NEW.01 
*TO CLIP NAME:  ERN_F0936_NSCR_1980S_BANQUET INTV RACE DESR NO8 WINN-DIXIE 300 NO3 COCA-COLA 600_BODINE_1.NEW.01 
*SOURCE FILE: ERN_F0936_NSCR_1980S_BANQUET INTV RACE DESR NO8 WINN-DIXIE 300 NO3 COCA-COLA 600_BODINE_1
000947  ERN_F2223_NSCR_1988-05-29_CHARLOTTE-WORLD_600_WINNER_DARRELL_WALTRIP_RACE_B-ROLL___1988-NAS-027029                                A18   C        00:10:21:03 00:10:21:16 00:20:33:17 00:20:34:03 
M2      ERN_F2223_NSCR_1988-05-29_CHARLOTTE-WORLD_600_WINNER_DARRELL_WALTRIP_RACE_B-ROLL___1988-NAS-027029                                         030.0 00:10:21:03 
*FROM CLIP NAME:  ERN_F2223_NSCR_1988-05-29_CHARLOTTE-WORLD 600 WINNER DARRELL WALTRIP RACE B-ROLL  _1988-NAS-027029.NEW.01 
*SOURCE FILE: ERN_F2223_NSCR_1988-05-29_CHARLOTTE-WORLD 600 WINNER DARRELL WALTRIP RACE B-ROLL  _1988-NAS-027029
000948  ERN_F0936_NSCR_1980S_BANQUET_INTV_RACE_DESR_NO8_WINN-DIXIE_300_NO3_COCA-COLA_600_BODINE_1                                         A20   C        00:19:52:26 00:19:54:13 00:20:34:01 00:20:35:15 
M2      ERN_F0936_NSCR_1980S_BANQUET_INTV_RACE_DESR_NO8_WINN-DIXIE_300_NO3_COCA-COLA_600_BODINE_1                                                  060.0 00:19:52:26 
*FROM CLIP NAME:  ERN_F0936_NSCR_1980S_BANQUET INTV RACE DESR NO8 WINN-DIXIE 300 NO3 COCA-COLA 600_BODINE_1.NEW.01 
*SOURCE FILE: ERN_F0936_NSCR_1980S_BANQUET INTV RACE DESR NO8 WINN-DIXIE 300 NO3 COCA-COLA 600_BODINE_1
000949  ERN_F2223_NSCR_1988-05-29_CHARLOTTE-WORLD_600_WINNER_DARRELL_WALTRIP_RACE_B-ROLL___1988-NAS-027029                                A18   C        00:10:21:15 00:10:24:25 00:20:34:03 00:20:37:10 
M2      ERN_F2223_NSCR_1988-05-29_CHARLOTTE-WORLD_600_WINNER_DARRELL_WALTRIP_RACE_B-ROLL___1988-NAS-027029                                         030.0 00:10:21:15 
*FROM CLIP NAME:  ERN_F2223_NSCR_1988-05-29_CHARLOTTE-WORLD 600 WINNER DARRELL WALTRIP RACE B-ROLL  _1988-NAS-027029.NEW.01 
*SOURCE FILE: ERN_F2223_NSCR_1988-05-29_CHARLOTTE-WORLD 600 WINNER DARRELL WALTRIP RACE B-ROLL  _1988-NAS-027029
000950  ERN_F2223_NSCR_1988-05-29_CHARLOTTE-WORLD_600_WINNER_DARRELL_WALTRIP_RACE_B-ROLL___1988-NAS-027029                                A18   C        00:10:26:28 00:10:29:10 00:20:37:10 00:20:39:19 
M2      ERN_F2223_NSCR_1988-05-29_CHARLOTTE-WORLD_600_WINNER_DARRELL_WALTRIP_RACE_B-ROLL___1988-NAS-027029                                         030.0 00:10:26:28 
*FROM CLIP NAME:  ERN_F2223_NSCR_1988-05-29_CHARLOTTE-WORLD 600 WINNER DARRELL WALTRIP RACE B-ROLL  _1988-NAS-027029.NEW.01 
*SOURCE FILE: ERN_F2223_NSCR_1988-05-29_CHARLOTTE-WORLD 600 WINNER DARRELL WALTRIP RACE B-ROLL  _1988-NAS-027029
000951  ERN_F2223_NSCR_1988-05-29_CHARLOTTE-WORLD_600_WINNER_DARRELL_WALTRIP_RACE_B-ROLL___1988-NAS-027029                                V     C        00:10:26:29 00:10:29:03 00:20:37:11 00:20:39:14 
M2      ERN_F2223_NSCR_1988-05-29_CHARLOTTE-WORLD_600_WINNER_DARRELL_WALTRIP_RACE_B-ROLL___1988-NAS-027029                                         030.0 00:10:26:29 
*FROM CLIP NAME:  ERN_F2223_NSCR_1988-05-29_CHARLOTTE-WORLD 600 WINNER DARRELL WALTRIP RACE B-ROLL  _1988-NAS-027029.NEW.01 
*SOURCE FILE: ERN_F2223_NSCR_1988-05-29_CHARLOTTE-WORLD 600 WINNER DARRELL WALTRIP RACE B-ROLL  _1988-NAS-027029
000952  ERN_F0936_NSCR_1980S_BANQUET_INTV_RACE_DESR_NO8_WINN-DIXIE_300_NO3_COCA-COLA_600_BODINE_1                                         V     C        00:19:16:22 00:19:22:18 00:20:39:14 00:20:45:11 
M2      ERN_F0936_NSCR_1980S_BANQUET_INTV_RACE_DESR_NO8_WINN-DIXIE_300_NO3_COCA-COLA_600_BODINE_1                                                  060.0 00:19:16:22 
*FROM CLIP NAME:  ERN_F0936_NSCR_1980S_BANQUET INTV RACE DESR NO8 WINN-DIXIE 300 NO3 COCA-COLA 600_BODINE_1.NEW.01 
*SOURCE FILE: ERN_F0936_NSCR_1980S_BANQUET INTV RACE DESR NO8 WINN-DIXIE 300 NO3 COCA-COLA 600_BODINE_1
000953  ERN_F2223_NSCR_1988-05-29_CHARLOTTE-WORLD_600_WINNER_DARRELL_WALTRIP_RACE_B-ROLL___1988-NAS-027029                                A18   C        00:10:43:00 00:10:47:00 00:20:39:19 00:20:43:18 
M2      ERN_F2223_NSCR_1988-05-29_CHARLOTTE-WORLD_600_WINNER_DARRELL_WALTRIP_RACE_B-ROLL___1988-NAS-027029                                         030.0 00:10:43:00 
*FROM CLIP NAME:  ERN_F2223_NSCR_1988-05-29_CHARLOTTE-WORLD 600 WINNER DARRELL WALTRIP RACE B-ROLL  _1988-NAS-027029.NEW.01 
*SOURCE FILE: ERN_F2223_NSCR_1988-05-29_CHARLOTTE-WORLD 600 WINNER DARRELL WALTRIP RACE B-ROLL  _1988-NAS-027029
000954  ERN_F0800_NSCR_1987-05-17_RACE_DESR_WINNER_BILL_ELLIOTT_CHARLOTTE_-_THE_WINSTON_87-EV-0287                                        A24   C        00:51:44:20 00:51:45:21 00:20:42:20 00:20:43:20 
M2      ERN_F0800_NSCR_1987-05-17_RACE_DESR_WINNER_BILL_ELLIOTT_CHARLOTTE_-_THE_WINSTON_87-EV-0287                                                 030.0 00:51:44:20 
*FROM CLIP NAME:  ERN_F0800_NSCR_1987-05-17_RACE DESR WINNER BILL ELLIOTT CHARLOTTE - THE WINSTON_87-EV-0287.NEW.01 
*TO CLIP NAME:  ERN_F0800_NSCR_1987-05-17_RACE DESR WINNER BILL ELLIOTT CHARLOTTE - THE WINSTON_87-EV-0287.NEW.01 
*SOURCE FILE: ERN_F0800_NSCR_1987-05-17_RACE DESR WINNER BILL ELLIOTT CHARLOTTE - THE WINSTON_87-EV-0287
000955  ERN_F0800_NSCR_1987-05-17_RACE_DESR_WINNER_BILL_ELLIOTT_CHARLOTTE_-_THE_WINSTON_87-EV-0287                                        A24   C        00:51:45:20 00:51:56:12 00:20:43:20 00:20:54:13 
M2      ERN_F0800_NSCR_1987-05-17_RACE_DESR_WINNER_BILL_ELLIOTT_CHARLOTTE_-_THE_WINSTON_87-EV-0287                                                 030.0 00:51:45:20 
*FROM CLIP NAME:  ERN_F0800_NSCR_1987-05-17_RACE DESR WINNER BILL ELLIOTT CHARLOTTE - THE WINSTON_87-EV-0287.NEW.01 
*SOURCE FILE: ERN_F0800_NSCR_1987-05-17_RACE DESR WINNER BILL ELLIOTT CHARLOTTE - THE WINSTON_87-EV-0287
000956  ERN_F2804_NSCR_1988_THE_WINSTON-FILM_FOOTAGE_NO_AUDIO_16MM_SLOMO_BEAUTY_SHOTS_PIT_STOP_DESR_NO3_GLAM_SHOTS_SMOKE_DESR_INTV_VICTOR V     C        00:04:51:10 00:04:55:23 00:20:45:11 00:20:49:21 
M2      ERN_F2804_NSCR_1988_THE_WINSTON-FILM_FOOTAGE_NO_AUDIO_16MM_SLOMO_BEAUTY_SHOTS_PIT_STOP_DESR_NO3_GLAM_SHOTS_SMOKE_DESR_INTV_VICTOR          030.0 00:04:51:10 
*FROM CLIP NAME:  ERN_F2804_NSCR_1988_THE WINSTON-FILM FOOTAGE NO AUDIO 16MM SLOMO BEAUTY SHOTS PIT STOP DESR NO3 GLAM SHOTS SMOKE DESR INTV VICTORY LANE_1988-NAS-016193-S001.NEW.01 
*SOURCE FILE: ERN_F2804_NSCR_1988_THE WINSTON-FILM FOOTAGE NO AUDIO 16MM SLOMO BEAUTY SHOTS PIT STOP DESR NO3 GLAM SHOTS SMOKE DESR INTV VICTORY LANE_1988-NAS-016193-S001
000957  ERN_F2223_NSCR_1988-05-29_CHARLOTTE-WORLD_600_WINNER_DARRELL_WALTRIP_RACE_B-ROLL___1988-NAS-027029                                A18   C        00:10:40:10 00:10:40:22 00:20:46:00 00:20:46:09 
M2      ERN_F2223_NSCR_1988-05-29_CHARLOTTE-WORLD_600_WINNER_DARRELL_WALTRIP_RACE_B-ROLL___1988-NAS-027029                                         030.0 00:10:40:10 
*FROM CLIP NAME:  ERN_F2223_NSCR_1988-05-29_CHARLOTTE-WORLD 600 WINNER DARRELL WALTRIP RACE B-ROLL  _1988-NAS-027029.NEW.01 
*SOURCE FILE: ERN_F2223_NSCR_1988-05-29_CHARLOTTE-WORLD 600 WINNER DARRELL WALTRIP RACE B-ROLL  _1988-NAS-027029
000958  ERN_F2223_NSCR_1988-05-29_CHARLOTTE-WORLD_600_WINNER_DARRELL_WALTRIP_RACE_B-ROLL___1988-NAS-027029                                A18   C        00:10:40:21 00:10:43:01 00:20:46:09 00:20:48:16 
M2      ERN_F2223_NSCR_1988-05-29_CHARLOTTE-WORLD_600_WINNER_DARRELL_WALTRIP_RACE_B-ROLL___1988-NAS-027029                                         030.0 00:10:40:21 
*FROM CLIP NAME:  ERN_F2223_NSCR_1988-05-29_CHARLOTTE-WORLD 600 WINNER DARRELL WALTRIP RACE B-ROLL  _1988-NAS-027029.NEW.01 
*SOURCE FILE: ERN_F2223_NSCR_1988-05-29_CHARLOTTE-WORLD 600 WINNER DARRELL WALTRIP RACE B-ROLL  _1988-NAS-027029
000959  ERN_F2223_NSCR_1988-05-29_CHARLOTTE-WORLD_600_WINNER_DARRELL_WALTRIP_RACE_B-ROLL___1988-NAS-027029                                A20   C        00:11:04:23 00:11:04:27 00:20:48:14 00:20:48:16 
M2      ERN_F2223_NSCR_1988-05-29_CHARLOTTE-WORLD_600_WINNER_DARRELL_WALTRIP_RACE_B-ROLL___1988-NAS-027029                                         030.0 00:11:04:23 
*FROM CLIP NAME:  ERN_F2223_NSCR_1988-05-29_CHARLOTTE-WORLD 600 WINNER DARRELL WALTRIP RACE B-ROLL  _1988-NAS-027029.NEW.01 
*SOURCE FILE: ERN_F2223_NSCR_1988-05-29_CHARLOTTE-WORLD 600 WINNER DARRELL WALTRIP RACE B-ROLL  _1988-NAS-027029
000960  ERN_F2223_NSCR_1988-05-29_CHARLOTTE-WORLD_600_WINNER_DARRELL_WALTRIP_RACE_B-ROLL___1988-NAS-027029                                A20   C        00:11:04:26 00:11:04:29 00:20:48:16 00:20:48:18 
M2      ERN_F2223_NSCR_1988-05-29_CHARLOTTE-WORLD_600_WINNER_DARRELL_WALTRIP_RACE_B-ROLL___1988-NAS-027029                                         030.0 00:11:04:26 
*FROM CLIP NAME:  ERN_F2223_NSCR_1988-05-29_CHARLOTTE-WORLD 600 WINNER DARRELL WALTRIP RACE B-ROLL  _1988-NAS-027029.NEW.01 
*SOURCE FILE: ERN_F2223_NSCR_1988-05-29_CHARLOTTE-WORLD 600 WINNER DARRELL WALTRIP RACE B-ROLL  _1988-NAS-027029
000961  ERN_F0936_NSCR_1980S_BANQUET_INTV_RACE_DESR_NO8_WINN-DIXIE_300_NO3_COCA-COLA_600_BODINE_1                                         V     C        00:20:22:26 00:20:27:11 00:20:49:21 00:20:54:09 
M2      ERN_F0936_NSCR_1980S_BANQUET_INTV_RACE_DESR_NO8_WINN-DIXIE_300_NO3_COCA-COLA_600_BODINE_1                                                  060.0 00:20:22:26 
*FROM CLIP NAME:  ERN_F0936_NSCR_1980S_BANQUET INTV RACE DESR NO8 WINN-DIXIE 300 NO3 COCA-COLA 600_BODINE_1.NEW.01 
*SOURCE FILE: ERN_F0936_NSCR_1980S_BANQUET INTV RACE DESR NO8 WINN-DIXIE 300 NO3 COCA-COLA 600_BODINE_1
000962  ERN_F1930_NSCR_1988-05-29_CHARLOTTE-COCA_COLA_600_FANS_TAILGATING_RACE_B-RO_88-EV-0157                                            A18   C        00:21:15:18 00:21:16:19 00:20:53:16 00:20:54:16 
M2      ERN_F1930_NSCR_1988-05-29_CHARLOTTE-COCA_COLA_600_FANS_TAILGATING_RACE_B-RO_88-EV-0157                                                     030.0 00:21:15:18 
*FROM CLIP NAME:  ERN_F1930_NSCR_1988-05-29_CHARLOTTE-COCA COLA 600 FANS TAILGATING RACE B-RO_88-EV-0157.NEW.01 
*SOURCE FILE: ERN_F1930_NSCR_1988-05-29_CHARLOTTE-COCA COLA 600 FANS TAILGATING RACE B-RO_88-EV-0157
000963  ERN_F0800_NSCR_1987-05-17_RACE_DESR_WINNER_BILL_ELLIOTT_CHARLOTTE_-_THE_WINSTON_87-EV-0287                                        A20   C        00:51:01:12 00:51:02:12 00:20:53:16 00:20:54:16 
M2      ERN_F0800_NSCR_1987-05-17_RACE_DESR_WINNER_BILL_ELLIOTT_CHARLOTTE_-_THE_WINSTON_87-EV-0287                                                 030.0 00:51:01:12 
*FROM CLIP NAME:  ERN_F0800_NSCR_1987-05-17_RACE DESR WINNER BILL ELLIOTT CHARLOTTE - THE WINSTON_87-EV-0287.NEW.01 
*SOURCE FILE: ERN_F0800_NSCR_1987-05-17_RACE DESR WINNER BILL ELLIOTT CHARLOTTE - THE WINSTON_87-EV-0287
000964  ERN_F1924_NSCR_1988-05-29_CHARLOTTE-COCA_COLA_RACE_B-ROLL_FLYBYS_88-EV-0164                                                       V     C        00:21:15:13 00:21:19:05 00:20:54:09 00:20:58:02 
M2      ERN_F1924_NSCR_1988-05-29_CHARLOTTE-COCA_COLA_RACE_B-ROLL_FLYBYS_88-EV-0164                                                                030.0 00:21:15:13 
*FROM CLIP NAME:  ERN_F1924_NSCR_1988-05-29_CHARLOTTE-COCA COLA RACE B-ROLL FLYBYS_88-EV-0164.NEW.01 
*SOURCE FILE: ERN_F1924_NSCR_1988-05-29_CHARLOTTE-COCA COLA RACE B-ROLL FLYBYS_88-EV-0164
000965  ERN_F1930_NSCR_1988-05-29_CHARLOTTE-COCA_COLA_600_FANS_TAILGATING_RACE_B-RO_88-EV-0157                                            A18   C        00:21:16:18 00:21:17:09 00:20:54:16 00:20:55:08 
M2      ERN_F1930_NSCR_1988-05-29_CHARLOTTE-COCA_COLA_600_FANS_TAILGATING_RACE_B-RO_88-EV-0157                                                     030.0 00:21:16:18 
*FROM CLIP NAME:  ERN_F1930_NSCR_1988-05-29_CHARLOTTE-COCA COLA 600 FANS TAILGATING RACE B-RO_88-EV-0157.NEW.01 
*SOURCE FILE: ERN_F1930_NSCR_1988-05-29_CHARLOTTE-COCA COLA 600 FANS TAILGATING RACE B-RO_88-EV-0157
000966  ERN_F0800_NSCR_1987-05-17_RACE_DESR_WINNER_BILL_ELLIOTT_CHARLOTTE_-_THE_WINSTON_87-EV-0287                                        A20   C        00:51:02:12 00:51:04:00 00:20:54:16 00:20:56:06 
M2      ERN_F0800_NSCR_1987-05-17_RACE_DESR_WINNER_BILL_ELLIOTT_CHARLOTTE_-_THE_WINSTON_87-EV-0287                                                 030.0 00:51:02:12 
*FROM CLIP NAME:  ERN_F0800_NSCR_1987-05-17_RACE DESR WINNER BILL ELLIOTT CHARLOTTE - THE WINSTON_87-EV-0287.NEW.01 
*SOURCE FILE: ERN_F0800_NSCR_1987-05-17_RACE DESR WINNER BILL ELLIOTT CHARLOTTE - THE WINSTON_87-EV-0287
000967  ERN_F0800_NSCR_1987-05-17_RACE_DESR_WINNER_BILL_ELLIOTT_CHARLOTTE_-_THE_WINSTON_87-EV-0287                                        A20   C        00:51:03:29 00:51:05:10 00:20:56:06 00:20:57:14 
M2      ERN_F0800_NSCR_1987-05-17_RACE_DESR_WINNER_BILL_ELLIOTT_CHARLOTTE_-_THE_WINSTON_87-EV-0287                                                 030.0 00:51:03:29 
*FROM CLIP NAME:  ERN_F0800_NSCR_1987-05-17_RACE DESR WINNER BILL ELLIOTT CHARLOTTE - THE WINSTON_87-EV-0287.NEW.01 
*TO CLIP NAME:  ERN_F0800_NSCR_1987-05-17_RACE DESR WINNER BILL ELLIOTT CHARLOTTE - THE WINSTON_87-EV-0287.NEW.01 
*SOURCE FILE: ERN_F0800_NSCR_1987-05-17_RACE DESR WINNER BILL ELLIOTT CHARLOTTE - THE WINSTON_87-EV-0287
000968  ERN_F0800_NSCR_1987-05-17_RACE_DESR_WINNER_BILL_ELLIOTT_CHARLOTTE_-_THE_WINSTON_87-EV-0287                                        A20   C        00:51:05:09 00:51:07:17 00:20:57:14 00:20:59:20 
M2      ERN_F0800_NSCR_1987-05-17_RACE_DESR_WINNER_BILL_ELLIOTT_CHARLOTTE_-_THE_WINSTON_87-EV-0287                                                 030.0 00:51:05:09 
*FROM CLIP NAME:  ERN_F0800_NSCR_1987-05-17_RACE DESR WINNER BILL ELLIOTT CHARLOTTE - THE WINSTON_87-EV-0287.NEW.01 
*SOURCE FILE: ERN_F0800_NSCR_1987-05-17_RACE DESR WINNER BILL ELLIOTT CHARLOTTE - THE WINSTON_87-EV-0287
000969  ERN_F1928_NSCR_1988-05-29_CHARLOTTE-COCA_COLA_600_RACE_B-ROLL_FLYBYS_88-EV-0160                                                   V     C        00:12:19:27 00:12:26:04 00:20:58:02 00:21:04:07 
M2      ERN_F1928_NSCR_1988-05-29_CHARLOTTE-COCA_COLA_600_RACE_B-ROLL_FLYBYS_88-EV-0160                                                            030.0 00:12:19:27 
*FROM CLIP NAME:  ERN_F1928_NSCR_1988-05-29_CHARLOTTE-COCA COLA 600 RACE B-ROLL FLYBYS_88-EV-0160.NEW.01 
*SOURCE FILE: ERN_F1928_NSCR_1988-05-29_CHARLOTTE-COCA COLA 600 RACE B-ROLL FLYBYS_88-EV-0160
000970  ERN_F0800_NSCR_1987-05-17_RACE_DESR_WINNER_BILL_ELLIOTT_CHARLOTTE_-_THE_WINSTON_87-EV-0287                                        A20   C        00:51:07:17 00:51:07:20 00:20:59:20 00:20:59:22 
M2      ERN_F0800_NSCR_1987-05-17_RACE_DESR_WINNER_BILL_ELLIOTT_CHARLOTTE_-_THE_WINSTON_87-EV-0287                                                 030.0 00:51:07:17 
*FROM CLIP NAME:  ERN_F0800_NSCR_1987-05-17_RACE DESR WINNER BILL ELLIOTT CHARLOTTE - THE WINSTON_87-EV-0287.NEW.01 
*TO CLIP NAME:  ERN_F0800_NSCR_1987-05-17_RACE DESR WINNER BILL ELLIOTT CHARLOTTE - THE WINSTON_87-EV-0287.NEW.01 
*SOURCE FILE: ERN_F0800_NSCR_1987-05-17_RACE DESR WINNER BILL ELLIOTT CHARLOTTE - THE WINSTON_87-EV-0287
000971  ERN_F0800_NSCR_1987-05-17_RACE_DESR_WINNER_BILL_ELLIOTT_CHARLOTTE_-_THE_WINSTON_87-EV-0287                                        A20   C        00:51:07:19 00:51:10:07 00:20:59:22 00:21:02:12 
M2      ERN_F0800_NSCR_1987-05-17_RACE_DESR_WINNER_BILL_ELLIOTT_CHARLOTTE_-_THE_WINSTON_87-EV-0287                                                 030.0 00:51:07:19 
*FROM CLIP NAME:  ERN_F0800_NSCR_1987-05-17_RACE DESR WINNER BILL ELLIOTT CHARLOTTE - THE WINSTON_87-EV-0287.NEW.01 
*SOURCE FILE: ERN_F0800_NSCR_1987-05-17_RACE DESR WINNER BILL ELLIOTT CHARLOTTE - THE WINSTON_87-EV-0287
000972  ERN_F0800_NSCR_1987-05-17_RACE_DESR_WINNER_BILL_ELLIOTT_CHARLOTTE_-_THE_WINSTON_87-EV-0287                                        A18   C        00:33:17:17 00:33:17:20 00:21:03:11 00:21:03:13 
M2      ERN_F0800_NSCR_1987-05-17_RACE_DESR_WINNER_BILL_ELLIOTT_CHARLOTTE_-_THE_WINSTON_87-EV-0287                                                 030.0 00:33:17:17 
*FROM CLIP NAME:  ERN_F0800_NSCR_1987-05-17_RACE DESR WINNER BILL ELLIOTT CHARLOTTE - THE WINSTON_87-EV-0287.NEW.01 
*SOURCE FILE: ERN_F0800_NSCR_1987-05-17_RACE DESR WINNER BILL ELLIOTT CHARLOTTE - THE WINSTON_87-EV-0287
000973  ERN_F0800_NSCR_1987-05-17_RACE_DESR_WINNER_BILL_ELLIOTT_CHARLOTTE_-_THE_WINSTON_87-EV-0287                                        A18   C        00:33:17:20 00:33:20:22 00:21:03:13 00:21:06:14 
M2      ERN_F0800_NSCR_1987-05-17_RACE_DESR_WINNER_BILL_ELLIOTT_CHARLOTTE_-_THE_WINSTON_87-EV-0287                                                 030.0 00:33:17:20 
*FROM CLIP NAME:  ERN_F0800_NSCR_1987-05-17_RACE DESR WINNER BILL ELLIOTT CHARLOTTE - THE WINSTON_87-EV-0287.NEW.01 
*SOURCE FILE: ERN_F0800_NSCR_1987-05-17_RACE DESR WINNER BILL ELLIOTT CHARLOTTE - THE WINSTON_87-EV-0287
000974  ERN_F0802_NSCR_1987-05-17_RACE_DESR_WINNER_BILL_ELLIOTT_CHARLOTTE_-_THE_WINSTON_87-EV-0397                                        V     C        17:22:31:03 17:22:32:26 00:21:04:07 00:21:06:01 
M2      ERN_F0802_NSCR_1987-05-17_RACE_DESR_WINNER_BILL_ELLIOTT_CHARLOTTE_-_THE_WINSTON_87-EV-0397                                                 030.0 17:22:31:03 
*FROM CLIP NAME:  ERN_F0802_NSCR_1987-05-17_RACE DESR WINNER BILL ELLIOTT CHARLOTTE - THE WINSTON_87-EV-0397.NEW.01 
*SOURCE FILE: ERN_F0802_NSCR_1987-05-17_RACE DESR WINNER BILL ELLIOTT CHARLOTTE - THE WINSTON_87-EV-0397
000975  ERN_F8871_NSCR_1988-10-16_RACE_B-ROLL_NORTH_WILKESBORO_HOLLY_FARMS_400_DESR_BONNETT_WALLACE_ELLIOT_88-EV-0360                     A22   C        00:04:04:00 00:04:05:16 00:21:05:23 00:21:07:11 
M2      ERN_F8871_NSCR_1988-10-16_RACE_B-ROLL_NORTH_WILKESBORO_HOLLY_FARMS_400_DESR_BONNETT_WALLACE_ELLIOT_88-EV-0360                              030.0 00:04:04:00 
*FROM CLIP NAME:  ERN_F8871_NSCR_1988-10-16_RACE B-ROLL NORTH WILKESBORO HOLLY FARMS 400 DESR BONNETT WALLACE ELLIOT_88-EV-0360.NEW.01 
*SOURCE FILE: ERN_F8871_NSCR_1988-10-16_RACE B-ROLL NORTH WILKESBORO HOLLY FARMS 400 DESR BONNETT WALLACE ELLIOT_88-EV-0360
000976  ERN_F8874_NSCR_1988-10-16_RACE_B-ROLL_NORTH_WILKESBORO_HOLLY_FARMS_400_DESR_BONNETT_WALLACE_ELLIOT_88-EV-0363                     V     C        00:04:19:02 00:04:26:29 00:21:06:01 00:21:13:22 
M2      ERN_F8874_NSCR_1988-10-16_RACE_B-ROLL_NORTH_WILKESBORO_HOLLY_FARMS_400_DESR_BONNETT_WALLACE_ELLIOT_88-EV-0363                              030.0 00:04:19:02 
*FROM CLIP NAME:  ERN_F8874_NSCR_1988-10-16_RACE B-ROLL NORTH WILKESBORO HOLLY FARMS 400 DESR BONNETT WALLACE ELLIOT_88-EV-0363.NEW.01 
*SOURCE FILE: ERN_F8874_NSCR_1988-10-16_RACE B-ROLL NORTH WILKESBORO HOLLY FARMS 400 DESR BONNETT WALLACE ELLIOT_88-EV-0363
000977  ERN_F0653_NSCR_1990-01-04_DESR_RACE_NASCAR_CUP_SERIES_-_DARLINGTON_90-EV-0664                                                     A20   C        01:08:27:21 01:08:29:07 00:21:07:03 00:21:08:15 
M2      ERN_F0653_NSCR_1990-01-04_DESR_RACE_NASCAR_CUP_SERIES_-_DARLINGTON_90-EV-0664                                                              030.0 01:08:27:21 
*FROM CLIP NAME:  ERN_F0653_NSCR_1990-01-04_DESR RACE NASCAR CUP SERIES - DARLINGTON_90-EV-0664.NEW.01 
*SOURCE FILE: ERN_F0653_NSCR_1990-01-04_DESR RACE NASCAR CUP SERIES - DARLINGTON_90-EV-0664
000978  ERN_F8871_NSCR_1988-10-16_RACE_B-ROLL_NORTH_WILKESBORO_HOLLY_FARMS_400_DESR_BONNETT_WALLACE_ELLIOT_88-EV-0360                     A22   C        00:04:05:15 00:04:07:06 00:21:07:11 00:21:09:03 
M2      ERN_F8871_NSCR_1988-10-16_RACE_B-ROLL_NORTH_WILKESBORO_HOLLY_FARMS_400_DESR_BONNETT_WALLACE_ELLIOT_88-EV-0360                              030.0 00:04:05:15 
*FROM CLIP NAME:  ERN_F8871_NSCR_1988-10-16_RACE B-ROLL NORTH WILKESBORO HOLLY FARMS 400 DESR BONNETT WALLACE ELLIOT_88-EV-0360.NEW.01 
*SOURCE FILE: ERN_F8871_NSCR_1988-10-16_RACE B-ROLL NORTH WILKESBORO HOLLY FARMS 400 DESR BONNETT WALLACE ELLIOT_88-EV-0360
000979  ERN_F0653_NSCR_1990-01-04_DESR_RACE_NASCAR_CUP_SERIES_-_DARLINGTON_90-EV-0664                                                     A20   C        01:08:29:06 01:08:30:04 00:21:08:15 00:21:09:13 
M2      ERN_F0653_NSCR_1990-01-04_DESR_RACE_NASCAR_CUP_SERIES_-_DARLINGTON_90-EV-0664                                                              030.0 01:08:29:06 
*FROM CLIP NAME:  ERN_F0653_NSCR_1990-01-04_DESR RACE NASCAR CUP SERIES - DARLINGTON_90-EV-0664.NEW.01 
*SOURCE FILE: ERN_F0653_NSCR_1990-01-04_DESR RACE NASCAR CUP SERIES - DARLINGTON_90-EV-0664
000980  ERN_F8871_NSCR_1988-10-16_RACE_B-ROLL_NORTH_WILKESBORO_HOLLY_FARMS_400_DESR_BONNETT_WALLACE_ELLIOT_88-EV-0360                     A22   C        00:04:07:05 00:04:08:21 00:21:09:03 00:21:10:15 
M2      ERN_F8871_NSCR_1988-10-16_RACE_B-ROLL_NORTH_WILKESBORO_HOLLY_FARMS_400_DESR_BONNETT_WALLACE_ELLIOT_88-EV-0360                              030.0 00:04:07:05 
*FROM CLIP NAME:  ERN_F8871_NSCR_1988-10-16_RACE B-ROLL NORTH WILKESBORO HOLLY FARMS 400 DESR BONNETT WALLACE ELLIOT_88-EV-0360.NEW.01 
*TO CLIP NAME:  ERN_F8871_NSCR_1988-10-16_RACE B-ROLL NORTH WILKESBORO HOLLY FARMS 400 DESR BONNETT WALLACE ELLIOT_88-EV-0360.NEW.01 
*SOURCE FILE: ERN_F8871_NSCR_1988-10-16_RACE B-ROLL NORTH WILKESBORO HOLLY FARMS 400 DESR BONNETT WALLACE ELLIOT_88-EV-0360
000981  ERN_F0653_NSCR_1990-01-04_DESR_RACE_NASCAR_CUP_SERIES_-_DARLINGTON_90-EV-0664                                                     A20   C        01:08:31:01 01:08:32:02 00:21:09:13 00:21:10:13 
M2      ERN_F0653_NSCR_1990-01-04_DESR_RACE_NASCAR_CUP_SERIES_-_DARLINGTON_90-EV-0664                                                              030.0 01:08:31:01 
*FROM CLIP NAME:  ERN_F0653_NSCR_1990-01-04_DESR RACE NASCAR CUP SERIES - DARLINGTON_90-EV-0664.NEW.01 
*TO CLIP NAME:  ERN_F0653_NSCR_1990-01-04_DESR RACE NASCAR CUP SERIES - DARLINGTON_90-EV-0664.NEW.01 
*SOURCE FILE: ERN_F0653_NSCR_1990-01-04_DESR RACE NASCAR CUP SERIES - DARLINGTON_90-EV-0664
000982  ERN_F0800_NSCR_1987-05-17_RACE_DESR_WINNER_BILL_ELLIOTT_CHARLOTTE_-_THE_WINSTON_87-EV-0287                                        A18   C        00:33:21:06 00:33:23:09 00:21:09:22 00:21:12:00 
M2      ERN_F0800_NSCR_1987-05-17_RACE_DESR_WINNER_BILL_ELLIOTT_CHARLOTTE_-_THE_WINSTON_87-EV-0287                                                 030.0 00:33:21:06 
*FROM CLIP NAME:  ERN_F0800_NSCR_1987-05-17_RACE DESR WINNER BILL ELLIOTT CHARLOTTE - THE WINSTON_87-EV-0287.NEW.01 
*SOURCE FILE: ERN_F0800_NSCR_1987-05-17_RACE DESR WINNER BILL ELLIOTT CHARLOTTE - THE WINSTON_87-EV-0287
000983  ERN_F0653_NSCR_1990-01-04_DESR_RACE_NASCAR_CUP_SERIES_-_DARLINGTON_90-EV-0664                                                     A20   C        01:08:32:01 01:08:34:05 00:21:10:13 00:21:12:16 
M2      ERN_F0653_NSCR_1990-01-04_DESR_RACE_NASCAR_CUP_SERIES_-_DARLINGTON_90-EV-0664                                                              030.0 01:08:32:01 
*FROM CLIP NAME:  ERN_F0653_NSCR_1990-01-04_DESR RACE NASCAR CUP SERIES - DARLINGTON_90-EV-0664.NEW.01 
*SOURCE FILE: ERN_F0653_NSCR_1990-01-04_DESR RACE NASCAR CUP SERIES - DARLINGTON_90-EV-0664
000984  ERN_F8871_NSCR_1988-10-16_RACE_B-ROLL_NORTH_WILKESBORO_HOLLY_FARMS_400_DESR_BONNETT_WALLACE_ELLIOT_88-EV-0360                     A22   C        00:04:08:20 00:04:10:22 00:21:10:15 00:21:12:16 
M2      ERN_F8871_NSCR_1988-10-16_RACE_B-ROLL_NORTH_WILKESBORO_HOLLY_FARMS_400_DESR_BONNETT_WALLACE_ELLIOT_88-EV-0360                              030.0 00:04:08:20 
*FROM CLIP NAME:  ERN_F8871_NSCR_1988-10-16_RACE B-ROLL NORTH WILKESBORO HOLLY FARMS 400 DESR BONNETT WALLACE ELLIOT_88-EV-0360.NEW.01 
*SOURCE FILE: ERN_F8871_NSCR_1988-10-16_RACE B-ROLL NORTH WILKESBORO HOLLY FARMS 400 DESR BONNETT WALLACE ELLIOT_88-EV-0360
000985  ERN_F0800_NSCR_1987-05-17_RACE_DESR_WINNER_BILL_ELLIOTT_CHARLOTTE_-_THE_WINSTON_87-EV-0287                                        A18   C        00:33:25:15 00:33:25:18 00:21:12:07 00:21:12:09 
M2      ERN_F0800_NSCR_1987-05-17_RACE_DESR_WINNER_BILL_ELLIOTT_CHARLOTTE_-_THE_WINSTON_87-EV-0287                                                 030.0 00:33:25:15 
*FROM CLIP NAME:  ERN_F0800_NSCR_1987-05-17_RACE DESR WINNER BILL ELLIOTT CHARLOTTE - THE WINSTON_87-EV-0287.NEW.01 
*SOURCE FILE: ERN_F0800_NSCR_1987-05-17_RACE DESR WINNER BILL ELLIOTT CHARLOTTE - THE WINSTON_87-EV-0287
000986  ERN_F0800_NSCR_1987-05-17_RACE_DESR_WINNER_BILL_ELLIOTT_CHARLOTTE_-_THE_WINSTON_87-EV-0287                                        A18   C        00:33:25:17 00:33:26:22 00:21:12:09 00:21:13:12 
M2      ERN_F0800_NSCR_1987-05-17_RACE_DESR_WINNER_BILL_ELLIOTT_CHARLOTTE_-_THE_WINSTON_87-EV-0287                                                 030.0 00:33:25:17 
*FROM CLIP NAME:  ERN_F0800_NSCR_1987-05-17_RACE DESR WINNER BILL ELLIOTT CHARLOTTE - THE WINSTON_87-EV-0287.NEW.01 
*SOURCE FILE: ERN_F0800_NSCR_1987-05-17_RACE DESR WINNER BILL ELLIOTT CHARLOTTE - THE WINSTON_87-EV-0287
000987  ERN_F0800_NSCR_1987-05-17_RACE_DESR_WINNER_BILL_ELLIOTT_CHARLOTTE_-_THE_WINSTON_87-EV-0287                                        A18   C        00:33:27:18 00:33:32:02 00:21:13:12 00:21:17:22 
M2      ERN_F0800_NSCR_1987-05-17_RACE_DESR_WINNER_BILL_ELLIOTT_CHARLOTTE_-_THE_WINSTON_87-EV-0287                                                 030.0 00:33:27:18 
*FROM CLIP NAME:  ERN_F0800_NSCR_1987-05-17_RACE DESR WINNER BILL ELLIOTT CHARLOTTE - THE WINSTON_87-EV-0287.NEW.01 
*SOURCE FILE: ERN_F0800_NSCR_1987-05-17_RACE DESR WINNER BILL ELLIOTT CHARLOTTE - THE WINSTON_87-EV-0287
000988  ERN_F0802_NSCR_1987-05-17_RACE_DESR_WINNER_BILL_ELLIOTT_CHARLOTTE_-_THE_WINSTON_87-EV-0397                                        V     C        17:22:40:22 17:22:43:16 00:21:13:22 00:21:16:17 
M2      ERN_F0802_NSCR_1987-05-17_RACE_DESR_WINNER_BILL_ELLIOTT_CHARLOTTE_-_THE_WINSTON_87-EV-0397                                                 030.0 17:22:40:22 
*FROM CLIP NAME:  ERN_F0802_NSCR_1987-05-17_RACE DESR WINNER BILL ELLIOTT CHARLOTTE - THE WINSTON_87-EV-0397.NEW.01 
*SOURCE FILE: ERN_F0802_NSCR_1987-05-17_RACE DESR WINNER BILL ELLIOTT CHARLOTTE - THE WINSTON_87-EV-0397
000989  ERN_F8874_NSCR_1988-10-16_RACE_B-ROLL_NORTH_WILKESBORO_HOLLY_FARMS_400_DESR_BONNETT_WALLACE_ELLIOT_88-EV-0363                     A20   C        00:12:21:26 00:12:23:03 00:21:16:04 00:21:17:09 
M2      ERN_F8874_NSCR_1988-10-16_RACE_B-ROLL_NORTH_WILKESBORO_HOLLY_FARMS_400_DESR_BONNETT_WALLACE_ELLIOT_88-EV-0363                              030.0 00:12:21:26 
*FROM CLIP NAME:  ERN_F8874_NSCR_1988-10-16_RACE B-ROLL NORTH WILKESBORO HOLLY FARMS 400 DESR BONNETT WALLACE ELLIOT_88-EV-0363.NEW.01 
*SOURCE FILE: ERN_F8874_NSCR_1988-10-16_RACE B-ROLL NORTH WILKESBORO HOLLY FARMS 400 DESR BONNETT WALLACE ELLIOT_88-EV-0363
000990  ERN_F8879_NSCR_1988-10-16_RACE_BROADCAST_NORTH_WILKESBORO_HOLLY_FARMS_400_DESR_BONNETT_WALLACE_ELLIOT_88-EV-0366C                 V     C        01:25:21:12 01:25:30:09 00:21:16:17 00:21:21:04 
M2      ERN_F8879_NSCR_1988-10-16_RACE_BROADCAST_NORTH_WILKESBORO_HOLLY_FARMS_400_DESR_BONNETT_WALLACE_ELLIOT_88-EV-0366C                          060.0 01:25:21:12 
*FROM CLIP NAME:  ERN_F8879_NSCR_1988-10-16_RACE BROADCAST NORTH WILKESBORO HOLLY FARMS 400 DESR BONNETT WALLACE ELLIOT_88-EV-0366C.NEW.01 
*SOURCE FILE: ERN_F8879_NSCR_1988-10-16_RACE BROADCAST NORTH WILKESBORO HOLLY FARMS 400 DESR BONNETT WALLACE ELLIOT_88-EV-0366C
000991  ERN_F8874_NSCR_1988-10-16_RACE_B-ROLL_NORTH_WILKESBORO_HOLLY_FARMS_400_DESR_BONNETT_WALLACE_ELLIOT_88-EV-0363                     A20   C        00:12:23:02 00:12:23:06 00:21:17:09 00:21:17:12 
M2      ERN_F8874_NSCR_1988-10-16_RACE_B-ROLL_NORTH_WILKESBORO_HOLLY_FARMS_400_DESR_BONNETT_WALLACE_ELLIOT_88-EV-0363                              030.0 00:12:23:02 
*FROM CLIP NAME:  ERN_F8874_NSCR_1988-10-16_RACE B-ROLL NORTH WILKESBORO HOLLY FARMS 400 DESR BONNETT WALLACE ELLIOT_88-EV-0363.NEW.01 
*SOURCE FILE: ERN_F8874_NSCR_1988-10-16_RACE B-ROLL NORTH WILKESBORO HOLLY FARMS 400 DESR BONNETT WALLACE ELLIOT_88-EV-0363
000992  ERN_F8874_NSCR_1988-10-16_RACE_B-ROLL_NORTH_WILKESBORO_HOLLY_FARMS_400_DESR_BONNETT_WALLACE_ELLIOT_88-EV-0363                     A20   C        00:12:23:06 00:12:24:16 00:21:17:12 00:21:18:20 
M2      ERN_F8874_NSCR_1988-10-16_RACE_B-ROLL_NORTH_WILKESBORO_HOLLY_FARMS_400_DESR_BONNETT_WALLACE_ELLIOT_88-EV-0363                              030.0 00:12:23:06 
*FROM CLIP NAME:  ERN_F8874_NSCR_1988-10-16_RACE B-ROLL NORTH WILKESBORO HOLLY FARMS 400 DESR BONNETT WALLACE ELLIOT_88-EV-0363.NEW.01 
*TO CLIP NAME:  ERN_F8874_NSCR_1988-10-16_RACE B-ROLL NORTH WILKESBORO HOLLY FARMS 400 DESR BONNETT WALLACE ELLIOT_88-EV-0363.NEW.01 
*SOURCE FILE: ERN_F8874_NSCR_1988-10-16_RACE B-ROLL NORTH WILKESBORO HOLLY FARMS 400 DESR BONNETT WALLACE ELLIOT_88-EV-0363
000993  ERN_F0653_NSCR_1990-01-04_DESR_RACE_NASCAR_CUP_SERIES_-_DARLINGTON_90-EV-0664                                                     A18   C        01:08:27:21 01:08:29:07 00:21:18:14 00:21:20:02 
M2      ERN_F0653_NSCR_1990-01-04_DESR_RACE_NASCAR_CUP_SERIES_-_DARLINGTON_90-EV-0664                                                              030.0 01:08:27:21 
*FROM CLIP NAME:  ERN_F0653_NSCR_1990-01-04_DESR RACE NASCAR CUP SERIES - DARLINGTON_90-EV-0664.NEW.01 
*SOURCE FILE: ERN_F0653_NSCR_1990-01-04_DESR RACE NASCAR CUP SERIES - DARLINGTON_90-EV-0664
000994  ERN_F8874_NSCR_1988-10-16_RACE_B-ROLL_NORTH_WILKESBORO_HOLLY_FARMS_400_DESR_BONNETT_WALLACE_ELLIOT_88-EV-0363                     A20   C        00:12:24:16 00:12:32:08 00:21:18:20 00:21:26:13 
M2      ERN_F8874_NSCR_1988-10-16_RACE_B-ROLL_NORTH_WILKESBORO_HOLLY_FARMS_400_DESR_BONNETT_WALLACE_ELLIOT_88-EV-0363                              030.0 00:12:24:16 
*FROM CLIP NAME:  ERN_F8874_NSCR_1988-10-16_RACE B-ROLL NORTH WILKESBORO HOLLY FARMS 400 DESR BONNETT WALLACE ELLIOT_88-EV-0363.NEW.01 
*SOURCE FILE: ERN_F8874_NSCR_1988-10-16_RACE B-ROLL NORTH WILKESBORO HOLLY FARMS 400 DESR BONNETT WALLACE ELLIOT_88-EV-0363
000995  ERN_F0653_NSCR_1990-01-04_DESR_RACE_NASCAR_CUP_SERIES_-_DARLINGTON_90-EV-0664                                                     A18   C        01:08:29:06 01:08:33:23 00:21:20:02 00:21:24:15 
M2      ERN_F0653_NSCR_1990-01-04_DESR_RACE_NASCAR_CUP_SERIES_-_DARLINGTON_90-EV-0664                                                              030.0 01:08:29:06 
*FROM CLIP NAME:  ERN_F0653_NSCR_1990-01-04_DESR RACE NASCAR CUP SERIES - DARLINGTON_90-EV-0664.NEW.01 
*SOURCE FILE: ERN_F0653_NSCR_1990-01-04_DESR RACE NASCAR CUP SERIES - DARLINGTON_90-EV-0664
000996  ERN_F8879_NSCR_1988-10-16_RACE_BROADCAST_NORTH_WILKESBORO_HOLLY_FARMS_400_DESR_BONNETT_WALLACE_ELLIOT_88-EV-0366C                 V     C        01:25:55:08 01:25:57:00 00:21:21:04 00:21:22:21 
M2      ERN_F8879_NSCR_1988-10-16_RACE_BROADCAST_NORTH_WILKESBORO_HOLLY_FARMS_400_DESR_BONNETT_WALLACE_ELLIOT_88-EV-0366C                          030.0 01:25:55:08 
*FROM CLIP NAME:  ERN_F8879_NSCR_1988-10-16_RACE BROADCAST NORTH WILKESBORO HOLLY FARMS 400 DESR BONNETT WALLACE ELLIOT_88-EV-0366C.NEW.01 
*SOURCE FILE: ERN_F8879_NSCR_1988-10-16_RACE BROADCAST NORTH WILKESBORO HOLLY FARMS 400 DESR BONNETT WALLACE ELLIOT_88-EV-0366C
000997  ERN_F8874_NSCR_1988-10-16_RACE_B-ROLL_NORTH_WILKESBORO_HOLLY_FARMS_400_DESR_BONNETT_WALLACE_ELLIOT_88-EV-0363                     V     C        00:12:28:17 00:12:32:06 00:21:22:21 00:21:26:12 
M2      ERN_F8874_NSCR_1988-10-16_RACE_B-ROLL_NORTH_WILKESBORO_HOLLY_FARMS_400_DESR_BONNETT_WALLACE_ELLIOT_88-EV-0363                              030.0 00:12:28:17 
*FROM CLIP NAME:  ERN_F8874_NSCR_1988-10-16_RACE B-ROLL NORTH WILKESBORO HOLLY FARMS 400 DESR BONNETT WALLACE ELLIOT_88-EV-0363.NEW.01 
*SOURCE FILE: ERN_F8874_NSCR_1988-10-16_RACE B-ROLL NORTH WILKESBORO HOLLY FARMS 400 DESR BONNETT WALLACE ELLIOT_88-EV-0363
000998  ERN_F8874_NSCR_1988-10-16_RACE_B-ROLL_NORTH_WILKESBORO_HOLLY_FARMS_400_DESR_BONNETT_WALLACE_ELLIOT_88-EV-0363                     V     C        00:12:42:03 00:12:46:08 00:21:26:12 00:21:31:16 
M2      ERN_F8874_NSCR_1988-10-16_RACE_B-ROLL_NORTH_WILKESBORO_HOLLY_FARMS_400_DESR_BONNETT_WALLACE_ELLIOT_88-EV-0363                              024.0 00:12:42:03 
*FROM CLIP NAME:  ERN_F8874_NSCR_1988-10-16_RACE B-ROLL NORTH WILKESBORO HOLLY FARMS 400 DESR BONNETT WALLACE ELLIOT_88-EV-0363.NEW.01 
*SOURCE FILE: ERN_F8874_NSCR_1988-10-16_RACE B-ROLL NORTH WILKESBORO HOLLY FARMS 400 DESR BONNETT WALLACE ELLIOT_88-EV-0363
000999  ERN_F8874_NSCR_1988-10-16_RACE_B-ROLL_NORTH_WILKESBORO_HOLLY_FARMS_400_DESR_BONNETT_WALLACE_ELLIOT_88-EV-0363                     A20   C        00:12:32:07 00:12:34:23 00:21:26:13 00:21:29:01 
M2      ERN_F8874_NSCR_1988-10-16_RACE_B-ROLL_NORTH_WILKESBORO_HOLLY_FARMS_400_DESR_BONNETT_WALLACE_ELLIOT_88-EV-0363                              030.0 00:12:32:07 
*FROM CLIP NAME:  ERN_F8874_NSCR_1988-10-16_RACE B-ROLL NORTH WILKESBORO HOLLY FARMS 400 DESR BONNETT WALLACE ELLIOT_88-EV-0363.NEW.01 
*TO CLIP NAME:  ERN_F8874_NSCR_1988-10-16_RACE B-ROLL NORTH WILKESBORO HOLLY FARMS 400 DESR BONNETT WALLACE ELLIOT_88-EV-0363.NEW.01 
*SOURCE FILE: ERN_F8874_NSCR_1988-10-16_RACE B-ROLL NORTH WILKESBORO HOLLY FARMS 400 DESR BONNETT WALLACE ELLIOT_88-EV-0363
001000  ERN_F8874_NSCR_1988-10-16_RACE_B-ROLL_NORTH_WILKESBORO_HOLLY_FARMS_400_DESR_BONNETT_WALLACE_ELLIOT_88-EV-0363                     A20   C        00:12:34:22 00:12:36:03 00:21:29:01 00:21:30:09 
M2      ERN_F8874_NSCR_1988-10-16_RACE_B-ROLL_NORTH_WILKESBORO_HOLLY_FARMS_400_DESR_BONNETT_WALLACE_ELLIOT_88-EV-0363                              030.0 00:12:34:22 
*FROM CLIP NAME:  ERN_F8874_NSCR_1988-10-16_RACE B-ROLL NORTH WILKESBORO HOLLY FARMS 400 DESR BONNETT WALLACE ELLIOT_88-EV-0363.NEW.01 
*SOURCE FILE: ERN_F8874_NSCR_1988-10-16_RACE B-ROLL NORTH WILKESBORO HOLLY FARMS 400 DESR BONNETT WALLACE ELLIOT_88-EV-0363
001001  ERN_F2671_NSCR_1988-11-20_RACE_B-ROLL_FILM_ATLANTA_JOURNAL_500_RUSTY_WALLACE_VICTORY_LANE_W_DESR_FLY-BYS_1988-NAS-00088_S001      V     C        00:17:42:14 00:17:44:09 00:21:31:16 00:21:33:10 
M2      ERN_F2671_NSCR_1988-11-20_RACE_B-ROLL_FILM_ATLANTA_JOURNAL_500_RUSTY_WALLACE_VICTORY_LANE_W_DESR_FLY-BYS_1988-NAS-00088_S001               024.0 00:17:42:14 
*FROM CLIP NAME:  ERN_F2671_NSCR_1988-11-20_RACE B-ROLL FILM ATLANTA JOURNAL 500 RUSTY WALLACE VICTORY LANE W DESR FLY-BYS_1988-NAS-00088_S001.NEW.01 
*SOURCE FILE: ERN_F2671_NSCR_1988-11-20_RACE B-ROLL FILM ATLANTA JOURNAL 500 RUSTY WALLACE VICTORY LANE W DESR FLY-BYS_1988-NAS-00088_S001
001002  ERN_F9606_NASX_1988-11-20_RACE_BROADCAST_ATLANTA_JOURNAL_500_BILL_ELLIOTT_WINS_CHAMPIONSHIP_PLACES_11TH_YOUTUBE                   A18   C        03:11:44:03 03:11:44:14 00:21:32:15 00:21:32:23 
M2      ERN_F9606_NASX_1988-11-20_RACE_BROADCAST_ATLANTA_JOURNAL_500_BILL_ELLIOTT_WINS_CHAMPIONSHIP_PLACES_11TH_YOUTUBE                            030.0 03:11:44:03 
*FROM CLIP NAME:  ERN_F9606_NASX_1988-11-20_RACE BROADCAST ATLANTA JOURNAL 500 BILL ELLIOTT WINS CHAMPIONSHIP PLACES 11TH_YOUTUBE.NEW.01 
*SOURCE FILE: ERN_F9606_NASX_1988-11-20_RACE BROADCAST ATLANTA JOURNAL 500 BILL ELLIOTT WINS CHAMPIONSHIP PLACES 11TH_YOUTUBE
001003  ERN_F9606_NASX_1988-11-20_RACE_BROADCAST_ATLANTA_JOURNAL_500_BILL_ELLIOTT_WINS_CHAMPIONSHIP_PLACES_11TH_YOUTUBE                   A18   C        03:11:44:13 03:11:45:02 00:21:32:23 00:21:33:13 
M2      ERN_F9606_NASX_1988-11-20_RACE_BROADCAST_ATLANTA_JOURNAL_500_BILL_ELLIOTT_WINS_CHAMPIONSHIP_PLACES_11TH_YOUTUBE                            030.0 03:11:44:13 
*FROM CLIP NAME:  ERN_F9606_NASX_1988-11-20_RACE BROADCAST ATLANTA JOURNAL 500 BILL ELLIOTT WINS CHAMPIONSHIP PLACES 11TH_YOUTUBE.NEW.01 
*SOURCE FILE: ERN_F9606_NASX_1988-11-20_RACE BROADCAST ATLANTA JOURNAL 500 BILL ELLIOTT WINS CHAMPIONSHIP PLACES 11TH_YOUTUBE
001004  ERN_F2671_NSCR_1988-11-20_RACE_B-ROLL_FILM_ATLANTA_JOURNAL_500_RUSTY_WALLACE_VICTORY_LANE_W_DESR_FLY-BYS_1988-NAS-00088_S001      V     C        00:16:33:06 00:16:37:23 00:21:33:10 00:21:38:02 
M2      ERN_F2671_NSCR_1988-11-20_RACE_B-ROLL_FILM_ATLANTA_JOURNAL_500_RUSTY_WALLACE_VICTORY_LANE_W_DESR_FLY-BYS_1988-NAS-00088_S001               024.0 00:16:33:06 
*FROM CLIP NAME:  ERN_F2671_NSCR_1988-11-20_RACE B-ROLL FILM ATLANTA JOURNAL 500 RUSTY WALLACE VICTORY LANE W DESR FLY-BYS_1988-NAS-00088_S001.NEW.01 
*SOURCE FILE: ERN_F2671_NSCR_1988-11-20_RACE B-ROLL FILM ATLANTA JOURNAL 500 RUSTY WALLACE VICTORY LANE W DESR FLY-BYS_1988-NAS-00088_S001
001005  ERN_F9606_NASX_1988-11-20_RACE_BROADCAST_ATLANTA_JOURNAL_500_BILL_ELLIOTT_WINS_CHAMPIONSHIP_PLACES_11TH_YOUTUBE                   A18   C        03:15:22:11 03:15:22:14 00:21:33:13 00:21:33:15 
M2      ERN_F9606_NASX_1988-11-20_RACE_BROADCAST_ATLANTA_JOURNAL_500_BILL_ELLIOTT_WINS_CHAMPIONSHIP_PLACES_11TH_YOUTUBE                            030.0 03:15:22:11 
*FROM CLIP NAME:  ERN_F9606_NASX_1988-11-20_RACE BROADCAST ATLANTA JOURNAL 500 BILL ELLIOTT WINS CHAMPIONSHIP PLACES 11TH_YOUTUBE.NEW.01 
*TO CLIP NAME:  ERN_F9606_NASX_1988-11-20_RACE BROADCAST ATLANTA JOURNAL 500 BILL ELLIOTT WINS CHAMPIONSHIP PLACES 11TH_YOUTUBE.NEW.01 
*SOURCE FILE: ERN_F9606_NASX_1988-11-20_RACE BROADCAST ATLANTA JOURNAL 500 BILL ELLIOTT WINS CHAMPIONSHIP PLACES 11TH_YOUTUBE
001006  ERN_F9606_NASX_1988-11-20_RACE_BROADCAST_ATLANTA_JOURNAL_500_BILL_ELLIOTT_WINS_CHAMPIONSHIP_PLACES_11TH_YOUTUBE                   A18   C        03:15:22:13 03:15:24:19 00:21:33:15 00:21:35:19 
M2      ERN_F9606_NASX_1988-11-20_RACE_BROADCAST_ATLANTA_JOURNAL_500_BILL_ELLIOTT_WINS_CHAMPIONSHIP_PLACES_11TH_YOUTUBE                            030.0 03:15:22:13 
*FROM CLIP NAME:  ERN_F9606_NASX_1988-11-20_RACE BROADCAST ATLANTA JOURNAL 500 BILL ELLIOTT WINS CHAMPIONSHIP PLACES 11TH_YOUTUBE.NEW.01 
*SOURCE FILE: ERN_F9606_NASX_1988-11-20_RACE BROADCAST ATLANTA JOURNAL 500 BILL ELLIOTT WINS CHAMPIONSHIP PLACES 11TH_YOUTUBE
001007  ERN_F2810_NSCR_1988_ALTANTA_PHOENIX-NO_AUDIO_16MM_DESR_AND_TERESA_NO3_FLYBYS_VICTORY_LANE_PIT_ROAD_1988-NAS-016212-S001           V     C        00:20:26:02 00:20:31:04 00:21:38:02 00:21:43:03 
M2      ERN_F2810_NSCR_1988_ALTANTA_PHOENIX-NO_AUDIO_16MM_DESR_AND_TERESA_NO3_FLYBYS_VICTORY_LANE_PIT_ROAD_1988-NAS-016212-S001                    024.0 00:20:26:02 
*FROM CLIP NAME:  ERN_F2810_NSCR_1988_ALTANTA PHOENIX-NO AUDIO 16MM DESR AND TERESA NO3 FLYBYS VICTORY LANE PIT ROAD_1988-NAS-016212-S001.NEW.01 
*SOURCE FILE: ERN_F2810_NSCR_1988_ALTANTA PHOENIX-NO AUDIO 16MM DESR AND TERESA NO3 FLYBYS VICTORY LANE PIT ROAD_1988-NAS-016212-S001
001008  ERN_F2634_NSCR_1989-09-19_RACE_B-ROLL_DESR_PRACTICE_CHARLOTTE_SPEEDWAY_W_KIRK_SHELMERDINE_&_RICHARD_CHILDRESS_89-EV-0477_S004     A18   C        00:20:00:14 00:20:02:00 00:21:47:23 00:21:49:11 
M2      ERN_F2634_NSCR_1989-09-19_RACE_B-ROLL_DESR_PRACTICE_CHARLOTTE_SPEEDWAY_W_KIRK_SHELMERDINE_&_RICHARD_CHILDRESS_89-EV-0477_S004              030.0 00:20:00:14 
*FROM CLIP NAME:  ERN_F2634_NSCR_1989-09-19_RACE B-ROLL DESR PRACTICE CHARLOTTE SPEEDWAY W KIRK SHELMERDINE & RICHARD CHILDRESS_89-EV-0477_S004.NEW.01 
*SOURCE FILE: ERN_F2634_NSCR_1989-09-19_RACE B-ROLL DESR PRACTICE CHARLOTTE SPEEDWAY W KIRK SHELMERDINE & RICHARD CHILDRESS_89-EV-0477_S004
001009  ERN_F2634_NSCR_1989-09-19_RACE_B-ROLL_DESR_PRACTICE_CHARLOTTE_SPEEDWAY_W_KIRK_SHELMERDINE_&_RICHARD_CHILDRESS_89-EV-0477_S004     V     C        00:20:02:25 00:20:10:09 00:21:48:12 00:21:55:22 
M2      ERN_F2634_NSCR_1989-09-19_RACE_B-ROLL_DESR_PRACTICE_CHARLOTTE_SPEEDWAY_W_KIRK_SHELMERDINE_&_RICHARD_CHILDRESS_89-EV-0477_S004              030.0 00:20:02:25 
*FROM CLIP NAME:  ERN_F2634_NSCR_1989-09-19_RACE B-ROLL DESR PRACTICE CHARLOTTE SPEEDWAY W KIRK SHELMERDINE & RICHARD CHILDRESS_89-EV-0477_S004.NEW.01 
*SOURCE FILE: ERN_F2634_NSCR_1989-09-19_RACE B-ROLL DESR PRACTICE CHARLOTTE SPEEDWAY W KIRK SHELMERDINE & RICHARD CHILDRESS_89-EV-0477_S004
001010  ERN_F2634_NSCR_1989-09-19_RACE_B-ROLL_DESR_PRACTICE_CHARLOTTE_SPEEDWAY_W_KIRK_SHELMERDINE_&_RICHARD_CHILDRESS_89-EV-0477_S004     A18   C        00:20:01:29 00:20:02:12 00:21:49:11 00:21:49:21 
M2      ERN_F2634_NSCR_1989-09-19_RACE_B-ROLL_DESR_PRACTICE_CHARLOTTE_SPEEDWAY_W_KIRK_SHELMERDINE_&_RICHARD_CHILDRESS_89-EV-0477_S004              030.0 00:20:01:29 
*FROM CLIP NAME:  ERN_F2634_NSCR_1989-09-19_RACE B-ROLL DESR PRACTICE CHARLOTTE SPEEDWAY W KIRK SHELMERDINE & RICHARD CHILDRESS_89-EV-0477_S004.NEW.01 
*SOURCE FILE: ERN_F2634_NSCR_1989-09-19_RACE B-ROLL DESR PRACTICE CHARLOTTE SPEEDWAY W KIRK SHELMERDINE & RICHARD CHILDRESS_89-EV-0477_S004
001011  ERN_F2634_NSCR_1989-09-19_RACE_B-ROLL_DESR_PRACTICE_CHARLOTTE_SPEEDWAY_W_KIRK_SHELMERDINE_&_RICHARD_CHILDRESS_89-EV-0477_S004     A18   C        00:20:02:12 00:20:04:27 00:21:49:21 00:21:52:09 
M2      ERN_F2634_NSCR_1989-09-19_RACE_B-ROLL_DESR_PRACTICE_CHARLOTTE_SPEEDWAY_W_KIRK_SHELMERDINE_&_RICHARD_CHILDRESS_89-EV-0477_S004              030.0 00:20:02:12 
*FROM CLIP NAME:  ERN_F2634_NSCR_1989-09-19_RACE B-ROLL DESR PRACTICE CHARLOTTE SPEEDWAY W KIRK SHELMERDINE & RICHARD CHILDRESS_89-EV-0477_S004.NEW.01 
*TO CLIP NAME:  ERN_F2634_NSCR_1989-09-19_RACE B-ROLL DESR PRACTICE CHARLOTTE SPEEDWAY W KIRK SHELMERDINE & RICHARD CHILDRESS_89-EV-0477_S004.NEW.01 
*SOURCE FILE: ERN_F2634_NSCR_1989-09-19_RACE B-ROLL DESR PRACTICE CHARLOTTE SPEEDWAY W KIRK SHELMERDINE & RICHARD CHILDRESS_89-EV-0477_S004
001012  ERN_F2634_NSCR_1989-09-19_RACE_B-ROLL_DESR_PRACTICE_CHARLOTTE_SPEEDWAY_W_KIRK_SHELMERDINE_&_RICHARD_CHILDRESS_89-EV-0477_S004     A18   C        00:20:04:27 00:20:05:05 00:21:52:09 00:21:52:15 
M2      ERN_F2634_NSCR_1989-09-19_RACE_B-ROLL_DESR_PRACTICE_CHARLOTTE_SPEEDWAY_W_KIRK_SHELMERDINE_&_RICHARD_CHILDRESS_89-EV-0477_S004              030.0 00:20:04:27 
*FROM CLIP NAME:  ERN_F2634_NSCR_1989-09-19_RACE B-ROLL DESR PRACTICE CHARLOTTE SPEEDWAY W KIRK SHELMERDINE & RICHARD CHILDRESS_89-EV-0477_S004.NEW.01 
*SOURCE FILE: ERN_F2634_NSCR_1989-09-19_RACE B-ROLL DESR PRACTICE CHARLOTTE SPEEDWAY W KIRK SHELMERDINE & RICHARD CHILDRESS_89-EV-0477_S004
001013  ERN_F2634_NSCR_1989-09-19_RACE_B-ROLL_DESR_PRACTICE_CHARLOTTE_SPEEDWAY_W_KIRK_SHELMERDINE_&_RICHARD_CHILDRESS_89-EV-0477_S004     A18   C        00:20:05:04 00:20:06:20 00:21:52:15 00:21:54:03 
M2      ERN_F2634_NSCR_1989-09-19_RACE_B-ROLL_DESR_PRACTICE_CHARLOTTE_SPEEDWAY_W_KIRK_SHELMERDINE_&_RICHARD_CHILDRESS_89-EV-0477_S004              030.0 00:20:05:04 
*FROM CLIP NAME:  ERN_F2634_NSCR_1989-09-19_RACE B-ROLL DESR PRACTICE CHARLOTTE SPEEDWAY W KIRK SHELMERDINE & RICHARD CHILDRESS_89-EV-0477_S004.NEW.01 
*TO CLIP NAME:  ERN_F2634_NSCR_1989-09-19_RACE B-ROLL DESR PRACTICE CHARLOTTE SPEEDWAY W KIRK SHELMERDINE & RICHARD CHILDRESS_89-EV-0477_S004.NEW.01 
*SOURCE FILE: ERN_F2634_NSCR_1989-09-19_RACE B-ROLL DESR PRACTICE CHARLOTTE SPEEDWAY W KIRK SHELMERDINE & RICHARD CHILDRESS_89-EV-0477_S004
001014  ERN_F2634_NSCR_1989-09-19_RACE_B-ROLL_DESR_PRACTICE_CHARLOTTE_SPEEDWAY_W_KIRK_SHELMERDINE_&_RICHARD_CHILDRESS_89-EV-0477_S004     A18   C        00:20:06:19 00:20:07:00 00:21:54:03 00:21:54:11 
M2      ERN_F2634_NSCR_1989-09-19_RACE_B-ROLL_DESR_PRACTICE_CHARLOTTE_SPEEDWAY_W_KIRK_SHELMERDINE_&_RICHARD_CHILDRESS_89-EV-0477_S004              030.0 00:20:06:19 
*FROM CLIP NAME:  ERN_F2634_NSCR_1989-09-19_RACE B-ROLL DESR PRACTICE CHARLOTTE SPEEDWAY W KIRK SHELMERDINE & RICHARD CHILDRESS_89-EV-0477_S004.NEW.01 
*SOURCE FILE: ERN_F2634_NSCR_1989-09-19_RACE B-ROLL DESR PRACTICE CHARLOTTE SPEEDWAY W KIRK SHELMERDINE & RICHARD CHILDRESS_89-EV-0477_S004
001015  ERN_F2900_NSCR_1989-10-24_RACE_ON_FILM_HOLLY_FARMS_400_N_WILKESBORO-SHOTS_OF_CROWD_PIT_STOPS_&_VICTORY_LANE_1989-NAS-00139_S002   V     C        00:06:07:04 00:06:10:00 00:21:55:22 00:21:58:17 
M2      ERN_F2900_NSCR_1989-10-24_RACE_ON_FILM_HOLLY_FARMS_400_N_WILKESBORO-SHOTS_OF_CROWD_PIT_STOPS_&_VICTORY_LANE_1989-NAS-00139_S002            024.0 00:06:07:04 
*FROM CLIP NAME:  ERN_F2900_NSCR_1989-10-24_RACE ON FILM HOLLY FARMS 400 N WILKESBORO-SHOTS OF CROWD PIT STOPS & VICTORY LANE_1989-NAS-00139_S002.NEW.01 
*SOURCE FILE: ERN_F2900_NSCR_1989-10-24_RACE ON FILM HOLLY FARMS 400 N WILKESBORO-SHOTS OF CROWD PIT STOPS & VICTORY LANE_1989-NAS-00139_S002
001016  ERN_F2939_NSCR_1989-10-08_RACE_&_B-ROLL_ON_FILM_CHARLOTTE_ALL_PRO_AUTOPARTS_DESR_1989-NAS-015891-S001                             V     C        00:00:38:21 00:00:43:12 00:21:58:17 00:22:03:06 
M2      ERN_F2939_NSCR_1989-10-08_RACE_&_B-ROLL_ON_FILM_CHARLOTTE_ALL_PRO_AUTOPARTS_DESR_1989-NAS-015891-S001                                      024.0 00:00:38:21 
*FROM CLIP NAME:  ERN_F2939_NSCR_1989-10-08_RACE & B-ROLL ON FILM CHARLOTTE ALL PRO AUTOPARTS DESR_1989-NAS-015891-S001.NEW.01 
*SOURCE FILE: ERN_F2939_NSCR_1989-10-08_RACE & B-ROLL ON FILM CHARLOTTE ALL PRO AUTOPARTS DESR_1989-NAS-015891-S001
001017  ERN_F9737_NSCR_1988-04-24_RACE_B-ROLL_PANNILL_SWEATSHIRTS_MARTINSVILLE_DESR_WIN_NEIL_BONNETT_ENGINE_FAIL_BILL_ELLIOTT_&_DARRELL_W A18   C        00:07:03:18 00:07:03:24 00:22:02:07 00:22:02:11 
M2      ERN_F9737_NSCR_1988-04-24_RACE_B-ROLL_PANNILL_SWEATSHIRTS_MARTINSVILLE_DESR_WIN_NEIL_BONNETT_ENGINE_FAIL_BILL_ELLIOTT_&_DARRELL_W          030.0 00:07:03:18 
*FROM CLIP NAME:  ERN_F8886_NSCR_1988-04-24_RACE BROADCAST MARTINSVILLE PANNILL SWEATSHIRTS 500 RICHARD CHILDRESS OTF INTV DESR WIN_88-EV-0127A.NEW.01 
*SOURCE FILE: ERN_F9737_NSCR_1988-04-24_RACE B-ROLL PANNILL SWEATSHIRTS MARTINSVILLE DESR WIN NEIL BONNETT ENGINE FAIL BILL ELLIOTT & DARRELL WALTRIP_88-EV-0127A
001018  ERN_F2947_NSCR_1988_COMP_SELECTS-INTV_&_B-ROLL_GEOFF_BODINE_VARIOUS__EARNHARDT298341_14141_BODINE                                 A20   C        00:52:53:18 00:52:55:04 00:22:02:10 00:22:03:22 
M2      ERN_F2947_NSCR_1988_COMP_SELECTS-INTV_&_B-ROLL_GEOFF_BODINE_VARIOUS__EARNHARDT298341_14141_BODINE                                          030.0 00:52:53:18 
*FROM CLIP NAME:  ERN_F2947_NSCR_1988_COMP SELECTS-INTV & B-ROLL GEOFF BODINE VARIOUS _EARNHARDT298341_14141_BODINE.NEW.01 
*SOURCE FILE: ERN_F2947_NSCR_1988_COMP SELECTS-INTV & B-ROLL GEOFF BODINE VARIOUS _EARNHARDT298341_14141_BODINE
001019  ERN_F9737_NSCR_1988-04-24_RACE_B-ROLL_PANNILL_SWEATSHIRTS_MARTINSVILLE_DESR_WIN_NEIL_BONNETT_ENGINE_FAIL_BILL_ELLIOTT_&_DARRELL_W A18   C        00:07:03:23 00:07:05:20 00:22:02:11 00:22:04:08 
M2      ERN_F9737_NSCR_1988-04-24_RACE_B-ROLL_PANNILL_SWEATSHIRTS_MARTINSVILLE_DESR_WIN_NEIL_BONNETT_ENGINE_FAIL_BILL_ELLIOTT_&_DARRELL_W          030.0 00:07:03:23 
*FROM CLIP NAME:  ERN_F8886_NSCR_1988-04-24_RACE BROADCAST MARTINSVILLE PANNILL SWEATSHIRTS 500 RICHARD CHILDRESS OTF INTV DESR WIN_88-EV-0127A.NEW.01 
*SOURCE FILE: ERN_F9737_NSCR_1988-04-24_RACE B-ROLL PANNILL SWEATSHIRTS MARTINSVILLE DESR WIN NEIL BONNETT ENGINE FAIL BILL ELLIOTT & DARRELL WALTRIP_88-EV-0127A
001020  ERN_F8884_NSCR_1988-04-24_RACE_B-ROLL_MARTINSVILLE_PANNILL_SWEATSHIRTS_500_DESR_WIN_ELLIOTT_WALTRIP_WALLACE_BONNETT_88-EV-0126    V     C        00:04:42:20 00:04:45:06 00:22:03:06 00:22:05:18 
M2      ERN_F8884_NSCR_1988-04-24_RACE_B-ROLL_MARTINSVILLE_PANNILL_SWEATSHIRTS_500_DESR_WIN_ELLIOTT_WALTRIP_WALLACE_BONNETT_88-EV-0126             030.0 00:04:42:20 
*FROM CLIP NAME:  ERN_F8884_NSCR_1988-04-24_RACE B-ROLL MARTINSVILLE PANNILL SWEATSHIRTS 500 DESR WIN ELLIOTT WALTRIP WALLACE BONNETT_88-EV-0126.NEW.01 
*SOURCE FILE: ERN_F8884_NSCR_1988-04-24_RACE B-ROLL MARTINSVILLE PANNILL SWEATSHIRTS 500 DESR WIN ELLIOTT WALTRIP WALLACE BONNETT_88-EV-0126
001021  ERN_F2947_NSCR_1988_COMP_SELECTS-INTV_&_B-ROLL_GEOFF_BODINE_VARIOUS__EARNHARDT298341_14141_BODINE                                 A20   C        00:52:55:03 00:52:56:20 00:22:03:22 00:22:05:11 
M2      ERN_F2947_NSCR_1988_COMP_SELECTS-INTV_&_B-ROLL_GEOFF_BODINE_VARIOUS__EARNHARDT298341_14141_BODINE                                          030.0 00:52:55:03 
*FROM CLIP NAME:  ERN_F2947_NSCR_1988_COMP SELECTS-INTV & B-ROLL GEOFF BODINE VARIOUS _EARNHARDT298341_14141_BODINE.NEW.01 
*SOURCE FILE: ERN_F2947_NSCR_1988_COMP SELECTS-INTV & B-ROLL GEOFF BODINE VARIOUS _EARNHARDT298341_14141_BODINE
001022  ERN_F9737_NSCR_1988-04-24_RACE_B-ROLL_PANNILL_SWEATSHIRTS_MARTINSVILLE_DESR_WIN_NEIL_BONNETT_ENGINE_FAIL_BILL_ELLIOTT_&_DARRELL_W A18   C        00:07:07:11 00:07:07:17 00:22:04:12 00:22:04:16 
M2      ERN_F9737_NSCR_1988-04-24_RACE_B-ROLL_PANNILL_SWEATSHIRTS_MARTINSVILLE_DESR_WIN_NEIL_BONNETT_ENGINE_FAIL_BILL_ELLIOTT_&_DARRELL_W          030.0 00:07:07:11 
*FROM CLIP NAME:  ERN_F8886_NSCR_1988-04-24_RACE BROADCAST MARTINSVILLE PANNILL SWEATSHIRTS 500 RICHARD CHILDRESS OTF INTV DESR WIN_88-EV-0127A.NEW.01 
*SOURCE FILE: ERN_F9737_NSCR_1988-04-24_RACE B-ROLL PANNILL SWEATSHIRTS MARTINSVILLE DESR WIN NEIL BONNETT ENGINE FAIL BILL ELLIOTT & DARRELL WALTRIP_88-EV-0127A
001023  ERN_F9737_NSCR_1988-04-24_RACE_B-ROLL_PANNILL_SWEATSHIRTS_MARTINSVILLE_DESR_WIN_NEIL_BONNETT_ENGINE_FAIL_BILL_ELLIOTT_&_DARRELL_W A18   C        00:07:07:16 00:07:09:04 00:22:04:16 00:22:06:06 
M2      ERN_F9737_NSCR_1988-04-24_RACE_B-ROLL_PANNILL_SWEATSHIRTS_MARTINSVILLE_DESR_WIN_NEIL_BONNETT_ENGINE_FAIL_BILL_ELLIOTT_&_DARRELL_W          030.0 00:07:07:16 
*FROM CLIP NAME:  ERN_F8886_NSCR_1988-04-24_RACE BROADCAST MARTINSVILLE PANNILL SWEATSHIRTS 500 RICHARD CHILDRESS OTF INTV DESR WIN_88-EV-0127A.NEW.01 
*SOURCE FILE: ERN_F9737_NSCR_1988-04-24_RACE B-ROLL PANNILL SWEATSHIRTS MARTINSVILLE DESR WIN NEIL BONNETT ENGINE FAIL BILL ELLIOTT & DARRELL WALTRIP_88-EV-0127A
001024  ERN_F2947_NSCR_1988_COMP_SELECTS-INTV_&_B-ROLL_GEOFF_BODINE_VARIOUS__EARNHARDT298341_14141_BODINE                                 A20   C        00:52:53:00 00:52:55:00 00:22:05:11 00:22:07:11 
M2      ERN_F2947_NSCR_1988_COMP_SELECTS-INTV_&_B-ROLL_GEOFF_BODINE_VARIOUS__EARNHARDT298341_14141_BODINE                                          030.0 00:52:53:00 
*FROM CLIP NAME:  ERN_F2947_NSCR_1988_COMP SELECTS-INTV & B-ROLL GEOFF BODINE VARIOUS _EARNHARDT298341_14141_BODINE.NEW.01 
*TO CLIP NAME:  ERN_F2947_NSCR_1988_COMP SELECTS-INTV & B-ROLL GEOFF BODINE VARIOUS _EARNHARDT298341_14141_BODINE.NEW.01 
*SOURCE FILE: ERN_F2947_NSCR_1988_COMP SELECTS-INTV & B-ROLL GEOFF BODINE VARIOUS _EARNHARDT298341_14141_BODINE
001025  ERN_F4214_NSCR_1989-10-15_NORTH_WILKESBORO-HOLLY_FARMS_400_ESPN_RACE_BROADCAST_89-EV-0734                                         A22   C        01:04:06:12 01:04:08:13 00:22:05:18 00:22:07:18 
M2      ERN_F4214_NSCR_1989-10-15_NORTH_WILKESBORO-HOLLY_FARMS_400_ESPN_RACE_BROADCAST_89-EV-0734                                                  030.0 01:04:06:12 
*FROM CLIP NAME:  ERN_F4214_NSCR_1989-10-15_NORTH WILKESBORO-HOLLY FARMS 400 ESPN RACE BROADCAST_89-EV-0734.NEW.01 
*SOURCE FILE: ERN_F4214_NSCR_1989-10-15_NORTH WILKESBORO-HOLLY FARMS 400 ESPN RACE BROADCAST_89-EV-0734
001026  ERN_F9737_NSCR_1988-04-24_RACE_B-ROLL_PANNILL_SWEATSHIRTS_MARTINSVILLE_DESR_WIN_NEIL_BONNETT_ENGINE_FAIL_BILL_ELLIOTT_&_DARRELL_W V     C        00:10:27:05 00:10:31:24 00:22:05:18 00:22:11:12 
M2      ERN_F9737_NSCR_1988-04-24_RACE_B-ROLL_PANNILL_SWEATSHIRTS_MARTINSVILLE_DESR_WIN_NEIL_BONNETT_ENGINE_FAIL_BILL_ELLIOTT_&_DARRELL_W          024.0 00:10:27:05 
*FROM CLIP NAME:  ERN_F8886_NSCR_1988-04-24_RACE BROADCAST MARTINSVILLE PANNILL SWEATSHIRTS 500 RICHARD CHILDRESS OTF INTV DESR WIN_88-EV-0127A.NEW.01 
*SOURCE FILE: ERN_F9737_NSCR_1988-04-24_RACE B-ROLL PANNILL SWEATSHIRTS MARTINSVILLE DESR WIN NEIL BONNETT ENGINE FAIL BILL ELLIOTT & DARRELL WALTRIP_88-EV-0127A
001027  ERN_F2947_NSCR_1988_COMP_SELECTS-INTV_&_B-ROLL_GEOFF_BODINE_VARIOUS__EARNHARDT298341_14141_BODINE                                 A20   C        00:52:55:00 00:52:57:09 00:22:07:11 00:22:09:18 
M2      ERN_F2947_NSCR_1988_COMP_SELECTS-INTV_&_B-ROLL_GEOFF_BODINE_VARIOUS__EARNHARDT298341_14141_BODINE                                          030.0 00:52:55:00 
*FROM CLIP NAME:  ERN_F2947_NSCR_1988_COMP SELECTS-INTV & B-ROLL GEOFF BODINE VARIOUS _EARNHARDT298341_14141_BODINE.NEW.01 
*SOURCE FILE: ERN_F2947_NSCR_1988_COMP SELECTS-INTV & B-ROLL GEOFF BODINE VARIOUS _EARNHARDT298341_14141_BODINE
001028  ERN_F4214_NSCR_1989-10-15_NORTH_WILKESBORO-HOLLY_FARMS_400_ESPN_RACE_BROADCAST_89-EV-0734                                         A22   C        01:04:08:12 01:04:10:26 00:22:07:18 00:22:10:04 
M2      ERN_F4214_NSCR_1989-10-15_NORTH_WILKESBORO-HOLLY_FARMS_400_ESPN_RACE_BROADCAST_89-EV-0734                                                  030.0 01:04:08:12 
*FROM CLIP NAME:  ERN_F4214_NSCR_1989-10-15_NORTH WILKESBORO-HOLLY FARMS 400 ESPN RACE BROADCAST_89-EV-0734.NEW.01 
*SOURCE FILE: ERN_F4214_NSCR_1989-10-15_NORTH WILKESBORO-HOLLY FARMS 400 ESPN RACE BROADCAST_89-EV-0734
001029  ERN_F1943_NSCR_1982-08-01_MISC_B-ROLL_AND_SOUND_BITES_RICHARD_CHILDRESS__82-EV-0023                                               A22   C        00:29:30:10 00:29:31:26 00:22:10:04 00:22:11:16 
M2      ERN_F1943_NSCR_1982-08-01_MISC_B-ROLL_AND_SOUND_BITES_RICHARD_CHILDRESS__82-EV-0023                                                        030.0 00:29:30:10 
*FROM CLIP NAME:  ERN_F1943_NSCR_1982-08-01_MISC B-ROLL AND SOUND B.SUB.03 
*TO CLIP NAME:  ERN_F4214_NSCR_1989-10-15_NORTH WILKESBORO-HOLLY FARMS 400 ESPN RACE BROADCAST_89-EV-0734.NEW.01 
*SOURCE FILE: ERN_F1943_NSCR_1982-08-01_MISC B-ROLL AND SOUND BITES RICHARD CHILDRESS _82-EV-0023
001030  ERN_F1943_NSCR_1982-08-01_MISC_B-ROLL_AND_SOUND_BITES_RICHARD_CHILDRESS__82-EV-0023                                               V     C        00:29:31:20 00:29:38:21 00:22:11:12 00:22:18:12 
M2      ERN_F1943_NSCR_1982-08-01_MISC_B-ROLL_AND_SOUND_BITES_RICHARD_CHILDRESS__82-EV-0023                                                        030.0 00:29:31:20 
*FROM CLIP NAME:  ERN_F1943_NSCR_1982-08-01_MISC B-ROLL AND SOUND B.SUB.03 
*SOURCE FILE: ERN_F1943_NSCR_1982-08-01_MISC B-ROLL AND SOUND BITES RICHARD CHILDRESS _82-EV-0023
001031  ERN_F1943_NSCR_1982-08-01_MISC_B-ROLL_AND_SOUND_BITES_RICHARD_CHILDRESS__82-EV-0023                                               A22   C        00:29:31:25 00:29:37:25 00:22:11:16 00:22:17:15 
M2      ERN_F1943_NSCR_1982-08-01_MISC_B-ROLL_AND_SOUND_BITES_RICHARD_CHILDRESS__82-EV-0023                                                        030.0 00:29:31:25 
*FROM CLIP NAME:  ERN_F1943_NSCR_1982-08-01_MISC B-ROLL AND SOUND B.SUB.03 
*SOURCE FILE: ERN_F1943_NSCR_1982-08-01_MISC B-ROLL AND SOUND BITES RICHARD CHILDRESS _82-EV-0023
001032  ERN_F4214_NSCR_1989-10-15_NORTH_WILKESBORO-HOLLY_FARMS_400_ESPN_RACE_BROADCAST_89-EV-0734                                         A24   C        01:04:07:00 01:04:09:01 00:22:20:06 00:22:22:06 
M2      ERN_F4214_NSCR_1989-10-15_NORTH_WILKESBORO-HOLLY_FARMS_400_ESPN_RACE_BROADCAST_89-EV-0734                                                  030.0 01:04:07:00 
*FROM CLIP NAME:  ERN_F4214_NSCR_1989-10-15_NORTH WILKESBORO-HOLLY FARMS 400 ESPN RACE BROADCAST_89-EV-0734.NEW.01 
*SOURCE FILE: ERN_F4214_NSCR_1989-10-15_NORTH WILKESBORO-HOLLY FARMS 400 ESPN RACE BROADCAST_89-EV-0734
001033  ERN_F4214_NSCR_1989-10-15_NORTH_WILKESBORO-HOLLY_FARMS_400_ESPN_RACE_BROADCAST_89-EV-0734                                         V     C        01:03:39:21 01:03:44:15 00:22:20:21 00:22:26:20 
M2      ERN_F4214_NSCR_1989-10-15_NORTH_WILKESBORO-HOLLY_FARMS_400_ESPN_RACE_BROADCAST_89-EV-0734                                                  024.0 01:03:39:21 
*FROM CLIP NAME:  ERN_F4214_NSCR_1989-10-15_NORTH WILKESBORO-HOLLY FARMS 400 ESPN RACE BROADCAST_89-EV-0734.NEW.01 
*SOURCE FILE: ERN_F4214_NSCR_1989-10-15_NORTH WILKESBORO-HOLLY FARMS 400 ESPN RACE BROADCAST_89-EV-0734
001034  ERN_F4214_NSCR_1989-10-15_NORTH_WILKESBORO-HOLLY_FARMS_400_ESPN_RACE_BROADCAST_89-EV-0734                                         A24   C        01:04:09:00 01:04:15:02 00:22:22:06 00:22:28:07 
M2      ERN_F4214_NSCR_1989-10-15_NORTH_WILKESBORO-HOLLY_FARMS_400_ESPN_RACE_BROADCAST_89-EV-0734                                                  030.0 01:04:09:00 
*FROM CLIP NAME:  ERN_F4214_NSCR_1989-10-15_NORTH WILKESBORO-HOLLY FARMS 400 ESPN RACE BROADCAST_89-EV-0734.NEW.01 
*SOURCE FILE: ERN_F4214_NSCR_1989-10-15_NORTH WILKESBORO-HOLLY FARMS 400 ESPN RACE BROADCAST_89-EV-0734
001035  ERN_F3678_NSCR_1987-11-11_PART_1_RACE_BROADCAST_RIVERSIDE_WINSTON_WESTERN_500_DESR_KEN_SQUIER_87-EV-0288                          A18   C        23:39:58:00 23:39:58:13 00:22:24:11 00:22:24:21 
M2      ERN_F3678_NSCR_1987-11-11_PART_1_RACE_BROADCAST_RIVERSIDE_WINSTON_WESTERN_500_DESR_KEN_SQUIER_87-EV-0288                                   030.0 23:39:58:00 
*FROM CLIP NAME:  ERN_F3678_NSCR_1987-11-08_PART 1 RACE BROADCAST RIVERSIDE WINSTON WESTERN 500 DESR KEN SQUIER_87-EV-0288.NEW.01 
*SOURCE FILE: ERN_F3678_NSCR_1987-11-11_PART 1 RACE BROADCAST RIVERSIDE WINSTON WESTERN 500 DESR KEN SQUIER_87-EV-0288
001036  ERN_F3678_NSCR_1987-11-11_PART_1_RACE_BROADCAST_RIVERSIDE_WINSTON_WESTERN_500_DESR_KEN_SQUIER_87-EV-0288                          A18   C        23:39:58:13 23:40:01:08 00:22:24:21 00:22:27:17 
M2      ERN_F3678_NSCR_1987-11-11_PART_1_RACE_BROADCAST_RIVERSIDE_WINSTON_WESTERN_500_DESR_KEN_SQUIER_87-EV-0288                                   030.0 23:39:58:13 
*FROM CLIP NAME:  ERN_F3678_NSCR_1987-11-08_PART 1 RACE BROADCAST RIVERSIDE WINSTON WESTERN 500 DESR KEN SQUIER_87-EV-0288.NEW.01 
*SOURCE FILE: ERN_F3678_NSCR_1987-11-11_PART 1 RACE BROADCAST RIVERSIDE WINSTON WESTERN 500 DESR KEN SQUIER_87-EV-0288
001037  ERN_F3678_NSCR_1987-11-11_PART_1_RACE_BROADCAST_RIVERSIDE_WINSTON_WESTERN_500_DESR_KEN_SQUIER_87-EV-0288                          V     C        23:40:00:10 23:40:01:17 00:22:26:20 00:22:28:03 
M2      ERN_F3678_NSCR_1987-11-11_PART_1_RACE_BROADCAST_RIVERSIDE_WINSTON_WESTERN_500_DESR_KEN_SQUIER_87-EV-0288                                   028.1 23:40:00:10 
*FROM CLIP NAME:  ERN_F3678_NSCR_1987-11-08_PART 1 RACE BROADCAST RIVERSIDE WINSTON WESTERN 500 DESR KEN SQUIER_87-EV-0288.NEW.01 
*SOURCE FILE: ERN_F3678_NSCR_1987-11-11_PART 1 RACE BROADCAST RIVERSIDE WINSTON WESTERN 500 DESR KEN SQUIER_87-EV-0288
001038  ERN_F4284_NSCR_1989-10-15_RACE_BROADCAST_NORTH_WILKESBORO_HOLLY_FARMS_400_89-EV-0736                                              A22   C        01:20:42:16 01:20:44:02 00:22:27:10 00:22:28:22 
M2      ERN_F4284_NSCR_1989-10-15_RACE_BROADCAST_NORTH_WILKESBORO_HOLLY_FARMS_400_89-EV-0736                                                       030.0 01:20:42:16 
*FROM CLIP NAME:  ERN_F4215_NSCR_1989-10-15_NORTH WILKESBORO-HOLLY FARMS 400 ESPN RACE BROADCAST_89-EV-0736.NEW.01 
*SOURCE FILE: ERN_F4284_NSCR_1989-10-15_RACE BROADCAST NORTH WILKESBORO HOLLY FARMS 400_89-EV-0736
001039  ERN_F4284_NSCR_1989-10-15_RACE_BROADCAST_NORTH_WILKESBORO_HOLLY_FARMS_400_89-EV-0736                                              V     C        01:21:23:13 01:21:30:05 00:22:28:03 00:22:34:20 
M2      ERN_F4284_NSCR_1989-10-15_RACE_BROADCAST_NORTH_WILKESBORO_HOLLY_FARMS_400_89-EV-0736                                                       030.0 01:21:23:13 
*FROM CLIP NAME:  ERN_F4215_NSCR_1989-10-15_NORTH WILKESBORO-HOLLY FARMS 400 ESPN RACE BROADCAST_89-EV-0736.NEW.01 
*SOURCE FILE: ERN_F4284_NSCR_1989-10-15_RACE BROADCAST NORTH WILKESBORO HOLLY FARMS 400_89-EV-0736
001040  ERN_F4284_NSCR_1989-10-15_RACE_BROADCAST_NORTH_WILKESBORO_HOLLY_FARMS_400_89-EV-0736                                              A22   C        01:20:44:01 01:20:47:28 00:22:28:22 00:22:32:19 
M2      ERN_F4284_NSCR_1989-10-15_RACE_BROADCAST_NORTH_WILKESBORO_HOLLY_FARMS_400_89-EV-0736                                                       030.0 01:20:44:01 
*FROM CLIP NAME:  ERN_F4215_NSCR_1989-10-15_NORTH WILKESBORO-HOLLY FARMS 400 ESPN RACE BROADCAST_89-EV-0736.NEW.01 
*SOURCE FILE: ERN_F4284_NSCR_1989-10-15_RACE BROADCAST NORTH WILKESBORO HOLLY FARMS 400_89-EV-0736
001041  ERN_F4284_NSCR_1989-10-15_RACE_BROADCAST_NORTH_WILKESBORO_HOLLY_FARMS_400_89-EV-0736                                              A20   C        01:20:43:02 01:20:44:18 00:22:28:23 00:22:30:11 
M2      ERN_F4284_NSCR_1989-10-15_RACE_BROADCAST_NORTH_WILKESBORO_HOLLY_FARMS_400_89-EV-0736                                                       030.0 01:20:43:02 
*FROM CLIP NAME:  ERN_F4215_NSCR_1989-10-15_NORTH WILKESBORO-HOLLY FARMS 400 ESPN RACE BROADCAST_89-EV-0736.NEW.01 
*SOURCE FILE: ERN_F4284_NSCR_1989-10-15_RACE BROADCAST NORTH WILKESBORO HOLLY FARMS 400_89-EV-0736
001042  ERN_F4284_NSCR_1989-10-15_RACE_BROADCAST_NORTH_WILKESBORO_HOLLY_FARMS_400_89-EV-0736                                              A20   C        01:20:44:17 01:20:47:28 00:22:30:11 00:22:33:19 
M2      ERN_F4284_NSCR_1989-10-15_RACE_BROADCAST_NORTH_WILKESBORO_HOLLY_FARMS_400_89-EV-0736                                                       030.0 01:20:44:17 
*FROM CLIP NAME:  ERN_F4215_NSCR_1989-10-15_NORTH WILKESBORO-HOLLY FARMS 400 ESPN RACE BROADCAST_89-EV-0736.NEW.01 
*SOURCE FILE: ERN_F4284_NSCR_1989-10-15_RACE BROADCAST NORTH WILKESBORO HOLLY FARMS 400_89-EV-0736
001043  ERN_F4284_NSCR_1989-10-15_RACE_BROADCAST_NORTH_WILKESBORO_HOLLY_FARMS_400_89-EV-0736                                              A22   C        01:20:49:01 01:20:49:04 00:22:32:19 00:22:32:21 
M2      ERN_F4284_NSCR_1989-10-15_RACE_BROADCAST_NORTH_WILKESBORO_HOLLY_FARMS_400_89-EV-0736                                                       030.0 01:20:49:01 
*FROM CLIP NAME:  ERN_F4215_NSCR_1989-10-15_NORTH WILKESBORO-HOLLY FARMS 400 ESPN RACE BROADCAST_89-EV-0736.NEW.01 
*TO CLIP NAME:  ERN_F4215_NSCR_1989-10-15_NORTH WILKESBORO-HOLLY FARMS 400 ESPN RACE BROADCAST_89-EV-0736.NEW.01 
*SOURCE FILE: ERN_F4284_NSCR_1989-10-15_RACE BROADCAST NORTH WILKESBORO HOLLY FARMS 400_89-EV-0736
001044  ERN_F4284_NSCR_1989-10-15_RACE_BROADCAST_NORTH_WILKESBORO_HOLLY_FARMS_400_89-EV-0736                                              A22   C        01:20:49:04 01:20:55:14 00:22:32:21 00:22:39:05 
M2      ERN_F4284_NSCR_1989-10-15_RACE_BROADCAST_NORTH_WILKESBORO_HOLLY_FARMS_400_89-EV-0736                                                       030.0 01:20:49:04 
*FROM CLIP NAME:  ERN_F4215_NSCR_1989-10-15_NORTH WILKESBORO-HOLLY FARMS 400 ESPN RACE BROADCAST_89-EV-0736.NEW.01 
*SOURCE FILE: ERN_F4284_NSCR_1989-10-15_RACE BROADCAST NORTH WILKESBORO HOLLY FARMS 400_89-EV-0736
001045  ERN_F4284_NSCR_1989-10-15_RACE_BROADCAST_NORTH_WILKESBORO_HOLLY_FARMS_400_89-EV-0736                                              A20   C        01:20:49:01 01:20:49:04 00:22:33:19 00:22:33:21 
M2      ERN_F4284_NSCR_1989-10-15_RACE_BROADCAST_NORTH_WILKESBORO_HOLLY_FARMS_400_89-EV-0736                                                       030.0 01:20:49:01 
*FROM CLIP NAME:  ERN_F4215_NSCR_1989-10-15_NORTH WILKESBORO-HOLLY FARMS 400 ESPN RACE BROADCAST_89-EV-0736.NEW.01 
*TO CLIP NAME:  ERN_F4215_NSCR_1989-10-15_NORTH WILKESBORO-HOLLY FARMS 400 ESPN RACE BROADCAST_89-EV-0736.NEW.01 
*SOURCE FILE: ERN_F4284_NSCR_1989-10-15_RACE BROADCAST NORTH WILKESBORO HOLLY FARMS 400_89-EV-0736
001046  ERN_F4284_NSCR_1989-10-15_RACE_BROADCAST_NORTH_WILKESBORO_HOLLY_FARMS_400_89-EV-0736                                              A20   C        01:20:49:04 01:20:55:11 00:22:33:21 00:22:40:02 
M2      ERN_F4284_NSCR_1989-10-15_RACE_BROADCAST_NORTH_WILKESBORO_HOLLY_FARMS_400_89-EV-0736                                                       030.0 01:20:49:04 
*FROM CLIP NAME:  ERN_F4215_NSCR_1989-10-15_NORTH WILKESBORO-HOLLY FARMS 400 ESPN RACE BROADCAST_89-EV-0736.NEW.01 
*SOURCE FILE: ERN_F4284_NSCR_1989-10-15_RACE BROADCAST NORTH WILKESBORO HOLLY FARMS 400_89-EV-0736
001047  ERN_F4284_NSCR_1989-10-15_RACE_BROADCAST_NORTH_WILKESBORO_HOLLY_FARMS_400_89-EV-0736                                              V     C        01:20:53:04 01:20:59:11 00:22:34:20 00:22:41:01 
M2      ERN_F4284_NSCR_1989-10-15_RACE_BROADCAST_NORTH_WILKESBORO_HOLLY_FARMS_400_89-EV-0736                                                       030.0 01:20:53:04 
*FROM CLIP NAME:  ERN_F4215_NSCR_1989-10-15_NORTH WILKESBORO-HOLLY FARMS 400 ESPN RACE BROADCAST_89-EV-0736.NEW.01 
*SOURCE FILE: ERN_F4284_NSCR_1989-10-15_RACE BROADCAST NORTH WILKESBORO HOLLY FARMS 400_89-EV-0736
001048  ERN_F4284_NSCR_1989-10-15_RACE_BROADCAST_NORTH_WILKESBORO_HOLLY_FARMS_400_89-EV-0736                                              A22   C        01:22:37:21 01:22:39:22 00:22:39:05 00:22:41:05 
M2      ERN_F4284_NSCR_1989-10-15_RACE_BROADCAST_NORTH_WILKESBORO_HOLLY_FARMS_400_89-EV-0736                                                       030.0 01:22:37:21 
*FROM CLIP NAME:  ERN_F4215_NSCR_1989-10-15_NORTH WILKESBORO-HOLLY FARMS 400 ESPN RACE BROADCAST_89-EV-0736.NEW.01 
*TO CLIP NAME:  ERN_F4215_NSCR_1989-10-15_NORTH WILKESBORO-HOLLY FARMS 400 ESPN RACE BROADCAST_89-EV-0736.NEW.01 
*SOURCE FILE: ERN_F4284_NSCR_1989-10-15_RACE BROADCAST NORTH WILKESBORO HOLLY FARMS 400_89-EV-0736
001049  ERN_F4284_NSCR_1989-10-15_RACE_BROADCAST_NORTH_WILKESBORO_HOLLY_FARMS_400_89-EV-0736                                              A20   C        01:22:39:06 01:22:39:22 00:22:40:17 00:22:41:05 
M2      ERN_F4284_NSCR_1989-10-15_RACE_BROADCAST_NORTH_WILKESBORO_HOLLY_FARMS_400_89-EV-0736                                                       030.0 01:22:39:06 
*FROM CLIP NAME:  ERN_F4215_NSCR_1989-10-15_NORTH WILKESBORO-HOLLY FARMS 400 ESPN RACE BROADCAST_89-EV-0736.NEW.01 
*SOURCE FILE: ERN_F4284_NSCR_1989-10-15_RACE BROADCAST NORTH WILKESBORO HOLLY FARMS 400_89-EV-0736
001050  ERN_F4284_NSCR_1989-10-15_RACE_BROADCAST_NORTH_WILKESBORO_HOLLY_FARMS_400_89-EV-0736                                              V     C        01:22:39:16 01:22:43:20 00:22:41:01 00:22:45:03 
M2      ERN_F4284_NSCR_1989-10-15_RACE_BROADCAST_NORTH_WILKESBORO_HOLLY_FARMS_400_89-EV-0736                                                       030.0 01:22:39:16 
*FROM CLIP NAME:  ERN_F4215_NSCR_1989-10-15_NORTH WILKESBORO-HOLLY FARMS 400 ESPN RACE BROADCAST_89-EV-0736.NEW.01 
*SOURCE FILE: ERN_F4284_NSCR_1989-10-15_RACE BROADCAST NORTH WILKESBORO HOLLY FARMS 400_89-EV-0736
001051  ERN_F4284_NSCR_1989-10-15_RACE_BROADCAST_NORTH_WILKESBORO_HOLLY_FARMS_400_89-EV-0736                                              A20   C        01:22:39:21 01:22:43:11 00:22:41:05 00:22:44:20 
M2      ERN_F4284_NSCR_1989-10-15_RACE_BROADCAST_NORTH_WILKESBORO_HOLLY_FARMS_400_89-EV-0736                                                       030.0 01:22:39:21 
*FROM CLIP NAME:  ERN_F4215_NSCR_1989-10-15_NORTH WILKESBORO-HOLLY FARMS 400 ESPN RACE BROADCAST_89-EV-0736.NEW.01 
*SOURCE FILE: ERN_F4284_NSCR_1989-10-15_RACE BROADCAST NORTH WILKESBORO HOLLY FARMS 400_89-EV-0736
001052  ERN_F4284_NSCR_1989-10-15_RACE_BROADCAST_NORTH_WILKESBORO_HOLLY_FARMS_400_89-EV-0736                                              A22   C        01:22:39:21 01:22:43:16 00:22:41:05 00:22:45:00 
M2      ERN_F4284_NSCR_1989-10-15_RACE_BROADCAST_NORTH_WILKESBORO_HOLLY_FARMS_400_89-EV-0736                                                       030.0 01:22:39:21 
*FROM CLIP NAME:  ERN_F4215_NSCR_1989-10-15_NORTH WILKESBORO-HOLLY FARMS 400 ESPN RACE BROADCAST_89-EV-0736.NEW.01 
*SOURCE FILE: ERN_F4284_NSCR_1989-10-15_RACE BROADCAST NORTH WILKESBORO HOLLY FARMS 400_89-EV-0736
001053  ERN_F4214_NSCR_1989-10-15_NORTH_WILKESBORO-HOLLY_FARMS_400_ESPN_RACE_BROADCAST_89-EV-0734                                         A24   C        01:29:03:23 01:29:04:09 00:22:44:21 00:22:45:09 
M2      ERN_F4214_NSCR_1989-10-15_NORTH_WILKESBORO-HOLLY_FARMS_400_ESPN_RACE_BROADCAST_89-EV-0734                                                  030.0 01:29:03:23 
*FROM CLIP NAME:  ERN_F4214_NSCR_1989-10-15_NORTH WILKESBORO-HOLLY FARMS 400 ESPN RACE BROADCAST_89-EV-0734.NEW.01 
*SOURCE FILE: ERN_F4214_NSCR_1989-10-15_NORTH WILKESBORO-HOLLY FARMS 400 ESPN RACE BROADCAST_89-EV-0734
001054  ERN_F4214_NSCR_1989-10-15_NORTH_WILKESBORO-HOLLY_FARMS_400_ESPN_RACE_BROADCAST_89-EV-0734                                         V     C        01:29:03:20 01:29:09:09 00:22:45:03 00:22:50:18 
M2      ERN_F4214_NSCR_1989-10-15_NORTH_WILKESBORO-HOLLY_FARMS_400_ESPN_RACE_BROADCAST_89-EV-0734                                                  030.0 01:29:03:20 
*FROM CLIP NAME:  ERN_F4214_NSCR_1989-10-15_NORTH WILKESBORO-HOLLY FARMS 400 ESPN RACE BROADCAST_89-EV-0734.NEW.01 
*SOURCE FILE: ERN_F4214_NSCR_1989-10-15_NORTH WILKESBORO-HOLLY FARMS 400 ESPN RACE BROADCAST_89-EV-0734
001055  ERN_F4214_NSCR_1989-10-15_NORTH_WILKESBORO-HOLLY_FARMS_400_ESPN_RACE_BROADCAST_89-EV-0734                                         A24   C        01:29:04:08 01:29:05:05 00:22:45:09 00:22:46:06 
M2      ERN_F4214_NSCR_1989-10-15_NORTH_WILKESBORO-HOLLY_FARMS_400_ESPN_RACE_BROADCAST_89-EV-0734                                                  030.0 01:29:04:08 
*FROM CLIP NAME:  ERN_F4214_NSCR_1989-10-15_NORTH WILKESBORO-HOLLY FARMS 400 ESPN RACE BROADCAST_89-EV-0734.NEW.01 
*SOURCE FILE: ERN_F4214_NSCR_1989-10-15_NORTH WILKESBORO-HOLLY FARMS 400 ESPN RACE BROADCAST_89-EV-0734
001056  ERN_F4214_NSCR_1989-10-15_NORTH_WILKESBORO-HOLLY_FARMS_400_ESPN_RACE_BROADCAST_89-EV-0734                                         A18   C        01:29:01:28 01:29:02:29 00:22:46:02 00:22:47:02 
M2      ERN_F4214_NSCR_1989-10-15_NORTH_WILKESBORO-HOLLY_FARMS_400_ESPN_RACE_BROADCAST_89-EV-0734                                                  030.0 01:29:01:28 
*FROM CLIP NAME:  ERN_F4214_NSCR_1989-10-15_NORTH WILKESBORO-HOLLY FARMS 400 ESPN RACE BROADCAST_89-EV-0734.NEW.01 
*SOURCE FILE: ERN_F4214_NSCR_1989-10-15_NORTH WILKESBORO-HOLLY FARMS 400 ESPN RACE BROADCAST_89-EV-0734
001057  ERN_F4214_NSCR_1989-10-15_NORTH_WILKESBORO-HOLLY_FARMS_400_ESPN_RACE_BROADCAST_89-EV-0734                                         A24   C        01:29:05:05 01:29:06:05 00:22:46:06 00:22:47:06 
M2      ERN_F4214_NSCR_1989-10-15_NORTH_WILKESBORO-HOLLY_FARMS_400_ESPN_RACE_BROADCAST_89-EV-0734                                                  030.0 01:29:05:05 
*FROM CLIP NAME:  ERN_F4214_NSCR_1989-10-15_NORTH WILKESBORO-HOLLY FARMS 400 ESPN RACE BROADCAST_89-EV-0734.NEW.01 
*TO CLIP NAME:  ERN_F4214_NSCR_1989-10-15_NORTH WILKESBORO-HOLLY FARMS 400 ESPN RACE BROADCAST_89-EV-0734.NEW.01 
*SOURCE FILE: ERN_F4214_NSCR_1989-10-15_NORTH WILKESBORO-HOLLY FARMS 400 ESPN RACE BROADCAST_89-EV-0734
001058  ERN_F4214_NSCR_1989-10-15_NORTH_WILKESBORO-HOLLY_FARMS_400_ESPN_RACE_BROADCAST_89-EV-0734                                         A18   C        01:29:02:28 01:29:05:09 00:22:47:02 00:22:49:10 
M2      ERN_F4214_NSCR_1989-10-15_NORTH_WILKESBORO-HOLLY_FARMS_400_ESPN_RACE_BROADCAST_89-EV-0734                                                  030.0 01:29:02:28 
*FROM CLIP NAME:  ERN_F4214_NSCR_1989-10-15_NORTH WILKESBORO-HOLLY FARMS 400 ESPN RACE BROADCAST_89-EV-0734.NEW.01 
*SOURCE FILE: ERN_F4214_NSCR_1989-10-15_NORTH WILKESBORO-HOLLY FARMS 400 ESPN RACE BROADCAST_89-EV-0734
001059  ERN_F4214_NSCR_1989-10-15_NORTH_WILKESBORO-HOLLY_FARMS_400_ESPN_RACE_BROADCAST_89-EV-0734                                         A24   C        01:29:06:05 01:29:07:08 00:22:47:06 00:22:48:08 
M2      ERN_F4214_NSCR_1989-10-15_NORTH_WILKESBORO-HOLLY_FARMS_400_ESPN_RACE_BROADCAST_89-EV-0734                                                  030.0 01:29:06:05 
*FROM CLIP NAME:  ERN_F4214_NSCR_1989-10-15_NORTH WILKESBORO-HOLLY FARMS 400 ESPN RACE BROADCAST_89-EV-0734.NEW.01 
*SOURCE FILE: ERN_F4214_NSCR_1989-10-15_NORTH WILKESBORO-HOLLY FARMS 400 ESPN RACE BROADCAST_89-EV-0734
001060  ERN_F4214_NSCR_1989-10-15_NORTH_WILKESBORO-HOLLY_FARMS_400_ESPN_RACE_BROADCAST_89-EV-0734                                         A24   C        01:29:07:07 01:29:08:08 00:22:48:08 00:22:49:08 
M2      ERN_F4214_NSCR_1989-10-15_NORTH_WILKESBORO-HOLLY_FARMS_400_ESPN_RACE_BROADCAST_89-EV-0734                                                  030.0 01:29:07:07 
*FROM CLIP NAME:  ERN_F4214_NSCR_1989-10-15_NORTH WILKESBORO-HOLLY FARMS 400 ESPN RACE BROADCAST_89-EV-0734.NEW.01 
*TO CLIP NAME:  ERN_F4214_NSCR_1989-10-15_NORTH WILKESBORO-HOLLY FARMS 400 ESPN RACE BROADCAST_89-EV-0734.NEW.01 
*SOURCE FILE: ERN_F4214_NSCR_1989-10-15_NORTH WILKESBORO-HOLLY FARMS 400 ESPN RACE BROADCAST_89-EV-0734
001061  ERN_F4214_NSCR_1989-10-15_NORTH_WILKESBORO-HOLLY_FARMS_400_ESPN_RACE_BROADCAST_89-EV-0734                                         A24   C        01:29:08:07 01:29:08:28 00:22:49:08 00:22:50:00 
M2      ERN_F4214_NSCR_1989-10-15_NORTH_WILKESBORO-HOLLY_FARMS_400_ESPN_RACE_BROADCAST_89-EV-0734                                                  030.0 01:29:08:07 
*FROM CLIP NAME:  ERN_F4214_NSCR_1989-10-15_NORTH WILKESBORO-HOLLY FARMS 400 ESPN RACE BROADCAST_89-EV-0734.NEW.01 
*SOURCE FILE: ERN_F4214_NSCR_1989-10-15_NORTH WILKESBORO-HOLLY FARMS 400 ESPN RACE BROADCAST_89-EV-0734
001062  ERN_F4284_NSCR_1989-10-15_RACE_BROADCAST_NORTH_WILKESBORO_HOLLY_FARMS_400_89-EV-0736                                              A22   C        01:22:44:16 01:22:46:02 00:22:49:14 00:22:51:02 
M2      ERN_F4284_NSCR_1989-10-15_RACE_BROADCAST_NORTH_WILKESBORO_HOLLY_FARMS_400_89-EV-0736                                                       030.0 01:22:44:16 
*FROM CLIP NAME:  ERN_F4215_NSCR_1989-10-15_NORTH WILKESBORO-HOLLY FARMS 400 ESPN RACE BROADCAST_89-EV-0736.NEW.01 
*SOURCE FILE: ERN_F4284_NSCR_1989-10-15_RACE BROADCAST NORTH WILKESBORO HOLLY FARMS 400_89-EV-0736
001063  ERN_F4284_NSCR_1989-10-15_RACE_BROADCAST_NORTH_WILKESBORO_HOLLY_FARMS_400_89-EV-0736                                              A18   C        01:23:06:17 01:23:07:03 00:22:49:17 00:22:50:05 
M2      ERN_F4284_NSCR_1989-10-15_RACE_BROADCAST_NORTH_WILKESBORO_HOLLY_FARMS_400_89-EV-0736                                                       030.0 01:23:06:17 
*FROM CLIP NAME:  ERN_F4215_NSCR_1989-10-15_NORTH WILKESBORO-HOLLY FARMS 400 ESPN RACE BROADCAST_89-EV-0736.NEW.01 
*SOURCE FILE: ERN_F4284_NSCR_1989-10-15_RACE BROADCAST NORTH WILKESBORO HOLLY FARMS 400_89-EV-0736
001064  ERN_F4284_NSCR_1989-10-15_RACE_BROADCAST_NORTH_WILKESBORO_HOLLY_FARMS_400_89-EV-0736                                              A18   C        01:23:07:02 01:23:08:03 00:22:50:05 00:22:51:05 
M2      ERN_F4284_NSCR_1989-10-15_RACE_BROADCAST_NORTH_WILKESBORO_HOLLY_FARMS_400_89-EV-0736                                                       030.0 01:23:07:02 
*FROM CLIP NAME:  ERN_F4215_NSCR_1989-10-15_NORTH WILKESBORO-HOLLY FARMS 400 ESPN RACE BROADCAST_89-EV-0736.NEW.01 
*SOURCE FILE: ERN_F4284_NSCR_1989-10-15_RACE BROADCAST NORTH WILKESBORO HOLLY FARMS 400_89-EV-0736
001065  ERN_F4284_NSCR_1989-10-15_RACE_BROADCAST_NORTH_WILKESBORO_HOLLY_FARMS_400_89-EV-0736                                              V     C        01:22:45:21 01:22:51:00 00:22:50:18 00:22:56:00 
M2      ERN_F4284_NSCR_1989-10-15_RACE_BROADCAST_NORTH_WILKESBORO_HOLLY_FARMS_400_89-EV-0736                                                       030.0 01:22:45:21 
*FROM CLIP NAME:  ERN_F4215_NSCR_1989-10-15_NORTH WILKESBORO-HOLLY FARMS 400 ESPN RACE BROADCAST_89-EV-0736.NEW.01 
*SOURCE FILE: ERN_F4284_NSCR_1989-10-15_RACE BROADCAST NORTH WILKESBORO HOLLY FARMS 400_89-EV-0736
001066  ERN_F4284_NSCR_1989-10-15_RACE_BROADCAST_NORTH_WILKESBORO_HOLLY_FARMS_400_89-EV-0736                                              A22   C        01:22:46:01 01:22:47:26 00:22:51:02 00:22:52:21 
M2      ERN_F4284_NSCR_1989-10-15_RACE_BROADCAST_NORTH_WILKESBORO_HOLLY_FARMS_400_89-EV-0736                                                       030.0 01:22:46:01 
*FROM CLIP NAME:  ERN_F4215_NSCR_1989-10-15_NORTH WILKESBORO-HOLLY FARMS 400 ESPN RACE BROADCAST_89-EV-0736.NEW.01 
*SOURCE FILE: ERN_F4284_NSCR_1989-10-15_RACE BROADCAST NORTH WILKESBORO HOLLY FARMS 400_89-EV-0736
001067  ERN_F4284_NSCR_1989-10-15_RACE_BROADCAST_NORTH_WILKESBORO_HOLLY_FARMS_400_89-EV-0736                                              A20   C        01:22:49:10 01:22:50:21 00:22:52:03 00:22:53:11 
M2      ERN_F4284_NSCR_1989-10-15_RACE_BROADCAST_NORTH_WILKESBORO_HOLLY_FARMS_400_89-EV-0736                                                       030.0 01:22:49:10 
*FROM CLIP NAME:  ERN_F4215_NSCR_1989-10-15_NORTH WILKESBORO-HOLLY FARMS 400 ESPN RACE BROADCAST_89-EV-0736.NEW.01 
*SOURCE FILE: ERN_F4284_NSCR_1989-10-15_RACE BROADCAST NORTH WILKESBORO HOLLY FARMS 400_89-EV-0736
001068  ERN_F4284_NSCR_1989-10-15_RACE_BROADCAST_NORTH_WILKESBORO_HOLLY_FARMS_400_89-EV-0736                                              A22   C        01:22:48:10 01:22:48:26 00:22:52:21 00:22:53:09 
M2      ERN_F4284_NSCR_1989-10-15_RACE_BROADCAST_NORTH_WILKESBORO_HOLLY_FARMS_400_89-EV-0736                                                       030.0 01:22:48:10 
*FROM CLIP NAME:  ERN_F4215_NSCR_1989-10-15_NORTH WILKESBORO-HOLLY FARMS 400 ESPN RACE BROADCAST_89-EV-0736.NEW.01 
*TO CLIP NAME:  ERN_F4215_NSCR_1989-10-15_NORTH WILKESBORO-HOLLY FARMS 400 ESPN RACE BROADCAST_89-EV-0736.NEW.01 
*SOURCE FILE: ERN_F4284_NSCR_1989-10-15_RACE BROADCAST NORTH WILKESBORO HOLLY FARMS 400_89-EV-0736
001069  ERN_F4284_NSCR_1989-10-15_RACE_BROADCAST_NORTH_WILKESBORO_HOLLY_FARMS_400_89-EV-0736                                              A22   C        01:22:48:25 01:22:50:18 00:22:53:09 00:22:55:03 
M2      ERN_F4284_NSCR_1989-10-15_RACE_BROADCAST_NORTH_WILKESBORO_HOLLY_FARMS_400_89-EV-0736                                                       030.0 01:22:48:25 
*FROM CLIP NAME:  ERN_F4215_NSCR_1989-10-15_NORTH WILKESBORO-HOLLY FARMS 400 ESPN RACE BROADCAST_89-EV-0736.NEW.01 
*SOURCE FILE: ERN_F4284_NSCR_1989-10-15_RACE BROADCAST NORTH WILKESBORO HOLLY FARMS 400_89-EV-0736
001070  ERN_F4284_NSCR_1989-10-15_RACE_BROADCAST_NORTH_WILKESBORO_HOLLY_FARMS_400_89-EV-0736                                              A20   C        01:22:50:20 01:22:52:27 00:22:53:11 00:22:55:16 
M2      ERN_F4284_NSCR_1989-10-15_RACE_BROADCAST_NORTH_WILKESBORO_HOLLY_FARMS_400_89-EV-0736                                                       030.0 01:22:50:20 
*FROM CLIP NAME:  ERN_F4215_NSCR_1989-10-15_NORTH WILKESBORO-HOLLY FARMS 400 ESPN RACE BROADCAST_89-EV-0736.NEW.01 
*SOURCE FILE: ERN_F4284_NSCR_1989-10-15_RACE BROADCAST NORTH WILKESBORO HOLLY FARMS 400_89-EV-0736
001071  ERN_F4284_NSCR_1989-10-15_RACE_BROADCAST_NORTH_WILKESBORO_HOLLY_FARMS_400_89-EV-0736                                              A18   C        01:23:10:08 01:23:10:17 00:22:55:06 00:22:55:12 
M2      ERN_F4284_NSCR_1989-10-15_RACE_BROADCAST_NORTH_WILKESBORO_HOLLY_FARMS_400_89-EV-0736                                                       030.0 01:23:10:08 
*FROM CLIP NAME:  ERN_F4215_NSCR_1989-10-15_NORTH WILKESBORO-HOLLY FARMS 400 ESPN RACE BROADCAST_89-EV-0736.NEW.01 
*SOURCE FILE: ERN_F4284_NSCR_1989-10-15_RACE BROADCAST NORTH WILKESBORO HOLLY FARMS 400_89-EV-0736
001072  ERN_F4284_NSCR_1989-10-15_RACE_BROADCAST_NORTH_WILKESBORO_HOLLY_FARMS_400_89-EV-0736                                              A18   C        01:23:10:16 01:23:16:29 00:22:55:12 00:23:01:22 
M2      ERN_F4284_NSCR_1989-10-15_RACE_BROADCAST_NORTH_WILKESBORO_HOLLY_FARMS_400_89-EV-0736                                                       030.0 01:23:10:16 
*FROM CLIP NAME:  ERN_F4215_NSCR_1989-10-15_NORTH WILKESBORO-HOLLY FARMS 400 ESPN RACE BROADCAST_89-EV-0736.NEW.01 
*SOURCE FILE: ERN_F4284_NSCR_1989-10-15_RACE BROADCAST NORTH WILKESBORO HOLLY FARMS 400_89-EV-0736
001073  ERN_F4284_NSCR_1989-10-15_RACE_BROADCAST_NORTH_WILKESBORO_HOLLY_FARMS_400_89-EV-0736                                              A20   C        01:23:13:27 01:23:14:28 00:22:55:16 00:22:56:16 
M2      ERN_F4284_NSCR_1989-10-15_RACE_BROADCAST_NORTH_WILKESBORO_HOLLY_FARMS_400_89-EV-0736                                                       030.0 01:23:13:27 
*FROM CLIP NAME:  ERN_F4215_NSCR_1989-10-15_NORTH WILKESBORO-HOLLY FARMS 400 ESPN RACE BROADCAST_89-EV-0736.NEW.01 
*TO CLIP NAME:  ERN_F4215_NSCR_1989-10-15_NORTH WILKESBORO-HOLLY FARMS 400 ESPN RACE BROADCAST_89-EV-0736.NEW.01 
*SOURCE FILE: ERN_F4284_NSCR_1989-10-15_RACE BROADCAST NORTH WILKESBORO HOLLY FARMS 400_89-EV-0736
001074  ERN_F4284_NSCR_1989-10-15_RACE_BROADCAST_NORTH_WILKESBORO_HOLLY_FARMS_400_89-EV-0736                                              V     C        01:23:19:26 01:23:32:17 00:22:56:00 00:23:08:16 
M2      ERN_F4284_NSCR_1989-10-15_RACE_BROADCAST_NORTH_WILKESBORO_HOLLY_FARMS_400_89-EV-0736                                                       030.0 01:23:19:26 
*FROM CLIP NAME:  ERN_F4215_NSCR_1989-10-15_NORTH WILKESBORO-HOLLY FARMS 400 ESPN RACE BROADCAST_89-EV-0736.NEW.01 
*SOURCE FILE: ERN_F4284_NSCR_1989-10-15_RACE BROADCAST NORTH WILKESBORO HOLLY FARMS 400_89-EV-0736
001075  ERN_F4284_NSCR_1989-10-15_RACE_BROADCAST_NORTH_WILKESBORO_HOLLY_FARMS_400_89-EV-0736                                              A20   C        01:23:14:27 01:23:19:07 00:22:56:16 00:23:00:23 
M2      ERN_F4284_NSCR_1989-10-15_RACE_BROADCAST_NORTH_WILKESBORO_HOLLY_FARMS_400_89-EV-0736                                                       030.0 01:23:14:27 
*FROM CLIP NAME:  ERN_F4215_NSCR_1989-10-15_NORTH WILKESBORO-HOLLY FARMS 400 ESPN RACE BROADCAST_89-EV-0736.NEW.01 
*SOURCE FILE: ERN_F4284_NSCR_1989-10-15_RACE BROADCAST NORTH WILKESBORO HOLLY FARMS 400_89-EV-0736
001076  ERN_F4284_NSCR_1989-10-15_RACE_BROADCAST_NORTH_WILKESBORO_HOLLY_FARMS_400_89-EV-0736                                              A20   C        01:23:24:25 01:23:25:25 00:23:00:23 00:23:01:23 
M2      ERN_F4284_NSCR_1989-10-15_RACE_BROADCAST_NORTH_WILKESBORO_HOLLY_FARMS_400_89-EV-0736                                                       030.0 01:23:24:25 
*FROM CLIP NAME:  ERN_F4215_NSCR_1989-10-15_NORTH WILKESBORO-HOLLY FARMS 400 ESPN RACE BROADCAST_89-EV-0736.NEW.01 
*TO CLIP NAME:  ERN_F4215_NSCR_1989-10-15_NORTH WILKESBORO-HOLLY FARMS 400 ESPN RACE BROADCAST_89-EV-0736.NEW.01 
*SOURCE FILE: ERN_F4284_NSCR_1989-10-15_RACE BROADCAST NORTH WILKESBORO HOLLY FARMS 400_89-EV-0736
001077  ERN_F4284_NSCR_1989-10-15_RACE_BROADCAST_NORTH_WILKESBORO_HOLLY_FARMS_400_89-EV-0736                                              A18   C        01:23:25:17 01:23:25:28 00:23:01:22 00:23:02:06 
M2      ERN_F4284_NSCR_1989-10-15_RACE_BROADCAST_NORTH_WILKESBORO_HOLLY_FARMS_400_89-EV-0736                                                       030.0 01:23:25:17 
*FROM CLIP NAME:  ERN_F4215_NSCR_1989-10-15_NORTH WILKESBORO-HOLLY FARMS 400 ESPN RACE BROADCAST_89-EV-0736.NEW.01 
*TO CLIP NAME:  ERN_F4215_NSCR_1989-10-15_NORTH WILKESBORO-HOLLY FARMS 400 ESPN RACE BROADCAST_89-EV-0736.NEW.01 
*SOURCE FILE: ERN_F4284_NSCR_1989-10-15_RACE BROADCAST NORTH WILKESBORO HOLLY FARMS 400_89-EV-0736
001078  ERN_F4284_NSCR_1989-10-15_RACE_BROADCAST_NORTH_WILKESBORO_HOLLY_FARMS_400_89-EV-0736                                              A20   C        01:23:25:25 01:23:29:03 00:23:01:23 00:23:05:05 
M2      ERN_F4284_NSCR_1989-10-15_RACE_BROADCAST_NORTH_WILKESBORO_HOLLY_FARMS_400_89-EV-0736                                                       030.0 01:23:25:25 
*FROM CLIP NAME:  ERN_F4215_NSCR_1989-10-15_NORTH WILKESBORO-HOLLY FARMS 400 ESPN RACE BROADCAST_89-EV-0736.NEW.01 
*SOURCE FILE: ERN_F4284_NSCR_1989-10-15_RACE BROADCAST NORTH WILKESBORO HOLLY FARMS 400_89-EV-0736
001079  ERN_F4284_NSCR_1989-10-15_RACE_BROADCAST_NORTH_WILKESBORO_HOLLY_FARMS_400_89-EV-0736                                              A18   C        01:23:25:27 01:23:29:15 00:23:02:06 00:23:05:20 
M2      ERN_F4284_NSCR_1989-10-15_RACE_BROADCAST_NORTH_WILKESBORO_HOLLY_FARMS_400_89-EV-0736                                                       030.0 01:23:25:27 
*FROM CLIP NAME:  ERN_F4215_NSCR_1989-10-15_NORTH WILKESBORO-HOLLY FARMS 400 ESPN RACE BROADCAST_89-EV-0736.NEW.01 
*SOURCE FILE: ERN_F4284_NSCR_1989-10-15_RACE BROADCAST NORTH WILKESBORO HOLLY FARMS 400_89-EV-0736
001080  ERN_F0653_NSCR_1990-01-04_DESR_RACE_NASCAR_CUP_SERIES_-_DARLINGTON_90-EV-0664                                                     A22   C        01:08:27:21 01:08:29:07 00:23:02:12 00:23:04:00 
M2      ERN_F0653_NSCR_1990-01-04_DESR_RACE_NASCAR_CUP_SERIES_-_DARLINGTON_90-EV-0664                                                              030.0 01:08:27:21 
*FROM CLIP NAME:  ERN_F0653_NSCR_1990-01-04_DESR RACE NASCAR CUP SERIES - DARLINGTON_90-EV-0664.NEW.01 
*SOURCE FILE: ERN_F0653_NSCR_1990-01-04_DESR RACE NASCAR CUP SERIES - DARLINGTON_90-EV-0664
001081  ERN_F0653_NSCR_1990-01-04_DESR_RACE_NASCAR_CUP_SERIES_-_DARLINGTON_90-EV-0664                                                     A22   C        01:08:29:06 01:08:30:27 00:23:04:00 00:23:05:16 
M2      ERN_F0653_NSCR_1990-01-04_DESR_RACE_NASCAR_CUP_SERIES_-_DARLINGTON_90-EV-0664                                                              030.0 01:08:29:06 
*FROM CLIP NAME:  ERN_F0653_NSCR_1990-01-04_DESR RACE NASCAR CUP SERIES - DARLINGTON_90-EV-0664.NEW.01 
*SOURCE FILE: ERN_F0653_NSCR_1990-01-04_DESR RACE NASCAR CUP SERIES - DARLINGTON_90-EV-0664
001082  ERN_F4284_NSCR_1989-10-15_RACE_BROADCAST_NORTH_WILKESBORO_HOLLY_FARMS_400_89-EV-0736                                              A20   C        01:23:40:21 01:23:41:22 00:23:05:05 00:23:06:05 
M2      ERN_F4284_NSCR_1989-10-15_RACE_BROADCAST_NORTH_WILKESBORO_HOLLY_FARMS_400_89-EV-0736                                                       030.0 01:23:40:21 
*FROM CLIP NAME:  ERN_F4215_NSCR_1989-10-15_NORTH WILKESBORO-HOLLY FARMS 400 ESPN RACE BROADCAST_89-EV-0736.NEW.01 
*TO CLIP NAME:  ERN_F4215_NSCR_1989-10-15_NORTH WILKESBORO-HOLLY FARMS 400 ESPN RACE BROADCAST_89-EV-0736.NEW.01 
*SOURCE FILE: ERN_F4284_NSCR_1989-10-15_RACE BROADCAST NORTH WILKESBORO HOLLY FARMS 400_89-EV-0736
001083  ERN_F4284_NSCR_1989-10-15_RACE_BROADCAST_NORTH_WILKESBORO_HOLLY_FARMS_400_89-EV-0736                                              A20   C        01:23:41:21 01:23:45:14 00:23:06:05 00:23:09:23 
M2      ERN_F4284_NSCR_1989-10-15_RACE_BROADCAST_NORTH_WILKESBORO_HOLLY_FARMS_400_89-EV-0736                                                       030.0 01:23:41:21 
*FROM CLIP NAME:  ERN_F4215_NSCR_1989-10-15_NORTH WILKESBORO-HOLLY FARMS 400 ESPN RACE BROADCAST_89-EV-0736.NEW.01 
*SOURCE FILE: ERN_F4284_NSCR_1989-10-15_RACE BROADCAST NORTH WILKESBORO HOLLY FARMS 400_89-EV-0736
001084  ERN_F4201_NSCR_1989-10-15_NORTH_WILKESBORO-HOLLY_FARMS_400_RACE_B-ROLL_89-EV-0525                                                 A24   C        01:24:09:20 01:24:11:06 00:23:07:08 00:23:08:20 
M2      ERN_F4201_NSCR_1989-10-15_NORTH_WILKESBORO-HOLLY_FARMS_400_RACE_B-ROLL_89-EV-0525                                                          030.0 01:24:09:20 
*FROM CLIP NAME:  ERN_F4201_NSCR_1989-10-15_NORTH WILKESBORO-HOLLY FARMS 400 RACE B-ROLL_89-EV-0525.NEW.01 
*SOURCE FILE: ERN_F4201_NSCR_1989-10-15_NORTH WILKESBORO-HOLLY FARMS 400 RACE B-ROLL_89-EV-0525
001085  ERN_F4284_NSCR_1989-10-15_RACE_BROADCAST_NORTH_WILKESBORO_HOLLY_FARMS_400_89-EV-0736                                              A18   C        01:23:41:16 01:23:42:02 00:23:08:01 00:23:08:13 
M2      ERN_F4284_NSCR_1989-10-15_RACE_BROADCAST_NORTH_WILKESBORO_HOLLY_FARMS_400_89-EV-0736                                                       030.0 01:23:41:16 
*FROM CLIP NAME:  ERN_F4215_NSCR_1989-10-15_NORTH WILKESBORO-HOLLY FARMS 400 ESPN RACE BROADCAST_89-EV-0736.NEW.01 
*SOURCE FILE: ERN_F4284_NSCR_1989-10-15_RACE BROADCAST NORTH WILKESBORO HOLLY FARMS 400_89-EV-0736
001086  ERN_F4284_NSCR_1989-10-15_RACE_BROADCAST_NORTH_WILKESBORO_HOLLY_FARMS_400_89-EV-0736                                              A18   C        01:23:42:01 01:23:44:03 00:23:08:13 00:23:10:14 
M2      ERN_F4284_NSCR_1989-10-15_RACE_BROADCAST_NORTH_WILKESBORO_HOLLY_FARMS_400_89-EV-0736                                                       030.0 01:23:42:01 
*FROM CLIP NAME:  ERN_F4215_NSCR_1989-10-15_NORTH WILKESBORO-HOLLY FARMS 400 ESPN RACE BROADCAST_89-EV-0736.NEW.01 
*SOURCE FILE: ERN_F4284_NSCR_1989-10-15_RACE BROADCAST NORTH WILKESBORO HOLLY FARMS 400_89-EV-0736
001087  ERN_F4201_NSCR_1989-10-15_NORTH_WILKESBORO-HOLLY_FARMS_400_RACE_B-ROLL_89-EV-0525                                                 V     C        01:24:10:01 01:24:13:04 00:23:08:16 00:23:11:18 
M2      ERN_F4201_NSCR_1989-10-15_NORTH_WILKESBORO-HOLLY_FARMS_400_RACE_B-ROLL_89-EV-0525                                                          030.0 01:24:10:01 
*FROM CLIP NAME:  ERN_F4201_NSCR_1989-10-15_NORTH WILKESBORO-HOLLY FARMS 400 RACE B-ROLL_89-EV-0525.NEW.01 
*SOURCE FILE: ERN_F4201_NSCR_1989-10-15_NORTH WILKESBORO-HOLLY FARMS 400 RACE B-ROLL_89-EV-0525
001088  ERN_F4201_NSCR_1989-10-15_NORTH_WILKESBORO-HOLLY_FARMS_400_RACE_B-ROLL_89-EV-0525                                                 A24   C        01:24:11:05 01:24:18:16 00:23:08:20 00:23:16:04 
M2      ERN_F4201_NSCR_1989-10-15_NORTH_WILKESBORO-HOLLY_FARMS_400_RACE_B-ROLL_89-EV-0525                                                          030.0 01:24:11:05 
*FROM CLIP NAME:  ERN_F4201_NSCR_1989-10-15_NORTH WILKESBORO-HOLLY FARMS 400 RACE B-ROLL_89-EV-0525.NEW.01 
*SOURCE FILE: ERN_F4201_NSCR_1989-10-15_NORTH WILKESBORO-HOLLY FARMS 400 RACE B-ROLL_89-EV-0525
001089  ERN_F4284_NSCR_1989-10-15_RACE_BROADCAST_NORTH_WILKESBORO_HOLLY_FARMS_400_89-EV-0736                                              V     C        01:23:44:12 01:23:49:17 00:23:11:18 00:23:16:21 
M2      ERN_F4284_NSCR_1989-10-15_RACE_BROADCAST_NORTH_WILKESBORO_HOLLY_FARMS_400_89-EV-0736                                                       030.0 01:23:44:12 
*FROM CLIP NAME:  ERN_F4215_NSCR_1989-10-15_NORTH WILKESBORO-HOLLY FARMS 400 ESPN RACE BROADCAST_89-EV-0736.NEW.01 
*SOURCE FILE: ERN_F4284_NSCR_1989-10-15_RACE BROADCAST NORTH WILKESBORO HOLLY FARMS 400_89-EV-0736
001090  ERN_F4284_NSCR_1989-10-15_RACE_BROADCAST_NORTH_WILKESBORO_HOLLY_FARMS_400_89-EV-0736                                              A18   C        01:28:49:12 01:28:50:13 00:23:12:14 00:23:13:14 
M2      ERN_F4284_NSCR_1989-10-15_RACE_BROADCAST_NORTH_WILKESBORO_HOLLY_FARMS_400_89-EV-0736                                                       030.0 01:28:49:12 
*FROM CLIP NAME:  ERN_F4215_NSCR_1989-10-15_NORTH WILKESBORO-HOLLY FARMS 400 ESPN RACE BROADCAST_89-EV-0736.NEW.01 
*SOURCE FILE: ERN_F4284_NSCR_1989-10-15_RACE BROADCAST NORTH WILKESBORO HOLLY FARMS 400_89-EV-0736
001091  ERN_F4284_NSCR_1989-10-15_RACE_BROADCAST_NORTH_WILKESBORO_HOLLY_FARMS_400_89-EV-0736                                              A18   C        01:28:50:12 01:28:52:19 00:23:13:14 00:23:15:19 
M2      ERN_F4284_NSCR_1989-10-15_RACE_BROADCAST_NORTH_WILKESBORO_HOLLY_FARMS_400_89-EV-0736                                                       030.0 01:28:50:12 
*FROM CLIP NAME:  ERN_F4215_NSCR_1989-10-15_NORTH WILKESBORO-HOLLY FARMS 400 ESPN RACE BROADCAST_89-EV-0736.NEW.01 
*SOURCE FILE: ERN_F4284_NSCR_1989-10-15_RACE BROADCAST NORTH WILKESBORO HOLLY FARMS 400_89-EV-0736
001092  ERN_F4284_NSCR_1989-10-15_RACE_BROADCAST_NORTH_WILKESBORO_HOLLY_FARMS_400_89-EV-0736                                              A18   C        01:28:58:25 01:28:59:00 00:23:16:03 00:23:16:07 
M2      ERN_F4284_NSCR_1989-10-15_RACE_BROADCAST_NORTH_WILKESBORO_HOLLY_FARMS_400_89-EV-0736                                                       030.0 01:28:58:25 
*FROM CLIP NAME:  ERN_F4215_NSCR_1989-10-15_NORTH WILKESBORO-HOLLY FARMS 400 ESPN RACE BROADCAST_89-EV-0736.NEW.01 
*SOURCE FILE: ERN_F4284_NSCR_1989-10-15_RACE BROADCAST NORTH WILKESBORO HOLLY FARMS 400_89-EV-0736
001093  ERN_F4284_NSCR_1989-10-15_RACE_BROADCAST_NORTH_WILKESBORO_HOLLY_FARMS_400_89-EV-0736                                              A18   C        01:28:59:00 01:29:01:17 00:23:16:07 00:23:18:19 
M2      ERN_F4284_NSCR_1989-10-15_RACE_BROADCAST_NORTH_WILKESBORO_HOLLY_FARMS_400_89-EV-0736                                                       030.0 01:28:59:00 
*FROM CLIP NAME:  ERN_F4215_NSCR_1989-10-15_NORTH WILKESBORO-HOLLY FARMS 400 ESPN RACE BROADCAST_89-EV-0736.NEW.01 
*SOURCE FILE: ERN_F4284_NSCR_1989-10-15_RACE BROADCAST NORTH WILKESBORO HOLLY FARMS 400_89-EV-0736
001094  ERN_F4284_NSCR_1989-10-15_RACE_BROADCAST_NORTH_WILKESBORO_HOLLY_FARMS_400_89-EV-0736                                              V     C        01:28:59:17 01:29:00:26 00:23:16:21 00:23:18:02 
M2      ERN_F4284_NSCR_1989-10-15_RACE_BROADCAST_NORTH_WILKESBORO_HOLLY_FARMS_400_89-EV-0736                                                       030.0 01:28:59:17 
*FROM CLIP NAME:  ERN_F4215_NSCR_1989-10-15_NORTH WILKESBORO-HOLLY FARMS 400 ESPN RACE BROADCAST_89-EV-0736.NEW.01 
*SOURCE FILE: ERN_F4284_NSCR_1989-10-15_RACE BROADCAST NORTH WILKESBORO HOLLY FARMS 400_89-EV-0736
001095  ERN_F4186_NSCR_1989-10-15_NORTH_WILKESBORO-PIT_CREW_B-ROLL_DESR_VICTORY_LANE_WALKING_WITH_PIT_CREW_CROWD_CHEERING_89-EV-0519A     V     C        00:37:24:10 00:37:26:12 00:23:18:02 00:23:20:03 
M2      ERN_F4186_NSCR_1989-10-15_NORTH_WILKESBORO-PIT_CREW_B-ROLL_DESR_VICTORY_LANE_WALKING_WITH_PIT_CREW_CROWD_CHEERING_89-EV-0519A              030.0 00:37:24:10 
*FROM CLIP NAME:  ERN_F4186_NSCR_1989-10-15_NORTH WILKESBORO-PIT CREW B-ROLL DESR VICTORY LANE WALKING WITH PIT CREW CROWD CHEERING_89-EV-0519A.NEW.01 
*SOURCE FILE: ERN_F4186_NSCR_1989-10-15_NORTH WILKESBORO-PIT CREW B-ROLL DESR VICTORY LANE WALKING WITH PIT CREW CROWD CHEERING_89-EV-0519A
001096  ERN_F4186_NSCR_1989-10-15_NORTH_WILKESBORO-PIT_CREW_B-ROLL_DESR_VICTORY_LANE_WALKING_WITH_PIT_CREW_CROWD_CHEERING_89-EV-0519A     A20   C        00:37:24:05 00:37:25:06 00:23:18:10 00:23:19:10 
M2      ERN_F4186_NSCR_1989-10-15_NORTH_WILKESBORO-PIT_CREW_B-ROLL_DESR_VICTORY_LANE_WALKING_WITH_PIT_CREW_CROWD_CHEERING_89-EV-0519A              030.0 00:37:24:05 
*FROM CLIP NAME:  ERN_F4186_NSCR_1989-10-15_NORTH WILKESBORO-PIT CREW B-ROLL DESR VICTORY LANE WALKING WITH PIT CREW CROWD CHEERING_89-EV-0519A.NEW.01 
*SOURCE FILE: ERN_F4186_NSCR_1989-10-15_NORTH WILKESBORO-PIT CREW B-ROLL DESR VICTORY LANE WALKING WITH PIT CREW CROWD CHEERING_89-EV-0519A
001097  ERN_F4186_NSCR_1989-10-15_NORTH_WILKESBORO-PIT_CREW_B-ROLL_DESR_VICTORY_LANE_WALKING_WITH_PIT_CREW_CROWD_CHEERING_89-EV-0519A     A20   C        00:37:25:05 00:37:25:23 00:23:19:10 00:23:20:00 
M2      ERN_F4186_NSCR_1989-10-15_NORTH_WILKESBORO-PIT_CREW_B-ROLL_DESR_VICTORY_LANE_WALKING_WITH_PIT_CREW_CROWD_CHEERING_89-EV-0519A              030.0 00:37:25:05 
*FROM CLIP NAME:  ERN_F4186_NSCR_1989-10-15_NORTH WILKESBORO-PIT CREW B-ROLL DESR VICTORY LANE WALKING WITH PIT CREW CROWD CHEERING_89-EV-0519A.NEW.01 
*SOURCE FILE: ERN_F4186_NSCR_1989-10-15_NORTH WILKESBORO-PIT CREW B-ROLL DESR VICTORY LANE WALKING WITH PIT CREW CROWD CHEERING_89-EV-0519A
001098  ERN_F4186_NSCR_1989-10-15_NORTH_WILKESBORO-PIT_CREW_B-ROLL_DESR_VICTORY_LANE_WALKING_WITH_PIT_CREW_CROWD_CHEERING_89-EV-0519A     A20   C        00:37:25:22 00:37:27:23 00:23:20:00 00:23:22:00 
M2      ERN_F4186_NSCR_1989-10-15_NORTH_WILKESBORO-PIT_CREW_B-ROLL_DESR_VICTORY_LANE_WALKING_WITH_PIT_CREW_CROWD_CHEERING_89-EV-0519A              030.0 00:37:25:22 
*FROM CLIP NAME:  ERN_F4186_NSCR_1989-10-15_NORTH WILKESBORO-PIT CREW B-ROLL DESR VICTORY LANE WALKING WITH PIT CREW CROWD CHEERING_89-EV-0519A.NEW.01 
*TO CLIP NAME:  ERN_F4186_NSCR_1989-10-15_NORTH WILKESBORO-PIT CREW B-ROLL DESR VICTORY LANE WALKING WITH PIT CREW CROWD CHEERING_89-EV-0519A.NEW.01 
*SOURCE FILE: ERN_F4186_NSCR_1989-10-15_NORTH WILKESBORO-PIT CREW B-ROLL DESR VICTORY LANE WALKING WITH PIT CREW CROWD CHEERING_89-EV-0519A
001099  ERN_F4186_NSCR_1989-10-15_NORTH_WILKESBORO-PIT_CREW_B-ROLL_DESR_VICTORY_LANE_WALKING_WITH_PIT_CREW_CROWD_CHEERING_89-EV-0519A     V     C        00:37:32:11 00:37:34:13 00:23:20:03 00:23:22:04 
M2      ERN_F4186_NSCR_1989-10-15_NORTH_WILKESBORO-PIT_CREW_B-ROLL_DESR_VICTORY_LANE_WALKING_WITH_PIT_CREW_CROWD_CHEERING_89-EV-0519A              030.0 00:37:32:11 
*FROM CLIP NAME:  ERN_F4186_NSCR_1989-10-15_NORTH WILKESBORO-PIT CREW B-ROLL DESR VICTORY LANE WALKING WITH PIT CREW CROWD CHEERING_89-EV-0519A.NEW.01 
*SOURCE FILE: ERN_F4186_NSCR_1989-10-15_NORTH WILKESBORO-PIT CREW B-ROLL DESR VICTORY LANE WALKING WITH PIT CREW CROWD CHEERING_89-EV-0519A
001100  ERN_F4186_NSCR_1989-10-15_NORTH_WILKESBORO-PIT_CREW_B-ROLL_DESR_VICTORY_LANE_WALKING_WITH_PIT_CREW_CROWD_CHEERING_89-EV-0519A     A20   C        00:37:27:22 00:37:30:24 00:23:22:00 00:23:25:01 
M2      ERN_F4186_NSCR_1989-10-15_NORTH_WILKESBORO-PIT_CREW_B-ROLL_DESR_VICTORY_LANE_WALKING_WITH_PIT_CREW_CROWD_CHEERING_89-EV-0519A              030.0 00:37:27:22 
*FROM CLIP NAME:  ERN_F4186_NSCR_1989-10-15_NORTH WILKESBORO-PIT CREW B-ROLL DESR VICTORY LANE WALKING WITH PIT CREW CROWD CHEERING_89-EV-0519A.NEW.01 
*SOURCE FILE: ERN_F4186_NSCR_1989-10-15_NORTH WILKESBORO-PIT CREW B-ROLL DESR VICTORY LANE WALKING WITH PIT CREW CROWD CHEERING_89-EV-0519A
001101  ERN_F3110_NSCR_1989-10-15_HOLLYFARMS_400-FILM_FOOTAGE_NO_AUDIO_RACE_B-ROLL_FLYBYS_DESR_NO3_GOODWRENCH_CREW_AND_NO26_CREW_HEATED_A V     C        00:04:39:12 00:04:43:28 00:23:22:04 00:23:26:16 
M2      ERN_F3110_NSCR_1989-10-15_HOLLYFARMS_400-FILM_FOOTAGE_NO_AUDIO_RACE_B-ROLL_FLYBYS_DESR_NO3_GOODWRENCH_CREW_AND_NO26_CREW_HEATED_A          030.0 00:04:39:12 
*FROM CLIP NAME:  ERN_F3110_NSCR_1989-10-15_HOLLYFARMS 400-FILM FOOTAGE NO AUDIO RACE B-ROLL FLYBYS DESR NO3 GOODWRENCH CREW AND NO26 CREW HEATED ARGUMENT ON PIT ROAD_1989-NAS-031017.NEW.01 
*SOURCE FILE: ERN_F3110_NSCR_1989-10-15_HOLLYFARMS 400-FILM FOOTAGE NO AUDIO RACE B-ROLL FLYBYS DESR NO3 GOODWRENCH CREW AND NO26 CREW HEATED ARGUMENT ON PIT ROAD_1989-NAS-031017
001102  ERN_F4186_NSCR_1989-10-15_NORTH_WILKESBORO-PIT_CREW_B-ROLL_DESR_VICTORY_LANE_WALKING_WITH_PIT_CREW_CROWD_CHEERING_89-EV-0519A     A20   C        00:37:54:06 00:37:55:22 00:23:26:16 00:23:28:04 
M2      ERN_F4186_NSCR_1989-10-15_NORTH_WILKESBORO-PIT_CREW_B-ROLL_DESR_VICTORY_LANE_WALKING_WITH_PIT_CREW_CROWD_CHEERING_89-EV-0519A              030.0 00:37:54:06 
*FROM CLIP NAME:  ERN_F4186_NSCR_1989-10-15_NORTH WILKESBORO-PIT CREW B-ROLL DESR VICTORY LANE WALKING WITH PIT CREW CROWD CHEERING_89-EV-0519A.NEW.01 
*SOURCE FILE: ERN_F4186_NSCR_1989-10-15_NORTH WILKESBORO-PIT CREW B-ROLL DESR VICTORY LANE WALKING WITH PIT CREW CROWD CHEERING_89-EV-0519A
001103  ERN_F4208_NSCR_1989-10-15_NORTH_WILKESBORO-HOLLY_FARMS_400_RACE_B-ROLL_GEOFF_BODINE_WINNER_89-EV-0527                             A18   C        00:13:26:13 00:13:27:28 00:23:26:17 00:23:28:05 
M2      ERN_F4208_NSCR_1989-10-15_NORTH_WILKESBORO-HOLLY_FARMS_400_RACE_B-ROLL_GEOFF_BODINE_WINNER_89-EV-0527                                      030.0 00:13:26:13 
*FROM CLIP NAME:  ERN_F4208_NSCR_1989-10-15_NORTH WILKESBORO-HOLLY FARMS 400 RACE B-ROLL GEOFF BODINE WINNER_89-EV-0527.NEW.01 
*SOURCE FILE: ERN_F4208_NSCR_1989-10-15_NORTH WILKESBORO-HOLLY FARMS 400 RACE B-ROLL GEOFF BODINE WINNER_89-EV-0527
001104  ERN_F4208_NSCR_1989-10-15_NORTH_WILKESBORO-HOLLY_FARMS_400_RACE_B-ROLL_GEOFF_BODINE_WINNER_89-EV-0527                             V     C        00:13:27:13 00:13:30:15 00:23:27:18 00:23:30:19 
M2      ERN_F4208_NSCR_1989-10-15_NORTH_WILKESBORO-HOLLY_FARMS_400_RACE_B-ROLL_GEOFF_BODINE_WINNER_89-EV-0527                                      030.0 00:13:27:13 
*FROM CLIP NAME:  ERN_F4208_NSCR_1989-10-15_NORTH WILKESBORO-HOLLY FARMS 400 RACE B-ROLL GEOFF BODINE WINNER_89-EV-0527.NEW.01 
*SOURCE FILE: ERN_F4208_NSCR_1989-10-15_NORTH WILKESBORO-HOLLY FARMS 400 RACE B-ROLL GEOFF BODINE WINNER_89-EV-0527
001105  ERN_F4186_NSCR_1989-10-15_NORTH_WILKESBORO-PIT_CREW_B-ROLL_DESR_VICTORY_LANE_WALKING_WITH_PIT_CREW_CROWD_CHEERING_89-EV-0519A     A20   C        00:37:55:21 00:37:59:17 00:23:28:04 00:23:32:00 
M2      ERN_F4186_NSCR_1989-10-15_NORTH_WILKESBORO-PIT_CREW_B-ROLL_DESR_VICTORY_LANE_WALKING_WITH_PIT_CREW_CROWD_CHEERING_89-EV-0519A              030.0 00:37:55:21 
*FROM CLIP NAME:  ERN_F4186_NSCR_1989-10-15_NORTH WILKESBORO-PIT CREW B-ROLL DESR VICTORY LANE WALKING WITH PIT CREW CROWD CHEERING_89-EV-0519A.NEW.01 
*SOURCE FILE: ERN_F4186_NSCR_1989-10-15_NORTH WILKESBORO-PIT CREW B-ROLL DESR VICTORY LANE WALKING WITH PIT CREW CROWD CHEERING_89-EV-0519A
001106  ERN_F4208_NSCR_1989-10-15_NORTH_WILKESBORO-HOLLY_FARMS_400_RACE_B-ROLL_GEOFF_BODINE_WINNER_89-EV-0527                             A18   C        00:13:27:28 00:13:41:27 00:23:28:05 00:23:42:04 
M2      ERN_F4208_NSCR_1989-10-15_NORTH_WILKESBORO-HOLLY_FARMS_400_RACE_B-ROLL_GEOFF_BODINE_WINNER_89-EV-0527                                      030.0 00:13:27:28 
*FROM CLIP NAME:  ERN_F4208_NSCR_1989-10-15_NORTH WILKESBORO-HOLLY FARMS 400 RACE B-ROLL GEOFF BODINE WINNER_89-EV-0527.NEW.01 
*SOURCE FILE: ERN_F4208_NSCR_1989-10-15_NORTH WILKESBORO-HOLLY FARMS 400 RACE B-ROLL GEOFF BODINE WINNER_89-EV-0527
001107  ERN_F4186_NSCR_1989-10-15_NORTH_WILKESBORO-PIT_CREW_B-ROLL_DESR_VICTORY_LANE_WALKING_WITH_PIT_CREW_CROWD_CHEERING_89-EV-0519A     V     C        00:37:58:10 00:38:00:15 00:23:30:19 00:23:32:21 
M2      ERN_F4186_NSCR_1989-10-15_NORTH_WILKESBORO-PIT_CREW_B-ROLL_DESR_VICTORY_LANE_WALKING_WITH_PIT_CREW_CROWD_CHEERING_89-EV-0519A              030.0 00:37:58:10 
*FROM CLIP NAME:  ERN_F4186_NSCR_1989-10-15_NORTH WILKESBORO-PIT CREW B-ROLL DESR VICTORY LANE WALKING WITH PIT CREW CROWD CHEERING_89-EV-0519A.NEW.01 
*SOURCE FILE: ERN_F4186_NSCR_1989-10-15_NORTH WILKESBORO-PIT CREW B-ROLL DESR VICTORY LANE WALKING WITH PIT CREW CROWD CHEERING_89-EV-0519A
001108  ERN_F4186_NSCR_1989-10-15_NORTH_WILKESBORO-PIT_CREW_B-ROLL_DESR_VICTORY_LANE_WALKING_WITH_PIT_CREW_CROWD_CHEERING_89-EV-0519A     A20   C        00:38:00:06 00:38:00:14 00:23:32:00 00:23:32:06 
M2      ERN_F4186_NSCR_1989-10-15_NORTH_WILKESBORO-PIT_CREW_B-ROLL_DESR_VICTORY_LANE_WALKING_WITH_PIT_CREW_CROWD_CHEERING_89-EV-0519A              030.0 00:38:00:06 
*FROM CLIP NAME:  ERN_F4186_NSCR_1989-10-15_NORTH WILKESBORO-PIT CREW B-ROLL DESR VICTORY LANE WALKING WITH PIT CREW CROWD CHEERING_89-EV-0519A.NEW.01 
*TO CLIP NAME:  ERN_F4186_NSCR_1989-10-15_NORTH WILKESBORO-PIT CREW B-ROLL DESR VICTORY LANE WALKING WITH PIT CREW CROWD CHEERING_89-EV-0519A.NEW.01 
*SOURCE FILE: ERN_F4186_NSCR_1989-10-15_NORTH WILKESBORO-PIT CREW B-ROLL DESR VICTORY LANE WALKING WITH PIT CREW CROWD CHEERING_89-EV-0519A
001109  ERN_F4186_NSCR_1989-10-15_NORTH_WILKESBORO-PIT_CREW_B-ROLL_DESR_VICTORY_LANE_WALKING_WITH_PIT_CREW_CROWD_CHEERING_89-EV-0519A     A20   C        00:38:00:13 00:38:04:14 00:23:32:06 00:23:36:06 
M2      ERN_F4186_NSCR_1989-10-15_NORTH_WILKESBORO-PIT_CREW_B-ROLL_DESR_VICTORY_LANE_WALKING_WITH_PIT_CREW_CROWD_CHEERING_89-EV-0519A              030.0 00:38:00:13 
*FROM CLIP NAME:  ERN_F4186_NSCR_1989-10-15_NORTH WILKESBORO-PIT CREW B-ROLL DESR VICTORY LANE WALKING WITH PIT CREW CROWD CHEERING_89-EV-0519A.NEW.01 
*SOURCE FILE: ERN_F4186_NSCR_1989-10-15_NORTH WILKESBORO-PIT CREW B-ROLL DESR VICTORY LANE WALKING WITH PIT CREW CROWD CHEERING_89-EV-0519A
001110  ERN_F4186_NSCR_1989-10-15_NORTH_WILKESBORO-PIT_CREW_B-ROLL_DESR_VICTORY_LANE_WALKING_WITH_PIT_CREW_CROWD_CHEERING_89-EV-0519A     V     C        00:38:06:14 00:38:11:26 00:23:32:21 00:23:38:06 
M2      ERN_F4186_NSCR_1989-10-15_NORTH_WILKESBORO-PIT_CREW_B-ROLL_DESR_VICTORY_LANE_WALKING_WITH_PIT_CREW_CROWD_CHEERING_89-EV-0519A              030.0 00:38:06:14 
*FROM CLIP NAME:  ERN_F4186_NSCR_1989-10-15_NORTH WILKESBORO-PIT CREW B-ROLL DESR VICTORY LANE WALKING WITH PIT CREW CROWD CHEERING_89-EV-0519A.NEW.01 
*SOURCE FILE: ERN_F4186_NSCR_1989-10-15_NORTH WILKESBORO-PIT CREW B-ROLL DESR VICTORY LANE WALKING WITH PIT CREW CROWD CHEERING_89-EV-0519A
001111  ERN_F3110_NSCR_1989-10-15_HOLLYFARMS_400-FILM_FOOTAGE_NO_AUDIO_RACE_B-ROLL_FLYBYS_DESR_NO3_GOODWRENCH_CREW_AND_NO26_CREW_HEATED_A V     C        00:05:10:02 00:05:13:03 00:23:38:06 00:23:41:06 
M2      ERN_F3110_NSCR_1989-10-15_HOLLYFARMS_400-FILM_FOOTAGE_NO_AUDIO_RACE_B-ROLL_FLYBYS_DESR_NO3_GOODWRENCH_CREW_AND_NO26_CREW_HEATED_A          030.0 00:05:10:02 
*FROM CLIP NAME:  ERN_F3110_NSCR_1989-10-15_HOLLYFARMS 400-FILM FOOTAGE NO AUDIO RACE B-ROLL FLYBYS DESR NO3 GOODWRENCH CREW AND NO26 CREW HEATED ARGUMENT ON PIT ROAD_1989-NAS-031017.NEW.01 
*SOURCE FILE: ERN_F3110_NSCR_1989-10-15_HOLLYFARMS 400-FILM FOOTAGE NO AUDIO RACE B-ROLL FLYBYS DESR NO3 GOODWRENCH CREW AND NO26 CREW HEATED ARGUMENT ON PIT ROAD_1989-NAS-031017
001112  ERN_F4208_NSCR_1989-10-15_NORTH_WILKESBORO-HOLLY_FARMS_400_RACE_B-ROLL_GEOFF_BODINE_WINNER_89-EV-0527                             A20   C        00:14:05:01 00:14:06:02 00:23:38:16 00:23:39:16 
M2      ERN_F4208_NSCR_1989-10-15_NORTH_WILKESBORO-HOLLY_FARMS_400_RACE_B-ROLL_GEOFF_BODINE_WINNER_89-EV-0527                                      030.0 00:14:05:01 
*FROM CLIP NAME:  ERN_F4208_NSCR_1989-10-15_NORTH WILKESBORO-HOLLY FARMS 400 RACE B-ROLL GEOFF BODINE WINNER_89-EV-0527.NEW.01 
*SOURCE FILE: ERN_F4208_NSCR_1989-10-15_NORTH WILKESBORO-HOLLY FARMS 400 RACE B-ROLL GEOFF BODINE WINNER_89-EV-0527
001113  ERN_F4284_NSCR_1989-10-15_RACE_BROADCAST_NORTH_WILKESBORO_HOLLY_FARMS_400_89-EV-0736                                              A22   C        01:30:53:17 01:30:53:24 00:23:39:05 00:23:39:10 
M2      ERN_F4284_NSCR_1989-10-15_RACE_BROADCAST_NORTH_WILKESBORO_HOLLY_FARMS_400_89-EV-0736                                                       030.0 01:30:53:17 
*FROM CLIP NAME:  ERN_F4215_NSCR_1989-10-15_NORTH WILKESBORO-HOLLY FARMS 400 ESPN RACE BROADCAST_89-EV-0736.NEW.01 
*SOURCE FILE: ERN_F4284_NSCR_1989-10-15_RACE BROADCAST NORTH WILKESBORO HOLLY FARMS 400_89-EV-0736
001114  ERN_F4284_NSCR_1989-10-15_RACE_BROADCAST_NORTH_WILKESBORO_HOLLY_FARMS_400_89-EV-0736                                              A22   C        01:30:53:23 01:30:55:00 00:23:39:10 00:23:40:15 
M2      ERN_F4284_NSCR_1989-10-15_RACE_BROADCAST_NORTH_WILKESBORO_HOLLY_FARMS_400_89-EV-0736                                                       030.0 01:30:53:23 
*FROM CLIP NAME:  ERN_F4215_NSCR_1989-10-15_NORTH WILKESBORO-HOLLY FARMS 400 ESPN RACE BROADCAST_89-EV-0736.NEW.01 
*SOURCE FILE: ERN_F4284_NSCR_1989-10-15_RACE BROADCAST NORTH WILKESBORO HOLLY FARMS 400_89-EV-0736
001115  ERN_F4208_NSCR_1989-10-15_NORTH_WILKESBORO-HOLLY_FARMS_400_RACE_B-ROLL_GEOFF_BODINE_WINNER_89-EV-0527                             A20   C        00:14:06:01 00:14:10:15 00:23:39:16 00:23:44:03 
M2      ERN_F4208_NSCR_1989-10-15_NORTH_WILKESBORO-HOLLY_FARMS_400_RACE_B-ROLL_GEOFF_BODINE_WINNER_89-EV-0527                                      030.0 00:14:06:01 
*FROM CLIP NAME:  ERN_F4208_NSCR_1989-10-15_NORTH WILKESBORO-HOLLY FARMS 400 RACE B-ROLL GEOFF BODINE WINNER_89-EV-0527.NEW.01 
*SOURCE FILE: ERN_F4208_NSCR_1989-10-15_NORTH WILKESBORO-HOLLY FARMS 400 RACE B-ROLL GEOFF BODINE WINNER_89-EV-0527
001116  ERN_F4284_NSCR_1989-10-15_RACE_BROADCAST_NORTH_WILKESBORO_HOLLY_FARMS_400_89-EV-0736                                              A24   C        01:31:18:27 01:31:19:13 00:23:40:07 00:23:40:19 
M2      ERN_F4284_NSCR_1989-10-15_RACE_BROADCAST_NORTH_WILKESBORO_HOLLY_FARMS_400_89-EV-0736                                                       030.0 01:31:18:27 
*FROM CLIP NAME:  ERN_F4215_NSCR_1989-10-15_NORTH WILKESBORO-HOLLY FARMS 400 ESPN RACE BROADCAST_89-EV-0736.NEW.01 
*SOURCE FILE: ERN_F4284_NSCR_1989-10-15_RACE BROADCAST NORTH WILKESBORO HOLLY FARMS 400_89-EV-0736
001117  ERN_F4284_NSCR_1989-10-15_RACE_BROADCAST_NORTH_WILKESBORO_HOLLY_FARMS_400_89-EV-0736                                              A22   C        01:30:59:04 01:30:59:10 00:23:41:01 00:23:41:05 
M2      ERN_F4284_NSCR_1989-10-15_RACE_BROADCAST_NORTH_WILKESBORO_HOLLY_FARMS_400_89-EV-0736                                                       030.0 01:30:59:04 
*FROM CLIP NAME:  ERN_F4215_NSCR_1989-10-15_NORTH WILKESBORO-HOLLY FARMS 400 ESPN RACE BROADCAST_89-EV-0736.NEW.01 
*SOURCE FILE: ERN_F4284_NSCR_1989-10-15_RACE BROADCAST NORTH WILKESBORO HOLLY FARMS 400_89-EV-0736
001118  ERN_F4284_NSCR_1989-10-15_RACE_BROADCAST_NORTH_WILKESBORO_HOLLY_FARMS_400_89-EV-0736                                              A22   C        01:30:59:09 01:31:01:28 00:23:41:05 00:23:43:18 
M2      ERN_F4284_NSCR_1989-10-15_RACE_BROADCAST_NORTH_WILKESBORO_HOLLY_FARMS_400_89-EV-0736                                                       030.0 01:30:59:09 
*FROM CLIP NAME:  ERN_F4215_NSCR_1989-10-15_NORTH WILKESBORO-HOLLY FARMS 400 ESPN RACE BROADCAST_89-EV-0736.NEW.01 
*SOURCE FILE: ERN_F4284_NSCR_1989-10-15_RACE BROADCAST NORTH WILKESBORO HOLLY FARMS 400_89-EV-0736
001119  ERN_F4208_NSCR_1989-10-15_NORTH_WILKESBORO-HOLLY_FARMS_400_RACE_B-ROLL_GEOFF_BODINE_WINNER_89-EV-0527                             V     C        00:14:07:06 00:14:10:23 00:23:41:06 00:23:44:19 
M2      ERN_F4208_NSCR_1989-10-15_NORTH_WILKESBORO-HOLLY_FARMS_400_RACE_B-ROLL_GEOFF_BODINE_WINNER_89-EV-0527                                      030.0 00:14:07:06 
*FROM CLIP NAME:  ERN_F4208_NSCR_1989-10-15_NORTH WILKESBORO-HOLLY FARMS 400 RACE B-ROLL GEOFF BODINE WINNER_89-EV-0527.NEW.01 
*SOURCE FILE: ERN_F4208_NSCR_1989-10-15_NORTH WILKESBORO-HOLLY FARMS 400 RACE B-ROLL GEOFF BODINE WINNER_89-EV-0527
001120  ERN_F4284_NSCR_1989-10-15_RACE_BROADCAST_NORTH_WILKESBORO_HOLLY_FARMS_400_89-EV-0736                                              A22   C        01:31:10:10 01:31:10:26 00:23:43:18 00:23:44:06 
M2      ERN_F4284_NSCR_1989-10-15_RACE_BROADCAST_NORTH_WILKESBORO_HOLLY_FARMS_400_89-EV-0736                                                       030.0 01:31:10:10 
*FROM CLIP NAME:  ERN_F4215_NSCR_1989-10-15_NORTH WILKESBORO-HOLLY FARMS 400 ESPN RACE BROADCAST_89-EV-0736.NEW.01 
*TO CLIP NAME:  ERN_F4215_NSCR_1989-10-15_NORTH WILKESBORO-HOLLY FARMS 400 ESPN RACE BROADCAST_89-EV-0736.NEW.01 
*SOURCE FILE: ERN_F4284_NSCR_1989-10-15_RACE BROADCAST NORTH WILKESBORO HOLLY FARMS 400_89-EV-0736
001121  ERN_F4284_NSCR_1989-10-15_RACE_BROADCAST_NORTH_WILKESBORO_HOLLY_FARMS_400_89-EV-0736                                              A22   C        01:31:10:25 01:31:15:03 00:23:44:06 00:23:48:12 
M2      ERN_F4284_NSCR_1989-10-15_RACE_BROADCAST_NORTH_WILKESBORO_HOLLY_FARMS_400_89-EV-0736                                                       030.0 01:31:10:25 
*FROM CLIP NAME:  ERN_F4215_NSCR_1989-10-15_NORTH WILKESBORO-HOLLY FARMS 400 ESPN RACE BROADCAST_89-EV-0736.NEW.01 
*SOURCE FILE: ERN_F4284_NSCR_1989-10-15_RACE BROADCAST NORTH WILKESBORO HOLLY FARMS 400_89-EV-0736
001122  ERN_F4284_NSCR_1989-10-15_RACE_BROADCAST_NORTH_WILKESBORO_HOLLY_FARMS_400_89-EV-0736                                              V     C        01:31:11:11 01:31:22:19 00:23:44:19 00:23:56:01 
M2      ERN_F4284_NSCR_1989-10-15_RACE_BROADCAST_NORTH_WILKESBORO_HOLLY_FARMS_400_89-EV-0736                                                       030.0 01:31:11:11 
*FROM CLIP NAME:  ERN_F4215_NSCR_1989-10-15_NORTH WILKESBORO-HOLLY FARMS 400 ESPN RACE BROADCAST_89-EV-0736.NEW.01 
*SOURCE FILE: ERN_F4284_NSCR_1989-10-15_RACE BROADCAST NORTH WILKESBORO HOLLY FARMS 400_89-EV-0736
001123  ERN_F4284_NSCR_1989-10-15_RACE_BROADCAST_NORTH_WILKESBORO_HOLLY_FARMS_400_89-EV-0736                                              A22   C        01:31:15:02 01:31:18:18 00:23:48:12 00:23:52:00 
M2      ERN_F4284_NSCR_1989-10-15_RACE_BROADCAST_NORTH_WILKESBORO_HOLLY_FARMS_400_89-EV-0736                                                       030.0 01:31:15:02 
*FROM CLIP NAME:  ERN_F4215_NSCR_1989-10-15_NORTH WILKESBORO-HOLLY FARMS 400 ESPN RACE BROADCAST_89-EV-0736.NEW.01 
*SOURCE FILE: ERN_F4284_NSCR_1989-10-15_RACE BROADCAST NORTH WILKESBORO HOLLY FARMS 400_89-EV-0736
001124  ERN_F4284_NSCR_1989-10-15_RACE_BROADCAST_NORTH_WILKESBORO_HOLLY_FARMS_400_89-EV-0736                                              A22   C        01:31:18:17 01:31:19:18 00:23:52:00 00:23:53:00 
M2      ERN_F4284_NSCR_1989-10-15_RACE_BROADCAST_NORTH_WILKESBORO_HOLLY_FARMS_400_89-EV-0736                                                       030.0 01:31:18:17 
*FROM CLIP NAME:  ERN_F4215_NSCR_1989-10-15_NORTH WILKESBORO-HOLLY FARMS 400 ESPN RACE BROADCAST_89-EV-0736.NEW.01 
*TO CLIP NAME:  ERN_F4215_NSCR_1989-10-15_NORTH WILKESBORO-HOLLY FARMS 400 ESPN RACE BROADCAST_89-EV-0736.NEW.01 
*SOURCE FILE: ERN_F4284_NSCR_1989-10-15_RACE BROADCAST NORTH WILKESBORO HOLLY FARMS 400_89-EV-0736
001125  ERN_F4284_NSCR_1989-10-15_RACE_BROADCAST_NORTH_WILKESBORO_HOLLY_FARMS_400_89-EV-0736                                              A22   C        01:31:19:17 01:31:19:27 00:23:53:00 00:23:53:07 
M2      ERN_F4284_NSCR_1989-10-15_RACE_BROADCAST_NORTH_WILKESBORO_HOLLY_FARMS_400_89-EV-0736                                                       030.0 01:31:19:17 
*FROM CLIP NAME:  ERN_F4215_NSCR_1989-10-15_NORTH WILKESBORO-HOLLY FARMS 400 ESPN RACE BROADCAST_89-EV-0736.NEW.01 
*SOURCE FILE: ERN_F4284_NSCR_1989-10-15_RACE BROADCAST NORTH WILKESBORO HOLLY FARMS 400_89-EV-0736
001126  ERN_S3411_DICK_1989_DESR_INTERVIEWED_BY_MEDIA_EARNHARDT016.JPG                                                                    V     C        01:00:00:00 01:00:04:04 00:23:56:01 00:24:00:05 
*FROM CLIP NAME:  ERN_S3411_DICK_1989_DESR INTERVIEWED BY MEDIA_EARNHARDT016.JPG 
*SOURCE FILE: ERN_S3411_DICK_1989_DESR INTERVIEWED BY MEDIA_EARNHARDT016.JPG
001127  ERN_S8190_NEWS_1989-10-16_HEADLINE_ANGRY_EXCHANGE_FOLLOWS_LEADERS_LAST_LAP_TANGLE_&_CLASH_COSTLY_TO_EARNHARDT_M.JPG               V     C        01:00:00:00 01:00:01:12 00:23:56:07 00:23:57:19 
*FROM CLIP NAME:  ERN_S8190_NEWS_1989-10-16_HEADLINE ANGRY EXCHANGE FOLLOWS LEADERS LAST LAP TANGLE & CLASH COSTLY TO EARNHARDT_M.JPG 
*SOURCE FILE: ERN_S8190_NEWS_1989-10-16_HEADLINE ANGRY EXCHANGE FOLLOWS LEADERS LAST LAP TANGLE & CLASH COSTLY TO EARNHARDT_M.JPG
001128  ERN_S8190_NEWS_1989-10-16_HEADLINE_ANGRY_EXCHANGE_FOLLOWS_LEADERS_LAST_LAP_TANGLE_&_CLASH_COSTLY_TO_EARNHARDT_M.JPG               V     C        01:00:01:12 01:00:03:22 00:23:57:19 00:24:00:05 
*FROM CLIP NAME:  ERN_S8190_NEWS_1989-10-16_HEADLINE ANGRY EXCHANGE FOLLOWS LEADERS LAST LAP TANGLE & CLASH COSTLY TO EARNHARDT_M.JPG 
*SOURCE FILE: ERN_S8190_NEWS_1989-10-16_HEADLINE ANGRY EXCHANGE FOLLOWS LEADERS LAST LAP TANGLE & CLASH COSTLY TO EARNHARDT_M.JPG
001129  ERN_S3564_DICK_1989_DUPLICATE_S3563_DC_-_DALE_EARNHARDT209.JPG                                                                    V     C        01:00:00:00 01:00:05:15 00:24:00:05 00:24:05:20 
*FROM CLIP NAME:  ERN_S3564_DICK_1989_DUPLICATE S3563_DC - DALE EARNHARDT209.JPG 
*SOURCE FILE: ERN_S3564_DICK_1989_DUPLICATE S3563_DC - DALE EARNHARDT209.JPG
001130  ERN_S8202_NEWS_1989-10-22_HEADLINE_EARNHARDT_CALMS_DOWN_AFTER_WRECK_M.JPG                                                         V     C        01:00:00:05 01:00:01:17 00:24:00:09 00:24:01:21 
*FROM CLIP NAME:  ERN_S8202_NEWS_1989-10-22_HEADLINE EARNHARDT CALMS DOWN AFTER WRECK_M.JPG 
*SOURCE FILE: ERN_S8202_NEWS_1989-10-22_HEADLINE EARNHARDT CALMS DOWN AFTER WRECK_M.JPG
001131  ERN_S8202_NEWS_1989-10-22_HEADLINE_EARNHARDT_CALMS_DOWN_AFTER_WRECK_M.JPG                                                         V     C        01:00:01:17 01:00:05:16 00:24:01:21 00:24:05:20 
*FROM CLIP NAME:  ERN_S8202_NEWS_1989-10-22_HEADLINE EARNHARDT CALMS DOWN AFTER WRECK_M.JPG 
*SOURCE FILE: ERN_S8202_NEWS_1989-10-22_HEADLINE EARNHARDT CALMS DOWN AFTER WRECK_M.JPG
001132  ERN_F0642_NSCR_1989-11-19_DESR_RACE_RUSTY_WALLACE_NASCAR_CUP_SERIES_-_ATLANTA_1_OF_2_89-EV-0709                                   V     C        16:31:52:14 16:31:58:29 00:24:05:20 00:24:12:07 
M2      ERN_F0642_NSCR_1989-11-19_DESR_RACE_RUSTY_WALLACE_NASCAR_CUP_SERIES_-_ATLANTA_1_OF_2_89-EV-0709                                            030.0 16:31:52:14 
*FROM CLIP NAME:  ERN_F0642_NSCR_1989-11-19_DESR RACE RUSTY WALLACE NASCAR CUP SERIES - ATLANTA 1 OF 2_89-EV-0709.NEW.01 
*SOURCE FILE: ERN_F0642_NSCR_1989-11-19_DESR RACE RUSTY WALLACE NASCAR CUP SERIES - ATLANTA 1 OF 2_89-EV-0709
001133  ERN_F0304_NSCR_1990-04-04_RACE_B-ROLL_DALE_EARNHARDT_KEN_SCHRADER_ERNIE_IRVAN_DARRELL_WALTRIP_DALE_JARRETT_SE005941_S003          A20   C        00:15:27:26 00:15:29:12 00:24:11:18 00:24:13:06 
M2      ERN_F0304_NSCR_1990-04-04_RACE_B-ROLL_DALE_EARNHARDT_KEN_SCHRADER_ERNIE_IRVAN_DARRELL_WALTRIP_DALE_JARRETT_SE005941_S003                   030.0 00:15:27:26 
*FROM CLIP NAME:  ERN_F0304_NSCR_1990-04-04_RACE B-ROLL DALE EARNHARDT KEN SCHRADER ERNIE IRVAN DARRELL WALTRIP DALE JARRETT_SE005941_S003.NEW.01 
*SOURCE FILE: ERN_F0304_NSCR_1990-04-04_RACE B-ROLL DALE EARNHARDT KEN SCHRADER ERNIE IRVAN DARRELL WALTRIP DALE JARRETT_SE005941_S003
001134  ERN_F0304_NSCR_1990-04-04_RACE_B-ROLL_DALE_EARNHARDT_KEN_SCHRADER_ERNIE_IRVAN_DARRELL_WALTRIP_DALE_JARRETT_SE005941_S003          V     C        00:15:27:24 00:15:38:01 00:24:12:07 00:24:25:01 
M2      ERN_F0304_NSCR_1990-04-04_RACE_B-ROLL_DALE_EARNHARDT_KEN_SCHRADER_ERNIE_IRVAN_DARRELL_WALTRIP_DALE_JARRETT_SE005941_S003                   024.0 00:15:27:24 
*FROM CLIP NAME:  ERN_F0304_NSCR_1990-04-04_RACE B-ROLL DALE EARNHARDT KEN SCHRADER ERNIE IRVAN DARRELL WALTRIP DALE JARRETT_SE005941_S003.NEW.01 
*SOURCE FILE: ERN_F0304_NSCR_1990-04-04_RACE B-ROLL DALE EARNHARDT KEN SCHRADER ERNIE IRVAN DARRELL WALTRIP DALE JARRETT_SE005941_S003
001135  ERN_F0304_NSCR_1990-04-04_RACE_B-ROLL_DALE_EARNHARDT_KEN_SCHRADER_ERNIE_IRVAN_DARRELL_WALTRIP_DALE_JARRETT_SE005941_S003          A20   C        00:15:29:11 00:15:29:17 00:24:13:06 00:24:13:10 
M2      ERN_F0304_NSCR_1990-04-04_RACE_B-ROLL_DALE_EARNHARDT_KEN_SCHRADER_ERNIE_IRVAN_DARRELL_WALTRIP_DALE_JARRETT_SE005941_S003                   030.0 00:15:29:11 
*FROM CLIP NAME:  ERN_F0304_NSCR_1990-04-04_RACE B-ROLL DALE EARNHARDT KEN SCHRADER ERNIE IRVAN DARRELL WALTRIP DALE JARRETT_SE005941_S003.NEW.01 
*SOURCE FILE: ERN_F0304_NSCR_1990-04-04_RACE B-ROLL DALE EARNHARDT KEN SCHRADER ERNIE IRVAN DARRELL WALTRIP DALE JARRETT_SE005941_S003
001136  ERN_F0304_NSCR_1990-04-04_RACE_B-ROLL_DALE_EARNHARDT_KEN_SCHRADER_ERNIE_IRVAN_DARRELL_WALTRIP_DALE_JARRETT_SE005941_S003          A20   C        00:15:29:16 00:15:31:17 00:24:13:10 00:24:15:10 
M2      ERN_F0304_NSCR_1990-04-04_RACE_B-ROLL_DALE_EARNHARDT_KEN_SCHRADER_ERNIE_IRVAN_DARRELL_WALTRIP_DALE_JARRETT_SE005941_S003                   030.0 00:15:29:16 
*FROM CLIP NAME:  ERN_F0304_NSCR_1990-04-04_RACE B-ROLL DALE EARNHARDT KEN SCHRADER ERNIE IRVAN DARRELL WALTRIP DALE JARRETT_SE005941_S003.NEW.01 
*TO CLIP NAME:  ERN_F0304_NSCR_1990-04-04_RACE B-ROLL DALE EARNHARDT KEN SCHRADER ERNIE IRVAN DARRELL WALTRIP DALE JARRETT_SE005941_S003.NEW.01 
*SOURCE FILE: ERN_F0304_NSCR_1990-04-04_RACE B-ROLL DALE EARNHARDT KEN SCHRADER ERNIE IRVAN DARRELL WALTRIP DALE JARRETT_SE005941_S003
001137  ERN_F2722__2007-03-23_BONNET_INTV_SE003125                                                                                        A18   C        00:03:58:29 00:03:59:03 00:24:14:04 00:24:14:06 
M2      ERN_F2722__2007-03-23_BONNET_INTV_SE003125                                                                                                 030.0 00:03:58:29 
*FROM CLIP NAME:  ERN_F2722__2007-03-23_BONNET INTV_SE003125.NEW.01 
*SOURCE FILE: ERN_F2722__2007-03-23_BONNET INTV_SE003125
001138  ERN_F2722__2007-03-23_BONNET_INTV_SE003125                                                                                        A18   C        00:03:59:02 00:04:03:02 00:24:14:06 00:24:18:04 
M2      ERN_F2722__2007-03-23_BONNET_INTV_SE003125                                                                                                 030.0 00:03:59:02 
*FROM CLIP NAME:  ERN_F2722__2007-03-23_BONNET INTV_SE003125.NEW.01 
*SOURCE FILE: ERN_F2722__2007-03-23_BONNET INTV_SE003125
001139  ERN_F0304_NSCR_1990-04-04_RACE_B-ROLL_DALE_EARNHARDT_KEN_SCHRADER_ERNIE_IRVAN_DARRELL_WALTRIP_DALE_JARRETT_SE005941_S003          A20   C        00:15:31:16 00:15:39:27 00:24:15:10 00:24:23:18 
M2      ERN_F0304_NSCR_1990-04-04_RACE_B-ROLL_DALE_EARNHARDT_KEN_SCHRADER_ERNIE_IRVAN_DARRELL_WALTRIP_DALE_JARRETT_SE005941_S003                   030.0 00:15:31:16 
*FROM CLIP NAME:  ERN_F0304_NSCR_1990-04-04_RACE B-ROLL DALE EARNHARDT KEN SCHRADER ERNIE IRVAN DARRELL WALTRIP DALE JARRETT_SE005941_S003.NEW.01 
*SOURCE FILE: ERN_F0304_NSCR_1990-04-04_RACE B-ROLL DALE EARNHARDT KEN SCHRADER ERNIE IRVAN DARRELL WALTRIP DALE JARRETT_SE005941_S003
001140  ERN_F2722__2007-03-23_BONNET_INTV_SE003125                                                                                        A18   C        00:04:03:11 00:04:03:17 00:24:19:12 00:24:19:16 
M2      ERN_F2722__2007-03-23_BONNET_INTV_SE003125                                                                                                 030.0 00:04:03:11 
*FROM CLIP NAME:  ERN_F2722__2007-03-23_BONNET INTV_SE003125.NEW.01 
*SOURCE FILE: ERN_F2722__2007-03-23_BONNET INTV_SE003125
001141  ERN_F2722__2007-03-23_BONNET_INTV_SE003125                                                                                        A18   C        00:04:03:16 00:04:05:22 00:24:19:16 00:24:21:20 
M2      ERN_F2722__2007-03-23_BONNET_INTV_SE003125                                                                                                 030.0 00:04:03:16 
*FROM CLIP NAME:  ERN_F2722__2007-03-23_BONNET INTV_SE003125.NEW.01 
*SOURCE FILE: ERN_F2722__2007-03-23_BONNET INTV_SE003125
001142  ERN_F2722__2007-03-23_BONNET_INTV_SE003125                                                                                        A18   C        00:03:39:12 00:03:40:03 00:24:24:21 00:24:25:13 
M2      ERN_F2722__2007-03-23_BONNET_INTV_SE003125                                                                                                 030.0 00:03:39:12 
*FROM CLIP NAME:  ERN_F2722__2007-03-23_BONNET INTV_SE003125.NEW.01 
*SOURCE FILE: ERN_F2722__2007-03-23_BONNET INTV_SE003125
001143  ERN_F2722__2007-03-23_BONNET_INTV_SE003125                                                                                        V     C        00:03:39:17 00:03:47:26 00:24:25:01 00:24:33:08 
M2      ERN_F2722__2007-03-23_BONNET_INTV_SE003125                                                                                                 030.0 00:03:39:17 
*FROM CLIP NAME:  ERN_F2722__2007-03-23_BONNET INTV_SE003125.NEW.01 
*SOURCE FILE: ERN_F2722__2007-03-23_BONNET INTV_SE003125
001144  ERN_F2722__2007-03-23_BONNET_INTV_SE003125                                                                                        A18   C        00:03:40:02 00:03:47:19 00:24:25:13 00:24:33:02 
M2      ERN_F2722__2007-03-23_BONNET_INTV_SE003125                                                                                                 030.0 00:03:40:02 
*FROM CLIP NAME:  ERN_F2722__2007-03-23_BONNET INTV_SE003125.NEW.01 
*SOURCE FILE: ERN_F2722__2007-03-23_BONNET INTV_SE003125
001145  ERN_F0653_NSCR_1990-01-04_DESR_RACE_NASCAR_CUP_SERIES_-_DARLINGTON_90-EV-0664                                                     A24   C        01:08:28:08 01:08:29:17 00:24:32:22 00:24:34:04 
M2      ERN_F0653_NSCR_1990-01-04_DESR_RACE_NASCAR_CUP_SERIES_-_DARLINGTON_90-EV-0664                                                              030.0 01:08:28:08 
*FROM CLIP NAME:  ERN_F0653_NSCR_1990-01-04_DESR RACE NASCAR CUP SERIES - DARLINGTON_90-EV-0664.NEW.01 
*SOURCE FILE: ERN_F0653_NSCR_1990-01-04_DESR RACE NASCAR CUP SERIES - DARLINGTON_90-EV-0664
001146  ERN_F9383_NSCR_1989-09-17_RACE_BROADCAST_CLEAN_DOVER_PEAK_PERFORMANCE_500_NEIL_BONNETT_ACCIDENT_89-EV-0476D                       V     C        01:03:43:20 01:03:55:10 00:24:33:08 00:24:40:15 
M2      ERN_F9383_NSCR_1989-09-17_RACE_BROADCAST_CLEAN_DOVER_PEAK_PERFORMANCE_500_NEIL_BONNETT_ACCIDENT_89-EV-0476D                                048.0 01:03:43:20 
*FROM CLIP NAME:  ERN_F9383_NSCR_1989-09-17_RACE BROADCAST CLEAN DOVER PEAK PERFORMANCE 500 NEIL BONNETT ACCIDENT_89-EV-0476D.NEW.01 
*SOURCE FILE: ERN_F9383_NSCR_1989-09-17_RACE BROADCAST CLEAN DOVER PEAK PERFORMANCE 500 NEIL BONNETT ACCIDENT_89-EV-0476D
001147  ERN_F0653_NSCR_1990-01-04_DESR_RACE_NASCAR_CUP_SERIES_-_DARLINGTON_90-EV-0664                                                     A24   C        01:08:29:16 01:08:29:23 00:24:34:04 00:24:34:09 
M2      ERN_F0653_NSCR_1990-01-04_DESR_RACE_NASCAR_CUP_SERIES_-_DARLINGTON_90-EV-0664                                                              030.0 01:08:29:16 
*FROM CLIP NAME:  ERN_F0653_NSCR_1990-01-04_DESR RACE NASCAR CUP SERIES - DARLINGTON_90-EV-0664.NEW.01 
*SOURCE FILE: ERN_F0653_NSCR_1990-01-04_DESR RACE NASCAR CUP SERIES - DARLINGTON_90-EV-0664
001148  ERN_F0653_NSCR_1990-01-04_DESR_RACE_NASCAR_CUP_SERIES_-_DARLINGTON_90-EV-0664                                                     A24   C        01:08:29:22 01:08:31:08 00:24:34:09 00:24:35:21 
M2      ERN_F0653_NSCR_1990-01-04_DESR_RACE_NASCAR_CUP_SERIES_-_DARLINGTON_90-EV-0664                                                              030.0 01:08:29:22 
*FROM CLIP NAME:  ERN_F0653_NSCR_1990-01-04_DESR RACE NASCAR CUP SERIES - DARLINGTON_90-EV-0664.NEW.01 
*TO CLIP NAME:  ERN_F0653_NSCR_1990-01-04_DESR RACE NASCAR CUP SERIES - DARLINGTON_90-EV-0664.NEW.01 
*SOURCE FILE: ERN_F0653_NSCR_1990-01-04_DESR RACE NASCAR CUP SERIES - DARLINGTON_90-EV-0664
001149  ERN_F8970_NSCR_1989-10-22_RACE_BROADCAST_ROCKINGHAM_AC_DELCO_500_WALTRIP_DESR_RUDD_BONNETT_WALLACE_ISC-00604                      A20   C        02:07:19:22 02:07:19:25 00:24:35:07 00:24:35:09 
M2      ERN_F8970_NSCR_1989-10-22_RACE_BROADCAST_ROCKINGHAM_AC_DELCO_500_WALTRIP_DESR_RUDD_BONNETT_WALLACE_ISC-00604                               030.0 02:07:19:22 
*FROM CLIP NAME:  ERN_F8970_NSCR_1989-10-22_RACE BROADCAST ROCKINGHAM AC DELCO 500 WALTRIP DESR RUDD BONNETT WALLACE_ISC-00604.NEW.01 
*SOURCE FILE: ERN_F8970_NSCR_1989-10-22_RACE BROADCAST ROCKINGHAM AC DELCO 500 WALTRIP DESR RUDD BONNETT WALLACE_ISC-00604
001150  ERN_F8970_NSCR_1989-10-22_RACE_BROADCAST_ROCKINGHAM_AC_DELCO_500_WALTRIP_DESR_RUDD_BONNETT_WALLACE_ISC-00604                      A20   C        02:07:19:25 02:07:24:07 00:24:35:09 00:24:39:18 
M2      ERN_F8970_NSCR_1989-10-22_RACE_BROADCAST_ROCKINGHAM_AC_DELCO_500_WALTRIP_DESR_RUDD_BONNETT_WALLACE_ISC-00604                               030.0 02:07:19:25 
*FROM CLIP NAME:  ERN_F8970_NSCR_1989-10-22_RACE BROADCAST ROCKINGHAM AC DELCO 500 WALTRIP DESR RUDD BONNETT WALLACE_ISC-00604.NEW.01 
*SOURCE FILE: ERN_F8970_NSCR_1989-10-22_RACE BROADCAST ROCKINGHAM AC DELCO 500 WALTRIP DESR RUDD BONNETT WALLACE_ISC-00604
001151  ERN_F0653_NSCR_1990-01-04_DESR_RACE_NASCAR_CUP_SERIES_-_DARLINGTON_90-EV-0664                                                     A24   C        01:08:31:07 01:08:34:27 00:24:35:21 00:24:39:12 
M2      ERN_F0653_NSCR_1990-01-04_DESR_RACE_NASCAR_CUP_SERIES_-_DARLINGTON_90-EV-0664                                                              030.0 01:08:31:07 
*FROM CLIP NAME:  ERN_F0653_NSCR_1990-01-04_DESR RACE NASCAR CUP SERIES - DARLINGTON_90-EV-0664.NEW.01 
*SOURCE FILE: ERN_F0653_NSCR_1990-01-04_DESR RACE NASCAR CUP SERIES - DARLINGTON_90-EV-0664
001152  ERN_F9383_NSCR_1989-09-17_RACE_BROADCAST_CLEAN_DOVER_PEAK_PERFORMANCE_500_NEIL_BONNETT_ACCIDENT_89-EV-0476D                       A22   C        01:09:54:19 01:09:55:20 00:24:40:03 00:24:41:03 
M2      ERN_F9383_NSCR_1989-09-17_RACE_BROADCAST_CLEAN_DOVER_PEAK_PERFORMANCE_500_NEIL_BONNETT_ACCIDENT_89-EV-0476D                                030.0 01:09:54:19 
*FROM CLIP NAME:  ERN_F9383_NSCR_1989-09-17_RACE BROADCAST CLEAN DOVER PEAK PERFORMANCE 500 NEIL BONNETT ACCIDENT_89-EV-0476D.NEW.01 
*SOURCE FILE: ERN_F9383_NSCR_1989-09-17_RACE BROADCAST CLEAN DOVER PEAK PERFORMANCE 500 NEIL BONNETT ACCIDENT_89-EV-0476D
001153  ERN_F8970_NSCR_1989-10-22_RACE_BROADCAST_ROCKINGHAM_AC_DELCO_500_WALTRIP_DESR_RUDD_BONNETT_WALLACE_ISC-00604                      A20   C        02:07:29:28 02:07:33:05 00:24:40:04 00:24:43:09 
M2      ERN_F8970_NSCR_1989-10-22_RACE_BROADCAST_ROCKINGHAM_AC_DELCO_500_WALTRIP_DESR_RUDD_BONNETT_WALLACE_ISC-00604                               030.0 02:07:29:28 
*FROM CLIP NAME:  ERN_F8970_NSCR_1989-10-22_RACE BROADCAST ROCKINGHAM AC DELCO 500 WALTRIP DESR RUDD BONNETT WALLACE_ISC-00604.NEW.01 
*SOURCE FILE: ERN_F8970_NSCR_1989-10-22_RACE BROADCAST ROCKINGHAM AC DELCO 500 WALTRIP DESR RUDD BONNETT WALLACE_ISC-00604
001154  ERN_F9383_NSCR_1989-09-17_RACE_BROADCAST_CLEAN_DOVER_PEAK_PERFORMANCE_500_NEIL_BONNETT_ACCIDENT_89-EV-0476D                       V     C        01:09:53:14 01:10:02:29 00:24:40:15 00:24:50:02 
M2      ERN_F9383_NSCR_1989-09-17_RACE_BROADCAST_CLEAN_DOVER_PEAK_PERFORMANCE_500_NEIL_BONNETT_ACCIDENT_89-EV-0476D                                030.0 01:09:53:14 
*FROM CLIP NAME:  ERN_F9383_NSCR_1989-09-17_RACE BROADCAST CLEAN DOVER PEAK PERFORMANCE 500 NEIL BONNETT ACCIDENT_89-EV-0476D.NEW.01 
*SOURCE FILE: ERN_F9383_NSCR_1989-09-17_RACE BROADCAST CLEAN DOVER PEAK PERFORMANCE 500 NEIL BONNETT ACCIDENT_89-EV-0476D
001155  ERN_F9383_NSCR_1989-09-17_RACE_BROADCAST_CLEAN_DOVER_PEAK_PERFORMANCE_500_NEIL_BONNETT_ACCIDENT_89-EV-0476D                       A22   C        01:09:55:19 01:10:00:00 00:24:41:03 00:24:45:11 
M2      ERN_F9383_NSCR_1989-09-17_RACE_BROADCAST_CLEAN_DOVER_PEAK_PERFORMANCE_500_NEIL_BONNETT_ACCIDENT_89-EV-0476D                                030.0 01:09:55:19 
*FROM CLIP NAME:  ERN_F9383_NSCR_1989-09-17_RACE BROADCAST CLEAN DOVER PEAK PERFORMANCE 500 NEIL BONNETT ACCIDENT_89-EV-0476D.NEW.01 
*SOURCE FILE: ERN_F9383_NSCR_1989-09-17_RACE BROADCAST CLEAN DOVER PEAK PERFORMANCE 500 NEIL BONNETT ACCIDENT_89-EV-0476D
001156  ERN_F9550_NSCR_1988-04-08_RACE_TRACK_INTV_SUSAN_BONNETT_BRISTOL_PRACTICE_88-EV-0527                                               A18   C        01:30:50:11 01:30:51:02 00:24:43:15 00:24:44:07 
M2      ERN_F9550_NSCR_1988-04-08_RACE_TRACK_INTV_SUSAN_BONNETT_BRISTOL_PRACTICE_88-EV-0527                                                        030.0 01:30:50:11 
*FROM CLIP NAME:  ERN_F9550_NSCR_1988-04-08_RACE TRACK INTV SUSAN BONNETT BRISTOL PRACTICE_88-EV-0527.NEW.01 
*SOURCE FILE: ERN_F9550_NSCR_1988-04-08_RACE TRACK INTV SUSAN BONNETT BRISTOL PRACTICE_88-EV-0527
001157  ERN_F9550_NSCR_1988-04-08_RACE_TRACK_INTV_SUSAN_BONNETT_BRISTOL_PRACTICE_88-EV-0527                                               A18   C        01:30:51:01 01:30:53:11 00:24:44:07 00:24:46:14 
M2      ERN_F9550_NSCR_1988-04-08_RACE_TRACK_INTV_SUSAN_BONNETT_BRISTOL_PRACTICE_88-EV-0527                                                        030.0 01:30:51:01 
*FROM CLIP NAME:  ERN_F9550_NSCR_1988-04-08_RACE TRACK INTV SUSAN BONNETT BRISTOL PRACTICE_88-EV-0527.NEW.01 
*SOURCE FILE: ERN_F9550_NSCR_1988-04-08_RACE TRACK INTV SUSAN BONNETT BRISTOL PRACTICE_88-EV-0527
001158  ERN_F9383_NSCR_1989-09-17_RACE_BROADCAST_CLEAN_DOVER_PEAK_PERFORMANCE_500_NEIL_BONNETT_ACCIDENT_89-EV-0476D                       A20   C        01:12:49:15 01:12:51:00 00:24:45:13 00:24:47:01 
M2      ERN_F9383_NSCR_1989-09-17_RACE_BROADCAST_CLEAN_DOVER_PEAK_PERFORMANCE_500_NEIL_BONNETT_ACCIDENT_89-EV-0476D                                030.0 01:12:49:15 
*FROM CLIP NAME:  ERN_F9383_NSCR_1989-09-17_RACE BROADCAST CLEAN DOVER PEAK PERFORMANCE 500 NEIL BONNETT ACCIDENT_89-EV-0476D.NEW.01 
*SOURCE FILE: ERN_F9383_NSCR_1989-09-17_RACE BROADCAST CLEAN DOVER PEAK PERFORMANCE 500 NEIL BONNETT ACCIDENT_89-EV-0476D
001159  ERN_F9550_NSCR_1988-04-08_RACE_TRACK_INTV_SUSAN_BONNETT_BRISTOL_PRACTICE_88-EV-0527                                               A18   C        01:31:10:12 01:31:10:17 00:24:46:14 00:24:46:17 
M2      ERN_F9550_NSCR_1988-04-08_RACE_TRACK_INTV_SUSAN_BONNETT_BRISTOL_PRACTICE_88-EV-0527                                                        030.0 01:31:10:12 
*FROM CLIP NAME:  ERN_F9550_NSCR_1988-04-08_RACE TRACK INTV SUSAN BONNETT BRISTOL PRACTICE_88-EV-0527.NEW.01 
*TO CLIP NAME:  ERN_F9550_NSCR_1988-04-08_RACE TRACK INTV SUSAN BONNETT BRISTOL PRACTICE_88-EV-0527.NEW.01 
*SOURCE FILE: ERN_F9550_NSCR_1988-04-08_RACE TRACK INTV SUSAN BONNETT BRISTOL PRACTICE_88-EV-0527
001160  ERN_F9550_NSCR_1988-04-08_RACE_TRACK_INTV_SUSAN_BONNETT_BRISTOL_PRACTICE_88-EV-0527                                               A18   C        01:31:10:16 01:31:10:27 00:24:46:17 00:24:47:01 
M2      ERN_F9550_NSCR_1988-04-08_RACE_TRACK_INTV_SUSAN_BONNETT_BRISTOL_PRACTICE_88-EV-0527                                                        030.0 01:31:10:16 
*FROM CLIP NAME:  ERN_F9550_NSCR_1988-04-08_RACE TRACK INTV SUSAN BONNETT BRISTOL PRACTICE_88-EV-0527.NEW.01 
*SOURCE FILE: ERN_F9550_NSCR_1988-04-08_RACE TRACK INTV SUSAN BONNETT BRISTOL PRACTICE_88-EV-0527
001161  ERN_F9550_NSCR_1988-04-08_RACE_TRACK_INTV_SUSAN_BONNETT_BRISTOL_PRACTICE_88-EV-0527                                               A18   C        01:31:07:20 01:31:07:23 00:24:47:01 00:24:47:03 
M2      ERN_F9550_NSCR_1988-04-08_RACE_TRACK_INTV_SUSAN_BONNETT_BRISTOL_PRACTICE_88-EV-0527                                                        030.0 01:31:07:20 
*FROM CLIP NAME:  ERN_F9550_NSCR_1988-04-08_RACE TRACK INTV SUSAN BONNETT BRISTOL PRACTICE_88-EV-0527.NEW.01 
*TO CLIP NAME:  ERN_F9550_NSCR_1988-04-08_RACE TRACK INTV SUSAN BONNETT BRISTOL PRACTICE_88-EV-0527.NEW.01 
*SOURCE FILE: ERN_F9550_NSCR_1988-04-08_RACE TRACK INTV SUSAN BONNETT BRISTOL PRACTICE_88-EV-0527
001162  ERN_F9383_NSCR_1989-09-17_RACE_BROADCAST_CLEAN_DOVER_PEAK_PERFORMANCE_500_NEIL_BONNETT_ACCIDENT_89-EV-0476D                       A20   C        01:12:51:00 01:12:53:13 00:24:47:01 00:24:49:11 
M2      ERN_F9383_NSCR_1989-09-17_RACE_BROADCAST_CLEAN_DOVER_PEAK_PERFORMANCE_500_NEIL_BONNETT_ACCIDENT_89-EV-0476D                                030.0 01:12:51:00 
*FROM CLIP NAME:  ERN_F9383_NSCR_1989-09-17_RACE BROADCAST CLEAN DOVER PEAK PERFORMANCE 500 NEIL BONNETT ACCIDENT_89-EV-0476D.NEW.01 
*SOURCE FILE: ERN_F9383_NSCR_1989-09-17_RACE BROADCAST CLEAN DOVER PEAK PERFORMANCE 500 NEIL BONNETT ACCIDENT_89-EV-0476D
001163  ERN_F9550_NSCR_1988-04-08_RACE_TRACK_INTV_SUSAN_BONNETT_BRISTOL_PRACTICE_88-EV-0527                                               A18   C        01:31:07:22 01:31:10:27 00:24:47:03 00:24:50:06 
M2      ERN_F9550_NSCR_1988-04-08_RACE_TRACK_INTV_SUSAN_BONNETT_BRISTOL_PRACTICE_88-EV-0527                                                        030.0 01:31:07:22 
*FROM CLIP NAME:  ERN_F9550_NSCR_1988-04-08_RACE TRACK INTV SUSAN BONNETT BRISTOL PRACTICE_88-EV-0527.NEW.01 
*SOURCE FILE: ERN_F9550_NSCR_1988-04-08_RACE TRACK INTV SUSAN BONNETT BRISTOL PRACTICE_88-EV-0527
001164  ERN_F9550_NSCR_1988-04-08_RACE_TRACK_INTV_SUSAN_BONNETT_BRISTOL_PRACTICE_88-EV-0527                                               V     C        01:31:18:05 01:31:22:08 00:24:50:02 00:24:54:04 
M2      ERN_F9550_NSCR_1988-04-08_RACE_TRACK_INTV_SUSAN_BONNETT_BRISTOL_PRACTICE_88-EV-0527                                                        030.0 01:31:18:05 
*FROM CLIP NAME:  ERN_F9550_NSCR_1988-04-08_RACE TRACK INTV SUSAN BONNETT BRISTOL PRACTICE_88-EV-0527.NEW.01 
*SOURCE FILE: ERN_F9550_NSCR_1988-04-08_RACE TRACK INTV SUSAN BONNETT BRISTOL PRACTICE_88-EV-0527
001165  ERN_F9550_NSCR_1988-04-08_RACE_TRACK_INTV_SUSAN_BONNETT_BRISTOL_PRACTICE_88-EV-0527                                               A18   C        01:31:18:10 01:31:24:11 00:24:50:06 00:24:56:06 
M2      ERN_F9550_NSCR_1988-04-08_RACE_TRACK_INTV_SUSAN_BONNETT_BRISTOL_PRACTICE_88-EV-0527                                                        030.0 01:31:18:10 
*FROM CLIP NAME:  ERN_F9550_NSCR_1988-04-08_RACE TRACK INTV SUSAN BONNETT BRISTOL PRACTICE_88-EV-0527.NEW.01 
*SOURCE FILE: ERN_F9550_NSCR_1988-04-08_RACE TRACK INTV SUSAN BONNETT BRISTOL PRACTICE_88-EV-0527
001166  ERN_F8897_NSCR_1989-10-22_PRE_RACE_ROCKINGHAM_AC_DELCO_NEIL_BONNETT_ON_SIDELINE_&_AT_TRACK_89-EV-0536A_S005                       A20   C        00:16:06:00 00:16:09:16 00:24:53:20 00:24:57:08 
M2      ERN_F8897_NSCR_1989-10-22_PRE_RACE_ROCKINGHAM_AC_DELCO_NEIL_BONNETT_ON_SIDELINE_&_AT_TRACK_89-EV-0536A_S005                                030.0 00:16:06:00 
*FROM CLIP NAME:  ERN_F8897_NSCR_1989-10-22_PRE RACE ROCKINGHAM AC DELCO NEIL BONNETT ON SIDELINE & AT TRACK_89-EV-0536A_S005.NEW.01 
*SOURCE FILE: ERN_F8897_NSCR_1989-10-22_PRE RACE ROCKINGHAM AC DELCO NEIL BONNETT ON SIDELINE & AT TRACK_89-EV-0536A_S005
001167  ERN_F8897_NSCR_1989-10-22_PRE_RACE_ROCKINGHAM_AC_DELCO_NEIL_BONNETT_ON_SIDELINE_&_AT_TRACK_89-EV-0536A_S005                       V     C        00:16:07:09 00:16:16:16 00:24:54:04 00:25:03:09 
M2      ERN_F8897_NSCR_1989-10-22_PRE_RACE_ROCKINGHAM_AC_DELCO_NEIL_BONNETT_ON_SIDELINE_&_AT_TRACK_89-EV-0536A_S005                                030.0 00:16:07:09 
*FROM CLIP NAME:  ERN_F8897_NSCR_1989-10-22_PRE RACE ROCKINGHAM AC DELCO NEIL BONNETT ON SIDELINE & AT TRACK_89-EV-0536A_S005.NEW.01 
*SOURCE FILE: ERN_F8897_NSCR_1989-10-22_PRE RACE ROCKINGHAM AC DELCO NEIL BONNETT ON SIDELINE & AT TRACK_89-EV-0536A_S005
001168  ERN_F8897_NSCR_1989-10-22_PRE_RACE_ROCKINGHAM_AC_DELCO_NEIL_BONNETT_ON_SIDELINE_&_AT_TRACK_89-EV-0536A_S005                       A20   C        00:16:09:15 00:16:10:13 00:24:57:08 00:24:58:06 
M2      ERN_F8897_NSCR_1989-10-22_PRE_RACE_ROCKINGHAM_AC_DELCO_NEIL_BONNETT_ON_SIDELINE_&_AT_TRACK_89-EV-0536A_S005                                030.0 00:16:09:15 
*FROM CLIP NAME:  ERN_F8897_NSCR_1989-10-22_PRE RACE ROCKINGHAM AC DELCO NEIL BONNETT ON SIDELINE & AT TRACK_89-EV-0536A_S005.NEW.01 
*SOURCE FILE: ERN_F8897_NSCR_1989-10-22_PRE RACE ROCKINGHAM AC DELCO NEIL BONNETT ON SIDELINE & AT TRACK_89-EV-0536A_S005
001169  ERN_F8897_NSCR_1989-10-22_PRE_RACE_ROCKINGHAM_AC_DELCO_NEIL_BONNETT_ON_SIDELINE_&_AT_TRACK_89-EV-0536A_S005                       A20   C        00:16:11:11 00:16:11:17 00:24:58:06 00:24:58:10 
M2      ERN_F8897_NSCR_1989-10-22_PRE_RACE_ROCKINGHAM_AC_DELCO_NEIL_BONNETT_ON_SIDELINE_&_AT_TRACK_89-EV-0536A_S005                                030.0 00:16:11:11 
*FROM CLIP NAME:  ERN_F8897_NSCR_1989-10-22_PRE RACE ROCKINGHAM AC DELCO NEIL BONNETT ON SIDELINE & AT TRACK_89-EV-0536A_S005.NEW.01 
*TO CLIP NAME:  ERN_F8897_NSCR_1989-10-22_PRE RACE ROCKINGHAM AC DELCO NEIL BONNETT ON SIDELINE & AT TRACK_89-EV-0536A_S005.NEW.01 
*SOURCE FILE: ERN_F8897_NSCR_1989-10-22_PRE RACE ROCKINGHAM AC DELCO NEIL BONNETT ON SIDELINE & AT TRACK_89-EV-0536A_S005
001170  ERN_F8897_NSCR_1989-10-22_PRE_RACE_ROCKINGHAM_AC_DELCO_NEIL_BONNETT_ON_SIDELINE_&_AT_TRACK_89-EV-0536A_S005                       A20   C        00:16:11:16 00:16:12:06 00:24:58:10 00:24:59:01 
M2      ERN_F8897_NSCR_1989-10-22_PRE_RACE_ROCKINGHAM_AC_DELCO_NEIL_BONNETT_ON_SIDELINE_&_AT_TRACK_89-EV-0536A_S005                                030.0 00:16:11:16 
*FROM CLIP NAME:  ERN_F8897_NSCR_1989-10-22_PRE RACE ROCKINGHAM AC DELCO NEIL BONNETT ON SIDELINE & AT TRACK_89-EV-0536A_S005.NEW.01 
*SOURCE FILE: ERN_F8897_NSCR_1989-10-22_PRE RACE ROCKINGHAM AC DELCO NEIL BONNETT ON SIDELINE & AT TRACK_89-EV-0536A_S005
001171  ERN_F8897_NSCR_1989-10-22_PRE_RACE_ROCKINGHAM_AC_DELCO_NEIL_BONNETT_ON_SIDELINE_&_AT_TRACK_89-EV-0536A_S005                       A20   C        00:16:12:05 00:16:14:21 00:24:59:01 00:25:01:13 
M2      ERN_F8897_NSCR_1989-10-22_PRE_RACE_ROCKINGHAM_AC_DELCO_NEIL_BONNETT_ON_SIDELINE_&_AT_TRACK_89-EV-0536A_S005                                030.0 00:16:12:05 
*FROM CLIP NAME:  ERN_F8897_NSCR_1989-10-22_PRE RACE ROCKINGHAM AC DELCO NEIL BONNETT ON SIDELINE & AT TRACK_89-EV-0536A_S005.NEW.01 
*TO CLIP NAME:  ERN_F8897_NSCR_1989-10-22_PRE RACE ROCKINGHAM AC DELCO NEIL BONNETT ON SIDELINE & AT TRACK_89-EV-0536A_S005.NEW.01 
*SOURCE FILE: ERN_F8897_NSCR_1989-10-22_PRE RACE ROCKINGHAM AC DELCO NEIL BONNETT ON SIDELINE & AT TRACK_89-EV-0536A_S005
001172  ERN_F2721__2007-03-23_BONNET_INTV_SE003126                                                                                        A18   C        00:09:11:28 00:09:12:01 00:25:00:19 00:25:00:21 
M2      ERN_F2721__2007-03-23_BONNET_INTV_SE003126                                                                                                 030.0 00:09:11:28 
*FROM CLIP NAME:  ERN_F2721__2007-03-23_BONNET INTV_SE003126.NEW.01 
*SOURCE FILE: ERN_F2721__2007-03-23_BONNET INTV_SE003126
001173  ERN_F2721__2007-03-23_BONNET_INTV_SE003126                                                                                        A18   C        00:09:12:00 00:09:14:01 00:25:00:21 00:25:02:21 
M2      ERN_F2721__2007-03-23_BONNET_INTV_SE003126                                                                                                 030.0 00:09:12:00 
*FROM CLIP NAME:  ERN_F2721__2007-03-23_BONNET INTV_SE003126.NEW.01 
*SOURCE FILE: ERN_F2721__2007-03-23_BONNET INTV_SE003126
001174  ERN_F8897_NSCR_1989-10-22_PRE_RACE_ROCKINGHAM_AC_DELCO_NEIL_BONNETT_ON_SIDELINE_&_AT_TRACK_89-EV-0536A_S005                       A20   C        00:16:14:20 00:16:15:25 00:25:01:13 00:25:02:16 
M2      ERN_F8897_NSCR_1989-10-22_PRE_RACE_ROCKINGHAM_AC_DELCO_NEIL_BONNETT_ON_SIDELINE_&_AT_TRACK_89-EV-0536A_S005                                030.0 00:16:14:20 
*FROM CLIP NAME:  ERN_F8897_NSCR_1989-10-22_PRE RACE ROCKINGHAM AC DELCO NEIL BONNETT ON SIDELINE & AT TRACK_89-EV-0536A_S005.NEW.01 
*SOURCE FILE: ERN_F8897_NSCR_1989-10-22_PRE RACE ROCKINGHAM AC DELCO NEIL BONNETT ON SIDELINE & AT TRACK_89-EV-0536A_S005
001175  ERN_F2947_NSCR_1988_COMP_SELECTS-INTV_&_B-ROLL_GEOFF_BODINE_VARIOUS__EARNHARDT298341_14141_BODINE                                 A20   C        00:27:41:27 00:27:42:28 00:25:02:16 00:25:03:16 
M2      ERN_F2947_NSCR_1988_COMP_SELECTS-INTV_&_B-ROLL_GEOFF_BODINE_VARIOUS__EARNHARDT298341_14141_BODINE                                          030.0 00:27:41:27 
*FROM CLIP NAME:  ERN_F2947_NSCR_1988_COMP SELECTS-INTV & B-ROLL GEOFF BODINE VARIOUS _EARNHARDT298341_14141_BODINE.NEW.01 
*TO CLIP NAME:  ERN_F8897_NSCR_1989-10-22_PRE RACE ROCKINGHAM AC DELCO NEIL BONNETT ON SIDELINE & AT TRACK_89-EV-0536A_S005.NEW.01 
*SOURCE FILE: ERN_F2947_NSCR_1988_COMP SELECTS-INTV & B-ROLL GEOFF BODINE VARIOUS _EARNHARDT298341_14141_BODINE
001176  ERN_F8897_NSCR_1989-10-22_PRE_RACE_ROCKINGHAM_AC_DELCO_NEIL_BONNETT_ON_SIDELINE_&_AT_TRACK_89-EV-0536A_S005                       V     C        00:17:34:13 00:17:42:18 00:25:03:09 00:25:11:12 
M2      ERN_F8897_NSCR_1989-10-22_PRE_RACE_ROCKINGHAM_AC_DELCO_NEIL_BONNETT_ON_SIDELINE_&_AT_TRACK_89-EV-0536A_S005                                030.0 00:17:34:13 
*FROM CLIP NAME:  ERN_F8897_NSCR_1989-10-22_PRE RACE ROCKINGHAM AC DELCO NEIL BONNETT ON SIDELINE & AT TRACK_89-EV-0536A_S005.NEW.01 
*SOURCE FILE: ERN_F8897_NSCR_1989-10-22_PRE RACE ROCKINGHAM AC DELCO NEIL BONNETT ON SIDELINE & AT TRACK_89-EV-0536A_S005
001177  ERN_F2947_NSCR_1988_COMP_SELECTS-INTV_&_B-ROLL_GEOFF_BODINE_VARIOUS__EARNHARDT298341_14141_BODINE                                 A20   C        00:27:42:27 00:27:43:07 00:25:03:16 00:25:03:23 
M2      ERN_F2947_NSCR_1988_COMP_SELECTS-INTV_&_B-ROLL_GEOFF_BODINE_VARIOUS__EARNHARDT298341_14141_BODINE                                          030.0 00:27:42:27 
*FROM CLIP NAME:  ERN_F2947_NSCR_1988_COMP SELECTS-INTV & B-ROLL GEOFF BODINE VARIOUS _EARNHARDT298341_14141_BODINE.NEW.01 
*SOURCE FILE: ERN_F2947_NSCR_1988_COMP SELECTS-INTV & B-ROLL GEOFF BODINE VARIOUS _EARNHARDT298341_14141_BODINE
001178  ERN_F2947_NSCR_1988_COMP_SELECTS-INTV_&_B-ROLL_GEOFF_BODINE_VARIOUS__EARNHARDT298341_14141_BODINE                                 A20   C        00:27:43:06 00:27:44:14 00:25:03:23 00:25:05:05 
M2      ERN_F2947_NSCR_1988_COMP_SELECTS-INTV_&_B-ROLL_GEOFF_BODINE_VARIOUS__EARNHARDT298341_14141_BODINE                                          030.0 00:27:43:06 
*FROM CLIP NAME:  ERN_F2947_NSCR_1988_COMP SELECTS-INTV & B-ROLL GEOFF BODINE VARIOUS _EARNHARDT298341_14141_BODINE.NEW.01 
*TO CLIP NAME:  ERN_F2947_NSCR_1988_COMP SELECTS-INTV & B-ROLL GEOFF BODINE VARIOUS _EARNHARDT298341_14141_BODINE.NEW.01 
*SOURCE FILE: ERN_F2947_NSCR_1988_COMP SELECTS-INTV & B-ROLL GEOFF BODINE VARIOUS _EARNHARDT298341_14141_BODINE
001179  ERN_F2721__2007-03-23_BONNET_INTV_SE003126                                                                                        A18   C        00:09:06:19 00:09:07:05 00:25:04:12 00:25:05:00 
M2      ERN_F2721__2007-03-23_BONNET_INTV_SE003126                                                                                                 030.0 00:09:06:19 
*FROM CLIP NAME:  ERN_F2721__2007-03-23_BONNET INTV_SE003126.NEW.01 
*SOURCE FILE: ERN_F2721__2007-03-23_BONNET INTV_SE003126
001180  ERN_F2721__2007-03-23_BONNET_INTV_SE003126                                                                                        A18   C        00:09:07:04 00:09:11:20 00:25:05:00 00:25:09:12 
M2      ERN_F2721__2007-03-23_BONNET_INTV_SE003126                                                                                                 030.0 00:09:07:04 
*FROM CLIP NAME:  ERN_F2721__2007-03-23_BONNET INTV_SE003126.NEW.01 
*SOURCE FILE: ERN_F2721__2007-03-23_BONNET INTV_SE003126
001181  ERN_F2947_NSCR_1988_COMP_SELECTS-INTV_&_B-ROLL_GEOFF_BODINE_VARIOUS__EARNHARDT298341_14141_BODINE                                 A20   C        00:27:44:13 00:27:48:00 00:25:05:05 00:25:08:18 
M2      ERN_F2947_NSCR_1988_COMP_SELECTS-INTV_&_B-ROLL_GEOFF_BODINE_VARIOUS__EARNHARDT298341_14141_BODINE                                          030.0 00:27:44:13 
*FROM CLIP NAME:  ERN_F2947_NSCR_1988_COMP SELECTS-INTV & B-ROLL GEOFF BODINE VARIOUS _EARNHARDT298341_14141_BODINE.NEW.01 
*SOURCE FILE: ERN_F2947_NSCR_1988_COMP SELECTS-INTV & B-ROLL GEOFF BODINE VARIOUS _EARNHARDT298341_14141_BODINE
001182  ERN_F2947_NSCR_1988_COMP_SELECTS-INTV_&_B-ROLL_GEOFF_BODINE_VARIOUS__EARNHARDT298341_14141_BODINE                                 A20   C        00:27:42:03 00:27:43:19 00:25:08:18 00:25:10:06 
M2      ERN_F2947_NSCR_1988_COMP_SELECTS-INTV_&_B-ROLL_GEOFF_BODINE_VARIOUS__EARNHARDT298341_14141_BODINE                                          030.0 00:27:42:03 
*FROM CLIP NAME:  ERN_F2947_NSCR_1988_COMP SELECTS-INTV & B-ROLL GEOFF BODINE VARIOUS _EARNHARDT298341_14141_BODINE.NEW.01 
*TO CLIP NAME:  ERN_F2947_NSCR_1988_COMP SELECTS-INTV & B-ROLL GEOFF BODINE VARIOUS _EARNHARDT298341_14141_BODINE.NEW.01 
*SOURCE FILE: ERN_F2947_NSCR_1988_COMP SELECTS-INTV & B-ROLL GEOFF BODINE VARIOUS _EARNHARDT298341_14141_BODINE
001183  ERN_F2947_NSCR_1988_COMP_SELECTS-INTV_&_B-ROLL_GEOFF_BODINE_VARIOUS__EARNHARDT298341_14141_BODINE                                 A20   C        00:27:43:18 00:27:46:10 00:25:10:06 00:25:12:23 
M2      ERN_F2947_NSCR_1988_COMP_SELECTS-INTV_&_B-ROLL_GEOFF_BODINE_VARIOUS__EARNHARDT298341_14141_BODINE                                          030.0 00:27:43:18 
*FROM CLIP NAME:  ERN_F2947_NSCR_1988_COMP SELECTS-INTV & B-ROLL GEOFF BODINE VARIOUS _EARNHARDT298341_14141_BODINE.NEW.01 
*SOURCE FILE: ERN_F2947_NSCR_1988_COMP SELECTS-INTV & B-ROLL GEOFF BODINE VARIOUS _EARNHARDT298341_14141_BODINE
001184  ERN_F4214_NSCR_1989-10-15_NORTH_WILKESBORO-HOLLY_FARMS_400_ESPN_RACE_BROADCAST_89-EV-0734                                         A18   C        01:34:21:25 01:34:22:26 00:25:10:13 00:25:11:13 
M2      ERN_F4214_NSCR_1989-10-15_NORTH_WILKESBORO-HOLLY_FARMS_400_ESPN_RACE_BROADCAST_89-EV-0734                                                  030.0 01:34:21:25 
*FROM CLIP NAME:  ERN_F4214_NSCR_1989-10-15_NORTH WILKESBORO-HOLLY FARMS 400 ESPN RACE BROADCAST_89-EV-0734.NEW.01 
*SOURCE FILE: ERN_F4214_NSCR_1989-10-15_NORTH WILKESBORO-HOLLY FARMS 400 ESPN RACE BROADCAST_89-EV-0734
001185  ERN_F0652_NSCR_1990-01-04_DESR_RACE_NASCAR_CUP_SERIES_-_DARLINGTON_90-EV-0662                                                     A22   C        01:41:01:28 01:41:03:28 00:25:10:15 00:25:12:15 
M2      ERN_F0652_NSCR_1990-01-04_DESR_RACE_NASCAR_CUP_SERIES_-_DARLINGTON_90-EV-0662                                                              030.0 01:41:01:28 
*FROM CLIP NAME:  ERN_F0652_NSCR_1990-01-04_DESR RACE NASCAR CUP SERIES - DARLINGTON_90-EV-0662.NEW.01 
*SOURCE FILE: ERN_F0652_NSCR_1990-01-04_DESR RACE NASCAR CUP SERIES - DARLINGTON_90-EV-0662
001186  ERN_F0652_NSCR_1990-01-04_DESR_RACE_NASCAR_CUP_SERIES_-_DARLINGTON_90-EV-0662                                                     V     C        01:41:02:03 01:41:06:21 00:25:11:12 00:25:16:02 
M2      ERN_F0652_NSCR_1990-01-04_DESR_RACE_NASCAR_CUP_SERIES_-_DARLINGTON_90-EV-0662                                                              030.0 01:41:02:03 
*FROM CLIP NAME:  ERN_F0652_NSCR_1990-01-04_DESR RACE NASCAR CUP SERIES - DARLINGTON_90-EV-0662.NEW.01 
*SOURCE FILE: ERN_F0652_NSCR_1990-01-04_DESR RACE NASCAR CUP SERIES - DARLINGTON_90-EV-0662
001187  ERN_F4214_NSCR_1989-10-15_NORTH_WILKESBORO-HOLLY_FARMS_400_ESPN_RACE_BROADCAST_89-EV-0734                                         A18   C        01:34:22:25 01:34:25:27 00:25:11:13 00:25:14:14 
M2      ERN_F4214_NSCR_1989-10-15_NORTH_WILKESBORO-HOLLY_FARMS_400_ESPN_RACE_BROADCAST_89-EV-0734                                                  030.0 01:34:22:25 
*FROM CLIP NAME:  ERN_F4214_NSCR_1989-10-15_NORTH WILKESBORO-HOLLY FARMS 400 ESPN RACE BROADCAST_89-EV-0734.NEW.01 
*SOURCE FILE: ERN_F4214_NSCR_1989-10-15_NORTH WILKESBORO-HOLLY FARMS 400 ESPN RACE BROADCAST_89-EV-0734
001188  ERN_F4214_NSCR_1989-10-15_NORTH_WILKESBORO-HOLLY_FARMS_400_ESPN_RACE_BROADCAST_89-EV-0734                                         A24   C        01:34:34:15 01:34:35:16 00:25:12:13 00:25:13:13 
M2      ERN_F4214_NSCR_1989-10-15_NORTH_WILKESBORO-HOLLY_FARMS_400_ESPN_RACE_BROADCAST_89-EV-0734                                                  030.0 01:34:34:15 
*FROM CLIP NAME:  ERN_F4214_NSCR_1989-10-15_NORTH WILKESBORO-HOLLY FARMS 400 ESPN RACE BROADCAST_89-EV-0734.NEW.01 
*SOURCE FILE: ERN_F4214_NSCR_1989-10-15_NORTH WILKESBORO-HOLLY FARMS 400 ESPN RACE BROADCAST_89-EV-0734
001189  ERN_F0652_NSCR_1990-01-04_DESR_RACE_NASCAR_CUP_SERIES_-_DARLINGTON_90-EV-0662                                                     A22   C        01:41:03:28 01:41:06:27 00:25:12:15 00:25:15:14 
M2      ERN_F0652_NSCR_1990-01-04_DESR_RACE_NASCAR_CUP_SERIES_-_DARLINGTON_90-EV-0662                                                              030.0 01:41:03:28 
*FROM CLIP NAME:  ERN_F0652_NSCR_1990-01-04_DESR RACE NASCAR CUP SERIES - DARLINGTON_90-EV-0662.NEW.01 
*SOURCE FILE: ERN_F0652_NSCR_1990-01-04_DESR RACE NASCAR CUP SERIES - DARLINGTON_90-EV-0662
001190  ERN_F2947_NSCR_1988_COMP_SELECTS-INTV_&_B-ROLL_GEOFF_BODINE_VARIOUS__EARNHARDT298341_14141_BODINE                                 A20   C        00:27:41:16 00:27:42:27 00:25:12:23 00:25:14:07 
M2      ERN_F2947_NSCR_1988_COMP_SELECTS-INTV_&_B-ROLL_GEOFF_BODINE_VARIOUS__EARNHARDT298341_14141_BODINE                                          030.0 00:27:41:16 
*FROM CLIP NAME:  ERN_F2947_NSCR_1988_COMP SELECTS-INTV & B-ROLL GEOFF BODINE VARIOUS _EARNHARDT298341_14141_BODINE.NEW.01 
*TO CLIP NAME:  ERN_F2947_NSCR_1988_COMP SELECTS-INTV & B-ROLL GEOFF BODINE VARIOUS _EARNHARDT298341_14141_BODINE.NEW.01 
*SOURCE FILE: ERN_F2947_NSCR_1988_COMP SELECTS-INTV & B-ROLL GEOFF BODINE VARIOUS _EARNHARDT298341_14141_BODINE
001191  ERN_F4214_NSCR_1989-10-15_NORTH_WILKESBORO-HOLLY_FARMS_400_ESPN_RACE_BROADCAST_89-EV-0734                                         A24   C        01:34:35:15 01:34:35:18 00:25:13:13 00:25:13:15 
M2      ERN_F4214_NSCR_1989-10-15_NORTH_WILKESBORO-HOLLY_FARMS_400_ESPN_RACE_BROADCAST_89-EV-0734                                                  030.0 01:34:35:15 
*FROM CLIP NAME:  ERN_F4214_NSCR_1989-10-15_NORTH WILKESBORO-HOLLY FARMS 400 ESPN RACE BROADCAST_89-EV-0734.NEW.01 
*SOURCE FILE: ERN_F4214_NSCR_1989-10-15_NORTH WILKESBORO-HOLLY FARMS 400 ESPN RACE BROADCAST_89-EV-0734
001192  ERN_F4214_NSCR_1989-10-15_NORTH_WILKESBORO-HOLLY_FARMS_400_ESPN_RACE_BROADCAST_89-EV-0734                                         A24   C        01:34:35:18 01:34:41:18 00:25:13:15 00:25:19:15 
M2      ERN_F4214_NSCR_1989-10-15_NORTH_WILKESBORO-HOLLY_FARMS_400_ESPN_RACE_BROADCAST_89-EV-0734                                                  030.0 01:34:35:18 
*FROM CLIP NAME:  ERN_F4214_NSCR_1989-10-15_NORTH WILKESBORO-HOLLY FARMS 400 ESPN RACE BROADCAST_89-EV-0734.NEW.01 
*TO CLIP NAME:  ERN_F4214_NSCR_1989-10-15_NORTH WILKESBORO-HOLLY FARMS 400 ESPN RACE BROADCAST_89-EV-0734.NEW.01 
*SOURCE FILE: ERN_F4214_NSCR_1989-10-15_NORTH WILKESBORO-HOLLY FARMS 400 ESPN RACE BROADCAST_89-EV-0734
001193  ERN_F2947_NSCR_1988_COMP_SELECTS-INTV_&_B-ROLL_GEOFF_BODINE_VARIOUS__EARNHARDT298341_14141_BODINE                                 A20   C        00:27:42:26 00:27:43:08 00:25:14:07 00:25:14:16 
M2      ERN_F2947_NSCR_1988_COMP_SELECTS-INTV_&_B-ROLL_GEOFF_BODINE_VARIOUS__EARNHARDT298341_14141_BODINE                                          030.0 00:27:42:26 
*FROM CLIP NAME:  ERN_F2947_NSCR_1988_COMP SELECTS-INTV & B-ROLL GEOFF BODINE VARIOUS _EARNHARDT298341_14141_BODINE.NEW.01 
*SOURCE FILE: ERN_F2947_NSCR_1988_COMP SELECTS-INTV & B-ROLL GEOFF BODINE VARIOUS _EARNHARDT298341_14141_BODINE
001194  ERN_F4214_NSCR_1989-10-15_NORTH_WILKESBORO-HOLLY_FARMS_400_ESPN_RACE_BROADCAST_89-EV-0734                                         A18   C        01:33:17:12 01:33:19:13 00:25:14:14 00:25:16:14 
M2      ERN_F4214_NSCR_1989-10-15_NORTH_WILKESBORO-HOLLY_FARMS_400_ESPN_RACE_BROADCAST_89-EV-0734                                                  030.0 01:33:17:12 
*FROM CLIP NAME:  ERN_F4214_NSCR_1989-10-15_NORTH WILKESBORO-HOLLY FARMS 400 ESPN RACE BROADCAST_89-EV-0734.NEW.01 
*TO CLIP NAME:  ERN_F4214_NSCR_1989-10-15_NORTH WILKESBORO-HOLLY FARMS 400 ESPN RACE BROADCAST_89-EV-0734.NEW.01 
*SOURCE FILE: ERN_F4214_NSCR_1989-10-15_NORTH WILKESBORO-HOLLY FARMS 400 ESPN RACE BROADCAST_89-EV-0734
001195  ERN_F0652_NSCR_1990-01-04_DESR_RACE_NASCAR_CUP_SERIES_-_DARLINGTON_90-EV-0662                                                     A22   C        01:41:12:29 01:41:14:00 00:25:15:14 00:25:16:14 
M2      ERN_F0652_NSCR_1990-01-04_DESR_RACE_NASCAR_CUP_SERIES_-_DARLINGTON_90-EV-0662                                                              030.0 01:41:12:29 
*FROM CLIP NAME:  ERN_F0652_NSCR_1990-01-04_DESR RACE NASCAR CUP SERIES - DARLINGTON_90-EV-0662.NEW.01 
*TO CLIP NAME:  ERN_F0652_NSCR_1990-01-04_DESR RACE NASCAR CUP SERIES - DARLINGTON_90-EV-0662.NEW.01 
*SOURCE FILE: ERN_F0652_NSCR_1990-01-04_DESR RACE NASCAR CUP SERIES - DARLINGTON_90-EV-0662
001196  ERN_F0652_NSCR_1990-01-04_DESR_RACE_NASCAR_CUP_SERIES_-_DARLINGTON_90-EV-0662                                                     V     C        01:41:13:14 01:41:18:06 00:25:16:02 00:25:20:19 
M2      ERN_F0652_NSCR_1990-01-04_DESR_RACE_NASCAR_CUP_SERIES_-_DARLINGTON_90-EV-0662                                                              030.0 01:41:13:14 
*FROM CLIP NAME:  ERN_F0652_NSCR_1990-01-04_DESR RACE NASCAR CUP SERIES - DARLINGTON_90-EV-0662.NEW.01 
*SOURCE FILE: ERN_F0652_NSCR_1990-01-04_DESR RACE NASCAR CUP SERIES - DARLINGTON_90-EV-0662
001197  ERN_F4214_NSCR_1989-10-15_NORTH_WILKESBORO-HOLLY_FARMS_400_ESPN_RACE_BROADCAST_89-EV-0734                                         A18   C        01:33:19:12 01:33:21:18 00:25:16:14 00:25:18:18 
M2      ERN_F4214_NSCR_1989-10-15_NORTH_WILKESBORO-HOLLY_FARMS_400_ESPN_RACE_BROADCAST_89-EV-0734                                                  030.0 01:33:19:12 
*FROM CLIP NAME:  ERN_F4214_NSCR_1989-10-15_NORTH WILKESBORO-HOLLY FARMS 400 ESPN RACE BROADCAST_89-EV-0734.NEW.01 
*SOURCE FILE: ERN_F4214_NSCR_1989-10-15_NORTH WILKESBORO-HOLLY FARMS 400 ESPN RACE BROADCAST_89-EV-0734
001198  ERN_F0652_NSCR_1990-01-04_DESR_RACE_NASCAR_CUP_SERIES_-_DARLINGTON_90-EV-0662                                                     A22   C        01:41:13:29 01:41:17:20 00:25:16:14 00:25:20:06 
M2      ERN_F0652_NSCR_1990-01-04_DESR_RACE_NASCAR_CUP_SERIES_-_DARLINGTON_90-EV-0662                                                              030.0 01:41:13:29 
*FROM CLIP NAME:  ERN_F0652_NSCR_1990-01-04_DESR RACE NASCAR CUP SERIES - DARLINGTON_90-EV-0662.NEW.01 
*SOURCE FILE: ERN_F0652_NSCR_1990-01-04_DESR RACE NASCAR CUP SERIES - DARLINGTON_90-EV-0662
001199  ERN_F4214_NSCR_1989-10-15_NORTH_WILKESBORO-HOLLY_FARMS_400_ESPN_RACE_BROADCAST_89-EV-0734                                         A24   C        01:34:41:18 01:34:45:26 00:25:19:15 00:25:23:21 
M2      ERN_F4214_NSCR_1989-10-15_NORTH_WILKESBORO-HOLLY_FARMS_400_ESPN_RACE_BROADCAST_89-EV-0734                                                  030.0 01:34:41:18 
*FROM CLIP NAME:  ERN_F4214_NSCR_1989-10-15_NORTH WILKESBORO-HOLLY FARMS 400 ESPN RACE BROADCAST_89-EV-0734.NEW.01 
*SOURCE FILE: ERN_F4214_NSCR_1989-10-15_NORTH WILKESBORO-HOLLY FARMS 400 ESPN RACE BROADCAST_89-EV-0734
001200  ERN_F0652_NSCR_1990-01-04_DESR_RACE_NASCAR_CUP_SERIES_-_DARLINGTON_90-EV-0662                                                     A20   C        01:08:07:11 01:08:07:23 00:25:19:21 00:25:20:06 
M2      ERN_F0652_NSCR_1990-01-04_DESR_RACE_NASCAR_CUP_SERIES_-_DARLINGTON_90-EV-0662                                                              030.0 01:08:07:11 
*FROM CLIP NAME:  ERN_F0652_NSCR_1990-01-04_DESR RACE NASCAR CUP SERIES - DARLINGTON_90-EV-0662.NEW.01 
*SOURCE FILE: ERN_F0652_NSCR_1990-01-04_DESR RACE NASCAR CUP SERIES - DARLINGTON_90-EV-0662
001201  ERN_F0652_NSCR_1990-01-04_DESR_RACE_NASCAR_CUP_SERIES_-_DARLINGTON_90-EV-0662                                                     A22   C        01:17:36:08 01:17:36:29 00:25:20:06 00:25:20:22 
M2      ERN_F0652_NSCR_1990-01-04_DESR_RACE_NASCAR_CUP_SERIES_-_DARLINGTON_90-EV-0662                                                              030.0 01:17:36:08 
*FROM CLIP NAME:  ERN_F0652_NSCR_1990-01-04_DESR RACE NASCAR CUP SERIES - DARLINGTON_90-EV-0662.NEW.01 
*TO CLIP NAME:  ERN_F0652_NSCR_1990-01-04_DESR RACE NASCAR CUP SERIES - DARLINGTON_90-EV-0662.NEW.01 
*SOURCE FILE: ERN_F0652_NSCR_1990-01-04_DESR RACE NASCAR CUP SERIES - DARLINGTON_90-EV-0662
001202  ERN_F0652_NSCR_1990-01-04_DESR_RACE_NASCAR_CUP_SERIES_-_DARLINGTON_90-EV-0662                                                     A20   C        01:08:07:22 01:08:11:02 00:25:20:06 00:25:23:13 
M2      ERN_F0652_NSCR_1990-01-04_DESR_RACE_NASCAR_CUP_SERIES_-_DARLINGTON_90-EV-0662                                                              030.0 01:08:07:22 
*FROM CLIP NAME:  ERN_F0652_NSCR_1990-01-04_DESR RACE NASCAR CUP SERIES - DARLINGTON_90-EV-0662.NEW.01 
*SOURCE FILE: ERN_F0652_NSCR_1990-01-04_DESR RACE NASCAR CUP SERIES - DARLINGTON_90-EV-0662
001203  ERN_F0653_NSCR_1990-01-04_DESR_RACE_NASCAR_CUP_SERIES_-_DARLINGTON_90-EV-0664                                                     V     C        01:03:12:02 01:03:16:19 00:25:20:19 00:25:25:08 
M2      ERN_F0653_NSCR_1990-01-04_DESR_RACE_NASCAR_CUP_SERIES_-_DARLINGTON_90-EV-0664                                                              030.0 01:03:12:02 
*FROM CLIP NAME:  ERN_F0653_NSCR_1990-01-04_DESR RACE NASCAR CUP SERIES - DARLINGTON_90-EV-0664.NEW.01 
*SOURCE FILE: ERN_F0653_NSCR_1990-01-04_DESR RACE NASCAR CUP SERIES - DARLINGTON_90-EV-0664
001204  ERN_F0652_NSCR_1990-01-04_DESR_RACE_NASCAR_CUP_SERIES_-_DARLINGTON_90-EV-0662                                                     A22   C        01:17:36:28 01:17:39:28 00:25:20:22 00:25:23:21 
M2      ERN_F0652_NSCR_1990-01-04_DESR_RACE_NASCAR_CUP_SERIES_-_DARLINGTON_90-EV-0662                                                              030.0 01:17:36:28 
*FROM CLIP NAME:  ERN_F0652_NSCR_1990-01-04_DESR RACE NASCAR CUP SERIES - DARLINGTON_90-EV-0662.NEW.01 
*SOURCE FILE: ERN_F0652_NSCR_1990-01-04_DESR RACE NASCAR CUP SERIES - DARLINGTON_90-EV-0662
001205  ERN_F0652_NSCR_1990-01-04_DESR_RACE_NASCAR_CUP_SERIES_-_DARLINGTON_90-EV-0662                                                     A18   C        01:08:22:01 01:08:22:27 00:25:22:15 00:25:23:11 
M2      ERN_F0652_NSCR_1990-01-04_DESR_RACE_NASCAR_CUP_SERIES_-_DARLINGTON_90-EV-0662                                                              030.0 01:08:22:01 
*FROM CLIP NAME:  ERN_F0652_NSCR_1990-01-04_DESR RACE NASCAR CUP SERIES - DARLINGTON_90-EV-0662.NEW.01 
*SOURCE FILE: ERN_F0652_NSCR_1990-01-04_DESR RACE NASCAR CUP SERIES - DARLINGTON_90-EV-0662
001206  ERN_F0652_NSCR_1990-01-04_DESR_RACE_NASCAR_CUP_SERIES_-_DARLINGTON_90-EV-0662                                                     A18   C        01:08:22:26 01:08:23:20 00:25:23:11 00:25:24:06 
M2      ERN_F0652_NSCR_1990-01-04_DESR_RACE_NASCAR_CUP_SERIES_-_DARLINGTON_90-EV-0662                                                              030.0 01:08:22:26 
*FROM CLIP NAME:  ERN_F0652_NSCR_1990-01-04_DESR RACE NASCAR CUP SERIES - DARLINGTON_90-EV-0662.NEW.01 
*SOURCE FILE: ERN_F0652_NSCR_1990-01-04_DESR RACE NASCAR CUP SERIES - DARLINGTON_90-EV-0662
001207  ERN_F0652_NSCR_1990-01-04_DESR_RACE_NASCAR_CUP_SERIES_-_DARLINGTON_90-EV-0662                                                     A20   C        01:08:22:07 01:08:22:13 00:25:23:13 00:25:23:17 
M2      ERN_F0652_NSCR_1990-01-04_DESR_RACE_NASCAR_CUP_SERIES_-_DARLINGTON_90-EV-0662                                                              030.0 01:08:22:07 
*FROM CLIP NAME:  ERN_F0652_NSCR_1990-01-04_DESR RACE NASCAR CUP SERIES - DARLINGTON_90-EV-0662.NEW.01 
*TO CLIP NAME:  ERN_F0652_NSCR_1990-01-04_DESR RACE NASCAR CUP SERIES - DARLINGTON_90-EV-0662.NEW.01 
*SOURCE FILE: ERN_F0652_NSCR_1990-01-04_DESR RACE NASCAR CUP SERIES - DARLINGTON_90-EV-0662
001208  ERN_F0652_NSCR_1990-01-04_DESR_RACE_NASCAR_CUP_SERIES_-_DARLINGTON_90-EV-0662                                                     A20   C        01:08:22:12 01:08:22:17 00:25:23:17 00:25:23:20 
M2      ERN_F0652_NSCR_1990-01-04_DESR_RACE_NASCAR_CUP_SERIES_-_DARLINGTON_90-EV-0662                                                              030.0 01:08:22:12 
*FROM CLIP NAME:  ERN_F0652_NSCR_1990-01-04_DESR RACE NASCAR CUP SERIES - DARLINGTON_90-EV-0662.NEW.01 
*SOURCE FILE: ERN_F0652_NSCR_1990-01-04_DESR RACE NASCAR CUP SERIES - DARLINGTON_90-EV-0662
001209  ERN_F0652_NSCR_1990-01-04_DESR_RACE_NASCAR_CUP_SERIES_-_DARLINGTON_90-EV-0662                                                     A18   C        01:08:17:01 01:08:17:07 00:25:24:06 00:25:24:10 
M2      ERN_F0652_NSCR_1990-01-04_DESR_RACE_NASCAR_CUP_SERIES_-_DARLINGTON_90-EV-0662                                                              030.0 01:08:17:01 
*FROM CLIP NAME:  ERN_F0652_NSCR_1990-01-04_DESR RACE NASCAR CUP SERIES - DARLINGTON_90-EV-0662.NEW.01 
*TO CLIP NAME:  ERN_F0652_NSCR_1990-01-04_DESR RACE NASCAR CUP SERIES - DARLINGTON_90-EV-0662.NEW.01 
*SOURCE FILE: ERN_F0652_NSCR_1990-01-04_DESR RACE NASCAR CUP SERIES - DARLINGTON_90-EV-0662
001210  ERN_F0652_NSCR_1990-01-04_DESR_RACE_NASCAR_CUP_SERIES_-_DARLINGTON_90-EV-0662                                                     A18   C        01:08:17:06 01:08:18:05 00:25:24:10 00:25:25:09 
M2      ERN_F0652_NSCR_1990-01-04_DESR_RACE_NASCAR_CUP_SERIES_-_DARLINGTON_90-EV-0662                                                              030.0 01:08:17:06 
*FROM CLIP NAME:  ERN_F0652_NSCR_1990-01-04_DESR RACE NASCAR CUP SERIES - DARLINGTON_90-EV-0662.NEW.01 
*SOURCE FILE: ERN_F0652_NSCR_1990-01-04_DESR RACE NASCAR CUP SERIES - DARLINGTON_90-EV-0662
001211  ERN_F0653_NSCR_1990-01-04_DESR_RACE_NASCAR_CUP_SERIES_-_DARLINGTON_90-EV-0664                                                     V     C        01:03:17:08 01:03:19:20 00:25:25:08 00:25:27:17 
M2      ERN_F0653_NSCR_1990-01-04_DESR_RACE_NASCAR_CUP_SERIES_-_DARLINGTON_90-EV-0664                                                              030.0 01:03:17:08 
*FROM CLIP NAME:  ERN_F0653_NSCR_1990-01-04_DESR RACE NASCAR CUP SERIES - DARLINGTON_90-EV-0664.NEW.01 
*SOURCE FILE: ERN_F0653_NSCR_1990-01-04_DESR RACE NASCAR CUP SERIES - DARLINGTON_90-EV-0664
001212  ERN_F0653_NSCR_1990-01-04_DESR_RACE_NASCAR_CUP_SERIES_-_DARLINGTON_90-EV-0664                                                     A18   C        01:03:09:00 01:03:09:03 00:25:25:09 00:25:25:11 
M2      ERN_F0653_NSCR_1990-01-04_DESR_RACE_NASCAR_CUP_SERIES_-_DARLINGTON_90-EV-0664                                                              030.0 01:03:09:00 
*FROM CLIP NAME:  ERN_F0653_NSCR_1990-01-04_DESR RACE NASCAR CUP SERIES - DARLINGTON_90-EV-0664.NEW.01 
*TO CLIP NAME:  ERN_F0652_NSCR_1990-01-04_DESR RACE NASCAR CUP SERIES - DARLINGTON_90-EV-0662.NEW.01 
*SOURCE FILE: ERN_F0653_NSCR_1990-01-04_DESR RACE NASCAR CUP SERIES - DARLINGTON_90-EV-0664
001213  ERN_F0653_NSCR_1990-01-04_DESR_RACE_NASCAR_CUP_SERIES_-_DARLINGTON_90-EV-0664                                                     A20   C        01:08:28:13 01:08:28:29 00:25:25:19 00:25:26:07 
M2      ERN_F0653_NSCR_1990-01-04_DESR_RACE_NASCAR_CUP_SERIES_-_DARLINGTON_90-EV-0664                                                              030.0 01:08:28:13 
*FROM CLIP NAME:  ERN_F0653_NSCR_1990-01-04_DESR RACE NASCAR CUP SERIES - DARLINGTON_90-EV-0664.NEW.01 
*SOURCE FILE: ERN_F0653_NSCR_1990-01-04_DESR RACE NASCAR CUP SERIES - DARLINGTON_90-EV-0664
001214  ERN_F0653_NSCR_1990-01-04_DESR_RACE_NASCAR_CUP_SERIES_-_DARLINGTON_90-EV-0664                                                     A20   C        01:08:28:28 01:08:41:19 00:25:26:07 00:25:38:23 
M2      ERN_F0653_NSCR_1990-01-04_DESR_RACE_NASCAR_CUP_SERIES_-_DARLINGTON_90-EV-0664                                                              030.0 01:08:28:28 
*FROM CLIP NAME:  ERN_F0653_NSCR_1990-01-04_DESR RACE NASCAR CUP SERIES - DARLINGTON_90-EV-0664.NEW.01 
*SOURCE FILE: ERN_F0653_NSCR_1990-01-04_DESR RACE NASCAR CUP SERIES - DARLINGTON_90-EV-0664
001215  ERN_F0653_NSCR_1990-01-04_DESR_RACE_NASCAR_CUP_SERIES_-_DARLINGTON_90-EV-0664                                                     A26   C        01:03:18:13 01:03:18:20 00:25:26:12 00:25:26:17 
M2      ERN_F0653_NSCR_1990-01-04_DESR_RACE_NASCAR_CUP_SERIES_-_DARLINGTON_90-EV-0664                                                              030.0 01:03:18:13 
*FROM CLIP NAME:  ERN_F0653_NSCR_1990-01-04_DESR RACE NASCAR CUP SERIES - DARLINGTON_90-EV-0664.NEW.01 
*SOURCE FILE: ERN_F0653_NSCR_1990-01-04_DESR RACE NASCAR CUP SERIES - DARLINGTON_90-EV-0664
001216  ERN_F0653_NSCR_1990-01-04_DESR_RACE_NASCAR_CUP_SERIES_-_DARLINGTON_90-EV-0664                                                     A26   C        01:03:18:20 01:03:21:10 00:25:26:17 00:25:29:09 
M2      ERN_F0653_NSCR_1990-01-04_DESR_RACE_NASCAR_CUP_SERIES_-_DARLINGTON_90-EV-0664                                                              030.0 01:03:18:20 
*FROM CLIP NAME:  ERN_F0653_NSCR_1990-01-04_DESR RACE NASCAR CUP SERIES - DARLINGTON_90-EV-0664.NEW.01 
*SOURCE FILE: ERN_F0653_NSCR_1990-01-04_DESR RACE NASCAR CUP SERIES - DARLINGTON_90-EV-0664
001217  ERN_F0653_NSCR_1990-01-04_DESR_RACE_NASCAR_CUP_SERIES_-_DARLINGTON_90-EV-0664                                                     V     C        01:03:21:03 01:03:24:15 00:25:27:17 00:25:31:02 
M2      ERN_F0653_NSCR_1990-01-04_DESR_RACE_NASCAR_CUP_SERIES_-_DARLINGTON_90-EV-0664                                                              030.0 01:03:21:03 
*FROM CLIP NAME:  ERN_F0653_NSCR_1990-01-04_DESR RACE NASCAR CUP SERIES - DARLINGTON_90-EV-0664.NEW.01 
*SOURCE FILE: ERN_F0653_NSCR_1990-01-04_DESR RACE NASCAR CUP SERIES - DARLINGTON_90-EV-0664
001218  ERN_F2211_NSCR_1996-07-28_TALLADEGA-DIEHARD_501_RACE_B-ROLL_RICHARD_CHILDRESS_INTV_DESR_CRASH_NO3_JEFF_GORDON_WINNER_DESR_INTV_IS A22   C        03:24:07:29 03:24:08:24 00:25:29:15 00:25:30:11 
M2      ERN_F2211_NSCR_1996-07-28_TALLADEGA-DIEHARD_501_RACE_B-ROLL_RICHARD_CHILDRESS_INTV_DESR_CRASH_NO3_JEFF_GORDON_WINNER_DESR_INTV_IS          030.0 03:24:07:29 
*FROM CLIP NAME:  ERN_F2211_NSCR_1996-07-28_TALLADEGA-DIEHARD 501 RACE B-ROLL RICHARD CHILDRESS INTV DESR CRASH NO3 JEFF GORDON WINNER DESR INTV_ISC-00961.NEW.01 
*SOURCE FILE: ERN_F2211_NSCR_1996-07-28_TALLADEGA-DIEHARD 501 RACE B-ROLL RICHARD CHILDRESS INTV DESR CRASH NO3 JEFF GORDON WINNER DESR INTV_ISC-00961
001219  ERN_F2211_NSCR_1996-07-28_TALLADEGA-DIEHARD_501_RACE_B-ROLL_RICHARD_CHILDRESS_INTV_DESR_CRASH_NO3_JEFF_GORDON_WINNER_DESR_INTV_IS A22   C        03:24:08:24 03:24:12:16 00:25:30:11 00:25:34:04 
M2      ERN_F2211_NSCR_1996-07-28_TALLADEGA-DIEHARD_501_RACE_B-ROLL_RICHARD_CHILDRESS_INTV_DESR_CRASH_NO3_JEFF_GORDON_WINNER_DESR_INTV_IS          030.0 03:24:08:24 
*FROM CLIP NAME:  ERN_F2211_NSCR_1996-07-28_TALLADEGA-DIEHARD 501 RACE B-ROLL RICHARD CHILDRESS INTV DESR CRASH NO3 JEFF GORDON WINNER DESR INTV_ISC-00961.NEW.01 
*SOURCE FILE: ERN_F2211_NSCR_1996-07-28_TALLADEGA-DIEHARD 501 RACE B-ROLL RICHARD CHILDRESS INTV DESR CRASH NO3 JEFF GORDON WINNER DESR INTV_ISC-00961
001220  ERN_F0653_NSCR_1990-01-04_DESR_RACE_NASCAR_CUP_SERIES_-_DARLINGTON_90-EV-0664                                                     A18   C        01:03:21:12 01:03:22:28 00:25:30:19 00:25:32:07 
M2      ERN_F0653_NSCR_1990-01-04_DESR_RACE_NASCAR_CUP_SERIES_-_DARLINGTON_90-EV-0664                                                              030.0 01:03:21:12 
*FROM CLIP NAME:  ERN_F0653_NSCR_1990-01-04_DESR RACE NASCAR CUP SERIES - DARLINGTON_90-EV-0664.NEW.01 
*SOURCE FILE: ERN_F0653_NSCR_1990-01-04_DESR RACE NASCAR CUP SERIES - DARLINGTON_90-EV-0664
001221  ERN_F0653_NSCR_1990-01-04_DESR_RACE_NASCAR_CUP_SERIES_-_DARLINGTON_90-EV-0664                                                     V     C        01:08:33:04 01:08:38:04 00:25:31:02 00:25:34:05 
M2      ERN_F0653_NSCR_1990-01-04_DESR_RACE_NASCAR_CUP_SERIES_-_DARLINGTON_90-EV-0664                                                              048.0 01:08:33:04 
*FROM CLIP NAME:  ERN_F0653_NSCR_1990-01-04_DESR RACE NASCAR CUP SERIES - DARLINGTON_90-EV-0664.NEW.01 
*SOURCE FILE: ERN_F0653_NSCR_1990-01-04_DESR RACE NASCAR CUP SERIES - DARLINGTON_90-EV-0664
001222  ERN_F0653_NSCR_1990-01-04_DESR_RACE_NASCAR_CUP_SERIES_-_DARLINGTON_90-EV-0664                                                     A18   C        01:03:22:27 01:03:29:22 00:25:32:07 00:25:39:02 
M2      ERN_F0653_NSCR_1990-01-04_DESR_RACE_NASCAR_CUP_SERIES_-_DARLINGTON_90-EV-0664                                                              030.0 01:03:22:27 
*FROM CLIP NAME:  ERN_F0653_NSCR_1990-01-04_DESR RACE NASCAR CUP SERIES - DARLINGTON_90-EV-0664.NEW.01 
*SOURCE FILE: ERN_F0653_NSCR_1990-01-04_DESR RACE NASCAR CUP SERIES - DARLINGTON_90-EV-0664
001223  ERN_F0653_NSCR_1990-01-04_DESR_RACE_NASCAR_CUP_SERIES_-_DARLINGTON_90-EV-0664                                                     A24   C        01:03:23:16 01:03:24:17 00:25:33:13 00:25:34:13 
M2      ERN_F0653_NSCR_1990-01-04_DESR_RACE_NASCAR_CUP_SERIES_-_DARLINGTON_90-EV-0664                                                              030.0 01:03:23:16 
*FROM CLIP NAME:  ERN_F0653_NSCR_1990-01-04_DESR RACE NASCAR CUP SERIES - DARLINGTON_90-EV-0664.NEW.01 
*SOURCE FILE: ERN_F0653_NSCR_1990-01-04_DESR RACE NASCAR CUP SERIES - DARLINGTON_90-EV-0664
001224  ERN_F0653_NSCR_1990-01-04_DESR_RACE_NASCAR_CUP_SERIES_-_DARLINGTON_90-EV-0664                                                     V     C        01:08:16:12 01:08:20:16 00:25:34:05 00:25:36:19 
M2      ERN_F0653_NSCR_1990-01-04_DESR_RACE_NASCAR_CUP_SERIES_-_DARLINGTON_90-EV-0664                                                              048.0 01:08:16:12 
*FROM CLIP NAME:  ERN_F0653_NSCR_1990-01-04_DESR RACE NASCAR CUP SERIES - DARLINGTON_90-EV-0664.NEW.01 
*SOURCE FILE: ERN_F0653_NSCR_1990-01-04_DESR RACE NASCAR CUP SERIES - DARLINGTON_90-EV-0664
001225  ERN_F0653_NSCR_1990-01-04_DESR_RACE_NASCAR_CUP_SERIES_-_DARLINGTON_90-EV-0664                                                     A24   C        01:03:24:16 01:03:26:23 00:25:34:13 00:25:36:18 
M2      ERN_F0653_NSCR_1990-01-04_DESR_RACE_NASCAR_CUP_SERIES_-_DARLINGTON_90-EV-0664                                                              030.0 01:03:24:16 
*FROM CLIP NAME:  ERN_F0653_NSCR_1990-01-04_DESR RACE NASCAR CUP SERIES - DARLINGTON_90-EV-0664.NEW.01 
*SOURCE FILE: ERN_F0653_NSCR_1990-01-04_DESR RACE NASCAR CUP SERIES - DARLINGTON_90-EV-0664
001226  ERN_F0653_NSCR_1990-01-04_DESR_RACE_NASCAR_CUP_SERIES_-_DARLINGTON_90-EV-0664                                                     V     C        01:07:03:24 01:07:11:02 00:25:36:19 00:25:40:20 
M2      ERN_F0653_NSCR_1990-01-04_DESR_RACE_NASCAR_CUP_SERIES_-_DARLINGTON_90-EV-0664                                                              054.0 01:07:03:24 
*FROM CLIP NAME:  ERN_F0653_NSCR_1990-01-04_DESR RACE NASCAR CUP SERIES - DARLINGTON_90-EV-0664.NEW.01 
*SOURCE FILE: ERN_F0653_NSCR_1990-01-04_DESR RACE NASCAR CUP SERIES - DARLINGTON_90-EV-0664
001227  ERN_F1101_NSCR_1993-01-26_B-ROLL_BTS_INTV_DESR_NEIL_BONNETT_IN_GARAGE_&_TALKING_FRIENDSHIP_1993-NAS-00005_S001                    A22   C        00:24:12:17 00:24:12:25 00:25:39:11 00:25:39:17 
M2      ERN_F1101_NSCR_1993-01-26_B-ROLL_BTS_INTV_DESR_NEIL_BONNETT_IN_GARAGE_&_TALKING_FRIENDSHIP_1993-NAS-00005_S001                             030.0 00:24:12:17 
*FROM CLIP NAME:  ERN_F1101_NSCR_1993-01-26_B-ROLL BTS INTV DESR NEIL BONNETT IN GARAGE & TALKING FRIENDSHIP_1993-NAS-00005_S001.NEW.02 
*SOURCE FILE: ERN_F1101_NSCR_1993-01-26_B-ROLL BTS INTV DESR NEIL BONNETT IN GARAGE & TALKING FRIENDSHIP_1993-NAS-00005_S001
001228  ERN_F1101_NSCR_1993-01-26_B-ROLL_BTS_INTV_DESR_NEIL_BONNETT_IN_GARAGE_&_TALKING_FRIENDSHIP_1993-NAS-00005_S001                    A22   C        00:24:12:25 00:24:14:23 00:25:39:17 00:25:41:15 
M2      ERN_F1101_NSCR_1993-01-26_B-ROLL_BTS_INTV_DESR_NEIL_BONNETT_IN_GARAGE_&_TALKING_FRIENDSHIP_1993-NAS-00005_S001                             030.0 00:24:12:25 
*FROM CLIP NAME:  ERN_F1101_NSCR_1993-01-26_B-ROLL BTS INTV DESR NEIL BONNETT IN GARAGE & TALKING FRIENDSHIP_1993-NAS-00005_S001.NEW.02 
*SOURCE FILE: ERN_F1101_NSCR_1993-01-26_B-ROLL BTS INTV DESR NEIL BONNETT IN GARAGE & TALKING FRIENDSHIP_1993-NAS-00005_S001
001229  ERN_F1101_NSCR_1993-01-26_B-ROLL_BTS_INTV_DESR_NEIL_BONNETT_IN_GARAGE_&_TALKING_FRIENDSHIP_1993-NAS-00005_S001                    V     C        00:24:12:20 00:24:20:04 00:25:40:20 00:25:48:07 
M2      ERN_F1101_NSCR_1993-01-26_B-ROLL_BTS_INTV_DESR_NEIL_BONNETT_IN_GARAGE_&_TALKING_FRIENDSHIP_1993-NAS-00005_S001                             030.0 00:24:12:20 
*FROM CLIP NAME:  ERN_F1101_NSCR_1993-01-26_B-ROLL BTS INTV DESR NEIL BONNETT IN GARAGE & TALKING FRIENDSHIP_1993-NAS-00005_S001.NEW.02 
*SOURCE FILE: ERN_F1101_NSCR_1993-01-26_B-ROLL BTS INTV DESR NEIL BONNETT IN GARAGE & TALKING FRIENDSHIP_1993-NAS-00005_S001
001230  ERN_F1101_NSCR_1993-01-26_B-ROLL_BTS_INTV_DESR_NEIL_BONNETT_IN_GARAGE_&_TALKING_FRIENDSHIP_1993-NAS-00005_S001                    A22   C        00:27:20:04 00:27:20:10 00:25:41:15 00:25:41:19 
M2      ERN_F1101_NSCR_1993-01-26_B-ROLL_BTS_INTV_DESR_NEIL_BONNETT_IN_GARAGE_&_TALKING_FRIENDSHIP_1993-NAS-00005_S001                             030.0 00:27:20:04 
*FROM CLIP NAME:  ERN_F1101_NSCR_1993-01-26_B-ROLL BTS INTV DESR NEIL BONNETT IN GARAGE & TALKING FRIENDSHIP_1993-NAS-00005_S001.NEW.02 
*TO CLIP NAME:  ERN_F1101_NSCR_1993-01-26_B-ROLL BTS INTV DESR NEIL BONNETT IN GARAGE & TALKING FRIENDSHIP_1993-NAS-00005_S001.NEW.02 
*SOURCE FILE: ERN_F1101_NSCR_1993-01-26_B-ROLL BTS INTV DESR NEIL BONNETT IN GARAGE & TALKING FRIENDSHIP_1993-NAS-00005_S001
001231  ERN_F1101_NSCR_1993-01-26_B-ROLL_BTS_INTV_DESR_NEIL_BONNETT_IN_GARAGE_&_TALKING_FRIENDSHIP_1993-NAS-00005_S001                    A22   C        00:27:20:09 00:27:21:03 00:25:41:19 00:25:42:13 
M2      ERN_F1101_NSCR_1993-01-26_B-ROLL_BTS_INTV_DESR_NEIL_BONNETT_IN_GARAGE_&_TALKING_FRIENDSHIP_1993-NAS-00005_S001                             030.0 00:27:20:09 
*FROM CLIP NAME:  ERN_F1101_NSCR_1993-01-26_B-ROLL BTS INTV DESR NEIL BONNETT IN GARAGE & TALKING FRIENDSHIP_1993-NAS-00005_S001.NEW.02 
*SOURCE FILE: ERN_F1101_NSCR_1993-01-26_B-ROLL BTS INTV DESR NEIL BONNETT IN GARAGE & TALKING FRIENDSHIP_1993-NAS-00005_S001
001232  ERN_F1643_NSCR_1990-04-01_2_OF_5_RACE_B-ROLL_TRANSOUTH_500_DARLINGTON_DESR_NO3_90-EV-0139                                         A18   C        00:42:06:27 00:42:08:27 00:25:41:23 00:25:43:23 
M2      ERN_F1643_NSCR_1990-04-01_2_OF_5_RACE_B-ROLL_TRANSOUTH_500_DARLINGTON_DESR_NO3_90-EV-0139                                                  030.0 00:42:06:27 
*FROM CLIP NAME:  ERN_F1643_NSCR_1990-04-01_2 OF 5 RACE B-ROLL TRANSOUTH 500 DARLINGTON DESR NO3_90-EV-0139.NEW.01 
*SOURCE FILE: ERN_F1643_NSCR_1990-04-01_2 OF 5 RACE B-ROLL TRANSOUTH 500 DARLINGTON DESR NO3_90-EV-0139
001233  ERN_F1101_NSCR_1993-01-26_B-ROLL_BTS_INTV_DESR_NEIL_BONNETT_IN_GARAGE_&_TALKING_FRIENDSHIP_1993-NAS-00005_S001                    A22   C        00:24:20:03 00:24:20:09 00:25:42:13 00:25:42:17 
M2      ERN_F1101_NSCR_1993-01-26_B-ROLL_BTS_INTV_DESR_NEIL_BONNETT_IN_GARAGE_&_TALKING_FRIENDSHIP_1993-NAS-00005_S001                             030.0 00:24:20:03 
*FROM CLIP NAME:  ERN_F1101_NSCR_1993-01-26_B-ROLL BTS INTV DESR NEIL BONNETT IN GARAGE & TALKING FRIENDSHIP_1993-NAS-00005_S001.NEW.02 
*TO CLIP NAME:  ERN_F1101_NSCR_1993-01-26_B-ROLL BTS INTV DESR NEIL BONNETT IN GARAGE & TALKING FRIENDSHIP_1993-NAS-00005_S001.NEW.02 
*SOURCE FILE: ERN_F1101_NSCR_1993-01-26_B-ROLL BTS INTV DESR NEIL BONNETT IN GARAGE & TALKING FRIENDSHIP_1993-NAS-00005_S001
001234  ERN_F1101_NSCR_1993-01-26_B-ROLL_BTS_INTV_DESR_NEIL_BONNETT_IN_GARAGE_&_TALKING_FRIENDSHIP_1993-NAS-00005_S001                    A22   C        00:24:20:08 00:24:21:00 00:25:42:17 00:25:43:10 
M2      ERN_F1101_NSCR_1993-01-26_B-ROLL_BTS_INTV_DESR_NEIL_BONNETT_IN_GARAGE_&_TALKING_FRIENDSHIP_1993-NAS-00005_S001                             030.0 00:24:20:08 
*FROM CLIP NAME:  ERN_F1101_NSCR_1993-01-26_B-ROLL BTS INTV DESR NEIL BONNETT IN GARAGE & TALKING FRIENDSHIP_1993-NAS-00005_S001.NEW.02 
*SOURCE FILE: ERN_F1101_NSCR_1993-01-26_B-ROLL BTS INTV DESR NEIL BONNETT IN GARAGE & TALKING FRIENDSHIP_1993-NAS-00005_S001
001235  ERN_F1101_NSCR_1993-01-26_B-ROLL_BTS_INTV_DESR_NEIL_BONNETT_IN_GARAGE_&_TALKING_FRIENDSHIP_1993-NAS-00005_S001                    A22   C        00:27:20:06 00:27:20:09 00:25:43:10 00:25:43:12 
M2      ERN_F1101_NSCR_1993-01-26_B-ROLL_BTS_INTV_DESR_NEIL_BONNETT_IN_GARAGE_&_TALKING_FRIENDSHIP_1993-NAS-00005_S001                             030.0 00:27:20:06 
*FROM CLIP NAME:  ERN_F1101_NSCR_1993-01-26_B-ROLL BTS INTV DESR NEIL BONNETT IN GARAGE & TALKING FRIENDSHIP_1993-NAS-00005_S001.NEW.02 
*TO CLIP NAME:  ERN_F1101_NSCR_1993-01-26_B-ROLL BTS INTV DESR NEIL BONNETT IN GARAGE & TALKING FRIENDSHIP_1993-NAS-00005_S001.NEW.02 
*SOURCE FILE: ERN_F1101_NSCR_1993-01-26_B-ROLL BTS INTV DESR NEIL BONNETT IN GARAGE & TALKING FRIENDSHIP_1993-NAS-00005_S001
001236  ERN_F1101_NSCR_1993-01-26_B-ROLL_BTS_INTV_DESR_NEIL_BONNETT_IN_GARAGE_&_TALKING_FRIENDSHIP_1993-NAS-00005_S001                    A22   C        00:27:20:08 00:27:20:20 00:25:43:12 00:25:43:21 
M2      ERN_F1101_NSCR_1993-01-26_B-ROLL_BTS_INTV_DESR_NEIL_BONNETT_IN_GARAGE_&_TALKING_FRIENDSHIP_1993-NAS-00005_S001                             030.0 00:27:20:08 
*FROM CLIP NAME:  ERN_F1101_NSCR_1993-01-26_B-ROLL BTS INTV DESR NEIL BONNETT IN GARAGE & TALKING FRIENDSHIP_1993-NAS-00005_S001.NEW.02 
*SOURCE FILE: ERN_F1101_NSCR_1993-01-26_B-ROLL BTS INTV DESR NEIL BONNETT IN GARAGE & TALKING FRIENDSHIP_1993-NAS-00005_S001
001237  ERN_F1643_NSCR_1990-04-01_2_OF_5_RACE_B-ROLL_TRANSOUTH_500_DARLINGTON_DESR_NO3_90-EV-0139                                         A18   C        00:42:08:27 00:42:10:09 00:25:43:23 00:25:45:08 
M2      ERN_F1643_NSCR_1990-04-01_2_OF_5_RACE_B-ROLL_TRANSOUTH_500_DARLINGTON_DESR_NO3_90-EV-0139                                                  030.0 00:42:08:27 
*FROM CLIP NAME:  ERN_F1643_NSCR_1990-04-01_2 OF 5 RACE B-ROLL TRANSOUTH 500 DARLINGTON DESR NO3_90-EV-0139.NEW.01 
*SOURCE FILE: ERN_F1643_NSCR_1990-04-01_2 OF 5 RACE B-ROLL TRANSOUTH 500 DARLINGTON DESR NO3_90-EV-0139
001238  ERN_F0653_NSCR_1990-01-04_DESR_RACE_NASCAR_CUP_SERIES_-_DARLINGTON_90-EV-0664                                                     A20   C        01:23:16:27 01:23:17:28 00:25:44:05 00:25:45:05 
M2      ERN_F0653_NSCR_1990-01-04_DESR_RACE_NASCAR_CUP_SERIES_-_DARLINGTON_90-EV-0664                                                              030.0 01:23:16:27 
*FROM CLIP NAME:  ERN_F0653_NSCR_1990-01-04_DESR RACE NASCAR CUP SERIES - DARLINGTON_90-EV-0664.NEW.01 
*SOURCE FILE: ERN_F0653_NSCR_1990-01-04_DESR RACE NASCAR CUP SERIES - DARLINGTON_90-EV-0664
001239  ERN_F0653_NSCR_1990-01-04_DESR_RACE_NASCAR_CUP_SERIES_-_DARLINGTON_90-EV-0664                                                     A20   C        01:23:17:27 01:23:18:00 00:25:45:05 00:25:45:07 
M2      ERN_F0653_NSCR_1990-01-04_DESR_RACE_NASCAR_CUP_SERIES_-_DARLINGTON_90-EV-0664                                                              030.0 01:23:17:27 
*FROM CLIP NAME:  ERN_F0653_NSCR_1990-01-04_DESR RACE NASCAR CUP SERIES - DARLINGTON_90-EV-0664.NEW.01 
*SOURCE FILE: ERN_F0653_NSCR_1990-01-04_DESR RACE NASCAR CUP SERIES - DARLINGTON_90-EV-0664
001240  ERN_F0653_NSCR_1990-01-04_DESR_RACE_NASCAR_CUP_SERIES_-_DARLINGTON_90-EV-0664                                                     A20   C        01:23:23:02 01:23:23:04 00:25:45:07 00:25:45:08 
M2      ERN_F0653_NSCR_1990-01-04_DESR_RACE_NASCAR_CUP_SERIES_-_DARLINGTON_90-EV-0664                                                              030.0 01:23:23:02 
*FROM CLIP NAME:  ERN_F0653_NSCR_1990-01-04_DESR RACE NASCAR CUP SERIES - DARLINGTON_90-EV-0664.NEW.01 
*TO CLIP NAME:  ERN_F0653_NSCR_1990-01-04_DESR RACE NASCAR CUP SERIES - DARLINGTON_90-EV-0664.NEW.01 
*SOURCE FILE: ERN_F0653_NSCR_1990-01-04_DESR RACE NASCAR CUP SERIES - DARLINGTON_90-EV-0664
001241  ERN_F0653_NSCR_1990-01-04_DESR_RACE_NASCAR_CUP_SERIES_-_DARLINGTON_90-EV-0664                                                     A20   C        01:23:23:03 01:23:24:09 00:25:45:08 00:25:46:12 
M2      ERN_F0653_NSCR_1990-01-04_DESR_RACE_NASCAR_CUP_SERIES_-_DARLINGTON_90-EV-0664                                                              030.0 01:23:23:03 
*FROM CLIP NAME:  ERN_F0653_NSCR_1990-01-04_DESR RACE NASCAR CUP SERIES - DARLINGTON_90-EV-0664.NEW.01 
*SOURCE FILE: ERN_F0653_NSCR_1990-01-04_DESR RACE NASCAR CUP SERIES - DARLINGTON_90-EV-0664
001242  ERN_F0653_NSCR_1990-01-04_DESR_RACE_NASCAR_CUP_SERIES_-_DARLINGTON_90-EV-0664                                                     A20   C        01:23:25:14 01:23:25:18 00:25:46:12 00:25:46:14 
M2      ERN_F0653_NSCR_1990-01-04_DESR_RACE_NASCAR_CUP_SERIES_-_DARLINGTON_90-EV-0664                                                              030.0 01:23:25:14 
*FROM CLIP NAME:  ERN_F0653_NSCR_1990-01-04_DESR RACE NASCAR CUP SERIES - DARLINGTON_90-EV-0664.NEW.01 
*TO CLIP NAME:  ERN_F0653_NSCR_1990-01-04_DESR RACE NASCAR CUP SERIES - DARLINGTON_90-EV-0664.NEW.01 
*SOURCE FILE: ERN_F0653_NSCR_1990-01-04_DESR RACE NASCAR CUP SERIES - DARLINGTON_90-EV-0664
001243  ERN_F0653_NSCR_1990-01-04_DESR_RACE_NASCAR_CUP_SERIES_-_DARLINGTON_90-EV-0664                                                     A20   C        01:23:25:17 01:23:27:05 00:25:46:14 00:25:48:04 
M2      ERN_F0653_NSCR_1990-01-04_DESR_RACE_NASCAR_CUP_SERIES_-_DARLINGTON_90-EV-0664                                                              030.0 01:23:25:17 
*FROM CLIP NAME:  ERN_F0653_NSCR_1990-01-04_DESR RACE NASCAR CUP SERIES - DARLINGTON_90-EV-0664.NEW.01 
*SOURCE FILE: ERN_F0653_NSCR_1990-01-04_DESR RACE NASCAR CUP SERIES - DARLINGTON_90-EV-0664
001244  ERN_F0653_NSCR_1990-01-04_DESR_RACE_NASCAR_CUP_SERIES_-_DARLINGTON_90-EV-0664                                                     A20   C        01:23:36:29 01:23:37:03 00:25:48:04 00:25:48:06 
M2      ERN_F0653_NSCR_1990-01-04_DESR_RACE_NASCAR_CUP_SERIES_-_DARLINGTON_90-EV-0664                                                              030.0 01:23:36:29 
*FROM CLIP NAME:  ERN_F0653_NSCR_1990-01-04_DESR RACE NASCAR CUP SERIES - DARLINGTON_90-EV-0664.NEW.01 
*TO CLIP NAME:  ERN_F0653_NSCR_1990-01-04_DESR RACE NASCAR CUP SERIES - DARLINGTON_90-EV-0664.NEW.01 
*SOURCE FILE: ERN_F0653_NSCR_1990-01-04_DESR RACE NASCAR CUP SERIES - DARLINGTON_90-EV-0664
001245  ERN_F0653_NSCR_1990-01-04_DESR_RACE_NASCAR_CUP_SERIES_-_DARLINGTON_90-EV-0664                                                     A20   C        01:23:37:02 01:23:37:09 00:25:48:06 00:25:48:11 
M2      ERN_F0653_NSCR_1990-01-04_DESR_RACE_NASCAR_CUP_SERIES_-_DARLINGTON_90-EV-0664                                                              030.0 01:23:37:02 
*FROM CLIP NAME:  ERN_F0653_NSCR_1990-01-04_DESR RACE NASCAR CUP SERIES - DARLINGTON_90-EV-0664.NEW.01 
*SOURCE FILE: ERN_F0653_NSCR_1990-01-04_DESR RACE NASCAR CUP SERIES - DARLINGTON_90-EV-0664
001246  ERN_F0653_NSCR_1990-01-04_DESR_RACE_NASCAR_CUP_SERIES_-_DARLINGTON_90-EV-0664                                                     V     C        01:23:32:23 01:23:38:24 00:25:48:07 00:25:54:07 
M2      ERN_F0653_NSCR_1990-01-04_DESR_RACE_NASCAR_CUP_SERIES_-_DARLINGTON_90-EV-0664                                                              030.0 01:23:32:23 
*FROM CLIP NAME:  ERN_F0653_NSCR_1990-01-04_DESR RACE NASCAR CUP SERIES - DARLINGTON_90-EV-0664.NEW.01 
*SOURCE FILE: ERN_F0653_NSCR_1990-01-04_DESR RACE NASCAR CUP SERIES - DARLINGTON_90-EV-0664
001247  ERN_F0653_NSCR_1990-01-04_DESR_RACE_NASCAR_CUP_SERIES_-_DARLINGTON_90-EV-0664                                                     A20   C        01:23:32:26 01:23:32:29 00:25:48:11 00:25:48:13 
M2      ERN_F0653_NSCR_1990-01-04_DESR_RACE_NASCAR_CUP_SERIES_-_DARLINGTON_90-EV-0664                                                              030.0 01:23:32:26 
*FROM CLIP NAME:  ERN_F0653_NSCR_1990-01-04_DESR RACE NASCAR CUP SERIES - DARLINGTON_90-EV-0664.NEW.01 
*TO CLIP NAME:  ERN_F0653_NSCR_1990-01-04_DESR RACE NASCAR CUP SERIES - DARLINGTON_90-EV-0664.NEW.01 
*SOURCE FILE: ERN_F0653_NSCR_1990-01-04_DESR RACE NASCAR CUP SERIES - DARLINGTON_90-EV-0664
001248  ERN_F0653_NSCR_1990-01-04_DESR_RACE_NASCAR_CUP_SERIES_-_DARLINGTON_90-EV-0664                                                     A20   C        01:23:32:28 01:23:41:28 00:25:48:13 00:25:57:12 
M2      ERN_F0653_NSCR_1990-01-04_DESR_RACE_NASCAR_CUP_SERIES_-_DARLINGTON_90-EV-0664                                                              030.0 01:23:32:28 
*FROM CLIP NAME:  ERN_F0653_NSCR_1990-01-04_DESR RACE NASCAR CUP SERIES - DARLINGTON_90-EV-0664.NEW.01 
*SOURCE FILE: ERN_F0653_NSCR_1990-01-04_DESR RACE NASCAR CUP SERIES - DARLINGTON_90-EV-0664
001249  ERN_F3982_GETT_1980S_BROLL_CT_SCAN_00058495                                                                                       V     C        00:00:09:11 00:00:13:13 00:25:54:07 00:25:58:08 
M2      ERN_F3982_GETT_1980S_BROLL_CT_SCAN_00058495                                                                                                024.0 00:00:09:11 
*FROM CLIP NAME:  ERN_F3982_GETT_1980S_BROLL CT SCAN_00058495.NEW.01 
*SOURCE FILE: ERN_F3982_GETT_1980S_BROLL CT SCAN_00058495
001250  ERN_F3982_GETT_1980S_BROLL_CT_SCAN_00058495                                                                                       A22   C        00:00:18:22 00:00:19:23 00:25:56:03 00:25:57:03 
M2      ERN_F3982_GETT_1980S_BROLL_CT_SCAN_00058495                                                                                                024.0 00:00:18:22 
*FROM CLIP NAME:  ERN_F3982_GETT_1980S_BROLL CT SCAN_00058495.NEW.01 
*SOURCE FILE: ERN_F3982_GETT_1980S_BROLL CT SCAN_00058495
001251  ERN_F0653_NSCR_1990-01-04_DESR_RACE_NASCAR_CUP_SERIES_-_DARLINGTON_90-EV-0664                                                     A18   C        01:23:46:03 01:23:46:19 00:25:56:22 00:25:57:10 
M2      ERN_F0653_NSCR_1990-01-04_DESR_RACE_NASCAR_CUP_SERIES_-_DARLINGTON_90-EV-0664                                                              030.0 01:23:46:03 
*FROM CLIP NAME:  ERN_F0653_NSCR_1990-01-04_DESR RACE NASCAR CUP SERIES - DARLINGTON_90-EV-0664.NEW.01 
*SOURCE FILE: ERN_F0653_NSCR_1990-01-04_DESR RACE NASCAR CUP SERIES - DARLINGTON_90-EV-0664
001252  ERN_F3982_GETT_1980S_BROLL_CT_SCAN_00058495                                                                                       A22   C        00:00:19:22 00:00:22:03 00:25:57:03 00:25:59:07 
M2      ERN_F3982_GETT_1980S_BROLL_CT_SCAN_00058495                                                                                                024.0 00:00:19:22 
*FROM CLIP NAME:  ERN_F3982_GETT_1980S_BROLL CT SCAN_00058495.NEW.01 
*SOURCE FILE: ERN_F3982_GETT_1980S_BROLL CT SCAN_00058495
001253  ERN_F3982_GETT_1980S_BROLL_CT_SCAN_00058495                                                                                       V     C        00:00:21:03 00:00:24:05 00:25:58:08 00:26:01:09 
M2      ERN_F3982_GETT_1980S_BROLL_CT_SCAN_00058495                                                                                                024.0 00:00:21:03 
*FROM CLIP NAME:  ERN_F3982_GETT_1980S_BROLL CT SCAN_00058495.NEW.01 
*SOURCE FILE: ERN_F3982_GETT_1980S_BROLL CT SCAN_00058495
001254  ERN_F1101_NSCR_1993-01-26_B-ROLL_BTS_INTV_DESR_NEIL_BONNETT_IN_GARAGE_&_TALKING_FRIENDSHIP_1993-NAS-00005_S001                    A18   C        00:25:47:22 00:25:47:27 00:25:59:12 00:25:59:16 
M2      ERN_F1101_NSCR_1993-01-26_B-ROLL_BTS_INTV_DESR_NEIL_BONNETT_IN_GARAGE_&_TALKING_FRIENDSHIP_1993-NAS-00005_S001                             030.0 00:25:47:22 
*FROM CLIP NAME:  ERN_F1101_NSCR_1993-01-26_B-ROLL BTS INTV DESR NEIL BONNETT IN GARAGE & TALKING FRIENDSHIP_1993-NAS-00005_S001.NEW.02 
*SOURCE FILE: ERN_F1101_NSCR_1993-01-26_B-ROLL BTS INTV DESR NEIL BONNETT IN GARAGE & TALKING FRIENDSHIP_1993-NAS-00005_S001
001255  ERN_F1101_NSCR_1993-01-26_B-ROLL_BTS_INTV_DESR_NEIL_BONNETT_IN_GARAGE_&_TALKING_FRIENDSHIP_1993-NAS-00005_S001                    A18   C        00:25:47:27 00:25:48:24 00:25:59:16 00:26:00:13 
M2      ERN_F1101_NSCR_1993-01-26_B-ROLL_BTS_INTV_DESR_NEIL_BONNETT_IN_GARAGE_&_TALKING_FRIENDSHIP_1993-NAS-00005_S001                             030.0 00:25:47:27 
*FROM CLIP NAME:  ERN_F1101_NSCR_1993-01-26_B-ROLL BTS INTV DESR NEIL BONNETT IN GARAGE & TALKING FRIENDSHIP_1993-NAS-00005_S001.NEW.02 
*SOURCE FILE: ERN_F1101_NSCR_1993-01-26_B-ROLL BTS INTV DESR NEIL BONNETT IN GARAGE & TALKING FRIENDSHIP_1993-NAS-00005_S001
001256  ERN_F1101_NSCR_1993-01-26_B-ROLL_BTS_INTV_DESR_NEIL_BONNETT_IN_GARAGE_&_TALKING_FRIENDSHIP_1993-NAS-00005_S001                    A18   C        00:25:50:04 00:25:50:07 00:26:00:13 00:26:00:15 
M2      ERN_F1101_NSCR_1993-01-26_B-ROLL_BTS_INTV_DESR_NEIL_BONNETT_IN_GARAGE_&_TALKING_FRIENDSHIP_1993-NAS-00005_S001                             030.0 00:25:50:04 
*FROM CLIP NAME:  ERN_F1101_NSCR_1993-01-26_B-ROLL BTS INTV DESR NEIL BONNETT IN GARAGE & TALKING FRIENDSHIP_1993-NAS-00005_S001.NEW.02 
*TO CLIP NAME:  ERN_F1101_NSCR_1993-01-26_B-ROLL BTS INTV DESR NEIL BONNETT IN GARAGE & TALKING FRIENDSHIP_1993-NAS-00005_S001.NEW.02 
*SOURCE FILE: ERN_F1101_NSCR_1993-01-26_B-ROLL BTS INTV DESR NEIL BONNETT IN GARAGE & TALKING FRIENDSHIP_1993-NAS-00005_S001
001257  ERN_F1101_NSCR_1993-01-26_B-ROLL_BTS_INTV_DESR_NEIL_BONNETT_IN_GARAGE_&_TALKING_FRIENDSHIP_1993-NAS-00005_S001                    A18   C        00:25:50:07 00:25:58:20 00:26:00:15 00:26:09:01 
M2      ERN_F1101_NSCR_1993-01-26_B-ROLL_BTS_INTV_DESR_NEIL_BONNETT_IN_GARAGE_&_TALKING_FRIENDSHIP_1993-NAS-00005_S001                             030.0 00:25:50:07 
*FROM CLIP NAME:  ERN_F1101_NSCR_1993-01-26_B-ROLL BTS INTV DESR NEIL BONNETT IN GARAGE & TALKING FRIENDSHIP_1993-NAS-00005_S001.NEW.02 
*SOURCE FILE: ERN_F1101_NSCR_1993-01-26_B-ROLL BTS INTV DESR NEIL BONNETT IN GARAGE & TALKING FRIENDSHIP_1993-NAS-00005_S001
001258  ERN_F3984_KINO_1970-80S_BROLL_CT_SCAN_16MM_KLR728                                                                                 V     C        00:00:42:23 00:00:49:06 00:26:01:09 00:26:07:15 
M2      ERN_F3984_KINO_1970-80S_BROLL_CT_SCAN_16MM_KLR728                                                                                          024.0 00:00:42:23 
*FROM CLIP NAME:  ERN_F3984_KINO_1970-80S_BROLL CT SCAN 16MM_KLR728.NEW.01 
*SOURCE FILE: ERN_F3984_KINO_1970-80S_BROLL CT SCAN 16MM_KLR728
001259  ERN_F1101_NSCR_1993-01-26_B-ROLL_BTS_INTV_DESR_NEIL_BONNETT_IN_GARAGE_&_TALKING_FRIENDSHIP_1993-NAS-00005_S001                    V     C        00:25:57:07 00:25:59:16 00:26:07:15 00:26:09:22 
M2      ERN_F1101_NSCR_1993-01-26_B-ROLL_BTS_INTV_DESR_NEIL_BONNETT_IN_GARAGE_&_TALKING_FRIENDSHIP_1993-NAS-00005_S001                             030.0 00:25:57:07 
*FROM CLIP NAME:  ERN_F1101_NSCR_1993-01-26_B-ROLL BTS INTV DESR NEIL BONNETT IN GARAGE & TALKING FRIENDSHIP_1993-NAS-00005_S001.NEW.02 
*SOURCE FILE: ERN_F1101_NSCR_1993-01-26_B-ROLL BTS INTV DESR NEIL BONNETT IN GARAGE & TALKING FRIENDSHIP_1993-NAS-00005_S001
001260  ERN_S0461_SMYL_1981_DESR_GRAND_NATIONAL_SCENE_W_NEIL_BONNETT_GNS1981_0813.JPG                                                     V     C        01:00:02:06 01:00:10:15 00:26:09:22 00:26:18:07 
*FROM CLIP NAME:  ERN_S0461_SMYL_1981_DESR GRAND NATIONAL SCENE W NEIL BONNETT_GNS1981 0813.JPG 
*SOURCE FILE: ERN_S0461_SMYL_1981_DESR GRAND NATIONAL SCENE W NEIL BONNETT_GNS1981 0813.JPG
001261  ERN_S3090_NEWS_1990-04-04_ARTICLE_NEIL_BONNETT_HAS_A_CASE_OF_AMNESIA_PRESS_ENTERPRISE.PNG                                         V     C        01:00:07:08 01:00:08:08 00:26:10:09 00:26:11:09 
*FROM CLIP NAME:  ERN_S3090_NEWS_1990-04-04_ARTICLE NEIL BONNETT HAS A CASE OF AMNESIA_PRESS ENTERPRISE.PNG 
*SOURCE FILE: ERN_S3090_NEWS_1990-04-04_ARTICLE NEIL BONNETT HAS A CASE OF AMNESIA_PRESS ENTERPRISE.PNG
001262  ERN_F1101_NSCR_1993-01-26_B-ROLL_BTS_INTV_DESR_NEIL_BONNETT_IN_GARAGE_&_TALKING_FRIENDSHIP_1993-NAS-00005_S001                    A18   C        00:25:59:18 00:25:59:22 00:26:10:18 00:26:10:21 
M2      ERN_F1101_NSCR_1993-01-26_B-ROLL_BTS_INTV_DESR_NEIL_BONNETT_IN_GARAGE_&_TALKING_FRIENDSHIP_1993-NAS-00005_S001                             030.0 00:25:59:18 
*FROM CLIP NAME:  ERN_F1101_NSCR_1993-01-26_B-ROLL BTS INTV DESR NEIL BONNETT IN GARAGE & TALKING FRIENDSHIP_1993-NAS-00005_S001.NEW.02 
*SOURCE FILE: ERN_F1101_NSCR_1993-01-26_B-ROLL BTS INTV DESR NEIL BONNETT IN GARAGE & TALKING FRIENDSHIP_1993-NAS-00005_S001
001263  ERN_F1101_NSCR_1993-01-26_B-ROLL_BTS_INTV_DESR_NEIL_BONNETT_IN_GARAGE_&_TALKING_FRIENDSHIP_1993-NAS-00005_S001                    A18   C        00:25:59:22 00:26:02:19 00:26:10:21 00:26:13:17 
M2      ERN_F1101_NSCR_1993-01-26_B-ROLL_BTS_INTV_DESR_NEIL_BONNETT_IN_GARAGE_&_TALKING_FRIENDSHIP_1993-NAS-00005_S001                             030.0 00:25:59:22 
*FROM CLIP NAME:  ERN_F1101_NSCR_1993-01-26_B-ROLL BTS INTV DESR NEIL BONNETT IN GARAGE & TALKING FRIENDSHIP_1993-NAS-00005_S001.NEW.02 
*SOURCE FILE: ERN_F1101_NSCR_1993-01-26_B-ROLL BTS INTV DESR NEIL BONNETT IN GARAGE & TALKING FRIENDSHIP_1993-NAS-00005_S001
001264  ERN_S3090_NEWS_1990-04-04_ARTICLE_NEIL_BONNETT_HAS_A_CASE_OF_AMNESIA_PRESS_ENTERPRISE.PNG                                         V     C        01:00:08:08 01:00:15:06 00:26:11:09 00:26:18:07 
*FROM CLIP NAME:  ERN_S3090_NEWS_1990-04-04_ARTICLE NEIL BONNETT HAS A CASE OF AMNESIA_PRESS ENTERPRISE.PNG 
*SOURCE FILE: ERN_S3090_NEWS_1990-04-04_ARTICLE NEIL BONNETT HAS A CASE OF AMNESIA_PRESS ENTERPRISE.PNG
001265  ERN_A0288_MRNR_1990-04-03_NASCAR_LIVE_GEOFF_BODINE_POST_TRANSOUTH_500_01.MP3                                                      A20   C        00:03:03:09 00:03:03:12 00:26:14:22 00:26:15:01 
*FROM CLIP NAME:  ERN_A0288_MRNR_1990-04-03_NASCAR LIVE GEOFF BODINE POST TRANSOUTH 500_01 
*SOURCE FILE: ERN_A0288_MRNR_1990-04-03_NASCAR LIVE GEOFF BODINE POST TRANSOUTH 500_01.MP3
001266  ERN_A0288_MRNR_1990-04-03_NASCAR_LIVE_GEOFF_BODINE_POST_TRANSOUTH_500_01.MP3                                                      A20   C        00:03:03:12 00:03:05:17 00:26:15:01 00:26:17:06 
*FROM CLIP NAME:  ERN_A0288_MRNR_1990-04-03_NASCAR LIVE GEOFF BODINE POST TRANSOUTH 500_01 
*SOURCE FILE: ERN_A0288_MRNR_1990-04-03_NASCAR LIVE GEOFF BODINE POST TRANSOUTH 500_01.MP3
001267  ERN_A0288_MRNR_1990-04-03_NASCAR_LIVE_GEOFF_BODINE_POST_TRANSOUTH_500_01.MP3                                                      A20   C        00:03:11:11 00:03:11:13 00:26:17:06 00:26:17:08 
*FROM CLIP NAME:  ERN_A0288_MRNR_1990-04-03_NASCAR LIVE GEOFF BODINE POST TRANSOUTH 500_01 
*TO CLIP NAME:  ERN_A0288_MRNR_1990-04-03_NASCAR LIVE GEOFF BODINE POST TRANSOUTH 500_01 
*SOURCE FILE: ERN_A0288_MRNR_1990-04-03_NASCAR LIVE GEOFF BODINE POST TRANSOUTH 500_01.MP3
001268  ERN_A0288_MRNR_1990-04-03_NASCAR_LIVE_GEOFF_BODINE_POST_TRANSOUTH_500_01.MP3                                                      A20   C        00:03:11:13 00:03:13:19 00:26:17:08 00:26:19:14 
*FROM CLIP NAME:  ERN_A0288_MRNR_1990-04-03_NASCAR LIVE GEOFF BODINE POST TRANSOUTH 500_01 
*SOURCE FILE: ERN_A0288_MRNR_1990-04-03_NASCAR LIVE GEOFF BODINE POST TRANSOUTH 500_01.MP3
001269  ERN_F2722__2007-03-23_BONNET_INTV_SE003125                                                                                        V     C        00:19:16:10 00:19:20:05 00:26:18:07 00:26:23:01 
M2      ERN_F2722__2007-03-23_BONNET_INTV_SE003125                                                                                                 024.0 00:19:16:10 
*FROM CLIP NAME:  ERN_F2722__2007-03-23_BONNET INTV_SE003125.NEW.01 
*SOURCE FILE: ERN_F2722__2007-03-23_BONNET INTV_SE003125
001270  ERN_A0288_MRNR_1990-04-03_NASCAR_LIVE_GEOFF_BODINE_POST_TRANSOUTH_500_01.MP3                                                      A20   C        00:04:50:08 00:04:52:15 00:26:19:14 00:26:21:21 
*FROM CLIP NAME:  ERN_A0288_MRNR_1990-04-03_NASCAR LIVE GEOFF BODINE POST TRANSOUTH 500_01 
*SOURCE FILE: ERN_A0288_MRNR_1990-04-03_NASCAR LIVE GEOFF BODINE POST TRANSOUTH 500_01.MP3
001271  ERN_A0288_MRNR_1990-04-03_NASCAR_LIVE_GEOFF_BODINE_POST_TRANSOUTH_500_01.MP3                                                      A20   C        00:05:25:05 00:05:28:15 00:26:21:21 00:26:25:07 
*FROM CLIP NAME:  ERN_A0288_MRNR_1990-04-03_NASCAR LIVE GEOFF BODINE POST TRANSOUTH 500_01 
*SOURCE FILE: ERN_A0288_MRNR_1990-04-03_NASCAR LIVE GEOFF BODINE POST TRANSOUTH 500_01.MP3
001272  ERN_F2722__2007-03-23_BONNET_INTV_SE003125                                                                                        V     C        00:18:58:00 00:19:04:00 00:26:23:01 00:26:28:23 
M2      ERN_F2722__2007-03-23_BONNET_INTV_SE003125                                                                                                 030.0 00:18:58:00 
*FROM CLIP NAME:  ERN_F2722__2007-03-23_BONNET INTV_SE003125.NEW.01 
*SOURCE FILE: ERN_F2722__2007-03-23_BONNET INTV_SE003125
001273  ERN_A0288_MRNR_1990-04-03_NASCAR_LIVE_GEOFF_BODINE_POST_TRANSOUTH_500_01.MP3                                                      A20   C        00:05:28:23 00:05:29:01 00:26:25:07 00:26:25:09 
*FROM CLIP NAME:  ERN_A0288_MRNR_1990-04-03_NASCAR LIVE GEOFF BODINE POST TRANSOUTH 500_01 
*TO CLIP NAME:  ERN_A0288_MRNR_1990-04-03_NASCAR LIVE GEOFF BODINE POST TRANSOUTH 500_01 
*SOURCE FILE: ERN_A0288_MRNR_1990-04-03_NASCAR LIVE GEOFF BODINE POST TRANSOUTH 500_01.MP3
001274  ERN_A0288_MRNR_1990-04-03_NASCAR_LIVE_GEOFF_BODINE_POST_TRANSOUTH_500_01.MP3                                                      A20   C        00:05:29:01 00:05:31:06 00:26:25:09 00:26:27:14 
*FROM CLIP NAME:  ERN_A0288_MRNR_1990-04-03_NASCAR LIVE GEOFF BODINE POST TRANSOUTH 500_01 
*SOURCE FILE: ERN_A0288_MRNR_1990-04-03_NASCAR LIVE GEOFF BODINE POST TRANSOUTH 500_01.MP3
001275  ERN_A0288_MRNR_1990-04-03_NASCAR_LIVE_GEOFF_BODINE_POST_TRANSOUTH_500_01.MP3                                                      A20   C        00:05:35:17 00:05:35:19 00:26:27:14 00:26:27:16 
*FROM CLIP NAME:  ERN_A0288_MRNR_1990-04-03_NASCAR LIVE GEOFF BODINE POST TRANSOUTH 500_01 
*TO CLIP NAME:  ERN_A0288_MRNR_1990-04-03_NASCAR LIVE GEOFF BODINE POST TRANSOUTH 500_01 
*SOURCE FILE: ERN_A0288_MRNR_1990-04-03_NASCAR LIVE GEOFF BODINE POST TRANSOUTH 500_01.MP3
001276  ERN_A0288_MRNR_1990-04-03_NASCAR_LIVE_GEOFF_BODINE_POST_TRANSOUTH_500_01.MP3                                                      A20   C        00:05:35:19 00:05:36:16 00:26:27:16 00:26:28:13 
*FROM CLIP NAME:  ERN_A0288_MRNR_1990-04-03_NASCAR LIVE GEOFF BODINE POST TRANSOUTH 500_01 
*SOURCE FILE: ERN_A0288_MRNR_1990-04-03_NASCAR LIVE GEOFF BODINE POST TRANSOUTH 500_01.MP3
001277  ERN_F9581_NSCR_1993-03-09_NON_RACING_INTV_NEIL_BONNETT_W_SUSAN_BONNETT_TNN000290_S003                                             V     C        00:02:13:08 00:02:20:26 00:26:28:23 00:26:36:13 
M2      ERN_F9581_NSCR_1993-03-09_NON_RACING_INTV_NEIL_BONNETT_W_SUSAN_BONNETT_TNN000290_S003                                                      030.0 00:02:13:08 
*FROM CLIP NAME:  ERN_F9581_NSCR_1993-03-09_NON RACING INTV NEIL BONNETT W SUSAN BONNETT_TNN000290_S003.NEW.01 
*SOURCE FILE: ERN_F9581_NSCR_1993-03-09_NON RACING INTV NEIL BONNETT W SUSAN BONNETT_TNN000290_S003
001278  ERN_F1101_NSCR_1993-01-26_B-ROLL_BTS_INTV_DESR_NEIL_BONNETT_IN_GARAGE_&_TALKING_FRIENDSHIP_1993-NAS-00005_S001                    A18   C        00:26:23:20 00:26:23:26 00:26:30:10 00:26:30:14 
M2      ERN_F1101_NSCR_1993-01-26_B-ROLL_BTS_INTV_DESR_NEIL_BONNETT_IN_GARAGE_&_TALKING_FRIENDSHIP_1993-NAS-00005_S001                             030.0 00:26:23:20 
*FROM CLIP NAME:  ERN_F1101_NSCR_1993-01-26_B-ROLL BTS INTV DESR NEIL BONNETT IN GARAGE & TALKING FRIENDSHIP_1993-NAS-00005_S001.NEW.02 
*SOURCE FILE: ERN_F1101_NSCR_1993-01-26_B-ROLL BTS INTV DESR NEIL BONNETT IN GARAGE & TALKING FRIENDSHIP_1993-NAS-00005_S001
001279  ERN_F1101_NSCR_1993-01-26_B-ROLL_BTS_INTV_DESR_NEIL_BONNETT_IN_GARAGE_&_TALKING_FRIENDSHIP_1993-NAS-00005_S001                    A18   C        00:26:23:25 00:26:26:07 00:26:30:14 00:26:32:23 
M2      ERN_F1101_NSCR_1993-01-26_B-ROLL_BTS_INTV_DESR_NEIL_BONNETT_IN_GARAGE_&_TALKING_FRIENDSHIP_1993-NAS-00005_S001                             030.0 00:26:23:25 
*FROM CLIP NAME:  ERN_F1101_NSCR_1993-01-26_B-ROLL BTS INTV DESR NEIL BONNETT IN GARAGE & TALKING FRIENDSHIP_1993-NAS-00005_S001.NEW.02 
*SOURCE FILE: ERN_F1101_NSCR_1993-01-26_B-ROLL BTS INTV DESR NEIL BONNETT IN GARAGE & TALKING FRIENDSHIP_1993-NAS-00005_S001
001280  ERN_F1101_NSCR_1993-01-26_B-ROLL_BTS_INTV_DESR_NEIL_BONNETT_IN_GARAGE_&_TALKING_FRIENDSHIP_1993-NAS-00005_S001                    A18   C        00:26:26:25 00:26:27:01 00:26:32:23 00:26:33:03 
M2      ERN_F1101_NSCR_1993-01-26_B-ROLL_BTS_INTV_DESR_NEIL_BONNETT_IN_GARAGE_&_TALKING_FRIENDSHIP_1993-NAS-00005_S001                             030.0 00:26:26:25 
*FROM CLIP NAME:  ERN_F1101_NSCR_1993-01-26_B-ROLL BTS INTV DESR NEIL BONNETT IN GARAGE & TALKING FRIENDSHIP_1993-NAS-00005_S001.NEW.02 
*TO CLIP NAME:  ERN_F1101_NSCR_1993-01-26_B-ROLL BTS INTV DESR NEIL BONNETT IN GARAGE & TALKING FRIENDSHIP_1993-NAS-00005_S001.NEW.02 
*SOURCE FILE: ERN_F1101_NSCR_1993-01-26_B-ROLL BTS INTV DESR NEIL BONNETT IN GARAGE & TALKING FRIENDSHIP_1993-NAS-00005_S001
001281  ERN_F1101_NSCR_1993-01-26_B-ROLL_BTS_INTV_DESR_NEIL_BONNETT_IN_GARAGE_&_TALKING_FRIENDSHIP_1993-NAS-00005_S001                    A18   C        00:26:27:00 00:26:29:07 00:26:33:03 00:26:35:08 
M2      ERN_F1101_NSCR_1993-01-26_B-ROLL_BTS_INTV_DESR_NEIL_BONNETT_IN_GARAGE_&_TALKING_FRIENDSHIP_1993-NAS-00005_S001                             030.0 00:26:27:00 
*FROM CLIP NAME:  ERN_F1101_NSCR_1993-01-26_B-ROLL BTS INTV DESR NEIL BONNETT IN GARAGE & TALKING FRIENDSHIP_1993-NAS-00005_S001.NEW.02 
*SOURCE FILE: ERN_F1101_NSCR_1993-01-26_B-ROLL BTS INTV DESR NEIL BONNETT IN GARAGE & TALKING FRIENDSHIP_1993-NAS-00005_S001
001282  ERN_F2722__2007-03-23_BONNET_INTV_SE003125                                                                                        A22   C        00:20:03:08 00:20:04:24 00:26:35:05 00:26:36:17 
M2      ERN_F2722__2007-03-23_BONNET_INTV_SE003125                                                                                                 030.0 00:20:03:08 
*FROM CLIP NAME:  ERN_F2722__2007-03-23_BONNET INTV_SE003125.NEW.01 
*SOURCE FILE: ERN_F2722__2007-03-23_BONNET INTV_SE003125
001283  ERN_F2722__2007-03-23_BONNET_INTV_SE003125                                                                                        V     C        00:20:03:23 00:20:12:14 00:26:36:13 00:26:45:05 
M2      ERN_F2722__2007-03-23_BONNET_INTV_SE003125                                                                                                 030.0 00:20:03:23 
*FROM CLIP NAME:  ERN_F2722__2007-03-23_BONNET INTV_SE003125.NEW.01 
*SOURCE FILE: ERN_F2722__2007-03-23_BONNET INTV_SE003125
001284  ERN_F2722__2007-03-23_BONNET_INTV_SE003125                                                                                        A22   C        00:20:04:23 00:20:12:26 00:26:36:17 00:26:44:19 
M2      ERN_F2722__2007-03-23_BONNET_INTV_SE003125                                                                                                 030.0 00:20:04:23 
*FROM CLIP NAME:  ERN_F2722__2007-03-23_BONNET INTV_SE003125.NEW.01 
*SOURCE FILE: ERN_F2722__2007-03-23_BONNET INTV_SE003125
001285  ERN_F1101_NSCR_1993-01-26_B-ROLL_BTS_INTV_DESR_NEIL_BONNETT_IN_GARAGE_&_TALKING_FRIENDSHIP_1993-NAS-00005_S001                    A18   C        00:26:35:26 00:26:36:02 00:26:37:22 00:26:38:02 
M2      ERN_F1101_NSCR_1993-01-26_B-ROLL_BTS_INTV_DESR_NEIL_BONNETT_IN_GARAGE_&_TALKING_FRIENDSHIP_1993-NAS-00005_S001                             030.0 00:26:35:26 
*FROM CLIP NAME:  ERN_F1101_NSCR_1993-01-26_B-ROLL BTS INTV DESR NEIL BONNETT IN GARAGE & TALKING FRIENDSHIP_1993-NAS-00005_S001.NEW.02 
*SOURCE FILE: ERN_F1101_NSCR_1993-01-26_B-ROLL BTS INTV DESR NEIL BONNETT IN GARAGE & TALKING FRIENDSHIP_1993-NAS-00005_S001
001286  ERN_F1101_NSCR_1993-01-26_B-ROLL_BTS_INTV_DESR_NEIL_BONNETT_IN_GARAGE_&_TALKING_FRIENDSHIP_1993-NAS-00005_S001                    A18   C        00:26:36:01 00:26:40:06 00:26:38:02 00:26:42:05 
M2      ERN_F1101_NSCR_1993-01-26_B-ROLL_BTS_INTV_DESR_NEIL_BONNETT_IN_GARAGE_&_TALKING_FRIENDSHIP_1993-NAS-00005_S001                             030.0 00:26:36:01 
*FROM CLIP NAME:  ERN_F1101_NSCR_1993-01-26_B-ROLL BTS INTV DESR NEIL BONNETT IN GARAGE & TALKING FRIENDSHIP_1993-NAS-00005_S001.NEW.02 
*SOURCE FILE: ERN_F1101_NSCR_1993-01-26_B-ROLL BTS INTV DESR NEIL BONNETT IN GARAGE & TALKING FRIENDSHIP_1993-NAS-00005_S001
001287  ERN_F1101_NSCR_1993-01-26_B-ROLL_BTS_INTV_DESR_NEIL_BONNETT_IN_GARAGE_&_TALKING_FRIENDSHIP_1993-NAS-00005_S001                    A18   C        00:26:53:19 00:26:53:24 00:26:42:05 00:26:42:09 
M2      ERN_F1101_NSCR_1993-01-26_B-ROLL_BTS_INTV_DESR_NEIL_BONNETT_IN_GARAGE_&_TALKING_FRIENDSHIP_1993-NAS-00005_S001                             030.0 00:26:53:19 
*FROM CLIP NAME:  ERN_F1101_NSCR_1993-01-26_B-ROLL BTS INTV DESR NEIL BONNETT IN GARAGE & TALKING FRIENDSHIP_1993-NAS-00005_S001.NEW.02 
*TO CLIP NAME:  ERN_F1101_NSCR_1993-01-26_B-ROLL BTS INTV DESR NEIL BONNETT IN GARAGE & TALKING FRIENDSHIP_1993-NAS-00005_S001.NEW.02 
*SOURCE FILE: ERN_F1101_NSCR_1993-01-26_B-ROLL BTS INTV DESR NEIL BONNETT IN GARAGE & TALKING FRIENDSHIP_1993-NAS-00005_S001
001288  ERN_F1101_NSCR_1993-01-26_B-ROLL_BTS_INTV_DESR_NEIL_BONNETT_IN_GARAGE_&_TALKING_FRIENDSHIP_1993-NAS-00005_S001                    A18   C        00:26:53:24 00:26:55:03 00:26:42:09 00:26:43:16 
M2      ERN_F1101_NSCR_1993-01-26_B-ROLL_BTS_INTV_DESR_NEIL_BONNETT_IN_GARAGE_&_TALKING_FRIENDSHIP_1993-NAS-00005_S001                             030.0 00:26:53:24 
*FROM CLIP NAME:  ERN_F1101_NSCR_1993-01-26_B-ROLL BTS INTV DESR NEIL BONNETT IN GARAGE & TALKING FRIENDSHIP_1993-NAS-00005_S001.NEW.02 
*SOURCE FILE: ERN_F1101_NSCR_1993-01-26_B-ROLL BTS INTV DESR NEIL BONNETT IN GARAGE & TALKING FRIENDSHIP_1993-NAS-00005_S001
001289  ERN_F1101_NSCR_1993-01-26_B-ROLL_BTS_INTV_DESR_NEIL_BONNETT_IN_GARAGE_&_TALKING_FRIENDSHIP_1993-NAS-00005_S001                    A18   C        00:26:55:16 00:26:55:19 00:26:43:16 00:26:43:18 
M2      ERN_F1101_NSCR_1993-01-26_B-ROLL_BTS_INTV_DESR_NEIL_BONNETT_IN_GARAGE_&_TALKING_FRIENDSHIP_1993-NAS-00005_S001                             030.0 00:26:55:16 
*FROM CLIP NAME:  ERN_F1101_NSCR_1993-01-26_B-ROLL BTS INTV DESR NEIL BONNETT IN GARAGE & TALKING FRIENDSHIP_1993-NAS-00005_S001.NEW.02 
*TO CLIP NAME:  ERN_F1101_NSCR_1993-01-26_B-ROLL BTS INTV DESR NEIL BONNETT IN GARAGE & TALKING FRIENDSHIP_1993-NAS-00005_S001.NEW.02 
*SOURCE FILE: ERN_F1101_NSCR_1993-01-26_B-ROLL BTS INTV DESR NEIL BONNETT IN GARAGE & TALKING FRIENDSHIP_1993-NAS-00005_S001
001290  ERN_F1101_NSCR_1993-01-26_B-ROLL_BTS_INTV_DESR_NEIL_BONNETT_IN_GARAGE_&_TALKING_FRIENDSHIP_1993-NAS-00005_S001                    A18   C        00:26:55:19 00:27:00:11 00:26:43:18 00:26:48:10 
M2      ERN_F1101_NSCR_1993-01-26_B-ROLL_BTS_INTV_DESR_NEIL_BONNETT_IN_GARAGE_&_TALKING_FRIENDSHIP_1993-NAS-00005_S001                             030.0 00:26:55:19 
*FROM CLIP NAME:  ERN_F1101_NSCR_1993-01-26_B-ROLL BTS INTV DESR NEIL BONNETT IN GARAGE & TALKING FRIENDSHIP_1993-NAS-00005_S001.NEW.02 
*SOURCE FILE: ERN_F1101_NSCR_1993-01-26_B-ROLL BTS INTV DESR NEIL BONNETT IN GARAGE & TALKING FRIENDSHIP_1993-NAS-00005_S001
001291  ERN_F1101_NSCR_1993-01-26_B-ROLL_BTS_INTV_DESR_NEIL_BONNETT_IN_GARAGE_&_TALKING_FRIENDSHIP_1993-NAS-00005_S001                    V     C        00:26:57:02 00:27:01:03 00:26:45:05 00:26:49:06 
M2      ERN_F1101_NSCR_1993-01-26_B-ROLL_BTS_INTV_DESR_NEIL_BONNETT_IN_GARAGE_&_TALKING_FRIENDSHIP_1993-NAS-00005_S001                             029.2 00:26:57:02 
*FROM CLIP NAME:  ERN_F1101_NSCR_1993-01-26_B-ROLL BTS INTV DESR NEIL BONNETT IN GARAGE & TALKING FRIENDSHIP_1993-NAS-00005_S001.NEW.02 
*SOURCE FILE: ERN_F1101_NSCR_1993-01-26_B-ROLL BTS INTV DESR NEIL BONNETT IN GARAGE & TALKING FRIENDSHIP_1993-NAS-00005_S001
001292  ERN_F1101_NSCR_1993-01-26_B-ROLL_BTS_INTV_DESR_NEIL_BONNETT_IN_GARAGE_&_TALKING_FRIENDSHIP_1993-NAS-00005_S001                    A18   C        00:27:20:04 00:27:20:09 00:26:48:10 00:26:48:13 
M2      ERN_F1101_NSCR_1993-01-26_B-ROLL_BTS_INTV_DESR_NEIL_BONNETT_IN_GARAGE_&_TALKING_FRIENDSHIP_1993-NAS-00005_S001                             030.0 00:27:20:04 
*FROM CLIP NAME:  ERN_F1101_NSCR_1993-01-26_B-ROLL BTS INTV DESR NEIL BONNETT IN GARAGE & TALKING FRIENDSHIP_1993-NAS-00005_S001.NEW.02 
*TO CLIP NAME:  ERN_F1101_NSCR_1993-01-26_B-ROLL BTS INTV DESR NEIL BONNETT IN GARAGE & TALKING FRIENDSHIP_1993-NAS-00005_S001.NEW.02 
*SOURCE FILE: ERN_F1101_NSCR_1993-01-26_B-ROLL BTS INTV DESR NEIL BONNETT IN GARAGE & TALKING FRIENDSHIP_1993-NAS-00005_S001
001293  ERN_F1101_NSCR_1993-01-26_B-ROLL_BTS_INTV_DESR_NEIL_BONNETT_IN_GARAGE_&_TALKING_FRIENDSHIP_1993-NAS-00005_S001                    A18   C        00:27:20:08 00:27:21:05 00:26:48:13 00:26:49:10 
M2      ERN_F1101_NSCR_1993-01-26_B-ROLL_BTS_INTV_DESR_NEIL_BONNETT_IN_GARAGE_&_TALKING_FRIENDSHIP_1993-NAS-00005_S001                             030.0 00:27:20:08 
*FROM CLIP NAME:  ERN_F1101_NSCR_1993-01-26_B-ROLL BTS INTV DESR NEIL BONNETT IN GARAGE & TALKING FRIENDSHIP_1993-NAS-00005_S001.NEW.02 
*SOURCE FILE: ERN_F1101_NSCR_1993-01-26_B-ROLL BTS INTV DESR NEIL BONNETT IN GARAGE & TALKING FRIENDSHIP_1993-NAS-00005_S001
001294  ERN_F5191_NSCR_2005-10-11_RICHARD_CHILDRESS_INTV_SE003105                                                                         A22   C        00:10:40:04 00:10:40:20 00:26:49:02 00:26:49:14 
M2      ERN_F5191_NSCR_2005-10-11_RICHARD_CHILDRESS_INTV_SE003105                                                                                  030.0 00:10:40:04 
*FROM CLIP NAME:  ERN_F5191_NSCR_2005-10-11_RICHARD CHILDRESS INTV_SE003105.NEW.01 
*SOURCE FILE: ERN_F5191_NSCR_2005-10-11_RICHARD CHILDRESS INTV_SE003105
001295  ERN_F5191_NSCR_2005-10-11_RICHARD_CHILDRESS_INTV_SE003105                                                                         V     C        00:00:25:18 00:00:27:00 00:26:49:06 00:26:50:15 
M2      ERN_F5191_NSCR_2005-10-11_RICHARD_CHILDRESS_INTV_SE003105                                                                                  030.0 00:00:25:18 
*FROM CLIP NAME:  ERN_F5191_NSCR_2005-10-11_RICHARD CHILDRESS INTV_SE003105.NEW.01 
*SOURCE FILE: ERN_F5191_NSCR_2005-10-11_RICHARD CHILDRESS INTV_SE003105
001296  ERN_F9388_NSCR_1990-05-03_RACE_PRESS_CONFERENCE_TALLADEGA_WINSTON_500_NEIL_BONNETT_90-EV-0201                                     A20   C        00:16:53:19 00:16:54:20 00:26:50:01 00:26:51:01 
M2      ERN_F9388_NSCR_1990-05-03_RACE_PRESS_CONFERENCE_TALLADEGA_WINSTON_500_NEIL_BONNETT_90-EV-0201                                              030.0 00:16:53:19 
*FROM CLIP NAME:  ERN_F9388_NSCR_1990-05-03_RACE PRESS CONFERENCE TALLADEGA WINSTON 500 NEIL BONNETT_90-EV-0201.NEW.01 
*SOURCE FILE: ERN_F9388_NSCR_1990-05-03_RACE PRESS CONFERENCE TALLADEGA WINSTON 500 NEIL BONNETT_90-EV-0201
001297  ERN_F9388_NSCR_1990-05-03_RACE_PRESS_CONFERENCE_TALLADEGA_WINSTON_500_NEIL_BONNETT_90-EV-0201                                     V     C        00:16:54:06 00:16:58:01 00:26:50:15 00:26:54:10 
M2      ERN_F9388_NSCR_1990-05-03_RACE_PRESS_CONFERENCE_TALLADEGA_WINSTON_500_NEIL_BONNETT_90-EV-0201                                              030.0 00:16:54:06 
*FROM CLIP NAME:  ERN_F9388_NSCR_1990-05-03_RACE PRESS CONFERENCE TALLADEGA WINSTON 500 NEIL BONNETT_90-EV-0201.NEW.01 
*SOURCE FILE: ERN_F9388_NSCR_1990-05-03_RACE PRESS CONFERENCE TALLADEGA WINSTON 500 NEIL BONNETT_90-EV-0201
001298  ERN_F9388_NSCR_1990-05-03_RACE_PRESS_CONFERENCE_TALLADEGA_WINSTON_500_NEIL_BONNETT_90-EV-0201                                     A20   C        00:16:54:19 00:16:56:05 00:26:51:01 00:26:52:13 
M2      ERN_F9388_NSCR_1990-05-03_RACE_PRESS_CONFERENCE_TALLADEGA_WINSTON_500_NEIL_BONNETT_90-EV-0201                                              030.0 00:16:54:19 
*FROM CLIP NAME:  ERN_F9388_NSCR_1990-05-03_RACE PRESS CONFERENCE TALLADEGA WINSTON 500 NEIL BONNETT_90-EV-0201.NEW.01 
*SOURCE FILE: ERN_F9388_NSCR_1990-05-03_RACE PRESS CONFERENCE TALLADEGA WINSTON 500 NEIL BONNETT_90-EV-0201
001299  ERN_F9388_NSCR_1990-05-03_RACE_PRESS_CONFERENCE_TALLADEGA_WINSTON_500_NEIL_BONNETT_90-EV-0201                                     A20   C        00:16:58:18 00:16:59:18 00:26:52:13 00:26:53:13 
M2      ERN_F9388_NSCR_1990-05-03_RACE_PRESS_CONFERENCE_TALLADEGA_WINSTON_500_NEIL_BONNETT_90-EV-0201                                              030.0 00:16:58:18 
*FROM CLIP NAME:  ERN_F9388_NSCR_1990-05-03_RACE PRESS CONFERENCE TALLADEGA WINSTON 500 NEIL BONNETT_90-EV-0201.NEW.01 
*TO CLIP NAME:  ERN_F9388_NSCR_1990-05-03_RACE PRESS CONFERENCE TALLADEGA WINSTON 500 NEIL BONNETT_90-EV-0201.NEW.01 
*SOURCE FILE: ERN_F9388_NSCR_1990-05-03_RACE PRESS CONFERENCE TALLADEGA WINSTON 500 NEIL BONNETT_90-EV-0201
001300  ERN_F9388_NSCR_1990-05-03_RACE_PRESS_CONFERENCE_TALLADEGA_WINSTON_500_NEIL_BONNETT_90-EV-0201                                     A18   C        00:17:27:20 00:17:28:00 00:26:53:04 00:26:53:12 
M2      ERN_F9388_NSCR_1990-05-03_RACE_PRESS_CONFERENCE_TALLADEGA_WINSTON_500_NEIL_BONNETT_90-EV-0201                                              030.0 00:17:27:20 
*FROM CLIP NAME:  ERN_F9388_NSCR_1990-05-03_RACE PRESS CONFERENCE TALLADEGA WINSTON 500 NEIL BONNETT_90-EV-0201.NEW.01 
*SOURCE FILE: ERN_F9388_NSCR_1990-05-03_RACE PRESS CONFERENCE TALLADEGA WINSTON 500 NEIL BONNETT_90-EV-0201
001301  ERN_F9388_NSCR_1990-05-03_RACE_PRESS_CONFERENCE_TALLADEGA_WINSTON_500_NEIL_BONNETT_90-EV-0201                                     A18   C        00:17:28:00 00:17:30:10 00:26:53:12 00:26:55:20 
M2      ERN_F9388_NSCR_1990-05-03_RACE_PRESS_CONFERENCE_TALLADEGA_WINSTON_500_NEIL_BONNETT_90-EV-0201                                              030.0 00:17:28:00 
*FROM CLIP NAME:  ERN_F9388_NSCR_1990-05-03_RACE PRESS CONFERENCE TALLADEGA WINSTON 500 NEIL BONNETT_90-EV-0201.NEW.01 
*SOURCE FILE: ERN_F9388_NSCR_1990-05-03_RACE PRESS CONFERENCE TALLADEGA WINSTON 500 NEIL BONNETT_90-EV-0201
001302  ERN_F9388_NSCR_1990-05-03_RACE_PRESS_CONFERENCE_TALLADEGA_WINSTON_500_NEIL_BONNETT_90-EV-0201                                     A20   C        00:16:59:18 00:17:00:02 00:26:53:13 00:26:53:22 
M2      ERN_F9388_NSCR_1990-05-03_RACE_PRESS_CONFERENCE_TALLADEGA_WINSTON_500_NEIL_BONNETT_90-EV-0201                                              030.0 00:16:59:18 
*FROM CLIP NAME:  ERN_F9388_NSCR_1990-05-03_RACE PRESS CONFERENCE TALLADEGA WINSTON 500 NEIL BONNETT_90-EV-0201.NEW.01 
*SOURCE FILE: ERN_F9388_NSCR_1990-05-03_RACE PRESS CONFERENCE TALLADEGA WINSTON 500 NEIL BONNETT_90-EV-0201
001303  ERN_F9388_NSCR_1990-05-03_RACE_PRESS_CONFERENCE_TALLADEGA_WINSTON_500_NEIL_BONNETT_90-EV-0201                                     A20   C        00:17:17:10 00:17:18:10 00:26:53:22 00:26:54:22 
M2      ERN_F9388_NSCR_1990-05-03_RACE_PRESS_CONFERENCE_TALLADEGA_WINSTON_500_NEIL_BONNETT_90-EV-0201                                              030.0 00:17:17:10 
*FROM CLIP NAME:  ERN_F9388_NSCR_1990-05-03_RACE PRESS CONFERENCE TALLADEGA WINSTON 500 NEIL BONNETT_90-EV-0201.NEW.01 
*TO CLIP NAME:  ERN_F9388_NSCR_1990-05-03_RACE PRESS CONFERENCE TALLADEGA WINSTON 500 NEIL BONNETT_90-EV-0201.NEW.01 
*SOURCE FILE: ERN_F9388_NSCR_1990-05-03_RACE PRESS CONFERENCE TALLADEGA WINSTON 500 NEIL BONNETT_90-EV-0201
001304  ERN_F9388_NSCR_1990-05-03_RACE_PRESS_CONFERENCE_TALLADEGA_WINSTON_500_NEIL_BONNETT_90-EV-0201                                     V     C        00:17:17:25 00:17:21:19 00:26:54:10 00:26:58:05 
M2      ERN_F9388_NSCR_1990-05-03_RACE_PRESS_CONFERENCE_TALLADEGA_WINSTON_500_NEIL_BONNETT_90-EV-0201                                              030.0 00:17:17:25 
*FROM CLIP NAME:  ERN_F9388_NSCR_1990-05-03_RACE PRESS CONFERENCE TALLADEGA WINSTON 500 NEIL BONNETT_90-EV-0201.NEW.01 
*SOURCE FILE: ERN_F9388_NSCR_1990-05-03_RACE PRESS CONFERENCE TALLADEGA WINSTON 500 NEIL BONNETT_90-EV-0201
001305  ERN_F9388_NSCR_1990-05-03_RACE_PRESS_CONFERENCE_TALLADEGA_WINSTON_500_NEIL_BONNETT_90-EV-0201                                     A20   C        00:17:18:10 00:17:21:05 00:26:54:22 00:26:57:18 
M2      ERN_F9388_NSCR_1990-05-03_RACE_PRESS_CONFERENCE_TALLADEGA_WINSTON_500_NEIL_BONNETT_90-EV-0201                                              030.0 00:17:18:10 
*FROM CLIP NAME:  ERN_F9388_NSCR_1990-05-03_RACE PRESS CONFERENCE TALLADEGA WINSTON 500 NEIL BONNETT_90-EV-0201.NEW.01 
*SOURCE FILE: ERN_F9388_NSCR_1990-05-03_RACE PRESS CONFERENCE TALLADEGA WINSTON 500 NEIL BONNETT_90-EV-0201
001306  ERN_F9388_NSCR_1990-05-03_RACE_PRESS_CONFERENCE_TALLADEGA_WINSTON_500_NEIL_BONNETT_90-EV-0201                                     A18   C        00:17:35:08 00:17:37:02 00:26:55:20 00:26:57:14 
M2      ERN_F9388_NSCR_1990-05-03_RACE_PRESS_CONFERENCE_TALLADEGA_WINSTON_500_NEIL_BONNETT_90-EV-0201                                              030.0 00:17:35:08 
*FROM CLIP NAME:  ERN_F9388_NSCR_1990-05-03_RACE PRESS CONFERENCE TALLADEGA WINSTON 500 NEIL BONNETT_90-EV-0201.NEW.01 
*SOURCE FILE: ERN_F9388_NSCR_1990-05-03_RACE PRESS CONFERENCE TALLADEGA WINSTON 500 NEIL BONNETT_90-EV-0201
001307  ERN_F9388_NSCR_1990-05-03_RACE_PRESS_CONFERENCE_TALLADEGA_WINSTON_500_NEIL_BONNETT_90-EV-0201                                     A18   C        00:17:29:17 00:17:29:24 00:26:57:14 00:26:57:19 
M2      ERN_F9388_NSCR_1990-05-03_RACE_PRESS_CONFERENCE_TALLADEGA_WINSTON_500_NEIL_BONNETT_90-EV-0201                                              030.0 00:17:29:17 
*FROM CLIP NAME:  ERN_F9388_NSCR_1990-05-03_RACE PRESS CONFERENCE TALLADEGA WINSTON 500 NEIL BONNETT_90-EV-0201.NEW.01 
*TO CLIP NAME:  ERN_F9388_NSCR_1990-05-03_RACE PRESS CONFERENCE TALLADEGA WINSTON 500 NEIL BONNETT_90-EV-0201.NEW.01 
*SOURCE FILE: ERN_F9388_NSCR_1990-05-03_RACE PRESS CONFERENCE TALLADEGA WINSTON 500 NEIL BONNETT_90-EV-0201
001308  ERN_F9388_NSCR_1990-05-03_RACE_PRESS_CONFERENCE_TALLADEGA_WINSTON_500_NEIL_BONNETT_90-EV-0201                                     A18   C        00:17:29:23 00:17:30:20 00:26:57:19 00:26:58:16 
M2      ERN_F9388_NSCR_1990-05-03_RACE_PRESS_CONFERENCE_TALLADEGA_WINSTON_500_NEIL_BONNETT_90-EV-0201                                              030.0 00:17:29:23 
*FROM CLIP NAME:  ERN_F9388_NSCR_1990-05-03_RACE PRESS CONFERENCE TALLADEGA WINSTON 500 NEIL BONNETT_90-EV-0201.NEW.01 
*SOURCE FILE: ERN_F9388_NSCR_1990-05-03_RACE PRESS CONFERENCE TALLADEGA WINSTON 500 NEIL BONNETT_90-EV-0201
001309  ERN_F9388_NSCR_1990-05-03_RACE_PRESS_CONFERENCE_TALLADEGA_WINSTON_500_NEIL_BONNETT_90-EV-0201                                     V     C        00:18:14:23 00:18:23:07 00:26:58:05 00:27:06:16 
M2      ERN_F9388_NSCR_1990-05-03_RACE_PRESS_CONFERENCE_TALLADEGA_WINSTON_500_NEIL_BONNETT_90-EV-0201                                              030.0 00:18:14:23 
*FROM CLIP NAME:  ERN_F9388_NSCR_1990-05-03_RACE PRESS CONFERENCE TALLADEGA WINSTON 500 NEIL BONNETT_90-EV-0201.NEW.01 
*SOURCE FILE: ERN_F9388_NSCR_1990-05-03_RACE PRESS CONFERENCE TALLADEGA WINSTON 500 NEIL BONNETT_90-EV-0201
001310  ERN_F9388_NSCR_1990-05-03_RACE_PRESS_CONFERENCE_TALLADEGA_WINSTON_500_NEIL_BONNETT_90-EV-0201                                     A18   C        00:18:15:07 00:18:15:12 00:26:58:16 00:26:58:20 
M2      ERN_F9388_NSCR_1990-05-03_RACE_PRESS_CONFERENCE_TALLADEGA_WINSTON_500_NEIL_BONNETT_90-EV-0201                                              030.0 00:18:15:07 
*FROM CLIP NAME:  ERN_F9388_NSCR_1990-05-03_RACE PRESS CONFERENCE TALLADEGA WINSTON 500 NEIL BONNETT_90-EV-0201.NEW.01 
*TO CLIP NAME:  ERN_F9388_NSCR_1990-05-03_RACE PRESS CONFERENCE TALLADEGA WINSTON 500 NEIL BONNETT_90-EV-0201.NEW.01 
*SOURCE FILE: ERN_F9388_NSCR_1990-05-03_RACE PRESS CONFERENCE TALLADEGA WINSTON 500 NEIL BONNETT_90-EV-0201
001311  ERN_F9388_NSCR_1990-05-03_RACE_PRESS_CONFERENCE_TALLADEGA_WINSTON_500_NEIL_BONNETT_90-EV-0201                                     A18   C        00:18:15:12 00:18:22:22 00:26:58:20 00:27:06:04 
M2      ERN_F9388_NSCR_1990-05-03_RACE_PRESS_CONFERENCE_TALLADEGA_WINSTON_500_NEIL_BONNETT_90-EV-0201                                              030.0 00:18:15:12 
*FROM CLIP NAME:  ERN_F9388_NSCR_1990-05-03_RACE PRESS CONFERENCE TALLADEGA WINSTON 500 NEIL BONNETT_90-EV-0201.NEW.01 
*SOURCE FILE: ERN_F9388_NSCR_1990-05-03_RACE PRESS CONFERENCE TALLADEGA WINSTON 500 NEIL BONNETT_90-EV-0201
001312  ERN_F9388_NSCR_1990-05-03_RACE_PRESS_CONFERENCE_TALLADEGA_WINSTON_500_NEIL_BONNETT_90-EV-0201                                     A18   C        00:17:29:15 00:17:29:23 00:27:06:04 00:27:06:10 
M2      ERN_F9388_NSCR_1990-05-03_RACE_PRESS_CONFERENCE_TALLADEGA_WINSTON_500_NEIL_BONNETT_90-EV-0201                                              030.0 00:17:29:15 
*FROM CLIP NAME:  ERN_F9388_NSCR_1990-05-03_RACE PRESS CONFERENCE TALLADEGA WINSTON 500 NEIL BONNETT_90-EV-0201.NEW.01 
*TO CLIP NAME:  ERN_F9388_NSCR_1990-05-03_RACE PRESS CONFERENCE TALLADEGA WINSTON 500 NEIL BONNETT_90-EV-0201.NEW.01 
*SOURCE FILE: ERN_F9388_NSCR_1990-05-03_RACE PRESS CONFERENCE TALLADEGA WINSTON 500 NEIL BONNETT_90-EV-0201
001313  ERN_F9388_NSCR_1990-05-03_RACE_PRESS_CONFERENCE_TALLADEGA_WINSTON_500_NEIL_BONNETT_90-EV-0201                                     A18   C        00:17:29:22 00:17:30:10 00:27:06:10 00:27:07:00 
M2      ERN_F9388_NSCR_1990-05-03_RACE_PRESS_CONFERENCE_TALLADEGA_WINSTON_500_NEIL_BONNETT_90-EV-0201                                              030.0 00:17:29:22 
*FROM CLIP NAME:  ERN_F9388_NSCR_1990-05-03_RACE PRESS CONFERENCE TALLADEGA WINSTON 500 NEIL BONNETT_90-EV-0201.NEW.01 
*SOURCE FILE: ERN_F9388_NSCR_1990-05-03_RACE PRESS CONFERENCE TALLADEGA WINSTON 500 NEIL BONNETT_90-EV-0201
001314  ERN_F4009_NSCR_1994-04-29_PRESS_&_INTV_DAVID_BONNETT_ANNOUNCED_FOR_HANK_PARKER_SR_TEAM_TALLADEGA_94-EV-0224_S002                  V     C        00:14:36:10 00:14:40:00 00:27:06:16 00:27:10:07 
M2      ERN_F4009_NSCR_1994-04-29_PRESS_&_INTV_DAVID_BONNETT_ANNOUNCED_FOR_HANK_PARKER_SR_TEAM_TALLADEGA_94-EV-0224_S002                           030.0 00:14:36:10 
*FROM CLIP NAME:  ERN_F4009_NSCR_1994-04-29_PRESS & INTV DAVID BONNETT ANNOUNCED FOR HANK PARKER SR TEAM TALLADEGA_94-EV-0224_S002.NEW.01 
*SOURCE FILE: ERN_F4009_NSCR_1994-04-29_PRESS & INTV DAVID BONNETT ANNOUNCED FOR HANK PARKER SR TEAM TALLADEGA_94-EV-0224_S002
001315  ERN_F9388_NSCR_1990-05-03_RACE_PRESS_CONFERENCE_TALLADEGA_WINSTON_500_NEIL_BONNETT_90-EV-0201                                     A18   C        00:20:27:09 00:20:27:14 00:27:07:00 00:27:07:04 
M2      ERN_F9388_NSCR_1990-05-03_RACE_PRESS_CONFERENCE_TALLADEGA_WINSTON_500_NEIL_BONNETT_90-EV-0201                                              030.0 00:20:27:09 
*FROM CLIP NAME:  ERN_F9388_NSCR_1990-05-03_RACE PRESS CONFERENCE TALLADEGA WINSTON 500 NEIL BONNETT_90-EV-0201.NEW.01 
*TO CLIP NAME:  ERN_F9388_NSCR_1990-05-03_RACE PRESS CONFERENCE TALLADEGA WINSTON 500 NEIL BONNETT_90-EV-0201.NEW.01 
*SOURCE FILE: ERN_F9388_NSCR_1990-05-03_RACE PRESS CONFERENCE TALLADEGA WINSTON 500 NEIL BONNETT_90-EV-0201
001316  ERN_F9388_NSCR_1990-05-03_RACE_PRESS_CONFERENCE_TALLADEGA_WINSTON_500_NEIL_BONNETT_90-EV-0201                                     A18   C        00:20:27:14 00:20:30:07 00:27:07:04 00:27:09:22 
M2      ERN_F9388_NSCR_1990-05-03_RACE_PRESS_CONFERENCE_TALLADEGA_WINSTON_500_NEIL_BONNETT_90-EV-0201                                              030.0 00:20:27:14 
*FROM CLIP NAME:  ERN_F9388_NSCR_1990-05-03_RACE PRESS CONFERENCE TALLADEGA WINSTON 500 NEIL BONNETT_90-EV-0201.NEW.01 
*SOURCE FILE: ERN_F9388_NSCR_1990-05-03_RACE PRESS CONFERENCE TALLADEGA WINSTON 500 NEIL BONNETT_90-EV-0201
001317  ERN_F9388_NSCR_1990-05-03_RACE_PRESS_CONFERENCE_TALLADEGA_WINSTON_500_NEIL_BONNETT_90-EV-0201                                     A20   C        00:20:40:15 00:20:41:11 00:27:09:18 00:27:10:14 
M2      ERN_F9388_NSCR_1990-05-03_RACE_PRESS_CONFERENCE_TALLADEGA_WINSTON_500_NEIL_BONNETT_90-EV-0201                                              030.0 00:20:40:15 
*FROM CLIP NAME:  ERN_F9388_NSCR_1990-05-03_RACE PRESS CONFERENCE TALLADEGA WINSTON 500 NEIL BONNETT_90-EV-0201.NEW.01 
*SOURCE FILE: ERN_F9388_NSCR_1990-05-03_RACE PRESS CONFERENCE TALLADEGA WINSTON 500 NEIL BONNETT_90-EV-0201
001318  ERN_F9388_NSCR_1990-05-03_RACE_PRESS_CONFERENCE_TALLADEGA_WINSTON_500_NEIL_BONNETT_90-EV-0201                                     A18   C        00:20:32:10 00:20:32:18 00:27:09:22 00:27:10:04 
M2      ERN_F9388_NSCR_1990-05-03_RACE_PRESS_CONFERENCE_TALLADEGA_WINSTON_500_NEIL_BONNETT_90-EV-0201                                              030.0 00:20:32:10 
*FROM CLIP NAME:  ERN_F9388_NSCR_1990-05-03_RACE PRESS CONFERENCE TALLADEGA WINSTON 500 NEIL BONNETT_90-EV-0201.NEW.01 
*TO CLIP NAME:  ERN_F9388_NSCR_1990-05-03_RACE PRESS CONFERENCE TALLADEGA WINSTON 500 NEIL BONNETT_90-EV-0201.NEW.01 
*SOURCE FILE: ERN_F9388_NSCR_1990-05-03_RACE PRESS CONFERENCE TALLADEGA WINSTON 500 NEIL BONNETT_90-EV-0201
001319  ERN_F9388_NSCR_1990-05-03_RACE_PRESS_CONFERENCE_TALLADEGA_WINSTON_500_NEIL_BONNETT_90-EV-0201                                     A18   C        00:20:32:17 00:20:32:23 00:27:10:04 00:27:10:08 
M2      ERN_F9388_NSCR_1990-05-03_RACE_PRESS_CONFERENCE_TALLADEGA_WINSTON_500_NEIL_BONNETT_90-EV-0201                                              030.0 00:20:32:17 
*FROM CLIP NAME:  ERN_F9388_NSCR_1990-05-03_RACE PRESS CONFERENCE TALLADEGA WINSTON 500 NEIL BONNETT_90-EV-0201.NEW.01 
*SOURCE FILE: ERN_F9388_NSCR_1990-05-03_RACE PRESS CONFERENCE TALLADEGA WINSTON 500 NEIL BONNETT_90-EV-0201
001320  ERN_F9388_NSCR_1990-05-03_RACE_PRESS_CONFERENCE_TALLADEGA_WINSTON_500_NEIL_BONNETT_90-EV-0201                                     V     C        00:20:41:01 00:20:57:26 00:27:10:07 00:27:27:12 
M2      ERN_F9388_NSCR_1990-05-03_RACE_PRESS_CONFERENCE_TALLADEGA_WINSTON_500_NEIL_BONNETT_90-EV-0201                                              029.3 00:20:41:01 
*FROM CLIP NAME:  ERN_F9388_NSCR_1990-05-03_RACE PRESS CONFERENCE TALLADEGA WINSTON 500 NEIL BONNETT_90-EV-0201.NEW.01 
*SOURCE FILE: ERN_F9388_NSCR_1990-05-03_RACE PRESS CONFERENCE TALLADEGA WINSTON 500 NEIL BONNETT_90-EV-0201
001321  ERN_F9388_NSCR_1990-05-03_RACE_PRESS_CONFERENCE_TALLADEGA_WINSTON_500_NEIL_BONNETT_90-EV-0201                                     A20   C        00:20:41:10 00:20:57:12 00:27:10:14 00:27:26:15 
M2      ERN_F9388_NSCR_1990-05-03_RACE_PRESS_CONFERENCE_TALLADEGA_WINSTON_500_NEIL_BONNETT_90-EV-0201                                              030.0 00:20:41:10 
*FROM CLIP NAME:  ERN_F9388_NSCR_1990-05-03_RACE PRESS CONFERENCE TALLADEGA WINSTON 500 NEIL BONNETT_90-EV-0201.NEW.01 
*SOURCE FILE: ERN_F9388_NSCR_1990-05-03_RACE PRESS CONFERENCE TALLADEGA WINSTON 500 NEIL BONNETT_90-EV-0201
001322  ERN_F9388_NSCR_1990-05-03_RACE_PRESS_CONFERENCE_TALLADEGA_WINSTON_500_NEIL_BONNETT_90-EV-0201                                     A18   C        00:23:07:17 00:23:08:00 00:27:26:17 00:27:27:03 
M2      ERN_F9388_NSCR_1990-05-03_RACE_PRESS_CONFERENCE_TALLADEGA_WINSTON_500_NEIL_BONNETT_90-EV-0201                                              030.0 00:23:07:17 
*FROM CLIP NAME:  ERN_F9388_NSCR_1990-05-03_RACE PRESS CONFERENCE TALLADEGA WINSTON 500 NEIL BONNETT_90-EV-0201.NEW.01 
*SOURCE FILE: ERN_F9388_NSCR_1990-05-03_RACE PRESS CONFERENCE TALLADEGA WINSTON 500 NEIL BONNETT_90-EV-0201
001323  ERN_F9388_NSCR_1990-05-03_RACE_PRESS_CONFERENCE_TALLADEGA_WINSTON_500_NEIL_BONNETT_90-EV-0201                                     A18   C        00:23:16:11 00:23:16:15 00:27:27:03 00:27:27:06 
M2      ERN_F9388_NSCR_1990-05-03_RACE_PRESS_CONFERENCE_TALLADEGA_WINSTON_500_NEIL_BONNETT_90-EV-0201                                              030.0 00:23:16:11 
*FROM CLIP NAME:  ERN_F9388_NSCR_1990-05-03_RACE PRESS CONFERENCE TALLADEGA WINSTON 500 NEIL BONNETT_90-EV-0201.NEW.01 
*TO CLIP NAME:  ERN_F9388_NSCR_1990-05-03_RACE PRESS CONFERENCE TALLADEGA WINSTON 500 NEIL BONNETT_90-EV-0201.NEW.01 
*SOURCE FILE: ERN_F9388_NSCR_1990-05-03_RACE PRESS CONFERENCE TALLADEGA WINSTON 500 NEIL BONNETT_90-EV-0201
001324  ERN_F9388_NSCR_1990-05-03_RACE_PRESS_CONFERENCE_TALLADEGA_WINSTON_500_NEIL_BONNETT_90-EV-0201                                     A18   C        00:23:16:15 00:23:24:19 00:27:27:06 00:27:35:09 
M2      ERN_F9388_NSCR_1990-05-03_RACE_PRESS_CONFERENCE_TALLADEGA_WINSTON_500_NEIL_BONNETT_90-EV-0201                                              030.0 00:23:16:15 
*FROM CLIP NAME:  ERN_F9388_NSCR_1990-05-03_RACE PRESS CONFERENCE TALLADEGA WINSTON 500 NEIL BONNETT_90-EV-0201.NEW.01 
*SOURCE FILE: ERN_F9388_NSCR_1990-05-03_RACE PRESS CONFERENCE TALLADEGA WINSTON 500 NEIL BONNETT_90-EV-0201
001325  ERN_F9388_NSCR_1990-05-03_RACE_PRESS_CONFERENCE_TALLADEGA_WINSTON_500_NEIL_BONNETT_90-EV-0201                                     V     C        00:23:16:22 00:23:22:10 00:27:27:12 00:27:33:02 
M2      ERN_F9388_NSCR_1990-05-03_RACE_PRESS_CONFERENCE_TALLADEGA_WINSTON_500_NEIL_BONNETT_90-EV-0201                                              030.0 00:23:16:22 
*FROM CLIP NAME:  ERN_F9388_NSCR_1990-05-03_RACE PRESS CONFERENCE TALLADEGA WINSTON 500 NEIL BONNETT_90-EV-0201.NEW.01 
*SOURCE FILE: ERN_F9388_NSCR_1990-05-03_RACE PRESS CONFERENCE TALLADEGA WINSTON 500 NEIL BONNETT_90-EV-0201
001326  ERN_F1051_NSCR_1990S_B-ROLL_DESR_MEET_&_GREET__58_EARNHARDT_TALLADEGA_2                                                           V     C        00:03:40:02 00:03:48:20 00:27:33:02 00:27:41:16 
M2      ERN_F1051_NSCR_1990S_B-ROLL_DESR_MEET_&_GREET__58_EARNHARDT_TALLADEGA_2                                                                    030.0 00:03:40:02 
*FROM CLIP NAME:  ERN_F1051_NSCR_1990S_B-ROLL DESR MEET & GREET _58_EARNHARDT TALLADEGA 2.NEW.01 
*SOURCE FILE: ERN_F1051_NSCR_1990S_B-ROLL DESR MEET & GREET _58_EARNHARDT TALLADEGA 2
001327  ERN_F1050_NSCR_1990S_B-ROLL_DESR_MEET_&_GREET__57_EARNHARDT_TALLADEGA_1                                                           A20   C        00:02:34:06 00:02:35:07 00:27:41:07 00:27:42:07 
M2      ERN_F1050_NSCR_1990S_B-ROLL_DESR_MEET_&_GREET__57_EARNHARDT_TALLADEGA_1                                                                    030.0 00:02:34:06 
*FROM CLIP NAME:  ERN_F1050_NSCR_1990S_B-ROLL DESR MEET & GREET _57_EARNHARDT TALLADEGA 1.NEW.01 
*SOURCE FILE: ERN_F1050_NSCR_1990S_B-ROLL DESR MEET & GREET _57_EARNHARDT TALLADEGA 1
001328  ERN_F1050_NSCR_1990S_B-ROLL_DESR_MEET_&_GREET__57_EARNHARDT_TALLADEGA_1                                                           V     C        00:02:34:17 00:02:38:02 00:27:41:16 00:27:45:03 
M2      ERN_F1050_NSCR_1990S_B-ROLL_DESR_MEET_&_GREET__57_EARNHARDT_TALLADEGA_1                                                                    030.0 00:02:34:17 
*FROM CLIP NAME:  ERN_F1050_NSCR_1990S_B-ROLL DESR MEET & GREET _57_EARNHARDT TALLADEGA 1.NEW.01 
*SOURCE FILE: ERN_F1050_NSCR_1990S_B-ROLL DESR MEET & GREET _57_EARNHARDT TALLADEGA 1
001329  ERN_F1050_NSCR_1990S_B-ROLL_DESR_MEET_&_GREET__57_EARNHARDT_TALLADEGA_1                                                           A20   C        00:02:35:06 00:02:36:24 00:27:42:07 00:27:43:21 
M2      ERN_F1050_NSCR_1990S_B-ROLL_DESR_MEET_&_GREET__57_EARNHARDT_TALLADEGA_1                                                                    030.0 00:02:35:06 
*FROM CLIP NAME:  ERN_F1050_NSCR_1990S_B-ROLL DESR MEET & GREET _57_EARNHARDT TALLADEGA 1.NEW.01 
*SOURCE FILE: ERN_F1050_NSCR_1990S_B-ROLL DESR MEET & GREET _57_EARNHARDT TALLADEGA 1
001330  ERN_F1050_NSCR_1990S_B-ROLL_DESR_MEET_&_GREET__57_EARNHARDT_TALLADEGA_1                                                           A20   C        00:04:13:00 00:04:14:01 00:27:43:21 00:27:44:21 
M2      ERN_F1050_NSCR_1990S_B-ROLL_DESR_MEET_&_GREET__57_EARNHARDT_TALLADEGA_1                                                                    030.0 00:04:13:00 
*FROM CLIP NAME:  ERN_F1050_NSCR_1990S_B-ROLL DESR MEET & GREET _57_EARNHARDT TALLADEGA 1.NEW.01 
*TO CLIP NAME:  ERN_F1050_NSCR_1990S_B-ROLL DESR MEET & GREET _57_EARNHARDT TALLADEGA 1.NEW.01 
*SOURCE FILE: ERN_F1050_NSCR_1990S_B-ROLL DESR MEET & GREET _57_EARNHARDT TALLADEGA 1
001331  ERN_F1050_NSCR_1990S_B-ROLL_DESR_MEET_&_GREET__57_EARNHARDT_TALLADEGA_1                                                           A20   C        00:04:14:00 00:04:16:08 00:27:44:21 00:27:47:03 
M2      ERN_F1050_NSCR_1990S_B-ROLL_DESR_MEET_&_GREET__57_EARNHARDT_TALLADEGA_1                                                                    030.0 00:04:14:00 
*FROM CLIP NAME:  ERN_F1050_NSCR_1990S_B-ROLL DESR MEET & GREET _57_EARNHARDT TALLADEGA 1.NEW.01 
*SOURCE FILE: ERN_F1050_NSCR_1990S_B-ROLL DESR MEET & GREET _57_EARNHARDT TALLADEGA 1
001332  ERN_F1050_NSCR_1990S_B-ROLL_DESR_MEET_&_GREET__57_EARNHARDT_TALLADEGA_1                                                           V     C        00:04:14:08 00:04:17:01 00:27:45:03 00:27:47:21 
M2      ERN_F1050_NSCR_1990S_B-ROLL_DESR_MEET_&_GREET__57_EARNHARDT_TALLADEGA_1                                                                    030.0 00:04:14:08 
*FROM CLIP NAME:  ERN_F1050_NSCR_1990S_B-ROLL DESR MEET & GREET _57_EARNHARDT TALLADEGA 1.NEW.01 
*SOURCE FILE: ERN_F1050_NSCR_1990S_B-ROLL DESR MEET & GREET _57_EARNHARDT TALLADEGA 1
001333  ERN_F1050_NSCR_1990S_B-ROLL_DESR_MEET_&_GREET__57_EARNHARDT_TALLADEGA_1                                                           V     C        00:18:43:29 00:18:47:23 00:27:47:21 00:27:51:16 
M2      ERN_F1050_NSCR_1990S_B-ROLL_DESR_MEET_&_GREET__57_EARNHARDT_TALLADEGA_1                                                                    030.0 00:18:43:29 
*FROM CLIP NAME:  ERN_F1050_NSCR_1990S_B-ROLL DESR MEET & GREET _57_EARNHARDT TALLADEGA 1.NEW.01 
*SOURCE FILE: ERN_F1050_NSCR_1990S_B-ROLL DESR MEET & GREET _57_EARNHARDT TALLADEGA 1
001334  ERN_F0309_NSCR_2000-08-24_1_OF_6_CAM_A_BTS_COMMERCIAL_INTV_DALE_EARNHARDT_TOPICS_-_RALPH_EARNHARDT_&_SPONSORSHIPS_&_MOTIVATION_TO A18   C        17:02:18:28 17:02:19:03 00:27:49:16 00:27:49:20 
M2      ERN_F0309_NSCR_2000-08-24_1_OF_6_CAM_A_BTS_COMMERCIAL_INTV_DALE_EARNHARDT_TOPICS_-_RALPH_EARNHARDT_&_SPONSORSHIPS_&_MOTIVATION_TO          030.0 17:02:18:28 
*FROM CLIP NAME:  ERN_F0309_NSCR_2000-08-24_1 OF 6 CAM A BTS COMMERCIAL INTV DALE EARNHARDT TOPICS - RALPH EARNHARDT & SPONSORSHIPS & MOTIVATION TO WIN_SE006223_S001.NEW.01 
*SOURCE FILE: ERN_F0309_NSCR_2000-08-24_1 OF 6 CAM A BTS COMMERCIAL INTV DALE EARNHARDT TOPICS - RALPH EARNHARDT & SPONSORSHIPS & MOTIVATION TO WIN_SE006223_S001
001335  ERN_F0309_NSCR_2000-08-24_1_OF_6_CAM_A_BTS_COMMERCIAL_INTV_DALE_EARNHARDT_TOPICS_-_RALPH_EARNHARDT_&_SPONSORSHIPS_&_MOTIVATION_TO A18   C        17:02:19:03 17:02:20:27 00:27:49:20 00:27:51:15 
M2      ERN_F0309_NSCR_2000-08-24_1_OF_6_CAM_A_BTS_COMMERCIAL_INTV_DALE_EARNHARDT_TOPICS_-_RALPH_EARNHARDT_&_SPONSORSHIPS_&_MOTIVATION_TO          030.0 17:02:19:03 
*FROM CLIP NAME:  ERN_F0309_NSCR_2000-08-24_1 OF 6 CAM A BTS COMMERCIAL INTV DALE EARNHARDT TOPICS - RALPH EARNHARDT & SPONSORSHIPS & MOTIVATION TO WIN_SE006223_S001.NEW.01 
*SOURCE FILE: ERN_F0309_NSCR_2000-08-24_1 OF 6 CAM A BTS COMMERCIAL INTV DALE EARNHARDT TOPICS - RALPH EARNHARDT & SPONSORSHIPS & MOTIVATION TO WIN_SE006223_S001
001336  ERN_F0309_NSCR_2000-08-24_1_OF_6_CAM_A_BTS_COMMERCIAL_INTV_DALE_EARNHARDT_TOPICS_-_RALPH_EARNHARDT_&_SPONSORSHIPS_&_MOTIVATION_TO A18   C        17:02:20:26 17:02:21:17 00:27:51:15 00:27:52:07 
M2      ERN_F0309_NSCR_2000-08-24_1_OF_6_CAM_A_BTS_COMMERCIAL_INTV_DALE_EARNHARDT_TOPICS_-_RALPH_EARNHARDT_&_SPONSORSHIPS_&_MOTIVATION_TO          030.0 17:02:20:26 
*FROM CLIP NAME:  ERN_F0309_NSCR_2000-08-24_1 OF 6 CAM A BTS COMMERCIAL INTV DALE EARNHARDT TOPICS - RALPH EARNHARDT & SPONSORSHIPS & MOTIVATION TO WIN_SE006223_S001.NEW.01 
*TO CLIP NAME:  ERN_F0309_NSCR_2000-08-24_1 OF 6 CAM A BTS COMMERCIAL INTV DALE EARNHARDT TOPICS - RALPH EARNHARDT & SPONSORSHIPS & MOTIVATION TO WIN_SE006223_S001.NEW.01 
*SOURCE FILE: ERN_F0309_NSCR_2000-08-24_1 OF 6 CAM A BTS COMMERCIAL INTV DALE EARNHARDT TOPICS - RALPH EARNHARDT & SPONSORSHIPS & MOTIVATION TO WIN_SE006223_S001
001337  ERN_F0312_NSCR_2000-08-24_4_OF_6_CAM_A_BTS_COMMERCIAL_INTV_DALE_EARNHARDT_TOPICS_-_RALPH_EARNHARDT_&_SPONSORSHIPS_&_MOTIVATION_TO V     C        20:02:20:27 20:02:23:15 00:27:51:16 00:27:54:06 
M2      ERN_F0312_NSCR_2000-08-24_4_OF_6_CAM_A_BTS_COMMERCIAL_INTV_DALE_EARNHARDT_TOPICS_-_RALPH_EARNHARDT_&_SPONSORSHIPS_&_MOTIVATION_TO          030.0 20:02:20:27 
*FROM CLIP NAME:  ERN_F0312_NSCR_2000-08-24_4 OF 6 CAM A BTS COMMERCIAL INTV DALE EARNHARDT TOPICS - RALPH EARNHARDT & SPONSORSHIPS & MOTIVATION TO WIN_SE006223_S004.NEW.01 
*SOURCE FILE: ERN_F0312_NSCR_2000-08-24_4 OF 6 CAM A BTS COMMERCIAL INTV DALE EARNHARDT TOPICS - RALPH EARNHARDT & SPONSORSHIPS & MOTIVATION TO WIN_SE006223_S004
001338  ERN_F0309_NSCR_2000-08-24_1_OF_6_CAM_A_BTS_COMMERCIAL_INTV_DALE_EARNHARDT_TOPICS_-_RALPH_EARNHARDT_&_SPONSORSHIPS_&_MOTIVATION_TO A18   C        17:02:21:16 17:02:23:06 00:27:52:07 00:27:53:22 
M2      ERN_F0309_NSCR_2000-08-24_1_OF_6_CAM_A_BTS_COMMERCIAL_INTV_DALE_EARNHARDT_TOPICS_-_RALPH_EARNHARDT_&_SPONSORSHIPS_&_MOTIVATION_TO          030.0 17:02:21:16 
*FROM CLIP NAME:  ERN_F0309_NSCR_2000-08-24_1 OF 6 CAM A BTS COMMERCIAL INTV DALE EARNHARDT TOPICS - RALPH EARNHARDT & SPONSORSHIPS & MOTIVATION TO WIN_SE006223_S001.NEW.01 
*SOURCE FILE: ERN_F0309_NSCR_2000-08-24_1 OF 6 CAM A BTS COMMERCIAL INTV DALE EARNHARDT TOPICS - RALPH EARNHARDT & SPONSORSHIPS & MOTIVATION TO WIN_SE006223_S001
001339  ERN_F0962_NSCR_1998-02-15_BTS_B-ROLL_NED_JARRETT_AT_DESR_CHEVROLET_DEALERSHIP_DESR_SINGING_AUTOGRAPHS_SE000385                    A22   C        00:29:02:03 00:29:03:19 00:27:53:13 00:27:55:01 
M2      ERN_F0962_NSCR_1998-02-15_BTS_B-ROLL_NED_JARRETT_AT_DESR_CHEVROLET_DEALERSHIP_DESR_SINGING_AUTOGRAPHS_SE000385                             030.0 00:29:02:03 
*FROM CLIP NAME:  ERN_F0962_NSCR_1998-02-15_BTS B-ROLL NED JARRETT AT DESR CHEVROLET DEALERSHIP DESR SINGING AUTOGRAPHS_SE000385.NEW.01 
*SOURCE FILE: ERN_F0962_NSCR_1998-02-15_BTS B-ROLL NED JARRETT AT DESR CHEVROLET DEALERSHIP DESR SINGING AUTOGRAPHS_SE000385
001340  ERN_F0962_NSCR_1998-02-15_BTS_B-ROLL_NED_JARRETT_AT_DESR_CHEVROLET_DEALERSHIP_DESR_SINGING_AUTOGRAPHS_SE000385                    V     C        00:29:03:05 00:29:08:15 00:27:54:06 00:27:59:13 
M2      ERN_F0962_NSCR_1998-02-15_BTS_B-ROLL_NED_JARRETT_AT_DESR_CHEVROLET_DEALERSHIP_DESR_SINGING_AUTOGRAPHS_SE000385                             030.0 00:29:03:05 
*FROM CLIP NAME:  ERN_F0962_NSCR_1998-02-15_BTS B-ROLL NED JARRETT AT DESR CHEVROLET DEALERSHIP DESR SINGING AUTOGRAPHS_SE000385.NEW.01 
*SOURCE FILE: ERN_F0962_NSCR_1998-02-15_BTS B-ROLL NED JARRETT AT DESR CHEVROLET DEALERSHIP DESR SINGING AUTOGRAPHS_SE000385
001341  ERN_F0962_NSCR_1998-02-15_BTS_B-ROLL_NED_JARRETT_AT_DESR_CHEVROLET_DEALERSHIP_DESR_SINGING_AUTOGRAPHS_SE000385                    A22   C        00:29:03:18 00:29:09:25 00:27:55:01 00:28:01:06 
M2      ERN_F0962_NSCR_1998-02-15_BTS_B-ROLL_NED_JARRETT_AT_DESR_CHEVROLET_DEALERSHIP_DESR_SINGING_AUTOGRAPHS_SE000385                             030.0 00:29:03:18 
*FROM CLIP NAME:  ERN_F0962_NSCR_1998-02-15_BTS B-ROLL NED JARRETT AT DESR CHEVROLET DEALERSHIP DESR SINGING AUTOGRAPHS_SE000385.NEW.01 
*SOURCE FILE: ERN_F0962_NSCR_1998-02-15_BTS B-ROLL NED JARRETT AT DESR CHEVROLET DEALERSHIP DESR SINGING AUTOGRAPHS_SE000385
001342  ERN_F1031_NSCR_1992-09-02_PART_2_OF_3_FARM_INTV_DESR_W_NEIL_BONNETT_IN_GARAGE_33_EARNHARDT_6                                      A18   C        00:18:11:11 00:18:11:16 00:27:55:21 00:27:56:00 
M2      ERN_F1031_NSCR_1992-09-02_PART_2_OF_3_FARM_INTV_DESR_W_NEIL_BONNETT_IN_GARAGE_33_EARNHARDT_6                                               030.0 00:18:11:11 
*FROM CLIP NAME:  ERN_F1031_NSCR_1992-09-02_PART 2 OF 3 FARM INTV DESR W NEIL BONNETT IN GARAGE_33_EARNHARDT 6.NEW.01.COPY.01 
*SOURCE FILE: ERN_F1031_NSCR_1992-09-02_PART 2 OF 3 FARM INTV DESR W NEIL BONNETT IN GARAGE_33_EARNHARDT 6
001343  ERN_F1031_NSCR_1992-09-02_PART_2_OF_3_FARM_INTV_DESR_W_NEIL_BONNETT_IN_GARAGE_33_EARNHARDT_6                                      A18   C        00:18:11:15 00:18:17:00 00:27:56:00 00:28:01:11 
M2      ERN_F1031_NSCR_1992-09-02_PART_2_OF_3_FARM_INTV_DESR_W_NEIL_BONNETT_IN_GARAGE_33_EARNHARDT_6                                               030.0 00:18:11:15 
*FROM CLIP NAME:  ERN_F1031_NSCR_1992-09-02_PART 2 OF 3 FARM INTV DESR W NEIL BONNETT IN GARAGE_33_EARNHARDT 6.NEW.01.COPY.01 
*SOURCE FILE: ERN_F1031_NSCR_1992-09-02_PART 2 OF 3 FARM INTV DESR W NEIL BONNETT IN GARAGE_33_EARNHARDT 6
001344  ERN_F0962_NSCR_1998-02-15_BTS_B-ROLL_NED_JARRETT_AT_DESR_CHEVROLET_DEALERSHIP_DESR_SINGING_AUTOGRAPHS_SE000385                    V     C        00:26:09:02 00:26:17:10 00:27:59:13 00:28:07:19 
M2      ERN_F0962_NSCR_1998-02-15_BTS_B-ROLL_NED_JARRETT_AT_DESR_CHEVROLET_DEALERSHIP_DESR_SINGING_AUTOGRAPHS_SE000385                             030.0 00:26:09:02 
*FROM CLIP NAME:  ERN_F0962_NSCR_1998-02-15_BTS B-ROLL NED JARRETT AT DESR CHEVROLET DEALERSHIP DESR SINGING AUTOGRAPHS_SE000385.NEW.01 
*SOURCE FILE: ERN_F0962_NSCR_1998-02-15_BTS B-ROLL NED JARRETT AT DESR CHEVROLET DEALERSHIP DESR SINGING AUTOGRAPHS_SE000385
001345  ERN_F0962_NSCR_1998-02-15_BTS_B-ROLL_NED_JARRETT_AT_DESR_CHEVROLET_DEALERSHIP_DESR_SINGING_AUTOGRAPHS_SE000385                    A20   C        00:26:11:02 00:26:11:23 00:28:01:13 00:28:02:05 
M2      ERN_F0962_NSCR_1998-02-15_BTS_B-ROLL_NED_JARRETT_AT_DESR_CHEVROLET_DEALERSHIP_DESR_SINGING_AUTOGRAPHS_SE000385                             030.0 00:26:11:02 
*FROM CLIP NAME:  ERN_F0962_NSCR_1998-02-15_BTS B-ROLL NED JARRETT AT DESR CHEVROLET DEALERSHIP DESR SINGING AUTOGRAPHS_SE000385.NEW.01 
*SOURCE FILE: ERN_F0962_NSCR_1998-02-15_BTS B-ROLL NED JARRETT AT DESR CHEVROLET DEALERSHIP DESR SINGING AUTOGRAPHS_SE000385
001346  ERN_F0962_NSCR_1998-02-15_BTS_B-ROLL_NED_JARRETT_AT_DESR_CHEVROLET_DEALERSHIP_DESR_SINGING_AUTOGRAPHS_SE000385                    A20   C        00:26:11:22 00:26:12:06 00:28:02:05 00:28:02:16 
M2      ERN_F0962_NSCR_1998-02-15_BTS_B-ROLL_NED_JARRETT_AT_DESR_CHEVROLET_DEALERSHIP_DESR_SINGING_AUTOGRAPHS_SE000385                             030.0 00:26:11:22 
*FROM CLIP NAME:  ERN_F0962_NSCR_1998-02-15_BTS B-ROLL NED JARRETT AT DESR CHEVROLET DEALERSHIP DESR SINGING AUTOGRAPHS_SE000385.NEW.01 
*SOURCE FILE: ERN_F0962_NSCR_1998-02-15_BTS B-ROLL NED JARRETT AT DESR CHEVROLET DEALERSHIP DESR SINGING AUTOGRAPHS_SE000385
001347  ERN_F0962_NSCR_1998-02-15_BTS_B-ROLL_NED_JARRETT_AT_DESR_CHEVROLET_DEALERSHIP_DESR_SINGING_AUTOGRAPHS_SE000385                    A20   C        00:26:12:06 00:26:14:25 00:28:02:16 00:28:05:07 
M2      ERN_F0962_NSCR_1998-02-15_BTS_B-ROLL_NED_JARRETT_AT_DESR_CHEVROLET_DEALERSHIP_DESR_SINGING_AUTOGRAPHS_SE000385                             030.0 00:26:12:06 
*FROM CLIP NAME:  ERN_F0962_NSCR_1998-02-15_BTS B-ROLL NED JARRETT AT DESR CHEVROLET DEALERSHIP DESR SINGING AUTOGRAPHS_SE000385.NEW.01 
*SOURCE FILE: ERN_F0962_NSCR_1998-02-15_BTS B-ROLL NED JARRETT AT DESR CHEVROLET DEALERSHIP DESR SINGING AUTOGRAPHS_SE000385
001348  ERN_F0184_NSCR_1999-01-22_1_OF_3_CAM_B_INTV_DALE_EARNHARDT_NEIL_BONNETT_HUNTING_TOPICS_-_PUBLIC_SPEAKING_&_HANDLING_FAME_&_RALPH_ A18   C        01:03:59:11 01:03:59:27 00:28:06:04 00:28:06:16 
M2      ERN_F0184_NSCR_1999-01-22_1_OF_3_CAM_B_INTV_DALE_EARNHARDT_NEIL_BONNETT_HUNTING_TOPICS_-_PUBLIC_SPEAKING_&_HANDLING_FAME_&_RALPH_          030.0 01:03:59:11 
*FROM CLIP NAME:  ERN_F0184_NSCR_1999-01-22_1 OF 3 CAM B INTV DALE EARNHARDT NEIL BONNETT HUNTING TOPICS - PUBLIC SPEAKING & HANDLING FAME & RALPH EARNHARDT_1991-NAS-00014_S001.NEW.02 
*SOURCE FILE: ERN_F0184_NSCR_1999-01-22_1 OF 3 CAM B INTV DALE EARNHARDT NEIL BONNETT HUNTING TOPICS - PUBLIC SPEAKING & HANDLING FAME & RALPH EARNHARDT_1991-NAS-00014_S001
001349  ERN_F0184_NSCR_1999-01-22_1_OF_3_CAM_B_INTV_DALE_EARNHARDT_NEIL_BONNETT_HUNTING_TOPICS_-_PUBLIC_SPEAKING_&_HANDLING_FAME_&_RALPH_ A18   C        01:03:59:26 01:04:05:09 00:28:06:16 00:28:12:00 
M2      ERN_F0184_NSCR_1999-01-22_1_OF_3_CAM_B_INTV_DALE_EARNHARDT_NEIL_BONNETT_HUNTING_TOPICS_-_PUBLIC_SPEAKING_&_HANDLING_FAME_&_RALPH_          030.0 01:03:59:26 
*FROM CLIP NAME:  ERN_F0184_NSCR_1999-01-22_1 OF 3 CAM B INTV DALE EARNHARDT NEIL BONNETT HUNTING TOPICS - PUBLIC SPEAKING & HANDLING FAME & RALPH EARNHARDT_1991-NAS-00014_S001.NEW.02 
*SOURCE FILE: ERN_F0184_NSCR_1999-01-22_1 OF 3 CAM B INTV DALE EARNHARDT NEIL BONNETT HUNTING TOPICS - PUBLIC SPEAKING & HANDLING FAME & RALPH EARNHARDT_1991-NAS-00014_S001
001350  ERN_F0182_NSCR_1999-01-22_1_OF_3_CAM_A_INTV_DALE_EARNHARDT_NEIL_BONNETT_HUNTING_TOPICS_-_PUBLIC_SPEAKING_&_HANDLING_FAME_&_RALPH_ V     C        01:04:01:08 01:04:04:05 00:28:07:19 00:28:10:16 
M2      ERN_F0182_NSCR_1999-01-22_1_OF_3_CAM_A_INTV_DALE_EARNHARDT_NEIL_BONNETT_HUNTING_TOPICS_-_PUBLIC_SPEAKING_&_HANDLING_FAME_&_RALPH_          030.0 01:04:01:08 
*FROM CLIP NAME:  ERN_F0182_NSCR_1999-01-22_1 OF 3 CAM A INTV DALE EARNHARDT NEIL BONNETT HUNTING TOPICS - PUBLIC SPEAKING & HANDLING FAME & RALPH EARNHARDT_1991-NAS-00012_S001.NEW.02 
*SOURCE FILE: ERN_F0182_NSCR_1999-01-22_1 OF 3 CAM A INTV DALE EARNHARDT NEIL BONNETT HUNTING TOPICS - PUBLIC SPEAKING & HANDLING FAME & RALPH EARNHARDT_1991-NAS-00012_S001
001351  ERN_F0968_NSCR_1989-02-06_BTS_B-ROLL_DESR_WALKING_W_TERESA_EARNHARDT_AT_CHEVROLET_DEALERSHIP_&_OFFICE_SE003330                    A22   C        00:01:06:02 00:01:08:18 00:28:10:05 00:28:12:17 
M2      ERN_F0968_NSCR_1989-02-06_BTS_B-ROLL_DESR_WALKING_W_TERESA_EARNHARDT_AT_CHEVROLET_DEALERSHIP_&_OFFICE_SE003330                             030.0 00:01:06:02 
*FROM CLIP NAME:  ERN_F0968_NSCR_1989-02-06_BTS B-ROLL DESR WALKING W TERESA EARNHARDT AT CHEVROLET DEALERSHIP & OFFICE_SE003330.NEW.01 
*SOURCE FILE: ERN_F0968_NSCR_1989-02-06_BTS B-ROLL DESR WALKING W TERESA EARNHARDT AT CHEVROLET DEALERSHIP & OFFICE_SE003330
001352  ERN_F0968_NSCR_1989-02-06_BTS_B-ROLL_DESR_WALKING_W_TERESA_EARNHARDT_AT_CHEVROLET_DEALERSHIP_&_OFFICE_SE003330                    V     C        00:01:07:07 00:01:14:29 00:28:10:16 00:28:18:09 
M2      ERN_F0968_NSCR_1989-02-06_BTS_B-ROLL_DESR_WALKING_W_TERESA_EARNHARDT_AT_CHEVROLET_DEALERSHIP_&_OFFICE_SE003330                             030.0 00:01:07:07 
*FROM CLIP NAME:  ERN_F0968_NSCR_1989-02-06_BTS B-ROLL DESR WALKING W TERESA EARNHARDT AT CHEVROLET DEALERSHIP & OFFICE_SE003330.NEW.01 
*SOURCE FILE: ERN_F0968_NSCR_1989-02-06_BTS B-ROLL DESR WALKING W TERESA EARNHARDT AT CHEVROLET DEALERSHIP & OFFICE_SE003330
001353  ERN_F0968_NSCR_1989-02-06_BTS_B-ROLL_DESR_WALKING_W_TERESA_EARNHARDT_AT_CHEVROLET_DEALERSHIP_&_OFFICE_SE003330                    A22   C        00:01:08:17 00:01:13:21 00:28:12:17 00:28:17:19 
M2      ERN_F0968_NSCR_1989-02-06_BTS_B-ROLL_DESR_WALKING_W_TERESA_EARNHARDT_AT_CHEVROLET_DEALERSHIP_&_OFFICE_SE003330                             030.0 00:01:08:17 
*FROM CLIP NAME:  ERN_F0968_NSCR_1989-02-06_BTS B-ROLL DESR WALKING W TERESA EARNHARDT AT CHEVROLET DEALERSHIP & OFFICE_SE003330.NEW.01 
*SOURCE FILE: ERN_F0968_NSCR_1989-02-06_BTS B-ROLL DESR WALKING W TERESA EARNHARDT AT CHEVROLET DEALERSHIP & OFFICE_SE003330
001354  ERN_F0185_NSCR_1999-01-22_2_OF_3_CAM_B_INTV_DALE_EARNHARDT_NEIL_BONNETT_HUNTING_TOPICS_-_FAMILY_&_SPONSORS_&_TERESA_1991-NAS-0001 A20   C        02:01:47:09 02:01:47:12 00:28:15:09 00:28:15:11 
M2      ERN_F0185_NSCR_1999-01-22_2_OF_3_CAM_B_INTV_DALE_EARNHARDT_NEIL_BONNETT_HUNTING_TOPICS_-_FAMILY_&_SPONSORS_&_TERESA_1991-NAS-0001          030.0 02:01:47:09 
*FROM CLIP NAME:  ERN_F0185_NSCR_1999-01-22_2 OF 3 CAM B INTV DALE EARNHARDT NEIL BONNETT HUNTING TOPICS - FAMILY & SPONSORS & TERESA_1991-NAS-00015_S001.NEW.02 
*SOURCE FILE: ERN_F0185_NSCR_1999-01-22_2 OF 3 CAM B INTV DALE EARNHARDT NEIL BONNETT HUNTING TOPICS - FAMILY & SPONSORS & TERESA_1991-NAS-00015_S001
001355  ERN_F0185_NSCR_1999-01-22_2_OF_3_CAM_B_INTV_DALE_EARNHARDT_NEIL_BONNETT_HUNTING_TOPICS_-_FAMILY_&_SPONSORS_&_TERESA_1991-NAS-0001 A20   C        02:01:47:11 02:01:48:08 00:28:15:11 00:28:16:08 
M2      ERN_F0185_NSCR_1999-01-22_2_OF_3_CAM_B_INTV_DALE_EARNHARDT_NEIL_BONNETT_HUNTING_TOPICS_-_FAMILY_&_SPONSORS_&_TERESA_1991-NAS-0001          030.0 02:01:47:11 
*FROM CLIP NAME:  ERN_F0185_NSCR_1999-01-22_2 OF 3 CAM B INTV DALE EARNHARDT NEIL BONNETT HUNTING TOPICS - FAMILY & SPONSORS & TERESA_1991-NAS-00015_S001.NEW.02 
*SOURCE FILE: ERN_F0185_NSCR_1999-01-22_2 OF 3 CAM B INTV DALE EARNHARDT NEIL BONNETT HUNTING TOPICS - FAMILY & SPONSORS & TERESA_1991-NAS-00015_S001
001356  ERN_F0185_NSCR_1999-01-22_2_OF_3_CAM_B_INTV_DALE_EARNHARDT_NEIL_BONNETT_HUNTING_TOPICS_-_FAMILY_&_SPONSORS_&_TERESA_1991-NAS-0001 A20   C        02:01:49:04 02:01:49:07 00:28:16:08 00:28:16:10 
M2      ERN_F0185_NSCR_1999-01-22_2_OF_3_CAM_B_INTV_DALE_EARNHARDT_NEIL_BONNETT_HUNTING_TOPICS_-_FAMILY_&_SPONSORS_&_TERESA_1991-NAS-0001          030.0 02:01:49:04 
*FROM CLIP NAME:  ERN_F0185_NSCR_1999-01-22_2 OF 3 CAM B INTV DALE EARNHARDT NEIL BONNETT HUNTING TOPICS - FAMILY & SPONSORS & TERESA_1991-NAS-00015_S001.NEW.02 
*TO CLIP NAME:  ERN_F0185_NSCR_1999-01-22_2 OF 3 CAM B INTV DALE EARNHARDT NEIL BONNETT HUNTING TOPICS - FAMILY & SPONSORS & TERESA_1991-NAS-00015_S001.NEW.02 
*SOURCE FILE: ERN_F0185_NSCR_1999-01-22_2 OF 3 CAM B INTV DALE EARNHARDT NEIL BONNETT HUNTING TOPICS - FAMILY & SPONSORS & TERESA_1991-NAS-00015_S001
001357  ERN_F0185_NSCR_1999-01-22_2_OF_3_CAM_B_INTV_DALE_EARNHARDT_NEIL_BONNETT_HUNTING_TOPICS_-_FAMILY_&_SPONSORS_&_TERESA_1991-NAS-0001 A20   C        02:01:49:06 02:01:50:28 00:28:16:10 00:28:18:03 
M2      ERN_F0185_NSCR_1999-01-22_2_OF_3_CAM_B_INTV_DALE_EARNHARDT_NEIL_BONNETT_HUNTING_TOPICS_-_FAMILY_&_SPONSORS_&_TERESA_1991-NAS-0001          030.0 02:01:49:06 
*FROM CLIP NAME:  ERN_F0185_NSCR_1999-01-22_2 OF 3 CAM B INTV DALE EARNHARDT NEIL BONNETT HUNTING TOPICS - FAMILY & SPONSORS & TERESA_1991-NAS-00015_S001.NEW.02 
*SOURCE FILE: ERN_F0185_NSCR_1999-01-22_2 OF 3 CAM B INTV DALE EARNHARDT NEIL BONNETT HUNTING TOPICS - FAMILY & SPONSORS & TERESA_1991-NAS-00015_S001
001358  ERN_F0968_NSCR_1989-02-06_BTS_B-ROLL_DESR_WALKING_W_TERESA_EARNHARDT_AT_CHEVROLET_DEALERSHIP_&_OFFICE_SE003330                    A22   C        00:01:22:27 00:01:23:28 00:28:17:19 00:28:18:19 
M2      ERN_F0968_NSCR_1989-02-06_BTS_B-ROLL_DESR_WALKING_W_TERESA_EARNHARDT_AT_CHEVROLET_DEALERSHIP_&_OFFICE_SE003330                             030.0 00:01:22:27 
*FROM CLIP NAME:  ERN_F0968_NSCR_1989-02-06_BTS B-ROLL DESR WALKING W TERESA EARNHARDT AT CHEVROLET DEALERSHIP & OFFICE_SE003330.NEW.01 
*TO CLIP NAME:  ERN_F0968_NSCR_1989-02-06_BTS B-ROLL DESR WALKING W TERESA EARNHARDT AT CHEVROLET DEALERSHIP & OFFICE_SE003330.NEW.01 
*SOURCE FILE: ERN_F0968_NSCR_1989-02-06_BTS B-ROLL DESR WALKING W TERESA EARNHARDT AT CHEVROLET DEALERSHIP & OFFICE_SE003330
001359  ERN_F0968_NSCR_1989-02-06_BTS_B-ROLL_DESR_WALKING_W_TERESA_EARNHARDT_AT_CHEVROLET_DEALERSHIP_&_OFFICE_SE003330                    V     C        00:01:23:15 00:01:27:22 00:28:18:09 00:28:22:14 
M2      ERN_F0968_NSCR_1989-02-06_BTS_B-ROLL_DESR_WALKING_W_TERESA_EARNHARDT_AT_CHEVROLET_DEALERSHIP_&_OFFICE_SE003330                             030.0 00:01:23:15 
*FROM CLIP NAME:  ERN_F0968_NSCR_1989-02-06_BTS B-ROLL DESR WALKING W TERESA EARNHARDT AT CHEVROLET DEALERSHIP & OFFICE_SE003330.NEW.01 
*SOURCE FILE: ERN_F0968_NSCR_1989-02-06_BTS B-ROLL DESR WALKING W TERESA EARNHARDT AT CHEVROLET DEALERSHIP & OFFICE_SE003330
001360  ERN_F0812_NSCR_1990S_INTV_DESR_TOPICS-GROWING_UP_IN_KANNAPOLIS_&_RALPH_&_KIDS_RACING_-_UNRIVALED_DOC_RAW_11728_S001               A18   C        10:36:26:27 10:36:27:03 00:28:18:15 00:28:18:19 
M2      ERN_F0812_NSCR_1990S_INTV_DESR_TOPICS-GROWING_UP_IN_KANNAPOLIS_&_RALPH_&_KIDS_RACING_-_UNRIVALED_DOC_RAW_11728_S001                        030.0 10:36:26:27 
*FROM CLIP NAME:  ERN_F0812_NSCR_1990S_INTV DESR TOPICS-GROWING UP IN KANNAPOLIS & RALPH & KIDS RACING - UNRIVALED DOC RAW_11728_S001.NEW.01 
*SOURCE FILE: ERN_F0812_NSCR_1990S_INTV DESR TOPICS-GROWING UP IN KANNAPOLIS & RALPH & KIDS RACING - UNRIVALED DOC RAW_11728_S001
001361  ERN_F0812_NSCR_1990S_INTV_DESR_TOPICS-GROWING_UP_IN_KANNAPOLIS_&_RALPH_&_KIDS_RACING_-_UNRIVALED_DOC_RAW_11728_S001               A18   C        10:36:27:02 10:36:28:28 00:28:18:19 00:28:20:15 
M2      ERN_F0812_NSCR_1990S_INTV_DESR_TOPICS-GROWING_UP_IN_KANNAPOLIS_&_RALPH_&_KIDS_RACING_-_UNRIVALED_DOC_RAW_11728_S001                        030.0 10:36:27:02 
*FROM CLIP NAME:  ERN_F0812_NSCR_1990S_INTV DESR TOPICS-GROWING UP IN KANNAPOLIS & RALPH & KIDS RACING - UNRIVALED DOC RAW_11728_S001.NEW.01 
*SOURCE FILE: ERN_F0812_NSCR_1990S_INTV DESR TOPICS-GROWING UP IN KANNAPOLIS & RALPH & KIDS RACING - UNRIVALED DOC RAW_11728_S001
001362  ERN_F0968_NSCR_1989-02-06_BTS_B-ROLL_DESR_WALKING_W_TERESA_EARNHARDT_AT_CHEVROLET_DEALERSHIP_&_OFFICE_SE003330                    A22   C        00:01:23:27 00:01:27:03 00:28:18:19 00:28:21:23 
M2      ERN_F0968_NSCR_1989-02-06_BTS_B-ROLL_DESR_WALKING_W_TERESA_EARNHARDT_AT_CHEVROLET_DEALERSHIP_&_OFFICE_SE003330                             030.0 00:01:23:27 
*FROM CLIP NAME:  ERN_F0968_NSCR_1989-02-06_BTS B-ROLL DESR WALKING W TERESA EARNHARDT AT CHEVROLET DEALERSHIP & OFFICE_SE003330.NEW.01 
*SOURCE FILE: ERN_F0968_NSCR_1989-02-06_BTS B-ROLL DESR WALKING W TERESA EARNHARDT AT CHEVROLET DEALERSHIP & OFFICE_SE003330
001363  ERN_F0185_NSCR_1999-01-22_2_OF_3_CAM_B_INTV_DALE_EARNHARDT_NEIL_BONNETT_HUNTING_TOPICS_-_FAMILY_&_SPONSORS_&_TERESA_1991-NAS-0001 A18   C        02:10:34:02 02:10:34:05 00:28:20:15 00:28:20:17 
M2      ERN_F0185_NSCR_1999-01-22_2_OF_3_CAM_B_INTV_DALE_EARNHARDT_NEIL_BONNETT_HUNTING_TOPICS_-_FAMILY_&_SPONSORS_&_TERESA_1991-NAS-0001          030.0 02:10:34:02 
*FROM CLIP NAME:  ERN_F0185_NSCR_1999-01-22_2 OF 3 CAM B INTV DALE EARNHARDT NEIL BONNETT HUNTING TOPICS - FAMILY & SPONSORS & TERESA_1991-NAS-00015_S001.NEW.02 
*TO CLIP NAME:  ERN_F0812_NSCR_1990S_INTV DESR TOPICS-GROWING UP IN KANNAPOLIS & RALPH & KIDS RACING - UNRIVALED DOC RAW_11728_S001.NEW.01 
*SOURCE FILE: ERN_F0185_NSCR_1999-01-22_2 OF 3 CAM B INTV DALE EARNHARDT NEIL BONNETT HUNTING TOPICS - FAMILY & SPONSORS & TERESA_1991-NAS-00015_S001
001364  ERN_F0185_NSCR_1999-01-22_2_OF_3_CAM_B_INTV_DALE_EARNHARDT_NEIL_BONNETT_HUNTING_TOPICS_-_FAMILY_&_SPONSORS_&_TERESA_1991-NAS-0001 A18   C        02:10:34:05 02:10:35:09 00:28:20:17 00:28:21:20 
M2      ERN_F0185_NSCR_1999-01-22_2_OF_3_CAM_B_INTV_DALE_EARNHARDT_NEIL_BONNETT_HUNTING_TOPICS_-_FAMILY_&_SPONSORS_&_TERESA_1991-NAS-0001          030.0 02:10:34:05 
*FROM CLIP NAME:  ERN_F0185_NSCR_1999-01-22_2 OF 3 CAM B INTV DALE EARNHARDT NEIL BONNETT HUNTING TOPICS - FAMILY & SPONSORS & TERESA_1991-NAS-00015_S001.NEW.02 
*SOURCE FILE: ERN_F0185_NSCR_1999-01-22_2 OF 3 CAM B INTV DALE EARNHARDT NEIL BONNETT HUNTING TOPICS - FAMILY & SPONSORS & TERESA_1991-NAS-00015_S001
001365  ERN_F0968_NSCR_1989-02-06_BTS_B-ROLL_DESR_WALKING_W_TERESA_EARNHARDT_AT_CHEVROLET_DEALERSHIP_&_OFFICE_SE003330                    A20   C        00:01:56:09 00:01:57:09 00:28:21:16 00:28:22:16 
M2      ERN_F0968_NSCR_1989-02-06_BTS_B-ROLL_DESR_WALKING_W_TERESA_EARNHARDT_AT_CHEVROLET_DEALERSHIP_&_OFFICE_SE003330                             030.0 00:01:56:09 
*FROM CLIP NAME:  ERN_F0968_NSCR_1989-02-06_BTS B-ROLL DESR WALKING W TERESA EARNHARDT AT CHEVROLET DEALERSHIP & OFFICE_SE003330.NEW.01 
*SOURCE FILE: ERN_F0968_NSCR_1989-02-06_BTS B-ROLL DESR WALKING W TERESA EARNHARDT AT CHEVROLET DEALERSHIP & OFFICE_SE003330
001366  ERN_F0968_NSCR_1989-02-06_BTS_B-ROLL_DESR_WALKING_W_TERESA_EARNHARDT_AT_CHEVROLET_DEALERSHIP_&_OFFICE_SE003330                    V     C        00:01:57:06 00:02:03:29 00:28:22:14 00:28:29:06 
M2      ERN_F0968_NSCR_1989-02-06_BTS_B-ROLL_DESR_WALKING_W_TERESA_EARNHARDT_AT_CHEVROLET_DEALERSHIP_&_OFFICE_SE003330                             030.0 00:01:57:06 
*FROM CLIP NAME:  ERN_F0968_NSCR_1989-02-06_BTS B-ROLL DESR WALKING W TERESA EARNHARDT AT CHEVROLET DEALERSHIP & OFFICE_SE003330.NEW.01 
*SOURCE FILE: ERN_F0968_NSCR_1989-02-06_BTS B-ROLL DESR WALKING W TERESA EARNHARDT AT CHEVROLET DEALERSHIP & OFFICE_SE003330
001367  ERN_F0968_NSCR_1989-02-06_BTS_B-ROLL_DESR_WALKING_W_TERESA_EARNHARDT_AT_CHEVROLET_DEALERSHIP_&_OFFICE_SE003330                    A20   C        00:01:57:09 00:02:03:18 00:28:22:16 00:28:28:21 
M2      ERN_F0968_NSCR_1989-02-06_BTS_B-ROLL_DESR_WALKING_W_TERESA_EARNHARDT_AT_CHEVROLET_DEALERSHIP_&_OFFICE_SE003330                             030.0 00:01:57:09 
*FROM CLIP NAME:  ERN_F0968_NSCR_1989-02-06_BTS B-ROLL DESR WALKING W TERESA EARNHARDT AT CHEVROLET DEALERSHIP & OFFICE_SE003330.NEW.01 
*SOURCE FILE: ERN_F0968_NSCR_1989-02-06_BTS B-ROLL DESR WALKING W TERESA EARNHARDT AT CHEVROLET DEALERSHIP & OFFICE_SE003330
001368  ERN_F0306_NSCR_1990S_1_OF_2_INTV_TERESA_EARNHARDT_RACE_LIFE_&_BUSINESS_&_FAMILY_SE005949                                          A18   C        00:13:49:17 00:13:49:23 00:28:28:14 00:28:28:18 
M2      ERN_F0306_NSCR_1990S_1_OF_2_INTV_TERESA_EARNHARDT_RACE_LIFE_&_BUSINESS_&_FAMILY_SE005949                                                   030.0 00:13:49:17 
*FROM CLIP NAME:  ERN_F0306_NSCR_1990S_1 OF 2 INTV TERESA EARNHARDT RACE LIFE & BUSINESS & FAMILY_SE005949.NEW.01 
*SOURCE FILE: ERN_F0306_NSCR_1990S_1 OF 2 INTV TERESA EARNHARDT RACE LIFE & BUSINESS & FAMILY_SE005949
001369  ERN_F0968_NSCR_1989-02-06_BTS_B-ROLL_DESR_WALKING_W_TERESA_EARNHARDT_AT_CHEVROLET_DEALERSHIP_&_OFFICE_SE003330                    A22   C        00:03:10:10 00:03:11:11 00:28:28:18 00:28:29:18 
M2      ERN_F0968_NSCR_1989-02-06_BTS_B-ROLL_DESR_WALKING_W_TERESA_EARNHARDT_AT_CHEVROLET_DEALERSHIP_&_OFFICE_SE003330                             030.0 00:03:10:10 
*FROM CLIP NAME:  ERN_F0968_NSCR_1989-02-06_BTS B-ROLL DESR WALKING W TERESA EARNHARDT AT CHEVROLET DEALERSHIP & OFFICE_SE003330.NEW.01 
*SOURCE FILE: ERN_F0968_NSCR_1989-02-06_BTS B-ROLL DESR WALKING W TERESA EARNHARDT AT CHEVROLET DEALERSHIP & OFFICE_SE003330
001370  ERN_F0306_NSCR_1990S_1_OF_2_INTV_TERESA_EARNHARDT_RACE_LIFE_&_BUSINESS_&_FAMILY_SE005949                                          A18   C        00:13:49:22 00:13:57:02 00:28:28:18 00:28:36:01 
M2      ERN_F0306_NSCR_1990S_1_OF_2_INTV_TERESA_EARNHARDT_RACE_LIFE_&_BUSINESS_&_FAMILY_SE005949                                                   030.0 00:13:49:22 
*FROM CLIP NAME:  ERN_F0306_NSCR_1990S_1 OF 2 INTV TERESA EARNHARDT RACE LIFE & BUSINESS & FAMILY_SE005949.NEW.01 
*SOURCE FILE: ERN_F0306_NSCR_1990S_1 OF 2 INTV TERESA EARNHARDT RACE LIFE & BUSINESS & FAMILY_SE005949
001371  ERN_F0968_NSCR_1989-02-06_BTS_B-ROLL_DESR_WALKING_W_TERESA_EARNHARDT_AT_CHEVROLET_DEALERSHIP_&_OFFICE_SE003330                    V     C        00:03:10:25 00:03:14:13 00:28:29:06 00:28:32:20 
M2      ERN_F0968_NSCR_1989-02-06_BTS_B-ROLL_DESR_WALKING_W_TERESA_EARNHARDT_AT_CHEVROLET_DEALERSHIP_&_OFFICE_SE003330                             030.0 00:03:10:25 
*FROM CLIP NAME:  ERN_F0968_NSCR_1989-02-06_BTS B-ROLL DESR WALKING W TERESA EARNHARDT AT CHEVROLET DEALERSHIP & OFFICE_SE003330.NEW.01 
*SOURCE FILE: ERN_F0968_NSCR_1989-02-06_BTS B-ROLL DESR WALKING W TERESA EARNHARDT AT CHEVROLET DEALERSHIP & OFFICE_SE003330
001372  ERN_F0968_NSCR_1989-02-06_BTS_B-ROLL_DESR_WALKING_W_TERESA_EARNHARDT_AT_CHEVROLET_DEALERSHIP_&_OFFICE_SE003330                    A22   C        00:03:11:10 00:03:12:21 00:28:29:18 00:28:31:02 
M2      ERN_F0968_NSCR_1989-02-06_BTS_B-ROLL_DESR_WALKING_W_TERESA_EARNHARDT_AT_CHEVROLET_DEALERSHIP_&_OFFICE_SE003330                             030.0 00:03:11:10 
*FROM CLIP NAME:  ERN_F0968_NSCR_1989-02-06_BTS B-ROLL DESR WALKING W TERESA EARNHARDT AT CHEVROLET DEALERSHIP & OFFICE_SE003330.NEW.01 
*TO CLIP NAME:  ERN_F0968_NSCR_1989-02-06_BTS B-ROLL DESR WALKING W TERESA EARNHARDT AT CHEVROLET DEALERSHIP & OFFICE_SE003330.NEW.01 
*SOURCE FILE: ERN_F0968_NSCR_1989-02-06_BTS B-ROLL DESR WALKING W TERESA EARNHARDT AT CHEVROLET DEALERSHIP & OFFICE_SE003330
001373  ERN_F0968_NSCR_1989-02-06_BTS_B-ROLL_DESR_WALKING_W_TERESA_EARNHARDT_AT_CHEVROLET_DEALERSHIP_&_OFFICE_SE003330                    V     C        00:14:04:04 00:14:08:10 00:28:32:20 00:28:37:00 
M2      ERN_F0968_NSCR_1989-02-06_BTS_B-ROLL_DESR_WALKING_W_TERESA_EARNHARDT_AT_CHEVROLET_DEALERSHIP_&_OFFICE_SE003330                             030.0 00:14:04:04 
*FROM CLIP NAME:  ERN_F0968_NSCR_1989-02-06_BTS B-ROLL DESR WALKING W TERESA EARNHARDT AT CHEVROLET DEALERSHIP & OFFICE_SE003330.NEW.01 
*SOURCE FILE: ERN_F0968_NSCR_1989-02-06_BTS B-ROLL DESR WALKING W TERESA EARNHARDT AT CHEVROLET DEALERSHIP & OFFICE_SE003330
001374  ERN_F0306_NSCR_1990S_1_OF_2_INTV_TERESA_EARNHARDT_RACE_LIFE_&_BUSINESS_&_FAMILY_SE005949                                          A18   C        00:13:41:18 00:13:41:22 00:28:36:01 00:28:36:03 
M2      ERN_F0306_NSCR_1990S_1_OF_2_INTV_TERESA_EARNHARDT_RACE_LIFE_&_BUSINESS_&_FAMILY_SE005949                                                   030.0 00:13:41:18 
*FROM CLIP NAME:  ERN_F0306_NSCR_1990S_1 OF 2 INTV TERESA EARNHARDT RACE LIFE & BUSINESS & FAMILY_SE005949.NEW.01 
*SOURCE FILE: ERN_F0306_NSCR_1990S_1 OF 2 INTV TERESA EARNHARDT RACE LIFE & BUSINESS & FAMILY_SE005949
001375  ERN_F0306_NSCR_1990S_1_OF_2_INTV_TERESA_EARNHARDT_RACE_LIFE_&_BUSINESS_&_FAMILY_SE005949                                          A18   C        00:13:41:21 00:13:42:22 00:28:36:03 00:28:37:03 
M2      ERN_F0306_NSCR_1990S_1_OF_2_INTV_TERESA_EARNHARDT_RACE_LIFE_&_BUSINESS_&_FAMILY_SE005949                                                   030.0 00:13:41:21 
*FROM CLIP NAME:  ERN_F0306_NSCR_1990S_1 OF 2 INTV TERESA EARNHARDT RACE LIFE & BUSINESS & FAMILY_SE005949.NEW.01 
*SOURCE FILE: ERN_F0306_NSCR_1990S_1 OF 2 INTV TERESA EARNHARDT RACE LIFE & BUSINESS & FAMILY_SE005949
001376  ERN_F0306_NSCR_1990S_1_OF_2_INTV_TERESA_EARNHARDT_RACE_LIFE_&_BUSINESS_&_FAMILY_SE005949                                          V     C        00:13:43:23 00:13:47:09 00:28:37:00 00:28:40:12 
M2      ERN_F0306_NSCR_1990S_1_OF_2_INTV_TERESA_EARNHARDT_RACE_LIFE_&_BUSINESS_&_FAMILY_SE005949                                                   030.0 00:13:43:23 
*FROM CLIP NAME:  ERN_F0306_NSCR_1990S_1 OF 2 INTV TERESA EARNHARDT RACE LIFE & BUSINESS & FAMILY_SE005949.NEW.01 
*SOURCE FILE: ERN_F0306_NSCR_1990S_1 OF 2 INTV TERESA EARNHARDT RACE LIFE & BUSINESS & FAMILY_SE005949
001377  ERN_F0306_NSCR_1990S_1_OF_2_INTV_TERESA_EARNHARDT_RACE_LIFE_&_BUSINESS_&_FAMILY_SE005949                                          A18   C        00:13:43:27 00:13:44:00 00:28:37:03 00:28:37:05 
M2      ERN_F0306_NSCR_1990S_1_OF_2_INTV_TERESA_EARNHARDT_RACE_LIFE_&_BUSINESS_&_FAMILY_SE005949                                                   030.0 00:13:43:27 
*FROM CLIP NAME:  ERN_F0306_NSCR_1990S_1 OF 2 INTV TERESA EARNHARDT RACE LIFE & BUSINESS & FAMILY_SE005949.NEW.01 
*TO CLIP NAME:  ERN_F0306_NSCR_1990S_1 OF 2 INTV TERESA EARNHARDT RACE LIFE & BUSINESS & FAMILY_SE005949.NEW.01 
*SOURCE FILE: ERN_F0306_NSCR_1990S_1 OF 2 INTV TERESA EARNHARDT RACE LIFE & BUSINESS & FAMILY_SE005949
001378  ERN_F0306_NSCR_1990S_1_OF_2_INTV_TERESA_EARNHARDT_RACE_LIFE_&_BUSINESS_&_FAMILY_SE005949                                          A18   C        00:13:44:00 00:13:47:09 00:28:37:05 00:28:40:12 
M2      ERN_F0306_NSCR_1990S_1_OF_2_INTV_TERESA_EARNHARDT_RACE_LIFE_&_BUSINESS_&_FAMILY_SE005949                                                   030.0 00:13:44:00 
*FROM CLIP NAME:  ERN_F0306_NSCR_1990S_1 OF 2 INTV TERESA EARNHARDT RACE LIFE & BUSINESS & FAMILY_SE005949.NEW.01 
*SOURCE FILE: ERN_F0306_NSCR_1990S_1 OF 2 INTV TERESA EARNHARDT RACE LIFE & BUSINESS & FAMILY_SE005949
001379  ERN_F2033_NSCR_1990-07-10_B-ROLL_DESR_&_TERESA_EARNHARDT_WORKING_IN_OFFICE_&_ON_FLOOR_AT_DEALERSHIP_SE005916_S003                 A20   C        00:22:13:12 00:22:14:12 00:28:40:06 00:28:41:06 
M2      ERN_F2033_NSCR_1990-07-10_B-ROLL_DESR_&_TERESA_EARNHARDT_WORKING_IN_OFFICE_&_ON_FLOOR_AT_DEALERSHIP_SE005916_S003                          030.0 00:22:13:12 
*FROM CLIP NAME:  ERN_F2033_NSCR_1990-07-10_B-ROLL DESR & TERESA EARNHARDT WORKING IN OFFICE & ON FLOOR AT DEALERSHIP_SE005916_S003.NEW.01 
*SOURCE FILE: ERN_F2033_NSCR_1990-07-10_B-ROLL DESR & TERESA EARNHARDT WORKING IN OFFICE & ON FLOOR AT DEALERSHIP_SE005916_S003
001380  ERN_F2033_NSCR_1990-07-10_B-ROLL_DESR_&_TERESA_EARNHARDT_WORKING_IN_OFFICE_&_ON_FLOOR_AT_DEALERSHIP_SE005916_S003                 V     C        00:22:13:19 00:22:18:09 00:28:40:12 00:28:45:03 
M2      ERN_F2033_NSCR_1990-07-10_B-ROLL_DESR_&_TERESA_EARNHARDT_WORKING_IN_OFFICE_&_ON_FLOOR_AT_DEALERSHIP_SE005916_S003                          030.0 00:22:13:19 
*FROM CLIP NAME:  ERN_F2033_NSCR_1990-07-10_B-ROLL DESR & TERESA EARNHARDT WORKING IN OFFICE & ON FLOOR AT DEALERSHIP_SE005916_S003.NEW.01 
*SOURCE FILE: ERN_F2033_NSCR_1990-07-10_B-ROLL DESR & TERESA EARNHARDT WORKING IN OFFICE & ON FLOOR AT DEALERSHIP_SE005916_S003
001381  ERN_F2033_NSCR_1990-07-10_B-ROLL_DESR_&_TERESA_EARNHARDT_WORKING_IN_OFFICE_&_ON_FLOOR_AT_DEALERSHIP_SE005916_S003                 A20   C        00:22:14:12 00:22:16:19 00:28:41:06 00:28:43:11 
M2      ERN_F2033_NSCR_1990-07-10_B-ROLL_DESR_&_TERESA_EARNHARDT_WORKING_IN_OFFICE_&_ON_FLOOR_AT_DEALERSHIP_SE005916_S003                          030.0 00:22:14:12 
*FROM CLIP NAME:  ERN_F2033_NSCR_1990-07-10_B-ROLL DESR & TERESA EARNHARDT WORKING IN OFFICE & ON FLOOR AT DEALERSHIP_SE005916_S003.NEW.01 
*SOURCE FILE: ERN_F2033_NSCR_1990-07-10_B-ROLL DESR & TERESA EARNHARDT WORKING IN OFFICE & ON FLOOR AT DEALERSHIP_SE005916_S003
001382  ERN_F0306_NSCR_1990S_1_OF_2_INTV_TERESA_EARNHARDT_RACE_LIFE_&_BUSINESS_&_FAMILY_SE005949                                          A18   C        00:15:15:04 00:15:15:07 00:28:42:06 00:28:42:08 
M2      ERN_F0306_NSCR_1990S_1_OF_2_INTV_TERESA_EARNHARDT_RACE_LIFE_&_BUSINESS_&_FAMILY_SE005949                                                   030.0 00:15:15:04 
*FROM CLIP NAME:  ERN_F0306_NSCR_1990S_1 OF 2 INTV TERESA EARNHARDT RACE LIFE & BUSINESS & FAMILY_SE005949.NEW.01 
*SOURCE FILE: ERN_F0306_NSCR_1990S_1 OF 2 INTV TERESA EARNHARDT RACE LIFE & BUSINESS & FAMILY_SE005949
001383  ERN_F0306_NSCR_1990S_1_OF_2_INTV_TERESA_EARNHARDT_RACE_LIFE_&_BUSINESS_&_FAMILY_SE005949                                          A18   C        00:15:15:06 00:15:17:04 00:28:42:08 00:28:44:06 
M2      ERN_F0306_NSCR_1990S_1_OF_2_INTV_TERESA_EARNHARDT_RACE_LIFE_&_BUSINESS_&_FAMILY_SE005949                                                   030.0 00:15:15:06 
*FROM CLIP NAME:  ERN_F0306_NSCR_1990S_1 OF 2 INTV TERESA EARNHARDT RACE LIFE & BUSINESS & FAMILY_SE005949.NEW.01 
*SOURCE FILE: ERN_F0306_NSCR_1990S_1 OF 2 INTV TERESA EARNHARDT RACE LIFE & BUSINESS & FAMILY_SE005949
001384  ERN_F0254_NSCR_1990-04-04_3_OF_4_B-ROLL_MORNING_EARNHARDT_FARM_SCENES_SE005911_S003                                               A22   C        00:15:19:07 00:15:22:08 00:28:43:20 00:28:46:20 
M2      ERN_F0254_NSCR_1990-04-04_3_OF_4_B-ROLL_MORNING_EARNHARDT_FARM_SCENES_SE005911_S003                                                        030.0 00:15:19:07 
*FROM CLIP NAME:  ERN_F0254_NSCR_1990-04-04_3 OF 4 B-ROLL MORNING EARNHARDT FARM SCENES_SE005911_S003.NEW.01 
*SOURCE FILE: ERN_F0254_NSCR_1990-04-04_3 OF 4 B-ROLL MORNING EARNHARDT FARM SCENES_SE005911_S003
001385  ERN_F0254_NSCR_1990-04-04_3_OF_4_B-ROLL_MORNING_EARNHARDT_FARM_SCENES_SE005911_S003                                               V     C        00:19:16:21 00:19:22:09 00:28:45:03 00:28:49:19 
M2      ERN_F0254_NSCR_1990-04-04_3_OF_4_B-ROLL_MORNING_EARNHARDT_FARM_SCENES_SE005911_S003                                                        036.0 00:19:16:21 
*FROM CLIP NAME:  ERN_F0254_NSCR_1990-04-04_3 OF 4 B-ROLL MORNING EARNHARDT FARM SCENES_SE005911_S003.NEW.01 
*SOURCE FILE: ERN_F0254_NSCR_1990-04-04_3 OF 4 B-ROLL MORNING EARNHARDT FARM SCENES_SE005911_S003
001386  ERN_F0254_NSCR_1990-04-04_3_OF_4_B-ROLL_MORNING_EARNHARDT_FARM_SCENES_SE005911_S003                                               A22   C        00:15:22:07 00:15:26:11 00:28:46:20 00:28:50:23 
M2      ERN_F0254_NSCR_1990-04-04_3_OF_4_B-ROLL_MORNING_EARNHARDT_FARM_SCENES_SE005911_S003                                                        030.0 00:15:22:07 
*FROM CLIP NAME:  ERN_F0254_NSCR_1990-04-04_3 OF 4 B-ROLL MORNING EARNHARDT FARM SCENES_SE005911_S003.NEW.01 
*SOURCE FILE: ERN_F0254_NSCR_1990-04-04_3 OF 4 B-ROLL MORNING EARNHARDT FARM SCENES_SE005911_S003
001387  ERN_F0488_NSCR_1990-04-04_1_OF_3_CAM_A_INTV_DALE_EARNHARDT_FISHING_TOPICS_-_WORKING_ON_PROPERTY_&_HEROES_&_KIDS_SE005925_S005     A18   C        00:07:53:08 00:07:53:13 00:28:47:18 00:28:47:22 
M2      ERN_F0488_NSCR_1990-04-04_1_OF_3_CAM_A_INTV_DALE_EARNHARDT_FISHING_TOPICS_-_WORKING_ON_PROPERTY_&_HEROES_&_KIDS_SE005925_S005              030.0 00:07:53:08 
*FROM CLIP NAME:  ERN_F0488_NSCR_1990-04-04_1 OF 3 CAM A INTV DALE EARNHARDT FISHING TOPICS - WORKING ON PROPERTY & HEROES & KIDS_SE005925_S005.NEW.01 
*SOURCE FILE: ERN_F0488_NSCR_1990-04-04_1 OF 3 CAM A INTV DALE EARNHARDT FISHING TOPICS - WORKING ON PROPERTY & HEROES & KIDS_SE005925_S005
001388  ERN_F0488_NSCR_1990-04-04_1_OF_3_CAM_A_INTV_DALE_EARNHARDT_FISHING_TOPICS_-_WORKING_ON_PROPERTY_&_HEROES_&_KIDS_SE005925_S005     A18   C        00:07:53:13 00:07:56:03 00:28:47:22 00:28:50:14 
M2      ERN_F0488_NSCR_1990-04-04_1_OF_3_CAM_A_INTV_DALE_EARNHARDT_FISHING_TOPICS_-_WORKING_ON_PROPERTY_&_HEROES_&_KIDS_SE005925_S005              030.0 00:07:53:13 
*FROM CLIP NAME:  ERN_F0488_NSCR_1990-04-04_1 OF 3 CAM A INTV DALE EARNHARDT FISHING TOPICS - WORKING ON PROPERTY & HEROES & KIDS_SE005925_S005.NEW.01 
*SOURCE FILE: ERN_F0488_NSCR_1990-04-04_1 OF 3 CAM A INTV DALE EARNHARDT FISHING TOPICS - WORKING ON PROPERTY & HEROES & KIDS_SE005925_S005
001389  ERN_F1025_NSCR_1990S_FARM_B-ROLL_DESR_EARLY_MORNING_DRIVE_AROUND_FARM_28_EARNHARDT_1                                              V     C        00:17:48:01 00:17:51:06 00:28:49:19 00:28:52:23 
M2      ERN_F1025_NSCR_1990S_FARM_B-ROLL_DESR_EARLY_MORNING_DRIVE_AROUND_FARM_28_EARNHARDT_1                                                       030.0 00:17:48:01 
*FROM CLIP NAME:  ERN_F1025_NSCR_1990S_FARM B-ROLL DESR EARLY MORNING DRIVE AROUND FARM_28_EARNHARDT 1.NEW.01 
*SOURCE FILE: ERN_F1025_NSCR_1990S_FARM B-ROLL DESR EARLY MORNING DRIVE AROUND FARM_28_EARNHARDT 1
001390  ERN_F0488_NSCR_1990-04-04_1_OF_3_CAM_A_INTV_DALE_EARNHARDT_FISHING_TOPICS_-_WORKING_ON_PROPERTY_&_HEROES_&_KIDS_SE005925_S005     A18   C        00:07:59:26 00:08:00:02 00:28:50:14 00:28:50:16 
M2      ERN_F0488_NSCR_1990-04-04_1_OF_3_CAM_A_INTV_DALE_EARNHARDT_FISHING_TOPICS_-_WORKING_ON_PROPERTY_&_HEROES_&_KIDS_SE005925_S005              030.0 00:07:59:26 
*FROM CLIP NAME:  ERN_F0488_NSCR_1990-04-04_1 OF 3 CAM A INTV DALE EARNHARDT FISHING TOPICS - WORKING ON PROPERTY & HEROES & KIDS_SE005925_S005.NEW.01 
*TO CLIP NAME:  ERN_F0488_NSCR_1990-04-04_1 OF 3 CAM A INTV DALE EARNHARDT FISHING TOPICS - WORKING ON PROPERTY & HEROES & KIDS_SE005925_S005.NEW.01 
*SOURCE FILE: ERN_F0488_NSCR_1990-04-04_1 OF 3 CAM A INTV DALE EARNHARDT FISHING TOPICS - WORKING ON PROPERTY & HEROES & KIDS_SE005925_S005
001391  ERN_F0488_NSCR_1990-04-04_1_OF_3_CAM_A_INTV_DALE_EARNHARDT_FISHING_TOPICS_-_WORKING_ON_PROPERTY_&_HEROES_&_KIDS_SE005925_S005     A18   C        00:07:59:29 00:08:01:05 00:28:50:16 00:28:51:19 
M2      ERN_F0488_NSCR_1990-04-04_1_OF_3_CAM_A_INTV_DALE_EARNHARDT_FISHING_TOPICS_-_WORKING_ON_PROPERTY_&_HEROES_&_KIDS_SE005925_S005              030.0 00:07:59:29 
*FROM CLIP NAME:  ERN_F0488_NSCR_1990-04-04_1 OF 3 CAM A INTV DALE EARNHARDT FISHING TOPICS - WORKING ON PROPERTY & HEROES & KIDS_SE005925_S005.NEW.01 
*SOURCE FILE: ERN_F0488_NSCR_1990-04-04_1 OF 3 CAM A INTV DALE EARNHARDT FISHING TOPICS - WORKING ON PROPERTY & HEROES & KIDS_SE005925_S005
001392  ERN_F0290_NSCR_1990-06-26_2_OF_3_B-ROLL_DALE_EARNHARDT_WORKING_ON_FARM_W_EXCAVATOR_SE005920_S001                                  A20   C        00:01:40:04 00:01:42:05 00:28:51:03 00:28:53:03 
M2      ERN_F0290_NSCR_1990-06-26_2_OF_3_B-ROLL_DALE_EARNHARDT_WORKING_ON_FARM_W_EXCAVATOR_SE005920_S001                                           030.0 00:01:40:04 
*FROM CLIP NAME:  ERN_F0290_NSCR_1990-06-26_2 OF 3 B-ROLL DALE EARNHARDT WORKING ON FARM W EXCAVATOR_SE005920_S001.NEW.01 
*SOURCE FILE: ERN_F0290_NSCR_1990-06-26_2 OF 3 B-ROLL DALE EARNHARDT WORKING ON FARM W EXCAVATOR_SE005920_S001
001393  ERN_F0290_NSCR_1990-06-26_2_OF_3_B-ROLL_DALE_EARNHARDT_WORKING_ON_FARM_W_EXCAVATOR_SE005920_S001                                  V     C        00:01:41:29 00:01:44:18 00:28:52:23 00:28:55:13 
M2      ERN_F0290_NSCR_1990-06-26_2_OF_3_B-ROLL_DALE_EARNHARDT_WORKING_ON_FARM_W_EXCAVATOR_SE005920_S001                                           030.0 00:01:41:29 
*FROM CLIP NAME:  ERN_F0290_NSCR_1990-06-26_2 OF 3 B-ROLL DALE EARNHARDT WORKING ON FARM W EXCAVATOR_SE005920_S001.NEW.01 
*SOURCE FILE: ERN_F0290_NSCR_1990-06-26_2 OF 3 B-ROLL DALE EARNHARDT WORKING ON FARM W EXCAVATOR_SE005920_S001
001394  ERN_F0290_NSCR_1990-06-26_2_OF_3_B-ROLL_DALE_EARNHARDT_WORKING_ON_FARM_W_EXCAVATOR_SE005920_S001                                  A20   C        00:01:42:04 00:01:44:03 00:28:53:03 00:28:55:01 
M2      ERN_F0290_NSCR_1990-06-26_2_OF_3_B-ROLL_DALE_EARNHARDT_WORKING_ON_FARM_W_EXCAVATOR_SE005920_S001                                           030.0 00:01:42:04 
*FROM CLIP NAME:  ERN_F0290_NSCR_1990-06-26_2 OF 3 B-ROLL DALE EARNHARDT WORKING ON FARM W EXCAVATOR_SE005920_S001.NEW.01 
*SOURCE FILE: ERN_F0290_NSCR_1990-06-26_2 OF 3 B-ROLL DALE EARNHARDT WORKING ON FARM W EXCAVATOR_SE005920_S001
001395  ERN_F0488_NSCR_1990-04-04_1_OF_3_CAM_A_INTV_DALE_EARNHARDT_FISHING_TOPICS_-_WORKING_ON_PROPERTY_&_HEROES_&_KIDS_SE005925_S005     A18   C        00:07:56:04 00:07:58:05 00:28:53:03 00:28:55:03 
M2      ERN_F0488_NSCR_1990-04-04_1_OF_3_CAM_A_INTV_DALE_EARNHARDT_FISHING_TOPICS_-_WORKING_ON_PROPERTY_&_HEROES_&_KIDS_SE005925_S005              030.0 00:07:56:04 
*FROM CLIP NAME:  ERN_F0488_NSCR_1990-04-04_1 OF 3 CAM A INTV DALE EARNHARDT FISHING TOPICS - WORKING ON PROPERTY & HEROES & KIDS_SE005925_S005.NEW.01 
*SOURCE FILE: ERN_F0488_NSCR_1990-04-04_1 OF 3 CAM A INTV DALE EARNHARDT FISHING TOPICS - WORKING ON PROPERTY & HEROES & KIDS_SE005925_S005
001396  ERN_F0290_NSCR_1990-06-26_2_OF_3_B-ROLL_DALE_EARNHARDT_WORKING_ON_FARM_W_EXCAVATOR_SE005920_S001                                  A20   C        00:01:56:18 00:01:57:19 00:28:55:01 00:28:56:01 
M2      ERN_F0290_NSCR_1990-06-26_2_OF_3_B-ROLL_DALE_EARNHARDT_WORKING_ON_FARM_W_EXCAVATOR_SE005920_S001                                           030.0 00:01:56:18 
*FROM CLIP NAME:  ERN_F0290_NSCR_1990-06-26_2 OF 3 B-ROLL DALE EARNHARDT WORKING ON FARM W EXCAVATOR_SE005920_S001.NEW.01 
*TO CLIP NAME:  ERN_F0290_NSCR_1990-06-26_2 OF 3 B-ROLL DALE EARNHARDT WORKING ON FARM W EXCAVATOR_SE005920_S001.NEW.01 
*SOURCE FILE: ERN_F0290_NSCR_1990-06-26_2 OF 3 B-ROLL DALE EARNHARDT WORKING ON FARM W EXCAVATOR_SE005920_S001
001397  ERN_F0488_NSCR_1990-04-04_1_OF_3_CAM_A_INTV_DALE_EARNHARDT_FISHING_TOPICS_-_WORKING_ON_PROPERTY_&_HEROES_&_KIDS_SE005925_S005     A18   C        00:08:51:06 00:08:56:18 00:28:55:03 00:29:00:12 
M2      ERN_F0488_NSCR_1990-04-04_1_OF_3_CAM_A_INTV_DALE_EARNHARDT_FISHING_TOPICS_-_WORKING_ON_PROPERTY_&_HEROES_&_KIDS_SE005925_S005              030.0 00:08:51:06 
*FROM CLIP NAME:  ERN_F0488_NSCR_1990-04-04_1 OF 3 CAM A INTV DALE EARNHARDT FISHING TOPICS - WORKING ON PROPERTY & HEROES & KIDS_SE005925_S005.NEW.01 
*SOURCE FILE: ERN_F0488_NSCR_1990-04-04_1 OF 3 CAM A INTV DALE EARNHARDT FISHING TOPICS - WORKING ON PROPERTY & HEROES & KIDS_SE005925_S005
001398  ERN_F0290_NSCR_1990-06-26_2_OF_3_B-ROLL_DALE_EARNHARDT_WORKING_ON_FARM_W_EXCAVATOR_SE005920_S001                                  V     C        00:01:57:03 00:02:01:18 00:28:55:13 00:28:59:23 
M2      ERN_F0290_NSCR_1990-06-26_2_OF_3_B-ROLL_DALE_EARNHARDT_WORKING_ON_FARM_W_EXCAVATOR_SE005920_S001                                           030.0 00:01:57:03 
*FROM CLIP NAME:  ERN_F0290_NSCR_1990-06-26_2 OF 3 B-ROLL DALE EARNHARDT WORKING ON FARM W EXCAVATOR_SE005920_S001.NEW.01 
*SOURCE FILE: ERN_F0290_NSCR_1990-06-26_2 OF 3 B-ROLL DALE EARNHARDT WORKING ON FARM W EXCAVATOR_SE005920_S001
001399  ERN_F0290_NSCR_1990-06-26_2_OF_3_B-ROLL_DALE_EARNHARDT_WORKING_ON_FARM_W_EXCAVATOR_SE005920_S001                                  A20   C        00:01:57:18 00:02:01:03 00:28:56:01 00:28:59:11 
M2      ERN_F0290_NSCR_1990-06-26_2_OF_3_B-ROLL_DALE_EARNHARDT_WORKING_ON_FARM_W_EXCAVATOR_SE005920_S001                                           030.0 00:01:57:18 
*FROM CLIP NAME:  ERN_F0290_NSCR_1990-06-26_2 OF 3 B-ROLL DALE EARNHARDT WORKING ON FARM W EXCAVATOR_SE005920_S001.NEW.01 
*SOURCE FILE: ERN_F0290_NSCR_1990-06-26_2 OF 3 B-ROLL DALE EARNHARDT WORKING ON FARM W EXCAVATOR_SE005920_S001
001400  ERN_F0290_NSCR_1990-06-26_2_OF_3_B-ROLL_DALE_EARNHARDT_WORKING_ON_FARM_W_EXCAVATOR_SE005920_S001                                  A22   C        00:05:33:19 00:05:35:04 00:28:58:23 00:29:00:11 
M2      ERN_F0290_NSCR_1990-06-26_2_OF_3_B-ROLL_DALE_EARNHARDT_WORKING_ON_FARM_W_EXCAVATOR_SE005920_S001                                           030.0 00:05:33:19 
*FROM CLIP NAME:  ERN_F0290_NSCR_1990-06-26_2 OF 3 B-ROLL DALE EARNHARDT WORKING ON FARM W EXCAVATOR_SE005920_S001.NEW.01 
*SOURCE FILE: ERN_F0290_NSCR_1990-06-26_2 OF 3 B-ROLL DALE EARNHARDT WORKING ON FARM W EXCAVATOR_SE005920_S001
001401  ERN_F0290_NSCR_1990-06-26_2_OF_3_B-ROLL_DALE_EARNHARDT_WORKING_ON_FARM_W_EXCAVATOR_SE005920_S001                                  V     C        00:05:34:19 00:05:36:27 00:28:59:23 00:29:02:05 
M2      ERN_F0290_NSCR_1990-06-26_2_OF_3_B-ROLL_DALE_EARNHARDT_WORKING_ON_FARM_W_EXCAVATOR_SE005920_S001                                           030.0 00:05:34:19 
*FROM CLIP NAME:  ERN_F0290_NSCR_1990-06-26_2 OF 3 B-ROLL DALE EARNHARDT WORKING ON FARM W EXCAVATOR_SE005920_S001.NEW.01 
*SOURCE FILE: ERN_F0290_NSCR_1990-06-26_2 OF 3 B-ROLL DALE EARNHARDT WORKING ON FARM W EXCAVATOR_SE005920_S001
001402  ERN_F0290_NSCR_1990-06-26_2_OF_3_B-ROLL_DALE_EARNHARDT_WORKING_ON_FARM_W_EXCAVATOR_SE005920_S001                                  A22   C        00:05:35:04 00:05:36:12 00:29:00:11 00:29:01:17 
M2      ERN_F0290_NSCR_1990-06-26_2_OF_3_B-ROLL_DALE_EARNHARDT_WORKING_ON_FARM_W_EXCAVATOR_SE005920_S001                                           030.0 00:05:35:04 
*FROM CLIP NAME:  ERN_F0290_NSCR_1990-06-26_2 OF 3 B-ROLL DALE EARNHARDT WORKING ON FARM W EXCAVATOR_SE005920_S001.NEW.01 
*SOURCE FILE: ERN_F0290_NSCR_1990-06-26_2 OF 3 B-ROLL DALE EARNHARDT WORKING ON FARM W EXCAVATOR_SE005920_S001
001403  ERN_F0488_NSCR_1990-04-04_1_OF_3_CAM_A_INTV_DALE_EARNHARDT_FISHING_TOPICS_-_WORKING_ON_PROPERTY_&_HEROES_&_KIDS_SE005925_S005     A18   C        00:08:58:28 00:09:00:17 00:29:00:12 00:29:02:01 
M2      ERN_F0488_NSCR_1990-04-04_1_OF_3_CAM_A_INTV_DALE_EARNHARDT_FISHING_TOPICS_-_WORKING_ON_PROPERTY_&_HEROES_&_KIDS_SE005925_S005              030.0 00:08:58:28 
*FROM CLIP NAME:  ERN_F0488_NSCR_1990-04-04_1 OF 3 CAM A INTV DALE EARNHARDT FISHING TOPICS - WORKING ON PROPERTY & HEROES & KIDS_SE005925_S005.NEW.01 
*SOURCE FILE: ERN_F0488_NSCR_1990-04-04_1 OF 3 CAM A INTV DALE EARNHARDT FISHING TOPICS - WORKING ON PROPERTY & HEROES & KIDS_SE005925_S005
001404  ERN_F0290_NSCR_1990-06-26_2_OF_3_B-ROLL_DALE_EARNHARDT_WORKING_ON_FARM_W_EXCAVATOR_SE005920_S001                                  A22   C        00:05:41:14 00:05:42:29 00:29:01:17 00:29:03:05 
M2      ERN_F0290_NSCR_1990-06-26_2_OF_3_B-ROLL_DALE_EARNHARDT_WORKING_ON_FARM_W_EXCAVATOR_SE005920_S001                                           030.0 00:05:41:14 
*FROM CLIP NAME:  ERN_F0290_NSCR_1990-06-26_2 OF 3 B-ROLL DALE EARNHARDT WORKING ON FARM W EXCAVATOR_SE005920_S001.NEW.01 
*TO CLIP NAME:  ERN_F0290_NSCR_1990-06-26_2 OF 3 B-ROLL DALE EARNHARDT WORKING ON FARM W EXCAVATOR_SE005920_S001.NEW.01 
*SOURCE FILE: ERN_F0290_NSCR_1990-06-26_2 OF 3 B-ROLL DALE EARNHARDT WORKING ON FARM W EXCAVATOR_SE005920_S001
001405  ERN_F0290_NSCR_1990-06-26_2_OF_3_B-ROLL_DALE_EARNHARDT_WORKING_ON_FARM_W_EXCAVATOR_SE005920_S001                                  V     C        00:04:16:03 00:04:19:25 00:29:02:05 00:29:05:22 
M2      ERN_F0290_NSCR_1990-06-26_2_OF_3_B-ROLL_DALE_EARNHARDT_WORKING_ON_FARM_W_EXCAVATOR_SE005920_S001                                           030.0 00:04:16:03 
*FROM CLIP NAME:  ERN_F0290_NSCR_1990-06-26_2 OF 3 B-ROLL DALE EARNHARDT WORKING ON FARM W EXCAVATOR_SE005920_S001.NEW.01 
*SOURCE FILE: ERN_F0290_NSCR_1990-06-26_2 OF 3 B-ROLL DALE EARNHARDT WORKING ON FARM W EXCAVATOR_SE005920_S001
001406  ERN_F0290_NSCR_1990-06-26_2_OF_3_B-ROLL_DALE_EARNHARDT_WORKING_ON_FARM_W_EXCAVATOR_SE005920_S001                                  A22   C        00:05:42:29 00:05:44:18 00:29:03:05 00:29:04:20 
M2      ERN_F0290_NSCR_1990-06-26_2_OF_3_B-ROLL_DALE_EARNHARDT_WORKING_ON_FARM_W_EXCAVATOR_SE005920_S001                                           030.0 00:05:42:29 
*FROM CLIP NAME:  ERN_F0290_NSCR_1990-06-26_2 OF 3 B-ROLL DALE EARNHARDT WORKING ON FARM W EXCAVATOR_SE005920_S001.NEW.01 
*SOURCE FILE: ERN_F0290_NSCR_1990-06-26_2 OF 3 B-ROLL DALE EARNHARDT WORKING ON FARM W EXCAVATOR_SE005920_S001
001407  ERN_F1028_NSCR_1992-09-02_FARM_INTV_B-ROLL_DESR_W_NEIL_BONNETT_ON_BOAT_30_EARNHARDT_3                                             A18   C        00:14:53:27 00:14:54:00 00:29:03:21 00:29:03:23 
M2      ERN_F1028_NSCR_1992-09-02_FARM_INTV_B-ROLL_DESR_W_NEIL_BONNETT_ON_BOAT_30_EARNHARDT_3                                                      030.0 00:14:53:27 
*FROM CLIP NAME:  ERN_F1028_NSCR_1992-09-02_FARM INTV B-ROLL DESR W NEIL BONNETT ON BOAT_30_EARNHARDT 3.NEW.01 
*SOURCE FILE: ERN_F1028_NSCR_1992-09-02_FARM INTV B-ROLL DESR W NEIL BONNETT ON BOAT_30_EARNHARDT 3
001408  ERN_F1028_NSCR_1992-09-02_FARM_INTV_B-ROLL_DESR_W_NEIL_BONNETT_ON_BOAT_30_EARNHARDT_3                                             A18   C        00:14:54:00 00:14:54:09 00:29:03:23 00:29:04:06 
M2      ERN_F1028_NSCR_1992-09-02_FARM_INTV_B-ROLL_DESR_W_NEIL_BONNETT_ON_BOAT_30_EARNHARDT_3                                                      030.0 00:14:54:00 
*FROM CLIP NAME:  ERN_F1028_NSCR_1992-09-02_FARM INTV B-ROLL DESR W NEIL BONNETT ON BOAT_30_EARNHARDT 3.NEW.01 
*SOURCE FILE: ERN_F1028_NSCR_1992-09-02_FARM INTV B-ROLL DESR W NEIL BONNETT ON BOAT_30_EARNHARDT 3
001409  ERN_F1028_NSCR_1992-09-02_FARM_INTV_B-ROLL_DESR_W_NEIL_BONNETT_ON_BOAT_30_EARNHARDT_3                                             A18   C        00:14:55:15 00:14:57:14 00:29:04:06 00:29:06:05 
M2      ERN_F1028_NSCR_1992-09-02_FARM_INTV_B-ROLL_DESR_W_NEIL_BONNETT_ON_BOAT_30_EARNHARDT_3                                                      030.0 00:14:55:15 
*FROM CLIP NAME:  ERN_F1028_NSCR_1992-09-02_FARM INTV B-ROLL DESR W NEIL BONNETT ON BOAT_30_EARNHARDT 3.NEW.01 
*SOURCE FILE: ERN_F1028_NSCR_1992-09-02_FARM INTV B-ROLL DESR W NEIL BONNETT ON BOAT_30_EARNHARDT 3
001410  ERN_F0289_NSCR_1990-06-26_1_OF_3_B-ROLL_DALE_EARNHARDT_WORKING_ON_FARM_SE005919_S002                                              A20   C        00:01:45:22 00:01:46:23 00:29:05:05 00:29:06:05 
M2      ERN_F0289_NSCR_1990-06-26_1_OF_3_B-ROLL_DALE_EARNHARDT_WORKING_ON_FARM_SE005919_S002                                                       030.0 00:01:45:22 
*FROM CLIP NAME:  ERN_F0289_NSCR_1990-06-26_1 OF 3 B-ROLL DALE EARNHARDT WORKING ON FARM_SE005919_S002.NEW.01 
*SOURCE FILE: ERN_F0289_NSCR_1990-06-26_1 OF 3 B-ROLL DALE EARNHARDT WORKING ON FARM_SE005919_S002
001411  ERN_F0289_NSCR_1990-06-26_1_OF_3_B-ROLL_DALE_EARNHARDT_WORKING_ON_FARM_SE005919_S002                                              V     C        00:01:46:07 00:01:50:14 00:29:05:22 00:29:10:03 
M2      ERN_F0289_NSCR_1990-06-26_1_OF_3_B-ROLL_DALE_EARNHARDT_WORKING_ON_FARM_SE005919_S002                                                       030.0 00:01:46:07 
*FROM CLIP NAME:  ERN_F0289_NSCR_1990-06-26_1 OF 3 B-ROLL DALE EARNHARDT WORKING ON FARM_SE005919_S002.NEW.01 
*SOURCE FILE: ERN_F0289_NSCR_1990-06-26_1 OF 3 B-ROLL DALE EARNHARDT WORKING ON FARM_SE005919_S002
001412  ERN_F1028_NSCR_1992-09-02_FARM_INTV_B-ROLL_DESR_W_NEIL_BONNETT_ON_BOAT_30_EARNHARDT_3                                             A18   C        00:15:18:25 00:15:19:01 00:29:06:05 00:29:06:09 
M2      ERN_F1028_NSCR_1992-09-02_FARM_INTV_B-ROLL_DESR_W_NEIL_BONNETT_ON_BOAT_30_EARNHARDT_3                                                      030.0 00:15:18:25 
*FROM CLIP NAME:  ERN_F1028_NSCR_1992-09-02_FARM INTV B-ROLL DESR W NEIL BONNETT ON BOAT_30_EARNHARDT 3.NEW.01 
*TO CLIP NAME:  ERN_F1028_NSCR_1992-09-02_FARM INTV B-ROLL DESR W NEIL BONNETT ON BOAT_30_EARNHARDT 3.NEW.01 
*SOURCE FILE: ERN_F1028_NSCR_1992-09-02_FARM INTV B-ROLL DESR W NEIL BONNETT ON BOAT_30_EARNHARDT 3
001413  ERN_F0289_NSCR_1990-06-26_1_OF_3_B-ROLL_DALE_EARNHARDT_WORKING_ON_FARM_SE005919_S002                                              A20   C        00:01:46:22 00:01:48:28 00:29:06:05 00:29:08:09 
M2      ERN_F0289_NSCR_1990-06-26_1_OF_3_B-ROLL_DALE_EARNHARDT_WORKING_ON_FARM_SE005919_S002                                                       030.0 00:01:46:22 
*FROM CLIP NAME:  ERN_F0289_NSCR_1990-06-26_1 OF 3 B-ROLL DALE EARNHARDT WORKING ON FARM_SE005919_S002.NEW.01 
*SOURCE FILE: ERN_F0289_NSCR_1990-06-26_1 OF 3 B-ROLL DALE EARNHARDT WORKING ON FARM_SE005919_S002
001414  ERN_F1028_NSCR_1992-09-02_FARM_INTV_B-ROLL_DESR_W_NEIL_BONNETT_ON_BOAT_30_EARNHARDT_3                                             A18   C        00:15:19:00 00:15:20:05 00:29:06:09 00:29:07:12 
M2      ERN_F1028_NSCR_1992-09-02_FARM_INTV_B-ROLL_DESR_W_NEIL_BONNETT_ON_BOAT_30_EARNHARDT_3                                                      030.0 00:15:19:00 
*FROM CLIP NAME:  ERN_F1028_NSCR_1992-09-02_FARM INTV B-ROLL DESR W NEIL BONNETT ON BOAT_30_EARNHARDT 3.NEW.01 
*SOURCE FILE: ERN_F1028_NSCR_1992-09-02_FARM INTV B-ROLL DESR W NEIL BONNETT ON BOAT_30_EARNHARDT 3
001415  ERN_F0289_NSCR_1990-06-26_1_OF_3_B-ROLL_DALE_EARNHARDT_WORKING_ON_FARM_SE005919_S002                                              A18   C        00:02:48:10 00:02:49:01 00:29:08:04 00:29:08:20 
M2      ERN_F0289_NSCR_1990-06-26_1_OF_3_B-ROLL_DALE_EARNHARDT_WORKING_ON_FARM_SE005919_S002                                                       030.0 00:02:48:10 
*FROM CLIP NAME:  ERN_F0289_NSCR_1990-06-26_1 OF 3 B-ROLL DALE EARNHARDT WORKING ON FARM_SE005919_S002.NEW.01 
*SOURCE FILE: ERN_F0289_NSCR_1990-06-26_1 OF 3 B-ROLL DALE EARNHARDT WORKING ON FARM_SE005919_S002
001416  ERN_F0289_NSCR_1990-06-26_1_OF_3_B-ROLL_DALE_EARNHARDT_WORKING_ON_FARM_SE005919_S002                                              A18   C        00:02:49:00 00:02:49:21 00:29:08:20 00:29:09:12 
M2      ERN_F0289_NSCR_1990-06-26_1_OF_3_B-ROLL_DALE_EARNHARDT_WORKING_ON_FARM_SE005919_S002                                                       030.0 00:02:49:00 
*FROM CLIP NAME:  ERN_F0289_NSCR_1990-06-26_1 OF 3 B-ROLL DALE EARNHARDT WORKING ON FARM_SE005919_S002.NEW.01 
*SOURCE FILE: ERN_F0289_NSCR_1990-06-26_1 OF 3 B-ROLL DALE EARNHARDT WORKING ON FARM_SE005919_S002
001417  ERN_F0289_NSCR_1990-06-26_1_OF_3_B-ROLL_DALE_EARNHARDT_WORKING_ON_FARM_SE005919_S002                                              A18   C        00:02:24:27 00:02:25:12 00:29:09:12 00:29:10:00 
M2      ERN_F0289_NSCR_1990-06-26_1_OF_3_B-ROLL_DALE_EARNHARDT_WORKING_ON_FARM_SE005919_S002                                                       030.0 00:02:24:27 
*FROM CLIP NAME:  ERN_F0289_NSCR_1990-06-26_1 OF 3 B-ROLL DALE EARNHARDT WORKING ON FARM_SE005919_S002.NEW.01 
*TO CLIP NAME:  ERN_F0289_NSCR_1990-06-26_1 OF 3 B-ROLL DALE EARNHARDT WORKING ON FARM_SE005919_S002.NEW.01 
*SOURCE FILE: ERN_F0289_NSCR_1990-06-26_1 OF 3 B-ROLL DALE EARNHARDT WORKING ON FARM_SE005919_S002
001418  ERN_F0289_NSCR_1990-06-26_1_OF_3_B-ROLL_DALE_EARNHARDT_WORKING_ON_FARM_SE005919_S002                                              A18   C        00:02:25:12 00:02:27:07 00:29:10:00 00:29:11:20 
M2      ERN_F0289_NSCR_1990-06-26_1_OF_3_B-ROLL_DALE_EARNHARDT_WORKING_ON_FARM_SE005919_S002                                                       030.0 00:02:25:12 
*FROM CLIP NAME:  ERN_F0289_NSCR_1990-06-26_1 OF 3 B-ROLL DALE EARNHARDT WORKING ON FARM_SE005919_S002.NEW.01 
*SOURCE FILE: ERN_F0289_NSCR_1990-06-26_1 OF 3 B-ROLL DALE EARNHARDT WORKING ON FARM_SE005919_S002
001419  ERN_F0289_NSCR_1990-06-26_1_OF_3_B-ROLL_DALE_EARNHARDT_WORKING_ON_FARM_SE005919_S002                                              V     C        00:02:25:04 00:02:27:25 00:29:10:03 00:29:12:19 
M2      ERN_F0289_NSCR_1990-06-26_1_OF_3_B-ROLL_DALE_EARNHARDT_WORKING_ON_FARM_SE005919_S002                                                       030.0 00:02:25:04 
*FROM CLIP NAME:  ERN_F0289_NSCR_1990-06-26_1 OF 3 B-ROLL DALE EARNHARDT WORKING ON FARM_SE005919_S002.NEW.01 
*SOURCE FILE: ERN_F0289_NSCR_1990-06-26_1 OF 3 B-ROLL DALE EARNHARDT WORKING ON FARM_SE005919_S002
001420  ERN_F0291_NSCR_1990-06-26_3_OF_3_B-ROLL_DALE_EARNHARDT_ON_FARM_SE005920_S002                                                      A20   C        00:30:22:11 00:30:25:11 00:29:11:02 00:29:14:02 
M2      ERN_F0291_NSCR_1990-06-26_3_OF_3_B-ROLL_DALE_EARNHARDT_ON_FARM_SE005920_S002                                                               030.0 00:30:22:11 
*FROM CLIP NAME:  ERN_F0291_NSCR_1990-06-26_3 OF 3 B-ROLL DALE EARNHARDT ON FARM_SE005920_S002.NEW.01 
*SOURCE FILE: ERN_F0291_NSCR_1990-06-26_3 OF 3 B-ROLL DALE EARNHARDT ON FARM_SE005920_S002
001421  ERN_F0289_NSCR_1990-06-26_1_OF_3_B-ROLL_DALE_EARNHARDT_WORKING_ON_FARM_SE005919_S002                                              V     C        00:27:32:14 00:27:36:22 00:29:12:19 00:29:17:01 
M2      ERN_F0289_NSCR_1990-06-26_1_OF_3_B-ROLL_DALE_EARNHARDT_WORKING_ON_FARM_SE005919_S002                                                       030.0 00:27:32:14 
*FROM CLIP NAME:  ERN_F0289_NSCR_1990-06-26_1 OF 3 B-ROLL DALE EARNHARDT WORKING ON FARM_SE005919_S002.NEW.01 
*SOURCE FILE: ERN_F0289_NSCR_1990-06-26_1 OF 3 B-ROLL DALE EARNHARDT WORKING ON FARM_SE005919_S002
001422  ERN_F0291_NSCR_1990-06-26_3_OF_3_B-ROLL_DALE_EARNHARDT_ON_FARM_SE005920_S002                                                      A20   C        00:30:25:11 00:30:26:25 00:29:14:02 00:29:15:13 
M2      ERN_F0291_NSCR_1990-06-26_3_OF_3_B-ROLL_DALE_EARNHARDT_ON_FARM_SE005920_S002                                                               030.0 00:30:25:11 
*FROM CLIP NAME:  ERN_F0291_NSCR_1990-06-26_3 OF 3 B-ROLL DALE EARNHARDT ON FARM_SE005920_S002.NEW.01 
*SOURCE FILE: ERN_F0291_NSCR_1990-06-26_3 OF 3 B-ROLL DALE EARNHARDT ON FARM_SE005920_S002
001423  ERN_F1032_NSCR_1992-09-02_PART_3_OF_3_FARM_INTV_DESR_W_NEIL_BONNETT_IN_GARAGE_&_DEER_MOMENT_34_EARNHARDT_7                        V     C        00:13:02:23 00:13:07:21 00:29:17:01 00:29:21:03 
M2      ERN_F1032_NSCR_1992-09-02_PART_3_OF_3_FARM_INTV_DESR_W_NEIL_BONNETT_IN_GARAGE_&_DEER_MOMENT_34_EARNHARDT_7                                 036.0 00:13:02:23 
*FROM CLIP NAME:  ERN_F1032_NSCR_1992-09-02_PART 3 OF 3 FARM INTV DESR W NEIL BONNETT IN GARAGE & DEER MOMENT_34_EARNHARDT 7.NEW.01.COPY.01 
*SOURCE FILE: ERN_F1032_NSCR_1992-09-02_PART 3 OF 3 FARM INTV DESR W NEIL BONNETT IN GARAGE & DEER MOMENT_34_EARNHARDT 7
001424  ERN_S2982_DEJR_1997_DEJR_GARGOYLES_31_LATE_MODEL_NO31_CAR_IN_GARAGE_0003.JPG                                                      V     C        01:00:08:17 01:00:13:20 00:29:23:20 00:29:28:23 
*FROM CLIP NAME:  ERN_S2982_DEJR_1997_DEJR GARGOYLES 31 LATE MODEL NO31 CAR IN GARAGE_0003.JPG 
*SOURCE FILE: ERN_S2982_DEJR_1997_DEJR GARGOYLES 31 LATE MODEL NO31 CAR IN GARAGE_0003.JPG
001425  ERN_F2019_NSCR_1990-07-19_B-ROLL_DESR_PUTTING_BULL_IN_TRAILER_SE005930_S002                                                       A18   C        00:24:52:05 00:24:53:06 00:29:30:00 00:29:31:00 
M2      ERN_F2019_NSCR_1990-07-19_B-ROLL_DESR_PUTTING_BULL_IN_TRAILER_SE005930_S002                                                                030.0 00:24:52:05 
*FROM CLIP NAME:  ERN_F2019_NSCR_1990-07-19_B-ROLL DESR PUTTING BULL IN TRAILER_SE005930_S002.NEW.01 
*SOURCE FILE: ERN_F2019_NSCR_1990-07-19_B-ROLL DESR PUTTING BULL IN TRAILER_SE005930_S002
001426  ERN_F2019_NSCR_1990-07-19_B-ROLL_DESR_PUTTING_BULL_IN_TRAILER_SE005930_S002                                                       A20   C        00:22:51:09 00:22:52:10 00:29:30:05 00:29:31:05 
M2      ERN_F2019_NSCR_1990-07-19_B-ROLL_DESR_PUTTING_BULL_IN_TRAILER_SE005930_S002                                                                030.0 00:22:51:09 
*FROM CLIP NAME:  ERN_F2019_NSCR_1990-07-19_B-ROLL DESR PUTTING BULL IN TRAILER_SE005930_S002.NEW.01 
*SOURCE FILE: ERN_F2019_NSCR_1990-07-19_B-ROLL DESR PUTTING BULL IN TRAILER_SE005930_S002
001427  ERN_F2019_NSCR_1990-07-19_B-ROLL_DESR_PUTTING_BULL_IN_TRAILER_SE005930_S002                                                       V     C        00:22:51:20 00:22:54:10 00:29:30:14 00:29:33:05 
M2      ERN_F2019_NSCR_1990-07-19_B-ROLL_DESR_PUTTING_BULL_IN_TRAILER_SE005930_S002                                                                030.0 00:22:51:20 
*FROM CLIP NAME:  ERN_F2019_NSCR_1990-07-19_B-ROLL DESR PUTTING BULL IN TRAILER_SE005930_S002.NEW.01 
*SOURCE FILE: ERN_F2019_NSCR_1990-07-19_B-ROLL DESR PUTTING BULL IN TRAILER_SE005930_S002
001428  ERN_F2019_NSCR_1990-07-19_B-ROLL_DESR_PUTTING_BULL_IN_TRAILER_SE005930_S002                                                       A18   C        00:24:53:05 00:24:55:29 00:29:31:00 00:29:33:18 
M2      ERN_F2019_NSCR_1990-07-19_B-ROLL_DESR_PUTTING_BULL_IN_TRAILER_SE005930_S002                                                                030.0 00:24:53:05 
*FROM CLIP NAME:  ERN_F2019_NSCR_1990-07-19_B-ROLL DESR PUTTING BULL IN TRAILER_SE005930_S002.NEW.01 
*SOURCE FILE: ERN_F2019_NSCR_1990-07-19_B-ROLL DESR PUTTING BULL IN TRAILER_SE005930_S002
001429  ERN_F2019_NSCR_1990-07-19_B-ROLL_DESR_PUTTING_BULL_IN_TRAILER_SE005930_S002                                                       A20   C        00:22:52:09 00:22:53:15 00:29:31:05 00:29:32:09 
M2      ERN_F2019_NSCR_1990-07-19_B-ROLL_DESR_PUTTING_BULL_IN_TRAILER_SE005930_S002                                                                030.0 00:22:52:09 
*FROM CLIP NAME:  ERN_F2019_NSCR_1990-07-19_B-ROLL DESR PUTTING BULL IN TRAILER_SE005930_S002.NEW.01 
*SOURCE FILE: ERN_F2019_NSCR_1990-07-19_B-ROLL DESR PUTTING BULL IN TRAILER_SE005930_S002
001430  ERN_F2019_NSCR_1990-07-19_B-ROLL_DESR_PUTTING_BULL_IN_TRAILER_SE005930_S002                                                       V     C        00:24:56:27 00:25:02:01 00:29:33:05 00:29:38:06 
M2      ERN_F2019_NSCR_1990-07-19_B-ROLL_DESR_PUTTING_BULL_IN_TRAILER_SE005930_S002                                                                030.0 00:24:56:27 
*FROM CLIP NAME:  ERN_F2019_NSCR_1990-07-19_B-ROLL DESR PUTTING BULL IN TRAILER_SE005930_S002.NEW.01 
*SOURCE FILE: ERN_F2019_NSCR_1990-07-19_B-ROLL DESR PUTTING BULL IN TRAILER_SE005930_S002
001431  ERN_F2019_NSCR_1990-07-19_B-ROLL_DESR_PUTTING_BULL_IN_TRAILER_SE005930_S002                                                       A18   C        00:24:57:05 00:24:58:06 00:29:33:18 00:29:34:18 
M2      ERN_F2019_NSCR_1990-07-19_B-ROLL_DESR_PUTTING_BULL_IN_TRAILER_SE005930_S002                                                                030.0 00:24:57:05 
*FROM CLIP NAME:  ERN_F2019_NSCR_1990-07-19_B-ROLL DESR PUTTING BULL IN TRAILER_SE005930_S002.NEW.01 
*TO CLIP NAME:  ERN_F2019_NSCR_1990-07-19_B-ROLL DESR PUTTING BULL IN TRAILER_SE005930_S002.NEW.01 
*SOURCE FILE: ERN_F2019_NSCR_1990-07-19_B-ROLL DESR PUTTING BULL IN TRAILER_SE005930_S002
001432  ERN_F2019_NSCR_1990-07-19_B-ROLL_DESR_PUTTING_BULL_IN_TRAILER_SE005930_S002                                                       A18   C        00:24:58:05 00:24:58:29 00:29:34:18 00:29:35:12 
M2      ERN_F2019_NSCR_1990-07-19_B-ROLL_DESR_PUTTING_BULL_IN_TRAILER_SE005930_S002                                                                030.0 00:24:58:05 
*FROM CLIP NAME:  ERN_F2019_NSCR_1990-07-19_B-ROLL DESR PUTTING BULL IN TRAILER_SE005930_S002.NEW.01 
*SOURCE FILE: ERN_F2019_NSCR_1990-07-19_B-ROLL DESR PUTTING BULL IN TRAILER_SE005930_S002
001433  ERN_F1033_NSCR_1992-09-02_FARM_B-ROLL_DESR_WORKING_ON_FARM_W_NEIL_BONNETT_36_EARNHARDT_FARM                                       A20   C        09:32:08:28 09:32:10:28 00:29:36:00 00:29:38:00 
M2      ERN_F1033_NSCR_1992-09-02_FARM_B-ROLL_DESR_WORKING_ON_FARM_W_NEIL_BONNETT_36_EARNHARDT_FARM                                                030.0 09:32:08:28 
*FROM CLIP NAME:  ERN_F1033_NSCR_1992-09-02_FARM B-ROLL DESR WORKING ON FARM W NEIL BONNETT_36_EARNHARDT FARM.NEW.01 
*SOURCE FILE: ERN_F1033_NSCR_1992-09-02_FARM B-ROLL DESR WORKING ON FARM W NEIL BONNETT_36_EARNHARDT FARM
001434  ERN_F1033_NSCR_1992-09-02_FARM_B-ROLL_DESR_WORKING_ON_FARM_W_NEIL_BONNETT_36_EARNHARDT_FARM                                       A20   C        09:32:10:28 09:32:12:27 00:29:38:00 00:29:39:23 
M2      ERN_F1033_NSCR_1992-09-02_FARM_B-ROLL_DESR_WORKING_ON_FARM_W_NEIL_BONNETT_36_EARNHARDT_FARM                                                030.0 09:32:10:28 
*FROM CLIP NAME:  ERN_F1033_NSCR_1992-09-02_FARM B-ROLL DESR WORKING ON FARM W NEIL BONNETT_36_EARNHARDT FARM.NEW.01 
*SOURCE FILE: ERN_F1033_NSCR_1992-09-02_FARM B-ROLL DESR WORKING ON FARM W NEIL BONNETT_36_EARNHARDT FARM
001435  ERN_F1033_NSCR_1992-09-02_FARM_B-ROLL_DESR_WORKING_ON_FARM_W_NEIL_BONNETT_36_EARNHARDT_FARM                                       V     C        09:32:11:05 09:32:20:12 00:29:38:06 00:29:47:11 
M2      ERN_F1033_NSCR_1992-09-02_FARM_B-ROLL_DESR_WORKING_ON_FARM_W_NEIL_BONNETT_36_EARNHARDT_FARM                                                030.0 09:32:11:05 
*FROM CLIP NAME:  ERN_F1033_NSCR_1992-09-02_FARM B-ROLL DESR WORKING ON FARM W NEIL BONNETT_36_EARNHARDT FARM.NEW.01 
*SOURCE FILE: ERN_F1033_NSCR_1992-09-02_FARM B-ROLL DESR WORKING ON FARM W NEIL BONNETT_36_EARNHARDT FARM
001436  ERN_F1033_NSCR_1992-09-02_FARM_B-ROLL_DESR_WORKING_ON_FARM_W_NEIL_BONNETT_36_EARNHARDT_FARM                                       A20   C        09:31:57:08 09:31:57:24 00:29:39:23 00:29:40:11 
M2      ERN_F1033_NSCR_1992-09-02_FARM_B-ROLL_DESR_WORKING_ON_FARM_W_NEIL_BONNETT_36_EARNHARDT_FARM                                                030.0 09:31:57:08 
*FROM CLIP NAME:  ERN_F1033_NSCR_1992-09-02_FARM B-ROLL DESR WORKING ON FARM W NEIL BONNETT_36_EARNHARDT FARM.NEW.01 
*TO CLIP NAME:  ERN_F1033_NSCR_1992-09-02_FARM B-ROLL DESR WORKING ON FARM W NEIL BONNETT_36_EARNHARDT FARM.NEW.01 
*SOURCE FILE: ERN_F1033_NSCR_1992-09-02_FARM B-ROLL DESR WORKING ON FARM W NEIL BONNETT_36_EARNHARDT FARM
001437  ERN_F1033_NSCR_1992-09-02_FARM_B-ROLL_DESR_WORKING_ON_FARM_W_NEIL_BONNETT_36_EARNHARDT_FARM                                       A20   C        09:31:57:23 09:31:59:26 00:29:40:11 00:29:42:13 
M2      ERN_F1033_NSCR_1992-09-02_FARM_B-ROLL_DESR_WORKING_ON_FARM_W_NEIL_BONNETT_36_EARNHARDT_FARM                                                030.0 09:31:57:23 
*FROM CLIP NAME:  ERN_F1033_NSCR_1992-09-02_FARM B-ROLL DESR WORKING ON FARM W NEIL BONNETT_36_EARNHARDT FARM.NEW.01 
*SOURCE FILE: ERN_F1033_NSCR_1992-09-02_FARM B-ROLL DESR WORKING ON FARM W NEIL BONNETT_36_EARNHARDT FARM
001438  ERN_F0970_NSCR_1989-10-02_RAW_INTV_DESR_W_NED_JARRETT_&_JODY_DAVIS_SE005806                                                       A18   C        00:16:42:18 00:16:42:22 00:29:44:06 00:29:44:09 
M2      ERN_F0970_NSCR_1989-10-02_RAW_INTV_DESR_W_NED_JARRETT_&_JODY_DAVIS_SE005806                                                                030.0 00:16:42:18 
*FROM CLIP NAME:  ERN_F0970_NSCR_1989-10-02_RAW INTV DESR W NED JARRETT & JODY DAVIS_SE005806.NEW.01 
*SOURCE FILE: ERN_F0970_NSCR_1989-10-02_RAW INTV DESR W NED JARRETT & JODY DAVIS_SE005806
001439  ERN_F0970_NSCR_1989-10-02_RAW_INTV_DESR_W_NED_JARRETT_&_JODY_DAVIS_SE005806                                                       A18   C        00:16:42:21 00:16:44:01 00:29:44:09 00:29:45:16 
M2      ERN_F0970_NSCR_1989-10-02_RAW_INTV_DESR_W_NED_JARRETT_&_JODY_DAVIS_SE005806                                                                030.0 00:16:42:21 
*FROM CLIP NAME:  ERN_F0970_NSCR_1989-10-02_RAW INTV DESR W NED JARRETT & JODY DAVIS_SE005806.NEW.01 
*SOURCE FILE: ERN_F0970_NSCR_1989-10-02_RAW INTV DESR W NED JARRETT & JODY DAVIS_SE005806
001440  ERN_F0970_NSCR_1989-10-02_RAW_INTV_DESR_W_NED_JARRETT_&_JODY_DAVIS_SE005806                                                       A18   C        00:16:44:15 00:16:45:25 00:29:45:16 00:29:46:23 
M2      ERN_F0970_NSCR_1989-10-02_RAW_INTV_DESR_W_NED_JARRETT_&_JODY_DAVIS_SE005806                                                                030.0 00:16:44:15 
*FROM CLIP NAME:  ERN_F0970_NSCR_1989-10-02_RAW INTV DESR W NED JARRETT & JODY DAVIS_SE005806.NEW.01 
*SOURCE FILE: ERN_F0970_NSCR_1989-10-02_RAW INTV DESR W NED JARRETT & JODY DAVIS_SE005806
001441  ERN_F0244_NSCR_1990-00-00_2_OF_2_B-ROLL_DALE_EARNHARDT_ON_FARM_SE005536_S002                                                      A20   C        00:16:39:07 00:16:40:23 00:29:46:14 00:29:48:02 
M2      ERN_F0244_NSCR_1990-00-00_2_OF_2_B-ROLL_DALE_EARNHARDT_ON_FARM_SE005536_S002                                                               030.0 00:16:39:07 
*FROM CLIP NAME:  ERN_F0244_NSCR_1990-00-00_2 OF 2 B-ROLL DALE EARNHARDT ON FARM_SE005536_S002.NEW.01 
*SOURCE FILE: ERN_F0244_NSCR_1990-00-00_2 OF 2 B-ROLL DALE EARNHARDT ON FARM_SE005536_S002
001442  ERN_F0244_NSCR_1990-00-00_2_OF_2_B-ROLL_DALE_EARNHARDT_ON_FARM_SE005536_S002                                                      V     C        00:16:40:03 00:16:46:24 00:29:47:11 00:29:54:03 
M2      ERN_F0244_NSCR_1990-00-00_2_OF_2_B-ROLL_DALE_EARNHARDT_ON_FARM_SE005536_S002                                                               030.0 00:16:40:03 
*FROM CLIP NAME:  ERN_F0244_NSCR_1990-00-00_2 OF 2 B-ROLL DALE EARNHARDT ON FARM_SE005536_S002.NEW.01 
*SOURCE FILE: ERN_F0244_NSCR_1990-00-00_2 OF 2 B-ROLL DALE EARNHARDT ON FARM_SE005536_S002
001443  ERN_F0244_NSCR_1990-00-00_2_OF_2_B-ROLL_DALE_EARNHARDT_ON_FARM_SE005536_S002                                                      A20   C        00:16:40:22 00:16:46:09 00:29:48:02 00:29:53:15 
M2      ERN_F0244_NSCR_1990-00-00_2_OF_2_B-ROLL_DALE_EARNHARDT_ON_FARM_SE005536_S002                                                               030.0 00:16:40:22 
*FROM CLIP NAME:  ERN_F0244_NSCR_1990-00-00_2 OF 2 B-ROLL DALE EARNHARDT ON FARM_SE005536_S002.NEW.01 
*SOURCE FILE: ERN_F0244_NSCR_1990-00-00_2 OF 2 B-ROLL DALE EARNHARDT ON FARM_SE005536_S002
001444  ERN_F0970_NSCR_1989-10-02_RAW_INTV_DESR_W_NED_JARRETT_&_JODY_DAVIS_SE005806                                                       A18   C        00:25:58:14 00:25:58:18 00:29:48:21 00:29:49:00 
M2      ERN_F0970_NSCR_1989-10-02_RAW_INTV_DESR_W_NED_JARRETT_&_JODY_DAVIS_SE005806                                                                030.0 00:25:58:14 
*FROM CLIP NAME:  ERN_F0970_NSCR_1989-10-02_RAW INTV DESR W NED JARRETT & JODY DAVIS_SE005806.NEW.01 
*SOURCE FILE: ERN_F0970_NSCR_1989-10-02_RAW INTV DESR W NED JARRETT & JODY DAVIS_SE005806
001445  ERN_F0970_NSCR_1989-10-02_RAW_INTV_DESR_W_NED_JARRETT_&_JODY_DAVIS_SE005806                                                       A18   C        00:25:58:17 00:25:58:27 00:29:49:00 00:29:49:07 
M2      ERN_F0970_NSCR_1989-10-02_RAW_INTV_DESR_W_NED_JARRETT_&_JODY_DAVIS_SE005806                                                                030.0 00:25:58:17 
*FROM CLIP NAME:  ERN_F0970_NSCR_1989-10-02_RAW INTV DESR W NED JARRETT & JODY DAVIS_SE005806.NEW.01 
*SOURCE FILE: ERN_F0970_NSCR_1989-10-02_RAW INTV DESR W NED JARRETT & JODY DAVIS_SE005806
001446  ERN_F0970_NSCR_1989-10-02_RAW_INTV_DESR_W_NED_JARRETT_&_JODY_DAVIS_SE005806                                                       A18   C        00:26:08:03 00:26:08:05 00:29:49:07 00:29:49:08 
M2      ERN_F0970_NSCR_1989-10-02_RAW_INTV_DESR_W_NED_JARRETT_&_JODY_DAVIS_SE005806                                                                030.0 00:26:08:03 
*FROM CLIP NAME:  ERN_F0970_NSCR_1989-10-02_RAW INTV DESR W NED JARRETT & JODY DAVIS_SE005806.NEW.01 
*TO CLIP NAME:  ERN_F0970_NSCR_1989-10-02_RAW INTV DESR W NED JARRETT & JODY DAVIS_SE005806.NEW.01 
*SOURCE FILE: ERN_F0970_NSCR_1989-10-02_RAW INTV DESR W NED JARRETT & JODY DAVIS_SE005806
001447  ERN_F0970_NSCR_1989-10-02_RAW_INTV_DESR_W_NED_JARRETT_&_JODY_DAVIS_SE005806                                                       A18   C        00:26:08:04 00:26:09:16 00:29:49:08 00:29:50:17 
M2      ERN_F0970_NSCR_1989-10-02_RAW_INTV_DESR_W_NED_JARRETT_&_JODY_DAVIS_SE005806                                                                030.0 00:26:08:04 
*FROM CLIP NAME:  ERN_F0970_NSCR_1989-10-02_RAW INTV DESR W NED JARRETT & JODY DAVIS_SE005806.NEW.01 
*SOURCE FILE: ERN_F0970_NSCR_1989-10-02_RAW INTV DESR W NED JARRETT & JODY DAVIS_SE005806
001448  ERN_F0970_NSCR_1989-10-02_RAW_INTV_DESR_W_NED_JARRETT_&_JODY_DAVIS_SE005806                                                       A18   C        00:19:06:07 00:19:06:11 00:29:50:17 00:29:50:19 
M2      ERN_F0970_NSCR_1989-10-02_RAW_INTV_DESR_W_NED_JARRETT_&_JODY_DAVIS_SE005806                                                                030.0 00:19:06:07 
*FROM CLIP NAME:  ERN_F0970_NSCR_1989-10-02_RAW INTV DESR W NED JARRETT & JODY DAVIS_SE005806.NEW.01 
*TO CLIP NAME:  ERN_F0970_NSCR_1989-10-02_RAW INTV DESR W NED JARRETT & JODY DAVIS_SE005806.NEW.01 
*SOURCE FILE: ERN_F0970_NSCR_1989-10-02_RAW INTV DESR W NED JARRETT & JODY DAVIS_SE005806
001449  ERN_F0970_NSCR_1989-10-02_RAW_INTV_DESR_W_NED_JARRETT_&_JODY_DAVIS_SE005806                                                       A18   C        00:19:06:10 00:19:07:06 00:29:50:19 00:29:51:15 
M2      ERN_F0970_NSCR_1989-10-02_RAW_INTV_DESR_W_NED_JARRETT_&_JODY_DAVIS_SE005806                                                                030.0 00:19:06:10 
*FROM CLIP NAME:  ERN_F0970_NSCR_1989-10-02_RAW INTV DESR W NED JARRETT & JODY DAVIS_SE005806.NEW.01 
*SOURCE FILE: ERN_F0970_NSCR_1989-10-02_RAW INTV DESR W NED JARRETT & JODY DAVIS_SE005806
001450  ERN_F0970_NSCR_1989-10-02_RAW_INTV_DESR_W_NED_JARRETT_&_JODY_DAVIS_SE005806                                                       A18   C        00:25:58:10 00:25:58:13 00:29:51:15 00:29:51:17 
M2      ERN_F0970_NSCR_1989-10-02_RAW_INTV_DESR_W_NED_JARRETT_&_JODY_DAVIS_SE005806                                                                030.0 00:25:58:10 
*FROM CLIP NAME:  ERN_F0970_NSCR_1989-10-02_RAW INTV DESR W NED JARRETT & JODY DAVIS_SE005806.NEW.01 
*TO CLIP NAME:  ERN_F0970_NSCR_1989-10-02_RAW INTV DESR W NED JARRETT & JODY DAVIS_SE005806.NEW.01 
*SOURCE FILE: ERN_F0970_NSCR_1989-10-02_RAW INTV DESR W NED JARRETT & JODY DAVIS_SE005806
001451  ERN_F0970_NSCR_1989-10-02_RAW_INTV_DESR_W_NED_JARRETT_&_JODY_DAVIS_SE005806                                                       A18   C        00:25:58:12 00:25:59:19 00:29:51:17 00:29:52:22 
M2      ERN_F0970_NSCR_1989-10-02_RAW_INTV_DESR_W_NED_JARRETT_&_JODY_DAVIS_SE005806                                                                030.0 00:25:58:12 
*FROM CLIP NAME:  ERN_F0970_NSCR_1989-10-02_RAW INTV DESR W NED JARRETT & JODY DAVIS_SE005806.NEW.01 
*SOURCE FILE: ERN_F0970_NSCR_1989-10-02_RAW INTV DESR W NED JARRETT & JODY DAVIS_SE005806
001452  ERN_F0970_NSCR_1989-10-02_RAW_INTV_DESR_W_NED_JARRETT_&_JODY_DAVIS_SE005806                                                       A18   C        00:26:00:11 00:26:00:14 00:29:52:22 00:29:53:00 
M2      ERN_F0970_NSCR_1989-10-02_RAW_INTV_DESR_W_NED_JARRETT_&_JODY_DAVIS_SE005806                                                                030.0 00:26:00:11 
*FROM CLIP NAME:  ERN_F0970_NSCR_1989-10-02_RAW INTV DESR W NED JARRETT & JODY DAVIS_SE005806.NEW.01 
*TO CLIP NAME:  ERN_F0970_NSCR_1989-10-02_RAW INTV DESR W NED JARRETT & JODY DAVIS_SE005806.NEW.01 
*SOURCE FILE: ERN_F0970_NSCR_1989-10-02_RAW INTV DESR W NED JARRETT & JODY DAVIS_SE005806
001453  ERN_F0970_NSCR_1989-10-02_RAW_INTV_DESR_W_NED_JARRETT_&_JODY_DAVIS_SE005806                                                       A18   C        00:26:00:13 00:26:05:10 00:29:53:00 00:29:57:21 
M2      ERN_F0970_NSCR_1989-10-02_RAW_INTV_DESR_W_NED_JARRETT_&_JODY_DAVIS_SE005806                                                                030.0 00:26:00:13 
*FROM CLIP NAME:  ERN_F0970_NSCR_1989-10-02_RAW INTV DESR W NED JARRETT & JODY DAVIS_SE005806.NEW.01 
*SOURCE FILE: ERN_F0970_NSCR_1989-10-02_RAW INTV DESR W NED JARRETT & JODY DAVIS_SE005806
001454  ERN_F0244_NSCR_1990-00-00_2_OF_2_B-ROLL_DALE_EARNHARDT_ON_FARM_SE005536_S002                                                      A20   C        00:18:48:17 00:18:49:18 00:29:53:15 00:29:54:15 
M2      ERN_F0244_NSCR_1990-00-00_2_OF_2_B-ROLL_DALE_EARNHARDT_ON_FARM_SE005536_S002                                                               030.0 00:18:48:17 
*FROM CLIP NAME:  ERN_F0244_NSCR_1990-00-00_2 OF 2 B-ROLL DALE EARNHARDT ON FARM_SE005536_S002.NEW.01 
*TO CLIP NAME:  ERN_F0244_NSCR_1990-00-00_2 OF 2 B-ROLL DALE EARNHARDT ON FARM_SE005536_S002.NEW.01 
*SOURCE FILE: ERN_F0244_NSCR_1990-00-00_2 OF 2 B-ROLL DALE EARNHARDT ON FARM_SE005536_S002
001455  ERN_F0244_NSCR_1990-00-00_2_OF_2_B-ROLL_DALE_EARNHARDT_ON_FARM_SE005536_S002                                                      V     C        00:18:26:06 00:18:31:08 00:29:54:03 00:29:59:04 
M2      ERN_F0244_NSCR_1990-00-00_2_OF_2_B-ROLL_DALE_EARNHARDT_ON_FARM_SE005536_S002                                                               030.0 00:18:26:06 
*FROM CLIP NAME:  ERN_F0244_NSCR_1990-00-00_2 OF 2 B-ROLL DALE EARNHARDT ON FARM_SE005536_S002.NEW.01 
*SOURCE FILE: ERN_F0244_NSCR_1990-00-00_2 OF 2 B-ROLL DALE EARNHARDT ON FARM_SE005536_S002
001456  ERN_F0244_NSCR_1990-00-00_2_OF_2_B-ROLL_DALE_EARNHARDT_ON_FARM_SE005536_S002                                                      A20   C        00:18:49:17 00:18:52:22 00:29:54:15 00:29:57:18 
M2      ERN_F0244_NSCR_1990-00-00_2_OF_2_B-ROLL_DALE_EARNHARDT_ON_FARM_SE005536_S002                                                               030.0 00:18:49:17 
*FROM CLIP NAME:  ERN_F0244_NSCR_1990-00-00_2 OF 2 B-ROLL DALE EARNHARDT ON FARM_SE005536_S002.NEW.01 
*SOURCE FILE: ERN_F0244_NSCR_1990-00-00_2 OF 2 B-ROLL DALE EARNHARDT ON FARM_SE005536_S002
001457  ERN_F2047_XXXX_1987-05_B-ROLL_HOME_VIDEO_OAK_RIDGE_MILITARY_ACADEMY_MOTHERS_DAY_YOUTUBE                                           V     C        00:01:48:26 00:01:51:27 00:29:59:04 00:30:02:04 
M2      ERN_F2047_XXXX_1987-05_B-ROLL_HOME_VIDEO_OAK_RIDGE_MILITARY_ACADEMY_MOTHERS_DAY_YOUTUBE                                                    030.0 00:01:48:26 
*FROM CLIP NAME:  ERN_F2047_XXXX_1987-05_B-ROLL HOME VIDEO OAK RIDGE MILITARY ACADEMY MOTHERS DAY_YOUTUBE.NEW.01 
*SOURCE FILE: ERN_F2047_XXXX_1987-05_B-ROLL HOME VIDEO OAK RIDGE MILITARY ACADEMY MOTHERS DAY_YOUTUBE
001458  ERN_F2047_XXXX_1987-05_B-ROLL_HOME_VIDEO_OAK_RIDGE_MILITARY_ACADEMY_MOTHERS_DAY_YOUTUBE                                           V     C        00:00:00:25 00:00:04:06 00:30:02:04 00:30:06:08 
M2      ERN_F2047_XXXX_1987-05_B-ROLL_HOME_VIDEO_OAK_RIDGE_MILITARY_ACADEMY_MOTHERS_DAY_YOUTUBE                                                    024.0 00:00:00:25 
*FROM CLIP NAME:  ERN_F2047_XXXX_1987-05_B-ROLL HOME VIDEO OAK RIDGE MILITARY ACADEMY MOTHERS DAY_YOUTUBE.NEW.01 
*SOURCE FILE: ERN_F2047_XXXX_1987-05_B-ROLL HOME VIDEO OAK RIDGE MILITARY ACADEMY MOTHERS DAY_YOUTUBE
001459  ERN_F2047_XXXX_1987-05_B-ROLL_HOME_VIDEO_OAK_RIDGE_MILITARY_ACADEMY_MOTHERS_DAY_YOUTUBE                                           V     C        00:01:09:23 00:01:12:20 00:30:06:08 00:30:09:05 
M2      ERN_F2047_XXXX_1987-05_B-ROLL_HOME_VIDEO_OAK_RIDGE_MILITARY_ACADEMY_MOTHERS_DAY_YOUTUBE                                                    030.0 00:01:09:23 
*FROM CLIP NAME:  ERN_F2047_XXXX_1987-05_B-ROLL HOME VIDEO OAK RIDGE MILITARY ACADEMY MOTHERS DAY_YOUTUBE.NEW.01 
*SOURCE FILE: ERN_F2047_XXXX_1987-05_B-ROLL HOME VIDEO OAK RIDGE MILITARY ACADEMY MOTHERS DAY_YOUTUBE
001460  ERN_F2047_XXXX_1987-05_B-ROLL_HOME_VIDEO_OAK_RIDGE_MILITARY_ACADEMY_MOTHERS_DAY_YOUTUBE                                           A18   C        00:01:33:08 00:01:33:17 00:30:07:09 00:30:07:15 
M2      ERN_F2047_XXXX_1987-05_B-ROLL_HOME_VIDEO_OAK_RIDGE_MILITARY_ACADEMY_MOTHERS_DAY_YOUTUBE                                                    030.0 00:01:33:08 
*FROM CLIP NAME:  ERN_F2047_XXXX_1987-05_B-ROLL HOME VIDEO OAK RIDGE MILITARY ACADEMY MOTHERS DAY_YOUTUBE.NEW.01 
*SOURCE FILE: ERN_F2047_XXXX_1987-05_B-ROLL HOME VIDEO OAK RIDGE MILITARY ACADEMY MOTHERS DAY_YOUTUBE
001461  ERN_F2047_XXXX_1987-05_B-ROLL_HOME_VIDEO_OAK_RIDGE_MILITARY_ACADEMY_MOTHERS_DAY_YOUTUBE                                           A18   C        00:01:33:16 00:01:34:28 00:30:07:15 00:30:09:00 
M2      ERN_F2047_XXXX_1987-05_B-ROLL_HOME_VIDEO_OAK_RIDGE_MILITARY_ACADEMY_MOTHERS_DAY_YOUTUBE                                                    030.0 00:01:33:16 
*FROM CLIP NAME:  ERN_F2047_XXXX_1987-05_B-ROLL HOME VIDEO OAK RIDGE MILITARY ACADEMY MOTHERS DAY_YOUTUBE.NEW.01 
*SOURCE FILE: ERN_F2047_XXXX_1987-05_B-ROLL HOME VIDEO OAK RIDGE MILITARY ACADEMY MOTHERS DAY_YOUTUBE
001462  ERN_F2047_XXXX_1987-05_B-ROLL_HOME_VIDEO_OAK_RIDGE_MILITARY_ACADEMY_MOTHERS_DAY_YOUTUBE                                           V     C        00:01:36:27 00:01:40:15 00:30:09:05 00:30:12:19 
M2      ERN_F2047_XXXX_1987-05_B-ROLL_HOME_VIDEO_OAK_RIDGE_MILITARY_ACADEMY_MOTHERS_DAY_YOUTUBE                                                    030.0 00:01:36:27 
*FROM CLIP NAME:  ERN_F2047_XXXX_1987-05_B-ROLL HOME VIDEO OAK RIDGE MILITARY ACADEMY MOTHERS DAY_YOUTUBE.NEW.01 
*SOURCE FILE: ERN_F2047_XXXX_1987-05_B-ROLL HOME VIDEO OAK RIDGE MILITARY ACADEMY MOTHERS DAY_YOUTUBE
001463  ERN_F2047_XXXX_1987-05_B-ROLL_HOME_VIDEO_OAK_RIDGE_MILITARY_ACADEMY_MOTHERS_DAY_YOUTUBE                                           V     C        00:00:27:11 00:00:31:03 00:30:12:19 00:30:16:12 
M2      ERN_F2047_XXXX_1987-05_B-ROLL_HOME_VIDEO_OAK_RIDGE_MILITARY_ACADEMY_MOTHERS_DAY_YOUTUBE                                                    030.0 00:00:27:11 
*FROM CLIP NAME:  ERN_F2047_XXXX_1987-05_B-ROLL HOME VIDEO OAK RIDGE MILITARY ACADEMY MOTHERS DAY_YOUTUBE.NEW.01 
*SOURCE FILE: ERN_F2047_XXXX_1987-05_B-ROLL HOME VIDEO OAK RIDGE MILITARY ACADEMY MOTHERS DAY_YOUTUBE
001464  ERN_F2047_XXXX_1987-05_B-ROLL_HOME_VIDEO_OAK_RIDGE_MILITARY_ACADEMY_MOTHERS_DAY_YOUTUBE                                           V     C        00:02:26:01 00:02:30:06 00:30:16:12 00:30:21:16 
M2      ERN_F2047_XXXX_1987-05_B-ROLL_HOME_VIDEO_OAK_RIDGE_MILITARY_ACADEMY_MOTHERS_DAY_YOUTUBE                                                    024.0 00:02:26:01 
*FROM CLIP NAME:  ERN_F2047_XXXX_1987-05_B-ROLL HOME VIDEO OAK RIDGE MILITARY ACADEMY MOTHERS DAY_YOUTUBE.NEW.01 
*SOURCE FILE: ERN_F2047_XXXX_1987-05_B-ROLL HOME VIDEO OAK RIDGE MILITARY ACADEMY MOTHERS DAY_YOUTUBE
001465  ERN_S1647_DEJR_1980S_KELLEY_EARNHARDT_W_FRIEND_35.JPG                                                                             V     C        01:00:00:00 01:00:07:03 00:30:26:01 00:30:33:04 
*FROM CLIP NAME:  ERN_S1647_DEJR_1980S_KELLEY EARNHARDT W FRIEND_35.JPG 
*SOURCE FILE: ERN_S1647_DEJR_1980S_KELLEY EARNHARDT W FRIEND_35.JPG
001466  ERN_S1616_DEJR_1980S_KELLEY_EARNHARDT_W_DEJR_MILITARY_SCHOOL_04.JPG                                                               V     C        01:00:00:00 01:00:05:02 00:30:37:03 00:30:42:05 
*FROM CLIP NAME:  ERN_S1616_DEJR_1980S_KELLEY EARNHARDT W DEJR MILITARY SCHOOL_04.JPG 
*SOURCE FILE: ERN_S1616_DEJR_1980S_KELLEY EARNHARDT W DEJR MILITARY SCHOOL_04.JPG
001467  ERN_S1616_DEJR_1980S_KELLEY_EARNHARDT_W_DEJR_MILITARY_SCHOOL_04.JPG                                                               V     C        01:00:00:00 01:00:03:19 00:30:42:05 00:30:46:00 
*FROM CLIP NAME:  ERN_S1616_DEJR_1980S_KELLEY EARNHARDT W DEJR MILITARY SCHOOL_04.JPG 
*SOURCE FILE: ERN_S1616_DEJR_1980S_KELLEY EARNHARDT W DEJR MILITARY SCHOOL_04.JPG
001468  ERN_S1079_DEJR_1980S_DEJR_MILITARY_SCHOOL_0002.JPG                                                                                V     C        01:00:00:00 01:00:03:13 00:30:47:13 00:30:51:02 
*FROM CLIP NAME:  ERN_S1079_DEJR_1980S_DEJR MILITARY SCHOOL_0002.JPG 
*SOURCE FILE: ERN_S1079_DEJR_1980S_DEJR MILITARY SCHOOL_0002.JPG
001469  ERN_S1079_DEJR_1980S_DEJR_MILITARY_SCHOOL_0002.JPG                                                                                V     C        01:00:00:00 01:00:05:00 00:30:52:17 00:30:57:17 
*FROM CLIP NAME:  ERN_S1079_DEJR_1980S_DEJR MILITARY SCHOOL_0002.JPG 
*SOURCE FILE: ERN_S1079_DEJR_1980S_DEJR MILITARY SCHOOL_0002.JPG
001470  ERN_S1617_DEJR_1980S_KELLEY_EARNHARDT_W_DEJR_MILITARY_SCHOOL_PORTRAIT_05.JPG                                                      V     C        01:00:00:00 01:00:03:07 00:31:04:05 00:31:07:12 
*FROM CLIP NAME:  ERN_S1617_DEJR_1980S_KELLEY EARNHARDT W DEJR MILITARY SCHOOL PORTRAIT_05.JPG 
*SOURCE FILE: ERN_S1617_DEJR_1980S_KELLEY EARNHARDT W DEJR MILITARY SCHOOL PORTRAIT_05.JPG
001471  ERN_S3965_ORMA_1987_KELLEY_EARNHARDT_MILITARY_SCHOOL_CHEERLEADER_YEARBOOK_PAGE_04.PNG                                             V     C        01:00:00:04 01:00:01:21 00:31:07:12 00:31:09:05 
*FROM CLIP NAME:  ERN_S3965_ORMA_1987_KELLEY EARNHARDT MILITARY SCHOOL CHEERLEADER YEARBOOK PAGE_04.PNG 
*SOURCE FILE: ERN_S3965_ORMA_1987_KELLEY EARNHARDT MILITARY SCHOOL CHEERLEADER YEARBOOK PAGE_04.PNG
001472  ERN_S3965_ORMA_1987_KELLEY_EARNHARDT_MILITARY_SCHOOL_CHEERLEADER_YEARBOOK_PAGE_04.PNG                                             V     C        01:00:00:11 01:00:02:02 00:31:09:05 00:31:10:20 
*FROM CLIP NAME:  ERN_S3965_ORMA_1987_KELLEY EARNHARDT MILITARY SCHOOL CHEERLEADER YEARBOOK PAGE_04.PNG 
*SOURCE FILE: ERN_S3965_ORMA_1987_KELLEY EARNHARDT MILITARY SCHOOL CHEERLEADER YEARBOOK PAGE_04.PNG
001473  MILITARY_SCHOOL_ARCHIVAL_INTV_TEST_240905_VOCALS_SPLIT_BY_LALALAI.WAV                                                             A18   C        01:00:00:00 01:00:00:21 00:31:10:02 00:31:10:23 
*FROM CLIP NAME:  MILITARY SCHOOL ARCHIVAL INTV_TEST 240905_VOCALS_SPLIT_BY_LALALAI.WAV 
*SOURCE FILE: MILITARY SCHOOL ARCHIVAL INTV_TEST 240905_VOCALS_SPLIT_BY_LALALAI.WAV
001474  ERN_F0573_DEJR_2008_DOCUMENTARY-DALE_JR_SHIFTING_GEARS_DVDPT3                                                                     A20   C        07:51:57:19 07:51:58:16 00:31:10:02 00:31:10:23 
M2      ERN_F0573_DEJR_2008_DOCUMENTARY-DALE_JR_SHIFTING_GEARS_DVDPT3                                                                              030.0 07:51:57:19 
*FROM CLIP NAME:  ERN_F0573_DEJR_2008_DOCUMENTARY-DALE JR SHIFTING GEARS_DVDPT3.EPISODE 2.NEW.01 
*SOURCE FILE: ERN_F0573_DEJR_2008_DOCUMENTARY-DALE JR SHIFTING GEARS_DVDPT3
001475  ERN_S3971_ORMA_1988_DEJR_MILITARY_SCHOOL_BRAVO_COMPANY_10.JPEG                                                                    V     C        01:00:00:00 01:00:01:12 00:31:10:20 00:31:12:08 
*FROM CLIP NAME:  ERN_S3971_ORMA_1988_DEJR MILITARY SCHOOL BRAVO COMPANY_10.JPEG 
*SOURCE FILE: ERN_S3971_ORMA_1988_DEJR MILITARY SCHOOL BRAVO COMPANY_10.JPEG
001476  MILITARY_SCHOOL_ARCHIVAL_INTV_TEST_240905_VOCALS_SPLIT_BY_LALALAI.WAV                                                             A18   C        01:00:03:14 01:00:03:16 00:31:10:23 00:31:11:01 
*FROM CLIP NAME:  MILITARY SCHOOL ARCHIVAL INTV_TEST 240905_VOCALS_SPLIT_BY_LALALAI.WAV 
*TO CLIP NAME:  MILITARY SCHOOL ARCHIVAL INTV_TEST 240905_VOCALS_SPLIT_BY_LALALAI.WAV 
*SOURCE FILE: MILITARY SCHOOL ARCHIVAL INTV_TEST 240905_VOCALS_SPLIT_BY_LALALAI.WAV
001477  ERN_F0573_DEJR_2008_DOCUMENTARY-DALE_JR_SHIFTING_GEARS_DVDPT3                                                                     A20   C        07:52:01:09 07:52:03:02 00:31:10:23 00:31:12:17 
M2      ERN_F0573_DEJR_2008_DOCUMENTARY-DALE_JR_SHIFTING_GEARS_DVDPT3                                                                              030.0 07:52:01:09 
*FROM CLIP NAME:  ERN_F0573_DEJR_2008_DOCUMENTARY-DALE JR SHIFTING GEARS_DVDPT3.EPISODE 2.NEW.01 
*SOURCE FILE: ERN_F0573_DEJR_2008_DOCUMENTARY-DALE JR SHIFTING GEARS_DVDPT3
001478  MILITARY_SCHOOL_ARCHIVAL_INTV_TEST_240905_VOCALS_SPLIT_BY_LALALAI.WAV                                                             A18   C        01:00:03:16 01:00:05:08 00:31:11:01 00:31:12:17 
*FROM CLIP NAME:  MILITARY SCHOOL ARCHIVAL INTV_TEST 240905_VOCALS_SPLIT_BY_LALALAI.WAV 
*SOURCE FILE: MILITARY SCHOOL ARCHIVAL INTV_TEST 240905_VOCALS_SPLIT_BY_LALALAI.WAV
001479  ERN_S3971_ORMA_1988_DEJR_MILITARY_SCHOOL_BRAVO_COMPANY_10.JPEG                                                                    V     C        01:00:01:12 01:00:03:04 00:31:12:08 00:31:14:00 
*FROM CLIP NAME:  ERN_S3971_ORMA_1988_DEJR MILITARY SCHOOL BRAVO COMPANY_10.JPEG 
*SOURCE FILE: ERN_S3971_ORMA_1988_DEJR MILITARY SCHOOL BRAVO COMPANY_10.JPEG
001480  MILITARY_SCHOOL_ARCHIVAL_INTV_TEST_240905_VOCALS_SPLIT_BY_LALALAI.WAV                                                             A18   C        01:00:09:22 01:00:11:02 00:31:12:17 00:31:13:21 
*FROM CLIP NAME:  MILITARY SCHOOL ARCHIVAL INTV_TEST 240905_VOCALS_SPLIT_BY_LALALAI.WAV 
*SOURCE FILE: MILITARY SCHOOL ARCHIVAL INTV_TEST 240905_VOCALS_SPLIT_BY_LALALAI.WAV
001481  ERN_F0573_DEJR_2008_DOCUMENTARY-DALE_JR_SHIFTING_GEARS_DVDPT3                                                                     A20   C        07:52:07:19 07:52:08:25 00:31:12:17 00:31:13:21 
M2      ERN_F0573_DEJR_2008_DOCUMENTARY-DALE_JR_SHIFTING_GEARS_DVDPT3                                                                              030.0 07:52:07:19 
*FROM CLIP NAME:  ERN_F0573_DEJR_2008_DOCUMENTARY-DALE JR SHIFTING GEARS_DVDPT3.EPISODE 2.NEW.01 
*SOURCE FILE: ERN_F0573_DEJR_2008_DOCUMENTARY-DALE JR SHIFTING GEARS_DVDPT3
001482  MILITARY_SCHOOL_ARCHIVAL_INTV_TEST_240905_VOCALS_SPLIT_BY_LALALAI.WAV                                                             A18   C        01:00:11:23 01:00:12:20 00:31:13:21 00:31:14:18 
*FROM CLIP NAME:  MILITARY SCHOOL ARCHIVAL INTV_TEST 240905_VOCALS_SPLIT_BY_LALALAI.WAV 
*SOURCE FILE: MILITARY SCHOOL ARCHIVAL INTV_TEST 240905_VOCALS_SPLIT_BY_LALALAI.WAV
001483  ERN_F0573_DEJR_2008_DOCUMENTARY-DALE_JR_SHIFTING_GEARS_DVDPT3                                                                     A20   C        07:52:09:20 07:52:10:18 00:31:13:21 00:31:14:19 
M2      ERN_F0573_DEJR_2008_DOCUMENTARY-DALE_JR_SHIFTING_GEARS_DVDPT3                                                                              030.0 07:52:09:20 
*FROM CLIP NAME:  ERN_F0573_DEJR_2008_DOCUMENTARY-DALE JR SHIFTING GEARS_DVDPT3.EPISODE 2.NEW.01 
*SOURCE FILE: ERN_F0573_DEJR_2008_DOCUMENTARY-DALE JR SHIFTING GEARS_DVDPT3
001484  ERN_S3967_ORMA_1987_KELLEY_EARNHARDT_MILITARY_YEARBOOK_PAGE_06.PNG                                                                V     C        01:00:00:15 01:00:02:04 00:31:14:00 00:31:15:13 
*FROM CLIP NAME:  ERN_S3967_ORMA_1987_KELLEY EARNHARDT MILITARY YEARBOOK PAGE_06.PNG 
*SOURCE FILE: ERN_S3967_ORMA_1987_KELLEY EARNHARDT MILITARY YEARBOOK PAGE_06.PNG
001485  MILITARY_SCHOOL_ARCHIVAL_INTV_TEST_240905_VOCALS_SPLIT_BY_LALALAI.WAV                                                             A18   C        01:00:13:23 01:00:14:01 00:31:14:18 00:31:14:20 
*FROM CLIP NAME:  MILITARY SCHOOL ARCHIVAL INTV_TEST 240905_VOCALS_SPLIT_BY_LALALAI.WAV 
*TO CLIP NAME:  MILITARY SCHOOL ARCHIVAL INTV_TEST 240905_VOCALS_SPLIT_BY_LALALAI.WAV 
*SOURCE FILE: MILITARY SCHOOL ARCHIVAL INTV_TEST 240905_VOCALS_SPLIT_BY_LALALAI.WAV
001486  ERN_F0573_DEJR_2008_DOCUMENTARY-DALE_JR_SHIFTING_GEARS_DVDPT3                                                                     A20   C        07:52:11:21 07:52:13:17 00:31:14:19 00:31:16:15 
M2      ERN_F0573_DEJR_2008_DOCUMENTARY-DALE_JR_SHIFTING_GEARS_DVDPT3                                                                              030.0 07:52:11:21 
*FROM CLIP NAME:  ERN_F0573_DEJR_2008_DOCUMENTARY-DALE JR SHIFTING GEARS_DVDPT3.EPISODE 2.NEW.01 
*SOURCE FILE: ERN_F0573_DEJR_2008_DOCUMENTARY-DALE JR SHIFTING GEARS_DVDPT3
001487  MILITARY_SCHOOL_ARCHIVAL_INTV_TEST_240905_VOCALS_SPLIT_BY_LALALAI.WAV                                                             A18   C        01:00:14:01 01:00:15:20 00:31:14:20 00:31:16:15 
*FROM CLIP NAME:  MILITARY SCHOOL ARCHIVAL INTV_TEST 240905_VOCALS_SPLIT_BY_LALALAI.WAV 
*SOURCE FILE: MILITARY SCHOOL ARCHIVAL INTV_TEST 240905_VOCALS_SPLIT_BY_LALALAI.WAV
001488  ERN_S3967_ORMA_1987_KELLEY_EARNHARDT_MILITARY_YEARBOOK_PAGE_06.PNG                                                                V     C        01:00:02:20 01:00:04:14 00:31:15:13 00:31:17:07 
*FROM CLIP NAME:  ERN_S3967_ORMA_1987_KELLEY EARNHARDT MILITARY YEARBOOK PAGE_06.PNG 
*SOURCE FILE: ERN_S3967_ORMA_1987_KELLEY EARNHARDT MILITARY YEARBOOK PAGE_06.PNG
001489  ERN_S1621_DEJR_1980S_KELLEY_EARNHARDT_MILITARY_SCHOOL_PROM_09.JPG                                                                 V     C        01:00:02:10 01:00:05:09 00:31:17:07 00:31:20:06 
*FROM CLIP NAME:  ERN_S1621_DEJR_1980S_KELLEY EARNHARDT MILITARY SCHOOL PROM_09.JPG 
*SOURCE FILE: ERN_S1621_DEJR_1980S_KELLEY EARNHARDT MILITARY SCHOOL PROM_09.JPG
001490  ERN_S1626_DEJR_1980S_KELLEY_EARNHARDT_IN_MILITARY_SCHOOL_14.JPG                                                                   V     C        01:00:00:23 01:00:06:13 00:31:20:06 00:31:25:20 
*FROM CLIP NAME:  ERN_S1626_DEJR_1980S_KELLEY EARNHARDT IN MILITARY SCHOOL_14.JPG 
*SOURCE FILE: ERN_S1626_DEJR_1980S_KELLEY EARNHARDT IN MILITARY SCHOOL_14.JPG
001491  ERN_F1539_NSCR_2001-02-21_B-ROLL_KANNAPOLIS_SCENES_&_METROLINA_SPEEDWAY_TNN000395                                                 V     C        00:12:20:22 00:12:26:17 00:31:28:10 00:31:34:06 
M2      ERN_F1539_NSCR_2001-02-21_B-ROLL_KANNAPOLIS_SCENES_&_METROLINA_SPEEDWAY_TNN000395                                                          030.0 00:12:20:22 
*FROM CLIP NAME:  ERN_F1539_NSCR_2001-02-21_B-ROLL KANNAPOLIS SCENES & METROLINA SPEEDWAY_TNN000395.NEW.01 
*SOURCE FILE: ERN_F1539_NSCR_2001-02-21_B-ROLL KANNAPOLIS SCENES & METROLINA SPEEDWAY_TNN000395
001492  ERN_F9089_DANN_1989-90_RACING_B-ROLL_PONTIAC_DESR_HOME_VIDEO_&_CHRISTMAS_DESR_MARTHA_TAYLOR_7946_PRORES_422                       A22   C        00:57:52:03 00:57:54:19 00:31:31:19 00:31:34:07 
M2      ERN_F9089_DANN_1989-90_RACING_B-ROLL_PONTIAC_DESR_HOME_VIDEO_&_CHRISTMAS_DESR_MARTHA_TAYLOR_7946_PRORES_422                                030.0 00:57:52:03 
*FROM CLIP NAME:  ERN_F9089_DANN_1989-90_RACING B-ROLL PONTIAC DESR HOME VIDEO & CHRISTMAS DESR MARTHA TAYLOR_7946_PRORES_422.NEW.01 
*SOURCE FILE: ERN_F9089_DANN_1989-90_RACING B-ROLL PONTIAC DESR HOME VIDEO & CHRISTMAS DESR MARTHA TAYLOR_7946_PRORES_422
001493  ERN_F9089_DANN_1989-90_RACING_B-ROLL_PONTIAC_DESR_HOME_VIDEO_&_CHRISTMAS_DESR_MARTHA_TAYLOR_7946_PRORES_422                       V     C        00:57:54:17 00:58:00:14 00:31:34:06 00:31:40:03 
M2      ERN_F9089_DANN_1989-90_RACING_B-ROLL_PONTIAC_DESR_HOME_VIDEO_&_CHRISTMAS_DESR_MARTHA_TAYLOR_7946_PRORES_422                                030.0 00:57:54:17 
*FROM CLIP NAME:  ERN_F9089_DANN_1989-90_RACING B-ROLL PONTIAC DESR HOME VIDEO & CHRISTMAS DESR MARTHA TAYLOR_7946_PRORES_422.NEW.01 
*SOURCE FILE: ERN_F9089_DANN_1989-90_RACING B-ROLL PONTIAC DESR HOME VIDEO & CHRISTMAS DESR MARTHA TAYLOR_7946_PRORES_422
001494  ERN_F9089_DANN_1989-90_RACING_B-ROLL_PONTIAC_DESR_HOME_VIDEO_&_CHRISTMAS_DESR_MARTHA_TAYLOR_7946_PRORES_422                       A22   C        00:57:54:18 00:57:58:09 00:31:34:07 00:31:37:23 
M2      ERN_F9089_DANN_1989-90_RACING_B-ROLL_PONTIAC_DESR_HOME_VIDEO_&_CHRISTMAS_DESR_MARTHA_TAYLOR_7946_PRORES_422                                030.0 00:57:54:18 
*FROM CLIP NAME:  ERN_F9089_DANN_1989-90_RACING B-ROLL PONTIAC DESR HOME VIDEO & CHRISTMAS DESR MARTHA TAYLOR_7946_PRORES_422.NEW.01 
*SOURCE FILE: ERN_F9089_DANN_1989-90_RACING B-ROLL PONTIAC DESR HOME VIDEO & CHRISTMAS DESR MARTHA TAYLOR_7946_PRORES_422
001495  ERN_F9089_DANN_1989-90_RACING_B-ROLL_PONTIAC_DESR_HOME_VIDEO_&_CHRISTMAS_DESR_MARTHA_TAYLOR_7946_PRORES_422                       A20   C        00:56:58:23 00:57:01:09 00:31:34:23 00:31:37:11 
M2      ERN_F9089_DANN_1989-90_RACING_B-ROLL_PONTIAC_DESR_HOME_VIDEO_&_CHRISTMAS_DESR_MARTHA_TAYLOR_7946_PRORES_422                                030.0 00:56:58:23 
*FROM CLIP NAME:  ERN_F9089_DANN_1989-90_RACING B-ROLL PONTIAC DESR HOME VIDEO & CHRISTMAS DESR MARTHA TAYLOR_7946_PRORES_422.NEW.01 
*SOURCE FILE: ERN_F9089_DANN_1989-90_RACING B-ROLL PONTIAC DESR HOME VIDEO & CHRISTMAS DESR MARTHA TAYLOR_7946_PRORES_422
001496  ERN_F9089_DANN_1989-90_RACING_B-ROLL_PONTIAC_DESR_HOME_VIDEO_&_CHRISTMAS_DESR_MARTHA_TAYLOR_7946_PRORES_422                       A20   C        00:57:01:08 00:57:10:04 00:31:37:11 00:31:46:07 
M2      ERN_F9089_DANN_1989-90_RACING_B-ROLL_PONTIAC_DESR_HOME_VIDEO_&_CHRISTMAS_DESR_MARTHA_TAYLOR_7946_PRORES_422                                030.0 00:57:01:08 
*FROM CLIP NAME:  ERN_F9089_DANN_1989-90_RACING B-ROLL PONTIAC DESR HOME VIDEO & CHRISTMAS DESR MARTHA TAYLOR_7946_PRORES_422.NEW.01 
*SOURCE FILE: ERN_F9089_DANN_1989-90_RACING B-ROLL PONTIAC DESR HOME VIDEO & CHRISTMAS DESR MARTHA TAYLOR_7946_PRORES_422
001497  ERN_F9089_DANN_1989-90_RACING_B-ROLL_PONTIAC_DESR_HOME_VIDEO_&_CHRISTMAS_DESR_MARTHA_TAYLOR_7946_PRORES_422                       V     C        00:56:57:06 00:57:04:17 00:31:40:03 00:31:47:11 
M2      ERN_F9089_DANN_1989-90_RACING_B-ROLL_PONTIAC_DESR_HOME_VIDEO_&_CHRISTMAS_DESR_MARTHA_TAYLOR_7946_PRORES_422                                030.0 00:56:57:06 
*FROM CLIP NAME:  ERN_F9089_DANN_1989-90_RACING B-ROLL PONTIAC DESR HOME VIDEO & CHRISTMAS DESR MARTHA TAYLOR_7946_PRORES_422.NEW.01 
*SOURCE FILE: ERN_F9089_DANN_1989-90_RACING B-ROLL PONTIAC DESR HOME VIDEO & CHRISTMAS DESR MARTHA TAYLOR_7946_PRORES_422
001498  ERN_F0223_NSCR_1989-02-05_INTV_DALE_EARNHARDT_TOPICS-DEALERSHIP_&_HOW_SPORT_HAS_CHANGED_&_TAYLOR_NICOLE_EARNHARDT_SE003331        A18   C        00:04:11:25 00:04:12:11 00:31:41:21 00:31:42:09 
M2      ERN_F0223_NSCR_1989-02-05_INTV_DALE_EARNHARDT_TOPICS-DEALERSHIP_&_HOW_SPORT_HAS_CHANGED_&_TAYLOR_NICOLE_EARNHARDT_SE003331                 030.0 00:04:11:25 
*FROM CLIP NAME:  ERN_F0223_NSCR_1989-02-05_INTV DALE EARNHARDT TOPICS-DEALERSHIP & HOW SPORT HAS CHANGED & TAYLOR NICOLE EARNHARDT_SE003331.NEW.01 
*SOURCE FILE: ERN_F0223_NSCR_1989-02-05_INTV DALE EARNHARDT TOPICS-DEALERSHIP & HOW SPORT HAS CHANGED & TAYLOR NICOLE EARNHARDT_SE003331
001499  ERN_F0223_NSCR_1989-02-05_INTV_DALE_EARNHARDT_TOPICS-DEALERSHIP_&_HOW_SPORT_HAS_CHANGED_&_TAYLOR_NICOLE_EARNHARDT_SE003331        A18   C        00:04:12:10 00:04:12:21 00:31:42:09 00:31:42:17 
M2      ERN_F0223_NSCR_1989-02-05_INTV_DALE_EARNHARDT_TOPICS-DEALERSHIP_&_HOW_SPORT_HAS_CHANGED_&_TAYLOR_NICOLE_EARNHARDT_SE003331                 030.0 00:04:12:10 
*FROM CLIP NAME:  ERN_F0223_NSCR_1989-02-05_INTV DALE EARNHARDT TOPICS-DEALERSHIP & HOW SPORT HAS CHANGED & TAYLOR NICOLE EARNHARDT_SE003331.NEW.01 
*SOURCE FILE: ERN_F0223_NSCR_1989-02-05_INTV DALE EARNHARDT TOPICS-DEALERSHIP & HOW SPORT HAS CHANGED & TAYLOR NICOLE EARNHARDT_SE003331
001500  ERN_F0223_NSCR_1989-02-05_INTV_DALE_EARNHARDT_TOPICS-DEALERSHIP_&_HOW_SPORT_HAS_CHANGED_&_TAYLOR_NICOLE_EARNHARDT_SE003331        A18   C        00:10:58:14 00:10:59:00 00:31:42:17 00:31:43:05 
M2      ERN_F0223_NSCR_1989-02-05_INTV_DALE_EARNHARDT_TOPICS-DEALERSHIP_&_HOW_SPORT_HAS_CHANGED_&_TAYLOR_NICOLE_EARNHARDT_SE003331                 030.0 00:10:58:14 
*FROM CLIP NAME:  ERN_F0223_NSCR_1989-02-05_INTV DALE EARNHARDT TOPICS-DEALERSHIP & HOW SPORT HAS CHANGED & TAYLOR NICOLE EARNHARDT_SE003331.NEW.01 
*TO CLIP NAME:  ERN_F0223_NSCR_1989-02-05_INTV DALE EARNHARDT TOPICS-DEALERSHIP & HOW SPORT HAS CHANGED & TAYLOR NICOLE EARNHARDT_SE003331.NEW.01 
*SOURCE FILE: ERN_F0223_NSCR_1989-02-05_INTV DALE EARNHARDT TOPICS-DEALERSHIP & HOW SPORT HAS CHANGED & TAYLOR NICOLE EARNHARDT_SE003331
001501  ERN_F0223_NSCR_1989-02-05_INTV_DALE_EARNHARDT_TOPICS-DEALERSHIP_&_HOW_SPORT_HAS_CHANGED_&_TAYLOR_NICOLE_EARNHARDT_SE003331        A18   C        00:10:58:29 00:11:07:23 00:31:43:05 00:31:51:22 
M2      ERN_F0223_NSCR_1989-02-05_INTV_DALE_EARNHARDT_TOPICS-DEALERSHIP_&_HOW_SPORT_HAS_CHANGED_&_TAYLOR_NICOLE_EARNHARDT_SE003331                 030.0 00:10:58:29 
*FROM CLIP NAME:  ERN_F0223_NSCR_1989-02-05_INTV DALE EARNHARDT TOPICS-DEALERSHIP & HOW SPORT HAS CHANGED & TAYLOR NICOLE EARNHARDT_SE003331.NEW.01 
*SOURCE FILE: ERN_F0223_NSCR_1989-02-05_INTV DALE EARNHARDT TOPICS-DEALERSHIP & HOW SPORT HAS CHANGED & TAYLOR NICOLE EARNHARDT_SE003331
001502  ERN_F0223_NSCR_1989-02-05_INTV_DALE_EARNHARDT_TOPICS-DEALERSHIP_&_HOW_SPORT_HAS_CHANGED_&_TAYLOR_NICOLE_EARNHARDT_SE003331        V     C        00:11:03:09 00:11:06:24 00:31:47:11 00:31:50:23 
M2      ERN_F0223_NSCR_1989-02-05_INTV_DALE_EARNHARDT_TOPICS-DEALERSHIP_&_HOW_SPORT_HAS_CHANGED_&_TAYLOR_NICOLE_EARNHARDT_SE003331                 030.0 00:11:03:09 
*FROM CLIP NAME:  ERN_F0223_NSCR_1989-02-05_INTV DALE EARNHARDT TOPICS-DEALERSHIP & HOW SPORT HAS CHANGED & TAYLOR NICOLE EARNHARDT_SE003331.NEW.01 
*SOURCE FILE: ERN_F0223_NSCR_1989-02-05_INTV DALE EARNHARDT TOPICS-DEALERSHIP & HOW SPORT HAS CHANGED & TAYLOR NICOLE EARNHARDT_SE003331
001503  ERN_F9089_DANN_1989-90_RACING_B-ROLL_PONTIAC_DESR_HOME_VIDEO_&_CHRISTMAS_DESR_MARTHA_TAYLOR_7946_PRORES_422                       V     C        00:57:23:00 00:57:27:00 00:31:50:23 00:31:55:22 
M2      ERN_F9089_DANN_1989-90_RACING_B-ROLL_PONTIAC_DESR_HOME_VIDEO_&_CHRISTMAS_DESR_MARTHA_TAYLOR_7946_PRORES_422                                024.0 00:57:23:00 
*FROM CLIP NAME:  ERN_F9089_DANN_1989-90_RACING B-ROLL PONTIAC DESR HOME VIDEO & CHRISTMAS DESR MARTHA TAYLOR_7946_PRORES_422.NEW.01 
*SOURCE FILE: ERN_F9089_DANN_1989-90_RACING B-ROLL PONTIAC DESR HOME VIDEO & CHRISTMAS DESR MARTHA TAYLOR_7946_PRORES_422
001504  ERN_F0223_NSCR_1989-02-05_INTV_DALE_EARNHARDT_TOPICS-DEALERSHIP_&_HOW_SPORT_HAS_CHANGED_&_TAYLOR_NICOLE_EARNHARDT_SE003331        A18   C        00:11:08:17 00:11:08:21 00:31:51:22 00:31:52:00 
M2      ERN_F0223_NSCR_1989-02-05_INTV_DALE_EARNHARDT_TOPICS-DEALERSHIP_&_HOW_SPORT_HAS_CHANGED_&_TAYLOR_NICOLE_EARNHARDT_SE003331                 030.0 00:11:08:17 
*FROM CLIP NAME:  ERN_F0223_NSCR_1989-02-05_INTV DALE EARNHARDT TOPICS-DEALERSHIP & HOW SPORT HAS CHANGED & TAYLOR NICOLE EARNHARDT_SE003331.NEW.01 
*TO CLIP NAME:  ERN_F0223_NSCR_1989-02-05_INTV DALE EARNHARDT TOPICS-DEALERSHIP & HOW SPORT HAS CHANGED & TAYLOR NICOLE EARNHARDT_SE003331.NEW.01 
*SOURCE FILE: ERN_F0223_NSCR_1989-02-05_INTV DALE EARNHARDT TOPICS-DEALERSHIP & HOW SPORT HAS CHANGED & TAYLOR NICOLE EARNHARDT_SE003331
001505  ERN_F0223_NSCR_1989-02-05_INTV_DALE_EARNHARDT_TOPICS-DEALERSHIP_&_HOW_SPORT_HAS_CHANGED_&_TAYLOR_NICOLE_EARNHARDT_SE003331        A18   C        00:11:08:20 00:11:12:14 00:31:52:00 00:31:55:19 
M2      ERN_F0223_NSCR_1989-02-05_INTV_DALE_EARNHARDT_TOPICS-DEALERSHIP_&_HOW_SPORT_HAS_CHANGED_&_TAYLOR_NICOLE_EARNHARDT_SE003331                 030.0 00:11:08:20 
*FROM CLIP NAME:  ERN_F0223_NSCR_1989-02-05_INTV DALE EARNHARDT TOPICS-DEALERSHIP & HOW SPORT HAS CHANGED & TAYLOR NICOLE EARNHARDT_SE003331.NEW.01 
*SOURCE FILE: ERN_F0223_NSCR_1989-02-05_INTV DALE EARNHARDT TOPICS-DEALERSHIP & HOW SPORT HAS CHANGED & TAYLOR NICOLE EARNHARDT_SE003331
001506  ERN_F9089_DANN_1989-90_RACING_B-ROLL_PONTIAC_DESR_HOME_VIDEO_&_CHRISTMAS_DESR_MARTHA_TAYLOR_7946_PRORES_422                       A20   C        01:01:34:11 01:01:36:27 00:31:55:12 00:31:58:00 
M2      ERN_F9089_DANN_1989-90_RACING_B-ROLL_PONTIAC_DESR_HOME_VIDEO_&_CHRISTMAS_DESR_MARTHA_TAYLOR_7946_PRORES_422                                030.0 01:01:34:11 
*FROM CLIP NAME:  ERN_F9089_DANN_1989-90_RACING B-ROLL PONTIAC DESR HOME VIDEO & CHRISTMAS DESR MARTHA TAYLOR_7946_PRORES_422.NEW.01 
*SOURCE FILE: ERN_F9089_DANN_1989-90_RACING B-ROLL PONTIAC DESR HOME VIDEO & CHRISTMAS DESR MARTHA TAYLOR_7946_PRORES_422
001507  ERN_F0223_NSCR_1989-02-05_INTV_DALE_EARNHARDT_TOPICS-DEALERSHIP_&_HOW_SPORT_HAS_CHANGED_&_TAYLOR_NICOLE_EARNHARDT_SE003331        A18   C        00:11:41:05 00:11:41:11 00:31:55:19 00:31:55:23 
M2      ERN_F0223_NSCR_1989-02-05_INTV_DALE_EARNHARDT_TOPICS-DEALERSHIP_&_HOW_SPORT_HAS_CHANGED_&_TAYLOR_NICOLE_EARNHARDT_SE003331                 030.0 00:11:41:05 
*FROM CLIP NAME:  ERN_F0223_NSCR_1989-02-05_INTV DALE EARNHARDT TOPICS-DEALERSHIP & HOW SPORT HAS CHANGED & TAYLOR NICOLE EARNHARDT_SE003331.NEW.01 
*TO CLIP NAME:  ERN_F0223_NSCR_1989-02-05_INTV DALE EARNHARDT TOPICS-DEALERSHIP & HOW SPORT HAS CHANGED & TAYLOR NICOLE EARNHARDT_SE003331.NEW.01 
*SOURCE FILE: ERN_F0223_NSCR_1989-02-05_INTV DALE EARNHARDT TOPICS-DEALERSHIP & HOW SPORT HAS CHANGED & TAYLOR NICOLE EARNHARDT_SE003331
001508  ERN_F9089_DANN_1989-90_RACING_B-ROLL_PONTIAC_DESR_HOME_VIDEO_&_CHRISTMAS_DESR_MARTHA_TAYLOR_7946_PRORES_422                       V     C        01:01:34:22 01:01:41:18 00:31:55:22 00:32:04:02 
M2      ERN_F9089_DANN_1989-90_RACING_B-ROLL_PONTIAC_DESR_HOME_VIDEO_&_CHRISTMAS_DESR_MARTHA_TAYLOR_7946_PRORES_422                                025.2 01:01:34:22 
*FROM CLIP NAME:  ERN_F9089_DANN_1989-90_RACING B-ROLL PONTIAC DESR HOME VIDEO & CHRISTMAS DESR MARTHA TAYLOR_7946_PRORES_422.NEW.01 
*SOURCE FILE: ERN_F9089_DANN_1989-90_RACING B-ROLL PONTIAC DESR HOME VIDEO & CHRISTMAS DESR MARTHA TAYLOR_7946_PRORES_422
001509  ERN_F0223_NSCR_1989-02-05_INTV_DALE_EARNHARDT_TOPICS-DEALERSHIP_&_HOW_SPORT_HAS_CHANGED_&_TAYLOR_NICOLE_EARNHARDT_SE003331        A18   C        00:11:41:10 00:11:41:17 00:31:55:23 00:31:56:04 
M2      ERN_F0223_NSCR_1989-02-05_INTV_DALE_EARNHARDT_TOPICS-DEALERSHIP_&_HOW_SPORT_HAS_CHANGED_&_TAYLOR_NICOLE_EARNHARDT_SE003331                 030.0 00:11:41:10 
*FROM CLIP NAME:  ERN_F0223_NSCR_1989-02-05_INTV DALE EARNHARDT TOPICS-DEALERSHIP & HOW SPORT HAS CHANGED & TAYLOR NICOLE EARNHARDT_SE003331.NEW.01 
*SOURCE FILE: ERN_F0223_NSCR_1989-02-05_INTV DALE EARNHARDT TOPICS-DEALERSHIP & HOW SPORT HAS CHANGED & TAYLOR NICOLE EARNHARDT_SE003331
001510  ERN_F0223_NSCR_1989-02-05_INTV_DALE_EARNHARDT_TOPICS-DEALERSHIP_&_HOW_SPORT_HAS_CHANGED_&_TAYLOR_NICOLE_EARNHARDT_SE003331        A18   C        00:11:44:27 00:11:45:01 00:31:56:04 00:31:56:06 
M2      ERN_F0223_NSCR_1989-02-05_INTV_DALE_EARNHARDT_TOPICS-DEALERSHIP_&_HOW_SPORT_HAS_CHANGED_&_TAYLOR_NICOLE_EARNHARDT_SE003331                 030.0 00:11:44:27 
*FROM CLIP NAME:  ERN_F0223_NSCR_1989-02-05_INTV DALE EARNHARDT TOPICS-DEALERSHIP & HOW SPORT HAS CHANGED & TAYLOR NICOLE EARNHARDT_SE003331.NEW.01 
*TO CLIP NAME:  ERN_F0223_NSCR_1989-02-05_INTV DALE EARNHARDT TOPICS-DEALERSHIP & HOW SPORT HAS CHANGED & TAYLOR NICOLE EARNHARDT_SE003331.NEW.01 
*SOURCE FILE: ERN_F0223_NSCR_1989-02-05_INTV DALE EARNHARDT TOPICS-DEALERSHIP & HOW SPORT HAS CHANGED & TAYLOR NICOLE EARNHARDT_SE003331
001511  ERN_F0223_NSCR_1989-02-05_INTV_DALE_EARNHARDT_TOPICS-DEALERSHIP_&_HOW_SPORT_HAS_CHANGED_&_TAYLOR_NICOLE_EARNHARDT_SE003331        A18   C        00:11:45:00 00:11:45:26 00:31:56:06 00:31:57:02 
M2      ERN_F0223_NSCR_1989-02-05_INTV_DALE_EARNHARDT_TOPICS-DEALERSHIP_&_HOW_SPORT_HAS_CHANGED_&_TAYLOR_NICOLE_EARNHARDT_SE003331                 030.0 00:11:45:00 
*FROM CLIP NAME:  ERN_F0223_NSCR_1989-02-05_INTV DALE EARNHARDT TOPICS-DEALERSHIP & HOW SPORT HAS CHANGED & TAYLOR NICOLE EARNHARDT_SE003331.NEW.01 
*SOURCE FILE: ERN_F0223_NSCR_1989-02-05_INTV DALE EARNHARDT TOPICS-DEALERSHIP & HOW SPORT HAS CHANGED & TAYLOR NICOLE EARNHARDT_SE003331
001512  ERN_F0223_NSCR_1989-02-05_INTV_DALE_EARNHARDT_TOPICS-DEALERSHIP_&_HOW_SPORT_HAS_CHANGED_&_TAYLOR_NICOLE_EARNHARDT_SE003331        A18   C        00:02:17:21 00:02:17:27 00:31:57:02 00:31:57:06 
M2      ERN_F0223_NSCR_1989-02-05_INTV_DALE_EARNHARDT_TOPICS-DEALERSHIP_&_HOW_SPORT_HAS_CHANGED_&_TAYLOR_NICOLE_EARNHARDT_SE003331                 030.0 00:02:17:21 
*FROM CLIP NAME:  ERN_F0223_NSCR_1989-02-05_INTV DALE EARNHARDT TOPICS-DEALERSHIP & HOW SPORT HAS CHANGED & TAYLOR NICOLE EARNHARDT_SE003331.NEW.01 
*TO CLIP NAME:  ERN_F0223_NSCR_1989-02-05_INTV DALE EARNHARDT TOPICS-DEALERSHIP & HOW SPORT HAS CHANGED & TAYLOR NICOLE EARNHARDT_SE003331.NEW.01 
*SOURCE FILE: ERN_F0223_NSCR_1989-02-05_INTV DALE EARNHARDT TOPICS-DEALERSHIP & HOW SPORT HAS CHANGED & TAYLOR NICOLE EARNHARDT_SE003331
001513  ERN_F0223_NSCR_1989-02-05_INTV_DALE_EARNHARDT_TOPICS-DEALERSHIP_&_HOW_SPORT_HAS_CHANGED_&_TAYLOR_NICOLE_EARNHARDT_SE003331        A18   C        00:02:17:26 00:02:18:07 00:31:57:06 00:31:57:14 
M2      ERN_F0223_NSCR_1989-02-05_INTV_DALE_EARNHARDT_TOPICS-DEALERSHIP_&_HOW_SPORT_HAS_CHANGED_&_TAYLOR_NICOLE_EARNHARDT_SE003331                 030.0 00:02:17:26 
*FROM CLIP NAME:  ERN_F0223_NSCR_1989-02-05_INTV DALE EARNHARDT TOPICS-DEALERSHIP & HOW SPORT HAS CHANGED & TAYLOR NICOLE EARNHARDT_SE003331.NEW.01 
*SOURCE FILE: ERN_F0223_NSCR_1989-02-05_INTV DALE EARNHARDT TOPICS-DEALERSHIP & HOW SPORT HAS CHANGED & TAYLOR NICOLE EARNHARDT_SE003331
001514  ERN_F9089_DANN_1989-90_RACING_B-ROLL_PONTIAC_DESR_HOME_VIDEO_&_CHRISTMAS_DESR_MARTHA_TAYLOR_7946_PRORES_422                       A20   C        01:01:36:26 01:01:37:27 00:31:58:00 00:31:59:00 
M2      ERN_F9089_DANN_1989-90_RACING_B-ROLL_PONTIAC_DESR_HOME_VIDEO_&_CHRISTMAS_DESR_MARTHA_TAYLOR_7946_PRORES_422                                030.0 01:01:36:26 
*FROM CLIP NAME:  ERN_F9089_DANN_1989-90_RACING B-ROLL PONTIAC DESR HOME VIDEO & CHRISTMAS DESR MARTHA TAYLOR_7946_PRORES_422.NEW.01 
*SOURCE FILE: ERN_F9089_DANN_1989-90_RACING B-ROLL PONTIAC DESR HOME VIDEO & CHRISTMAS DESR MARTHA TAYLOR_7946_PRORES_422
001515  ERN_F9089_DANN_1989-90_RACING_B-ROLL_PONTIAC_DESR_HOME_VIDEO_&_CHRISTMAS_DESR_MARTHA_TAYLOR_7946_PRORES_422                       A20   C        01:01:37:26 01:01:39:12 00:31:59:00 00:32:00:12 
M2      ERN_F9089_DANN_1989-90_RACING_B-ROLL_PONTIAC_DESR_HOME_VIDEO_&_CHRISTMAS_DESR_MARTHA_TAYLOR_7946_PRORES_422                                030.0 01:01:37:26 
*FROM CLIP NAME:  ERN_F9089_DANN_1989-90_RACING B-ROLL PONTIAC DESR HOME VIDEO & CHRISTMAS DESR MARTHA TAYLOR_7946_PRORES_422.NEW.01 
*TO CLIP NAME:  ERN_F9089_DANN_1989-90_RACING B-ROLL PONTIAC DESR HOME VIDEO & CHRISTMAS DESR MARTHA TAYLOR_7946_PRORES_422.NEW.01 
*SOURCE FILE: ERN_F9089_DANN_1989-90_RACING B-ROLL PONTIAC DESR HOME VIDEO & CHRISTMAS DESR MARTHA TAYLOR_7946_PRORES_422
001516  ERN_F9089_DANN_1989-90_RACING_B-ROLL_PONTIAC_DESR_HOME_VIDEO_&_CHRISTMAS_DESR_MARTHA_TAYLOR_7946_PRORES_422                       A20   C        01:01:39:11 01:01:42:17 00:32:00:12 00:32:03:16 
M2      ERN_F9089_DANN_1989-90_RACING_B-ROLL_PONTIAC_DESR_HOME_VIDEO_&_CHRISTMAS_DESR_MARTHA_TAYLOR_7946_PRORES_422                                030.0 01:01:39:11 
*FROM CLIP NAME:  ERN_F9089_DANN_1989-90_RACING B-ROLL PONTIAC DESR HOME VIDEO & CHRISTMAS DESR MARTHA TAYLOR_7946_PRORES_422.NEW.01 
*SOURCE FILE: ERN_F9089_DANN_1989-90_RACING B-ROLL PONTIAC DESR HOME VIDEO & CHRISTMAS DESR MARTHA TAYLOR_7946_PRORES_422
001517  ERN_F9089_DANN_1989-90_RACING_B-ROLL_PONTIAC_DESR_HOME_VIDEO_&_CHRISTMAS_DESR_MARTHA_TAYLOR_7946_PRORES_422                       A20   C        01:09:58:28 01:09:59:29 00:32:03:16 00:32:04:16 
M2      ERN_F9089_DANN_1989-90_RACING_B-ROLL_PONTIAC_DESR_HOME_VIDEO_&_CHRISTMAS_DESR_MARTHA_TAYLOR_7946_PRORES_422                                030.0 01:09:58:28 
*FROM CLIP NAME:  ERN_F9089_DANN_1989-90_RACING B-ROLL PONTIAC DESR HOME VIDEO & CHRISTMAS DESR MARTHA TAYLOR_7946_PRORES_422.NEW.01 
*TO CLIP NAME:  ERN_F9089_DANN_1989-90_RACING B-ROLL PONTIAC DESR HOME VIDEO & CHRISTMAS DESR MARTHA TAYLOR_7946_PRORES_422.NEW.01 
*SOURCE FILE: ERN_F9089_DANN_1989-90_RACING B-ROLL PONTIAC DESR HOME VIDEO & CHRISTMAS DESR MARTHA TAYLOR_7946_PRORES_422
001518  ERN_F9089_DANN_1989-90_RACING_B-ROLL_PONTIAC_DESR_HOME_VIDEO_&_CHRISTMAS_DESR_MARTHA_TAYLOR_7946_PRORES_422                       V     C        01:09:59:11 01:10:05:28 00:32:04:02 00:32:10:15 
M2      ERN_F9089_DANN_1989-90_RACING_B-ROLL_PONTIAC_DESR_HOME_VIDEO_&_CHRISTMAS_DESR_MARTHA_TAYLOR_7946_PRORES_422                                030.0 01:09:59:11 
*FROM CLIP NAME:  ERN_F9089_DANN_1989-90_RACING B-ROLL PONTIAC DESR HOME VIDEO & CHRISTMAS DESR MARTHA TAYLOR_7946_PRORES_422.NEW.01 
*SOURCE FILE: ERN_F9089_DANN_1989-90_RACING B-ROLL PONTIAC DESR HOME VIDEO & CHRISTMAS DESR MARTHA TAYLOR_7946_PRORES_422
001519  ERN_F9089_DANN_1989-90_RACING_B-ROLL_PONTIAC_DESR_HOME_VIDEO_&_CHRISTMAS_DESR_MARTHA_TAYLOR_7946_PRORES_422                       A20   C        01:09:59:28 01:10:00:27 00:32:04:16 00:32:05:14 
M2      ERN_F9089_DANN_1989-90_RACING_B-ROLL_PONTIAC_DESR_HOME_VIDEO_&_CHRISTMAS_DESR_MARTHA_TAYLOR_7946_PRORES_422                                030.0 01:09:59:28 
*FROM CLIP NAME:  ERN_F9089_DANN_1989-90_RACING B-ROLL PONTIAC DESR HOME VIDEO & CHRISTMAS DESR MARTHA TAYLOR_7946_PRORES_422.NEW.01 
*SOURCE FILE: ERN_F9089_DANN_1989-90_RACING B-ROLL PONTIAC DESR HOME VIDEO & CHRISTMAS DESR MARTHA TAYLOR_7946_PRORES_422
001520  ERN_F9089_DANN_1989-90_RACING_B-ROLL_PONTIAC_DESR_HOME_VIDEO_&_CHRISTMAS_DESR_MARTHA_TAYLOR_7946_PRORES_422                       A20   C        01:10:00:26 01:10:02:17 00:32:05:14 00:32:07:06 
M2      ERN_F9089_DANN_1989-90_RACING_B-ROLL_PONTIAC_DESR_HOME_VIDEO_&_CHRISTMAS_DESR_MARTHA_TAYLOR_7946_PRORES_422                                030.0 01:10:00:26 
*FROM CLIP NAME:  ERN_F9089_DANN_1989-90_RACING B-ROLL PONTIAC DESR HOME VIDEO & CHRISTMAS DESR MARTHA TAYLOR_7946_PRORES_422.NEW.01 
*TO CLIP NAME:  ERN_F9089_DANN_1989-90_RACING B-ROLL PONTIAC DESR HOME VIDEO & CHRISTMAS DESR MARTHA TAYLOR_7946_PRORES_422.NEW.01 
*SOURCE FILE: ERN_F9089_DANN_1989-90_RACING B-ROLL PONTIAC DESR HOME VIDEO & CHRISTMAS DESR MARTHA TAYLOR_7946_PRORES_422
001521  ERN_F9089_DANN_1989-90_RACING_B-ROLL_PONTIAC_DESR_HOME_VIDEO_&_CHRISTMAS_DESR_MARTHA_TAYLOR_7946_PRORES_422                       A20   C        01:10:02:16 01:10:04:28 00:32:07:06 00:32:09:15 
M2      ERN_F9089_DANN_1989-90_RACING_B-ROLL_PONTIAC_DESR_HOME_VIDEO_&_CHRISTMAS_DESR_MARTHA_TAYLOR_7946_PRORES_422                                030.0 01:10:02:16 
*FROM CLIP NAME:  ERN_F9089_DANN_1989-90_RACING B-ROLL PONTIAC DESR HOME VIDEO & CHRISTMAS DESR MARTHA TAYLOR_7946_PRORES_422.NEW.01 
*SOURCE FILE: ERN_F9089_DANN_1989-90_RACING B-ROLL PONTIAC DESR HOME VIDEO & CHRISTMAS DESR MARTHA TAYLOR_7946_PRORES_422
001522  ERN_F9137_DANN_1990_NON_RACING_DANNY_SR_HOME_VIDEOS_W_DAYTONA_BEACH_&_HOLIDAYS_KELLEY_TAYLOR_TERESA_&_FAMILY_7922                 A20   C        01:22:32:08 01:22:33:24 00:32:09:15 00:32:11:03 
M2      ERN_F9137_DANN_1990_NON_RACING_DANNY_SR_HOME_VIDEOS_W_DAYTONA_BEACH_&_HOLIDAYS_KELLEY_TAYLOR_TERESA_&_FAMILY_7922                          030.0 01:22:32:08 
*FROM CLIP NAME:  ERN_F9137_DANN_1990_NON RACING DANNY SR HOME VIDEOS W DAYTONA BEACH & HOLIDAYS KELLEY TAYLOR TERESA & FAMILY_7922.NEW.01 
*TO CLIP NAME:  ERN_F9089_DANN_1989-90_RACING B-ROLL PONTIAC DESR HOME VIDEO & CHRISTMAS DESR MARTHA TAYLOR_7946_PRORES_422.NEW.01 
*SOURCE FILE: ERN_F9137_DANN_1990_NON RACING DANNY SR HOME VIDEOS W DAYTONA BEACH & HOLIDAYS KELLEY TAYLOR TERESA & FAMILY_7922
001523  ERN_F9137_DANN_1990_NON_RACING_DANNY_SR_HOME_VIDEOS_W_DAYTONA_BEACH_&_HOLIDAYS_KELLEY_TAYLOR_TERESA_&_FAMILY_7922                 V     C        01:22:47:21 01:22:53:23 00:32:10:15 00:32:16:16 
M2      ERN_F9137_DANN_1990_NON_RACING_DANNY_SR_HOME_VIDEOS_W_DAYTONA_BEACH_&_HOLIDAYS_KELLEY_TAYLOR_TERESA_&_FAMILY_7922                          030.0 01:22:47:21 
*FROM CLIP NAME:  ERN_F9137_DANN_1990_NON RACING DANNY SR HOME VIDEOS W DAYTONA BEACH & HOLIDAYS KELLEY TAYLOR TERESA & FAMILY_7922.NEW.01 
*SOURCE FILE: ERN_F9137_DANN_1990_NON RACING DANNY SR HOME VIDEOS W DAYTONA BEACH & HOLIDAYS KELLEY TAYLOR TERESA & FAMILY_7922
001524  ERN_F9137_DANN_1990_NON_RACING_DANNY_SR_HOME_VIDEOS_W_DAYTONA_BEACH_&_HOLIDAYS_KELLEY_TAYLOR_TERESA_&_FAMILY_7922                 A20   C        01:22:33:23 01:22:35:24 00:32:11:03 00:32:13:03 
M2      ERN_F9137_DANN_1990_NON_RACING_DANNY_SR_HOME_VIDEOS_W_DAYTONA_BEACH_&_HOLIDAYS_KELLEY_TAYLOR_TERESA_&_FAMILY_7922                          030.0 01:22:33:23 
*FROM CLIP NAME:  ERN_F9137_DANN_1990_NON RACING DANNY SR HOME VIDEOS W DAYTONA BEACH & HOLIDAYS KELLEY TAYLOR TERESA & FAMILY_7922.NEW.01 
*SOURCE FILE: ERN_F9137_DANN_1990_NON RACING DANNY SR HOME VIDEOS W DAYTONA BEACH & HOLIDAYS KELLEY TAYLOR TERESA & FAMILY_7922
001525  ERN_F9137_DANN_1990_NON_RACING_DANNY_SR_HOME_VIDEOS_W_DAYTONA_BEACH_&_HOLIDAYS_KELLEY_TAYLOR_TERESA_&_FAMILY_7922                 A20   C        01:22:39:03 01:22:39:12 00:32:13:03 00:32:13:09 
M2      ERN_F9137_DANN_1990_NON_RACING_DANNY_SR_HOME_VIDEOS_W_DAYTONA_BEACH_&_HOLIDAYS_KELLEY_TAYLOR_TERESA_&_FAMILY_7922                          030.0 01:22:39:03 
*FROM CLIP NAME:  ERN_F9137_DANN_1990_NON RACING DANNY SR HOME VIDEOS W DAYTONA BEACH & HOLIDAYS KELLEY TAYLOR TERESA & FAMILY_7922.NEW.01 
*TO CLIP NAME:  ERN_F9137_DANN_1990_NON RACING DANNY SR HOME VIDEOS W DAYTONA BEACH & HOLIDAYS KELLEY TAYLOR TERESA & FAMILY_7922.NEW.01 
*SOURCE FILE: ERN_F9137_DANN_1990_NON RACING DANNY SR HOME VIDEOS W DAYTONA BEACH & HOLIDAYS KELLEY TAYLOR TERESA & FAMILY_7922
001526  ERN_F9137_DANN_1990_NON_RACING_DANNY_SR_HOME_VIDEOS_W_DAYTONA_BEACH_&_HOLIDAYS_KELLEY_TAYLOR_TERESA_&_FAMILY_7922                 A20   C        01:22:39:11 01:22:41:05 00:32:13:09 00:32:15:04 
M2      ERN_F9137_DANN_1990_NON_RACING_DANNY_SR_HOME_VIDEOS_W_DAYTONA_BEACH_&_HOLIDAYS_KELLEY_TAYLOR_TERESA_&_FAMILY_7922                          030.0 01:22:39:11 
*FROM CLIP NAME:  ERN_F9137_DANN_1990_NON RACING DANNY SR HOME VIDEOS W DAYTONA BEACH & HOLIDAYS KELLEY TAYLOR TERESA & FAMILY_7922.NEW.01 
*SOURCE FILE: ERN_F9137_DANN_1990_NON RACING DANNY SR HOME VIDEOS W DAYTONA BEACH & HOLIDAYS KELLEY TAYLOR TERESA & FAMILY_7922
001527  ERN_F0470_NSCR_1990-12-06_INTV_BTS_DALE_EARNHARDT_NEW_YORK_CITY_TERESA_EARNHARDT_TAYLOR_NICOLE_EARNHARDT_SE000387                 A18   C        00:08:12:28 00:08:13:09 00:32:15:02 00:32:15:10 
M2      ERN_F0470_NSCR_1990-12-06_INTV_BTS_DALE_EARNHARDT_NEW_YORK_CITY_TERESA_EARNHARDT_TAYLOR_NICOLE_EARNHARDT_SE000387                          030.0 00:08:12:28 
*FROM CLIP NAME:  ERN_F0470_NSCR_1990-12-06_INTV BTS DALE EARNHARDT NEW YORK CITY TERESA EARNHARDT TAYLOR NICOLE EARNHARDT_SE000387.NEW.01 
*SOURCE FILE: ERN_F0470_NSCR_1990-12-06_INTV BTS DALE EARNHARDT NEW YORK CITY TERESA EARNHARDT TAYLOR NICOLE EARNHARDT_SE000387
001528  ERN_F0470_NSCR_1990-12-06_INTV_BTS_DALE_EARNHARDT_NEW_YORK_CITY_TERESA_EARNHARDT_TAYLOR_NICOLE_EARNHARDT_SE000387                 A18   C        00:08:13:08 00:08:14:19 00:32:15:10 00:32:16:18 
M2      ERN_F0470_NSCR_1990-12-06_INTV_BTS_DALE_EARNHARDT_NEW_YORK_CITY_TERESA_EARNHARDT_TAYLOR_NICOLE_EARNHARDT_SE000387                          030.0 00:08:13:08 
*FROM CLIP NAME:  ERN_F0470_NSCR_1990-12-06_INTV BTS DALE EARNHARDT NEW YORK CITY TERESA EARNHARDT TAYLOR NICOLE EARNHARDT_SE000387.NEW.01 
*SOURCE FILE: ERN_F0470_NSCR_1990-12-06_INTV BTS DALE EARNHARDT NEW YORK CITY TERESA EARNHARDT TAYLOR NICOLE EARNHARDT_SE000387
001529  ERN_F0470_NSCR_1990-12-06_INTV_BTS_DALE_EARNHARDT_NEW_YORK_CITY_TERESA_EARNHARDT_TAYLOR_NICOLE_EARNHARDT_SE000387                 V     C        00:08:15:17 00:08:22:29 00:32:16:16 00:32:24:01 
M2      ERN_F0470_NSCR_1990-12-06_INTV_BTS_DALE_EARNHARDT_NEW_YORK_CITY_TERESA_EARNHARDT_TAYLOR_NICOLE_EARNHARDT_SE000387                          030.0 00:08:15:17 
*FROM CLIP NAME:  ERN_F0470_NSCR_1990-12-06_INTV BTS DALE EARNHARDT NEW YORK CITY TERESA EARNHARDT TAYLOR NICOLE EARNHARDT_SE000387.NEW.01 
*SOURCE FILE: ERN_F0470_NSCR_1990-12-06_INTV BTS DALE EARNHARDT NEW YORK CITY TERESA EARNHARDT TAYLOR NICOLE EARNHARDT_SE000387
001530  ERN_F0470_NSCR_1990-12-06_INTV_BTS_DALE_EARNHARDT_NEW_YORK_CITY_TERESA_EARNHARDT_TAYLOR_NICOLE_EARNHARDT_SE000387                 A18   C        00:08:15:20 00:08:18:28 00:32:16:18 00:32:20:00 
M2      ERN_F0470_NSCR_1990-12-06_INTV_BTS_DALE_EARNHARDT_NEW_YORK_CITY_TERESA_EARNHARDT_TAYLOR_NICOLE_EARNHARDT_SE000387                          030.0 00:08:15:20 
*FROM CLIP NAME:  ERN_F0470_NSCR_1990-12-06_INTV BTS DALE EARNHARDT NEW YORK CITY TERESA EARNHARDT TAYLOR NICOLE EARNHARDT_SE000387.NEW.01 
*SOURCE FILE: ERN_F0470_NSCR_1990-12-06_INTV BTS DALE EARNHARDT NEW YORK CITY TERESA EARNHARDT TAYLOR NICOLE EARNHARDT_SE000387
001531  ERN_F0470_NSCR_1990-12-06_INTV_BTS_DALE_EARNHARDT_NEW_YORK_CITY_TERESA_EARNHARDT_TAYLOR_NICOLE_EARNHARDT_SE000387                 A18   C        00:08:18:27 00:08:21:13 00:32:20:00 00:32:22:12 
M2      ERN_F0470_NSCR_1990-12-06_INTV_BTS_DALE_EARNHARDT_NEW_YORK_CITY_TERESA_EARNHARDT_TAYLOR_NICOLE_EARNHARDT_SE000387                          030.0 00:08:18:27 
*FROM CLIP NAME:  ERN_F0470_NSCR_1990-12-06_INTV BTS DALE EARNHARDT NEW YORK CITY TERESA EARNHARDT TAYLOR NICOLE EARNHARDT_SE000387.NEW.01 
*TO CLIP NAME:  ERN_F0470_NSCR_1990-12-06_INTV BTS DALE EARNHARDT NEW YORK CITY TERESA EARNHARDT TAYLOR NICOLE EARNHARDT_SE000387.NEW.01 
*SOURCE FILE: ERN_F0470_NSCR_1990-12-06_INTV BTS DALE EARNHARDT NEW YORK CITY TERESA EARNHARDT TAYLOR NICOLE EARNHARDT_SE000387
001532  ERN_F0470_NSCR_1990-12-06_INTV_BTS_DALE_EARNHARDT_NEW_YORK_CITY_TERESA_EARNHARDT_TAYLOR_NICOLE_EARNHARDT_SE000387                 A18   C        00:08:21:12 00:08:21:27 00:32:22:12 00:32:22:23 
M2      ERN_F0470_NSCR_1990-12-06_INTV_BTS_DALE_EARNHARDT_NEW_YORK_CITY_TERESA_EARNHARDT_TAYLOR_NICOLE_EARNHARDT_SE000387                          030.0 00:08:21:12 
*FROM CLIP NAME:  ERN_F0470_NSCR_1990-12-06_INTV BTS DALE EARNHARDT NEW YORK CITY TERESA EARNHARDT TAYLOR NICOLE EARNHARDT_SE000387.NEW.01 
*SOURCE FILE: ERN_F0470_NSCR_1990-12-06_INTV BTS DALE EARNHARDT NEW YORK CITY TERESA EARNHARDT TAYLOR NICOLE EARNHARDT_SE000387
001533  ERN_F0470_NSCR_1990-12-06_INTV_BTS_DALE_EARNHARDT_NEW_YORK_CITY_TERESA_EARNHARDT_TAYLOR_NICOLE_EARNHARDT_SE000387                 A18   C        00:08:24:07 00:08:25:08 00:32:25:08 00:32:26:08 
M2      ERN_F0470_NSCR_1990-12-06_INTV_BTS_DALE_EARNHARDT_NEW_YORK_CITY_TERESA_EARNHARDT_TAYLOR_NICOLE_EARNHARDT_SE000387                          030.0 00:08:24:07 
*FROM CLIP NAME:  ERN_F0470_NSCR_1990-12-06_INTV BTS DALE EARNHARDT NEW YORK CITY TERESA EARNHARDT TAYLOR NICOLE EARNHARDT_SE000387.NEW.01 
*SOURCE FILE: ERN_F0470_NSCR_1990-12-06_INTV BTS DALE EARNHARDT NEW YORK CITY TERESA EARNHARDT TAYLOR NICOLE EARNHARDT_SE000387
001534  ERN_F0470_NSCR_1990-12-06_INTV_BTS_DALE_EARNHARDT_NEW_YORK_CITY_TERESA_EARNHARDT_TAYLOR_NICOLE_EARNHARDT_SE000387                 V     C        00:08:24:18 00:08:33:13 00:32:25:17 00:32:34:12 
M2      ERN_F0470_NSCR_1990-12-06_INTV_BTS_DALE_EARNHARDT_NEW_YORK_CITY_TERESA_EARNHARDT_TAYLOR_NICOLE_EARNHARDT_SE000387                          030.0 00:08:24:18 
*FROM CLIP NAME:  ERN_F0470_NSCR_1990-12-06_INTV BTS DALE EARNHARDT NEW YORK CITY TERESA EARNHARDT TAYLOR NICOLE EARNHARDT_SE000387.NEW.01 
*SOURCE FILE: ERN_F0470_NSCR_1990-12-06_INTV BTS DALE EARNHARDT NEW YORK CITY TERESA EARNHARDT TAYLOR NICOLE EARNHARDT_SE000387
001535  ERN_F0470_NSCR_1990-12-06_INTV_BTS_DALE_EARNHARDT_NEW_YORK_CITY_TERESA_EARNHARDT_TAYLOR_NICOLE_EARNHARDT_SE000387                 A18   C        00:08:25:07 00:08:25:18 00:32:26:08 00:32:26:16 
M2      ERN_F0470_NSCR_1990-12-06_INTV_BTS_DALE_EARNHARDT_NEW_YORK_CITY_TERESA_EARNHARDT_TAYLOR_NICOLE_EARNHARDT_SE000387                          030.0 00:08:25:07 
*FROM CLIP NAME:  ERN_F0470_NSCR_1990-12-06_INTV BTS DALE EARNHARDT NEW YORK CITY TERESA EARNHARDT TAYLOR NICOLE EARNHARDT_SE000387.NEW.01 
*SOURCE FILE: ERN_F0470_NSCR_1990-12-06_INTV BTS DALE EARNHARDT NEW YORK CITY TERESA EARNHARDT TAYLOR NICOLE EARNHARDT_SE000387
001536  ERN_F0470_NSCR_1990-12-06_INTV_BTS_DALE_EARNHARDT_NEW_YORK_CITY_TERESA_EARNHARDT_TAYLOR_NICOLE_EARNHARDT_SE000387                 A18   C        00:08:25:17 00:08:27:03 00:32:26:16 00:32:28:04 
M2      ERN_F0470_NSCR_1990-12-06_INTV_BTS_DALE_EARNHARDT_NEW_YORK_CITY_TERESA_EARNHARDT_TAYLOR_NICOLE_EARNHARDT_SE000387                          030.0 00:08:25:17 
*FROM CLIP NAME:  ERN_F0470_NSCR_1990-12-06_INTV BTS DALE EARNHARDT NEW YORK CITY TERESA EARNHARDT TAYLOR NICOLE EARNHARDT_SE000387.NEW.01 
*TO CLIP NAME:  ERN_F0470_NSCR_1990-12-06_INTV BTS DALE EARNHARDT NEW YORK CITY TERESA EARNHARDT TAYLOR NICOLE EARNHARDT_SE000387.NEW.01 
*SOURCE FILE: ERN_F0470_NSCR_1990-12-06_INTV BTS DALE EARNHARDT NEW YORK CITY TERESA EARNHARDT TAYLOR NICOLE EARNHARDT_SE000387
001537  ERN_F0470_NSCR_1990-12-06_INTV_BTS_DALE_EARNHARDT_NEW_YORK_CITY_TERESA_EARNHARDT_TAYLOR_NICOLE_EARNHARDT_SE000387                 A18   C        00:08:27:02 00:08:29:23 00:32:28:04 00:32:30:20 
M2      ERN_F0470_NSCR_1990-12-06_INTV_BTS_DALE_EARNHARDT_NEW_YORK_CITY_TERESA_EARNHARDT_TAYLOR_NICOLE_EARNHARDT_SE000387                          030.0 00:08:27:02 
*FROM CLIP NAME:  ERN_F0470_NSCR_1990-12-06_INTV BTS DALE EARNHARDT NEW YORK CITY TERESA EARNHARDT TAYLOR NICOLE EARNHARDT_SE000387.NEW.01 
*SOURCE FILE: ERN_F0470_NSCR_1990-12-06_INTV BTS DALE EARNHARDT NEW YORK CITY TERESA EARNHARDT TAYLOR NICOLE EARNHARDT_SE000387
001538  ERN_F0470_NSCR_1990-12-06_INTV_BTS_DALE_EARNHARDT_NEW_YORK_CITY_TERESA_EARNHARDT_TAYLOR_NICOLE_EARNHARDT_SE000387                 A18   C        00:08:29:22 00:08:30:23 00:32:30:20 00:32:31:20 
M2      ERN_F0470_NSCR_1990-12-06_INTV_BTS_DALE_EARNHARDT_NEW_YORK_CITY_TERESA_EARNHARDT_TAYLOR_NICOLE_EARNHARDT_SE000387                          030.0 00:08:29:22 
*FROM CLIP NAME:  ERN_F0470_NSCR_1990-12-06_INTV BTS DALE EARNHARDT NEW YORK CITY TERESA EARNHARDT TAYLOR NICOLE EARNHARDT_SE000387.NEW.01 
*TO CLIP NAME:  ERN_F0470_NSCR_1990-12-06_INTV BTS DALE EARNHARDT NEW YORK CITY TERESA EARNHARDT TAYLOR NICOLE EARNHARDT_SE000387.NEW.01 
*SOURCE FILE: ERN_F0470_NSCR_1990-12-06_INTV BTS DALE EARNHARDT NEW YORK CITY TERESA EARNHARDT TAYLOR NICOLE EARNHARDT_SE000387
001539  ERN_F0470_NSCR_1990-12-06_INTV_BTS_DALE_EARNHARDT_NEW_YORK_CITY_TERESA_EARNHARDT_TAYLOR_NICOLE_EARNHARDT_SE000387                 A18   C        00:08:30:22 00:08:33:29 00:32:31:20 00:32:35:01 
M2      ERN_F0470_NSCR_1990-12-06_INTV_BTS_DALE_EARNHARDT_NEW_YORK_CITY_TERESA_EARNHARDT_TAYLOR_NICOLE_EARNHARDT_SE000387                          030.0 00:08:30:22 
*FROM CLIP NAME:  ERN_F0470_NSCR_1990-12-06_INTV BTS DALE EARNHARDT NEW YORK CITY TERESA EARNHARDT TAYLOR NICOLE EARNHARDT_SE000387.NEW.01 
*SOURCE FILE: ERN_F0470_NSCR_1990-12-06_INTV BTS DALE EARNHARDT NEW YORK CITY TERESA EARNHARDT TAYLOR NICOLE EARNHARDT_SE000387
001540  ERN_F0470_NSCR_1990-12-06_INTV_BTS_DALE_EARNHARDT_NEW_YORK_CITY_TERESA_EARNHARDT_TAYLOR_NICOLE_EARNHARDT_SE000387                 V     C        00:19:57:26 00:20:00:20 00:32:34:12 00:32:37:07 
M2      ERN_F0470_NSCR_1990-12-06_INTV_BTS_DALE_EARNHARDT_NEW_YORK_CITY_TERESA_EARNHARDT_TAYLOR_NICOLE_EARNHARDT_SE000387                          030.0 00:19:57:26 
*FROM CLIP NAME:  ERN_F0470_NSCR_1990-12-06_INTV BTS DALE EARNHARDT NEW YORK CITY TERESA EARNHARDT TAYLOR NICOLE EARNHARDT_SE000387.NEW.01 
*SOURCE FILE: ERN_F0470_NSCR_1990-12-06_INTV BTS DALE EARNHARDT NEW YORK CITY TERESA EARNHARDT TAYLOR NICOLE EARNHARDT_SE000387
001541  ERN_F9085_DANN_1991-11-13_NON_RACING_DANNY_SR_HOME_VIDEOS_CHRISTMAS_DEJR_KERRY_TAYLOR_MARTHA_DESR_7942_PRORES_422                 A18   C        00:20:27:03 00:20:28:04 00:32:43:05 00:32:44:05 
M2      ERN_F9085_DANN_1991-11-13_NON_RACING_DANNY_SR_HOME_VIDEOS_CHRISTMAS_DEJR_KERRY_TAYLOR_MARTHA_DESR_7942_PRORES_422                          030.0 00:20:27:03 
*FROM CLIP NAME:  ERN_F9085_DANN_1991-11-13_NON RACING DANNY SR HOME VIDEOS CHRISTMAS DEJR KERRY TAYLOR MARTHA DESR_7942_PRORES_422.NEW.01 
*SOURCE FILE: ERN_F9085_DANN_1991-11-13_NON RACING DANNY SR HOME VIDEOS CHRISTMAS DEJR KERRY TAYLOR MARTHA DESR_7942_PRORES_422
001542  ERN_F9085_DANN_1991-11-13_NON_RACING_DANNY_SR_HOME_VIDEOS_CHRISTMAS_DEJR_KERRY_TAYLOR_MARTHA_DESR_7942_PRORES_422                 V     C        00:20:27:18 00:20:35:00 00:32:43:17 00:32:51:02 
M2      ERN_F9085_DANN_1991-11-13_NON_RACING_DANNY_SR_HOME_VIDEOS_CHRISTMAS_DEJR_KERRY_TAYLOR_MARTHA_DESR_7942_PRORES_422                          030.0 00:20:27:18 
*FROM CLIP NAME:  ERN_F9085_DANN_1991-11-13_NON RACING DANNY SR HOME VIDEOS CHRISTMAS DEJR KERRY TAYLOR MARTHA DESR_7942_PRORES_422.NEW.01 
*SOURCE FILE: ERN_F9085_DANN_1991-11-13_NON RACING DANNY SR HOME VIDEOS CHRISTMAS DEJR KERRY TAYLOR MARTHA DESR_7942_PRORES_422
001543  ERN_F9085_DANN_1991-11-13_NON_RACING_DANNY_SR_HOME_VIDEOS_CHRISTMAS_DEJR_KERRY_TAYLOR_MARTHA_DESR_7942_PRORES_422                 A18   C        00:20:28:03 00:20:34:15 00:32:44:05 00:32:50:14 
M2      ERN_F9085_DANN_1991-11-13_NON_RACING_DANNY_SR_HOME_VIDEOS_CHRISTMAS_DEJR_KERRY_TAYLOR_MARTHA_DESR_7942_PRORES_422                          030.0 00:20:28:03 
*FROM CLIP NAME:  ERN_F9085_DANN_1991-11-13_NON RACING DANNY SR HOME VIDEOS CHRISTMAS DEJR KERRY TAYLOR MARTHA DESR_7942_PRORES_422.NEW.01 
*SOURCE FILE: ERN_F9085_DANN_1991-11-13_NON RACING DANNY SR HOME VIDEOS CHRISTMAS DEJR KERRY TAYLOR MARTHA DESR_7942_PRORES_422
001544  ERN_F0299_NSCR_1990-04-04_BTS_INTV_DALE_EARNHARDT_TERESA_EARNHARDT_TAYLOR_NICOLE_EARNHARDT_AT_HOME_SE005933_S002                  A18   C        00:00:56:02 00:00:57:02 00:32:57:02 00:32:58:02 
M2      ERN_F0299_NSCR_1990-04-04_BTS_INTV_DALE_EARNHARDT_TERESA_EARNHARDT_TAYLOR_NICOLE_EARNHARDT_AT_HOME_SE005933_S002                           030.0 00:00:56:02 
*FROM CLIP NAME:  ERN_F0299_NSCR_1990-04-04_BTS INTV DALE EARNHARDT TERESA EARNHARDT TAYLOR NICOLE EARNHARDT AT HOME_SE005933_S002.NEW.01 
*SOURCE FILE: ERN_F0299_NSCR_1990-04-04_BTS INTV DALE EARNHARDT TERESA EARNHARDT TAYLOR NICOLE EARNHARDT AT HOME_SE005933_S002
001545  ERN_F0299_NSCR_1990-04-04_BTS_INTV_DALE_EARNHARDT_TERESA_EARNHARDT_TAYLOR_NICOLE_EARNHARDT_AT_HOME_SE005933_S002                  V     C        00:00:56:17 00:01:00:11 00:32:57:14 00:33:01:07 
M2      ERN_F0299_NSCR_1990-04-04_BTS_INTV_DALE_EARNHARDT_TERESA_EARNHARDT_TAYLOR_NICOLE_EARNHARDT_AT_HOME_SE005933_S002                           030.0 00:00:56:17 
*FROM CLIP NAME:  ERN_F0299_NSCR_1990-04-04_BTS INTV DALE EARNHARDT TERESA EARNHARDT TAYLOR NICOLE EARNHARDT AT HOME_SE005933_S002.NEW.01 
*SOURCE FILE: ERN_F0299_NSCR_1990-04-04_BTS INTV DALE EARNHARDT TERESA EARNHARDT TAYLOR NICOLE EARNHARDT AT HOME_SE005933_S002
001546  ERN_F0299_NSCR_1990-04-04_BTS_INTV_DALE_EARNHARDT_TERESA_EARNHARDT_TAYLOR_NICOLE_EARNHARDT_AT_HOME_SE005933_S002                  A18   C        00:00:57:02 00:00:57:16 00:32:58:02 00:32:58:13 
M2      ERN_F0299_NSCR_1990-04-04_BTS_INTV_DALE_EARNHARDT_TERESA_EARNHARDT_TAYLOR_NICOLE_EARNHARDT_AT_HOME_SE005933_S002                           030.0 00:00:57:02 
*FROM CLIP NAME:  ERN_F0299_NSCR_1990-04-04_BTS INTV DALE EARNHARDT TERESA EARNHARDT TAYLOR NICOLE EARNHARDT AT HOME_SE005933_S002.NEW.01 
*SOURCE FILE: ERN_F0299_NSCR_1990-04-04_BTS INTV DALE EARNHARDT TERESA EARNHARDT TAYLOR NICOLE EARNHARDT AT HOME_SE005933_S002
001547  ERN_F0299_NSCR_1990-04-04_BTS_INTV_DALE_EARNHARDT_TERESA_EARNHARDT_TAYLOR_NICOLE_EARNHARDT_AT_HOME_SE005933_S002                  A18   C        00:00:57:15 00:00:59:01 00:32:58:13 00:33:00:01 
M2      ERN_F0299_NSCR_1990-04-04_BTS_INTV_DALE_EARNHARDT_TERESA_EARNHARDT_TAYLOR_NICOLE_EARNHARDT_AT_HOME_SE005933_S002                           030.0 00:00:57:15 
*FROM CLIP NAME:  ERN_F0299_NSCR_1990-04-04_BTS INTV DALE EARNHARDT TERESA EARNHARDT TAYLOR NICOLE EARNHARDT AT HOME_SE005933_S002.NEW.01 
*TO CLIP NAME:  ERN_F0299_NSCR_1990-04-04_BTS INTV DALE EARNHARDT TERESA EARNHARDT TAYLOR NICOLE EARNHARDT AT HOME_SE005933_S002.NEW.01 
*SOURCE FILE: ERN_F0299_NSCR_1990-04-04_BTS INTV DALE EARNHARDT TERESA EARNHARDT TAYLOR NICOLE EARNHARDT AT HOME_SE005933_S002
001548  ERN_F0299_NSCR_1990-04-04_BTS_INTV_DALE_EARNHARDT_TERESA_EARNHARDT_TAYLOR_NICOLE_EARNHARDT_AT_HOME_SE005933_S002                  A18   C        00:00:59:00 00:01:03:17 00:33:00:01 00:33:04:12 
M2      ERN_F0299_NSCR_1990-04-04_BTS_INTV_DALE_EARNHARDT_TERESA_EARNHARDT_TAYLOR_NICOLE_EARNHARDT_AT_HOME_SE005933_S002                           030.0 00:00:59:00 
*FROM CLIP NAME:  ERN_F0299_NSCR_1990-04-04_BTS INTV DALE EARNHARDT TERESA EARNHARDT TAYLOR NICOLE EARNHARDT AT HOME_SE005933_S002.NEW.01 
*SOURCE FILE: ERN_F0299_NSCR_1990-04-04_BTS INTV DALE EARNHARDT TERESA EARNHARDT TAYLOR NICOLE EARNHARDT AT HOME_SE005933_S002
001549  ERN_F0299_NSCR_1990-04-04_BTS_INTV_DALE_EARNHARDT_TERESA_EARNHARDT_TAYLOR_NICOLE_EARNHARDT_AT_HOME_SE005933_S002                  V     C        00:01:28:19 00:01:38:24 00:33:01:07 00:33:11:11 
M2      ERN_F0299_NSCR_1990-04-04_BTS_INTV_DALE_EARNHARDT_TERESA_EARNHARDT_TAYLOR_NICOLE_EARNHARDT_AT_HOME_SE005933_S002                           030.0 00:01:28:19 
*FROM CLIP NAME:  ERN_F0299_NSCR_1990-04-04_BTS INTV DALE EARNHARDT TERESA EARNHARDT TAYLOR NICOLE EARNHARDT AT HOME_SE005933_S002.NEW.01 
*SOURCE FILE: ERN_F0299_NSCR_1990-04-04_BTS INTV DALE EARNHARDT TERESA EARNHARDT TAYLOR NICOLE EARNHARDT AT HOME_SE005933_S002
001550  ERN_F0299_NSCR_1990-04-04_BTS_INTV_DALE_EARNHARDT_TERESA_EARNHARDT_TAYLOR_NICOLE_EARNHARDT_AT_HOME_SE005933_S002                  A18   C        00:01:31:25 00:01:32:26 00:33:04:12 00:33:05:12 
M2      ERN_F0299_NSCR_1990-04-04_BTS_INTV_DALE_EARNHARDT_TERESA_EARNHARDT_TAYLOR_NICOLE_EARNHARDT_AT_HOME_SE005933_S002                           030.0 00:01:31:25 
*FROM CLIP NAME:  ERN_F0299_NSCR_1990-04-04_BTS INTV DALE EARNHARDT TERESA EARNHARDT TAYLOR NICOLE EARNHARDT AT HOME_SE005933_S002.NEW.01 
*TO CLIP NAME:  ERN_F0299_NSCR_1990-04-04_BTS INTV DALE EARNHARDT TERESA EARNHARDT TAYLOR NICOLE EARNHARDT AT HOME_SE005933_S002.NEW.01 
*SOURCE FILE: ERN_F0299_NSCR_1990-04-04_BTS INTV DALE EARNHARDT TERESA EARNHARDT TAYLOR NICOLE EARNHARDT AT HOME_SE005933_S002
001551  ERN_F0299_NSCR_1990-04-04_BTS_INTV_DALE_EARNHARDT_TERESA_EARNHARDT_TAYLOR_NICOLE_EARNHARDT_AT_HOME_SE005933_S002                  A18   C        00:01:32:25 00:01:36:27 00:33:05:12 00:33:09:13 
M2      ERN_F0299_NSCR_1990-04-04_BTS_INTV_DALE_EARNHARDT_TERESA_EARNHARDT_TAYLOR_NICOLE_EARNHARDT_AT_HOME_SE005933_S002                           030.0 00:01:32:25 
*FROM CLIP NAME:  ERN_F0299_NSCR_1990-04-04_BTS INTV DALE EARNHARDT TERESA EARNHARDT TAYLOR NICOLE EARNHARDT AT HOME_SE005933_S002.NEW.01 
*SOURCE FILE: ERN_F0299_NSCR_1990-04-04_BTS INTV DALE EARNHARDT TERESA EARNHARDT TAYLOR NICOLE EARNHARDT AT HOME_SE005933_S002
001552  ERN_F0799_NSCR_1987-05-17_RACE_DESR_WINNER_BILL_ELLIOTT_CHARLOTTE_-_THE_WINSTON_87-EV-0287                                        A20   C        00:03:04:09 00:03:09:10 00:33:14:13 00:33:19:13 
M2      ERN_F0799_NSCR_1987-05-17_RACE_DESR_WINNER_BILL_ELLIOTT_CHARLOTTE_-_THE_WINSTON_87-EV-0287                                                 030.0 00:03:04:09 
*FROM CLIP NAME:  ERN_F0799_NSCR_1987-05-17_RACE DESR WINNER BILL ELLIOTT CHARLOTTE - THE WINSTON_87-EV-0287.NEW.01 
*SOURCE FILE: ERN_F0799_NSCR_1987-05-17_RACE DESR WINNER BILL ELLIOTT CHARLOTTE - THE WINSTON_87-EV-0287
001553  ERN_F4368_NSCR_1990-09-09_RICHMOND_MILLER_GENUINE_DRAFT_400-RACE_BROADCAST_DESR_WINNER_VICTORY_LANE_DESR_INTV_TAYLOR_CUTE_MOMENT_ V     C        00:56:51:05 00:56:57:02 00:33:14:21 00:33:20:18 
M2      ERN_F4368_NSCR_1990-09-09_RICHMOND_MILLER_GENUINE_DRAFT_400-RACE_BROADCAST_DESR_WINNER_VICTORY_LANE_DESR_INTV_TAYLOR_CUTE_MOMENT_          030.0 00:56:51:05 
*FROM CLIP NAME:  ERN_F4368_NSCR_1990-09-09_RICHMOND MILLER GENUINE DRAFT 400-RACE BROADCAST DESR WINNER VICTORY LANE DESR INTV TAYLOR CUTE MOMENT_90-EV-0414D.NEW.01 
*SOURCE FILE: ERN_F4368_NSCR_1990-09-09_RICHMOND MILLER GENUINE DRAFT 400-RACE BROADCAST DESR WINNER VICTORY LANE DESR INTV TAYLOR CUTE MOMENT_90-EV-0414D
001554  ERN_F0799_NSCR_1987-05-17_RACE_DESR_WINNER_BILL_ELLIOTT_CHARLOTTE_-_THE_WINSTON_87-EV-0287                                        A20   C        00:03:09:09 00:03:13:16 00:33:19:13 00:33:23:18 
M2      ERN_F0799_NSCR_1987-05-17_RACE_DESR_WINNER_BILL_ELLIOTT_CHARLOTTE_-_THE_WINSTON_87-EV-0287                                                 030.0 00:03:09:09 
*FROM CLIP NAME:  ERN_F0799_NSCR_1987-05-17_RACE DESR WINNER BILL ELLIOTT CHARLOTTE - THE WINSTON_87-EV-0287.NEW.01 
*SOURCE FILE: ERN_F0799_NSCR_1987-05-17_RACE DESR WINNER BILL ELLIOTT CHARLOTTE - THE WINSTON_87-EV-0287
001555  ERN_F4368_NSCR_1990-09-09_RICHMOND_MILLER_GENUINE_DRAFT_400-RACE_BROADCAST_DESR_WINNER_VICTORY_LANE_DESR_INTV_TAYLOR_CUTE_MOMENT_ V     C        00:57:04:04 00:57:06:16 00:33:20:18 00:33:23:03 
M2      ERN_F4368_NSCR_1990-09-09_RICHMOND_MILLER_GENUINE_DRAFT_400-RACE_BROADCAST_DESR_WINNER_VICTORY_LANE_DESR_INTV_TAYLOR_CUTE_MOMENT_          030.0 00:57:04:04 
*FROM CLIP NAME:  ERN_F4368_NSCR_1990-09-09_RICHMOND MILLER GENUINE DRAFT 400-RACE BROADCAST DESR WINNER VICTORY LANE DESR INTV TAYLOR CUTE MOMENT_90-EV-0414D.NEW.01 
*SOURCE FILE: ERN_F4368_NSCR_1990-09-09_RICHMOND MILLER GENUINE DRAFT 400-RACE BROADCAST DESR WINNER VICTORY LANE DESR INTV TAYLOR CUTE MOMENT_90-EV-0414D
001556  ERN_F4368_NSCR_1990-09-09_RICHMOND_MILLER_GENUINE_DRAFT_400-RACE_BROADCAST_DESR_WINNER_VICTORY_LANE_DESR_INTV_TAYLOR_CUTE_MOMENT_ V     C        00:57:02:04 00:57:03:26 00:33:23:03 00:33:24:20 
M2      ERN_F4368_NSCR_1990-09-09_RICHMOND_MILLER_GENUINE_DRAFT_400-RACE_BROADCAST_DESR_WINNER_VICTORY_LANE_DESR_INTV_TAYLOR_CUTE_MOMENT_          030.0 00:57:02:04 
*FROM CLIP NAME:  ERN_F4368_NSCR_1990-09-09_RICHMOND MILLER GENUINE DRAFT 400-RACE BROADCAST DESR WINNER VICTORY LANE DESR INTV TAYLOR CUTE MOMENT_90-EV-0414D.NEW.01 
*SOURCE FILE: ERN_F4368_NSCR_1990-09-09_RICHMOND MILLER GENUINE DRAFT 400-RACE BROADCAST DESR WINNER VICTORY LANE DESR INTV TAYLOR CUTE MOMENT_90-EV-0414D
001557  ERN_F4368_NSCR_1990-09-09_RICHMOND_MILLER_GENUINE_DRAFT_400-RACE_BROADCAST_DESR_WINNER_VICTORY_LANE_DESR_INTV_TAYLOR_CUTE_MOMENT_ V     C        00:56:58:25 00:57:00:07 00:33:24:20 00:33:26:04 
M2      ERN_F4368_NSCR_1990-09-09_RICHMOND_MILLER_GENUINE_DRAFT_400-RACE_BROADCAST_DESR_WINNER_VICTORY_LANE_DESR_INTV_TAYLOR_CUTE_MOMENT_          030.0 00:56:58:25 
*FROM CLIP NAME:  ERN_F4368_NSCR_1990-09-09_RICHMOND MILLER GENUINE DRAFT 400-RACE BROADCAST DESR WINNER VICTORY LANE DESR INTV TAYLOR CUTE MOMENT_90-EV-0414D.NEW.01 
*SOURCE FILE: ERN_F4368_NSCR_1990-09-09_RICHMOND MILLER GENUINE DRAFT 400-RACE BROADCAST DESR WINNER VICTORY LANE DESR INTV TAYLOR CUTE MOMENT_90-EV-0414D
001558  ERN_F4368_NSCR_1990-09-09_RICHMOND_MILLER_GENUINE_DRAFT_400-RACE_BROADCAST_DESR_WINNER_VICTORY_LANE_DESR_INTV_TAYLOR_CUTE_MOMENT_ A18   C        01:00:23:05 01:00:23:25 00:33:25:01 00:33:25:17 
M2      ERN_F4368_NSCR_1990-09-09_RICHMOND_MILLER_GENUINE_DRAFT_400-RACE_BROADCAST_DESR_WINNER_VICTORY_LANE_DESR_INTV_TAYLOR_CUTE_MOMENT_          030.0 01:00:23:05 
*FROM CLIP NAME:  ERN_F4368_NSCR_1990-09-09_RICHMOND MILLER GENUINE DRAFT 400-RACE BROADCAST DESR WINNER VICTORY LANE DESR INTV TAYLOR CUTE MOMENT_90-EV-0414D.NEW.01 
*SOURCE FILE: ERN_F4368_NSCR_1990-09-09_RICHMOND MILLER GENUINE DRAFT 400-RACE BROADCAST DESR WINNER VICTORY LANE DESR INTV TAYLOR CUTE MOMENT_90-EV-0414D
001559  ERN_F4368_NSCR_1990-09-09_RICHMOND_MILLER_GENUINE_DRAFT_400-RACE_BROADCAST_DESR_WINNER_VICTORY_LANE_DESR_INTV_TAYLOR_CUTE_MOMENT_ A18   C        01:00:23:25 01:00:27:09 00:33:25:17 00:33:29:04 
M2      ERN_F4368_NSCR_1990-09-09_RICHMOND_MILLER_GENUINE_DRAFT_400-RACE_BROADCAST_DESR_WINNER_VICTORY_LANE_DESR_INTV_TAYLOR_CUTE_MOMENT_          030.0 01:00:23:25 
*FROM CLIP NAME:  ERN_F4368_NSCR_1990-09-09_RICHMOND MILLER GENUINE DRAFT 400-RACE BROADCAST DESR WINNER VICTORY LANE DESR INTV TAYLOR CUTE MOMENT_90-EV-0414D.NEW.01 
*SOURCE FILE: ERN_F4368_NSCR_1990-09-09_RICHMOND MILLER GENUINE DRAFT 400-RACE BROADCAST DESR WINNER VICTORY LANE DESR INTV TAYLOR CUTE MOMENT_90-EV-0414D
001560  ERN_F4368_NSCR_1990-09-09_RICHMOND_MILLER_GENUINE_DRAFT_400-RACE_BROADCAST_DESR_WINNER_VICTORY_LANE_DESR_INTV_TAYLOR_CUTE_MOMENT_ V     C        01:00:24:08 01:00:37:00 00:33:26:04 00:33:38:21 
M2      ERN_F4368_NSCR_1990-09-09_RICHMOND_MILLER_GENUINE_DRAFT_400-RACE_BROADCAST_DESR_WINNER_VICTORY_LANE_DESR_INTV_TAYLOR_CUTE_MOMENT_          030.0 01:00:24:08 
*FROM CLIP NAME:  ERN_F4368_NSCR_1990-09-09_RICHMOND MILLER GENUINE DRAFT 400-RACE BROADCAST DESR WINNER VICTORY LANE DESR INTV TAYLOR CUTE MOMENT_90-EV-0414D.NEW.01 
*SOURCE FILE: ERN_F4368_NSCR_1990-09-09_RICHMOND MILLER GENUINE DRAFT 400-RACE BROADCAST DESR WINNER VICTORY LANE DESR INTV TAYLOR CUTE MOMENT_90-EV-0414D
001561  ERN_F4368_NSCR_1990-09-09_RICHMOND_MILLER_GENUINE_DRAFT_400-RACE_BROADCAST_DESR_WINNER_VICTORY_LANE_DESR_INTV_TAYLOR_CUTE_MOMENT_ A18   C        01:00:27:08 01:00:27:29 00:33:29:04 00:33:29:20 
M2      ERN_F4368_NSCR_1990-09-09_RICHMOND_MILLER_GENUINE_DRAFT_400-RACE_BROADCAST_DESR_WINNER_VICTORY_LANE_DESR_INTV_TAYLOR_CUTE_MOMENT_          030.0 01:00:27:08 
*FROM CLIP NAME:  ERN_F4368_NSCR_1990-09-09_RICHMOND MILLER GENUINE DRAFT 400-RACE BROADCAST DESR WINNER VICTORY LANE DESR INTV TAYLOR CUTE MOMENT_90-EV-0414D.NEW.01 
*TO CLIP NAME:  ERN_F4368_NSCR_1990-09-09_RICHMOND MILLER GENUINE DRAFT 400-RACE BROADCAST DESR WINNER VICTORY LANE DESR INTV TAYLOR CUTE MOMENT_90-EV-0414D.NEW.01 
*SOURCE FILE: ERN_F4368_NSCR_1990-09-09_RICHMOND MILLER GENUINE DRAFT 400-RACE BROADCAST DESR WINNER VICTORY LANE DESR INTV TAYLOR CUTE MOMENT_90-EV-0414D
001562  ERN_F4368_NSCR_1990-09-09_RICHMOND_MILLER_GENUINE_DRAFT_400-RACE_BROADCAST_DESR_WINNER_VICTORY_LANE_DESR_INTV_TAYLOR_CUTE_MOMENT_ A18   C        01:00:27:28 01:00:29:00 00:33:29:20 00:33:30:21 
M2      ERN_F4368_NSCR_1990-09-09_RICHMOND_MILLER_GENUINE_DRAFT_400-RACE_BROADCAST_DESR_WINNER_VICTORY_LANE_DESR_INTV_TAYLOR_CUTE_MOMENT_          030.0 01:00:27:28 
*FROM CLIP NAME:  ERN_F4368_NSCR_1990-09-09_RICHMOND MILLER GENUINE DRAFT 400-RACE BROADCAST DESR WINNER VICTORY LANE DESR INTV TAYLOR CUTE MOMENT_90-EV-0414D.NEW.01 
*SOURCE FILE: ERN_F4368_NSCR_1990-09-09_RICHMOND MILLER GENUINE DRAFT 400-RACE BROADCAST DESR WINNER VICTORY LANE DESR INTV TAYLOR CUTE MOMENT_90-EV-0414D
001563  ERN_F2086_WSOC_DESR_STAR_WARS_INTRO_VOCALS_SPLIT_BY_LALALAI.WAV                                                                   A22   C        01:00:05:07 01:00:06:03 00:33:32:16 00:33:33:12 
*FROM CLIP NAME:  ERN_F2086_WSOC_DESR_STAR WARS INTRO_VOCALS_SPLIT_BY_LALALAI.WAV 
*SOURCE FILE: ERN_F2086_WSOC_DESR_STAR WARS INTRO_VOCALS_SPLIT_BY_LALALAI.WAV
001564  ERN_F2086_WSOC_DESR_STAR_WARS_INTRO_VOCALS_SPLIT_BY_LALALAI.WAV                                                                   A22   C        01:00:06:03 01:00:09:18 00:33:33:12 00:33:37:03 
*FROM CLIP NAME:  ERN_F2086_WSOC_DESR_STAR WARS INTRO_VOCALS_SPLIT_BY_LALALAI.WAV 
*SOURCE FILE: ERN_F2086_WSOC_DESR_STAR WARS INTRO_VOCALS_SPLIT_BY_LALALAI.WAV
001565  ERN_F2086_WSOC_DESR_STAR_WARS_INTRO_VOCALS_SPLIT_BY_LALALAI.WAV                                                                   A22   C        01:00:16:11 01:00:21:00 00:33:37:03 00:33:41:16 
*FROM CLIP NAME:  ERN_F2086_WSOC_DESR_STAR WARS INTRO_VOCALS_SPLIT_BY_LALALAI.WAV 
*SOURCE FILE: ERN_F2086_WSOC_DESR_STAR WARS INTRO_VOCALS_SPLIT_BY_LALALAI.WAV
001566  ERN_F3328_NSCR_1990-11-18_ATLANTA_JOURNAL_500-DESR_NO3_NASCAR_DRIVER_CONFERENCE_MEETING_RUSTY_WALLACE_AWARD_DESR__LGP03469        A18   C        00:00:00:00 00:00:00:15 00:33:38:08 00:33:38:20 
M2      ERN_F3328_NSCR_1990-11-18_ATLANTA_JOURNAL_500-DESR_NO3_NASCAR_DRIVER_CONFERENCE_MEETING_RUSTY_WALLACE_AWARD_DESR__LGP03469                 030.0 00:00:00:00 
*FROM CLIP NAME:  ERN_F3328_NSCR_1990-11-18_ATLANTA JOURNAL 500-DESR NO3 NASCAR DRIVER CONFERENCE MEETING RUSTY WALLACE AWARD DESR _LGP03469.NEW.01 
*SOURCE FILE: ERN_F3328_NSCR_1990-11-18_ATLANTA JOURNAL 500-DESR NO3 NASCAR DRIVER CONFERENCE MEETING RUSTY WALLACE AWARD DESR _LGP03469
001567  ERN_F3328_NSCR_1990-11-18_ATLANTA_JOURNAL_500-DESR_NO3_NASCAR_DRIVER_CONFERENCE_MEETING_RUSTY_WALLACE_AWARD_DESR__LGP03469        A18   C        00:00:00:15 00:00:07:00 00:33:38:20 00:33:45:08 
M2      ERN_F3328_NSCR_1990-11-18_ATLANTA_JOURNAL_500-DESR_NO3_NASCAR_DRIVER_CONFERENCE_MEETING_RUSTY_WALLACE_AWARD_DESR__LGP03469                 030.0 00:00:00:15 
*FROM CLIP NAME:  ERN_F3328_NSCR_1990-11-18_ATLANTA JOURNAL 500-DESR NO3 NASCAR DRIVER CONFERENCE MEETING RUSTY WALLACE AWARD DESR _LGP03469.NEW.01 
*SOURCE FILE: ERN_F3328_NSCR_1990-11-18_ATLANTA JOURNAL 500-DESR NO3 NASCAR DRIVER CONFERENCE MEETING RUSTY WALLACE AWARD DESR _LGP03469
001568  ERN_F2086_WSOC_VARIOUS_DTES_INTV_BTS_B-ROLL_DESR_DEJR_TERESA_KELLEY_FAMILY_TRACK_SCREENER                                         V     C        00:54:19:08 00:54:22:10 00:33:38:21 00:33:41:22 
M2      ERN_F2086_WSOC_VARIOUS_DTES_INTV_BTS_B-ROLL_DESR_DEJR_TERESA_KELLEY_FAMILY_TRACK_SCREENER                                                  060.0 00:54:19:08 
*FROM CLIP NAME:  ERN_F2086_WSOC_VARIOUS DTES_INTV BTS B-ROLL DESR DEJR TERESA KELLEY FAMILY TRACK_SCREENER.NEW.02 
*SOURCE FILE: ERN_F2086_WSOC_VARIOUS DTES_INTV BTS B-ROLL DESR DEJR TERESA KELLEY FAMILY TRACK_SCREENER
001569  ERN_F2086_WSOC_VARIOUS_DTES_INTV_BTS_B-ROLL_DESR_DEJR_TERESA_KELLEY_FAMILY_TRACK_SCREENER                                         V     C        00:54:25:10 00:54:29:07 00:33:41:22 00:33:45:20 
M2      ERN_F2086_WSOC_VARIOUS_DTES_INTV_BTS_B-ROLL_DESR_DEJR_TERESA_KELLEY_FAMILY_TRACK_SCREENER                                                  060.0 00:54:25:10 
*FROM CLIP NAME:  ERN_F2086_WSOC_VARIOUS DTES_INTV BTS B-ROLL DESR DEJR TERESA KELLEY FAMILY TRACK_SCREENER.NEW.02 
*SOURCE FILE: ERN_F2086_WSOC_VARIOUS DTES_INTV BTS B-ROLL DESR DEJR TERESA KELLEY FAMILY TRACK_SCREENER
001570  ERN_F2086_WSOC_VARIOUS_DTES_INTV_BTS_B-ROLL_DESR_DEJR_TERESA_KELLEY_FAMILY_TRACK_SCREENER                                         A22   C        00:54:25:11 00:54:26:01 00:33:41:23 00:33:42:15 
M2      ERN_F2086_WSOC_VARIOUS_DTES_INTV_BTS_B-ROLL_DESR_DEJR_TERESA_KELLEY_FAMILY_TRACK_SCREENER                                                  060.0 00:54:25:11 
*FROM CLIP NAME:  ERN_F2086_WSOC_VARIOUS DTES_INTV BTS B-ROLL DESR DEJR TERESA KELLEY FAMILY TRACK_SCREENER.NEW.02 
*SOURCE FILE: ERN_F2086_WSOC_VARIOUS DTES_INTV BTS B-ROLL DESR DEJR TERESA KELLEY FAMILY TRACK_SCREENER
001571  ERN_F2086_WSOC_VARIOUS_DTES_INTV_BTS_B-ROLL_DESR_DEJR_TERESA_KELLEY_FAMILY_TRACK_SCREENER                                         A22   C        00:54:26:01 00:54:28:27 00:33:42:15 00:33:45:12 
M2      ERN_F2086_WSOC_VARIOUS_DTES_INTV_BTS_B-ROLL_DESR_DEJR_TERESA_KELLEY_FAMILY_TRACK_SCREENER                                                  060.0 00:54:26:01 
*FROM CLIP NAME:  ERN_F2086_WSOC_VARIOUS DTES_INTV BTS B-ROLL DESR DEJR TERESA KELLEY FAMILY TRACK_SCREENER.NEW.02 
*SOURCE FILE: ERN_F2086_WSOC_VARIOUS DTES_INTV BTS B-ROLL DESR DEJR TERESA KELLEY FAMILY TRACK_SCREENER
001572  ERN_F0366_FOXS_1987-04-30_NEWS_INTV_BILL_ELLIOT_NEIL_BONNETT_DALE_EARNHARDT_TALLADEGA_QUALIFYING_1002762_013                      A24   C        00:00:09:01 00:00:12:02 00:33:44:12 00:33:47:12 
M2      ERN_F0366_FOXS_1987-04-30_NEWS_INTV_BILL_ELLIOT_NEIL_BONNETT_DALE_EARNHARDT_TALLADEGA_QUALIFYING_1002762_013                               030.0 00:00:09:01 
*FROM CLIP NAME:  ERN_F0366_FOXS_1987-04-30_NEWS INTV BILL ELLIOT NEIL BONNETT DALE EARNHARDT TALLADEGA QUALIFYING_1002762_013.NEW.01 
*SOURCE FILE: ERN_F0366_FOXS_1987-04-30_NEWS INTV BILL ELLIOT NEIL BONNETT DALE EARNHARDT TALLADEGA QUALIFYING_1002762_013
001573  ERN_F0366_FOXS_1987-04-30_NEWS_INTV_BILL_ELLIOT_NEIL_BONNETT_DALE_EARNHARDT_TALLADEGA_QUALIFYING_1002762_013                      A20   C        00:00:09:06 00:00:12:07 00:33:44:16 00:33:47:16 
M2      ERN_F0366_FOXS_1987-04-30_NEWS_INTV_BILL_ELLIOT_NEIL_BONNETT_DALE_EARNHARDT_TALLADEGA_QUALIFYING_1002762_013                               030.0 00:00:09:06 
*FROM CLIP NAME:  ERN_F0366_FOXS_1987-04-30_NEWS INTV BILL ELLIOT NEIL BONNETT DALE EARNHARDT TALLADEGA QUALIFYING_1002762_013.NEW.01 
*SOURCE FILE: ERN_F0366_FOXS_1987-04-30_NEWS INTV BILL ELLIOT NEIL BONNETT DALE EARNHARDT TALLADEGA QUALIFYING_1002762_013
001574  ERN_F2086_WSOC_VARIOUS_DTES_INTV_BTS_B-ROLL_DESR_DEJR_TERESA_KELLEY_FAMILY_TRACK_SCREENER                                         V     C        00:54:52:02 00:54:53:26 00:33:45:20 00:33:47:20 
M2      ERN_F2086_WSOC_VARIOUS_DTES_INTV_BTS_B-ROLL_DESR_DEJR_TERESA_KELLEY_FAMILY_TRACK_SCREENER                                                  054.0 00:54:52:02 
*FROM CLIP NAME:  ERN_F2086_WSOC_VARIOUS DTES_INTV BTS B-ROLL DESR DEJR TERESA KELLEY FAMILY TRACK_SCREENER.NEW.02 
*SOURCE FILE: ERN_F2086_WSOC_VARIOUS DTES_INTV BTS B-ROLL DESR DEJR TERESA KELLEY FAMILY TRACK_SCREENER
001575  ERN_F2086_WSOC_VARIOUS_DTES_INTV_BTS_B-ROLL_DESR_DEJR_TERESA_KELLEY_FAMILY_TRACK_SCREENER                                         A22   C        00:54:52:12 00:54:52:17 00:33:46:12 00:33:46:16 
M2      ERN_F2086_WSOC_VARIOUS_DTES_INTV_BTS_B-ROLL_DESR_DEJR_TERESA_KELLEY_FAMILY_TRACK_SCREENER                                                  060.0 00:54:52:12 
*FROM CLIP NAME:  ERN_F2086_WSOC_VARIOUS DTES_INTV BTS B-ROLL DESR DEJR TERESA KELLEY FAMILY TRACK_SCREENER.NEW.02 
*SOURCE FILE: ERN_F2086_WSOC_VARIOUS DTES_INTV BTS B-ROLL DESR DEJR TERESA KELLEY FAMILY TRACK_SCREENER
001576  ERN_F2086_WSOC_VARIOUS_DTES_INTV_BTS_B-ROLL_DESR_DEJR_TERESA_KELLEY_FAMILY_TRACK_SCREENER                                         A22   C        00:54:52:17 00:54:55:07 00:33:46:16 00:33:49:08 
M2      ERN_F2086_WSOC_VARIOUS_DTES_INTV_BTS_B-ROLL_DESR_DEJR_TERESA_KELLEY_FAMILY_TRACK_SCREENER                                                  060.0 00:54:52:17 
*FROM CLIP NAME:  ERN_F2086_WSOC_VARIOUS DTES_INTV BTS B-ROLL DESR DEJR TERESA KELLEY FAMILY TRACK_SCREENER.NEW.02 
*SOURCE FILE: ERN_F2086_WSOC_VARIOUS DTES_INTV BTS B-ROLL DESR DEJR TERESA KELLEY FAMILY TRACK_SCREENER
001577  ERN_F0366_FOXS_1987-04-30_NEWS_INTV_BILL_ELLIOT_NEIL_BONNETT_DALE_EARNHARDT_TALLADEGA_QUALIFYING_1002762_013                      A24   C        00:00:12:01 00:00:12:12 00:33:47:12 00:33:47:20 
M2      ERN_F0366_FOXS_1987-04-30_NEWS_INTV_BILL_ELLIOT_NEIL_BONNETT_DALE_EARNHARDT_TALLADEGA_QUALIFYING_1002762_013                               030.0 00:00:12:01 
*FROM CLIP NAME:  ERN_F0366_FOXS_1987-04-30_NEWS INTV BILL ELLIOT NEIL BONNETT DALE EARNHARDT TALLADEGA QUALIFYING_1002762_013.NEW.01 
*SOURCE FILE: ERN_F0366_FOXS_1987-04-30_NEWS INTV BILL ELLIOT NEIL BONNETT DALE EARNHARDT TALLADEGA QUALIFYING_1002762_013
001578  ERN_F0366_FOXS_1987-04-30_NEWS_INTV_BILL_ELLIOT_NEIL_BONNETT_DALE_EARNHARDT_TALLADEGA_QUALIFYING_1002762_013                      A20   C        00:00:12:06 00:00:12:12 00:33:47:16 00:33:47:20 
M2      ERN_F0366_FOXS_1987-04-30_NEWS_INTV_BILL_ELLIOT_NEIL_BONNETT_DALE_EARNHARDT_TALLADEGA_QUALIFYING_1002762_013                               030.0 00:00:12:06 
*FROM CLIP NAME:  ERN_F0366_FOXS_1987-04-30_NEWS INTV BILL ELLIOT NEIL BONNETT DALE EARNHARDT TALLADEGA QUALIFYING_1002762_013.NEW.01 
*SOURCE FILE: ERN_F0366_FOXS_1987-04-30_NEWS INTV BILL ELLIOT NEIL BONNETT DALE EARNHARDT TALLADEGA QUALIFYING_1002762_013
001579  ERN_F2086_WSOC_VARIOUS_DTES_INTV_BTS_B-ROLL_DESR_DEJR_TERESA_KELLEY_FAMILY_TRACK_SCREENER                                         V     C        00:54:53:28 00:54:56:26 00:33:47:20 00:33:50:18 
M2      ERN_F2086_WSOC_VARIOUS_DTES_INTV_BTS_B-ROLL_DESR_DEJR_TERESA_KELLEY_FAMILY_TRACK_SCREENER                                                  060.0 00:54:53:28 
*FROM CLIP NAME:  ERN_F2086_WSOC_VARIOUS DTES_INTV BTS B-ROLL DESR DEJR TERESA KELLEY FAMILY TRACK_SCREENER.NEW.02 
*SOURCE FILE: ERN_F2086_WSOC_VARIOUS DTES_INTV BTS B-ROLL DESR DEJR TERESA KELLEY FAMILY TRACK_SCREENER
001580  ERN_F2086_WSOC_VARIOUS_DTES_INTV_BTS_B-ROLL_DESR_DEJR_TERESA_KELLEY_FAMILY_TRACK_SCREENER                                         A22   C        00:54:55:21 00:54:55:22 00:33:49:08 00:33:49:09 
M2      ERN_F2086_WSOC_VARIOUS_DTES_INTV_BTS_B-ROLL_DESR_DEJR_TERESA_KELLEY_FAMILY_TRACK_SCREENER                                                  060.0 00:54:55:21 
*FROM CLIP NAME:  ERN_F2086_WSOC_VARIOUS DTES_INTV BTS B-ROLL DESR DEJR TERESA KELLEY FAMILY TRACK_SCREENER.NEW.02 
*TO CLIP NAME:  ERN_F2086_WSOC_VARIOUS DTES_INTV BTS B-ROLL DESR DEJR TERESA KELLEY FAMILY TRACK_SCREENER.NEW.02 
*SOURCE FILE: ERN_F2086_WSOC_VARIOUS DTES_INTV BTS B-ROLL DESR DEJR TERESA KELLEY FAMILY TRACK_SCREENER
001581  ERN_F2086_WSOC_VARIOUS_DTES_INTV_BTS_B-ROLL_DESR_DEJR_TERESA_KELLEY_FAMILY_TRACK_SCREENER                                         A22   C        00:54:55:22 00:54:56:22 00:33:49:09 00:33:50:09 
M2      ERN_F2086_WSOC_VARIOUS_DTES_INTV_BTS_B-ROLL_DESR_DEJR_TERESA_KELLEY_FAMILY_TRACK_SCREENER                                                  060.0 00:54:55:22 
*FROM CLIP NAME:  ERN_F2086_WSOC_VARIOUS DTES_INTV BTS B-ROLL DESR DEJR TERESA KELLEY FAMILY TRACK_SCREENER.NEW.02 
*SOURCE FILE: ERN_F2086_WSOC_VARIOUS DTES_INTV BTS B-ROLL DESR DEJR TERESA KELLEY FAMILY TRACK_SCREENER
001582  ERN_F1645_NSCR_1990-04-01_4_OF_5_RACE_B-ROLL_TRANSOUTH_500_DARLINGTON_DESR_NO3_&_VICTORY_LANE_INTV_&_SCENES_90-EV-0142            A18   C        00:17:09:14 00:17:10:15 00:33:50:06 00:33:51:06 
M2      ERN_F1645_NSCR_1990-04-01_4_OF_5_RACE_B-ROLL_TRANSOUTH_500_DARLINGTON_DESR_NO3_&_VICTORY_LANE_INTV_&_SCENES_90-EV-0142                     030.0 00:17:09:14 
*FROM CLIP NAME:  ERN_F1645_NSCR_1990-04-01_4 OF 5 RACE B-ROLL TRANSOUTH 500 DARLINGTON DESR NO3 & VICTORY LANE INTV & SCENES_90-EV-0142.NEW.01 
*SOURCE FILE: ERN_F1645_NSCR_1990-04-01_4 OF 5 RACE B-ROLL TRANSOUTH 500 DARLINGTON DESR NO3 & VICTORY LANE INTV & SCENES_90-EV-0142
001583  ERN_F1645_NSCR_1990-04-01_4_OF_5_RACE_B-ROLL_TRANSOUTH_500_DARLINGTON_DESR_NO3_&_VICTORY_LANE_INTV_&_SCENES_90-EV-0142            V     C        00:15:32:20 00:15:35:21 00:33:50:18 00:33:53:18 
M2      ERN_F1645_NSCR_1990-04-01_4_OF_5_RACE_B-ROLL_TRANSOUTH_500_DARLINGTON_DESR_NO3_&_VICTORY_LANE_INTV_&_SCENES_90-EV-0142                     030.0 00:15:32:20 
*FROM CLIP NAME:  ERN_F1645_NSCR_1990-04-01_4 OF 5 RACE B-ROLL TRANSOUTH 500 DARLINGTON DESR NO3 & VICTORY LANE INTV & SCENES_90-EV-0142.NEW.01 
*SOURCE FILE: ERN_F1645_NSCR_1990-04-01_4 OF 5 RACE B-ROLL TRANSOUTH 500 DARLINGTON DESR NO3 & VICTORY LANE INTV & SCENES_90-EV-0142
001584  ERN_F1645_NSCR_1990-04-01_4_OF_5_RACE_B-ROLL_TRANSOUTH_500_DARLINGTON_DESR_NO3_&_VICTORY_LANE_INTV_&_SCENES_90-EV-0142            A18   C        00:17:10:14 00:17:11:24 00:33:51:06 00:33:52:13 
M2      ERN_F1645_NSCR_1990-04-01_4_OF_5_RACE_B-ROLL_TRANSOUTH_500_DARLINGTON_DESR_NO3_&_VICTORY_LANE_INTV_&_SCENES_90-EV-0142                     030.0 00:17:10:14 
*FROM CLIP NAME:  ERN_F1645_NSCR_1990-04-01_4 OF 5 RACE B-ROLL TRANSOUTH 500 DARLINGTON DESR NO3 & VICTORY LANE INTV & SCENES_90-EV-0142.NEW.01 
*SOURCE FILE: ERN_F1645_NSCR_1990-04-01_4 OF 5 RACE B-ROLL TRANSOUTH 500 DARLINGTON DESR NO3 & VICTORY LANE INTV & SCENES_90-EV-0142
001585  ERN_F5191_NSCR_2005-10-11_RICHARD_CHILDRESS_INTV_SE003105                                                                         A20   C        00:05:38:06 00:05:38:10 00:33:52:22 00:33:53:00 
M2      ERN_F5191_NSCR_2005-10-11_RICHARD_CHILDRESS_INTV_SE003105                                                                                  030.0 00:05:38:06 
*FROM CLIP NAME:  ERN_F5191_NSCR_2005-10-11_RICHARD CHILDRESS INTV_SE003105.NEW.01 
*SOURCE FILE: ERN_F5191_NSCR_2005-10-11_RICHARD CHILDRESS INTV_SE003105
001586  ERN_F5191_NSCR_2005-10-11_RICHARD_CHILDRESS_INTV_SE003105                                                                         A20   C        00:05:38:09 00:05:46:17 00:33:53:00 00:34:01:06 
M2      ERN_F5191_NSCR_2005-10-11_RICHARD_CHILDRESS_INTV_SE003105                                                                                  030.0 00:05:38:09 
*FROM CLIP NAME:  ERN_F5191_NSCR_2005-10-11_RICHARD CHILDRESS INTV_SE003105.NEW.01 
*SOURCE FILE: ERN_F5191_NSCR_2005-10-11_RICHARD CHILDRESS INTV_SE003105
001587  ERN_F1646_NSCR_1990-04-01_5_OF_5_RACE_B-ROLL_TRANSOUTH_500_DARLINGTON_DESR_NO3_&_VICTORY_LANE_SCENES_W_TERESA_EARNHARDT_TAYLOR_EA V     C        00:15:54:09 00:15:57:27 00:33:53:18 00:33:57:08 
M2      ERN_F1646_NSCR_1990-04-01_5_OF_5_RACE_B-ROLL_TRANSOUTH_500_DARLINGTON_DESR_NO3_&_VICTORY_LANE_SCENES_W_TERESA_EARNHARDT_TAYLOR_EA          030.0 00:15:54:09 
*FROM CLIP NAME:  ERN_F1646_NSCR_1990-04-01_5 OF 5 RACE B-ROLL TRANSOUTH 500 DARLINGTON DESR NO3 & VICTORY LANE SCENES W TERESA EARNHARDT TAYLOR EARNHARDT & CREW_90-EV-0144.NEW.01 
*SOURCE FILE: ERN_F1646_NSCR_1990-04-01_5 OF 5 RACE B-ROLL TRANSOUTH 500 DARLINGTON DESR NO3 & VICTORY LANE SCENES W TERESA EARNHARDT TAYLOR EARNHARDT & CREW_90-EV-0144
001588  ERN_F0242_NSCR_1990_17_OF_17_B-ROLL_DALE_EARNHARDT_RICHARD_CHILDRESS_IN_GARAGE_SE005535_S017                                      V     C        00:27:51:09 00:27:57:23 00:33:57:08 00:34:03:18 
M2      ERN_F0242_NSCR_1990_17_OF_17_B-ROLL_DALE_EARNHARDT_RICHARD_CHILDRESS_IN_GARAGE_SE005535_S017                                               030.0 00:27:51:09 
*FROM CLIP NAME:  ERN_F0242_NSCR_1990_17 OF 17 B-ROLL DALE EARNHARDT RICHARD CHILDRESS IN GARAGE_SE005535_S017.NEW.01 
*SOURCE FILE: ERN_F0242_NSCR_1990_17 OF 17 B-ROLL DALE EARNHARDT RICHARD CHILDRESS IN GARAGE_SE005535_S017
001589  ERN_F0973_NSCR_1990-04-04_B-ROLL_DESR_IN_GARAGE_W_FANS_&_WESSA_MILLER_&_TAYLOR_NICOLE_EARNHARDT_&_BLOOPER_REEL_SE005940           A22   C        00:16:56:16 00:16:57:17 00:33:58:19 00:33:59:19 
M2      ERN_F0973_NSCR_1990-04-04_B-ROLL_DESR_IN_GARAGE_W_FANS_&_WESSA_MILLER_&_TAYLOR_NICOLE_EARNHARDT_&_BLOOPER_REEL_SE005940                    030.0 00:16:56:16 
*FROM CLIP NAME:  ERN_F0973_NSCR_1990-04-04_B-ROLL DESR IN GARAGE W FANS & WESSA MILLER & TAYLOR NICOLE EARNHARDT & BLOOPER REEL_SE005940.NEW.01 
*SOURCE FILE: ERN_F0973_NSCR_1990-04-04_B-ROLL DESR IN GARAGE W FANS & WESSA MILLER & TAYLOR NICOLE EARNHARDT & BLOOPER REEL_SE005940
001590  ERN_F0973_NSCR_1990-04-04_B-ROLL_DESR_IN_GARAGE_W_FANS_&_WESSA_MILLER_&_TAYLOR_NICOLE_EARNHARDT_&_BLOOPER_REEL_SE005940           A22   C        00:16:57:16 00:17:02:21 00:33:59:19 00:34:04:21 
M2      ERN_F0973_NSCR_1990-04-04_B-ROLL_DESR_IN_GARAGE_W_FANS_&_WESSA_MILLER_&_TAYLOR_NICOLE_EARNHARDT_&_BLOOPER_REEL_SE005940                    030.0 00:16:57:16 
*FROM CLIP NAME:  ERN_F0973_NSCR_1990-04-04_B-ROLL DESR IN GARAGE W FANS & WESSA MILLER & TAYLOR NICOLE EARNHARDT & BLOOPER REEL_SE005940.NEW.01 
*SOURCE FILE: ERN_F0973_NSCR_1990-04-04_B-ROLL DESR IN GARAGE W FANS & WESSA MILLER & TAYLOR NICOLE EARNHARDT & BLOOPER REEL_SE005940
001591  ERN_F5191_NSCR_2005-10-11_RICHARD_CHILDRESS_INTV_SE003105                                                                         A20   C        00:05:47:29 00:05:48:15 00:34:01:06 00:34:01:18 
M2      ERN_F5191_NSCR_2005-10-11_RICHARD_CHILDRESS_INTV_SE003105                                                                                  030.0 00:05:47:29 
*FROM CLIP NAME:  ERN_F5191_NSCR_2005-10-11_RICHARD CHILDRESS INTV_SE003105.NEW.01 
*SOURCE FILE: ERN_F5191_NSCR_2005-10-11_RICHARD CHILDRESS INTV_SE003105
001592  ERN_F5191_NSCR_2005-10-11_RICHARD_CHILDRESS_INTV_SE003105                                                                         A20   C        00:05:50:19 00:05:51:22 00:34:01:18 00:34:02:20 
M2      ERN_F5191_NSCR_2005-10-11_RICHARD_CHILDRESS_INTV_SE003105                                                                                  030.0 00:05:50:19 
*FROM CLIP NAME:  ERN_F5191_NSCR_2005-10-11_RICHARD CHILDRESS INTV_SE003105.NEW.01 
*SOURCE FILE: ERN_F5191_NSCR_2005-10-11_RICHARD CHILDRESS INTV_SE003105
001593  ERN_F0226_NSCR_1990_1_OF_17_B-ROLL_DALE_EARNHARDT_DALE_EARNHARDT_JR_GARAGE_RACETRACK_NO3_CRASH_SE005535_S001                      A18   C        00:00:21:16 00:00:23:02 00:34:02:18 00:34:04:06 
M2      ERN_F0226_NSCR_1990_1_OF_17_B-ROLL_DALE_EARNHARDT_DALE_EARNHARDT_JR_GARAGE_RACETRACK_NO3_CRASH_SE005535_S001                               030.0 00:00:21:16 
*FROM CLIP NAME:  ERN_F0226_NSCR_1990_1 OF 17 B-ROLL DALE EARNHARDT DALE EARNHARDT JR GARAGE RACETRACK NO3 CRASH_SE005535_S001.NEW.01 
*SOURCE FILE: ERN_F0226_NSCR_1990_1 OF 17 B-ROLL DALE EARNHARDT DALE EARNHARDT JR GARAGE RACETRACK NO3 CRASH_SE005535_S001
001594  ERN_F0226_NSCR_1990_1_OF_17_B-ROLL_DALE_EARNHARDT_DALE_EARNHARDT_JR_GARAGE_RACETRACK_NO3_CRASH_SE005535_S001                      V     C        00:00:22:16 00:00:32:02 00:34:03:18 00:34:13:06 
M2      ERN_F0226_NSCR_1990_1_OF_17_B-ROLL_DALE_EARNHARDT_DALE_EARNHARDT_JR_GARAGE_RACETRACK_NO3_CRASH_SE005535_S001                               030.0 00:00:22:16 
*FROM CLIP NAME:  ERN_F0226_NSCR_1990_1 OF 17 B-ROLL DALE EARNHARDT DALE EARNHARDT JR GARAGE RACETRACK NO3 CRASH_SE005535_S001.NEW.01 
*SOURCE FILE: ERN_F0226_NSCR_1990_1 OF 17 B-ROLL DALE EARNHARDT DALE EARNHARDT JR GARAGE RACETRACK NO3 CRASH_SE005535_S001
001595  ERN_F0226_NSCR_1990_1_OF_17_B-ROLL_DALE_EARNHARDT_DALE_EARNHARDT_JR_GARAGE_RACETRACK_NO3_CRASH_SE005535_S001                      A18   C        00:00:23:01 00:00:31:13 00:34:04:06 00:34:12:15 
M2      ERN_F0226_NSCR_1990_1_OF_17_B-ROLL_DALE_EARNHARDT_DALE_EARNHARDT_JR_GARAGE_RACETRACK_NO3_CRASH_SE005535_S001                               030.0 00:00:23:01 
*FROM CLIP NAME:  ERN_F0226_NSCR_1990_1 OF 17 B-ROLL DALE EARNHARDT DALE EARNHARDT JR GARAGE RACETRACK NO3 CRASH_SE005535_S001.NEW.01 
*SOURCE FILE: ERN_F0226_NSCR_1990_1 OF 17 B-ROLL DALE EARNHARDT DALE EARNHARDT JR GARAGE RACETRACK NO3 CRASH_SE005535_S001
001596  ERN_F0933_NSCR_1987_DESR_DRUNK_LAKE_INTV_NAS-00057_S001                                                                           A20   C        01:54:23:07 01:54:23:11 00:34:04:21 00:34:05:00 
M2      ERN_F0933_NSCR_1987_DESR_DRUNK_LAKE_INTV_NAS-00057_S001                                                                                    030.0 01:54:23:07 
*FROM CLIP NAME:  ERN_F0933_NSCR_1987_DESR DRUNK LAKE INTV_NAS-00057_S001.NEW.01 
*SOURCE FILE: ERN_F0933_NSCR_1987_DESR DRUNK LAKE INTV_NAS-00057_S001
001597  ERN_F0933_NSCR_1987_DESR_DRUNK_LAKE_INTV_NAS-00057_S001                                                                           A20   C        01:54:23:11 01:54:24:06 00:34:05:00 00:34:05:20 
M2      ERN_F0933_NSCR_1987_DESR_DRUNK_LAKE_INTV_NAS-00057_S001                                                                                    030.0 01:54:23:11 
*FROM CLIP NAME:  ERN_F0933_NSCR_1987_DESR DRUNK LAKE INTV_NAS-00057_S001.NEW.01 
*SOURCE FILE: ERN_F0933_NSCR_1987_DESR DRUNK LAKE INTV_NAS-00057_S001
001598  ERN_F0933_NSCR_1987_DESR_DRUNK_LAKE_INTV_NAS-00057_S001                                                                           A20   C        01:54:27:18 01:54:27:24 00:34:05:20 00:34:06:00 
M2      ERN_F0933_NSCR_1987_DESR_DRUNK_LAKE_INTV_NAS-00057_S001                                                                                    030.0 01:54:27:18 
*FROM CLIP NAME:  ERN_F0933_NSCR_1987_DESR DRUNK LAKE INTV_NAS-00057_S001.NEW.01 
*TO CLIP NAME:  ERN_F0933_NSCR_1987_DESR DRUNK LAKE INTV_NAS-00057_S001.NEW.01 
*SOURCE FILE: ERN_F0933_NSCR_1987_DESR DRUNK LAKE INTV_NAS-00057_S001
001599  ERN_F0933_NSCR_1987_DESR_DRUNK_LAKE_INTV_NAS-00057_S001                                                                           A20   C        01:54:27:23 01:54:30:05 00:34:06:00 00:34:08:09 
M2      ERN_F0933_NSCR_1987_DESR_DRUNK_LAKE_INTV_NAS-00057_S001                                                                                    030.0 01:54:27:23 
*FROM CLIP NAME:  ERN_F0933_NSCR_1987_DESR DRUNK LAKE INTV_NAS-00057_S001.NEW.01 
*SOURCE FILE: ERN_F0933_NSCR_1987_DESR DRUNK LAKE INTV_NAS-00057_S001
001600  ERN_F0933_NSCR_1987_DESR_DRUNK_LAKE_INTV_NAS-00057_S001                                                                           A20   C        01:54:32:11 01:54:34:10 00:34:08:09 00:34:10:08 
M2      ERN_F0933_NSCR_1987_DESR_DRUNK_LAKE_INTV_NAS-00057_S001                                                                                    030.0 01:54:32:11 
*FROM CLIP NAME:  ERN_F0933_NSCR_1987_DESR DRUNK LAKE INTV_NAS-00057_S001.NEW.01 
*SOURCE FILE: ERN_F0933_NSCR_1987_DESR DRUNK LAKE INTV_NAS-00057_S001
001601  ERN_F0933_NSCR_1987_DESR_DRUNK_LAKE_INTV_NAS-00057_S001                                                                           A20   C        01:54:34:23 01:54:36:14 00:34:10:08 00:34:12:00 
M2      ERN_F0933_NSCR_1987_DESR_DRUNK_LAKE_INTV_NAS-00057_S001                                                                                    030.0 01:54:34:23 
*FROM CLIP NAME:  ERN_F0933_NSCR_1987_DESR DRUNK LAKE INTV_NAS-00057_S001.NEW.01 
*SOURCE FILE: ERN_F0933_NSCR_1987_DESR DRUNK LAKE INTV_NAS-00057_S001
001602  ERN_F1646_NSCR_1990-04-01_5_OF_5_RACE_B-ROLL_TRANSOUTH_500_DARLINGTON_DESR_NO3_&_VICTORY_LANE_SCENES_W_TERESA_EARNHARDT_TAYLOR_EA A22   C        00:10:41:07 00:10:42:23 00:34:11:15 00:34:13:03 
M2      ERN_F1646_NSCR_1990-04-01_5_OF_5_RACE_B-ROLL_TRANSOUTH_500_DARLINGTON_DESR_NO3_&_VICTORY_LANE_SCENES_W_TERESA_EARNHARDT_TAYLOR_EA          030.0 00:10:41:07 
*FROM CLIP NAME:  ERN_F1646_NSCR_1990-04-01_5 OF 5 RACE B-ROLL TRANSOUTH 500 DARLINGTON DESR NO3 & VICTORY LANE SCENES W TERESA EARNHARDT TAYLOR EARNHARDT & CREW_90-EV-0144.NEW.01 
*SOURCE FILE: ERN_F1646_NSCR_1990-04-01_5 OF 5 RACE B-ROLL TRANSOUTH 500 DARLINGTON DESR NO3 & VICTORY LANE SCENES W TERESA EARNHARDT TAYLOR EARNHARDT & CREW_90-EV-0144
001603  ERN_F0933_NSCR_1987_DESR_DRUNK_LAKE_INTV_NAS-00057_S001                                                                           A20   C        01:54:39:21 01:54:39:26 00:34:12:00 00:34:12:04 
M2      ERN_F0933_NSCR_1987_DESR_DRUNK_LAKE_INTV_NAS-00057_S001                                                                                    030.0 01:54:39:21 
*FROM CLIP NAME:  ERN_F0933_NSCR_1987_DESR DRUNK LAKE INTV_NAS-00057_S001.NEW.01 
*TO CLIP NAME:  ERN_F0933_NSCR_1987_DESR DRUNK LAKE INTV_NAS-00057_S001.NEW.01 
*SOURCE FILE: ERN_F0933_NSCR_1987_DESR DRUNK LAKE INTV_NAS-00057_S001
001604  ERN_F1646_NSCR_1990-04-01_5_OF_5_RACE_B-ROLL_TRANSOUTH_500_DARLINGTON_DESR_NO3_&_VICTORY_LANE_SCENES_W_TERESA_EARNHARDT_TAYLOR_EA A22   C        00:10:42:22 00:10:43:17 00:34:13:03 00:34:13:22 
M2      ERN_F1646_NSCR_1990-04-01_5_OF_5_RACE_B-ROLL_TRANSOUTH_500_DARLINGTON_DESR_NO3_&_VICTORY_LANE_SCENES_W_TERESA_EARNHARDT_TAYLOR_EA          030.0 00:10:42:22 
*FROM CLIP NAME:  ERN_F1646_NSCR_1990-04-01_5 OF 5 RACE B-ROLL TRANSOUTH 500 DARLINGTON DESR NO3 & VICTORY LANE SCENES W TERESA EARNHARDT TAYLOR EARNHARDT & CREW_90-EV-0144.NEW.01 
*SOURCE FILE: ERN_F1646_NSCR_1990-04-01_5 OF 5 RACE B-ROLL TRANSOUTH 500 DARLINGTON DESR NO3 & VICTORY LANE SCENES W TERESA EARNHARDT TAYLOR EARNHARDT & CREW_90-EV-0144
001605  ERN_F1646_NSCR_1990-04-01_5_OF_5_RACE_B-ROLL_TRANSOUTH_500_DARLINGTON_DESR_NO3_&_VICTORY_LANE_SCENES_W_TERESA_EARNHARDT_TAYLOR_EA V     C        00:10:42:02 00:10:46:03 00:34:13:06 00:34:17:06 
M2      ERN_F1646_NSCR_1990-04-01_5_OF_5_RACE_B-ROLL_TRANSOUTH_500_DARLINGTON_DESR_NO3_&_VICTORY_LANE_SCENES_W_TERESA_EARNHARDT_TAYLOR_EA          030.0 00:10:42:02 
*FROM CLIP NAME:  ERN_F1646_NSCR_1990-04-01_5 OF 5 RACE B-ROLL TRANSOUTH 500 DARLINGTON DESR NO3 & VICTORY LANE SCENES W TERESA EARNHARDT TAYLOR EARNHARDT & CREW_90-EV-0144.NEW.01 
*SOURCE FILE: ERN_F1646_NSCR_1990-04-01_5 OF 5 RACE B-ROLL TRANSOUTH 500 DARLINGTON DESR NO3 & VICTORY LANE SCENES W TERESA EARNHARDT TAYLOR EARNHARDT & CREW_90-EV-0144
001606  ERN_F1646_NSCR_1990-04-01_5_OF_5_RACE_B-ROLL_TRANSOUTH_500_DARLINGTON_DESR_NO3_&_VICTORY_LANE_SCENES_W_TERESA_EARNHARDT_TAYLOR_EA A22   C        00:10:43:16 00:10:45:07 00:34:13:22 00:34:15:14 
M2      ERN_F1646_NSCR_1990-04-01_5_OF_5_RACE_B-ROLL_TRANSOUTH_500_DARLINGTON_DESR_NO3_&_VICTORY_LANE_SCENES_W_TERESA_EARNHARDT_TAYLOR_EA          030.0 00:10:43:16 
*FROM CLIP NAME:  ERN_F1646_NSCR_1990-04-01_5 OF 5 RACE B-ROLL TRANSOUTH 500 DARLINGTON DESR NO3 & VICTORY LANE SCENES W TERESA EARNHARDT TAYLOR EARNHARDT & CREW_90-EV-0144.NEW.01 
*SOURCE FILE: ERN_F1646_NSCR_1990-04-01_5 OF 5 RACE B-ROLL TRANSOUTH 500 DARLINGTON DESR NO3 & VICTORY LANE SCENES W TERESA EARNHARDT TAYLOR EARNHARDT & CREW_90-EV-0144
001607  ERN_F1646_NSCR_1990-04-01_5_OF_5_RACE_B-ROLL_TRANSOUTH_500_DARLINGTON_DESR_NO3_&_VICTORY_LANE_SCENES_W_TERESA_EARNHARDT_TAYLOR_EA A20   C        00:11:31:23 00:11:33:09 00:34:16:06 00:34:17:18 
M2      ERN_F1646_NSCR_1990-04-01_5_OF_5_RACE_B-ROLL_TRANSOUTH_500_DARLINGTON_DESR_NO3_&_VICTORY_LANE_SCENES_W_TERESA_EARNHARDT_TAYLOR_EA          030.0 00:11:31:23 
*FROM CLIP NAME:  ERN_F1646_NSCR_1990-04-01_5 OF 5 RACE B-ROLL TRANSOUTH 500 DARLINGTON DESR NO3 & VICTORY LANE SCENES W TERESA EARNHARDT TAYLOR EARNHARDT & CREW_90-EV-0144.NEW.01 
*SOURCE FILE: ERN_F1646_NSCR_1990-04-01_5 OF 5 RACE B-ROLL TRANSOUTH 500 DARLINGTON DESR NO3 & VICTORY LANE SCENES W TERESA EARNHARDT TAYLOR EARNHARDT & CREW_90-EV-0144
001608  ERN_F1646_NSCR_1990-04-01_5_OF_5_RACE_B-ROLL_TRANSOUTH_500_DARLINGTON_DESR_NO3_&_VICTORY_LANE_SCENES_W_TERESA_EARNHARDT_TAYLOR_EA V     C        00:11:32:23 00:11:36:11 00:34:17:06 00:34:20:20 
M2      ERN_F1646_NSCR_1990-04-01_5_OF_5_RACE_B-ROLL_TRANSOUTH_500_DARLINGTON_DESR_NO3_&_VICTORY_LANE_SCENES_W_TERESA_EARNHARDT_TAYLOR_EA          030.0 00:11:32:23 
*FROM CLIP NAME:  ERN_F1646_NSCR_1990-04-01_5 OF 5 RACE B-ROLL TRANSOUTH 500 DARLINGTON DESR NO3 & VICTORY LANE SCENES W TERESA EARNHARDT TAYLOR EARNHARDT & CREW_90-EV-0144.NEW.01 
*SOURCE FILE: ERN_F1646_NSCR_1990-04-01_5 OF 5 RACE B-ROLL TRANSOUTH 500 DARLINGTON DESR NO3 & VICTORY LANE SCENES W TERESA EARNHARDT TAYLOR EARNHARDT & CREW_90-EV-0144
001609  ERN_F1646_NSCR_1990-04-01_5_OF_5_RACE_B-ROLL_TRANSOUTH_500_DARLINGTON_DESR_NO3_&_VICTORY_LANE_SCENES_W_TERESA_EARNHARDT_TAYLOR_EA A20   C        00:11:33:08 00:11:35:21 00:34:17:18 00:34:20:04 
M2      ERN_F1646_NSCR_1990-04-01_5_OF_5_RACE_B-ROLL_TRANSOUTH_500_DARLINGTON_DESR_NO3_&_VICTORY_LANE_SCENES_W_TERESA_EARNHARDT_TAYLOR_EA          030.0 00:11:33:08 
*FROM CLIP NAME:  ERN_F1646_NSCR_1990-04-01_5 OF 5 RACE B-ROLL TRANSOUTH 500 DARLINGTON DESR NO3 & VICTORY LANE SCENES W TERESA EARNHARDT TAYLOR EARNHARDT & CREW_90-EV-0144.NEW.01 
*SOURCE FILE: ERN_F1646_NSCR_1990-04-01_5 OF 5 RACE B-ROLL TRANSOUTH 500 DARLINGTON DESR NO3 & VICTORY LANE SCENES W TERESA EARNHARDT TAYLOR EARNHARDT & CREW_90-EV-0144
001610  ERN_F1646_NSCR_1990-04-01_5_OF_5_RACE_B-ROLL_TRANSOUTH_500_DARLINGTON_DESR_NO3_&_VICTORY_LANE_SCENES_W_TERESA_EARNHARDT_TAYLOR_EA A20   C        00:16:24:26 00:16:25:26 00:34:23:02 00:34:24:02 
M2      ERN_F1646_NSCR_1990-04-01_5_OF_5_RACE_B-ROLL_TRANSOUTH_500_DARLINGTON_DESR_NO3_&_VICTORY_LANE_SCENES_W_TERESA_EARNHARDT_TAYLOR_EA          030.0 00:16:24:26 
*FROM CLIP NAME:  ERN_F1646_NSCR_1990-04-01_5 OF 5 RACE B-ROLL TRANSOUTH 500 DARLINGTON DESR NO3 & VICTORY LANE SCENES W TERESA EARNHARDT TAYLOR EARNHARDT & CREW_90-EV-0144.NEW.01 
*SOURCE FILE: ERN_F1646_NSCR_1990-04-01_5 OF 5 RACE B-ROLL TRANSOUTH 500 DARLINGTON DESR NO3 & VICTORY LANE SCENES W TERESA EARNHARDT TAYLOR EARNHARDT & CREW_90-EV-0144
001611  ERN_F1646_NSCR_1990-04-01_5_OF_5_RACE_B-ROLL_TRANSOUTH_500_DARLINGTON_DESR_NO3_&_VICTORY_LANE_SCENES_W_TERESA_EARNHARDT_TAYLOR_EA V     C        00:16:25:11 00:16:30:08 00:34:23:14 00:34:28:11 
M2      ERN_F1646_NSCR_1990-04-01_5_OF_5_RACE_B-ROLL_TRANSOUTH_500_DARLINGTON_DESR_NO3_&_VICTORY_LANE_SCENES_W_TERESA_EARNHARDT_TAYLOR_EA          030.0 00:16:25:11 
*FROM CLIP NAME:  ERN_F1646_NSCR_1990-04-01_5 OF 5 RACE B-ROLL TRANSOUTH 500 DARLINGTON DESR NO3 & VICTORY LANE SCENES W TERESA EARNHARDT TAYLOR EARNHARDT & CREW_90-EV-0144.NEW.01 
*SOURCE FILE: ERN_F1646_NSCR_1990-04-01_5 OF 5 RACE B-ROLL TRANSOUTH 500 DARLINGTON DESR NO3 & VICTORY LANE SCENES W TERESA EARNHARDT TAYLOR EARNHARDT & CREW_90-EV-0144
001612  ERN_F1646_NSCR_1990-04-01_5_OF_5_RACE_B-ROLL_TRANSOUTH_500_DARLINGTON_DESR_NO3_&_VICTORY_LANE_SCENES_W_TERESA_EARNHARDT_TAYLOR_EA A20   C        00:16:25:26 00:16:27:29 00:34:24:02 00:34:26:04 
M2      ERN_F1646_NSCR_1990-04-01_5_OF_5_RACE_B-ROLL_TRANSOUTH_500_DARLINGTON_DESR_NO3_&_VICTORY_LANE_SCENES_W_TERESA_EARNHARDT_TAYLOR_EA          030.0 00:16:25:26 
*FROM CLIP NAME:  ERN_F1646_NSCR_1990-04-01_5 OF 5 RACE B-ROLL TRANSOUTH 500 DARLINGTON DESR NO3 & VICTORY LANE SCENES W TERESA EARNHARDT TAYLOR EARNHARDT & CREW_90-EV-0144.NEW.01 
*SOURCE FILE: ERN_F1646_NSCR_1990-04-01_5 OF 5 RACE B-ROLL TRANSOUTH 500 DARLINGTON DESR NO3 & VICTORY LANE SCENES W TERESA EARNHARDT TAYLOR EARNHARDT & CREW_90-EV-0144
001613  ERN_F1646_NSCR_1990-04-01_5_OF_5_RACE_B-ROLL_TRANSOUTH_500_DARLINGTON_DESR_NO3_&_VICTORY_LANE_SCENES_W_TERESA_EARNHARDT_TAYLOR_EA A20   C        00:16:27:28 00:16:29:09 00:34:26:04 00:34:27:12 
M2      ERN_F1646_NSCR_1990-04-01_5_OF_5_RACE_B-ROLL_TRANSOUTH_500_DARLINGTON_DESR_NO3_&_VICTORY_LANE_SCENES_W_TERESA_EARNHARDT_TAYLOR_EA          030.0 00:16:27:28 
*FROM CLIP NAME:  ERN_F1646_NSCR_1990-04-01_5 OF 5 RACE B-ROLL TRANSOUTH 500 DARLINGTON DESR NO3 & VICTORY LANE SCENES W TERESA EARNHARDT TAYLOR EARNHARDT & CREW_90-EV-0144.NEW.01 
*TO CLIP NAME:  ERN_F1646_NSCR_1990-04-01_5 OF 5 RACE B-ROLL TRANSOUTH 500 DARLINGTON DESR NO3 & VICTORY LANE SCENES W TERESA EARNHARDT TAYLOR EARNHARDT & CREW_90-EV-0144.NEW.01 
*SOURCE FILE: ERN_F1646_NSCR_1990-04-01_5 OF 5 RACE B-ROLL TRANSOUTH 500 DARLINGTON DESR NO3 & VICTORY LANE SCENES W TERESA EARNHARDT TAYLOR EARNHARDT & CREW_90-EV-0144
001614  ERN_F0515_NSCR_1990S_B-ROLL_BTS_INTV_YOUNG_DALE_EARNHARDT_JR_AT_TRACK_W_DALE_EARNHARDT_TERESA_EARNHARDT__14141_DALEJR_KID         A18   C        00:16:49:27 00:16:51:28 00:34:27:05 00:34:29:05 
M2      ERN_F0515_NSCR_1990S_B-ROLL_BTS_INTV_YOUNG_DALE_EARNHARDT_JR_AT_TRACK_W_DALE_EARNHARDT_TERESA_EARNHARDT__14141_DALEJR_KID                  030.0 00:16:49:27 
*FROM CLIP NAME:  ERN_F0515_NSCR_1990S_B-ROLL BTS INTV YOUNG DALE EARNHARDT JR AT TRACK W DALE EARNHARDT TERESA EARNHARDT _14141_DALEJR_KID.NEW.01 
*SOURCE FILE: ERN_F0515_NSCR_1990S_B-ROLL BTS INTV YOUNG DALE EARNHARDT JR AT TRACK W DALE EARNHARDT TERESA EARNHARDT _14141_DALEJR_KID
001615  ERN_F1646_NSCR_1990-04-01_5_OF_5_RACE_B-ROLL_TRANSOUTH_500_DARLINGTON_DESR_NO3_&_VICTORY_LANE_SCENES_W_TERESA_EARNHARDT_TAYLOR_EA A20   C        00:16:29:08 00:16:29:14 00:34:27:12 00:34:27:16 
M2      ERN_F1646_NSCR_1990-04-01_5_OF_5_RACE_B-ROLL_TRANSOUTH_500_DARLINGTON_DESR_NO3_&_VICTORY_LANE_SCENES_W_TERESA_EARNHARDT_TAYLOR_EA          030.0 00:16:29:08 
*FROM CLIP NAME:  ERN_F1646_NSCR_1990-04-01_5 OF 5 RACE B-ROLL TRANSOUTH 500 DARLINGTON DESR NO3 & VICTORY LANE SCENES W TERESA EARNHARDT TAYLOR EARNHARDT & CREW_90-EV-0144.NEW.01 
*SOURCE FILE: ERN_F1646_NSCR_1990-04-01_5 OF 5 RACE B-ROLL TRANSOUTH 500 DARLINGTON DESR NO3 & VICTORY LANE SCENES W TERESA EARNHARDT TAYLOR EARNHARDT & CREW_90-EV-0144
001616  ERN_F0515_NSCR_1990S_B-ROLL_BTS_INTV_YOUNG_DALE_EARNHARDT_JR_AT_TRACK_W_DALE_EARNHARDT_TERESA_EARNHARDT__14141_DALEJR_KID         V     C        00:16:36:08 00:16:42:25 00:34:28:11 00:34:35:00 
M2      ERN_F0515_NSCR_1990S_B-ROLL_BTS_INTV_YOUNG_DALE_EARNHARDT_JR_AT_TRACK_W_DALE_EARNHARDT_TERESA_EARNHARDT__14141_DALEJR_KID                  030.0 00:16:36:08 
*FROM CLIP NAME:  ERN_F0515_NSCR_1990S_B-ROLL BTS INTV YOUNG DALE EARNHARDT JR AT TRACK W DALE EARNHARDT TERESA EARNHARDT _14141_DALEJR_KID.NEW.01 
*SOURCE FILE: ERN_F0515_NSCR_1990S_B-ROLL BTS INTV YOUNG DALE EARNHARDT JR AT TRACK W DALE EARNHARDT TERESA EARNHARDT _14141_DALEJR_KID
001617  ERN_F0515_NSCR_1990S_B-ROLL_BTS_INTV_YOUNG_DALE_EARNHARDT_JR_AT_TRACK_W_DALE_EARNHARDT_TERESA_EARNHARDT__14141_DALEJR_KID         A18   C        00:16:51:27 00:16:52:23 00:34:29:05 00:34:30:01 
M2      ERN_F0515_NSCR_1990S_B-ROLL_BTS_INTV_YOUNG_DALE_EARNHARDT_JR_AT_TRACK_W_DALE_EARNHARDT_TERESA_EARNHARDT__14141_DALEJR_KID                  030.0 00:16:51:27 
*FROM CLIP NAME:  ERN_F0515_NSCR_1990S_B-ROLL BTS INTV YOUNG DALE EARNHARDT JR AT TRACK W DALE EARNHARDT TERESA EARNHARDT _14141_DALEJR_KID.NEW.01 
*SOURCE FILE: ERN_F0515_NSCR_1990S_B-ROLL BTS INTV YOUNG DALE EARNHARDT JR AT TRACK W DALE EARNHARDT TERESA EARNHARDT _14141_DALEJR_KID
001618  ERN_F0515_NSCR_1990S_B-ROLL_BTS_INTV_YOUNG_DALE_EARNHARDT_JR_AT_TRACK_W_DALE_EARNHARDT_TERESA_EARNHARDT__14141_DALEJR_KID         A18   C        00:16:52:22 00:16:54:08 00:34:30:01 00:34:31:13 
M2      ERN_F0515_NSCR_1990S_B-ROLL_BTS_INTV_YOUNG_DALE_EARNHARDT_JR_AT_TRACK_W_DALE_EARNHARDT_TERESA_EARNHARDT__14141_DALEJR_KID                  030.0 00:16:52:22 
*FROM CLIP NAME:  ERN_F0515_NSCR_1990S_B-ROLL BTS INTV YOUNG DALE EARNHARDT JR AT TRACK W DALE EARNHARDT TERESA EARNHARDT _14141_DALEJR_KID.NEW.01 
*TO CLIP NAME:  ERN_F0515_NSCR_1990S_B-ROLL BTS INTV YOUNG DALE EARNHARDT JR AT TRACK W DALE EARNHARDT TERESA EARNHARDT _14141_DALEJR_KID.NEW.01 
*SOURCE FILE: ERN_F0515_NSCR_1990S_B-ROLL BTS INTV YOUNG DALE EARNHARDT JR AT TRACK W DALE EARNHARDT TERESA EARNHARDT _14141_DALEJR_KID
001619  ERN_F0515_NSCR_1990S_B-ROLL_BTS_INTV_YOUNG_DALE_EARNHARDT_JR_AT_TRACK_W_DALE_EARNHARDT_TERESA_EARNHARDT__14141_DALEJR_KID         A18   C        00:16:54:07 00:16:57:14 00:34:31:13 00:34:34:18 
M2      ERN_F0515_NSCR_1990S_B-ROLL_BTS_INTV_YOUNG_DALE_EARNHARDT_JR_AT_TRACK_W_DALE_EARNHARDT_TERESA_EARNHARDT__14141_DALEJR_KID                  030.0 00:16:54:07 
*FROM CLIP NAME:  ERN_F0515_NSCR_1990S_B-ROLL BTS INTV YOUNG DALE EARNHARDT JR AT TRACK W DALE EARNHARDT TERESA EARNHARDT _14141_DALEJR_KID.NEW.01 
*SOURCE FILE: ERN_F0515_NSCR_1990S_B-ROLL BTS INTV YOUNG DALE EARNHARDT JR AT TRACK W DALE EARNHARDT TERESA EARNHARDT _14141_DALEJR_KID
001620  ERN_F0515_NSCR_1990S_B-ROLL_BTS_INTV_YOUNG_DALE_EARNHARDT_JR_AT_TRACK_W_DALE_EARNHARDT_TERESA_EARNHARDT__14141_DALEJR_KID         A18   C        00:15:30:05 00:15:31:05 00:34:34:18 00:34:35:18 
M2      ERN_F0515_NSCR_1990S_B-ROLL_BTS_INTV_YOUNG_DALE_EARNHARDT_JR_AT_TRACK_W_DALE_EARNHARDT_TERESA_EARNHARDT__14141_DALEJR_KID                  030.0 00:15:30:05 
*FROM CLIP NAME:  ERN_F0515_NSCR_1990S_B-ROLL BTS INTV YOUNG DALE EARNHARDT JR AT TRACK W DALE EARNHARDT TERESA EARNHARDT _14141_DALEJR_KID.NEW.01 
*TO CLIP NAME:  ERN_F0515_NSCR_1990S_B-ROLL BTS INTV YOUNG DALE EARNHARDT JR AT TRACK W DALE EARNHARDT TERESA EARNHARDT _14141_DALEJR_KID.NEW.01 
*SOURCE FILE: ERN_F0515_NSCR_1990S_B-ROLL BTS INTV YOUNG DALE EARNHARDT JR AT TRACK W DALE EARNHARDT TERESA EARNHARDT _14141_DALEJR_KID
001621  ERN_F0515_NSCR_1990S_B-ROLL_BTS_INTV_YOUNG_DALE_EARNHARDT_JR_AT_TRACK_W_DALE_EARNHARDT_TERESA_EARNHARDT__14141_DALEJR_KID         V     C        00:15:30:16 00:15:34:20 00:34:35:00 00:34:39:03 
M2      ERN_F0515_NSCR_1990S_B-ROLL_BTS_INTV_YOUNG_DALE_EARNHARDT_JR_AT_TRACK_W_DALE_EARNHARDT_TERESA_EARNHARDT__14141_DALEJR_KID                  030.0 00:15:30:16 
*FROM CLIP NAME:  ERN_F0515_NSCR_1990S_B-ROLL BTS INTV YOUNG DALE EARNHARDT JR AT TRACK W DALE EARNHARDT TERESA EARNHARDT _14141_DALEJR_KID.NEW.01 
*SOURCE FILE: ERN_F0515_NSCR_1990S_B-ROLL BTS INTV YOUNG DALE EARNHARDT JR AT TRACK W DALE EARNHARDT TERESA EARNHARDT _14141_DALEJR_KID
001622  ERN_F0515_NSCR_1990S_B-ROLL_BTS_INTV_YOUNG_DALE_EARNHARDT_JR_AT_TRACK_W_DALE_EARNHARDT_TERESA_EARNHARDT__14141_DALEJR_KID         A18   C        00:15:31:05 00:15:32:00 00:34:35:18 00:34:36:14 
M2      ERN_F0515_NSCR_1990S_B-ROLL_BTS_INTV_YOUNG_DALE_EARNHARDT_JR_AT_TRACK_W_DALE_EARNHARDT_TERESA_EARNHARDT__14141_DALEJR_KID                  030.0 00:15:31:05 
*FROM CLIP NAME:  ERN_F0515_NSCR_1990S_B-ROLL BTS INTV YOUNG DALE EARNHARDT JR AT TRACK W DALE EARNHARDT TERESA EARNHARDT _14141_DALEJR_KID.NEW.01 
*SOURCE FILE: ERN_F0515_NSCR_1990S_B-ROLL BTS INTV YOUNG DALE EARNHARDT JR AT TRACK W DALE EARNHARDT TERESA EARNHARDT _14141_DALEJR_KID
001623  ERN_F0515_NSCR_1990S_B-ROLL_BTS_INTV_YOUNG_DALE_EARNHARDT_JR_AT_TRACK_W_DALE_EARNHARDT_TERESA_EARNHARDT__14141_DALEJR_KID         A18   C        00:15:18:05 00:15:19:05 00:34:40:17 00:34:41:17 
M2      ERN_F0515_NSCR_1990S_B-ROLL_BTS_INTV_YOUNG_DALE_EARNHARDT_JR_AT_TRACK_W_DALE_EARNHARDT_TERESA_EARNHARDT__14141_DALEJR_KID                  030.0 00:15:18:05 
*FROM CLIP NAME:  ERN_F0515_NSCR_1990S_B-ROLL BTS INTV YOUNG DALE EARNHARDT JR AT TRACK W DALE EARNHARDT TERESA EARNHARDT _14141_DALEJR_KID.NEW.01 
*SOURCE FILE: ERN_F0515_NSCR_1990S_B-ROLL BTS INTV YOUNG DALE EARNHARDT JR AT TRACK W DALE EARNHARDT TERESA EARNHARDT _14141_DALEJR_KID
001624  ERN_F3480_WSOC_1990S-2000S_NEWS_COMP_DESR_INTVS-MEET_&_GREET-KEY_TO_CITY-OBIT_PART_2                                              V     C        00:00:24:22 00:00:26:19 00:34:40:22 00:34:42:19 
M2      ERN_F3480_WSOC_1990S-2000S_NEWS_COMP_DESR_INTVS-MEET_&_GREET-KEY_TO_CITY-OBIT_PART_2                                                       060.0 00:00:24:22 
*FROM CLIP NAME:  ERN_F3480_WSOC_1990S-2000S_NEWS COMP DESR INTVS-MEET & GREET-KEY TO CITY-OBIT_PART 2.NEW.01 
*SOURCE FILE: ERN_F3480_WSOC_1990S-2000S_NEWS COMP DESR INTVS-MEET & GREET-KEY TO CITY-OBIT_PART 2
001625  ERN_F0515_NSCR_1990S_B-ROLL_BTS_INTV_YOUNG_DALE_EARNHARDT_JR_AT_TRACK_W_DALE_EARNHARDT_TERESA_EARNHARDT__14141_DALEJR_KID         A18   C        00:15:19:05 00:15:21:22 00:34:41:17 00:34:44:06 
M2      ERN_F0515_NSCR_1990S_B-ROLL_BTS_INTV_YOUNG_DALE_EARNHARDT_JR_AT_TRACK_W_DALE_EARNHARDT_TERESA_EARNHARDT__14141_DALEJR_KID                  030.0 00:15:19:05 
*FROM CLIP NAME:  ERN_F0515_NSCR_1990S_B-ROLL BTS INTV YOUNG DALE EARNHARDT JR AT TRACK W DALE EARNHARDT TERESA EARNHARDT _14141_DALEJR_KID.NEW.01 
*SOURCE FILE: ERN_F0515_NSCR_1990S_B-ROLL BTS INTV YOUNG DALE EARNHARDT JR AT TRACK W DALE EARNHARDT TERESA EARNHARDT _14141_DALEJR_KID
001626  ERN_F1015_NSCR_1990S_RACE_B-ROLL_BUSCH_GRAND_NATIONAL_CHARLOTTE_DESR_POST_RACE_W_KIRK_SHELMERDINE_&_CREW_18_END_OF_BGN_RACE       V     C        01:44:29:05 01:44:33:13 00:34:42:19 00:34:47:01 
M2      ERN_F1015_NSCR_1990S_RACE_B-ROLL_BUSCH_GRAND_NATIONAL_CHARLOTTE_DESR_POST_RACE_W_KIRK_SHELMERDINE_&_CREW_18_END_OF_BGN_RACE                030.0 01:44:29:05 
*FROM CLIP NAME:  ERN_F1015_NSCR_1990S_RACE B-ROLL BUSCH GRAND NATIONAL CHARLOTTE DESR POST RACE W KIRK SHELMERDINE & CREW_18_END OF BGN RACE.NEW.01 
*SOURCE FILE: ERN_F1015_NSCR_1990S_RACE B-ROLL BUSCH GRAND NATIONAL CHARLOTTE DESR POST RACE W KIRK SHELMERDINE & CREW_18_END OF BGN RACE
001627  ERN_F0515_NSCR_1990S_B-ROLL_BTS_INTV_YOUNG_DALE_EARNHARDT_JR_AT_TRACK_W_DALE_EARNHARDT_TERESA_EARNHARDT__14141_DALEJR_KID         A18   C        00:15:21:21 00:15:23:17 00:34:44:06 00:34:46:02 
M2      ERN_F0515_NSCR_1990S_B-ROLL_BTS_INTV_YOUNG_DALE_EARNHARDT_JR_AT_TRACK_W_DALE_EARNHARDT_TERESA_EARNHARDT__14141_DALEJR_KID                  030.0 00:15:21:21 
*FROM CLIP NAME:  ERN_F0515_NSCR_1990S_B-ROLL BTS INTV YOUNG DALE EARNHARDT JR AT TRACK W DALE EARNHARDT TERESA EARNHARDT _14141_DALEJR_KID.NEW.01 
*TO CLIP NAME:  ERN_F0515_NSCR_1990S_B-ROLL BTS INTV YOUNG DALE EARNHARDT JR AT TRACK W DALE EARNHARDT TERESA EARNHARDT _14141_DALEJR_KID.NEW.01 
*SOURCE FILE: ERN_F0515_NSCR_1990S_B-ROLL BTS INTV YOUNG DALE EARNHARDT JR AT TRACK W DALE EARNHARDT TERESA EARNHARDT _14141_DALEJR_KID
001628  ERN_F0515_NSCR_1990S_B-ROLL_BTS_INTV_YOUNG_DALE_EARNHARDT_JR_AT_TRACK_W_DALE_EARNHARDT_TERESA_EARNHARDT__14141_DALEJR_KID         A18   C        00:15:23:16 00:15:25:15 00:34:46:02 00:34:48:01 
M2      ERN_F0515_NSCR_1990S_B-ROLL_BTS_INTV_YOUNG_DALE_EARNHARDT_JR_AT_TRACK_W_DALE_EARNHARDT_TERESA_EARNHARDT__14141_DALEJR_KID                  030.0 00:15:23:16 
*FROM CLIP NAME:  ERN_F0515_NSCR_1990S_B-ROLL BTS INTV YOUNG DALE EARNHARDT JR AT TRACK W DALE EARNHARDT TERESA EARNHARDT _14141_DALEJR_KID.NEW.01 
*SOURCE FILE: ERN_F0515_NSCR_1990S_B-ROLL BTS INTV YOUNG DALE EARNHARDT JR AT TRACK W DALE EARNHARDT TERESA EARNHARDT _14141_DALEJR_KID
001629  ERN_F0515_NSCR_1990S_B-ROLL_BTS_INTV_YOUNG_DALE_EARNHARDT_JR_AT_TRACK_W_DALE_EARNHARDT_TERESA_EARNHARDT__14141_DALEJR_KID         V     C        00:15:03:01 00:15:07:00 00:34:47:01 00:34:51:00 
M2      ERN_F0515_NSCR_1990S_B-ROLL_BTS_INTV_YOUNG_DALE_EARNHARDT_JR_AT_TRACK_W_DALE_EARNHARDT_TERESA_EARNHARDT__14141_DALEJR_KID                  030.0 00:15:03:01 
*FROM CLIP NAME:  ERN_F0515_NSCR_1990S_B-ROLL BTS INTV YOUNG DALE EARNHARDT JR AT TRACK W DALE EARNHARDT TERESA EARNHARDT _14141_DALEJR_KID.NEW.01 
*SOURCE FILE: ERN_F0515_NSCR_1990S_B-ROLL BTS INTV YOUNG DALE EARNHARDT JR AT TRACK W DALE EARNHARDT TERESA EARNHARDT _14141_DALEJR_KID
001630  ERN_F0515_NSCR_1990S_B-ROLL_BTS_INTV_YOUNG_DALE_EARNHARDT_JR_AT_TRACK_W_DALE_EARNHARDT_TERESA_EARNHARDT__14141_DALEJR_KID         A18   C        00:15:18:23 00:15:20:09 00:34:48:01 00:34:49:13 
M2      ERN_F0515_NSCR_1990S_B-ROLL_BTS_INTV_YOUNG_DALE_EARNHARDT_JR_AT_TRACK_W_DALE_EARNHARDT_TERESA_EARNHARDT__14141_DALEJR_KID                  030.0 00:15:18:23 
*FROM CLIP NAME:  ERN_F0515_NSCR_1990S_B-ROLL BTS INTV YOUNG DALE EARNHARDT JR AT TRACK W DALE EARNHARDT TERESA EARNHARDT _14141_DALEJR_KID.NEW.01 
*TO CLIP NAME:  ERN_F0515_NSCR_1990S_B-ROLL BTS INTV YOUNG DALE EARNHARDT JR AT TRACK W DALE EARNHARDT TERESA EARNHARDT _14141_DALEJR_KID.NEW.01 
*SOURCE FILE: ERN_F0515_NSCR_1990S_B-ROLL BTS INTV YOUNG DALE EARNHARDT JR AT TRACK W DALE EARNHARDT TERESA EARNHARDT _14141_DALEJR_KID
001631  ERN_F0515_NSCR_1990S_B-ROLL_BTS_INTV_YOUNG_DALE_EARNHARDT_JR_AT_TRACK_W_DALE_EARNHARDT_TERESA_EARNHARDT__14141_DALEJR_KID         A18   C        00:15:20:08 00:15:20:24 00:34:49:13 00:34:50:01 
M2      ERN_F0515_NSCR_1990S_B-ROLL_BTS_INTV_YOUNG_DALE_EARNHARDT_JR_AT_TRACK_W_DALE_EARNHARDT_TERESA_EARNHARDT__14141_DALEJR_KID                  030.0 00:15:20:08 
*FROM CLIP NAME:  ERN_F0515_NSCR_1990S_B-ROLL BTS INTV YOUNG DALE EARNHARDT JR AT TRACK W DALE EARNHARDT TERESA EARNHARDT _14141_DALEJR_KID.NEW.01 
*SOURCE FILE: ERN_F0515_NSCR_1990S_B-ROLL BTS INTV YOUNG DALE EARNHARDT JR AT TRACK W DALE EARNHARDT TERESA EARNHARDT _14141_DALEJR_KID
001632  ERN_1990-02-25_DEJR_RICHMOND_PONTIAC_EXCITEMENT_400_GETTYIMAGES-84223943_M.JPG                                                    V     C        01:00:00:02 01:00:06:18 00:34:54:19 00:35:01:11 
*FROM CLIP NAME:  ERN_1990-02-25_DEJR RICHMOND PONTIAC EXCITEMENT 400_GETTYIMAGES-84223943_M.JPG 
*SOURCE FILE: ERN_1990-02-25_DEJR RICHMOND PONTIAC EXCITEMENT 400_GETTYIMAGES-84223943_M.JPG
001633  ERN_F0515_NSCR_1990S_B-ROLL_BTS_INTV_YOUNG_DALE_EARNHARDT_JR_AT_TRACK_W_DALE_EARNHARDT_TERESA_EARNHARDT__14141_DALEJR_KID         A18   C        00:11:17:23 00:11:18:24 00:35:06:06 00:35:07:06 
M2      ERN_F0515_NSCR_1990S_B-ROLL_BTS_INTV_YOUNG_DALE_EARNHARDT_JR_AT_TRACK_W_DALE_EARNHARDT_TERESA_EARNHARDT__14141_DALEJR_KID                  030.0 00:11:17:23 
*FROM CLIP NAME:  ERN_F0515_NSCR_1990S_B-ROLL BTS INTV YOUNG DALE EARNHARDT JR AT TRACK W DALE EARNHARDT TERESA EARNHARDT _14141_DALEJR_KID.NEW.01 
*SOURCE FILE: ERN_F0515_NSCR_1990S_B-ROLL BTS INTV YOUNG DALE EARNHARDT JR AT TRACK W DALE EARNHARDT TERESA EARNHARDT _14141_DALEJR_KID
001634  ERN_F0515_NSCR_1990S_B-ROLL_BTS_INTV_YOUNG_DALE_EARNHARDT_JR_AT_TRACK_W_DALE_EARNHARDT_TERESA_EARNHARDT__14141_DALEJR_KID         V     C        00:11:18:07 00:11:21:21 00:35:06:18 00:35:11:01 
M2      ERN_F0515_NSCR_1990S_B-ROLL_BTS_INTV_YOUNG_DALE_EARNHARDT_JR_AT_TRACK_W_DALE_EARNHARDT_TERESA_EARNHARDT__14141_DALEJR_KID                  024.0 00:11:18:07 
*FROM CLIP NAME:  ERN_F0515_NSCR_1990S_B-ROLL BTS INTV YOUNG DALE EARNHARDT JR AT TRACK W DALE EARNHARDT TERESA EARNHARDT _14141_DALEJR_KID.NEW.01 
*SOURCE FILE: ERN_F0515_NSCR_1990S_B-ROLL BTS INTV YOUNG DALE EARNHARDT JR AT TRACK W DALE EARNHARDT TERESA EARNHARDT _14141_DALEJR_KID
001635  ERN_F0515_NSCR_1990S_B-ROLL_BTS_INTV_YOUNG_DALE_EARNHARDT_JR_AT_TRACK_W_DALE_EARNHARDT_TERESA_EARNHARDT__14141_DALEJR_KID         A18   C        00:11:18:23 00:11:20:22 00:35:07:06 00:35:09:04 
M2      ERN_F0515_NSCR_1990S_B-ROLL_BTS_INTV_YOUNG_DALE_EARNHARDT_JR_AT_TRACK_W_DALE_EARNHARDT_TERESA_EARNHARDT__14141_DALEJR_KID                  030.0 00:11:18:23 
*FROM CLIP NAME:  ERN_F0515_NSCR_1990S_B-ROLL BTS INTV YOUNG DALE EARNHARDT JR AT TRACK W DALE EARNHARDT TERESA EARNHARDT _14141_DALEJR_KID.NEW.01 
*SOURCE FILE: ERN_F0515_NSCR_1990S_B-ROLL BTS INTV YOUNG DALE EARNHARDT JR AT TRACK W DALE EARNHARDT TERESA EARNHARDT _14141_DALEJR_KID
001636  ERN_F0515_NSCR_1990S_B-ROLL_BTS_INTV_YOUNG_DALE_EARNHARDT_JR_AT_TRACK_W_DALE_EARNHARDT_TERESA_EARNHARDT__14141_DALEJR_KID         A18   C        00:12:16:20 00:12:18:20 00:35:09:04 00:35:11:04 
M2      ERN_F0515_NSCR_1990S_B-ROLL_BTS_INTV_YOUNG_DALE_EARNHARDT_JR_AT_TRACK_W_DALE_EARNHARDT_TERESA_EARNHARDT__14141_DALEJR_KID                  030.0 00:12:16:20 
*FROM CLIP NAME:  ERN_F0515_NSCR_1990S_B-ROLL BTS INTV YOUNG DALE EARNHARDT JR AT TRACK W DALE EARNHARDT TERESA EARNHARDT _14141_DALEJR_KID.NEW.01 
*TO CLIP NAME:  ERN_F0515_NSCR_1990S_B-ROLL BTS INTV YOUNG DALE EARNHARDT JR AT TRACK W DALE EARNHARDT TERESA EARNHARDT _14141_DALEJR_KID.NEW.01 
*SOURCE FILE: ERN_F0515_NSCR_1990S_B-ROLL BTS INTV YOUNG DALE EARNHARDT JR AT TRACK W DALE EARNHARDT TERESA EARNHARDT _14141_DALEJR_KID
001637  ERN_F1646_NSCR_1990-04-01_5_OF_5_RACE_B-ROLL_TRANSOUTH_500_DARLINGTON_DESR_NO3_&_VICTORY_LANE_SCENES_W_TERESA_EARNHARDT_TAYLOR_EA A20   C        00:17:22:04 00:17:24:05 00:35:10:15 00:35:12:15 
M2      ERN_F1646_NSCR_1990-04-01_5_OF_5_RACE_B-ROLL_TRANSOUTH_500_DARLINGTON_DESR_NO3_&_VICTORY_LANE_SCENES_W_TERESA_EARNHARDT_TAYLOR_EA          030.0 00:17:22:04 
*FROM CLIP NAME:  ERN_F1646_NSCR_1990-04-01_5 OF 5 RACE B-ROLL TRANSOUTH 500 DARLINGTON DESR NO3 & VICTORY LANE SCENES W TERESA EARNHARDT TAYLOR EARNHARDT & CREW_90-EV-0144.NEW.01 
*SOURCE FILE: ERN_F1646_NSCR_1990-04-01_5 OF 5 RACE B-ROLL TRANSOUTH 500 DARLINGTON DESR NO3 & VICTORY LANE SCENES W TERESA EARNHARDT TAYLOR EARNHARDT & CREW_90-EV-0144
001638  ERN_F0515_NSCR_1990S_B-ROLL_BTS_INTV_YOUNG_DALE_EARNHARDT_JR_AT_TRACK_W_DALE_EARNHARDT_TERESA_EARNHARDT__14141_DALEJR_KID         V     C        00:12:18:16 00:12:25:02 00:35:11:01 00:35:17:13 
M2      ERN_F0515_NSCR_1990S_B-ROLL_BTS_INTV_YOUNG_DALE_EARNHARDT_JR_AT_TRACK_W_DALE_EARNHARDT_TERESA_EARNHARDT__14141_DALEJR_KID                  030.0 00:12:18:16 
*FROM CLIP NAME:  ERN_F0515_NSCR_1990S_B-ROLL BTS INTV YOUNG DALE EARNHARDT JR AT TRACK W DALE EARNHARDT TERESA EARNHARDT _14141_DALEJR_KID.NEW.01 
*SOURCE FILE: ERN_F0515_NSCR_1990S_B-ROLL BTS INTV YOUNG DALE EARNHARDT JR AT TRACK W DALE EARNHARDT TERESA EARNHARDT _14141_DALEJR_KID
001639  ERN_F0515_NSCR_1990S_B-ROLL_BTS_INTV_YOUNG_DALE_EARNHARDT_JR_AT_TRACK_W_DALE_EARNHARDT_TERESA_EARNHARDT__14141_DALEJR_KID         A18   C        00:12:18:20 00:12:25:12 00:35:11:04 00:35:17:21 
M2      ERN_F0515_NSCR_1990S_B-ROLL_BTS_INTV_YOUNG_DALE_EARNHARDT_JR_AT_TRACK_W_DALE_EARNHARDT_TERESA_EARNHARDT__14141_DALEJR_KID                  030.0 00:12:18:20 
*FROM CLIP NAME:  ERN_F0515_NSCR_1990S_B-ROLL BTS INTV YOUNG DALE EARNHARDT JR AT TRACK W DALE EARNHARDT TERESA EARNHARDT _14141_DALEJR_KID.NEW.01 
*SOURCE FILE: ERN_F0515_NSCR_1990S_B-ROLL BTS INTV YOUNG DALE EARNHARDT JR AT TRACK W DALE EARNHARDT TERESA EARNHARDT _14141_DALEJR_KID
001640  ERN_F1646_NSCR_1990-04-01_5_OF_5_RACE_B-ROLL_TRANSOUTH_500_DARLINGTON_DESR_NO3_&_VICTORY_LANE_SCENES_W_TERESA_EARNHARDT_TAYLOR_EA A20   C        00:17:24:04 00:17:26:16 00:35:12:15 00:35:15:00 
M2      ERN_F1646_NSCR_1990-04-01_5_OF_5_RACE_B-ROLL_TRANSOUTH_500_DARLINGTON_DESR_NO3_&_VICTORY_LANE_SCENES_W_TERESA_EARNHARDT_TAYLOR_EA          030.0 00:17:24:04 
*FROM CLIP NAME:  ERN_F1646_NSCR_1990-04-01_5 OF 5 RACE B-ROLL TRANSOUTH 500 DARLINGTON DESR NO3 & VICTORY LANE SCENES W TERESA EARNHARDT TAYLOR EARNHARDT & CREW_90-EV-0144.NEW.01 
*SOURCE FILE: ERN_F1646_NSCR_1990-04-01_5 OF 5 RACE B-ROLL TRANSOUTH 500 DARLINGTON DESR NO3 & VICTORY LANE SCENES W TERESA EARNHARDT TAYLOR EARNHARDT & CREW_90-EV-0144
001641  ERN_F1646_NSCR_1990-04-01_5_OF_5_RACE_B-ROLL_TRANSOUTH_500_DARLINGTON_DESR_NO3_&_VICTORY_LANE_SCENES_W_TERESA_EARNHARDT_TAYLOR_EA A20   C        00:17:26:15 00:17:28:16 00:35:15:00 00:35:17:00 
M2      ERN_F1646_NSCR_1990-04-01_5_OF_5_RACE_B-ROLL_TRANSOUTH_500_DARLINGTON_DESR_NO3_&_VICTORY_LANE_SCENES_W_TERESA_EARNHARDT_TAYLOR_EA          030.0 00:17:26:15 
*FROM CLIP NAME:  ERN_F1646_NSCR_1990-04-01_5 OF 5 RACE B-ROLL TRANSOUTH 500 DARLINGTON DESR NO3 & VICTORY LANE SCENES W TERESA EARNHARDT TAYLOR EARNHARDT & CREW_90-EV-0144.NEW.01 
*TO CLIP NAME:  ERN_F1646_NSCR_1990-04-01_5 OF 5 RACE B-ROLL TRANSOUTH 500 DARLINGTON DESR NO3 & VICTORY LANE SCENES W TERESA EARNHARDT TAYLOR EARNHARDT & CREW_90-EV-0144.NEW.01 
*SOURCE FILE: ERN_F1646_NSCR_1990-04-01_5 OF 5 RACE B-ROLL TRANSOUTH 500 DARLINGTON DESR NO3 & VICTORY LANE SCENES W TERESA EARNHARDT TAYLOR EARNHARDT & CREW_90-EV-0144
001642  ERN_F1646_NSCR_1990-04-01_5_OF_5_RACE_B-ROLL_TRANSOUTH_500_DARLINGTON_DESR_NO3_&_VICTORY_LANE_SCENES_W_TERESA_EARNHARDT_TAYLOR_EA A20   C        00:17:28:15 00:17:32:22 00:35:17:00 00:35:21:05 
M2      ERN_F1646_NSCR_1990-04-01_5_OF_5_RACE_B-ROLL_TRANSOUTH_500_DARLINGTON_DESR_NO3_&_VICTORY_LANE_SCENES_W_TERESA_EARNHARDT_TAYLOR_EA          030.0 00:17:28:15 
*FROM CLIP NAME:  ERN_F1646_NSCR_1990-04-01_5 OF 5 RACE B-ROLL TRANSOUTH 500 DARLINGTON DESR NO3 & VICTORY LANE SCENES W TERESA EARNHARDT TAYLOR EARNHARDT & CREW_90-EV-0144.NEW.01 
*SOURCE FILE: ERN_F1646_NSCR_1990-04-01_5 OF 5 RACE B-ROLL TRANSOUTH 500 DARLINGTON DESR NO3 & VICTORY LANE SCENES W TERESA EARNHARDT TAYLOR EARNHARDT & CREW_90-EV-0144
001643  ERN_F1646_NSCR_1990-04-01_5_OF_5_RACE_B-ROLL_TRANSOUTH_500_DARLINGTON_DESR_NO3_&_VICTORY_LANE_SCENES_W_TERESA_EARNHARDT_TAYLOR_EA V     C        00:17:18:09 00:17:20:05 00:35:17:13 00:35:19:09 
M2      ERN_F1646_NSCR_1990-04-01_5_OF_5_RACE_B-ROLL_TRANSOUTH_500_DARLINGTON_DESR_NO3_&_VICTORY_LANE_SCENES_W_TERESA_EARNHARDT_TAYLOR_EA          030.0 00:17:18:09 
*FROM CLIP NAME:  ERN_F1646_NSCR_1990-04-01_5 OF 5 RACE B-ROLL TRANSOUTH 500 DARLINGTON DESR NO3 & VICTORY LANE SCENES W TERESA EARNHARDT TAYLOR EARNHARDT & CREW_90-EV-0144.NEW.01 
*SOURCE FILE: ERN_F1646_NSCR_1990-04-01_5 OF 5 RACE B-ROLL TRANSOUTH 500 DARLINGTON DESR NO3 & VICTORY LANE SCENES W TERESA EARNHARDT TAYLOR EARNHARDT & CREW_90-EV-0144
001644  ERN_F1646_NSCR_1990-04-01_5_OF_5_RACE_B-ROLL_TRANSOUTH_500_DARLINGTON_DESR_NO3_&_VICTORY_LANE_SCENES_W_TERESA_EARNHARDT_TAYLOR_EA V     C        00:17:30:26 00:17:32:18 00:35:19:09 00:35:21:02 
M2      ERN_F1646_NSCR_1990-04-01_5_OF_5_RACE_B-ROLL_TRANSOUTH_500_DARLINGTON_DESR_NO3_&_VICTORY_LANE_SCENES_W_TERESA_EARNHARDT_TAYLOR_EA          030.0 00:17:30:26 
*FROM CLIP NAME:  ERN_F1646_NSCR_1990-04-01_5 OF 5 RACE B-ROLL TRANSOUTH 500 DARLINGTON DESR NO3 & VICTORY LANE SCENES W TERESA EARNHARDT TAYLOR EARNHARDT & CREW_90-EV-0144.NEW.01 
*SOURCE FILE: ERN_F1646_NSCR_1990-04-01_5 OF 5 RACE B-ROLL TRANSOUTH 500 DARLINGTON DESR NO3 & VICTORY LANE SCENES W TERESA EARNHARDT TAYLOR EARNHARDT & CREW_90-EV-0144
001645  ERN_F3169_NSCR_1990-11-18_ATLANTA_JOURNAL_500_DESR_AGAINST_MARK_MARTIN_&_BILL_ELLIOT_MICK_RICH_ACCIDENT_90-EV-0654                V     C        02:17:36:11 02:17:39:06 00:35:21:02 00:35:23:22 
M2      ERN_F3169_NSCR_1990-11-18_ATLANTA_JOURNAL_500_DESR_AGAINST_MARK_MARTIN_&_BILL_ELLIOT_MICK_RICH_ACCIDENT_90-EV-0654                         030.0 02:17:36:11 
*FROM CLIP NAME:  ERN_F3169_NSCR_1990-11-18_ATLANTA JOURNAL 500 DESR AGAINST MARK MARTIN & BILL ELLIOT MICK RICH ACCIDENT_90-EV-0654.NEW.01 
*SOURCE FILE: ERN_F3169_NSCR_1990-11-18_ATLANTA JOURNAL 500 DESR AGAINST MARK MARTIN & BILL ELLIOT MICK RICH ACCIDENT_90-EV-0654
001646  ERN_F1031_NSCR_1992-09-02_PART_2_OF_3_FARM_INTV_DESR_W_NEIL_BONNETT_IN_GARAGE_33_EARNHARDT_6                                      A20   C        00:20:47:22 00:20:47:25 00:35:21:16 00:35:21:18 
M2      ERN_F1031_NSCR_1992-09-02_PART_2_OF_3_FARM_INTV_DESR_W_NEIL_BONNETT_IN_GARAGE_33_EARNHARDT_6                                               030.0 00:20:47:22 
*FROM CLIP NAME:  ERN_F1031_NSCR_1992-09-02_PART 2 OF 3 FARM INTV DESR W NEIL BONNETT IN GARAGE_33_EARNHARDT 6.NEW.01.COPY.01 
*SOURCE FILE: ERN_F1031_NSCR_1992-09-02_PART 2 OF 3 FARM INTV DESR W NEIL BONNETT IN GARAGE_33_EARNHARDT 6
001647  ERN_F1031_NSCR_1992-09-02_PART_2_OF_3_FARM_INTV_DESR_W_NEIL_BONNETT_IN_GARAGE_33_EARNHARDT_6                                      A20   C        00:20:47:25 00:20:49:24 00:35:21:18 00:35:23:17 
M2      ERN_F1031_NSCR_1992-09-02_PART_2_OF_3_FARM_INTV_DESR_W_NEIL_BONNETT_IN_GARAGE_33_EARNHARDT_6                                               030.0 00:20:47:25 
*FROM CLIP NAME:  ERN_F1031_NSCR_1992-09-02_PART 2 OF 3 FARM INTV DESR W NEIL BONNETT IN GARAGE_33_EARNHARDT 6.NEW.01.COPY.01 
*SOURCE FILE: ERN_F1031_NSCR_1992-09-02_PART 2 OF 3 FARM INTV DESR W NEIL BONNETT IN GARAGE_33_EARNHARDT 6
001648  ERN_F1031_NSCR_1992-09-02_PART_2_OF_3_FARM_INTV_DESR_W_NEIL_BONNETT_IN_GARAGE_33_EARNHARDT_6                                      A20   C        00:20:51:05 00:20:51:08 00:35:23:17 00:35:23:19 
M2      ERN_F1031_NSCR_1992-09-02_PART_2_OF_3_FARM_INTV_DESR_W_NEIL_BONNETT_IN_GARAGE_33_EARNHARDT_6                                               030.0 00:20:51:05 
*FROM CLIP NAME:  ERN_F1031_NSCR_1992-09-02_PART 2 OF 3 FARM INTV DESR W NEIL BONNETT IN GARAGE_33_EARNHARDT 6.NEW.01.COPY.01 
*TO CLIP NAME:  ERN_F1031_NSCR_1992-09-02_PART 2 OF 3 FARM INTV DESR W NEIL BONNETT IN GARAGE_33_EARNHARDT 6.NEW.01.COPY.01 
*SOURCE FILE: ERN_F1031_NSCR_1992-09-02_PART 2 OF 3 FARM INTV DESR W NEIL BONNETT IN GARAGE_33_EARNHARDT 6
001649  ERN_F1031_NSCR_1992-09-02_PART_2_OF_3_FARM_INTV_DESR_W_NEIL_BONNETT_IN_GARAGE_33_EARNHARDT_6                                      A20   C        00:20:51:07 00:20:52:14 00:35:23:19 00:35:25:00 
M2      ERN_F1031_NSCR_1992-09-02_PART_2_OF_3_FARM_INTV_DESR_W_NEIL_BONNETT_IN_GARAGE_33_EARNHARDT_6                                               030.0 00:20:51:07 
*FROM CLIP NAME:  ERN_F1031_NSCR_1992-09-02_PART 2 OF 3 FARM INTV DESR W NEIL BONNETT IN GARAGE_33_EARNHARDT 6.NEW.01.COPY.01 
*SOURCE FILE: ERN_F1031_NSCR_1992-09-02_PART 2 OF 3 FARM INTV DESR W NEIL BONNETT IN GARAGE_33_EARNHARDT 6
001650  ERN_F0491_NSCR_1990S_B-ROLL_DALE_EARNHARDT_JR_FIRST_CUP_WIN_W_DALE_EARNHARDT_RACES_&_HOMETOWN_TOUR_&_KENNY_EARNHARDT_RACES_SE0083 V     C        00:20:17:17 00:20:21:08 00:35:23:22 00:35:27:14 
M2      ERN_F0491_NSCR_1990S_B-ROLL_DALE_EARNHARDT_JR_FIRST_CUP_WIN_W_DALE_EARNHARDT_RACES_&_HOMETOWN_TOUR_&_KENNY_EARNHARDT_RACES_SE0083          030.0 00:20:17:17 
*FROM CLIP NAME:  ERN_F0491_NSCR_1990S_B-ROLL DALE EARNHARDT JR FIRST CUP WIN W DALE EARNHARDT RACES & HOMETOWN TOUR & KENNY EARNHARDT RACES_SE008303.NEW.01 
*SOURCE FILE: ERN_F0491_NSCR_1990S_B-ROLL DALE EARNHARDT JR FIRST CUP WIN W DALE EARNHARDT RACES & HOMETOWN TOUR & KENNY EARNHARDT RACES_SE008303
001651  ERN_F1031_NSCR_1992-09-02_PART_2_OF_3_FARM_INTV_DESR_W_NEIL_BONNETT_IN_GARAGE_33_EARNHARDT_6                                      A20   C        00:20:52:26 00:20:52:29 00:35:25:00 00:35:25:02 
M2      ERN_F1031_NSCR_1992-09-02_PART_2_OF_3_FARM_INTV_DESR_W_NEIL_BONNETT_IN_GARAGE_33_EARNHARDT_6                                               030.0 00:20:52:26 
*FROM CLIP NAME:  ERN_F1031_NSCR_1992-09-02_PART 2 OF 3 FARM INTV DESR W NEIL BONNETT IN GARAGE_33_EARNHARDT 6.NEW.01.COPY.01 
*TO CLIP NAME:  ERN_F1031_NSCR_1992-09-02_PART 2 OF 3 FARM INTV DESR W NEIL BONNETT IN GARAGE_33_EARNHARDT 6.NEW.01.COPY.01 
*SOURCE FILE: ERN_F1031_NSCR_1992-09-02_PART 2 OF 3 FARM INTV DESR W NEIL BONNETT IN GARAGE_33_EARNHARDT 6
001652  ERN_F1031_NSCR_1992-09-02_PART_2_OF_3_FARM_INTV_DESR_W_NEIL_BONNETT_IN_GARAGE_33_EARNHARDT_6                                      A20   C        00:20:52:28 00:20:54:22 00:35:25:02 00:35:26:20 
M2      ERN_F1031_NSCR_1992-09-02_PART_2_OF_3_FARM_INTV_DESR_W_NEIL_BONNETT_IN_GARAGE_33_EARNHARDT_6                                               030.0 00:20:52:28 
*FROM CLIP NAME:  ERN_F1031_NSCR_1992-09-02_PART 2 OF 3 FARM INTV DESR W NEIL BONNETT IN GARAGE_33_EARNHARDT 6.NEW.01.COPY.01 
*SOURCE FILE: ERN_F1031_NSCR_1992-09-02_PART 2 OF 3 FARM INTV DESR W NEIL BONNETT IN GARAGE_33_EARNHARDT 6
001653  ERN_F0973_NSCR_1990-04-04_B-ROLL_DESR_IN_GARAGE_W_FANS_&_WESSA_MILLER_&_TAYLOR_NICOLE_EARNHARDT_&_BLOOPER_REEL_SE005940           A18   C        00:13:07:28 00:13:08:18 00:35:26:23 00:35:27:15 
M2      ERN_F0973_NSCR_1990-04-04_B-ROLL_DESR_IN_GARAGE_W_FANS_&_WESSA_MILLER_&_TAYLOR_NICOLE_EARNHARDT_&_BLOOPER_REEL_SE005940                    030.0 00:13:07:28 
*FROM CLIP NAME:  ERN_F0973_NSCR_1990-04-04_B-ROLL DESR IN GARAGE W FANS & WESSA MILLER & TAYLOR NICOLE EARNHARDT & BLOOPER REEL_SE005940.NEW.01 
*SOURCE FILE: ERN_F0973_NSCR_1990-04-04_B-ROLL DESR IN GARAGE W FANS & WESSA MILLER & TAYLOR NICOLE EARNHARDT & BLOOPER REEL_SE005940
001654  ERN_F0973_NSCR_1990-04-04_B-ROLL_DESR_IN_GARAGE_W_FANS_&_WESSA_MILLER_&_TAYLOR_NICOLE_EARNHARDT_&_BLOOPER_REEL_SE005940           V     C        00:13:08:16 00:13:10:10 00:35:27:14 00:35:29:08 
M2      ERN_F0973_NSCR_1990-04-04_B-ROLL_DESR_IN_GARAGE_W_FANS_&_WESSA_MILLER_&_TAYLOR_NICOLE_EARNHARDT_&_BLOOPER_REEL_SE005940                    030.0 00:13:08:16 
*FROM CLIP NAME:  ERN_F0973_NSCR_1990-04-04_B-ROLL DESR IN GARAGE W FANS & WESSA MILLER & TAYLOR NICOLE EARNHARDT & BLOOPER REEL_SE005940.NEW.01 
*SOURCE FILE: ERN_F0973_NSCR_1990-04-04_B-ROLL DESR IN GARAGE W FANS & WESSA MILLER & TAYLOR NICOLE EARNHARDT & BLOOPER REEL_SE005940
001655  ERN_F0973_NSCR_1990-04-04_B-ROLL_DESR_IN_GARAGE_W_FANS_&_WESSA_MILLER_&_TAYLOR_NICOLE_EARNHARDT_&_BLOOPER_REEL_SE005940           A18   C        00:13:08:18 00:13:10:05 00:35:27:15 00:35:29:04 
M2      ERN_F0973_NSCR_1990-04-04_B-ROLL_DESR_IN_GARAGE_W_FANS_&_WESSA_MILLER_&_TAYLOR_NICOLE_EARNHARDT_&_BLOOPER_REEL_SE005940                    030.0 00:13:08:18 
*FROM CLIP NAME:  ERN_F0973_NSCR_1990-04-04_B-ROLL DESR IN GARAGE W FANS & WESSA MILLER & TAYLOR NICOLE EARNHARDT & BLOOPER REEL_SE005940.NEW.01 
*SOURCE FILE: ERN_F0973_NSCR_1990-04-04_B-ROLL DESR IN GARAGE W FANS & WESSA MILLER & TAYLOR NICOLE EARNHARDT & BLOOPER REEL_SE005940
001656  ERN_F0973_NSCR_1990-04-04_B-ROLL_DESR_IN_GARAGE_W_FANS_&_WESSA_MILLER_&_TAYLOR_NICOLE_EARNHARDT_&_BLOOPER_REEL_SE005940           A18   C        00:11:57:26 00:11:58:27 00:35:29:04 00:35:30:04 
M2      ERN_F0973_NSCR_1990-04-04_B-ROLL_DESR_IN_GARAGE_W_FANS_&_WESSA_MILLER_&_TAYLOR_NICOLE_EARNHARDT_&_BLOOPER_REEL_SE005940                    030.0 00:11:57:26 
*FROM CLIP NAME:  ERN_F0973_NSCR_1990-04-04_B-ROLL DESR IN GARAGE W FANS & WESSA MILLER & TAYLOR NICOLE EARNHARDT & BLOOPER REEL_SE005940.NEW.01 
*TO CLIP NAME:  ERN_F0973_NSCR_1990-04-04_B-ROLL DESR IN GARAGE W FANS & WESSA MILLER & TAYLOR NICOLE EARNHARDT & BLOOPER REEL_SE005940.NEW.01 
*SOURCE FILE: ERN_F0973_NSCR_1990-04-04_B-ROLL DESR IN GARAGE W FANS & WESSA MILLER & TAYLOR NICOLE EARNHARDT & BLOOPER REEL_SE005940
001657  ERN_F0973_NSCR_1990-04-04_B-ROLL_DESR_IN_GARAGE_W_FANS_&_WESSA_MILLER_&_TAYLOR_NICOLE_EARNHARDT_&_BLOOPER_REEL_SE005940           V     C        00:11:58:01 00:12:00:24 00:35:29:08 00:35:32:00 
M2      ERN_F0973_NSCR_1990-04-04_B-ROLL_DESR_IN_GARAGE_W_FANS_&_WESSA_MILLER_&_TAYLOR_NICOLE_EARNHARDT_&_BLOOPER_REEL_SE005940                    030.0 00:11:58:01 
*FROM CLIP NAME:  ERN_F0973_NSCR_1990-04-04_B-ROLL DESR IN GARAGE W FANS & WESSA MILLER & TAYLOR NICOLE EARNHARDT & BLOOPER REEL_SE005940.NEW.01 
*SOURCE FILE: ERN_F0973_NSCR_1990-04-04_B-ROLL DESR IN GARAGE W FANS & WESSA MILLER & TAYLOR NICOLE EARNHARDT & BLOOPER REEL_SE005940
001658  ERN_F0177_NSCR_1990-11-15_INTV_DALE_EARNHARDT_ATLANTA_JOURNAL_500_TOPIC_-_FAMILY_&_DRIVE_TO_WIN_&_FANS_1990_ATLANTA_EARNHARDT_INT A20   C        01:16:58:27 01:16:59:13 00:35:29:17 00:35:30:05 
M2      ERN_F0177_NSCR_1990-11-15_INTV_DALE_EARNHARDT_ATLANTA_JOURNAL_500_TOPIC_-_FAMILY_&_DRIVE_TO_WIN_&_FANS_1990_ATLANTA_EARNHARDT_INT          030.0 01:16:58:27 
*FROM CLIP NAME:  ERN_F0177_NSCR_1990-11-15_INTV DALE EARNHARDT ATLANTA JOURNAL 500 TOPIC - FAMILY & DRIVE TO WIN & FANS_1990_ATLANTA_EARNHARDT_INT_1.NEW.02 
*SOURCE FILE: ERN_F0177_NSCR_1990-11-15_INTV DALE EARNHARDT ATLANTA JOURNAL 500 TOPIC - FAMILY & DRIVE TO WIN & FANS_1990_ATLANTA_EARNHARDT_INT_1
001659  ERN_F0973_NSCR_1990-04-04_B-ROLL_DESR_IN_GARAGE_W_FANS_&_WESSA_MILLER_&_TAYLOR_NICOLE_EARNHARDT_&_BLOOPER_REEL_SE005940           A18   C        00:11:58:26 00:12:00:23 00:35:30:04 00:35:31:23 
M2      ERN_F0973_NSCR_1990-04-04_B-ROLL_DESR_IN_GARAGE_W_FANS_&_WESSA_MILLER_&_TAYLOR_NICOLE_EARNHARDT_&_BLOOPER_REEL_SE005940                    030.0 00:11:58:26 
*FROM CLIP NAME:  ERN_F0973_NSCR_1990-04-04_B-ROLL DESR IN GARAGE W FANS & WESSA MILLER & TAYLOR NICOLE EARNHARDT & BLOOPER REEL_SE005940.NEW.01 
*SOURCE FILE: ERN_F0973_NSCR_1990-04-04_B-ROLL DESR IN GARAGE W FANS & WESSA MILLER & TAYLOR NICOLE EARNHARDT & BLOOPER REEL_SE005940
001660  ERN_F0177_NSCR_1990-11-15_INTV_DALE_EARNHARDT_ATLANTA_JOURNAL_500_TOPIC_-_FAMILY_&_DRIVE_TO_WIN_&_FANS_1990_ATLANTA_EARNHARDT_INT A20   C        01:16:59:12 01:17:11:01 00:35:30:05 00:35:41:18 
M2      ERN_F0177_NSCR_1990-11-15_INTV_DALE_EARNHARDT_ATLANTA_JOURNAL_500_TOPIC_-_FAMILY_&_DRIVE_TO_WIN_&_FANS_1990_ATLANTA_EARNHARDT_INT          030.0 01:16:59:12 
*FROM CLIP NAME:  ERN_F0177_NSCR_1990-11-15_INTV DALE EARNHARDT ATLANTA JOURNAL 500 TOPIC - FAMILY & DRIVE TO WIN & FANS_1990_ATLANTA_EARNHARDT_INT_1.NEW.02 
*SOURCE FILE: ERN_F0177_NSCR_1990-11-15_INTV DALE EARNHARDT ATLANTA JOURNAL 500 TOPIC - FAMILY & DRIVE TO WIN & FANS_1990_ATLANTA_EARNHARDT_INT_1
001661  ERN_F0177_NSCR_1990-11-15_INTV_DALE_EARNHARDT_ATLANTA_JOURNAL_500_TOPIC_-_FAMILY_&_DRIVE_TO_WIN_&_FANS_1990_ATLANTA_EARNHARDT_INT V     C        01:17:01:08 01:17:08:01 00:35:32:00 00:35:38:18 
M2      ERN_F0177_NSCR_1990-11-15_INTV_DALE_EARNHARDT_ATLANTA_JOURNAL_500_TOPIC_-_FAMILY_&_DRIVE_TO_WIN_&_FANS_1990_ATLANTA_EARNHARDT_INT          030.0 01:17:01:08 
*FROM CLIP NAME:  ERN_F0177_NSCR_1990-11-15_INTV DALE EARNHARDT ATLANTA JOURNAL 500 TOPIC - FAMILY & DRIVE TO WIN & FANS_1990_ATLANTA_EARNHARDT_INT_1.NEW.02 
*SOURCE FILE: ERN_F0177_NSCR_1990-11-15_INTV DALE EARNHARDT ATLANTA JOURNAL 500 TOPIC - FAMILY & DRIVE TO WIN & FANS_1990_ATLANTA_EARNHARDT_INT_1
001662  ERN_F3328_NSCR_1990-11-18_ATLANTA_JOURNAL_500-DESR_NO3_NASCAR_DRIVER_CONFERENCE_MEETING_RUSTY_WALLACE_AWARD_DESR__LGP03469        A18   C        00:00:23:07 00:00:25:08 00:35:38:06 00:35:40:06 
M2      ERN_F3328_NSCR_1990-11-18_ATLANTA_JOURNAL_500-DESR_NO3_NASCAR_DRIVER_CONFERENCE_MEETING_RUSTY_WALLACE_AWARD_DESR__LGP03469                 030.0 00:00:23:07 
*FROM CLIP NAME:  ERN_F3328_NSCR_1990-11-18_ATLANTA JOURNAL 500-DESR NO3 NASCAR DRIVER CONFERENCE MEETING RUSTY WALLACE AWARD DESR _LGP03469.NEW.01 
*SOURCE FILE: ERN_F3328_NSCR_1990-11-18_ATLANTA JOURNAL 500-DESR NO3 NASCAR DRIVER CONFERENCE MEETING RUSTY WALLACE AWARD DESR _LGP03469
001663  ERN_F3328_NSCR_1990-11-18_ATLANTA_JOURNAL_500-DESR_NO3_NASCAR_DRIVER_CONFERENCE_MEETING_RUSTY_WALLACE_AWARD_DESR__LGP03469        V     C        00:08:13:05 00:08:21:24 00:35:38:18 00:35:47:09 
M2      ERN_F3328_NSCR_1990-11-18_ATLANTA_JOURNAL_500-DESR_NO3_NASCAR_DRIVER_CONFERENCE_MEETING_RUSTY_WALLACE_AWARD_DESR__LGP03469                 030.0 00:08:13:05 
*FROM CLIP NAME:  ERN_F3328_NSCR_1990-11-18_ATLANTA JOURNAL 500-DESR NO3 NASCAR DRIVER CONFERENCE MEETING RUSTY WALLACE AWARD DESR _LGP03469.NEW.01 
*SOURCE FILE: ERN_F3328_NSCR_1990-11-18_ATLANTA JOURNAL 500-DESR NO3 NASCAR DRIVER CONFERENCE MEETING RUSTY WALLACE AWARD DESR _LGP03469
001664  ERN_F3328_NSCR_1990-11-18_ATLANTA_JOURNAL_500-DESR_NO3_NASCAR_DRIVER_CONFERENCE_MEETING_RUSTY_WALLACE_AWARD_DESR__LGP03469        A18   C        00:00:25:07 00:00:31:13 00:35:40:06 00:35:46:10 
M2      ERN_F3328_NSCR_1990-11-18_ATLANTA_JOURNAL_500-DESR_NO3_NASCAR_DRIVER_CONFERENCE_MEETING_RUSTY_WALLACE_AWARD_DESR__LGP03469                 030.0 00:00:25:07 
*FROM CLIP NAME:  ERN_F3328_NSCR_1990-11-18_ATLANTA JOURNAL 500-DESR NO3 NASCAR DRIVER CONFERENCE MEETING RUSTY WALLACE AWARD DESR _LGP03469.NEW.01 
*SOURCE FILE: ERN_F3328_NSCR_1990-11-18_ATLANTA JOURNAL 500-DESR NO3 NASCAR DRIVER CONFERENCE MEETING RUSTY WALLACE AWARD DESR _LGP03469
001665  ERN_F0177_NSCR_1990-11-15_INTV_DALE_EARNHARDT_ATLANTA_JOURNAL_500_TOPIC_-_FAMILY_&_DRIVE_TO_WIN_&_FANS_1990_ATLANTA_EARNHARDT_INT A20   C        01:17:12:07 01:17:12:10 00:35:41:18 00:35:41:20 
M2      ERN_F0177_NSCR_1990-11-15_INTV_DALE_EARNHARDT_ATLANTA_JOURNAL_500_TOPIC_-_FAMILY_&_DRIVE_TO_WIN_&_FANS_1990_ATLANTA_EARNHARDT_INT          030.0 01:17:12:07 
*FROM CLIP NAME:  ERN_F0177_NSCR_1990-11-15_INTV DALE EARNHARDT ATLANTA JOURNAL 500 TOPIC - FAMILY & DRIVE TO WIN & FANS_1990_ATLANTA_EARNHARDT_INT_1.NEW.02 
*TO CLIP NAME:  ERN_F0177_NSCR_1990-11-15_INTV DALE EARNHARDT ATLANTA JOURNAL 500 TOPIC - FAMILY & DRIVE TO WIN & FANS_1990_ATLANTA_EARNHARDT_INT_1.NEW.02 
*SOURCE FILE: ERN_F0177_NSCR_1990-11-15_INTV DALE EARNHARDT ATLANTA JOURNAL 500 TOPIC - FAMILY & DRIVE TO WIN & FANS_1990_ATLANTA_EARNHARDT_INT_1
001666  ERN_F0177_NSCR_1990-11-15_INTV_DALE_EARNHARDT_ATLANTA_JOURNAL_500_TOPIC_-_FAMILY_&_DRIVE_TO_WIN_&_FANS_1990_ATLANTA_EARNHARDT_INT A20   C        01:17:12:09 01:17:16:04 00:35:41:20 00:35:45:15 
M2      ERN_F0177_NSCR_1990-11-15_INTV_DALE_EARNHARDT_ATLANTA_JOURNAL_500_TOPIC_-_FAMILY_&_DRIVE_TO_WIN_&_FANS_1990_ATLANTA_EARNHARDT_INT          030.0 01:17:12:09 
*FROM CLIP NAME:  ERN_F0177_NSCR_1990-11-15_INTV DALE EARNHARDT ATLANTA JOURNAL 500 TOPIC - FAMILY & DRIVE TO WIN & FANS_1990_ATLANTA_EARNHARDT_INT_1.NEW.02 
*SOURCE FILE: ERN_F0177_NSCR_1990-11-15_INTV DALE EARNHARDT ATLANTA JOURNAL 500 TOPIC - FAMILY & DRIVE TO WIN & FANS_1990_ATLANTA_EARNHARDT_INT_1
001667  ERN_F0178_NSCR_1990-11-15_INTV_DALE_EARNHARDT_ATLANTA_JOURNAL_500_TOPICS_-_RACING_INFLUENCES_&_FINANCIAL_SACRIFICES_1990_ATLANTA_ A20   C        02:03:51:10 02:03:51:13 00:35:45:15 00:35:45:17 
M2      ERN_F0178_NSCR_1990-11-15_INTV_DALE_EARNHARDT_ATLANTA_JOURNAL_500_TOPICS_-_RACING_INFLUENCES_&_FINANCIAL_SACRIFICES_1990_ATLANTA_          030.0 02:03:51:10 
*FROM CLIP NAME:  ERN_F0178_NSCR_1990-11-15_INTV DALE EARNHARDT ATLANTA JOURNAL 500 TOPICS - RACING INFLUENCES & FINANCIAL SACRIFICES_1990_ATLANTA_EARNHARDT_INT_2.NEW.02 
*TO CLIP NAME:  ERN_F0177_NSCR_1990-11-15_INTV DALE EARNHARDT ATLANTA JOURNAL 500 TOPIC - FAMILY & DRIVE TO WIN & FANS_1990_ATLANTA_EARNHARDT_INT_1.NEW.02 
*SOURCE FILE: ERN_F0178_NSCR_1990-11-15_INTV DALE EARNHARDT ATLANTA JOURNAL 500 TOPICS - RACING INFLUENCES & FINANCIAL SACRIFICES_1990_ATLANTA_EARNHARDT_INT_2
001668  ERN_F0178_NSCR_1990-11-15_INTV_DALE_EARNHARDT_ATLANTA_JOURNAL_500_TOPICS_-_RACING_INFLUENCES_&_FINANCIAL_SACRIFICES_1990_ATLANTA_ A20   C        02:03:51:12 02:03:51:17 00:35:45:17 00:35:45:20 
M2      ERN_F0178_NSCR_1990-11-15_INTV_DALE_EARNHARDT_ATLANTA_JOURNAL_500_TOPICS_-_RACING_INFLUENCES_&_FINANCIAL_SACRIFICES_1990_ATLANTA_          030.0 02:03:51:12 
*FROM CLIP NAME:  ERN_F0178_NSCR_1990-11-15_INTV DALE EARNHARDT ATLANTA JOURNAL 500 TOPICS - RACING INFLUENCES & FINANCIAL SACRIFICES_1990_ATLANTA_EARNHARDT_INT_2.NEW.02 
*SOURCE FILE: ERN_F0178_NSCR_1990-11-15_INTV DALE EARNHARDT ATLANTA JOURNAL 500 TOPICS - RACING INFLUENCES & FINANCIAL SACRIFICES_1990_ATLANTA_EARNHARDT_INT_2
001669  ERN_F6073_NSCR_1990-11-19_RACE_B-ROLL_ATLANTA_MOTOR_SPEEDWAY_ATLANTA_JOURNAL_500_DESR_&_OTF_INTVS_LGP03470                        A20   C        00:10:22:11 00:10:23:27 00:35:46:22 00:35:48:10 
M2      ERN_F6073_NSCR_1990-11-19_RACE_B-ROLL_ATLANTA_MOTOR_SPEEDWAY_ATLANTA_JOURNAL_500_DESR_&_OTF_INTVS_LGP03470                                 030.0 00:10:22:11 
*FROM CLIP NAME:  ERN_F3329_NSCR_1990-11-18_ATLANTA JOURNAL 500-RICHARD PETTY WALK OUT _LGP03470.NEW.01 
*SOURCE FILE: ERN_F6073_NSCR_1990-11-19_RACE B-ROLL ATLANTA MOTOR SPEEDWAY ATLANTA JOURNAL 500 DESR & OTF INTVS_LGP03470
001670  ERN_F6073_NSCR_1990-11-19_RACE_B-ROLL_ATLANTA_MOTOR_SPEEDWAY_ATLANTA_JOURNAL_500_DESR_&_OTF_INTVS_LGP03470                        V     C        00:10:46:27 00:10:48:15 00:35:47:09 00:35:48:23 
M2      ERN_F6073_NSCR_1990-11-19_RACE_B-ROLL_ATLANTA_MOTOR_SPEEDWAY_ATLANTA_JOURNAL_500_DESR_&_OTF_INTVS_LGP03470                                 030.0 00:10:46:27 
*FROM CLIP NAME:  ERN_F3329_NSCR_1990-11-18_ATLANTA JOURNAL 500-RICHARD PETTY WALK OUT _LGP03470.NEW.01 
*SOURCE FILE: ERN_F6073_NSCR_1990-11-19_RACE B-ROLL ATLANTA MOTOR SPEEDWAY ATLANTA JOURNAL 500 DESR & OTF INTVS_LGP03470
001671  ERN_F6073_NSCR_1990-11-19_RACE_B-ROLL_ATLANTA_MOTOR_SPEEDWAY_ATLANTA_JOURNAL_500_DESR_&_OTF_INTVS_LGP03470                        A20   C        00:10:23:26 00:10:29:22 00:35:48:10 00:35:54:06 
M2      ERN_F6073_NSCR_1990-11-19_RACE_B-ROLL_ATLANTA_MOTOR_SPEEDWAY_ATLANTA_JOURNAL_500_DESR_&_OTF_INTVS_LGP03470                                 030.0 00:10:23:26 
*FROM CLIP NAME:  ERN_F3329_NSCR_1990-11-18_ATLANTA JOURNAL 500-RICHARD PETTY WALK OUT _LGP03470.NEW.01 
*SOURCE FILE: ERN_F6073_NSCR_1990-11-19_RACE B-ROLL ATLANTA MOTOR SPEEDWAY ATLANTA JOURNAL 500 DESR & OTF INTVS_LGP03470
001672  ERN_F6073_NSCR_1990-11-19_RACE_B-ROLL_ATLANTA_MOTOR_SPEEDWAY_ATLANTA_JOURNAL_500_DESR_&_OTF_INTVS_LGP03470                        V     C        00:10:24:12 00:10:27:14 00:35:48:23 00:35:52:00 
M2      ERN_F6073_NSCR_1990-11-19_RACE_B-ROLL_ATLANTA_MOTOR_SPEEDWAY_ATLANTA_JOURNAL_500_DESR_&_OTF_INTVS_LGP03470                                 030.0 00:10:24:12 
*FROM CLIP NAME:  ERN_F3329_NSCR_1990-11-18_ATLANTA JOURNAL 500-RICHARD PETTY WALK OUT _LGP03470.NEW.01 
*SOURCE FILE: ERN_F6073_NSCR_1990-11-19_RACE B-ROLL ATLANTA MOTOR SPEEDWAY ATLANTA JOURNAL 500 DESR & OTF INTVS_LGP03470
001673  ERN_F6073_NSCR_1990-11-19_RACE_B-ROLL_ATLANTA_MOTOR_SPEEDWAY_ATLANTA_JOURNAL_500_DESR_&_OTF_INTVS_LGP03470                        V     C        00:10:40:15 00:10:43:08 00:35:52:00 00:35:54:18 
M2      ERN_F6073_NSCR_1990-11-19_RACE_B-ROLL_ATLANTA_MOTOR_SPEEDWAY_ATLANTA_JOURNAL_500_DESR_&_OTF_INTVS_LGP03470                                 030.0 00:10:40:15 
*FROM CLIP NAME:  ERN_F3329_NSCR_1990-11-18_ATLANTA JOURNAL 500-RICHARD PETTY WALK OUT _LGP03470.NEW.01 
*SOURCE FILE: ERN_F6073_NSCR_1990-11-19_RACE B-ROLL ATLANTA MOTOR SPEEDWAY ATLANTA JOURNAL 500 DESR & OTF INTVS_LGP03470
001674  ERN_F6073_NSCR_1990-11-19_RACE_B-ROLL_ATLANTA_MOTOR_SPEEDWAY_ATLANTA_JOURNAL_500_DESR_&_OTF_INTVS_LGP03470                        A18   C        00:10:41:08 00:10:42:23 00:35:52:19 00:35:54:06 
M2      ERN_F6073_NSCR_1990-11-19_RACE_B-ROLL_ATLANTA_MOTOR_SPEEDWAY_ATLANTA_JOURNAL_500_DESR_&_OTF_INTVS_LGP03470                                 030.0 00:10:41:08 
*FROM CLIP NAME:  ERN_F3329_NSCR_1990-11-18_ATLANTA JOURNAL 500-RICHARD PETTY WALK OUT _LGP03470.NEW.01 
*SOURCE FILE: ERN_F6073_NSCR_1990-11-19_RACE B-ROLL ATLANTA MOTOR SPEEDWAY ATLANTA JOURNAL 500 DESR & OTF INTVS_LGP03470
001675  ERN_F2906_NSCR_1989-11_RACE_ON_FILM_B-ROLL_ATLANTA_JOURNAL_500-CROWDS_TRACK_&_VICTORY_LANE_1989-NAS-00144_S001                    V     C        00:01:15:18 00:01:21:00 00:35:54:18 00:35:59:23 
M2      ERN_F2906_NSCR_1989-11_RACE_ON_FILM_B-ROLL_ATLANTA_JOURNAL_500-CROWDS_TRACK_&_VICTORY_LANE_1989-NAS-00144_S001                             024.0 00:01:15:18 
*FROM CLIP NAME:  ERN_F2906_NSCR_1989-11_RACE ON FILM B-ROLL ATLANTA JOURNAL 500-CROWDS TRACK & VICTORY LANE_1989-NAS-00144_S001.NEW.01 
*SOURCE FILE: ERN_F2906_NSCR_1989-11_RACE ON FILM B-ROLL ATLANTA JOURNAL 500-CROWDS TRACK & VICTORY LANE_1989-NAS-00144_S001
001676  ERN_F3167_NSCR_1990-11-18_BROLL_ATLANTA_JOURNAL_500_DRIVING_POV_&_TERESA_HOLDING_TAYLOR_90-EV-0651                                A18   C        12:37:47:16 12:37:47:23 00:35:56:21 00:35:57:02 
M2      ERN_F3167_NSCR_1990-11-18_BROLL_ATLANTA_JOURNAL_500_DRIVING_POV_&_TERESA_HOLDING_TAYLOR_90-EV-0651                                         030.0 12:37:47:16 
*FROM CLIP NAME:  ERN_F3167_NSCR_1990-11-18_BROLL ATLANTA JOURNAL 500 DRIVING POV & TERESA HOLDING TAYLOR_90-EV-0651.NEW.01 
*SOURCE FILE: ERN_F3167_NSCR_1990-11-18_BROLL ATLANTA JOURNAL 500 DRIVING POV & TERESA HOLDING TAYLOR_90-EV-0651
001677  ERN_F3167_NSCR_1990-11-18_BROLL_ATLANTA_JOURNAL_500_DRIVING_POV_&_TERESA_HOLDING_TAYLOR_90-EV-0651                                A18   C        12:37:47:22 12:37:51:11 00:35:57:02 00:36:00:16 
M2      ERN_F3167_NSCR_1990-11-18_BROLL_ATLANTA_JOURNAL_500_DRIVING_POV_&_TERESA_HOLDING_TAYLOR_90-EV-0651                                         030.0 12:37:47:22 
*FROM CLIP NAME:  ERN_F3167_NSCR_1990-11-18_BROLL ATLANTA JOURNAL 500 DRIVING POV & TERESA HOLDING TAYLOR_90-EV-0651.NEW.01 
*SOURCE FILE: ERN_F3167_NSCR_1990-11-18_BROLL ATLANTA JOURNAL 500 DRIVING POV & TERESA HOLDING TAYLOR_90-EV-0651
001678  ERN_F2906_NSCR_1989-11_RACE_ON_FILM_B-ROLL_ATLANTA_JOURNAL_500-CROWDS_TRACK_&_VICTORY_LANE_1989-NAS-00144_S001                    V     C        00:00:42:20 00:00:45:07 00:35:59:23 00:36:02:09 
M2      ERN_F2906_NSCR_1989-11_RACE_ON_FILM_B-ROLL_ATLANTA_JOURNAL_500-CROWDS_TRACK_&_VICTORY_LANE_1989-NAS-00144_S001                             024.0 00:00:42:20 
*FROM CLIP NAME:  ERN_F2906_NSCR_1989-11_RACE ON FILM B-ROLL ATLANTA JOURNAL 500-CROWDS TRACK & VICTORY LANE_1989-NAS-00144_S001.NEW.01 
*SOURCE FILE: ERN_F2906_NSCR_1989-11_RACE ON FILM B-ROLL ATLANTA JOURNAL 500-CROWDS TRACK & VICTORY LANE_1989-NAS-00144_S001
001679  ERN_F3169_NSCR_1990-11-18_ATLANTA_JOURNAL_500_DESR_AGAINST_MARK_MARTIN_&_BILL_ELLIOT_MICK_RICH_ACCIDENT_90-EV-0654                A18   C        02:07:40:28 02:07:42:28 00:36:01:13 00:36:03:13 
M2      ERN_F3169_NSCR_1990-11-18_ATLANTA_JOURNAL_500_DESR_AGAINST_MARK_MARTIN_&_BILL_ELLIOT_MICK_RICH_ACCIDENT_90-EV-0654                         030.0 02:07:40:28 
*FROM CLIP NAME:  ERN_F3169_NSCR_1990-11-18_ATLANTA JOURNAL 500 DESR AGAINST MARK MARTIN & BILL ELLIOT MICK RICH ACCIDENT_90-EV-0654.NEW.01 
*SOURCE FILE: ERN_F3169_NSCR_1990-11-18_ATLANTA JOURNAL 500 DESR AGAINST MARK MARTIN & BILL ELLIOT MICK RICH ACCIDENT_90-EV-0654
001680  ERN_F3169_NSCR_1990-11-18_ATLANTA_JOURNAL_500_DESR_AGAINST_MARK_MARTIN_&_BILL_ELLIOT_MICK_RICH_ACCIDENT_90-EV-0654                V     C        02:07:41:21 02:07:43:15 00:36:02:09 00:36:04:14 
M2      ERN_F3169_NSCR_1990-11-18_ATLANTA_JOURNAL_500_DESR_AGAINST_MARK_MARTIN_&_BILL_ELLIOT_MICK_RICH_ACCIDENT_90-EV-0654                         024.0 02:07:41:21 
*FROM CLIP NAME:  ERN_F3169_NSCR_1990-11-18_ATLANTA JOURNAL 500 DESR AGAINST MARK MARTIN & BILL ELLIOT MICK RICH ACCIDENT_90-EV-0654.NEW.01 
*SOURCE FILE: ERN_F3169_NSCR_1990-11-18_ATLANTA JOURNAL 500 DESR AGAINST MARK MARTIN & BILL ELLIOT MICK RICH ACCIDENT_90-EV-0654
001681  ERN_F3169_NSCR_1990-11-18_ATLANTA_JOURNAL_500_DESR_AGAINST_MARK_MARTIN_&_BILL_ELLIOT_MICK_RICH_ACCIDENT_90-EV-0654                A18   C        02:07:42:28 02:07:43:16 00:36:03:13 00:36:04:03 
M2      ERN_F3169_NSCR_1990-11-18_ATLANTA_JOURNAL_500_DESR_AGAINST_MARK_MARTIN_&_BILL_ELLIOT_MICK_RICH_ACCIDENT_90-EV-0654                         030.0 02:07:42:28 
*FROM CLIP NAME:  ERN_F3169_NSCR_1990-11-18_ATLANTA JOURNAL 500 DESR AGAINST MARK MARTIN & BILL ELLIOT MICK RICH ACCIDENT_90-EV-0654.NEW.01 
*SOURCE FILE: ERN_F3169_NSCR_1990-11-18_ATLANTA JOURNAL 500 DESR AGAINST MARK MARTIN & BILL ELLIOT MICK RICH ACCIDENT_90-EV-0654
001682  ERN_F3169_NSCR_1990-11-18_ATLANTA_JOURNAL_500_DESR_AGAINST_MARK_MARTIN_&_BILL_ELLIOT_MICK_RICH_ACCIDENT_90-EV-0654                A20   C        02:14:48:10 02:14:49:10 00:36:04:02 00:36:05:02 
M2      ERN_F3169_NSCR_1990-11-18_ATLANTA_JOURNAL_500_DESR_AGAINST_MARK_MARTIN_&_BILL_ELLIOT_MICK_RICH_ACCIDENT_90-EV-0654                         030.0 02:14:48:10 
*FROM CLIP NAME:  ERN_F3169_NSCR_1990-11-18_ATLANTA JOURNAL 500 DESR AGAINST MARK MARTIN & BILL ELLIOT MICK RICH ACCIDENT_90-EV-0654.NEW.01 
*SOURCE FILE: ERN_F3169_NSCR_1990-11-18_ATLANTA JOURNAL 500 DESR AGAINST MARK MARTIN & BILL ELLIOT MICK RICH ACCIDENT_90-EV-0654
001683  ERN_F3169_NSCR_1990-11-18_ATLANTA_JOURNAL_500_DESR_AGAINST_MARK_MARTIN_&_BILL_ELLIOT_MICK_RICH_ACCIDENT_90-EV-0654                V     C        02:14:45:10 02:14:48:19 00:36:04:14 00:36:07:21 
M2      ERN_F3169_NSCR_1990-11-18_ATLANTA_JOURNAL_500_DESR_AGAINST_MARK_MARTIN_&_BILL_ELLIOT_MICK_RICH_ACCIDENT_90-EV-0654                         030.0 02:14:45:10 
*FROM CLIP NAME:  ERN_F3169_NSCR_1990-11-18_ATLANTA JOURNAL 500 DESR AGAINST MARK MARTIN & BILL ELLIOT MICK RICH ACCIDENT_90-EV-0654.NEW.01 
*SOURCE FILE: ERN_F3169_NSCR_1990-11-18_ATLANTA JOURNAL 500 DESR AGAINST MARK MARTIN & BILL ELLIOT MICK RICH ACCIDENT_90-EV-0654
001684  ERN_F3169_NSCR_1990-11-18_ATLANTA_JOURNAL_500_DESR_AGAINST_MARK_MARTIN_&_BILL_ELLIOT_MICK_RICH_ACCIDENT_90-EV-0654                A20   C        02:14:49:10 02:14:54:10 00:36:05:02 00:36:10:02 
M2      ERN_F3169_NSCR_1990-11-18_ATLANTA_JOURNAL_500_DESR_AGAINST_MARK_MARTIN_&_BILL_ELLIOT_MICK_RICH_ACCIDENT_90-EV-0654                         030.0 02:14:49:10 
*FROM CLIP NAME:  ERN_F3169_NSCR_1990-11-18_ATLANTA JOURNAL 500 DESR AGAINST MARK MARTIN & BILL ELLIOT MICK RICH ACCIDENT_90-EV-0654.NEW.01 
*SOURCE FILE: ERN_F3169_NSCR_1990-11-18_ATLANTA JOURNAL 500 DESR AGAINST MARK MARTIN & BILL ELLIOT MICK RICH ACCIDENT_90-EV-0654
001685  ERN_F3169_NSCR_1990-11-18_ATLANTA_JOURNAL_500_DESR_AGAINST_MARK_MARTIN_&_BILL_ELLIOT_MICK_RICH_ACCIDENT_90-EV-0654                A22   C        02:14:50:02 02:14:50:18 00:36:06:14 00:36:07:02 
M2      ERN_F3169_NSCR_1990-11-18_ATLANTA_JOURNAL_500_DESR_AGAINST_MARK_MARTIN_&_BILL_ELLIOT_MICK_RICH_ACCIDENT_90-EV-0654                         030.0 02:14:50:02 
*FROM CLIP NAME:  ERN_F3169_NSCR_1990-11-18_ATLANTA JOURNAL 500 DESR AGAINST MARK MARTIN & BILL ELLIOT MICK RICH ACCIDENT_90-EV-0654.NEW.01 
*SOURCE FILE: ERN_F3169_NSCR_1990-11-18_ATLANTA JOURNAL 500 DESR AGAINST MARK MARTIN & BILL ELLIOT MICK RICH ACCIDENT_90-EV-0654
001686  ERN_F3169_NSCR_1990-11-18_ATLANTA_JOURNAL_500_DESR_AGAINST_MARK_MARTIN_&_BILL_ELLIOT_MICK_RICH_ACCIDENT_90-EV-0654                A22   C        02:14:50:17 02:14:53:20 00:36:07:02 00:36:10:04 
M2      ERN_F3169_NSCR_1990-11-18_ATLANTA_JOURNAL_500_DESR_AGAINST_MARK_MARTIN_&_BILL_ELLIOT_MICK_RICH_ACCIDENT_90-EV-0654                         030.0 02:14:50:17 
*FROM CLIP NAME:  ERN_F3169_NSCR_1990-11-18_ATLANTA JOURNAL 500 DESR AGAINST MARK MARTIN & BILL ELLIOT MICK RICH ACCIDENT_90-EV-0654.NEW.01 
*SOURCE FILE: ERN_F3169_NSCR_1990-11-18_ATLANTA JOURNAL 500 DESR AGAINST MARK MARTIN & BILL ELLIOT MICK RICH ACCIDENT_90-EV-0654
001687  ERN_F3169_NSCR_1990-11-18_ATLANTA_JOURNAL_500_DESR_AGAINST_MARK_MARTIN_&_BILL_ELLIOT_MICK_RICH_ACCIDENT_90-EV-0654                V     C        02:14:57:17 02:15:05:02 00:36:07:21 00:36:15:07 
M2      ERN_F3169_NSCR_1990-11-18_ATLANTA_JOURNAL_500_DESR_AGAINST_MARK_MARTIN_&_BILL_ELLIOT_MICK_RICH_ACCIDENT_90-EV-0654                         030.0 02:14:57:17 
*FROM CLIP NAME:  ERN_F3169_NSCR_1990-11-18_ATLANTA JOURNAL 500 DESR AGAINST MARK MARTIN & BILL ELLIOT MICK RICH ACCIDENT_90-EV-0654.NEW.01 
*SOURCE FILE: ERN_F3169_NSCR_1990-11-18_ATLANTA JOURNAL 500 DESR AGAINST MARK MARTIN & BILL ELLIOT MICK RICH ACCIDENT_90-EV-0654
001688  ERN_F3169_NSCR_1990-11-18_ATLANTA_JOURNAL_500_DESR_AGAINST_MARK_MARTIN_&_BILL_ELLIOT_MICK_RICH_ACCIDENT_90-EV-0654                A20   C        02:12:19:02 02:12:20:16 00:36:10:02 00:36:11:13 
M2      ERN_F3169_NSCR_1990-11-18_ATLANTA_JOURNAL_500_DESR_AGAINST_MARK_MARTIN_&_BILL_ELLIOT_MICK_RICH_ACCIDENT_90-EV-0654                         030.0 02:12:19:02 
*FROM CLIP NAME:  ERN_F3169_NSCR_1990-11-18_ATLANTA JOURNAL 500 DESR AGAINST MARK MARTIN & BILL ELLIOT MICK RICH ACCIDENT_90-EV-0654.NEW.01 
*SOURCE FILE: ERN_F3169_NSCR_1990-11-18_ATLANTA JOURNAL 500 DESR AGAINST MARK MARTIN & BILL ELLIOT MICK RICH ACCIDENT_90-EV-0654
001689  ERN_F3169_NSCR_1990-11-18_ATLANTA_JOURNAL_500_DESR_AGAINST_MARK_MARTIN_&_BILL_ELLIOT_MICK_RICH_ACCIDENT_90-EV-0654                A18   C        02:14:58:10 02:14:58:13 00:36:10:07 00:36:10:09 
M2      ERN_F3169_NSCR_1990-11-18_ATLANTA_JOURNAL_500_DESR_AGAINST_MARK_MARTIN_&_BILL_ELLIOT_MICK_RICH_ACCIDENT_90-EV-0654                         030.0 02:14:58:10 
*FROM CLIP NAME:  ERN_F3169_NSCR_1990-11-18_ATLANTA JOURNAL 500 DESR AGAINST MARK MARTIN & BILL ELLIOT MICK RICH ACCIDENT_90-EV-0654.NEW.01 
*SOURCE FILE: ERN_F3169_NSCR_1990-11-18_ATLANTA JOURNAL 500 DESR AGAINST MARK MARTIN & BILL ELLIOT MICK RICH ACCIDENT_90-EV-0654
001690  ERN_F3169_NSCR_1990-11-18_ATLANTA_JOURNAL_500_DESR_AGAINST_MARK_MARTIN_&_BILL_ELLIOT_MICK_RICH_ACCIDENT_90-EV-0654                A18   C        02:14:58:12 02:15:01:15 00:36:10:09 00:36:13:09 
M2      ERN_F3169_NSCR_1990-11-18_ATLANTA_JOURNAL_500_DESR_AGAINST_MARK_MARTIN_&_BILL_ELLIOT_MICK_RICH_ACCIDENT_90-EV-0654                         030.0 02:14:58:12 
*FROM CLIP NAME:  ERN_F3169_NSCR_1990-11-18_ATLANTA JOURNAL 500 DESR AGAINST MARK MARTIN & BILL ELLIOT MICK RICH ACCIDENT_90-EV-0654.NEW.01 
*SOURCE FILE: ERN_F3169_NSCR_1990-11-18_ATLANTA JOURNAL 500 DESR AGAINST MARK MARTIN & BILL ELLIOT MICK RICH ACCIDENT_90-EV-0654
001691  ERN_F3169_NSCR_1990-11-18_ATLANTA_JOURNAL_500_DESR_AGAINST_MARK_MARTIN_&_BILL_ELLIOT_MICK_RICH_ACCIDENT_90-EV-0654                A20   C        02:12:20:16 02:12:21:26 00:36:11:13 00:36:12:21 
M2      ERN_F3169_NSCR_1990-11-18_ATLANTA_JOURNAL_500_DESR_AGAINST_MARK_MARTIN_&_BILL_ELLIOT_MICK_RICH_ACCIDENT_90-EV-0654                         030.0 02:12:20:16 
*FROM CLIP NAME:  ERN_F3169_NSCR_1990-11-18_ATLANTA JOURNAL 500 DESR AGAINST MARK MARTIN & BILL ELLIOT MICK RICH ACCIDENT_90-EV-0654.NEW.01 
*TO CLIP NAME:  ERN_F3169_NSCR_1990-11-18_ATLANTA JOURNAL 500 DESR AGAINST MARK MARTIN & BILL ELLIOT MICK RICH ACCIDENT_90-EV-0654.NEW.01 
*SOURCE FILE: ERN_F3169_NSCR_1990-11-18_ATLANTA JOURNAL 500 DESR AGAINST MARK MARTIN & BILL ELLIOT MICK RICH ACCIDENT_90-EV-0654
001692  ERN_F3169_NSCR_1990-11-18_ATLANTA_JOURNAL_500_DESR_AGAINST_MARK_MARTIN_&_BILL_ELLIOT_MICK_RICH_ACCIDENT_90-EV-0654                A20   C        02:12:21:26 02:12:22:00 00:36:12:21 00:36:13:00 
M2      ERN_F3169_NSCR_1990-11-18_ATLANTA_JOURNAL_500_DESR_AGAINST_MARK_MARTIN_&_BILL_ELLIOT_MICK_RICH_ACCIDENT_90-EV-0654                         030.0 02:12:21:26 
*FROM CLIP NAME:  ERN_F3169_NSCR_1990-11-18_ATLANTA JOURNAL 500 DESR AGAINST MARK MARTIN & BILL ELLIOT MICK RICH ACCIDENT_90-EV-0654.NEW.01 
*SOURCE FILE: ERN_F3169_NSCR_1990-11-18_ATLANTA JOURNAL 500 DESR AGAINST MARK MARTIN & BILL ELLIOT MICK RICH ACCIDENT_90-EV-0654
001693  ERN_F3169_NSCR_1990-11-18_ATLANTA_JOURNAL_500_DESR_AGAINST_MARK_MARTIN_&_BILL_ELLIOT_MICK_RICH_ACCIDENT_90-EV-0654                A20   C        02:12:21:29 02:12:23:00 00:36:13:00 00:36:14:00 
M2      ERN_F3169_NSCR_1990-11-18_ATLANTA_JOURNAL_500_DESR_AGAINST_MARK_MARTIN_&_BILL_ELLIOT_MICK_RICH_ACCIDENT_90-EV-0654                         030.0 02:12:21:29 
*FROM CLIP NAME:  ERN_F3169_NSCR_1990-11-18_ATLANTA JOURNAL 500 DESR AGAINST MARK MARTIN & BILL ELLIOT MICK RICH ACCIDENT_90-EV-0654.NEW.01 
*TO CLIP NAME:  ERN_F3169_NSCR_1990-11-18_ATLANTA JOURNAL 500 DESR AGAINST MARK MARTIN & BILL ELLIOT MICK RICH ACCIDENT_90-EV-0654.NEW.01 
*SOURCE FILE: ERN_F3169_NSCR_1990-11-18_ATLANTA JOURNAL 500 DESR AGAINST MARK MARTIN & BILL ELLIOT MICK RICH ACCIDENT_90-EV-0654
001694  ERN_F3169_NSCR_1990-11-18_ATLANTA_JOURNAL_500_DESR_AGAINST_MARK_MARTIN_&_BILL_ELLIOT_MICK_RICH_ACCIDENT_90-EV-0654                A18   C        02:08:01:06 02:08:01:22 00:36:13:22 00:36:14:10 
M2      ERN_F3169_NSCR_1990-11-18_ATLANTA_JOURNAL_500_DESR_AGAINST_MARK_MARTIN_&_BILL_ELLIOT_MICK_RICH_ACCIDENT_90-EV-0654                         030.0 02:08:01:06 
*FROM CLIP NAME:  ERN_F3169_NSCR_1990-11-18_ATLANTA JOURNAL 500 DESR AGAINST MARK MARTIN & BILL ELLIOT MICK RICH ACCIDENT_90-EV-0654.NEW.01 
*SOURCE FILE: ERN_F3169_NSCR_1990-11-18_ATLANTA JOURNAL 500 DESR AGAINST MARK MARTIN & BILL ELLIOT MICK RICH ACCIDENT_90-EV-0654
001695  ERN_F3169_NSCR_1990-11-18_ATLANTA_JOURNAL_500_DESR_AGAINST_MARK_MARTIN_&_BILL_ELLIOT_MICK_RICH_ACCIDENT_90-EV-0654                A20   C        02:12:22:29 02:12:28:20 00:36:14:00 00:36:19:16 
M2      ERN_F3169_NSCR_1990-11-18_ATLANTA_JOURNAL_500_DESR_AGAINST_MARK_MARTIN_&_BILL_ELLIOT_MICK_RICH_ACCIDENT_90-EV-0654                         030.0 02:12:22:29 
*FROM CLIP NAME:  ERN_F3169_NSCR_1990-11-18_ATLANTA JOURNAL 500 DESR AGAINST MARK MARTIN & BILL ELLIOT MICK RICH ACCIDENT_90-EV-0654.NEW.01 
*SOURCE FILE: ERN_F3169_NSCR_1990-11-18_ATLANTA JOURNAL 500 DESR AGAINST MARK MARTIN & BILL ELLIOT MICK RICH ACCIDENT_90-EV-0654
001696  ERN_F3169_NSCR_1990-11-18_ATLANTA_JOURNAL_500_DESR_AGAINST_MARK_MARTIN_&_BILL_ELLIOT_MICK_RICH_ACCIDENT_90-EV-0654                A18   C        02:08:01:21 02:08:05:09 00:36:14:10 00:36:18:00 
M2      ERN_F3169_NSCR_1990-11-18_ATLANTA_JOURNAL_500_DESR_AGAINST_MARK_MARTIN_&_BILL_ELLIOT_MICK_RICH_ACCIDENT_90-EV-0654                         030.0 02:08:01:21 
*FROM CLIP NAME:  ERN_F3169_NSCR_1990-11-18_ATLANTA JOURNAL 500 DESR AGAINST MARK MARTIN & BILL ELLIOT MICK RICH ACCIDENT_90-EV-0654.NEW.01 
*SOURCE FILE: ERN_F3169_NSCR_1990-11-18_ATLANTA JOURNAL 500 DESR AGAINST MARK MARTIN & BILL ELLIOT MICK RICH ACCIDENT_90-EV-0654
001697  ERN_F3169_NSCR_1990-11-18_ATLANTA_JOURNAL_500_DESR_AGAINST_MARK_MARTIN_&_BILL_ELLIOT_MICK_RICH_ACCIDENT_90-EV-0654                V     C        02:16:11:24 02:16:16:21 00:36:15:07 00:36:20:04 
M2      ERN_F3169_NSCR_1990-11-18_ATLANTA_JOURNAL_500_DESR_AGAINST_MARK_MARTIN_&_BILL_ELLIOT_MICK_RICH_ACCIDENT_90-EV-0654                         030.0 02:16:11:24 
*FROM CLIP NAME:  ERN_F3169_NSCR_1990-11-18_ATLANTA JOURNAL 500 DESR AGAINST MARK MARTIN & BILL ELLIOT MICK RICH ACCIDENT_90-EV-0654.NEW.01 
*SOURCE FILE: ERN_F3169_NSCR_1990-11-18_ATLANTA JOURNAL 500 DESR AGAINST MARK MARTIN & BILL ELLIOT MICK RICH ACCIDENT_90-EV-0654
001698  ERN_F3169_NSCR_1990-11-18_ATLANTA_JOURNAL_500_DESR_AGAINST_MARK_MARTIN_&_BILL_ELLIOT_MICK_RICH_ACCIDENT_90-EV-0654                A22   C        02:14:31:06 02:14:33:07 00:36:17:05 00:36:19:05 
M2      ERN_F3169_NSCR_1990-11-18_ATLANTA_JOURNAL_500_DESR_AGAINST_MARK_MARTIN_&_BILL_ELLIOT_MICK_RICH_ACCIDENT_90-EV-0654                         030.0 02:14:31:06 
*FROM CLIP NAME:  ERN_F3169_NSCR_1990-11-18_ATLANTA JOURNAL 500 DESR AGAINST MARK MARTIN & BILL ELLIOT MICK RICH ACCIDENT_90-EV-0654.NEW.01 
*SOURCE FILE: ERN_F3169_NSCR_1990-11-18_ATLANTA JOURNAL 500 DESR AGAINST MARK MARTIN & BILL ELLIOT MICK RICH ACCIDENT_90-EV-0654
001699  ERN_F3169_NSCR_1990-11-18_ATLANTA_JOURNAL_500_DESR_AGAINST_MARK_MARTIN_&_BILL_ELLIOT_MICK_RICH_ACCIDENT_90-EV-0654                A18   C        02:08:06:06 02:08:06:09 00:36:18:00 00:36:18:02 
M2      ERN_F3169_NSCR_1990-11-18_ATLANTA_JOURNAL_500_DESR_AGAINST_MARK_MARTIN_&_BILL_ELLIOT_MICK_RICH_ACCIDENT_90-EV-0654                         030.0 02:08:06:06 
*FROM CLIP NAME:  ERN_F3169_NSCR_1990-11-18_ATLANTA JOURNAL 500 DESR AGAINST MARK MARTIN & BILL ELLIOT MICK RICH ACCIDENT_90-EV-0654.NEW.01 
*TO CLIP NAME:  ERN_F3169_NSCR_1990-11-18_ATLANTA JOURNAL 500 DESR AGAINST MARK MARTIN & BILL ELLIOT MICK RICH ACCIDENT_90-EV-0654.NEW.01 
*SOURCE FILE: ERN_F3169_NSCR_1990-11-18_ATLANTA JOURNAL 500 DESR AGAINST MARK MARTIN & BILL ELLIOT MICK RICH ACCIDENT_90-EV-0654
001700  ERN_F3169_NSCR_1990-11-18_ATLANTA_JOURNAL_500_DESR_AGAINST_MARK_MARTIN_&_BILL_ELLIOT_MICK_RICH_ACCIDENT_90-EV-0654                A18   C        02:08:06:08 02:08:06:24 00:36:18:02 00:36:18:14 
M2      ERN_F3169_NSCR_1990-11-18_ATLANTA_JOURNAL_500_DESR_AGAINST_MARK_MARTIN_&_BILL_ELLIOT_MICK_RICH_ACCIDENT_90-EV-0654                         030.0 02:08:06:08 
*FROM CLIP NAME:  ERN_F3169_NSCR_1990-11-18_ATLANTA JOURNAL 500 DESR AGAINST MARK MARTIN & BILL ELLIOT MICK RICH ACCIDENT_90-EV-0654.NEW.01 
*SOURCE FILE: ERN_F3169_NSCR_1990-11-18_ATLANTA JOURNAL 500 DESR AGAINST MARK MARTIN & BILL ELLIOT MICK RICH ACCIDENT_90-EV-0654
001701  ERN_F3169_NSCR_1990-11-18_ATLANTA_JOURNAL_500_DESR_AGAINST_MARK_MARTIN_&_BILL_ELLIOT_MICK_RICH_ACCIDENT_90-EV-0654                A22   C        02:14:33:06 02:14:35:00 00:36:19:05 00:36:21:00 
M2      ERN_F3169_NSCR_1990-11-18_ATLANTA_JOURNAL_500_DESR_AGAINST_MARK_MARTIN_&_BILL_ELLIOT_MICK_RICH_ACCIDENT_90-EV-0654                         030.0 02:14:33:06 
*FROM CLIP NAME:  ERN_F3169_NSCR_1990-11-18_ATLANTA JOURNAL 500 DESR AGAINST MARK MARTIN & BILL ELLIOT MICK RICH ACCIDENT_90-EV-0654.NEW.01 
*SOURCE FILE: ERN_F3169_NSCR_1990-11-18_ATLANTA JOURNAL 500 DESR AGAINST MARK MARTIN & BILL ELLIOT MICK RICH ACCIDENT_90-EV-0654
001702  ERN_F3169_NSCR_1990-11-18_ATLANTA_JOURNAL_500_DESR_AGAINST_MARK_MARTIN_&_BILL_ELLIOT_MICK_RICH_ACCIDENT_90-EV-0654                A20   C        02:16:15:22 02:16:18:08 00:36:19:16 00:36:22:04 
M2      ERN_F3169_NSCR_1990-11-18_ATLANTA_JOURNAL_500_DESR_AGAINST_MARK_MARTIN_&_BILL_ELLIOT_MICK_RICH_ACCIDENT_90-EV-0654                         030.0 02:16:15:22 
*FROM CLIP NAME:  ERN_F3169_NSCR_1990-11-18_ATLANTA JOURNAL 500 DESR AGAINST MARK MARTIN & BILL ELLIOT MICK RICH ACCIDENT_90-EV-0654.NEW.01 
*TO CLIP NAME:  ERN_F3169_NSCR_1990-11-18_ATLANTA JOURNAL 500 DESR AGAINST MARK MARTIN & BILL ELLIOT MICK RICH ACCIDENT_90-EV-0654.NEW.01 
*SOURCE FILE: ERN_F3169_NSCR_1990-11-18_ATLANTA JOURNAL 500 DESR AGAINST MARK MARTIN & BILL ELLIOT MICK RICH ACCIDENT_90-EV-0654
001703  ERN_F3169_NSCR_1990-11-18_ATLANTA_JOURNAL_500_DESR_AGAINST_MARK_MARTIN_&_BILL_ELLIOT_MICK_RICH_ACCIDENT_90-EV-0654                V     C        02:16:20:27 02:16:27:02 00:36:20:04 00:36:26:07 
M2      ERN_F3169_NSCR_1990-11-18_ATLANTA_JOURNAL_500_DESR_AGAINST_MARK_MARTIN_&_BILL_ELLIOT_MICK_RICH_ACCIDENT_90-EV-0654                         030.0 02:16:20:27 
*FROM CLIP NAME:  ERN_F3169_NSCR_1990-11-18_ATLANTA JOURNAL 500 DESR AGAINST MARK MARTIN & BILL ELLIOT MICK RICH ACCIDENT_90-EV-0654.NEW.01 
*SOURCE FILE: ERN_F3169_NSCR_1990-11-18_ATLANTA JOURNAL 500 DESR AGAINST MARK MARTIN & BILL ELLIOT MICK RICH ACCIDENT_90-EV-0654
001704  ERN_F3169_NSCR_1990-11-18_ATLANTA_JOURNAL_500_DESR_AGAINST_MARK_MARTIN_&_BILL_ELLIOT_MICK_RICH_ACCIDENT_90-EV-0654                A20   C        02:16:18:07 02:16:20:18 00:36:22:04 00:36:24:12 
M2      ERN_F3169_NSCR_1990-11-18_ATLANTA_JOURNAL_500_DESR_AGAINST_MARK_MARTIN_&_BILL_ELLIOT_MICK_RICH_ACCIDENT_90-EV-0654                         030.0 02:16:18:07 
*FROM CLIP NAME:  ERN_F3169_NSCR_1990-11-18_ATLANTA JOURNAL 500 DESR AGAINST MARK MARTIN & BILL ELLIOT MICK RICH ACCIDENT_90-EV-0654.NEW.01 
*SOURCE FILE: ERN_F3169_NSCR_1990-11-18_ATLANTA JOURNAL 500 DESR AGAINST MARK MARTIN & BILL ELLIOT MICK RICH ACCIDENT_90-EV-0654
001705  ERN_F3169_NSCR_1990-11-18_ATLANTA_JOURNAL_500_DESR_AGAINST_MARK_MARTIN_&_BILL_ELLIOT_MICK_RICH_ACCIDENT_90-EV-0654                A22   C        02:16:20:29 02:16:21:04 00:36:23:05 00:36:23:09 
M2      ERN_F3169_NSCR_1990-11-18_ATLANTA_JOURNAL_500_DESR_AGAINST_MARK_MARTIN_&_BILL_ELLIOT_MICK_RICH_ACCIDENT_90-EV-0654                         030.0 02:16:20:29 
*FROM CLIP NAME:  ERN_F3169_NSCR_1990-11-18_ATLANTA JOURNAL 500 DESR AGAINST MARK MARTIN & BILL ELLIOT MICK RICH ACCIDENT_90-EV-0654.NEW.01 
*SOURCE FILE: ERN_F3169_NSCR_1990-11-18_ATLANTA JOURNAL 500 DESR AGAINST MARK MARTIN & BILL ELLIOT MICK RICH ACCIDENT_90-EV-0654
001706  ERN_F3169_NSCR_1990-11-18_ATLANTA_JOURNAL_500_DESR_AGAINST_MARK_MARTIN_&_BILL_ELLIOT_MICK_RICH_ACCIDENT_90-EV-0654                A22   C        02:16:21:04 02:16:22:03 00:36:23:09 00:36:24:08 
M2      ERN_F3169_NSCR_1990-11-18_ATLANTA_JOURNAL_500_DESR_AGAINST_MARK_MARTIN_&_BILL_ELLIOT_MICK_RICH_ACCIDENT_90-EV-0654                         030.0 02:16:21:04 
*FROM CLIP NAME:  ERN_F3169_NSCR_1990-11-18_ATLANTA JOURNAL 500 DESR AGAINST MARK MARTIN & BILL ELLIOT MICK RICH ACCIDENT_90-EV-0654.NEW.01 
*SOURCE FILE: ERN_F3169_NSCR_1990-11-18_ATLANTA JOURNAL 500 DESR AGAINST MARK MARTIN & BILL ELLIOT MICK RICH ACCIDENT_90-EV-0654
001707  ERN_F3169_NSCR_1990-11-18_ATLANTA_JOURNAL_500_DESR_AGAINST_MARK_MARTIN_&_BILL_ELLIOT_MICK_RICH_ACCIDENT_90-EV-0654                A18   C        02:16:23:11 02:16:23:27 00:36:24:06 00:36:24:18 
M2      ERN_F3169_NSCR_1990-11-18_ATLANTA_JOURNAL_500_DESR_AGAINST_MARK_MARTIN_&_BILL_ELLIOT_MICK_RICH_ACCIDENT_90-EV-0654                         030.0 02:16:23:11 
*FROM CLIP NAME:  ERN_F3169_NSCR_1990-11-18_ATLANTA JOURNAL 500 DESR AGAINST MARK MARTIN & BILL ELLIOT MICK RICH ACCIDENT_90-EV-0654.NEW.01 
*SOURCE FILE: ERN_F3169_NSCR_1990-11-18_ATLANTA JOURNAL 500 DESR AGAINST MARK MARTIN & BILL ELLIOT MICK RICH ACCIDENT_90-EV-0654
001708  ERN_F3169_NSCR_1990-11-18_ATLANTA_JOURNAL_500_DESR_AGAINST_MARK_MARTIN_&_BILL_ELLIOT_MICK_RICH_ACCIDENT_90-EV-0654                A20   C        02:16:20:17 02:16:21:03 00:36:24:12 00:36:25:00 
M2      ERN_F3169_NSCR_1990-11-18_ATLANTA_JOURNAL_500_DESR_AGAINST_MARK_MARTIN_&_BILL_ELLIOT_MICK_RICH_ACCIDENT_90-EV-0654                         030.0 02:16:20:17 
*FROM CLIP NAME:  ERN_F3169_NSCR_1990-11-18_ATLANTA JOURNAL 500 DESR AGAINST MARK MARTIN & BILL ELLIOT MICK RICH ACCIDENT_90-EV-0654.NEW.01 
*TO CLIP NAME:  ERN_F3169_NSCR_1990-11-18_ATLANTA JOURNAL 500 DESR AGAINST MARK MARTIN & BILL ELLIOT MICK RICH ACCIDENT_90-EV-0654.NEW.01 
*SOURCE FILE: ERN_F3169_NSCR_1990-11-18_ATLANTA JOURNAL 500 DESR AGAINST MARK MARTIN & BILL ELLIOT MICK RICH ACCIDENT_90-EV-0654
001709  ERN_F3169_NSCR_1990-11-18_ATLANTA_JOURNAL_500_DESR_AGAINST_MARK_MARTIN_&_BILL_ELLIOT_MICK_RICH_ACCIDENT_90-EV-0654                A18   C        02:16:26:06 02:16:26:14 00:36:24:18 00:36:25:00 
M2      ERN_F3169_NSCR_1990-11-18_ATLANTA_JOURNAL_500_DESR_AGAINST_MARK_MARTIN_&_BILL_ELLIOT_MICK_RICH_ACCIDENT_90-EV-0654                         030.0 02:16:26:06 
*FROM CLIP NAME:  ERN_F3169_NSCR_1990-11-18_ATLANTA JOURNAL 500 DESR AGAINST MARK MARTIN & BILL ELLIOT MICK RICH ACCIDENT_90-EV-0654.NEW.01 
*TO CLIP NAME:  ERN_F3169_NSCR_1990-11-18_ATLANTA JOURNAL 500 DESR AGAINST MARK MARTIN & BILL ELLIOT MICK RICH ACCIDENT_90-EV-0654.NEW.01 
*SOURCE FILE: ERN_F3169_NSCR_1990-11-18_ATLANTA JOURNAL 500 DESR AGAINST MARK MARTIN & BILL ELLIOT MICK RICH ACCIDENT_90-EV-0654
001710  ERN_F3169_NSCR_1990-11-18_ATLANTA_JOURNAL_500_DESR_AGAINST_MARK_MARTIN_&_BILL_ELLIOT_MICK_RICH_ACCIDENT_90-EV-0654                A18   C        02:16:26:14 02:16:27:12 00:36:25:00 00:36:25:22 
M2      ERN_F3169_NSCR_1990-11-18_ATLANTA_JOURNAL_500_DESR_AGAINST_MARK_MARTIN_&_BILL_ELLIOT_MICK_RICH_ACCIDENT_90-EV-0654                         030.0 02:16:26:14 
*FROM CLIP NAME:  ERN_F3169_NSCR_1990-11-18_ATLANTA JOURNAL 500 DESR AGAINST MARK MARTIN & BILL ELLIOT MICK RICH ACCIDENT_90-EV-0654.NEW.01 
*SOURCE FILE: ERN_F3169_NSCR_1990-11-18_ATLANTA JOURNAL 500 DESR AGAINST MARK MARTIN & BILL ELLIOT MICK RICH ACCIDENT_90-EV-0654
001711  ERN_F3169_NSCR_1990-11-18_ATLANTA_JOURNAL_500_DESR_AGAINST_MARK_MARTIN_&_BILL_ELLIOT_MICK_RICH_ACCIDENT_90-EV-0654                A20   C        02:16:21:02 02:16:32:12 00:36:25:00 00:36:36:07 
M2      ERN_F3169_NSCR_1990-11-18_ATLANTA_JOURNAL_500_DESR_AGAINST_MARK_MARTIN_&_BILL_ELLIOT_MICK_RICH_ACCIDENT_90-EV-0654                         030.0 02:16:21:02 
*FROM CLIP NAME:  ERN_F3169_NSCR_1990-11-18_ATLANTA JOURNAL 500 DESR AGAINST MARK MARTIN & BILL ELLIOT MICK RICH ACCIDENT_90-EV-0654.NEW.01 
*SOURCE FILE: ERN_F3169_NSCR_1990-11-18_ATLANTA JOURNAL 500 DESR AGAINST MARK MARTIN & BILL ELLIOT MICK RICH ACCIDENT_90-EV-0654
001712  ERN_F3169_NSCR_1990-11-18_ATLANTA_JOURNAL_500_DESR_AGAINST_MARK_MARTIN_&_BILL_ELLIOT_MICK_RICH_ACCIDENT_90-EV-0654                A18   C        02:16:28:16 02:16:30:03 00:36:25:22 00:36:27:11 
M2      ERN_F3169_NSCR_1990-11-18_ATLANTA_JOURNAL_500_DESR_AGAINST_MARK_MARTIN_&_BILL_ELLIOT_MICK_RICH_ACCIDENT_90-EV-0654                         030.0 02:16:28:16 
*FROM CLIP NAME:  ERN_F3169_NSCR_1990-11-18_ATLANTA JOURNAL 500 DESR AGAINST MARK MARTIN & BILL ELLIOT MICK RICH ACCIDENT_90-EV-0654.NEW.01 
*SOURCE FILE: ERN_F3169_NSCR_1990-11-18_ATLANTA JOURNAL 500 DESR AGAINST MARK MARTIN & BILL ELLIOT MICK RICH ACCIDENT_90-EV-0654
001713  ERN_F3164_NSCR_1990-11-18_RACE_BROLL_ATLANTA_JOURNAL_500_PIT_STOP_CREW_&_DESR_YOUNG_DEJR_TAYLOR_90-EV-0577                        V     C        00:39:19:08 00:39:27:18 00:36:26:07 00:36:34:14 
M2      ERN_F3164_NSCR_1990-11-18_RACE_BROLL_ATLANTA_JOURNAL_500_PIT_STOP_CREW_&_DESR_YOUNG_DEJR_TAYLOR_90-EV-0577                                 030.0 00:39:19:08 
*FROM CLIP NAME:  ERN_F3164_NSCR_1990-11-18_RACE BROLL ATLANTA JOURNAL 500 PIT STOP CREW & DESR YOUNG DEJR TAYLOR_90-EV-0577.NEW.01 
*SOURCE FILE: ERN_F3164_NSCR_1990-11-18_RACE BROLL ATLANTA JOURNAL 500 PIT STOP CREW & DESR YOUNG DEJR TAYLOR_90-EV-0577
001714  ERN_F3164_NSCR_1990-11-18_RACE_BROLL_ATLANTA_JOURNAL_500_PIT_STOP_CREW_&_DESR_YOUNG_DEJR_TAYLOR_90-EV-0577                        V     C        00:39:33:13 00:39:37:04 00:36:34:14 00:36:38:06 
M2      ERN_F3164_NSCR_1990-11-18_RACE_BROLL_ATLANTA_JOURNAL_500_PIT_STOP_CREW_&_DESR_YOUNG_DEJR_TAYLOR_90-EV-0577                                 030.0 00:39:33:13 
*FROM CLIP NAME:  ERN_F3164_NSCR_1990-11-18_RACE BROLL ATLANTA JOURNAL 500 PIT STOP CREW & DESR YOUNG DEJR TAYLOR_90-EV-0577.NEW.01 
*SOURCE FILE: ERN_F3164_NSCR_1990-11-18_RACE BROLL ATLANTA JOURNAL 500 PIT STOP CREW & DESR YOUNG DEJR TAYLOR_90-EV-0577
001715  ERN_F3164_NSCR_1990-11-18_RACE_BROLL_ATLANTA_JOURNAL_500_PIT_STOP_CREW_&_DESR_YOUNG_DEJR_TAYLOR_90-EV-0577                        A18   C        00:40:21:09 00:40:23:10 00:36:38:00 00:36:40:00 
M2      ERN_F3164_NSCR_1990-11-18_RACE_BROLL_ATLANTA_JOURNAL_500_PIT_STOP_CREW_&_DESR_YOUNG_DEJR_TAYLOR_90-EV-0577                                 030.0 00:40:21:09 
*FROM CLIP NAME:  ERN_F3164_NSCR_1990-11-18_RACE BROLL ATLANTA JOURNAL 500 PIT STOP CREW & DESR YOUNG DEJR TAYLOR_90-EV-0577.NEW.01 
*SOURCE FILE: ERN_F3164_NSCR_1990-11-18_RACE BROLL ATLANTA JOURNAL 500 PIT STOP CREW & DESR YOUNG DEJR TAYLOR_90-EV-0577
001716  ERN_F3164_NSCR_1990-11-18_RACE_BROLL_ATLANTA_JOURNAL_500_PIT_STOP_CREW_&_DESR_YOUNG_DEJR_TAYLOR_90-EV-0577                        V     C        00:40:19:17 00:40:26:04 00:36:38:06 00:36:44:19 
M2      ERN_F3164_NSCR_1990-11-18_RACE_BROLL_ATLANTA_JOURNAL_500_PIT_STOP_CREW_&_DESR_YOUNG_DEJR_TAYLOR_90-EV-0577                                 030.0 00:40:19:17 
*FROM CLIP NAME:  ERN_F3164_NSCR_1990-11-18_RACE BROLL ATLANTA JOURNAL 500 PIT STOP CREW & DESR YOUNG DEJR TAYLOR_90-EV-0577.NEW.01 
*SOURCE FILE: ERN_F3164_NSCR_1990-11-18_RACE BROLL ATLANTA JOURNAL 500 PIT STOP CREW & DESR YOUNG DEJR TAYLOR_90-EV-0577
001717  ERN_F3164_NSCR_1990-11-18_RACE_BROLL_ATLANTA_JOURNAL_500_PIT_STOP_CREW_&_DESR_YOUNG_DEJR_TAYLOR_90-EV-0577                        A18   C        00:40:23:09 00:40:24:20 00:36:40:00 00:36:41:08 
M2      ERN_F3164_NSCR_1990-11-18_RACE_BROLL_ATLANTA_JOURNAL_500_PIT_STOP_CREW_&_DESR_YOUNG_DEJR_TAYLOR_90-EV-0577                                 030.0 00:40:23:09 
*FROM CLIP NAME:  ERN_F3164_NSCR_1990-11-18_RACE BROLL ATLANTA JOURNAL 500 PIT STOP CREW & DESR YOUNG DEJR TAYLOR_90-EV-0577.NEW.01 
*SOURCE FILE: ERN_F3164_NSCR_1990-11-18_RACE BROLL ATLANTA JOURNAL 500 PIT STOP CREW & DESR YOUNG DEJR TAYLOR_90-EV-0577
001718  ERN_F3164_NSCR_1990-11-18_RACE_BROLL_ATLANTA_JOURNAL_500_PIT_STOP_CREW_&_DESR_YOUNG_DEJR_TAYLOR_90-EV-0577                        A18   C        00:40:24:19 00:40:26:20 00:36:41:08 00:36:43:08 
M2      ERN_F3164_NSCR_1990-11-18_RACE_BROLL_ATLANTA_JOURNAL_500_PIT_STOP_CREW_&_DESR_YOUNG_DEJR_TAYLOR_90-EV-0577                                 030.0 00:40:24:19 
*FROM CLIP NAME:  ERN_F3164_NSCR_1990-11-18_RACE BROLL ATLANTA JOURNAL 500 PIT STOP CREW & DESR YOUNG DEJR TAYLOR_90-EV-0577.NEW.01 
*TO CLIP NAME:  ERN_F3164_NSCR_1990-11-18_RACE BROLL ATLANTA JOURNAL 500 PIT STOP CREW & DESR YOUNG DEJR TAYLOR_90-EV-0577.NEW.01 
*SOURCE FILE: ERN_F3164_NSCR_1990-11-18_RACE BROLL ATLANTA JOURNAL 500 PIT STOP CREW & DESR YOUNG DEJR TAYLOR_90-EV-0577
001719  ERN_F3164_NSCR_1990-11-18_RACE_BROLL_ATLANTA_JOURNAL_500_PIT_STOP_CREW_&_DESR_YOUNG_DEJR_TAYLOR_90-EV-0577                        A18   C        00:40:26:19 00:40:31:29 00:36:43:08 00:36:48:15 
M2      ERN_F3164_NSCR_1990-11-18_RACE_BROLL_ATLANTA_JOURNAL_500_PIT_STOP_CREW_&_DESR_YOUNG_DEJR_TAYLOR_90-EV-0577                                 030.0 00:40:26:19 
*FROM CLIP NAME:  ERN_F3164_NSCR_1990-11-18_RACE BROLL ATLANTA JOURNAL 500 PIT STOP CREW & DESR YOUNG DEJR TAYLOR_90-EV-0577.NEW.01 
*SOURCE FILE: ERN_F3164_NSCR_1990-11-18_RACE BROLL ATLANTA JOURNAL 500 PIT STOP CREW & DESR YOUNG DEJR TAYLOR_90-EV-0577
001720  ERN_F3164_NSCR_1990-11-18_RACE_BROLL_ATLANTA_JOURNAL_500_PIT_STOP_CREW_&_DESR_YOUNG_DEJR_TAYLOR_90-EV-0577                        V     C        00:40:31:04 00:40:35:06 00:36:44:19 00:36:48:20 
M2      ERN_F3164_NSCR_1990-11-18_RACE_BROLL_ATLANTA_JOURNAL_500_PIT_STOP_CREW_&_DESR_YOUNG_DEJR_TAYLOR_90-EV-0577                                 030.0 00:40:31:04 
*FROM CLIP NAME:  ERN_F3164_NSCR_1990-11-18_RACE BROLL ATLANTA JOURNAL 500 PIT STOP CREW & DESR YOUNG DEJR TAYLOR_90-EV-0577.NEW.01 
*SOURCE FILE: ERN_F3164_NSCR_1990-11-18_RACE BROLL ATLANTA JOURNAL 500 PIT STOP CREW & DESR YOUNG DEJR TAYLOR_90-EV-0577
001721  ERN_F3169_NSCR_1990-11-18_ATLANTA_JOURNAL_500_DESR_AGAINST_MARK_MARTIN_&_BILL_ELLIOT_MICK_RICH_ACCIDENT_90-EV-0654                A20   C        02:19:52:02 02:19:53:18 00:36:48:16 00:36:50:04 
M2      ERN_F3169_NSCR_1990-11-18_ATLANTA_JOURNAL_500_DESR_AGAINST_MARK_MARTIN_&_BILL_ELLIOT_MICK_RICH_ACCIDENT_90-EV-0654                         030.0 02:19:52:02 
*FROM CLIP NAME:  ERN_F3169_NSCR_1990-11-18_ATLANTA JOURNAL 500 DESR AGAINST MARK MARTIN & BILL ELLIOT MICK RICH ACCIDENT_90-EV-0654.NEW.01 
*SOURCE FILE: ERN_F3169_NSCR_1990-11-18_ATLANTA JOURNAL 500 DESR AGAINST MARK MARTIN & BILL ELLIOT MICK RICH ACCIDENT_90-EV-0654
001722  ERN_F3169_NSCR_1990-11-18_ATLANTA_JOURNAL_500_DESR_AGAINST_MARK_MARTIN_&_BILL_ELLIOT_MICK_RICH_ACCIDENT_90-EV-0654                A22   C        02:19:52:02 02:19:53:18 00:36:48:16 00:36:50:04 
M2      ERN_F3169_NSCR_1990-11-18_ATLANTA_JOURNAL_500_DESR_AGAINST_MARK_MARTIN_&_BILL_ELLIOT_MICK_RICH_ACCIDENT_90-EV-0654                         030.0 02:19:52:02 
*FROM CLIP NAME:  ERN_F3169_NSCR_1990-11-18_ATLANTA JOURNAL 500 DESR AGAINST MARK MARTIN & BILL ELLIOT MICK RICH ACCIDENT_90-EV-0654.NEW.01 
*SOURCE FILE: ERN_F3169_NSCR_1990-11-18_ATLANTA JOURNAL 500 DESR AGAINST MARK MARTIN & BILL ELLIOT MICK RICH ACCIDENT_90-EV-0654
001723  ERN_F3169_NSCR_1990-11-18_ATLANTA_JOURNAL_500_DESR_AGAINST_MARK_MARTIN_&_BILL_ELLIOT_MICK_RICH_ACCIDENT_90-EV-0654                V     C        02:19:52:07 02:19:58:25 00:36:48:20 00:36:55:10 
M2      ERN_F3169_NSCR_1990-11-18_ATLANTA_JOURNAL_500_DESR_AGAINST_MARK_MARTIN_&_BILL_ELLIOT_MICK_RICH_ACCIDENT_90-EV-0654                         030.0 02:19:52:07 
*FROM CLIP NAME:  ERN_F3169_NSCR_1990-11-18_ATLANTA JOURNAL 500 DESR AGAINST MARK MARTIN & BILL ELLIOT MICK RICH ACCIDENT_90-EV-0654.NEW.01 
*SOURCE FILE: ERN_F3169_NSCR_1990-11-18_ATLANTA JOURNAL 500 DESR AGAINST MARK MARTIN & BILL ELLIOT MICK RICH ACCIDENT_90-EV-0654
001724  ERN_F3169_NSCR_1990-11-18_ATLANTA_JOURNAL_500_DESR_AGAINST_MARK_MARTIN_&_BILL_ELLIOT_MICK_RICH_ACCIDENT_90-EV-0654                A20   C        02:19:53:17 02:19:57:07 00:36:50:04 00:36:53:19 
M2      ERN_F3169_NSCR_1990-11-18_ATLANTA_JOURNAL_500_DESR_AGAINST_MARK_MARTIN_&_BILL_ELLIOT_MICK_RICH_ACCIDENT_90-EV-0654                         030.0 02:19:53:17 
*FROM CLIP NAME:  ERN_F3169_NSCR_1990-11-18_ATLANTA JOURNAL 500 DESR AGAINST MARK MARTIN & BILL ELLIOT MICK RICH ACCIDENT_90-EV-0654.NEW.01 
*SOURCE FILE: ERN_F3169_NSCR_1990-11-18_ATLANTA JOURNAL 500 DESR AGAINST MARK MARTIN & BILL ELLIOT MICK RICH ACCIDENT_90-EV-0654
001725  ERN_F3169_NSCR_1990-11-18_ATLANTA_JOURNAL_500_DESR_AGAINST_MARK_MARTIN_&_BILL_ELLIOT_MICK_RICH_ACCIDENT_90-EV-0654                A22   C        02:19:53:17 02:19:57:20 00:36:50:04 00:36:54:06 
M2      ERN_F3169_NSCR_1990-11-18_ATLANTA_JOURNAL_500_DESR_AGAINST_MARK_MARTIN_&_BILL_ELLIOT_MICK_RICH_ACCIDENT_90-EV-0654                         030.0 02:19:53:17 
*FROM CLIP NAME:  ERN_F3169_NSCR_1990-11-18_ATLANTA JOURNAL 500 DESR AGAINST MARK MARTIN & BILL ELLIOT MICK RICH ACCIDENT_90-EV-0654.NEW.01 
*SOURCE FILE: ERN_F3169_NSCR_1990-11-18_ATLANTA JOURNAL 500 DESR AGAINST MARK MARTIN & BILL ELLIOT MICK RICH ACCIDENT_90-EV-0654
001726  ERN_F3169_NSCR_1990-11-18_ATLANTA_JOURNAL_500_DESR_AGAINST_MARK_MARTIN_&_BILL_ELLIOT_MICK_RICH_ACCIDENT_90-EV-0654                A24   C        02:19:58:13 02:20:05:12 00:36:53:08 00:37:00:06 
M2      ERN_F3169_NSCR_1990-11-18_ATLANTA_JOURNAL_500_DESR_AGAINST_MARK_MARTIN_&_BILL_ELLIOT_MICK_RICH_ACCIDENT_90-EV-0654                         030.0 02:19:58:13 
*FROM CLIP NAME:  ERN_F3169_NSCR_1990-11-18_ATLANTA JOURNAL 500 DESR AGAINST MARK MARTIN & BILL ELLIOT MICK RICH ACCIDENT_90-EV-0654.NEW.01 
*SOURCE FILE: ERN_F3169_NSCR_1990-11-18_ATLANTA JOURNAL 500 DESR AGAINST MARK MARTIN & BILL ELLIOT MICK RICH ACCIDENT_90-EV-0654
001727  ERN_F3169_NSCR_1990-11-18_ATLANTA_JOURNAL_500_DESR_AGAINST_MARK_MARTIN_&_BILL_ELLIOT_MICK_RICH_ACCIDENT_90-EV-0654                A22   C        02:19:57:20 02:19:58:20 00:36:54:06 00:36:55:06 
M2      ERN_F3169_NSCR_1990-11-18_ATLANTA_JOURNAL_500_DESR_AGAINST_MARK_MARTIN_&_BILL_ELLIOT_MICK_RICH_ACCIDENT_90-EV-0654                         030.0 02:19:57:20 
*FROM CLIP NAME:  ERN_F3169_NSCR_1990-11-18_ATLANTA JOURNAL 500 DESR AGAINST MARK MARTIN & BILL ELLIOT MICK RICH ACCIDENT_90-EV-0654.NEW.01 
*TO CLIP NAME:  ERN_F3169_NSCR_1990-11-18_ATLANTA JOURNAL 500 DESR AGAINST MARK MARTIN & BILL ELLIOT MICK RICH ACCIDENT_90-EV-0654.NEW.01 
*SOURCE FILE: ERN_F3169_NSCR_1990-11-18_ATLANTA JOURNAL 500 DESR AGAINST MARK MARTIN & BILL ELLIOT MICK RICH ACCIDENT_90-EV-0654
001728  ERN_F3169_NSCR_1990-11-18_ATLANTA_JOURNAL_500_DESR_AGAINST_MARK_MARTIN_&_BILL_ELLIOT_MICK_RICH_ACCIDENT_90-EV-0654                A18   C        02:20:16:13 02:20:16:29 00:36:55:03 00:36:55:15 
M2      ERN_F3169_NSCR_1990-11-18_ATLANTA_JOURNAL_500_DESR_AGAINST_MARK_MARTIN_&_BILL_ELLIOT_MICK_RICH_ACCIDENT_90-EV-0654                         030.0 02:20:16:13 
*FROM CLIP NAME:  ERN_F3169_NSCR_1990-11-18_ATLANTA JOURNAL 500 DESR AGAINST MARK MARTIN & BILL ELLIOT MICK RICH ACCIDENT_90-EV-0654.NEW.01 
*SOURCE FILE: ERN_F3169_NSCR_1990-11-18_ATLANTA JOURNAL 500 DESR AGAINST MARK MARTIN & BILL ELLIOT MICK RICH ACCIDENT_90-EV-0654
001729  ERN_F3169_NSCR_1990-11-18_ATLANTA_JOURNAL_500_DESR_AGAINST_MARK_MARTIN_&_BILL_ELLIOT_MICK_RICH_ACCIDENT_90-EV-0654                A22   C        02:19:58:20 02:20:03:20 00:36:55:06 00:37:00:06 
M2      ERN_F3169_NSCR_1990-11-18_ATLANTA_JOURNAL_500_DESR_AGAINST_MARK_MARTIN_&_BILL_ELLIOT_MICK_RICH_ACCIDENT_90-EV-0654                         030.0 02:19:58:20 
*FROM CLIP NAME:  ERN_F3169_NSCR_1990-11-18_ATLANTA JOURNAL 500 DESR AGAINST MARK MARTIN & BILL ELLIOT MICK RICH ACCIDENT_90-EV-0654.NEW.01 
*SOURCE FILE: ERN_F3169_NSCR_1990-11-18_ATLANTA JOURNAL 500 DESR AGAINST MARK MARTIN & BILL ELLIOT MICK RICH ACCIDENT_90-EV-0654
001730  ERN_F3169_NSCR_1990-11-18_ATLANTA_JOURNAL_500_DESR_AGAINST_MARK_MARTIN_&_BILL_ELLIOT_MICK_RICH_ACCIDENT_90-EV-0654                V     C        02:20:16:22 02:20:22:09 00:36:55:10 00:37:00:23 
M2      ERN_F3169_NSCR_1990-11-18_ATLANTA_JOURNAL_500_DESR_AGAINST_MARK_MARTIN_&_BILL_ELLIOT_MICK_RICH_ACCIDENT_90-EV-0654                         030.0 02:20:16:22 
*FROM CLIP NAME:  ERN_F3169_NSCR_1990-11-18_ATLANTA JOURNAL 500 DESR AGAINST MARK MARTIN & BILL ELLIOT MICK RICH ACCIDENT_90-EV-0654.NEW.01 
*SOURCE FILE: ERN_F3169_NSCR_1990-11-18_ATLANTA JOURNAL 500 DESR AGAINST MARK MARTIN & BILL ELLIOT MICK RICH ACCIDENT_90-EV-0654
001731  ERN_F3169_NSCR_1990-11-18_ATLANTA_JOURNAL_500_DESR_AGAINST_MARK_MARTIN_&_BILL_ELLIOT_MICK_RICH_ACCIDENT_90-EV-0654                A18   C        02:20:16:28 02:20:17:17 00:36:55:15 00:36:56:05 
M2      ERN_F3169_NSCR_1990-11-18_ATLANTA_JOURNAL_500_DESR_AGAINST_MARK_MARTIN_&_BILL_ELLIOT_MICK_RICH_ACCIDENT_90-EV-0654                         030.0 02:20:16:28 
*FROM CLIP NAME:  ERN_F3169_NSCR_1990-11-18_ATLANTA JOURNAL 500 DESR AGAINST MARK MARTIN & BILL ELLIOT MICK RICH ACCIDENT_90-EV-0654.NEW.01 
*SOURCE FILE: ERN_F3169_NSCR_1990-11-18_ATLANTA JOURNAL 500 DESR AGAINST MARK MARTIN & BILL ELLIOT MICK RICH ACCIDENT_90-EV-0654
001732  ERN_A0061_NSCR_1990_RACE_MOTOR_RACING_NETWORK_ATLANTA_JOURNAL_T1371842818844.WAV                                                  A18   C        03:42:01:05 03:42:01:09 00:36:57:07 00:36:57:11 
*FROM CLIP NAME:  ERN_A0061_NSCR_1990_RACE MOTOR RACING NETWORK ATLANTA JOURNAL_T1371842818844.WAV 
*SOURCE FILE: ERN_A0061_NSCR_1990_RACE MOTOR RACING NETWORK ATLANTA JOURNAL_T1371842818844.WAV
001733  ERN_A0061_NSCR_1990_RACE_MOTOR_RACING_NETWORK_ATLANTA_JOURNAL_T1371842818844.WAV                                                  A18   C        03:42:01:09 03:42:07:15 00:36:57:11 00:37:03:17 
*FROM CLIP NAME:  ERN_A0061_NSCR_1990_RACE MOTOR RACING NETWORK ATLANTA JOURNAL_T1371842818844.WAV 
*SOURCE FILE: ERN_A0061_NSCR_1990_RACE MOTOR RACING NETWORK ATLANTA JOURNAL_T1371842818844.WAV
001734  ERN_F3169_NSCR_1990-11-18_ATLANTA_JOURNAL_500_DESR_AGAINST_MARK_MARTIN_&_BILL_ELLIOT_MICK_RICH_ACCIDENT_90-EV-0654                A22   C        02:20:03:20 02:20:05:05 00:37:00:06 00:37:01:18 
M2      ERN_F3169_NSCR_1990-11-18_ATLANTA_JOURNAL_500_DESR_AGAINST_MARK_MARTIN_&_BILL_ELLIOT_MICK_RICH_ACCIDENT_90-EV-0654                         030.0 02:20:03:20 
*FROM CLIP NAME:  ERN_F3169_NSCR_1990-11-18_ATLANTA JOURNAL 500 DESR AGAINST MARK MARTIN & BILL ELLIOT MICK RICH ACCIDENT_90-EV-0654.NEW.01 
*TO CLIP NAME:  ERN_F3169_NSCR_1990-11-18_ATLANTA JOURNAL 500 DESR AGAINST MARK MARTIN & BILL ELLIOT MICK RICH ACCIDENT_90-EV-0654.NEW.01 
*SOURCE FILE: ERN_F3169_NSCR_1990-11-18_ATLANTA JOURNAL 500 DESR AGAINST MARK MARTIN & BILL ELLIOT MICK RICH ACCIDENT_90-EV-0654
001735  ERN_F3169_NSCR_1990-11-18_ATLANTA_JOURNAL_500_DESR_AGAINST_MARK_MARTIN_&_BILL_ELLIOT_MICK_RICH_ACCIDENT_90-EV-0654                A24   C        02:20:05:11 02:20:06:27 00:37:00:06 00:37:01:18 
M2      ERN_F3169_NSCR_1990-11-18_ATLANTA_JOURNAL_500_DESR_AGAINST_MARK_MARTIN_&_BILL_ELLIOT_MICK_RICH_ACCIDENT_90-EV-0654                         030.0 02:20:05:11 
*FROM CLIP NAME:  ERN_F3169_NSCR_1990-11-18_ATLANTA JOURNAL 500 DESR AGAINST MARK MARTIN & BILL ELLIOT MICK RICH ACCIDENT_90-EV-0654.NEW.01 
*TO CLIP NAME:  ERN_F3169_NSCR_1990-11-18_ATLANTA JOURNAL 500 DESR AGAINST MARK MARTIN & BILL ELLIOT MICK RICH ACCIDENT_90-EV-0654.NEW.01 
*SOURCE FILE: ERN_F3169_NSCR_1990-11-18_ATLANTA JOURNAL 500 DESR AGAINST MARK MARTIN & BILL ELLIOT MICK RICH ACCIDENT_90-EV-0654
001736  ERN_F3164_NSCR_1990-11-18_RACE_BROLL_ATLANTA_JOURNAL_500_PIT_STOP_CREW_&_DESR_YOUNG_DEJR_TAYLOR_90-EV-0577                        A20   C        00:48:13:14 00:48:14:15 00:37:00:11 00:37:01:11 
M2      ERN_F3164_NSCR_1990-11-18_RACE_BROLL_ATLANTA_JOURNAL_500_PIT_STOP_CREW_&_DESR_YOUNG_DEJR_TAYLOR_90-EV-0577                                 030.0 00:48:13:14 
*FROM CLIP NAME:  ERN_F3164_NSCR_1990-11-18_RACE BROLL ATLANTA JOURNAL 500 PIT STOP CREW & DESR YOUNG DEJR TAYLOR_90-EV-0577.NEW.01 
*SOURCE FILE: ERN_F3164_NSCR_1990-11-18_RACE BROLL ATLANTA JOURNAL 500 PIT STOP CREW & DESR YOUNG DEJR TAYLOR_90-EV-0577
001737  ERN_F3164_NSCR_1990-11-18_RACE_BROLL_ATLANTA_JOURNAL_500_PIT_STOP_CREW_&_DESR_YOUNG_DEJR_TAYLOR_90-EV-0577                        V     C        00:48:13:29 00:48:20:10 00:37:00:23 00:37:07:07 
M2      ERN_F3164_NSCR_1990-11-18_RACE_BROLL_ATLANTA_JOURNAL_500_PIT_STOP_CREW_&_DESR_YOUNG_DEJR_TAYLOR_90-EV-0577                                 030.0 00:48:13:29 
*FROM CLIP NAME:  ERN_F3164_NSCR_1990-11-18_RACE BROLL ATLANTA JOURNAL 500 PIT STOP CREW & DESR YOUNG DEJR TAYLOR_90-EV-0577.NEW.01 
*SOURCE FILE: ERN_F3164_NSCR_1990-11-18_RACE BROLL ATLANTA JOURNAL 500 PIT STOP CREW & DESR YOUNG DEJR TAYLOR_90-EV-0577
001738  ERN_F3164_NSCR_1990-11-18_RACE_BROLL_ATLANTA_JOURNAL_500_PIT_STOP_CREW_&_DESR_YOUNG_DEJR_TAYLOR_90-EV-0577                        A20   C        00:48:14:14 00:48:18:10 00:37:01:11 00:37:05:07 
M2      ERN_F3164_NSCR_1990-11-18_RACE_BROLL_ATLANTA_JOURNAL_500_PIT_STOP_CREW_&_DESR_YOUNG_DEJR_TAYLOR_90-EV-0577                                 030.0 00:48:14:14 
*FROM CLIP NAME:  ERN_F3164_NSCR_1990-11-18_RACE BROLL ATLANTA JOURNAL 500 PIT STOP CREW & DESR YOUNG DEJR TAYLOR_90-EV-0577.NEW.01 
*SOURCE FILE: ERN_F3164_NSCR_1990-11-18_RACE BROLL ATLANTA JOURNAL 500 PIT STOP CREW & DESR YOUNG DEJR TAYLOR_90-EV-0577
001739  ERN_F3169_NSCR_1990-11-18_ATLANTA_JOURNAL_500_DESR_AGAINST_MARK_MARTIN_&_BILL_ELLIOT_MICK_RICH_ACCIDENT_90-EV-0654                A22   C        02:20:05:05 02:20:06:15 00:37:01:18 00:37:03:02 
M2      ERN_F3169_NSCR_1990-11-18_ATLANTA_JOURNAL_500_DESR_AGAINST_MARK_MARTIN_&_BILL_ELLIOT_MICK_RICH_ACCIDENT_90-EV-0654                         030.0 02:20:05:05 
*FROM CLIP NAME:  ERN_F3169_NSCR_1990-11-18_ATLANTA JOURNAL 500 DESR AGAINST MARK MARTIN & BILL ELLIOT MICK RICH ACCIDENT_90-EV-0654.NEW.01 
*SOURCE FILE: ERN_F3169_NSCR_1990-11-18_ATLANTA JOURNAL 500 DESR AGAINST MARK MARTIN & BILL ELLIOT MICK RICH ACCIDENT_90-EV-0654
001740  ERN_F3169_NSCR_1990-11-18_ATLANTA_JOURNAL_500_DESR_AGAINST_MARK_MARTIN_&_BILL_ELLIOT_MICK_RICH_ACCIDENT_90-EV-0654                A24   C        02:20:06:26 02:20:10:13 00:37:01:18 00:37:05:07 
M2      ERN_F3169_NSCR_1990-11-18_ATLANTA_JOURNAL_500_DESR_AGAINST_MARK_MARTIN_&_BILL_ELLIOT_MICK_RICH_ACCIDENT_90-EV-0654                         030.0 02:20:06:26 
*FROM CLIP NAME:  ERN_F3169_NSCR_1990-11-18_ATLANTA JOURNAL 500 DESR AGAINST MARK MARTIN & BILL ELLIOT MICK RICH ACCIDENT_90-EV-0654.NEW.01 
*SOURCE FILE: ERN_F3169_NSCR_1990-11-18_ATLANTA JOURNAL 500 DESR AGAINST MARK MARTIN & BILL ELLIOT MICK RICH ACCIDENT_90-EV-0654
001741  ERN_A0061_NSCR_1990_RACE_MOTOR_RACING_NETWORK_ATLANTA_JOURNAL_T1371842818844.WAV                                                  A18   C        03:42:26:01 03:42:26:05 00:37:03:17 00:37:03:21 
*FROM CLIP NAME:  ERN_A0061_NSCR_1990_RACE MOTOR RACING NETWORK ATLANTA JOURNAL_T1371842818844.WAV 
*TO CLIP NAME:  ERN_A0061_NSCR_1990_RACE MOTOR RACING NETWORK ATLANTA JOURNAL_T1371842818844.WAV 
*SOURCE FILE: ERN_A0061_NSCR_1990_RACE MOTOR RACING NETWORK ATLANTA JOURNAL_T1371842818844.WAV
001742  ERN_A0061_NSCR_1990_RACE_MOTOR_RACING_NETWORK_ATLANTA_JOURNAL_T1371842818844.WAV                                                  A18   C        03:42:26:05 03:42:28:08 00:37:03:21 00:37:06:00 
*FROM CLIP NAME:  ERN_A0061_NSCR_1990_RACE MOTOR RACING NETWORK ATLANTA JOURNAL_T1371842818844.WAV 
*SOURCE FILE: ERN_A0061_NSCR_1990_RACE MOTOR RACING NETWORK ATLANTA JOURNAL_T1371842818844.WAV
001743  ERN_F3164_NSCR_1990-11-18_RACE_BROLL_ATLANTA_JOURNAL_500_PIT_STOP_CREW_&_DESR_YOUNG_DEJR_TAYLOR_90-EV-0577                        A20   C        00:48:18:09 00:48:20:10 00:37:05:07 00:37:07:07 
M2      ERN_F3164_NSCR_1990-11-18_RACE_BROLL_ATLANTA_JOURNAL_500_PIT_STOP_CREW_&_DESR_YOUNG_DEJR_TAYLOR_90-EV-0577                                 030.0 00:48:18:09 
*FROM CLIP NAME:  ERN_F3164_NSCR_1990-11-18_RACE BROLL ATLANTA JOURNAL 500 PIT STOP CREW & DESR YOUNG DEJR TAYLOR_90-EV-0577.NEW.01 
*TO CLIP NAME:  ERN_F3164_NSCR_1990-11-18_RACE BROLL ATLANTA JOURNAL 500 PIT STOP CREW & DESR YOUNG DEJR TAYLOR_90-EV-0577.NEW.01 
*SOURCE FILE: ERN_F3164_NSCR_1990-11-18_RACE BROLL ATLANTA JOURNAL 500 PIT STOP CREW & DESR YOUNG DEJR TAYLOR_90-EV-0577
001744  ERN_F3165_NSCR_1990-11-18_BROLL_ATLANTA_JOURNAL_500_&_POST_RACE_OTF_INTVS_DESR_W_YOUNG_DEJR_90-EV-0580_S001                       A22   C        01:20:44:08 01:20:45:24 00:37:05:12 00:37:07:00 
M2      ERN_F3165_NSCR_1990-11-18_BROLL_ATLANTA_JOURNAL_500_&_POST_RACE_OTF_INTVS_DESR_W_YOUNG_DEJR_90-EV-0580_S001                                030.0 01:20:44:08 
*FROM CLIP NAME:  ERN_F3165_NSCR_1990-11-18_BROLL ATLANTA JOURNAL 500 & POST RACE OTF INTVS DESR W YOUNG DEJR_90-EV-0580_S001.NEW.01 
*SOURCE FILE: ERN_F3165_NSCR_1990-11-18_BROLL ATLANTA JOURNAL 500 & POST RACE OTF INTVS DESR W YOUNG DEJR_90-EV-0580_S001
001745  ERN_F3165_NSCR_1990-11-18_BROLL_ATLANTA_JOURNAL_500_&_POST_RACE_OTF_INTVS_DESR_W_YOUNG_DEJR_90-EV-0580_S001                       A22   C        01:20:45:23 01:20:51:09 00:37:07:00 00:37:12:12 
M2      ERN_F3165_NSCR_1990-11-18_BROLL_ATLANTA_JOURNAL_500_&_POST_RACE_OTF_INTVS_DESR_W_YOUNG_DEJR_90-EV-0580_S001                                030.0 01:20:45:23 
*FROM CLIP NAME:  ERN_F3165_NSCR_1990-11-18_BROLL ATLANTA JOURNAL 500 & POST RACE OTF INTVS DESR W YOUNG DEJR_90-EV-0580_S001.NEW.01 
*SOURCE FILE: ERN_F3165_NSCR_1990-11-18_BROLL ATLANTA JOURNAL 500 & POST RACE OTF INTVS DESR W YOUNG DEJR_90-EV-0580_S001
001746  ERN_F3164_NSCR_1990-11-18_RACE_BROLL_ATLANTA_JOURNAL_500_PIT_STOP_CREW_&_DESR_YOUNG_DEJR_TAYLOR_90-EV-0577                        A20   C        00:48:20:09 00:48:22:20 00:37:07:07 00:37:09:15 
M2      ERN_F3164_NSCR_1990-11-18_RACE_BROLL_ATLANTA_JOURNAL_500_PIT_STOP_CREW_&_DESR_YOUNG_DEJR_TAYLOR_90-EV-0577                                 030.0 00:48:20:09 
*FROM CLIP NAME:  ERN_F3164_NSCR_1990-11-18_RACE BROLL ATLANTA JOURNAL 500 PIT STOP CREW & DESR YOUNG DEJR TAYLOR_90-EV-0577.NEW.01 
*SOURCE FILE: ERN_F3164_NSCR_1990-11-18_RACE BROLL ATLANTA JOURNAL 500 PIT STOP CREW & DESR YOUNG DEJR TAYLOR_90-EV-0577
001747  ERN_F3165_NSCR_1990-11-18_BROLL_ATLANTA_JOURNAL_500_&_POST_RACE_OTF_INTVS_DESR_W_YOUNG_DEJR_90-EV-0580_S001                       V     C        01:20:42:29 01:20:46:13 00:37:07:07 00:37:10:17 
M2      ERN_F3165_NSCR_1990-11-18_BROLL_ATLANTA_JOURNAL_500_&_POST_RACE_OTF_INTVS_DESR_W_YOUNG_DEJR_90-EV-0580_S001                                030.0 01:20:42:29 
*FROM CLIP NAME:  ERN_F3165_NSCR_1990-11-18_BROLL ATLANTA JOURNAL 500 & POST RACE OTF INTVS DESR W YOUNG DEJR_90-EV-0580_S001.NEW.01 
*SOURCE FILE: ERN_F3165_NSCR_1990-11-18_BROLL ATLANTA JOURNAL 500 & POST RACE OTF INTVS DESR W YOUNG DEJR_90-EV-0580_S001
001748  ERN_F3165_NSCR_1990-11-18_BROLL_ATLANTA_JOURNAL_500_&_POST_RACE_OTF_INTVS_DESR_W_YOUNG_DEJR_90-EV-0580_S001                       V     C        01:21:11:21 01:21:16:01 00:37:10:17 00:37:15:00 
M2      ERN_F3165_NSCR_1990-11-18_BROLL_ATLANTA_JOURNAL_500_&_POST_RACE_OTF_INTVS_DESR_W_YOUNG_DEJR_90-EV-0580_S001                                030.0 01:21:11:21 
*FROM CLIP NAME:  ERN_F3165_NSCR_1990-11-18_BROLL ATLANTA JOURNAL 500 & POST RACE OTF INTVS DESR W YOUNG DEJR_90-EV-0580_S001.NEW.01 
*SOURCE FILE: ERN_F3165_NSCR_1990-11-18_BROLL ATLANTA JOURNAL 500 & POST RACE OTF INTVS DESR W YOUNG DEJR_90-EV-0580_S001
001749  ERN_F3165_NSCR_1990-11-18_BROLL_ATLANTA_JOURNAL_500_&_POST_RACE_OTF_INTVS_DESR_W_YOUNG_DEJR_90-EV-0580_S001                       A18   C        01:20:50:18 01:20:52:04 00:37:12:01 00:37:13:13 
M2      ERN_F3165_NSCR_1990-11-18_BROLL_ATLANTA_JOURNAL_500_&_POST_RACE_OTF_INTVS_DESR_W_YOUNG_DEJR_90-EV-0580_S001                                030.0 01:20:50:18 
*FROM CLIP NAME:  ERN_F3165_NSCR_1990-11-18_BROLL ATLANTA JOURNAL 500 & POST RACE OTF INTVS DESR W YOUNG DEJR_90-EV-0580_S001.NEW.01 
*SOURCE FILE: ERN_F3165_NSCR_1990-11-18_BROLL ATLANTA JOURNAL 500 & POST RACE OTF INTVS DESR W YOUNG DEJR_90-EV-0580_S001
001750  ERN_F3165_NSCR_1990-11-18_BROLL_ATLANTA_JOURNAL_500_&_POST_RACE_OTF_INTVS_DESR_W_YOUNG_DEJR_90-EV-0580_S001                       A22   C        01:20:49:09 01:20:50:25 00:37:12:12 00:37:14:00 
M2      ERN_F3165_NSCR_1990-11-18_BROLL_ATLANTA_JOURNAL_500_&_POST_RACE_OTF_INTVS_DESR_W_YOUNG_DEJR_90-EV-0580_S001                                030.0 01:20:49:09 
*FROM CLIP NAME:  ERN_F3165_NSCR_1990-11-18_BROLL ATLANTA JOURNAL 500 & POST RACE OTF INTVS DESR W YOUNG DEJR_90-EV-0580_S001.NEW.01 
*TO CLIP NAME:  ERN_F3165_NSCR_1990-11-18_BROLL ATLANTA JOURNAL 500 & POST RACE OTF INTVS DESR W YOUNG DEJR_90-EV-0580_S001.NEW.01 
*SOURCE FILE: ERN_F3165_NSCR_1990-11-18_BROLL ATLANTA JOURNAL 500 & POST RACE OTF INTVS DESR W YOUNG DEJR_90-EV-0580_S001
001751  ERN_F3165_NSCR_1990-11-18_BROLL_ATLANTA_JOURNAL_500_&_POST_RACE_OTF_INTVS_DESR_W_YOUNG_DEJR_90-EV-0580_S001                       A18   C        01:20:52:03 01:20:57:08 00:37:13:13 00:37:18:16 
M2      ERN_F3165_NSCR_1990-11-18_BROLL_ATLANTA_JOURNAL_500_&_POST_RACE_OTF_INTVS_DESR_W_YOUNG_DEJR_90-EV-0580_S001                                030.0 01:20:52:03 
*FROM CLIP NAME:  ERN_F3165_NSCR_1990-11-18_BROLL ATLANTA JOURNAL 500 & POST RACE OTF INTVS DESR W YOUNG DEJR_90-EV-0580_S001.NEW.01 
*SOURCE FILE: ERN_F3165_NSCR_1990-11-18_BROLL ATLANTA JOURNAL 500 & POST RACE OTF INTVS DESR W YOUNG DEJR_90-EV-0580_S001
001752  ERN_F3165_NSCR_1990-11-18_BROLL_ATLANTA_JOURNAL_500_&_POST_RACE_OTF_INTVS_DESR_W_YOUNG_DEJR_90-EV-0580_S001                       A22   C        01:20:50:24 01:20:51:08 00:37:14:00 00:37:14:10 
M2      ERN_F3165_NSCR_1990-11-18_BROLL_ATLANTA_JOURNAL_500_&_POST_RACE_OTF_INTVS_DESR_W_YOUNG_DEJR_90-EV-0580_S001                                030.0 01:20:50:24 
*FROM CLIP NAME:  ERN_F3165_NSCR_1990-11-18_BROLL ATLANTA JOURNAL 500 & POST RACE OTF INTVS DESR W YOUNG DEJR_90-EV-0580_S001.NEW.01 
*SOURCE FILE: ERN_F3165_NSCR_1990-11-18_BROLL ATLANTA JOURNAL 500 & POST RACE OTF INTVS DESR W YOUNG DEJR_90-EV-0580_S001
001753  ERN_F3164_NSCR_1990-11-18_RACE_BROLL_ATLANTA_JOURNAL_500_PIT_STOP_CREW_&_DESR_YOUNG_DEJR_TAYLOR_90-EV-0577                        V     C        00:53:44:11 00:53:48:29 00:37:15:00 00:37:20:17 
M2      ERN_F3164_NSCR_1990-11-18_RACE_BROLL_ATLANTA_JOURNAL_500_PIT_STOP_CREW_&_DESR_YOUNG_DEJR_TAYLOR_90-EV-0577                                 024.0 00:53:44:11 
*FROM CLIP NAME:  ERN_F3164_NSCR_1990-11-18_RACE BROLL ATLANTA JOURNAL 500 PIT STOP CREW & DESR YOUNG DEJR TAYLOR_90-EV-0577.NEW.01 
*SOURCE FILE: ERN_F3164_NSCR_1990-11-18_RACE BROLL ATLANTA JOURNAL 500 PIT STOP CREW & DESR YOUNG DEJR TAYLOR_90-EV-0577
001754  ERN_F4944_NSCR_1986_PART_2_BANQUET_DIRTY__WINSTON_SCUP_NEW_YORK_BANQUET_TNN000675                                                 V     C        00:21:39:26 00:21:45:19 00:37:25:13 00:37:31:07 
M2      ERN_F4944_NSCR_1986_PART_2_BANQUET_DIRTY__WINSTON_SCUP_NEW_YORK_BANQUET_TNN000675                                                          030.0 00:21:39:26 
*FROM CLIP NAME:  ERN_F4944_NSCR_1986_PART 2 BANQUET DIRTY  WINSTON SCUP NEW YORK BANQUET_TNN000675.NEW.01 
*SOURCE FILE: ERN_F4944_NSCR_1986_PART 2 BANQUET DIRTY  WINSTON SCUP NEW YORK BANQUET_TNN000675
001755  ERN_F4943_NSCR_1986_PART_1_BANQUET_DIRTY__WINSTON_SCUP_NEW_YORK_BANQUET_TNN000674                                                 V     C        00:51:14:09 00:51:21:02 00:37:31:07 00:37:39:17 
M2      ERN_F4943_NSCR_1986_PART_1_BANQUET_DIRTY__WINSTON_SCUP_NEW_YORK_BANQUET_TNN000674                                                          024.0 00:51:14:09 
*FROM CLIP NAME:  ERN_F4943_NSCR_1986_PART 1 BANQUET DIRTY  WINSTON SCUP NEW YORK BANQUET_TNN000674.NEW.01 
*SOURCE FILE: ERN_F4943_NSCR_1986_PART 1 BANQUET DIRTY  WINSTON SCUP NEW YORK BANQUET_TNN000674
001756  ERN_F4944_NSCR_1986_PART_2_BANQUET_DIRTY__WINSTON_SCUP_NEW_YORK_BANQUET_TNN000675                                                 V     C        00:21:45:20 00:21:47:28 00:37:39:17 00:37:41:23 
M2      ERN_F4944_NSCR_1986_PART_2_BANQUET_DIRTY__WINSTON_SCUP_NEW_YORK_BANQUET_TNN000675                                                          030.0 00:21:45:20 
*FROM CLIP NAME:  ERN_F4944_NSCR_1986_PART 2 BANQUET DIRTY  WINSTON SCUP NEW YORK BANQUET_TNN000675.NEW.01 
*SOURCE FILE: ERN_F4944_NSCR_1986_PART 2 BANQUET DIRTY  WINSTON SCUP NEW YORK BANQUET_TNN000675
001757  ERN_F4944_NSCR_1986_PART_2_BANQUET_DIRTY__WINSTON_SCUP_NEW_YORK_BANQUET_TNN000675                                                 V     C        00:28:41:00 00:28:43:28 00:37:41:23 00:37:44:21 
M2      ERN_F4944_NSCR_1986_PART_2_BANQUET_DIRTY__WINSTON_SCUP_NEW_YORK_BANQUET_TNN000675                                                          030.0 00:28:41:00 
*FROM CLIP NAME:  ERN_F4944_NSCR_1986_PART 2 BANQUET DIRTY  WINSTON SCUP NEW YORK BANQUET_TNN000675.NEW.01 
*SOURCE FILE: ERN_F4944_NSCR_1986_PART 2 BANQUET DIRTY  WINSTON SCUP NEW YORK BANQUET_TNN000675
001758  ERN_F4944_NSCR_1986_PART_2_BANQUET_DIRTY__WINSTON_SCUP_NEW_YORK_BANQUET_TNN000675                                                 V     C        00:28:44:00 00:28:47:23 00:37:44:21 00:37:48:15 
M2      ERN_F4944_NSCR_1986_PART_2_BANQUET_DIRTY__WINSTON_SCUP_NEW_YORK_BANQUET_TNN000675                                                          030.0 00:28:44:00 
*FROM CLIP NAME:  ERN_F4944_NSCR_1986_PART 2 BANQUET DIRTY  WINSTON SCUP NEW YORK BANQUET_TNN000675.NEW.01 
*SOURCE FILE: ERN_F4944_NSCR_1986_PART 2 BANQUET DIRTY  WINSTON SCUP NEW YORK BANQUET_TNN000675
001759  ERN_F9515_NSCR_1992-11-25_INTV_RICHARD_PETTY_FAN_CRUISE_W_NED_JARRETT_SE001234_S002                                               A18   C        00:09:44:11 00:09:44:14 00:37:47:11 00:37:47:13 
M2      ERN_F9515_NSCR_1992-11-25_INTV_RICHARD_PETTY_FAN_CRUISE_W_NED_JARRETT_SE001234_S002                                                        030.0 00:09:44:11 
*FROM CLIP NAME:  ERN_F9515_NSCR_1992-11-25_INTV RICHARD PETTY FAN CRUISE W NED JARRETT_SE001234_S002.NEW.01 
*SOURCE FILE: ERN_F9515_NSCR_1992-11-25_INTV RICHARD PETTY FAN CRUISE W NED JARRETT_SE001234_S002
001760  ERN_F9515_NSCR_1992-11-25_INTV_RICHARD_PETTY_FAN_CRUISE_W_NED_JARRETT_SE001234_S002                                               A18   C        00:09:44:14 00:09:52:26 00:37:47:13 00:37:55:22 
M2      ERN_F9515_NSCR_1992-11-25_INTV_RICHARD_PETTY_FAN_CRUISE_W_NED_JARRETT_SE001234_S002                                                        030.0 00:09:44:14 
*FROM CLIP NAME:  ERN_F9515_NSCR_1992-11-25_INTV RICHARD PETTY FAN CRUISE W NED JARRETT_SE001234_S002.NEW.01 
*SOURCE FILE: ERN_F9515_NSCR_1992-11-25_INTV RICHARD PETTY FAN CRUISE W NED JARRETT_SE001234_S002
001761  ERN_F9515_NSCR_1992-11-25_INTV_RICHARD_PETTY_FAN_CRUISE_W_NED_JARRETT_SE001234_S002                                               V     C        00:09:45:16 00:09:49:13 00:37:48:15 00:37:52:12 
M2      ERN_F9515_NSCR_1992-11-25_INTV_RICHARD_PETTY_FAN_CRUISE_W_NED_JARRETT_SE001234_S002                                                        030.0 00:09:45:16 
*FROM CLIP NAME:  ERN_F9515_NSCR_1992-11-25_INTV RICHARD PETTY FAN CRUISE W NED JARRETT_SE001234_S002.NEW.01 
*SOURCE FILE: ERN_F9515_NSCR_1992-11-25_INTV RICHARD PETTY FAN CRUISE W NED JARRETT_SE001234_S002
001762  ERN_F0800_NSCR_1987-05-17_RACE_DESR_WINNER_BILL_ELLIOTT_CHARLOTTE_-_THE_WINSTON_87-EV-0287                                        A20   C        00:49:18:03 00:49:19:14 00:37:51:23 00:37:53:07 
M2      ERN_F0800_NSCR_1987-05-17_RACE_DESR_WINNER_BILL_ELLIOTT_CHARLOTTE_-_THE_WINSTON_87-EV-0287                                                 030.0 00:49:18:03 
*FROM CLIP NAME:  ERN_F0800_NSCR_1987-05-17_RACE DESR WINNER BILL ELLIOTT CHARLOTTE - THE WINSTON_87-EV-0287.NEW.01 
*SOURCE FILE: ERN_F0800_NSCR_1987-05-17_RACE DESR WINNER BILL ELLIOTT CHARLOTTE - THE WINSTON_87-EV-0287
001763  ERN_F0699_NSCR_1991-11-17_RACE_DESR_BILL_ELLIOTT_NASCAR_CUP_SERIES_-_ATLANTA_MILLER_GENUINE_DRAFT_50_1                            V     C        04:39:46:16 04:39:52:01 00:37:52:12 00:37:57:23 
M2      ERN_F0699_NSCR_1991-11-17_RACE_DESR_BILL_ELLIOTT_NASCAR_CUP_SERIES_-_ATLANTA_MILLER_GENUINE_DRAFT_50_1                                     030.0 04:39:46:16 
*FROM CLIP NAME:  ERN_F0699_NSCR_1991-11-17_RACE DESR BILL ELLIOTT NASCAR CUP SERIES - ATLANTA_MILLER_GENUINE_DRAFT_50_1.NEW.01 
*SOURCE FILE: ERN_F0699_NSCR_1991-11-17_RACE DESR BILL ELLIOTT NASCAR CUP SERIES - ATLANTA_MILLER_GENUINE_DRAFT_50_1
001764  ERN_F0800_NSCR_1987-05-17_RACE_DESR_WINNER_BILL_ELLIOTT_CHARLOTTE_-_THE_WINSTON_87-EV-0287                                        A20   C        00:49:19:13 00:49:29:08 00:37:53:07 00:38:03:02 
M2      ERN_F0800_NSCR_1987-05-17_RACE_DESR_WINNER_BILL_ELLIOTT_CHARLOTTE_-_THE_WINSTON_87-EV-0287                                                 030.0 00:49:19:13 
*FROM CLIP NAME:  ERN_F0800_NSCR_1987-05-17_RACE DESR WINNER BILL ELLIOTT CHARLOTTE - THE WINSTON_87-EV-0287.NEW.01 
*SOURCE FILE: ERN_F0800_NSCR_1987-05-17_RACE DESR WINNER BILL ELLIOTT CHARLOTTE - THE WINSTON_87-EV-0287
001765  ERN_F8824_NASX_1995-02-19_RACE_BROADCAST_DAYTONA_500_YOUTUBE                                                                      A18   C        03:18:40:22 03:18:40:28 00:37:57:10 00:37:57:14 
M2      ERN_F8824_NASX_1995-02-19_RACE_BROADCAST_DAYTONA_500_YOUTUBE                                                                               030.0 03:18:40:22 
*FROM CLIP NAME:  ERN_F8824_NASX_1995-02-19_RACE BROADCAST DAYTONA 500_YOUTUBE.NEW.02 
*SOURCE FILE: ERN_F8824_NASX_1995-02-19_RACE BROADCAST DAYTONA 500_YOUTUBE
001766  ERN_F8824_NASX_1995-02-19_RACE_BROADCAST_DAYTONA_500_YOUTUBE                                                                      A18   C        03:18:40:27 03:18:41:15 00:37:57:14 00:37:58:04 
M2      ERN_F8824_NASX_1995-02-19_RACE_BROADCAST_DAYTONA_500_YOUTUBE                                                                               030.0 03:18:40:27 
*FROM CLIP NAME:  ERN_F8824_NASX_1995-02-19_RACE BROADCAST DAYTONA 500_YOUTUBE.NEW.02 
*SOURCE FILE: ERN_F8824_NASX_1995-02-19_RACE BROADCAST DAYTONA 500_YOUTUBE
001767  ERN_F0699_NSCR_1991-11-17_RACE_DESR_BILL_ELLIOTT_NASCAR_CUP_SERIES_-_ATLANTA_MILLER_GENUINE_DRAFT_50_1                            V     C        04:49:36:03 04:49:42:15 00:37:57:23 00:38:04:08 
M2      ERN_F0699_NSCR_1991-11-17_RACE_DESR_BILL_ELLIOTT_NASCAR_CUP_SERIES_-_ATLANTA_MILLER_GENUINE_DRAFT_50_1                                     030.0 04:49:36:03 
*FROM CLIP NAME:  ERN_F0699_NSCR_1991-11-17_RACE DESR BILL ELLIOTT NASCAR CUP SERIES - ATLANTA_MILLER_GENUINE_DRAFT_50_1.NEW.01 
*SOURCE FILE: ERN_F0699_NSCR_1991-11-17_RACE DESR BILL ELLIOTT NASCAR CUP SERIES - ATLANTA_MILLER_GENUINE_DRAFT_50_1
001768  ERN_F8824_NASX_1995-02-19_RACE_BROADCAST_DAYTONA_500_YOUTUBE                                                                      A18   C        00:03:24:23 00:03:24:29 00:37:58:15 00:37:58:19 
M2      ERN_F8824_NASX_1995-02-19_RACE_BROADCAST_DAYTONA_500_YOUTUBE                                                                               030.0 00:03:24:23 
*FROM CLIP NAME:  ERN_F8824_NASX_1995-02-19_RACE BROADCAST DAYTONA 500_YOUTUBE.NEW.02 
*SOURCE FILE: ERN_F8824_NASX_1995-02-19_RACE BROADCAST DAYTONA 500_YOUTUBE
001769  ERN_F8824_NASX_1995-02-19_RACE_BROADCAST_DAYTONA_500_YOUTUBE                                                                      A18   C        00:03:24:28 00:03:26:05 00:37:58:19 00:38:00:00 
M2      ERN_F8824_NASX_1995-02-19_RACE_BROADCAST_DAYTONA_500_YOUTUBE                                                                               030.0 00:03:24:28 
*FROM CLIP NAME:  ERN_F8824_NASX_1995-02-19_RACE BROADCAST DAYTONA 500_YOUTUBE.NEW.02 
*SOURCE FILE: ERN_F8824_NASX_1995-02-19_RACE BROADCAST DAYTONA 500_YOUTUBE
001770  ERN_F8824_NASX_1995-02-19_RACE_BROADCAST_DAYTONA_500_YOUTUBE                                                                      A18   C        03:29:31:15 03:29:31:19 00:38:00:06 00:38:00:09 
M2      ERN_F8824_NASX_1995-02-19_RACE_BROADCAST_DAYTONA_500_YOUTUBE                                                                               030.0 03:29:31:15 
*FROM CLIP NAME:  ERN_F8824_NASX_1995-02-19_RACE BROADCAST DAYTONA 500_YOUTUBE.NEW.02 
*SOURCE FILE: ERN_F8824_NASX_1995-02-19_RACE BROADCAST DAYTONA 500_YOUTUBE
001771  ERN_F8824_NASX_1995-02-19_RACE_BROADCAST_DAYTONA_500_YOUTUBE                                                                      A18   C        03:29:31:18 03:29:32:10 00:38:00:09 00:38:01:02 
M2      ERN_F8824_NASX_1995-02-19_RACE_BROADCAST_DAYTONA_500_YOUTUBE                                                                               030.0 03:29:31:18 
*FROM CLIP NAME:  ERN_F8824_NASX_1995-02-19_RACE BROADCAST DAYTONA 500_YOUTUBE.NEW.02 
*SOURCE FILE: ERN_F8824_NASX_1995-02-19_RACE BROADCAST DAYTONA 500_YOUTUBE
001772  ERN_A0061_NSCR_1990_RACE_MOTOR_RACING_NETWORK_ATLANTA_JOURNAL_T1371842818844.WAV                                                  A18   C        01:23:28:17 01:23:28:23 00:38:02:07 00:38:02:13 
*FROM CLIP NAME:  ERN_A0061_NSCR_1990_RACE MOTOR RACING NETWORK ATLANTA JOURNAL_T1371842818844.WAV 
*SOURCE FILE: ERN_A0061_NSCR_1990_RACE MOTOR RACING NETWORK ATLANTA JOURNAL_T1371842818844.WAV
001773  ERN_A0061_NSCR_1990_RACE_MOTOR_RACING_NETWORK_ATLANTA_JOURNAL_T1371842818844.WAV                                                  A18   C        01:23:28:23 01:23:29:02 00:38:02:13 00:38:02:16 
*FROM CLIP NAME:  ERN_A0061_NSCR_1990_RACE MOTOR RACING NETWORK ATLANTA JOURNAL_T1371842818844.WAV 
*SOURCE FILE: ERN_A0061_NSCR_1990_RACE MOTOR RACING NETWORK ATLANTA JOURNAL_T1371842818844.WAV
001774  ERN_A0061_NSCR_1990_RACE_MOTOR_RACING_NETWORK_ATLANTA_JOURNAL_T1371842818844.WAV                                                  A18   C        01:23:29:21 01:23:29:22 00:38:02:16 00:38:02:17 
*FROM CLIP NAME:  ERN_A0061_NSCR_1990_RACE MOTOR RACING NETWORK ATLANTA JOURNAL_T1371842818844.WAV 
*TO CLIP NAME:  ERN_A0061_NSCR_1990_RACE MOTOR RACING NETWORK ATLANTA JOURNAL_T1371842818844.WAV 
*SOURCE FILE: ERN_A0061_NSCR_1990_RACE MOTOR RACING NETWORK ATLANTA JOURNAL_T1371842818844.WAV
001775  ERN_A0061_NSCR_1990_RACE_MOTOR_RACING_NETWORK_ATLANTA_JOURNAL_T1371842818844.WAV                                                  A18   C        01:23:29:22 01:23:30:01 00:38:02:17 00:38:02:20 
*FROM CLIP NAME:  ERN_A0061_NSCR_1990_RACE MOTOR RACING NETWORK ATLANTA JOURNAL_T1371842818844.WAV 
*SOURCE FILE: ERN_A0061_NSCR_1990_RACE MOTOR RACING NETWORK ATLANTA JOURNAL_T1371842818844.WAV
001776  ERN_A0061_NSCR_1990_RACE_MOTOR_RACING_NETWORK_ATLANTA_JOURNAL_T1371842818844.WAV                                                  A18   C        01:23:32:21 01:23:32:23 00:38:02:20 00:38:02:22 
*FROM CLIP NAME:  ERN_A0061_NSCR_1990_RACE MOTOR RACING NETWORK ATLANTA JOURNAL_T1371842818844.WAV 
*TO CLIP NAME:  ERN_A0061_NSCR_1990_RACE MOTOR RACING NETWORK ATLANTA JOURNAL_T1371842818844.WAV 
*SOURCE FILE: ERN_A0061_NSCR_1990_RACE MOTOR RACING NETWORK ATLANTA JOURNAL_T1371842818844.WAV
001777  ERN_A0061_NSCR_1990_RACE_MOTOR_RACING_NETWORK_ATLANTA_JOURNAL_T1371842818844.WAV                                                  A18   C        01:23:32:23 01:23:33:12 00:38:02:22 00:38:03:11 
*FROM CLIP NAME:  ERN_A0061_NSCR_1990_RACE MOTOR RACING NETWORK ATLANTA JOURNAL_T1371842818844.WAV 
*SOURCE FILE: ERN_A0061_NSCR_1990_RACE MOTOR RACING NETWORK ATLANTA JOURNAL_T1371842818844.WAV
001778  ERN_A0061_NSCR_1990_RACE_MOTOR_RACING_NETWORK_ATLANTA_JOURNAL_T1371842818844.WAV                                                  A18   C        01:23:34:04 01:23:34:06 00:38:03:11 00:38:03:13 
*FROM CLIP NAME:  ERN_A0061_NSCR_1990_RACE MOTOR RACING NETWORK ATLANTA JOURNAL_T1371842818844.WAV 
*TO CLIP NAME:  ERN_A0061_NSCR_1990_RACE MOTOR RACING NETWORK ATLANTA JOURNAL_T1371842818844.WAV 
*SOURCE FILE: ERN_A0061_NSCR_1990_RACE MOTOR RACING NETWORK ATLANTA JOURNAL_T1371842818844.WAV
001779  ERN_A0061_NSCR_1990_RACE_MOTOR_RACING_NETWORK_ATLANTA_JOURNAL_T1371842818844.WAV                                                  A18   C        01:23:34:06 01:23:38:20 00:38:03:13 00:38:08:03 
*FROM CLIP NAME:  ERN_A0061_NSCR_1990_RACE MOTOR RACING NETWORK ATLANTA JOURNAL_T1371842818844.WAV 
*SOURCE FILE: ERN_A0061_NSCR_1990_RACE MOTOR RACING NETWORK ATLANTA JOURNAL_T1371842818844.WAV
001780  ERN_F3326_NSCR_1991-11-17_ATLANTA_HARDEES_500-DESR_NO3_WINNER_CELEBRATION_VICTORY_LANE_TERESA_TAYLOR_LGP03386                     V     C        09:13:27:00 09:13:37:07 00:38:04:08 00:38:14:13 
M2      ERN_F3326_NSCR_1991-11-17_ATLANTA_HARDEES_500-DESR_NO3_WINNER_CELEBRATION_VICTORY_LANE_TERESA_TAYLOR_LGP03386                              030.0 09:13:27:00 
*FROM CLIP NAME:  ERN_F3326_NSCR_1991-11-17_ATLANTA HARDEES 500-DESR NO3 WINNER CELEBRATION VICTORY LANE TERESA TAYLOR_LGP03386.NEW.01 
*SOURCE FILE: ERN_F3326_NSCR_1991-11-17_ATLANTA HARDEES 500-DESR NO3 WINNER CELEBRATION VICTORY LANE TERESA TAYLOR_LGP03386
001781  ERN_F3508_NSCR_1991-11-17_RACE_B-ROLL_INTV_ATLANTA_HARDEES_500_DESR_NO5_WINSTON_CHAMPIONSHIP_VICTORY_LANE_LGP03390                V     C        03:16:10:19 03:16:19:04 00:38:14:13 00:38:23:01 
M2      ERN_F3508_NSCR_1991-11-17_RACE_B-ROLL_INTV_ATLANTA_HARDEES_500_DESR_NO5_WINSTON_CHAMPIONSHIP_VICTORY_LANE_LGP03390                         030.0 03:16:10:19 
*FROM CLIP NAME:  ERN_F3508_NSCR_1991-11-17_RACE B-ROLL INTV ATLANTA HARDEES 500 DESR NO5 WINSTON CHAMPIONSHIP VICTORY LANE_LGP03390.NEW.01 
*SOURCE FILE: ERN_F3508_NSCR_1991-11-17_RACE B-ROLL INTV ATLANTA HARDEES 500 DESR NO5 WINSTON CHAMPIONSHIP VICTORY LANE_LGP03390
001782  ERN_F0800_NSCR_1987-05-17_RACE_DESR_WINNER_BILL_ELLIOTT_CHARLOTTE_-_THE_WINSTON_87-EV-0287                                        A20   C        00:47:59:18 00:48:03:21 00:38:21:00 00:38:25:00 
M2      ERN_F0800_NSCR_1987-05-17_RACE_DESR_WINNER_BILL_ELLIOTT_CHARLOTTE_-_THE_WINSTON_87-EV-0287                                                 030.0 00:47:59:18 
*FROM CLIP NAME:  ERN_F0800_NSCR_1987-05-17_RACE DESR WINNER BILL ELLIOTT CHARLOTTE - THE WINSTON_87-EV-0287.NEW.01 
*SOURCE FILE: ERN_F0800_NSCR_1987-05-17_RACE DESR WINNER BILL ELLIOTT CHARLOTTE - THE WINSTON_87-EV-0287
001783  ERN_F4202_NSCR_1989-10-15_NORTH_WILKESBORO-HOLLY_FARMS_400_RACE_B-ROLL_89-EV-0526                                                 A18   C        00:19:14:00 00:19:14:21 00:38:22:15 00:38:23:07 
M2      ERN_F4202_NSCR_1989-10-15_NORTH_WILKESBORO-HOLLY_FARMS_400_RACE_B-ROLL_89-EV-0526                                                          030.0 00:19:14:00 
*FROM CLIP NAME:  ERN_F4202_NSCR_1989-10-15_NORTH WILKESBORO-HOLLY FARMS 400 RACE B-ROLL_89-EV-0526.NEW.01 
*SOURCE FILE: ERN_F4202_NSCR_1989-10-15_NORTH WILKESBORO-HOLLY FARMS 400 RACE B-ROLL_89-EV-0526
001784  ERN_F4202_NSCR_1989-10-15_NORTH_WILKESBORO-HOLLY_FARMS_400_RACE_B-ROLL_89-EV-0526                                                 V     C        00:19:14:01 00:19:18:23 00:38:23:01 00:38:28:00 
M2      ERN_F4202_NSCR_1989-10-15_NORTH_WILKESBORO-HOLLY_FARMS_400_RACE_B-ROLL_89-EV-0526                                                          028.5 00:19:14:01 
*FROM CLIP NAME:  ERN_F4202_NSCR_1989-10-15_NORTH WILKESBORO-HOLLY FARMS 400 RACE B-ROLL_89-EV-0526.NEW.01 
*SOURCE FILE: ERN_F4202_NSCR_1989-10-15_NORTH WILKESBORO-HOLLY FARMS 400 RACE B-ROLL_89-EV-0526
001785  ERN_F4202_NSCR_1989-10-15_NORTH_WILKESBORO-HOLLY_FARMS_400_RACE_B-ROLL_89-EV-0526                                                 A18   C        00:19:14:20 00:19:18:03 00:38:23:07 00:38:26:17 
M2      ERN_F4202_NSCR_1989-10-15_NORTH_WILKESBORO-HOLLY_FARMS_400_RACE_B-ROLL_89-EV-0526                                                          030.0 00:19:14:20 
*FROM CLIP NAME:  ERN_F4202_NSCR_1989-10-15_NORTH WILKESBORO-HOLLY FARMS 400 RACE B-ROLL_89-EV-0526.NEW.01 
*SOURCE FILE: ERN_F4202_NSCR_1989-10-15_NORTH WILKESBORO-HOLLY FARMS 400 RACE B-ROLL_89-EV-0526
001786  ERN_F0800_NSCR_1987-05-17_RACE_DESR_WINNER_BILL_ELLIOTT_CHARLOTTE_-_THE_WINSTON_87-EV-0287                                        A20   C        00:48:03:20 00:48:05:16 00:38:25:00 00:38:26:20 
M2      ERN_F0800_NSCR_1987-05-17_RACE_DESR_WINNER_BILL_ELLIOTT_CHARLOTTE_-_THE_WINSTON_87-EV-0287                                                 030.0 00:48:03:20 
*FROM CLIP NAME:  ERN_F0800_NSCR_1987-05-17_RACE DESR WINNER BILL ELLIOTT CHARLOTTE - THE WINSTON_87-EV-0287.NEW.01 
*SOURCE FILE: ERN_F0800_NSCR_1987-05-17_RACE DESR WINNER BILL ELLIOTT CHARLOTTE - THE WINSTON_87-EV-0287
001787  ERN_F0800_NSCR_1987-05-17_RACE_DESR_WINNER_BILL_ELLIOTT_CHARLOTTE_-_THE_WINSTON_87-EV-0287                                        A20   C        00:48:05:15 00:48:07:16 00:38:26:20 00:38:28:20 
M2      ERN_F0800_NSCR_1987-05-17_RACE_DESR_WINNER_BILL_ELLIOTT_CHARLOTTE_-_THE_WINSTON_87-EV-0287                                                 030.0 00:48:05:15 
*FROM CLIP NAME:  ERN_F0800_NSCR_1987-05-17_RACE DESR WINNER BILL ELLIOTT CHARLOTTE - THE WINSTON_87-EV-0287.NEW.01 
*TO CLIP NAME:  ERN_F0800_NSCR_1987-05-17_RACE DESR WINNER BILL ELLIOTT CHARLOTTE - THE WINSTON_87-EV-0287.NEW.01 
*SOURCE FILE: ERN_F0800_NSCR_1987-05-17_RACE DESR WINNER BILL ELLIOTT CHARLOTTE - THE WINSTON_87-EV-0287
001788  ERN_F1072_NSCR_1990S_B-ROLL_NEIL_BONNETT_IN_GARAGE_TELLING_DEER_STORY_100                                                         A22   C        00:09:50:07 00:09:51:23 00:38:27:00 00:38:28:12 
M2      ERN_F1072_NSCR_1990S_B-ROLL_NEIL_BONNETT_IN_GARAGE_TELLING_DEER_STORY_100                                                                  030.0 00:09:50:07 
*FROM CLIP NAME:  ERN_F1072_NSCR_1990S_B-ROLL NEIL BONNETT IN GARAGE TELLING DEER STORY_100.NEW.01 
*SOURCE FILE: ERN_F1072_NSCR_1990S_B-ROLL NEIL BONNETT IN GARAGE TELLING DEER STORY_100
001789  ERN_F1072_NSCR_1990S_B-ROLL_NEIL_BONNETT_IN_GARAGE_TELLING_DEER_STORY_100                                                         V     C        00:09:33:11 00:09:45:15 00:38:28:00 00:38:40:03 
M2      ERN_F1072_NSCR_1990S_B-ROLL_NEIL_BONNETT_IN_GARAGE_TELLING_DEER_STORY_100                                                                  030.0 00:09:33:11 
*FROM CLIP NAME:  ERN_F1072_NSCR_1990S_B-ROLL NEIL BONNETT IN GARAGE TELLING DEER STORY_100.NEW.01 
*SOURCE FILE: ERN_F1072_NSCR_1990S_B-ROLL NEIL BONNETT IN GARAGE TELLING DEER STORY_100
001790  ERN_F1072_NSCR_1990S_B-ROLL_NEIL_BONNETT_IN_GARAGE_TELLING_DEER_STORY_100                                                         A22   C        00:09:51:22 00:09:54:01 00:38:28:12 00:38:30:19 
M2      ERN_F1072_NSCR_1990S_B-ROLL_NEIL_BONNETT_IN_GARAGE_TELLING_DEER_STORY_100                                                                  030.0 00:09:51:22 
*FROM CLIP NAME:  ERN_F1072_NSCR_1990S_B-ROLL NEIL BONNETT IN GARAGE TELLING DEER STORY_100.NEW.01 
*SOURCE FILE: ERN_F1072_NSCR_1990S_B-ROLL NEIL BONNETT IN GARAGE TELLING DEER STORY_100
001791  ERN_F0800_NSCR_1987-05-17_RACE_DESR_WINNER_BILL_ELLIOTT_CHARLOTTE_-_THE_WINSTON_87-EV-0287                                        A20   C        00:48:07:15 00:48:09:15 00:38:28:20 00:38:30:19 
M2      ERN_F0800_NSCR_1987-05-17_RACE_DESR_WINNER_BILL_ELLIOTT_CHARLOTTE_-_THE_WINSTON_87-EV-0287                                                 030.0 00:48:07:15 
*FROM CLIP NAME:  ERN_F0800_NSCR_1987-05-17_RACE DESR WINNER BILL ELLIOTT CHARLOTTE - THE WINSTON_87-EV-0287.NEW.01 
*SOURCE FILE: ERN_F0800_NSCR_1987-05-17_RACE DESR WINNER BILL ELLIOTT CHARLOTTE - THE WINSTON_87-EV-0287
001792  ERN_F0800_NSCR_1987-05-17_RACE_DESR_WINNER_BILL_ELLIOTT_CHARLOTTE_-_THE_WINSTON_87-EV-0287                                        A20   C        00:48:09:14 00:48:11:00 00:38:30:19 00:38:32:07 
M2      ERN_F0800_NSCR_1987-05-17_RACE_DESR_WINNER_BILL_ELLIOTT_CHARLOTTE_-_THE_WINSTON_87-EV-0287                                                 030.0 00:48:09:14 
*FROM CLIP NAME:  ERN_F0800_NSCR_1987-05-17_RACE DESR WINNER BILL ELLIOTT CHARLOTTE - THE WINSTON_87-EV-0287.NEW.01 
*TO CLIP NAME:  ERN_F0800_NSCR_1987-05-17_RACE DESR WINNER BILL ELLIOTT CHARLOTTE - THE WINSTON_87-EV-0287.NEW.01 
*SOURCE FILE: ERN_F0800_NSCR_1987-05-17_RACE DESR WINNER BILL ELLIOTT CHARLOTTE - THE WINSTON_87-EV-0287
001793  ERN_F1072_NSCR_1990S_B-ROLL_NEIL_BONNETT_IN_GARAGE_TELLING_DEER_STORY_100                                                         A22   C        00:09:54:01 00:09:55:16 00:38:30:19 00:38:32:07 
M2      ERN_F1072_NSCR_1990S_B-ROLL_NEIL_BONNETT_IN_GARAGE_TELLING_DEER_STORY_100                                                                  030.0 00:09:54:01 
*FROM CLIP NAME:  ERN_F1072_NSCR_1990S_B-ROLL NEIL BONNETT IN GARAGE TELLING DEER STORY_100.NEW.01 
*TO CLIP NAME:  ERN_F1072_NSCR_1990S_B-ROLL NEIL BONNETT IN GARAGE TELLING DEER STORY_100.NEW.01 
*SOURCE FILE: ERN_F1072_NSCR_1990S_B-ROLL NEIL BONNETT IN GARAGE TELLING DEER STORY_100
001794  ERN_F9389_NSCR_1990-07-27_CAM_A_INTV_NEIL_BONNETT__90-EV-0598                                                                     A18   C        00:04:41:17 00:04:43:28 00:38:31:17 00:38:34:01 
M2      ERN_F9389_NSCR_1990-07-27_CAM_A_INTV_NEIL_BONNETT__90-EV-0598                                                                              030.0 00:04:41:17 
*FROM CLIP NAME:  ERN_F9389_NSCR_1990-07-27_CAM A INTV NEIL BONNETT _90-EV-0598.NEW.01 
*SOURCE FILE: ERN_F9389_NSCR_1990-07-27_CAM A INTV NEIL BONNETT _90-EV-0598
001795  ERN_F0800_NSCR_1987-05-17_RACE_DESR_WINNER_BILL_ELLIOTT_CHARLOTTE_-_THE_WINSTON_87-EV-0287                                        A20   C        00:48:10:29 00:48:13:12 00:38:32:07 00:38:34:17 
M2      ERN_F0800_NSCR_1987-05-17_RACE_DESR_WINNER_BILL_ELLIOTT_CHARLOTTE_-_THE_WINSTON_87-EV-0287                                                 030.0 00:48:10:29 
*FROM CLIP NAME:  ERN_F0800_NSCR_1987-05-17_RACE DESR WINNER BILL ELLIOTT CHARLOTTE - THE WINSTON_87-EV-0287.NEW.01 
*SOURCE FILE: ERN_F0800_NSCR_1987-05-17_RACE DESR WINNER BILL ELLIOTT CHARLOTTE - THE WINSTON_87-EV-0287
001796  ERN_F1072_NSCR_1990S_B-ROLL_NEIL_BONNETT_IN_GARAGE_TELLING_DEER_STORY_100                                                         A22   C        00:09:55:16 00:09:59:00 00:38:32:07 00:38:35:18 
M2      ERN_F1072_NSCR_1990S_B-ROLL_NEIL_BONNETT_IN_GARAGE_TELLING_DEER_STORY_100                                                                  030.0 00:09:55:16 
*FROM CLIP NAME:  ERN_F1072_NSCR_1990S_B-ROLL NEIL BONNETT IN GARAGE TELLING DEER STORY_100.NEW.01 
*SOURCE FILE: ERN_F1072_NSCR_1990S_B-ROLL NEIL BONNETT IN GARAGE TELLING DEER STORY_100
001797  ERN_F9389_NSCR_1990-07-27_CAM_A_INTV_NEIL_BONNETT__90-EV-0598                                                                     A18   C        00:04:55:15 00:04:56:28 00:38:34:10 00:38:35:20 
M2      ERN_F9389_NSCR_1990-07-27_CAM_A_INTV_NEIL_BONNETT__90-EV-0598                                                                              030.0 00:04:55:15 
*FROM CLIP NAME:  ERN_F9389_NSCR_1990-07-27_CAM A INTV NEIL BONNETT _90-EV-0598.NEW.01 
*SOURCE FILE: ERN_F9389_NSCR_1990-07-27_CAM A INTV NEIL BONNETT _90-EV-0598
001798  ERN_F1072_NSCR_1990S_B-ROLL_NEIL_BONNETT_IN_GARAGE_TELLING_DEER_STORY_100                                                         A22   C        00:10:00:01 00:10:01:01 00:38:35:18 00:38:36:18 
M2      ERN_F1072_NSCR_1990S_B-ROLL_NEIL_BONNETT_IN_GARAGE_TELLING_DEER_STORY_100                                                                  030.0 00:10:00:01 
*FROM CLIP NAME:  ERN_F1072_NSCR_1990S_B-ROLL NEIL BONNETT IN GARAGE TELLING DEER STORY_100.NEW.01 
*TO CLIP NAME:  ERN_F1072_NSCR_1990S_B-ROLL NEIL BONNETT IN GARAGE TELLING DEER STORY_100.NEW.01 
*SOURCE FILE: ERN_F1072_NSCR_1990S_B-ROLL NEIL BONNETT IN GARAGE TELLING DEER STORY_100
001799  ERN_F1072_NSCR_1990S_B-ROLL_NEIL_BONNETT_IN_GARAGE_TELLING_DEER_STORY_100                                                         A22   C        00:10:01:01 00:10:09:16 00:38:36:18 00:38:45:06 
M2      ERN_F1072_NSCR_1990S_B-ROLL_NEIL_BONNETT_IN_GARAGE_TELLING_DEER_STORY_100                                                                  030.0 00:10:01:01 
*FROM CLIP NAME:  ERN_F1072_NSCR_1990S_B-ROLL NEIL BONNETT IN GARAGE TELLING DEER STORY_100.NEW.01 
*SOURCE FILE: ERN_F1072_NSCR_1990S_B-ROLL NEIL BONNETT IN GARAGE TELLING DEER STORY_100
001800  ERN_F9389_NSCR_1990-07-27_CAM_A_INTV_NEIL_BONNETT__90-EV-0598                                                                     A18   C        00:05:02:12 00:05:07:06 00:38:37:12 00:38:42:07 
M2      ERN_F9389_NSCR_1990-07-27_CAM_A_INTV_NEIL_BONNETT__90-EV-0598                                                                              030.0 00:05:02:12 
*FROM CLIP NAME:  ERN_F9389_NSCR_1990-07-27_CAM A INTV NEIL BONNETT _90-EV-0598.NEW.01 
*SOURCE FILE: ERN_F9389_NSCR_1990-07-27_CAM A INTV NEIL BONNETT _90-EV-0598
001801  ERN_F1072_NSCR_1990S_B-ROLL_NEIL_BONNETT_IN_GARAGE_TELLING_DEER_STORY_100                                                         V     C        00:10:16:02 00:10:24:16 00:38:40:03 00:38:48:14 
M2      ERN_F1072_NSCR_1990S_B-ROLL_NEIL_BONNETT_IN_GARAGE_TELLING_DEER_STORY_100                                                                  030.0 00:10:16:02 
*FROM CLIP NAME:  ERN_F1072_NSCR_1990S_B-ROLL NEIL BONNETT IN GARAGE TELLING DEER STORY_100.NEW.01 
*SOURCE FILE: ERN_F1072_NSCR_1990S_B-ROLL NEIL BONNETT IN GARAGE TELLING DEER STORY_100
001802  ERN_F1072_NSCR_1990S_B-ROLL_NEIL_BONNETT_IN_GARAGE_TELLING_DEER_STORY_100                                                         A20   C        00:10:17:16 00:10:18:16 00:38:41:14 00:38:42:14 
M2      ERN_F1072_NSCR_1990S_B-ROLL_NEIL_BONNETT_IN_GARAGE_TELLING_DEER_STORY_100                                                                  030.0 00:10:17:16 
*FROM CLIP NAME:  ERN_F1072_NSCR_1990S_B-ROLL NEIL BONNETT IN GARAGE TELLING DEER STORY_100.NEW.01 
*SOURCE FILE: ERN_F1072_NSCR_1990S_B-ROLL NEIL BONNETT IN GARAGE TELLING DEER STORY_100
001803  ERN_F9389_NSCR_1990-07-27_CAM_A_INTV_NEIL_BONNETT__90-EV-0598                                                                     A18   C        00:05:11:22 00:05:11:25 00:38:42:07 00:38:42:09 
M2      ERN_F9389_NSCR_1990-07-27_CAM_A_INTV_NEIL_BONNETT__90-EV-0598                                                                              030.0 00:05:11:22 
*FROM CLIP NAME:  ERN_F9389_NSCR_1990-07-27_CAM A INTV NEIL BONNETT _90-EV-0598.NEW.01 
*TO CLIP NAME:  ERN_F9389_NSCR_1990-07-27_CAM A INTV NEIL BONNETT _90-EV-0598.NEW.01 
*SOURCE FILE: ERN_F9389_NSCR_1990-07-27_CAM A INTV NEIL BONNETT _90-EV-0598
001804  ERN_F9389_NSCR_1990-07-27_CAM_A_INTV_NEIL_BONNETT__90-EV-0598                                                                     A18   C        00:05:11:24 00:05:14:04 00:38:42:09 00:38:44:16 
M2      ERN_F9389_NSCR_1990-07-27_CAM_A_INTV_NEIL_BONNETT__90-EV-0598                                                                              030.0 00:05:11:24 
*FROM CLIP NAME:  ERN_F9389_NSCR_1990-07-27_CAM A INTV NEIL BONNETT _90-EV-0598.NEW.01 
*SOURCE FILE: ERN_F9389_NSCR_1990-07-27_CAM A INTV NEIL BONNETT _90-EV-0598
001805  ERN_F1072_NSCR_1990S_B-ROLL_NEIL_BONNETT_IN_GARAGE_TELLING_DEER_STORY_100                                                         A20   C        00:10:18:16 00:10:23:00 00:38:42:14 00:38:47:01 
M2      ERN_F1072_NSCR_1990S_B-ROLL_NEIL_BONNETT_IN_GARAGE_TELLING_DEER_STORY_100                                                                  030.0 00:10:18:16 
*FROM CLIP NAME:  ERN_F1072_NSCR_1990S_B-ROLL NEIL BONNETT IN GARAGE TELLING DEER STORY_100.NEW.01 
*SOURCE FILE: ERN_F1072_NSCR_1990S_B-ROLL NEIL BONNETT IN GARAGE TELLING DEER STORY_100
001806  ERN_F9389_NSCR_1990-07-27_CAM_A_INTV_NEIL_BONNETT__90-EV-0598                                                                     A18   C        00:05:59:01 00:05:59:04 00:38:46:07 00:38:46:09 
M2      ERN_F9389_NSCR_1990-07-27_CAM_A_INTV_NEIL_BONNETT__90-EV-0598                                                                              030.0 00:05:59:01 
*FROM CLIP NAME:  ERN_F9389_NSCR_1990-07-27_CAM A INTV NEIL BONNETT _90-EV-0598.NEW.01 
*SOURCE FILE: ERN_F9389_NSCR_1990-07-27_CAM A INTV NEIL BONNETT _90-EV-0598
001807  ERN_F9389_NSCR_1990-07-27_CAM_A_INTV_NEIL_BONNETT__90-EV-0598                                                                     A18   C        00:05:59:03 00:06:00:18 00:38:46:09 00:38:47:19 
M2      ERN_F9389_NSCR_1990-07-27_CAM_A_INTV_NEIL_BONNETT__90-EV-0598                                                                              030.0 00:05:59:03 
*FROM CLIP NAME:  ERN_F9389_NSCR_1990-07-27_CAM A INTV NEIL BONNETT _90-EV-0598.NEW.01 
*SOURCE FILE: ERN_F9389_NSCR_1990-07-27_CAM A INTV NEIL BONNETT _90-EV-0598
001808  ERN_F1072_NSCR_1990S_B-ROLL_NEIL_BONNETT_IN_GARAGE_TELLING_DEER_STORY_100                                                         A24   C        00:09:28:28 00:09:30:29 00:38:47:02 00:38:49:02 
M2      ERN_F1072_NSCR_1990S_B-ROLL_NEIL_BONNETT_IN_GARAGE_TELLING_DEER_STORY_100                                                                  030.0 00:09:28:28 
*FROM CLIP NAME:  ERN_F1072_NSCR_1990S_B-ROLL NEIL BONNETT IN GARAGE TELLING DEER STORY_100.NEW.01 
*SOURCE FILE: ERN_F1072_NSCR_1990S_B-ROLL NEIL BONNETT IN GARAGE TELLING DEER STORY_100
001809  ERN_F1072_NSCR_1990S_B-ROLL_NEIL_BONNETT_IN_GARAGE_TELLING_DEER_STORY_100                                                         V     C        00:08:03:17 00:08:06:11 00:38:48:14 00:38:51:08 
M2      ERN_F1072_NSCR_1990S_B-ROLL_NEIL_BONNETT_IN_GARAGE_TELLING_DEER_STORY_100                                                                  030.0 00:08:03:17 
*FROM CLIP NAME:  ERN_F1072_NSCR_1990S_B-ROLL NEIL BONNETT IN GARAGE TELLING DEER STORY_100.NEW.01 
*SOURCE FILE: ERN_F1072_NSCR_1990S_B-ROLL NEIL BONNETT IN GARAGE TELLING DEER STORY_100
001810  ERN_F9389_NSCR_1990-07-27_CAM_A_INTV_NEIL_BONNETT__90-EV-0598                                                                     A18   C        00:06:08:08 00:06:08:13 00:38:48:21 00:38:49:01 
M2      ERN_F9389_NSCR_1990-07-27_CAM_A_INTV_NEIL_BONNETT__90-EV-0598                                                                              030.0 00:06:08:08 
*FROM CLIP NAME:  ERN_F9389_NSCR_1990-07-27_CAM A INTV NEIL BONNETT _90-EV-0598.NEW.01 
*SOURCE FILE: ERN_F9389_NSCR_1990-07-27_CAM A INTV NEIL BONNETT _90-EV-0598
001811  ERN_F9389_NSCR_1990-07-27_CAM_A_INTV_NEIL_BONNETT__90-EV-0598                                                                     A18   C        00:06:08:13 00:06:11:06 00:38:49:01 00:38:51:19 
M2      ERN_F9389_NSCR_1990-07-27_CAM_A_INTV_NEIL_BONNETT__90-EV-0598                                                                              030.0 00:06:08:13 
*FROM CLIP NAME:  ERN_F9389_NSCR_1990-07-27_CAM A INTV NEIL BONNETT _90-EV-0598.NEW.01 
*SOURCE FILE: ERN_F9389_NSCR_1990-07-27_CAM A INTV NEIL BONNETT _90-EV-0598
001812  ERN_F1072_NSCR_1990S_B-ROLL_NEIL_BONNETT_IN_GARAGE_TELLING_DEER_STORY_100                                                         A24   C        00:09:30:28 00:09:33:03 00:38:49:02 00:38:51:05 
M2      ERN_F1072_NSCR_1990S_B-ROLL_NEIL_BONNETT_IN_GARAGE_TELLING_DEER_STORY_100                                                                  030.0 00:09:30:28 
*FROM CLIP NAME:  ERN_F1072_NSCR_1990S_B-ROLL NEIL BONNETT IN GARAGE TELLING DEER STORY_100.NEW.01 
*SOURCE FILE: ERN_F1072_NSCR_1990S_B-ROLL NEIL BONNETT IN GARAGE TELLING DEER STORY_100
001813  ERN_F1072_NSCR_1990S_B-ROLL_NEIL_BONNETT_IN_GARAGE_TELLING_DEER_STORY_100                                                         V     C        00:08:15:27 00:08:21:21 00:38:51:08 00:38:57:02 
M2      ERN_F1072_NSCR_1990S_B-ROLL_NEIL_BONNETT_IN_GARAGE_TELLING_DEER_STORY_100                                                                  030.0 00:08:15:27 
*FROM CLIP NAME:  ERN_F1072_NSCR_1990S_B-ROLL NEIL BONNETT IN GARAGE TELLING DEER STORY_100.NEW.01 
*SOURCE FILE: ERN_F1072_NSCR_1990S_B-ROLL NEIL BONNETT IN GARAGE TELLING DEER STORY_100
001814  ERN_F1072_NSCR_1990S_B-ROLL_NEIL_BONNETT_IN_GARAGE_TELLING_DEER_STORY_100                                                         A20   C        00:08:15:29 00:08:16:29 00:38:51:15 00:38:52:15 
M2      ERN_F1072_NSCR_1990S_B-ROLL_NEIL_BONNETT_IN_GARAGE_TELLING_DEER_STORY_100                                                                  030.0 00:08:15:29 
*FROM CLIP NAME:  ERN_F1072_NSCR_1990S_B-ROLL NEIL BONNETT IN GARAGE TELLING DEER STORY_100.NEW.01 
*SOURCE FILE: ERN_F1072_NSCR_1990S_B-ROLL NEIL BONNETT IN GARAGE TELLING DEER STORY_100
001815  ERN_F1072_NSCR_1990S_B-ROLL_NEIL_BONNETT_IN_GARAGE_TELLING_DEER_STORY_100                                                         A20   C        00:08:16:29 00:08:17:13 00:38:52:15 00:38:53:02 
M2      ERN_F1072_NSCR_1990S_B-ROLL_NEIL_BONNETT_IN_GARAGE_TELLING_DEER_STORY_100                                                                  030.0 00:08:16:29 
*FROM CLIP NAME:  ERN_F1072_NSCR_1990S_B-ROLL NEIL BONNETT IN GARAGE TELLING DEER STORY_100.NEW.01 
*SOURCE FILE: ERN_F1072_NSCR_1990S_B-ROLL NEIL BONNETT IN GARAGE TELLING DEER STORY_100
001816  ERN_F1072_NSCR_1990S_B-ROLL_NEIL_BONNETT_IN_GARAGE_TELLING_DEER_STORY_100                                                         A20   C        00:08:17:20 00:08:21:07 00:38:53:02 00:38:56:15 
M2      ERN_F1072_NSCR_1990S_B-ROLL_NEIL_BONNETT_IN_GARAGE_TELLING_DEER_STORY_100                                                                  030.0 00:08:17:20 
*FROM CLIP NAME:  ERN_F1072_NSCR_1990S_B-ROLL NEIL BONNETT IN GARAGE TELLING DEER STORY_100.NEW.01 
*SOURCE FILE: ERN_F1072_NSCR_1990S_B-ROLL NEIL BONNETT IN GARAGE TELLING DEER STORY_100
001817  ERN_F1072_NSCR_1990S_B-ROLL_NEIL_BONNETT_IN_GARAGE_TELLING_DEER_STORY_100                                                         A20   C        00:08:49:26 00:08:50:12 00:38:56:15 00:38:57:03 
M2      ERN_F1072_NSCR_1990S_B-ROLL_NEIL_BONNETT_IN_GARAGE_TELLING_DEER_STORY_100                                                                  030.0 00:08:49:26 
*FROM CLIP NAME:  ERN_F1072_NSCR_1990S_B-ROLL NEIL BONNETT IN GARAGE TELLING DEER STORY_100.NEW.01 
*TO CLIP NAME:  ERN_F1072_NSCR_1990S_B-ROLL NEIL BONNETT IN GARAGE TELLING DEER STORY_100.NEW.01 
*SOURCE FILE: ERN_F1072_NSCR_1990S_B-ROLL NEIL BONNETT IN GARAGE TELLING DEER STORY_100
001818  ERN_F1072_NSCR_1990S_B-ROLL_NEIL_BONNETT_IN_GARAGE_TELLING_DEER_STORY_100                                                         A22   C        00:08:23:09 00:08:24:09 00:38:56:17 00:38:57:17 
M2      ERN_F1072_NSCR_1990S_B-ROLL_NEIL_BONNETT_IN_GARAGE_TELLING_DEER_STORY_100                                                                  030.0 00:08:23:09 
*FROM CLIP NAME:  ERN_F1072_NSCR_1990S_B-ROLL NEIL BONNETT IN GARAGE TELLING DEER STORY_100.NEW.01 
*SOURCE FILE: ERN_F1072_NSCR_1990S_B-ROLL NEIL BONNETT IN GARAGE TELLING DEER STORY_100
001819  ERN_F1072_NSCR_1990S_B-ROLL_NEIL_BONNETT_IN_GARAGE_TELLING_DEER_STORY_100                                                         V     C        00:08:24:00 00:08:29:06 00:38:57:02 00:39:02:06 
M2      ERN_F1072_NSCR_1990S_B-ROLL_NEIL_BONNETT_IN_GARAGE_TELLING_DEER_STORY_100                                                                  030.0 00:08:24:00 
*FROM CLIP NAME:  ERN_F1072_NSCR_1990S_B-ROLL NEIL BONNETT IN GARAGE TELLING DEER STORY_100.NEW.01 
*SOURCE FILE: ERN_F1072_NSCR_1990S_B-ROLL NEIL BONNETT IN GARAGE TELLING DEER STORY_100
001820  ERN_F1072_NSCR_1990S_B-ROLL_NEIL_BONNETT_IN_GARAGE_TELLING_DEER_STORY_100                                                         A20   C        00:08:50:11 00:08:50:14 00:38:57:03 00:38:57:05 
M2      ERN_F1072_NSCR_1990S_B-ROLL_NEIL_BONNETT_IN_GARAGE_TELLING_DEER_STORY_100                                                                  030.0 00:08:50:11 
*FROM CLIP NAME:  ERN_F1072_NSCR_1990S_B-ROLL NEIL BONNETT IN GARAGE TELLING DEER STORY_100.NEW.01 
*SOURCE FILE: ERN_F1072_NSCR_1990S_B-ROLL NEIL BONNETT IN GARAGE TELLING DEER STORY_100
001821  ERN_F1072_NSCR_1990S_B-ROLL_NEIL_BONNETT_IN_GARAGE_TELLING_DEER_STORY_100                                                         A22   C        00:08:24:09 00:08:25:13 00:38:57:17 00:38:58:20 
M2      ERN_F1072_NSCR_1990S_B-ROLL_NEIL_BONNETT_IN_GARAGE_TELLING_DEER_STORY_100                                                                  030.0 00:08:24:09 
*FROM CLIP NAME:  ERN_F1072_NSCR_1990S_B-ROLL NEIL BONNETT IN GARAGE TELLING DEER STORY_100.NEW.01 
*SOURCE FILE: ERN_F1072_NSCR_1990S_B-ROLL NEIL BONNETT IN GARAGE TELLING DEER STORY_100
001822  ERN_F1072_NSCR_1990S_B-ROLL_NEIL_BONNETT_IN_GARAGE_TELLING_DEER_STORY_100                                                         A22   C        00:08:25:22 00:08:25:26 00:38:58:20 00:38:58:22 
M2      ERN_F1072_NSCR_1990S_B-ROLL_NEIL_BONNETT_IN_GARAGE_TELLING_DEER_STORY_100                                                                  030.0 00:08:25:22 
*FROM CLIP NAME:  ERN_F1072_NSCR_1990S_B-ROLL NEIL BONNETT IN GARAGE TELLING DEER STORY_100.NEW.01 
*TO CLIP NAME:  ERN_F1072_NSCR_1990S_B-ROLL NEIL BONNETT IN GARAGE TELLING DEER STORY_100.NEW.01 
*SOURCE FILE: ERN_F1072_NSCR_1990S_B-ROLL NEIL BONNETT IN GARAGE TELLING DEER STORY_100
001823  ERN_F1072_NSCR_1990S_B-ROLL_NEIL_BONNETT_IN_GARAGE_TELLING_DEER_STORY_100                                                         A22   C        00:08:25:25 00:08:28:11 00:38:58:22 00:39:01:10 
M2      ERN_F1072_NSCR_1990S_B-ROLL_NEIL_BONNETT_IN_GARAGE_TELLING_DEER_STORY_100                                                                  030.0 00:08:25:25 
*FROM CLIP NAME:  ERN_F1072_NSCR_1990S_B-ROLL NEIL BONNETT IN GARAGE TELLING DEER STORY_100.NEW.01 
*SOURCE FILE: ERN_F1072_NSCR_1990S_B-ROLL NEIL BONNETT IN GARAGE TELLING DEER STORY_100
001824  ERN_F2393_NSCR_1991-03-15_PART_1_WINNERS_W_NEIL_BONNETT_DESR_EPISODE_1991-NAS-00035_S001                                          A18   C        00:00:25:18 00:00:27:04 00:39:00:22 00:39:02:10 
M2      ERN_F2393_NSCR_1991-03-15_PART_1_WINNERS_W_NEIL_BONNETT_DESR_EPISODE_1991-NAS-00035_S001                                                   060.0 00:00:25:18 
*FROM CLIP NAME:  ERN_F2393_NSCR_1991-03-15_PART 1 WINNERS W NEIL BONNETT DESR EPISODE_1991-NAS-00035_S001.NEW.01 
*SOURCE FILE: ERN_F2393_NSCR_1991-03-15_PART 1 WINNERS W NEIL BONNETT DESR EPISODE_1991-NAS-00035_S001
001825  ERN_F2393_NSCR_1991-03-15_PART_1_WINNERS_W_NEIL_BONNETT_DESR_EPISODE_1991-NAS-00035_S001                                          V     C        00:00:26:26 00:00:27:16 00:39:02:06 00:39:03:02 
M2      ERN_F2393_NSCR_1991-03-15_PART_1_WINNERS_W_NEIL_BONNETT_DESR_EPISODE_1991-NAS-00035_S001                                                   048.0 00:00:26:26 
*FROM CLIP NAME:  ERN_F2393_NSCR_1991-03-15_PART 1 WINNERS W NEIL BONNETT DESR EPISODE_1991-NAS-00035_S001.NEW.01 
*SOURCE FILE: ERN_F2393_NSCR_1991-03-15_PART 1 WINNERS W NEIL BONNETT DESR EPISODE_1991-NAS-00035_S001
001826  ERN_F2393_NSCR_1991-03-15_PART_1_WINNERS_W_NEIL_BONNETT_DESR_EPISODE_1991-NAS-00035_S001                                          A18   C        00:00:27:03 00:00:31:04 00:39:02:10 00:39:06:10 
M2      ERN_F2393_NSCR_1991-03-15_PART_1_WINNERS_W_NEIL_BONNETT_DESR_EPISODE_1991-NAS-00035_S001                                                   060.0 00:00:27:03 
*FROM CLIP NAME:  ERN_F2393_NSCR_1991-03-15_PART 1 WINNERS W NEIL BONNETT DESR EPISODE_1991-NAS-00035_S001.NEW.01 
*SOURCE FILE: ERN_F2393_NSCR_1991-03-15_PART 1 WINNERS W NEIL BONNETT DESR EPISODE_1991-NAS-00035_S001
001827  ERN_F2393_NSCR_1991-03-15_PART_1_WINNERS_W_NEIL_BONNETT_DESR_EPISODE_1991-NAS-00035_S001                                          V     C        00:00:27:16 00:00:28:06 00:39:03:02 00:39:03:18 
M2      ERN_F2393_NSCR_1991-03-15_PART_1_WINNERS_W_NEIL_BONNETT_DESR_EPISODE_1991-NAS-00035_S001                                                   060.0 00:00:27:16 
*FROM CLIP NAME:  ERN_F2393_NSCR_1991-03-15_PART 1 WINNERS W NEIL BONNETT DESR EPISODE_1991-NAS-00035_S001.NEW.01 
*SOURCE FILE: ERN_F2393_NSCR_1991-03-15_PART 1 WINNERS W NEIL BONNETT DESR EPISODE_1991-NAS-00035_S001
001828  ERN_F2393_NSCR_1991-03-15_PART_1_WINNERS_W_NEIL_BONNETT_DESR_EPISODE_1991-NAS-00035_S001                                          V     C        00:00:28:06 00:00:28:12 00:39:03:18 00:39:03:23 
M2      ERN_F2393_NSCR_1991-03-15_PART_1_WINNERS_W_NEIL_BONNETT_DESR_EPISODE_1991-NAS-00035_S001                                                   060.0 00:00:28:06 
*FROM CLIP NAME:  ERN_F2393_NSCR_1991-03-15_PART 1 WINNERS W NEIL BONNETT DESR EPISODE_1991-NAS-00035_S001.NEW.01 
*SOURCE FILE: ERN_F2393_NSCR_1991-03-15_PART 1 WINNERS W NEIL BONNETT DESR EPISODE_1991-NAS-00035_S001
001829  ERN_F2393_NSCR_1991-03-15_PART_1_WINNERS_W_NEIL_BONNETT_DESR_EPISODE_1991-NAS-00035_S001                                          V     C        00:00:28:12 00:00:28:20 00:39:03:23 00:39:04:05 
M2      ERN_F2393_NSCR_1991-03-15_PART_1_WINNERS_W_NEIL_BONNETT_DESR_EPISODE_1991-NAS-00035_S001                                                   060.0 00:00:28:12 
*FROM CLIP NAME:  ERN_F2393_NSCR_1991-03-15_PART 1 WINNERS W NEIL BONNETT DESR EPISODE_1991-NAS-00035_S001.NEW.01 
*SOURCE FILE: ERN_F2393_NSCR_1991-03-15_PART 1 WINNERS W NEIL BONNETT DESR EPISODE_1991-NAS-00035_S001
001830  ERN_F2393_NSCR_1991-03-15_PART_1_WINNERS_W_NEIL_BONNETT_DESR_EPISODE_1991-NAS-00035_S001                                          V     C        00:00:28:20 00:00:30:04 00:39:04:05 00:39:05:16 
M2      ERN_F2393_NSCR_1991-03-15_PART_1_WINNERS_W_NEIL_BONNETT_DESR_EPISODE_1991-NAS-00035_S001                                                   060.0 00:00:28:20 
*FROM CLIP NAME:  ERN_F2393_NSCR_1991-03-15_PART 1 WINNERS W NEIL BONNETT DESR EPISODE_1991-NAS-00035_S001.NEW.01 
*SOURCE FILE: ERN_F2393_NSCR_1991-03-15_PART 1 WINNERS W NEIL BONNETT DESR EPISODE_1991-NAS-00035_S001
001831  ERN_F2393_NSCR_1991-03-15_PART_1_WINNERS_W_NEIL_BONNETT_DESR_EPISODE_1991-NAS-00035_S001                                          V     C        00:00:30:03 00:00:30:26 00:39:05:16 00:39:06:10 
M2      ERN_F2393_NSCR_1991-03-15_PART_1_WINNERS_W_NEIL_BONNETT_DESR_EPISODE_1991-NAS-00035_S001                                                   060.0 00:00:30:03 
*FROM CLIP NAME:  ERN_F2393_NSCR_1991-03-15_PART 1 WINNERS W NEIL BONNETT DESR EPISODE_1991-NAS-00035_S001.NEW.01 
*SOURCE FILE: ERN_F2393_NSCR_1991-03-15_PART 1 WINNERS W NEIL BONNETT DESR EPISODE_1991-NAS-00035_S001
001832  ERN_F2393_NSCR_1991-03-15_PART_1_WINNERS_W_NEIL_BONNETT_DESR_EPISODE_1991-NAS-00035_S001                                          V     C        00:00:46:04 00:00:46:26 00:39:06:10 00:39:07:04 
M2      ERN_F2393_NSCR_1991-03-15_PART_1_WINNERS_W_NEIL_BONNETT_DESR_EPISODE_1991-NAS-00035_S001                                                   060.0 00:00:46:04 
*FROM CLIP NAME:  ERN_F2393_NSCR_1991-03-15_PART 1 WINNERS W NEIL BONNETT DESR EPISODE_1991-NAS-00035_S001.NEW.01 
*SOURCE FILE: ERN_F2393_NSCR_1991-03-15_PART 1 WINNERS W NEIL BONNETT DESR EPISODE_1991-NAS-00035_S001
001833  ERN_F2393_NSCR_1991-03-15_PART_1_WINNERS_W_NEIL_BONNETT_DESR_EPISODE_1991-NAS-00035_S001                                          A18   C        00:00:31:03 00:00:33:05 00:39:06:10 00:39:08:11 
M2      ERN_F2393_NSCR_1991-03-15_PART_1_WINNERS_W_NEIL_BONNETT_DESR_EPISODE_1991-NAS-00035_S001                                                   060.0 00:00:31:03 
*FROM CLIP NAME:  ERN_F2393_NSCR_1991-03-15_PART 1 WINNERS W NEIL BONNETT DESR EPISODE_1991-NAS-00035_S001.NEW.01 
*SOURCE FILE: ERN_F2393_NSCR_1991-03-15_PART 1 WINNERS W NEIL BONNETT DESR EPISODE_1991-NAS-00035_S001
001834  ERN_F2393_NSCR_1991-03-15_PART_1_WINNERS_W_NEIL_BONNETT_DESR_EPISODE_1991-NAS-00035_S001                                          V     C        00:00:46:26 00:00:50:20 00:39:07:04 00:39:10:23 
M2      ERN_F2393_NSCR_1991-03-15_PART_1_WINNERS_W_NEIL_BONNETT_DESR_EPISODE_1991-NAS-00035_S001                                                   060.0 00:00:46:26 
*FROM CLIP NAME:  ERN_F2393_NSCR_1991-03-15_PART 1 WINNERS W NEIL BONNETT DESR EPISODE_1991-NAS-00035_S001.NEW.01 
*SOURCE FILE: ERN_F2393_NSCR_1991-03-15_PART 1 WINNERS W NEIL BONNETT DESR EPISODE_1991-NAS-00035_S001
001835  ERN_F2394_NSCR_1991-03-15_PART_2_WINNERS_W_NEIL_BONNETT_DESR_EPISODE_1991-NAS-00032_S001                                          A22   C        01:00:25:21 01:00:30:13 00:39:09:06 00:39:13:23 
M2      ERN_F2394_NSCR_1991-03-15_PART_2_WINNERS_W_NEIL_BONNETT_DESR_EPISODE_1991-NAS-00032_S001                                                   030.0 01:00:25:21 
*FROM CLIP NAME:  ERN_F2394_NSCR_1991-03-15_PART 2 WINNERS W NEIL BONNETT DESR EPISODE_1991-NAS-00032_S001.NEW.01 
*SOURCE FILE: ERN_F2394_NSCR_1991-03-15_PART 2 WINNERS W NEIL BONNETT DESR EPISODE_1991-NAS-00032_S001
001836  ERN_F2394_NSCR_1991-03-15_PART_2_WINNERS_W_NEIL_BONNETT_DESR_EPISODE_1991-NAS-00032_S001                                          V     C        01:00:27:12 01:00:30:15 00:39:10:23 00:39:14:01 
M2      ERN_F2394_NSCR_1991-03-15_PART_2_WINNERS_W_NEIL_BONNETT_DESR_EPISODE_1991-NAS-00032_S001                                                   030.0 01:00:27:12 
*FROM CLIP NAME:  ERN_F2394_NSCR_1991-03-15_PART 2 WINNERS W NEIL BONNETT DESR EPISODE_1991-NAS-00032_S001.NEW.01 
*SOURCE FILE: ERN_F2394_NSCR_1991-03-15_PART 2 WINNERS W NEIL BONNETT DESR EPISODE_1991-NAS-00032_S001
001837  ERN_F1067_NSCR_1990S_RACE_B-ROLL_RICHMOND_DESR_W_NEIL_BONNET_INTV_RICHARD_CHILDRESS_74_BONNETT_SU                                 V     C        00:02:09:29 00:02:12:17 00:39:14:01 00:39:17:06 
M2      ERN_F1067_NSCR_1990S_RACE_B-ROLL_RICHMOND_DESR_W_NEIL_BONNET_INTV_RICHARD_CHILDRESS_74_BONNETT_SU                                          024.0 00:02:09:29 
*FROM CLIP NAME:  ERN_F1067_NSCR_1990S_RACE B-ROLL RICHMOND DESR W NEIL BONNET INTV RICHARD CHILDRESS_74_BONNETT SU.NEW.01 
*SOURCE FILE: ERN_F1067_NSCR_1990S_RACE B-ROLL RICHMOND DESR W NEIL BONNET INTV RICHARD CHILDRESS_74_BONNETT SU
001838  ERN_F2496_NSCR_1993-07-09_LOUDON-SLICK_50_300_-_PRESS_CONFERENCE_RICHARD_CHILDRESS_NEIL_BONNETT_93-EV-0289_S001                   A20   C        00:35:45:20 00:35:45:24 00:39:14:20 00:39:14:23 
M2      ERN_F2496_NSCR_1993-07-09_LOUDON-SLICK_50_300_-_PRESS_CONFERENCE_RICHARD_CHILDRESS_NEIL_BONNETT_93-EV-0289_S001                            030.0 00:35:45:20 
*FROM CLIP NAME:  ERN_F2496_NSCR_1993-07-09_LOUDON-SLICK 50 300 - PRESS CONFERENCE RICHARD CHILDRESS NEIL BONNETT_93-EV-0289_S001.NEW.01 
*SOURCE FILE: ERN_F2496_NSCR_1993-07-09_LOUDON-SLICK 50 300 - PRESS CONFERENCE RICHARD CHILDRESS NEIL BONNETT_93-EV-0289_S001
001839  ERN_F2496_NSCR_1993-07-09_LOUDON-SLICK_50_300_-_PRESS_CONFERENCE_RICHARD_CHILDRESS_NEIL_BONNETT_93-EV-0289_S001                   A20   C        00:35:45:24 00:35:48:06 00:39:14:23 00:39:17:08 
M2      ERN_F2496_NSCR_1993-07-09_LOUDON-SLICK_50_300_-_PRESS_CONFERENCE_RICHARD_CHILDRESS_NEIL_BONNETT_93-EV-0289_S001                            030.0 00:35:45:24 
*FROM CLIP NAME:  ERN_F2496_NSCR_1993-07-09_LOUDON-SLICK 50 300 - PRESS CONFERENCE RICHARD CHILDRESS NEIL BONNETT_93-EV-0289_S001.NEW.01 
*SOURCE FILE: ERN_F2496_NSCR_1993-07-09_LOUDON-SLICK 50 300 - PRESS CONFERENCE RICHARD CHILDRESS NEIL BONNETT_93-EV-0289_S001
001840  ERN_F4091_NSCR_1990-02-17_RACE_B-ROLL_DAYTONA_GOODYS_NEIL_BONNETT_BTS_W_GARAGE_PREP_&_LINE_UP_90-EV-0071                          V     C        00:20:37:19 00:20:40:16 00:39:17:06 00:39:20:03 
M2      ERN_F4091_NSCR_1990-02-17_RACE_B-ROLL_DAYTONA_GOODYS_NEIL_BONNETT_BTS_W_GARAGE_PREP_&_LINE_UP_90-EV-0071                                   030.0 00:20:37:19 
*FROM CLIP NAME:  ERN_F2571__1990-02-17_DARRELL WALTRIP INTV DAYTONA GOODY 300_90-EV-0071.NEW.01 
*SOURCE FILE: ERN_F4091_NSCR_1990-02-17_RACE B-ROLL DAYTONA GOODYS NEIL BONNETT BTS W GARAGE PREP & LINE UP_90-EV-0071
001841  ERN_F2496_NSCR_1993-07-09_LOUDON-SLICK_50_300_-_PRESS_CONFERENCE_RICHARD_CHILDRESS_NEIL_BONNETT_93-EV-0289_S001                   A20   C        00:35:48:12 00:35:53:23 00:39:17:08 00:39:22:16 
M2      ERN_F2496_NSCR_1993-07-09_LOUDON-SLICK_50_300_-_PRESS_CONFERENCE_RICHARD_CHILDRESS_NEIL_BONNETT_93-EV-0289_S001                            030.0 00:35:48:12 
*FROM CLIP NAME:  ERN_F2496_NSCR_1993-07-09_LOUDON-SLICK 50 300 - PRESS CONFERENCE RICHARD CHILDRESS NEIL BONNETT_93-EV-0289_S001.NEW.01 
*SOURCE FILE: ERN_F2496_NSCR_1993-07-09_LOUDON-SLICK 50 300 - PRESS CONFERENCE RICHARD CHILDRESS NEIL BONNETT_93-EV-0289_S001
001842  ERN_F1022_NSCR_1990S_RACE_B-ROLL_COCA-COLA_600_FANS_BUYING_MERCH_&_ANNOUNCER_BOOTH_&_TRACK_SCENES_25_600_DAVE_3                   V     C        00:21:17:19 00:21:20:24 00:39:20:03 00:39:23:06 
M2      ERN_F1022_NSCR_1990S_RACE_B-ROLL_COCA-COLA_600_FANS_BUYING_MERCH_&_ANNOUNCER_BOOTH_&_TRACK_SCENES_25_600_DAVE_3                            030.0 00:21:17:19 
*FROM CLIP NAME:  ERN_F1022_NSCR_1990S_RACE B-ROLL COCA-COLA 600 FANS BUYING MERCH & ANNOUNCER BOOTH & TRACK SCENES_25_600 DAVE 3.NEW.01 
*SOURCE FILE: ERN_F1022_NSCR_1990S_RACE B-ROLL COCA-COLA 600 FANS BUYING MERCH & ANNOUNCER BOOTH & TRACK SCENES_25_600 DAVE 3
001843  ERN_F1104_NSCR_1994-07-24_FINAL_WINNERS_EPISODE_AFTER_NEIL_BONNETT_DEATH_W_KEN_SQUIRE_1994-NAS-00158_S001                         A18   C        10:22:30:22 10:22:40:00 00:39:22:15 00:39:31:21 
M2      ERN_F1104_NSCR_1994-07-24_FINAL_WINNERS_EPISODE_AFTER_NEIL_BONNETT_DEATH_W_KEN_SQUIRE_1994-NAS-00158_S001                                  030.0 10:22:30:22 
*FROM CLIP NAME:  ERN_F1104_NSCR_1994-07-24_FINAL WINNERS EPISODE AFTER NEIL BONNETT DEATH W KEN SQUIRE_1994-NAS-00158_S001.NEW.01 
*SOURCE FILE: ERN_F1104_NSCR_1994-07-24_FINAL WINNERS EPISODE AFTER NEIL BONNETT DEATH W KEN SQUIRE_1994-NAS-00158_S001
001844  ERN_F2496_NSCR_1993-07-09_LOUDON-SLICK_50_300_-_PRESS_CONFERENCE_RICHARD_CHILDRESS_NEIL_BONNETT_93-EV-0289_S001                   A20   C        00:35:48:06 00:35:48:12 00:39:22:16 00:39:22:20 
M2      ERN_F2496_NSCR_1993-07-09_LOUDON-SLICK_50_300_-_PRESS_CONFERENCE_RICHARD_CHILDRESS_NEIL_BONNETT_93-EV-0289_S001                            030.0 00:35:48:06 
*FROM CLIP NAME:  ERN_F2496_NSCR_1993-07-09_LOUDON-SLICK 50 300 - PRESS CONFERENCE RICHARD CHILDRESS NEIL BONNETT_93-EV-0289_S001.NEW.01 
*TO CLIP NAME:  ERN_F2496_NSCR_1993-07-09_LOUDON-SLICK 50 300 - PRESS CONFERENCE RICHARD CHILDRESS NEIL BONNETT_93-EV-0289_S001.NEW.01 
*SOURCE FILE: ERN_F2496_NSCR_1993-07-09_LOUDON-SLICK 50 300 - PRESS CONFERENCE RICHARD CHILDRESS NEIL BONNETT_93-EV-0289_S001
001845  ERN_F1104_NSCR_1994-07-24_FINAL_WINNERS_EPISODE_AFTER_NEIL_BONNETT_DEATH_W_KEN_SQUIRE_1994-NAS-00158_S001                         V     C        10:22:31:11 10:22:40:01 00:39:23:06 00:39:31:22 
M2      ERN_F1104_NSCR_1994-07-24_FINAL_WINNERS_EPISODE_AFTER_NEIL_BONNETT_DEATH_W_KEN_SQUIRE_1994-NAS-00158_S001                                  030.0 10:22:31:11 
*FROM CLIP NAME:  ERN_F1104_NSCR_1994-07-24_FINAL WINNERS EPISODE AFTER NEIL BONNETT DEATH W KEN SQUIRE_1994-NAS-00158_S001.NEW.01 
*SOURCE FILE: ERN_F1104_NSCR_1994-07-24_FINAL WINNERS EPISODE AFTER NEIL BONNETT DEATH W KEN SQUIRE_1994-NAS-00158_S001
001846  ERN_F1101_NSCR_1993-01-26_B-ROLL_BTS_INTV_DESR_NEIL_BONNETT_IN_GARAGE_&_TALKING_FRIENDSHIP_1993-NAS-00005_S001                    V     C        00:09:34:26 00:09:35:08 00:39:31:22 00:39:32:07 
M2      ERN_F1101_NSCR_1993-01-26_B-ROLL_BTS_INTV_DESR_NEIL_BONNETT_IN_GARAGE_&_TALKING_FRIENDSHIP_1993-NAS-00005_S001                             030.0 00:09:34:26 
*FROM CLIP NAME:  ERN_F1101_NSCR_1993-01-26_B-ROLL BTS INTV DESR NEIL BONNETT IN GARAGE & TALKING FRIENDSHIP_1993-NAS-00005_S001.NEW.02 
*SOURCE FILE: ERN_F1101_NSCR_1993-01-26_B-ROLL BTS INTV DESR NEIL BONNETT IN GARAGE & TALKING FRIENDSHIP_1993-NAS-00005_S001
001847  ERN_F1101_NSCR_1993-01-26_B-ROLL_BTS_INTV_DESR_NEIL_BONNETT_IN_GARAGE_&_TALKING_FRIENDSHIP_1993-NAS-00005_S001                    A18   C        00:06:37:21 00:06:38:22 00:39:32:04 00:39:33:04 
M2      ERN_F1101_NSCR_1993-01-26_B-ROLL_BTS_INTV_DESR_NEIL_BONNETT_IN_GARAGE_&_TALKING_FRIENDSHIP_1993-NAS-00005_S001                             030.0 00:06:37:21 
*FROM CLIP NAME:  ERN_F1101_NSCR_1993-01-26_B-ROLL BTS INTV DESR NEIL BONNETT IN GARAGE & TALKING FRIENDSHIP_1993-NAS-00005_S001.NEW.02 
*SOURCE FILE: ERN_F1101_NSCR_1993-01-26_B-ROLL BTS INTV DESR NEIL BONNETT IN GARAGE & TALKING FRIENDSHIP_1993-NAS-00005_S001
001848  ERN_F1101_NSCR_1993-01-26_B-ROLL_BTS_INTV_DESR_NEIL_BONNETT_IN_GARAGE_&_TALKING_FRIENDSHIP_1993-NAS-00005_S001                    V     C        00:08:37:25 00:08:38:00 00:39:32:09 00:39:32:12 
M2      ERN_F1101_NSCR_1993-01-26_B-ROLL_BTS_INTV_DESR_NEIL_BONNETT_IN_GARAGE_&_TALKING_FRIENDSHIP_1993-NAS-00005_S001                             030.0 00:08:37:25 
*FROM CLIP NAME:  ERN_F1101_NSCR_1993-01-26_B-ROLL BTS INTV DESR NEIL BONNETT IN GARAGE & TALKING FRIENDSHIP_1993-NAS-00005_S001.NEW.02 
*SOURCE FILE: ERN_F1101_NSCR_1993-01-26_B-ROLL BTS INTV DESR NEIL BONNETT IN GARAGE & TALKING FRIENDSHIP_1993-NAS-00005_S001
001849  ERN_F1101_NSCR_1993-01-26_B-ROLL_BTS_INTV_DESR_NEIL_BONNETT_IN_GARAGE_&_TALKING_FRIENDSHIP_1993-NAS-00005_S001                    V     C        00:08:37:29 00:08:43:21 00:39:32:12 00:39:38:05 
M2      ERN_F1101_NSCR_1993-01-26_B-ROLL_BTS_INTV_DESR_NEIL_BONNETT_IN_GARAGE_&_TALKING_FRIENDSHIP_1993-NAS-00005_S001                             030.0 00:08:37:29 
*FROM CLIP NAME:  ERN_F1101_NSCR_1993-01-26_B-ROLL BTS INTV DESR NEIL BONNETT IN GARAGE & TALKING FRIENDSHIP_1993-NAS-00005_S001.NEW.02 
*SOURCE FILE: ERN_F1101_NSCR_1993-01-26_B-ROLL BTS INTV DESR NEIL BONNETT IN GARAGE & TALKING FRIENDSHIP_1993-NAS-00005_S001
001850  ERN_F1101_NSCR_1993-01-26_B-ROLL_BTS_INTV_DESR_NEIL_BONNETT_IN_GARAGE_&_TALKING_FRIENDSHIP_1993-NAS-00005_S001                    A18   C        00:06:38:21 00:06:39:05 00:39:33:04 00:39:33:14 
M2      ERN_F1101_NSCR_1993-01-26_B-ROLL_BTS_INTV_DESR_NEIL_BONNETT_IN_GARAGE_&_TALKING_FRIENDSHIP_1993-NAS-00005_S001                             030.0 00:06:38:21 
*FROM CLIP NAME:  ERN_F1101_NSCR_1993-01-26_B-ROLL BTS INTV DESR NEIL BONNETT IN GARAGE & TALKING FRIENDSHIP_1993-NAS-00005_S001.NEW.02 
*SOURCE FILE: ERN_F1101_NSCR_1993-01-26_B-ROLL BTS INTV DESR NEIL BONNETT IN GARAGE & TALKING FRIENDSHIP_1993-NAS-00005_S001
001851  ERN_F1101_NSCR_1993-01-26_B-ROLL_BTS_INTV_DESR_NEIL_BONNETT_IN_GARAGE_&_TALKING_FRIENDSHIP_1993-NAS-00005_S001                    A18   C        00:01:15:19 00:01:16:05 00:39:33:14 00:39:34:02 
M2      ERN_F1101_NSCR_1993-01-26_B-ROLL_BTS_INTV_DESR_NEIL_BONNETT_IN_GARAGE_&_TALKING_FRIENDSHIP_1993-NAS-00005_S001                             030.0 00:01:15:19 
*FROM CLIP NAME:  ERN_F1101_NSCR_1993-01-26_B-ROLL BTS INTV DESR NEIL BONNETT IN GARAGE & TALKING FRIENDSHIP_1993-NAS-00005_S001.NEW.02 
*TO CLIP NAME:  ERN_F1101_NSCR_1993-01-26_B-ROLL BTS INTV DESR NEIL BONNETT IN GARAGE & TALKING FRIENDSHIP_1993-NAS-00005_S001.NEW.02 
*SOURCE FILE: ERN_F1101_NSCR_1993-01-26_B-ROLL BTS INTV DESR NEIL BONNETT IN GARAGE & TALKING FRIENDSHIP_1993-NAS-00005_S001
001852  ERN_F1101_NSCR_1993-01-26_B-ROLL_BTS_INTV_DESR_NEIL_BONNETT_IN_GARAGE_&_TALKING_FRIENDSHIP_1993-NAS-00005_S001                    A18   C        00:01:16:04 00:01:17:28 00:39:34:02 00:39:35:21 
M2      ERN_F1101_NSCR_1993-01-26_B-ROLL_BTS_INTV_DESR_NEIL_BONNETT_IN_GARAGE_&_TALKING_FRIENDSHIP_1993-NAS-00005_S001                             030.0 00:01:16:04 
*FROM CLIP NAME:  ERN_F1101_NSCR_1993-01-26_B-ROLL BTS INTV DESR NEIL BONNETT IN GARAGE & TALKING FRIENDSHIP_1993-NAS-00005_S001.NEW.02 
*SOURCE FILE: ERN_F1101_NSCR_1993-01-26_B-ROLL BTS INTV DESR NEIL BONNETT IN GARAGE & TALKING FRIENDSHIP_1993-NAS-00005_S001
001853  ERN_F1101_NSCR_1993-01-26_B-ROLL_BTS_INTV_DESR_NEIL_BONNETT_IN_GARAGE_&_TALKING_FRIENDSHIP_1993-NAS-00005_S001                    A20   C        00:01:22:20 00:01:22:28 00:39:35:16 00:39:35:22 
M2      ERN_F1101_NSCR_1993-01-26_B-ROLL_BTS_INTV_DESR_NEIL_BONNETT_IN_GARAGE_&_TALKING_FRIENDSHIP_1993-NAS-00005_S001                             030.0 00:01:22:20 
*FROM CLIP NAME:  ERN_F1101_NSCR_1993-01-26_B-ROLL BTS INTV DESR NEIL BONNETT IN GARAGE & TALKING FRIENDSHIP_1993-NAS-00005_S001.NEW.02 
*SOURCE FILE: ERN_F1101_NSCR_1993-01-26_B-ROLL BTS INTV DESR NEIL BONNETT IN GARAGE & TALKING FRIENDSHIP_1993-NAS-00005_S001
001854  ERN_F1101_NSCR_1993-01-26_B-ROLL_BTS_INTV_DESR_NEIL_BONNETT_IN_GARAGE_&_TALKING_FRIENDSHIP_1993-NAS-00005_S001                    A20   C        00:01:23:09 00:01:23:17 00:39:35:22 00:39:36:04 
M2      ERN_F1101_NSCR_1993-01-26_B-ROLL_BTS_INTV_DESR_NEIL_BONNETT_IN_GARAGE_&_TALKING_FRIENDSHIP_1993-NAS-00005_S001                             030.0 00:01:23:09 
*FROM CLIP NAME:  ERN_F1101_NSCR_1993-01-26_B-ROLL BTS INTV DESR NEIL BONNETT IN GARAGE & TALKING FRIENDSHIP_1993-NAS-00005_S001.NEW.02 
*TO CLIP NAME:  ERN_F1101_NSCR_1993-01-26_B-ROLL BTS INTV DESR NEIL BONNETT IN GARAGE & TALKING FRIENDSHIP_1993-NAS-00005_S001.NEW.02 
*SOURCE FILE: ERN_F1101_NSCR_1993-01-26_B-ROLL BTS INTV DESR NEIL BONNETT IN GARAGE & TALKING FRIENDSHIP_1993-NAS-00005_S001
001855  ERN_F1101_NSCR_1993-01-26_B-ROLL_BTS_INTV_DESR_NEIL_BONNETT_IN_GARAGE_&_TALKING_FRIENDSHIP_1993-NAS-00005_S001                    A20   C        00:01:23:16 00:01:25:00 00:39:36:04 00:39:37:14 
M2      ERN_F1101_NSCR_1993-01-26_B-ROLL_BTS_INTV_DESR_NEIL_BONNETT_IN_GARAGE_&_TALKING_FRIENDSHIP_1993-NAS-00005_S001                             030.0 00:01:23:16 
*FROM CLIP NAME:  ERN_F1101_NSCR_1993-01-26_B-ROLL BTS INTV DESR NEIL BONNETT IN GARAGE & TALKING FRIENDSHIP_1993-NAS-00005_S001.NEW.02 
*SOURCE FILE: ERN_F1101_NSCR_1993-01-26_B-ROLL BTS INTV DESR NEIL BONNETT IN GARAGE & TALKING FRIENDSHIP_1993-NAS-00005_S001
001856  ERN_F1101_NSCR_1993-01-26_B-ROLL_BTS_INTV_DESR_NEIL_BONNETT_IN_GARAGE_&_TALKING_FRIENDSHIP_1993-NAS-00005_S001                    A18   C        00:01:31:11 00:01:31:17 00:39:37:14 00:39:37:18 
M2      ERN_F1101_NSCR_1993-01-26_B-ROLL_BTS_INTV_DESR_NEIL_BONNETT_IN_GARAGE_&_TALKING_FRIENDSHIP_1993-NAS-00005_S001                             030.0 00:01:31:11 
*FROM CLIP NAME:  ERN_F1101_NSCR_1993-01-26_B-ROLL BTS INTV DESR NEIL BONNETT IN GARAGE & TALKING FRIENDSHIP_1993-NAS-00005_S001.NEW.02 
*SOURCE FILE: ERN_F1101_NSCR_1993-01-26_B-ROLL BTS INTV DESR NEIL BONNETT IN GARAGE & TALKING FRIENDSHIP_1993-NAS-00005_S001
001857  ERN_F1101_NSCR_1993-01-26_B-ROLL_BTS_INTV_DESR_NEIL_BONNETT_IN_GARAGE_&_TALKING_FRIENDSHIP_1993-NAS-00005_S001                    A18   C        00:01:31:16 00:01:33:02 00:39:37:18 00:39:39:06 
M2      ERN_F1101_NSCR_1993-01-26_B-ROLL_BTS_INTV_DESR_NEIL_BONNETT_IN_GARAGE_&_TALKING_FRIENDSHIP_1993-NAS-00005_S001                             030.0 00:01:31:16 
*FROM CLIP NAME:  ERN_F1101_NSCR_1993-01-26_B-ROLL BTS INTV DESR NEIL BONNETT IN GARAGE & TALKING FRIENDSHIP_1993-NAS-00005_S001.NEW.02 
*SOURCE FILE: ERN_F1101_NSCR_1993-01-26_B-ROLL BTS INTV DESR NEIL BONNETT IN GARAGE & TALKING FRIENDSHIP_1993-NAS-00005_S001
001858  ERN_F1101_NSCR_1993-01-26_B-ROLL_BTS_INTV_DESR_NEIL_BONNETT_IN_GARAGE_&_TALKING_FRIENDSHIP_1993-NAS-00005_S001                    V     C        00:01:33:28 00:01:42:22 00:39:38:05 00:39:47:00 
M2      ERN_F1101_NSCR_1993-01-26_B-ROLL_BTS_INTV_DESR_NEIL_BONNETT_IN_GARAGE_&_TALKING_FRIENDSHIP_1993-NAS-00005_S001                             030.0 00:01:33:28 
*FROM CLIP NAME:  ERN_F1101_NSCR_1993-01-26_B-ROLL BTS INTV DESR NEIL BONNETT IN GARAGE & TALKING FRIENDSHIP_1993-NAS-00005_S001.NEW.02 
*SOURCE FILE: ERN_F1101_NSCR_1993-01-26_B-ROLL BTS INTV DESR NEIL BONNETT IN GARAGE & TALKING FRIENDSHIP_1993-NAS-00005_S001
001859  ERN_F1101_NSCR_1993-01-26_B-ROLL_BTS_INTV_DESR_NEIL_BONNETT_IN_GARAGE_&_TALKING_FRIENDSHIP_1993-NAS-00005_S001                    A20   C        00:01:34:25 00:01:35:03 00:39:39:03 00:39:39:09 
M2      ERN_F1101_NSCR_1993-01-26_B-ROLL_BTS_INTV_DESR_NEIL_BONNETT_IN_GARAGE_&_TALKING_FRIENDSHIP_1993-NAS-00005_S001                             030.0 00:01:34:25 
*FROM CLIP NAME:  ERN_F1101_NSCR_1993-01-26_B-ROLL BTS INTV DESR NEIL BONNETT IN GARAGE & TALKING FRIENDSHIP_1993-NAS-00005_S001.NEW.02 
*SOURCE FILE: ERN_F1101_NSCR_1993-01-26_B-ROLL BTS INTV DESR NEIL BONNETT IN GARAGE & TALKING FRIENDSHIP_1993-NAS-00005_S001
001860  ERN_F1101_NSCR_1993-01-26_B-ROLL_BTS_INTV_DESR_NEIL_BONNETT_IN_GARAGE_&_TALKING_FRIENDSHIP_1993-NAS-00005_S001                    A20   C        00:01:35:03 00:01:42:11 00:39:39:09 00:39:46:15 
M2      ERN_F1101_NSCR_1993-01-26_B-ROLL_BTS_INTV_DESR_NEIL_BONNETT_IN_GARAGE_&_TALKING_FRIENDSHIP_1993-NAS-00005_S001                             030.0 00:01:35:03 
*FROM CLIP NAME:  ERN_F1101_NSCR_1993-01-26_B-ROLL BTS INTV DESR NEIL BONNETT IN GARAGE & TALKING FRIENDSHIP_1993-NAS-00005_S001.NEW.02 
*SOURCE FILE: ERN_F1101_NSCR_1993-01-26_B-ROLL BTS INTV DESR NEIL BONNETT IN GARAGE & TALKING FRIENDSHIP_1993-NAS-00005_S001
001861  ERN_F1101_NSCR_1993-01-26_B-ROLL_BTS_INTV_DESR_NEIL_BONNETT_IN_GARAGE_&_TALKING_FRIENDSHIP_1993-NAS-00005_S001                    A20   C        00:02:08:23 00:02:08:29 00:39:46:15 00:39:46:19 
M2      ERN_F1101_NSCR_1993-01-26_B-ROLL_BTS_INTV_DESR_NEIL_BONNETT_IN_GARAGE_&_TALKING_FRIENDSHIP_1993-NAS-00005_S001                             030.0 00:02:08:23 
*FROM CLIP NAME:  ERN_F1101_NSCR_1993-01-26_B-ROLL BTS INTV DESR NEIL BONNETT IN GARAGE & TALKING FRIENDSHIP_1993-NAS-00005_S001.NEW.02 
*TO CLIP NAME:  ERN_F1101_NSCR_1993-01-26_B-ROLL BTS INTV DESR NEIL BONNETT IN GARAGE & TALKING FRIENDSHIP_1993-NAS-00005_S001.NEW.02 
*SOURCE FILE: ERN_F1101_NSCR_1993-01-26_B-ROLL BTS INTV DESR NEIL BONNETT IN GARAGE & TALKING FRIENDSHIP_1993-NAS-00005_S001
001862  ERN_F1101_NSCR_1993-01-26_B-ROLL_BTS_INTV_DESR_NEIL_BONNETT_IN_GARAGE_&_TALKING_FRIENDSHIP_1993-NAS-00005_S001                    A20   C        00:02:08:28 00:02:21:14 00:39:46:19 00:39:59:07 
M2      ERN_F1101_NSCR_1993-01-26_B-ROLL_BTS_INTV_DESR_NEIL_BONNETT_IN_GARAGE_&_TALKING_FRIENDSHIP_1993-NAS-00005_S001                             030.0 00:02:08:28 
*FROM CLIP NAME:  ERN_F1101_NSCR_1993-01-26_B-ROLL BTS INTV DESR NEIL BONNETT IN GARAGE & TALKING FRIENDSHIP_1993-NAS-00005_S001.NEW.02 
*SOURCE FILE: ERN_F1101_NSCR_1993-01-26_B-ROLL BTS INTV DESR NEIL BONNETT IN GARAGE & TALKING FRIENDSHIP_1993-NAS-00005_S001
001863  ERN_F1101_NSCR_1993-01-26_B-ROLL_BTS_INTV_DESR_NEIL_BONNETT_IN_GARAGE_&_TALKING_FRIENDSHIP_1993-NAS-00005_S001                    V     C        00:02:09:05 00:02:22:12 00:39:47:00 00:40:00:05 
M2      ERN_F1101_NSCR_1993-01-26_B-ROLL_BTS_INTV_DESR_NEIL_BONNETT_IN_GARAGE_&_TALKING_FRIENDSHIP_1993-NAS-00005_S001                             030.0 00:02:09:05 
*FROM CLIP NAME:  ERN_F1101_NSCR_1993-01-26_B-ROLL BTS INTV DESR NEIL BONNETT IN GARAGE & TALKING FRIENDSHIP_1993-NAS-00005_S001.NEW.02 
*SOURCE FILE: ERN_F1101_NSCR_1993-01-26_B-ROLL BTS INTV DESR NEIL BONNETT IN GARAGE & TALKING FRIENDSHIP_1993-NAS-00005_S001
001864  ERN_F1101_NSCR_1993-01-26_B-ROLL_BTS_INTV_DESR_NEIL_BONNETT_IN_GARAGE_&_TALKING_FRIENDSHIP_1993-NAS-00005_S001                    A18   C        00:02:40:21 00:02:41:07 00:39:59:03 00:39:59:15 
M2      ERN_F1101_NSCR_1993-01-26_B-ROLL_BTS_INTV_DESR_NEIL_BONNETT_IN_GARAGE_&_TALKING_FRIENDSHIP_1993-NAS-00005_S001                             030.0 00:02:40:21 
*FROM CLIP NAME:  ERN_F1101_NSCR_1993-01-26_B-ROLL BTS INTV DESR NEIL BONNETT IN GARAGE & TALKING FRIENDSHIP_1993-NAS-00005_S001.NEW.02 
*SOURCE FILE: ERN_F1101_NSCR_1993-01-26_B-ROLL BTS INTV DESR NEIL BONNETT IN GARAGE & TALKING FRIENDSHIP_1993-NAS-00005_S001
001865  ERN_F1101_NSCR_1993-01-26_B-ROLL_BTS_INTV_DESR_NEIL_BONNETT_IN_GARAGE_&_TALKING_FRIENDSHIP_1993-NAS-00005_S001                    A18   C        00:02:41:06 00:02:42:25 00:39:59:15 00:40:01:06 
M2      ERN_F1101_NSCR_1993-01-26_B-ROLL_BTS_INTV_DESR_NEIL_BONNETT_IN_GARAGE_&_TALKING_FRIENDSHIP_1993-NAS-00005_S001                             030.0 00:02:41:06 
*FROM CLIP NAME:  ERN_F1101_NSCR_1993-01-26_B-ROLL BTS INTV DESR NEIL BONNETT IN GARAGE & TALKING FRIENDSHIP_1993-NAS-00005_S001.NEW.02 
*SOURCE FILE: ERN_F1101_NSCR_1993-01-26_B-ROLL BTS INTV DESR NEIL BONNETT IN GARAGE & TALKING FRIENDSHIP_1993-NAS-00005_S001
001866  ERN_F1101_NSCR_1993-01-26_B-ROLL_BTS_INTV_DESR_NEIL_BONNETT_IN_GARAGE_&_TALKING_FRIENDSHIP_1993-NAS-00005_S001                    A20   C        00:05:01:24 00:05:02:10 00:40:00:01 00:40:00:13 
M2      ERN_F1101_NSCR_1993-01-26_B-ROLL_BTS_INTV_DESR_NEIL_BONNETT_IN_GARAGE_&_TALKING_FRIENDSHIP_1993-NAS-00005_S001                             030.0 00:05:01:24 
*FROM CLIP NAME:  ERN_F1101_NSCR_1993-01-26_B-ROLL BTS INTV DESR NEIL BONNETT IN GARAGE & TALKING FRIENDSHIP_1993-NAS-00005_S001.NEW.02 
*SOURCE FILE: ERN_F1101_NSCR_1993-01-26_B-ROLL BTS INTV DESR NEIL BONNETT IN GARAGE & TALKING FRIENDSHIP_1993-NAS-00005_S001
001867  ERN_F1101_NSCR_1993-01-26_B-ROLL_BTS_INTV_DESR_NEIL_BONNETT_IN_GARAGE_&_TALKING_FRIENDSHIP_1993-NAS-00005_S001                    A22   C        00:05:01:24 00:05:02:10 00:40:00:01 00:40:00:13 
M2      ERN_F1101_NSCR_1993-01-26_B-ROLL_BTS_INTV_DESR_NEIL_BONNETT_IN_GARAGE_&_TALKING_FRIENDSHIP_1993-NAS-00005_S001                             030.0 00:05:01:24 
*FROM CLIP NAME:  ERN_F1101_NSCR_1993-01-26_B-ROLL BTS INTV DESR NEIL BONNETT IN GARAGE & TALKING FRIENDSHIP_1993-NAS-00005_S001.NEW.02 
*SOURCE FILE: ERN_F1101_NSCR_1993-01-26_B-ROLL BTS INTV DESR NEIL BONNETT IN GARAGE & TALKING FRIENDSHIP_1993-NAS-00005_S001
001868  ERN_F1101_NSCR_1993-01-26_B-ROLL_BTS_INTV_DESR_NEIL_BONNETT_IN_GARAGE_&_TALKING_FRIENDSHIP_1993-NAS-00005_S001                    V     C        00:05:01:29 00:05:07:20 00:40:00:05 00:40:05:21 
M2      ERN_F1101_NSCR_1993-01-26_B-ROLL_BTS_INTV_DESR_NEIL_BONNETT_IN_GARAGE_&_TALKING_FRIENDSHIP_1993-NAS-00005_S001                             030.0 00:05:01:29 
*FROM CLIP NAME:  ERN_F1101_NSCR_1993-01-26_B-ROLL BTS INTV DESR NEIL BONNETT IN GARAGE & TALKING FRIENDSHIP_1993-NAS-00005_S001.NEW.02 
*SOURCE FILE: ERN_F1101_NSCR_1993-01-26_B-ROLL BTS INTV DESR NEIL BONNETT IN GARAGE & TALKING FRIENDSHIP_1993-NAS-00005_S001
001869  ERN_F1101_NSCR_1993-01-26_B-ROLL_BTS_INTV_DESR_NEIL_BONNETT_IN_GARAGE_&_TALKING_FRIENDSHIP_1993-NAS-00005_S001                    A20   C        00:05:02:09 00:05:02:16 00:40:00:13 00:40:00:18 
M2      ERN_F1101_NSCR_1993-01-26_B-ROLL_BTS_INTV_DESR_NEIL_BONNETT_IN_GARAGE_&_TALKING_FRIENDSHIP_1993-NAS-00005_S001                             030.0 00:05:02:09 
*FROM CLIP NAME:  ERN_F1101_NSCR_1993-01-26_B-ROLL BTS INTV DESR NEIL BONNETT IN GARAGE & TALKING FRIENDSHIP_1993-NAS-00005_S001.NEW.02 
*SOURCE FILE: ERN_F1101_NSCR_1993-01-26_B-ROLL BTS INTV DESR NEIL BONNETT IN GARAGE & TALKING FRIENDSHIP_1993-NAS-00005_S001
001870  ERN_F1101_NSCR_1993-01-26_B-ROLL_BTS_INTV_DESR_NEIL_BONNETT_IN_GARAGE_&_TALKING_FRIENDSHIP_1993-NAS-00005_S001                    A22   C        00:05:02:09 00:05:02:16 00:40:00:13 00:40:00:18 
M2      ERN_F1101_NSCR_1993-01-26_B-ROLL_BTS_INTV_DESR_NEIL_BONNETT_IN_GARAGE_&_TALKING_FRIENDSHIP_1993-NAS-00005_S001                             030.0 00:05:02:09 
*FROM CLIP NAME:  ERN_F1101_NSCR_1993-01-26_B-ROLL BTS INTV DESR NEIL BONNETT IN GARAGE & TALKING FRIENDSHIP_1993-NAS-00005_S001.NEW.02 
*SOURCE FILE: ERN_F1101_NSCR_1993-01-26_B-ROLL BTS INTV DESR NEIL BONNETT IN GARAGE & TALKING FRIENDSHIP_1993-NAS-00005_S001
001871  ERN_F1101_NSCR_1993-01-26_B-ROLL_BTS_INTV_DESR_NEIL_BONNETT_IN_GARAGE_&_TALKING_FRIENDSHIP_1993-NAS-00005_S001                    A22   C        00:07:57:28 00:07:58:14 00:40:00:18 00:40:01:06 
M2      ERN_F1101_NSCR_1993-01-26_B-ROLL_BTS_INTV_DESR_NEIL_BONNETT_IN_GARAGE_&_TALKING_FRIENDSHIP_1993-NAS-00005_S001                             030.0 00:07:57:28 
*FROM CLIP NAME:  ERN_F1101_NSCR_1993-01-26_B-ROLL BTS INTV DESR NEIL BONNETT IN GARAGE & TALKING FRIENDSHIP_1993-NAS-00005_S001.NEW.02 
*TO CLIP NAME:  ERN_F1101_NSCR_1993-01-26_B-ROLL BTS INTV DESR NEIL BONNETT IN GARAGE & TALKING FRIENDSHIP_1993-NAS-00005_S001.NEW.02 
*SOURCE FILE: ERN_F1101_NSCR_1993-01-26_B-ROLL BTS INTV DESR NEIL BONNETT IN GARAGE & TALKING FRIENDSHIP_1993-NAS-00005_S001
001872  ERN_F1101_NSCR_1993-01-26_B-ROLL_BTS_INTV_DESR_NEIL_BONNETT_IN_GARAGE_&_TALKING_FRIENDSHIP_1993-NAS-00005_S001                    A22   C        00:07:58:13 00:07:59:15 00:40:01:06 00:40:02:07 
M2      ERN_F1101_NSCR_1993-01-26_B-ROLL_BTS_INTV_DESR_NEIL_BONNETT_IN_GARAGE_&_TALKING_FRIENDSHIP_1993-NAS-00005_S001                             030.0 00:07:58:13 
*FROM CLIP NAME:  ERN_F1101_NSCR_1993-01-26_B-ROLL BTS INTV DESR NEIL BONNETT IN GARAGE & TALKING FRIENDSHIP_1993-NAS-00005_S001.NEW.02 
*SOURCE FILE: ERN_F1101_NSCR_1993-01-26_B-ROLL BTS INTV DESR NEIL BONNETT IN GARAGE & TALKING FRIENDSHIP_1993-NAS-00005_S001
001873  ERN_F1101_NSCR_1993-01-26_B-ROLL_BTS_INTV_DESR_NEIL_BONNETT_IN_GARAGE_&_TALKING_FRIENDSHIP_1993-NAS-00005_S001                    A18   C        00:14:20:00 00:14:20:21 00:40:02:12 00:40:03:04 
M2      ERN_F1101_NSCR_1993-01-26_B-ROLL_BTS_INTV_DESR_NEIL_BONNETT_IN_GARAGE_&_TALKING_FRIENDSHIP_1993-NAS-00005_S001                             030.0 00:14:20:00 
*FROM CLIP NAME:  ERN_F1101_NSCR_1993-01-26_B-ROLL BTS INTV DESR NEIL BONNETT IN GARAGE & TALKING FRIENDSHIP_1993-NAS-00005_S001.NEW.02 
*SOURCE FILE: ERN_F1101_NSCR_1993-01-26_B-ROLL BTS INTV DESR NEIL BONNETT IN GARAGE & TALKING FRIENDSHIP_1993-NAS-00005_S001
001874  ERN_F1101_NSCR_1993-01-26_B-ROLL_BTS_INTV_DESR_NEIL_BONNETT_IN_GARAGE_&_TALKING_FRIENDSHIP_1993-NAS-00005_S001                    A18   C        00:14:20:20 00:14:23:05 00:40:03:04 00:40:05:15 
M2      ERN_F1101_NSCR_1993-01-26_B-ROLL_BTS_INTV_DESR_NEIL_BONNETT_IN_GARAGE_&_TALKING_FRIENDSHIP_1993-NAS-00005_S001                             030.0 00:14:20:20 
*FROM CLIP NAME:  ERN_F1101_NSCR_1993-01-26_B-ROLL BTS INTV DESR NEIL BONNETT IN GARAGE & TALKING FRIENDSHIP_1993-NAS-00005_S001.NEW.02 
*SOURCE FILE: ERN_F1101_NSCR_1993-01-26_B-ROLL BTS INTV DESR NEIL BONNETT IN GARAGE & TALKING FRIENDSHIP_1993-NAS-00005_S001
001875  ERN_F1101_NSCR_1993-01-26_B-ROLL_BTS_INTV_DESR_NEIL_BONNETT_IN_GARAGE_&_TALKING_FRIENDSHIP_1993-NAS-00005_S001                    A18   C        00:14:35:00 00:14:35:02 00:40:05:15 00:40:05:16 
M2      ERN_F1101_NSCR_1993-01-26_B-ROLL_BTS_INTV_DESR_NEIL_BONNETT_IN_GARAGE_&_TALKING_FRIENDSHIP_1993-NAS-00005_S001                             030.0 00:14:35:00 
*FROM CLIP NAME:  ERN_F1101_NSCR_1993-01-26_B-ROLL BTS INTV DESR NEIL BONNETT IN GARAGE & TALKING FRIENDSHIP_1993-NAS-00005_S001.NEW.02 
*TO CLIP NAME:  ERN_F1101_NSCR_1993-01-26_B-ROLL BTS INTV DESR NEIL BONNETT IN GARAGE & TALKING FRIENDSHIP_1993-NAS-00005_S001.NEW.02 
*SOURCE FILE: ERN_F1101_NSCR_1993-01-26_B-ROLL BTS INTV DESR NEIL BONNETT IN GARAGE & TALKING FRIENDSHIP_1993-NAS-00005_S001
001876  ERN_F1101_NSCR_1993-01-26_B-ROLL_BTS_INTV_DESR_NEIL_BONNETT_IN_GARAGE_&_TALKING_FRIENDSHIP_1993-NAS-00005_S001                    A18   C        00:14:35:02 00:14:36:26 00:40:05:16 00:40:07:11 
M2      ERN_F1101_NSCR_1993-01-26_B-ROLL_BTS_INTV_DESR_NEIL_BONNETT_IN_GARAGE_&_TALKING_FRIENDSHIP_1993-NAS-00005_S001                             030.0 00:14:35:02 
*FROM CLIP NAME:  ERN_F1101_NSCR_1993-01-26_B-ROLL BTS INTV DESR NEIL BONNETT IN GARAGE & TALKING FRIENDSHIP_1993-NAS-00005_S001.NEW.02 
*SOURCE FILE: ERN_F1101_NSCR_1993-01-26_B-ROLL BTS INTV DESR NEIL BONNETT IN GARAGE & TALKING FRIENDSHIP_1993-NAS-00005_S001
001877  ERN_F1101_NSCR_1993-01-26_B-ROLL_BTS_INTV_DESR_NEIL_BONNETT_IN_GARAGE_&_TALKING_FRIENDSHIP_1993-NAS-00005_S001                    V     C        00:14:35:08 00:14:37:04 00:40:05:21 00:40:07:17 
M2      ERN_F1101_NSCR_1993-01-26_B-ROLL_BTS_INTV_DESR_NEIL_BONNETT_IN_GARAGE_&_TALKING_FRIENDSHIP_1993-NAS-00005_S001                             030.0 00:14:35:08 
*FROM CLIP NAME:  ERN_F1101_NSCR_1993-01-26_B-ROLL BTS INTV DESR NEIL BONNETT IN GARAGE & TALKING FRIENDSHIP_1993-NAS-00005_S001.NEW.02 
*SOURCE FILE: ERN_F1101_NSCR_1993-01-26_B-ROLL BTS INTV DESR NEIL BONNETT IN GARAGE & TALKING FRIENDSHIP_1993-NAS-00005_S001
001878  ERN_F1101_NSCR_1993-01-26_B-ROLL_BTS_INTV_DESR_NEIL_BONNETT_IN_GARAGE_&_TALKING_FRIENDSHIP_1993-NAS-00005_S001                    A18   C        00:14:38:00 00:14:38:04 00:40:07:11 00:40:07:13 
M2      ERN_F1101_NSCR_1993-01-26_B-ROLL_BTS_INTV_DESR_NEIL_BONNETT_IN_GARAGE_&_TALKING_FRIENDSHIP_1993-NAS-00005_S001                             030.0 00:14:38:00 
*FROM CLIP NAME:  ERN_F1101_NSCR_1993-01-26_B-ROLL BTS INTV DESR NEIL BONNETT IN GARAGE & TALKING FRIENDSHIP_1993-NAS-00005_S001.NEW.02 
*TO CLIP NAME:  ERN_F1101_NSCR_1993-01-26_B-ROLL BTS INTV DESR NEIL BONNETT IN GARAGE & TALKING FRIENDSHIP_1993-NAS-00005_S001.NEW.02 
*SOURCE FILE: ERN_F1101_NSCR_1993-01-26_B-ROLL BTS INTV DESR NEIL BONNETT IN GARAGE & TALKING FRIENDSHIP_1993-NAS-00005_S001
001879  ERN_F1101_NSCR_1993-01-26_B-ROLL_BTS_INTV_DESR_NEIL_BONNETT_IN_GARAGE_&_TALKING_FRIENDSHIP_1993-NAS-00005_S001                    A20   C        00:06:18:20 00:06:19:21 00:40:07:11 00:40:08:11 
M2      ERN_F1101_NSCR_1993-01-26_B-ROLL_BTS_INTV_DESR_NEIL_BONNETT_IN_GARAGE_&_TALKING_FRIENDSHIP_1993-NAS-00005_S001                             030.0 00:06:18:20 
*FROM CLIP NAME:  ERN_F1101_NSCR_1993-01-26_B-ROLL BTS INTV DESR NEIL BONNETT IN GARAGE & TALKING FRIENDSHIP_1993-NAS-00005_S001.NEW.02 
*SOURCE FILE: ERN_F1101_NSCR_1993-01-26_B-ROLL BTS INTV DESR NEIL BONNETT IN GARAGE & TALKING FRIENDSHIP_1993-NAS-00005_S001
001880  ERN_F1101_NSCR_1993-01-26_B-ROLL_BTS_INTV_DESR_NEIL_BONNETT_IN_GARAGE_&_TALKING_FRIENDSHIP_1993-NAS-00005_S001                    A18   C        00:14:38:03 00:14:38:10 00:40:07:13 00:40:07:18 
M2      ERN_F1101_NSCR_1993-01-26_B-ROLL_BTS_INTV_DESR_NEIL_BONNETT_IN_GARAGE_&_TALKING_FRIENDSHIP_1993-NAS-00005_S001                             030.0 00:14:38:03 
*FROM CLIP NAME:  ERN_F1101_NSCR_1993-01-26_B-ROLL BTS INTV DESR NEIL BONNETT IN GARAGE & TALKING FRIENDSHIP_1993-NAS-00005_S001.NEW.02 
*SOURCE FILE: ERN_F1101_NSCR_1993-01-26_B-ROLL BTS INTV DESR NEIL BONNETT IN GARAGE & TALKING FRIENDSHIP_1993-NAS-00005_S001
001881  ERN_F1101_NSCR_1993-01-26_B-ROLL_BTS_INTV_DESR_NEIL_BONNETT_IN_GARAGE_&_TALKING_FRIENDSHIP_1993-NAS-00005_S001                    V     C        00:06:18:28 00:06:24:13 00:40:07:17 00:40:13:05 
M2      ERN_F1101_NSCR_1993-01-26_B-ROLL_BTS_INTV_DESR_NEIL_BONNETT_IN_GARAGE_&_TALKING_FRIENDSHIP_1993-NAS-00005_S001                             030.0 00:06:18:28 
*FROM CLIP NAME:  ERN_F1101_NSCR_1993-01-26_B-ROLL BTS INTV DESR NEIL BONNETT IN GARAGE & TALKING FRIENDSHIP_1993-NAS-00005_S001.NEW.02 
*SOURCE FILE: ERN_F1101_NSCR_1993-01-26_B-ROLL BTS INTV DESR NEIL BONNETT IN GARAGE & TALKING FRIENDSHIP_1993-NAS-00005_S001
001882  ERN_F1101_NSCR_1993-01-26_B-ROLL_BTS_INTV_DESR_NEIL_BONNETT_IN_GARAGE_&_TALKING_FRIENDSHIP_1993-NAS-00005_S001                    A18   C        00:14:38:20 00:14:38:24 00:40:07:18 00:40:07:20 
M2      ERN_F1101_NSCR_1993-01-26_B-ROLL_BTS_INTV_DESR_NEIL_BONNETT_IN_GARAGE_&_TALKING_FRIENDSHIP_1993-NAS-00005_S001                             030.0 00:14:38:20 
*FROM CLIP NAME:  ERN_F1101_NSCR_1993-01-26_B-ROLL BTS INTV DESR NEIL BONNETT IN GARAGE & TALKING FRIENDSHIP_1993-NAS-00005_S001.NEW.02 
*TO CLIP NAME:  ERN_F1101_NSCR_1993-01-26_B-ROLL BTS INTV DESR NEIL BONNETT IN GARAGE & TALKING FRIENDSHIP_1993-NAS-00005_S001.NEW.02 
*SOURCE FILE: ERN_F1101_NSCR_1993-01-26_B-ROLL BTS INTV DESR NEIL BONNETT IN GARAGE & TALKING FRIENDSHIP_1993-NAS-00005_S001
001883  ERN_F1101_NSCR_1993-01-26_B-ROLL_BTS_INTV_DESR_NEIL_BONNETT_IN_GARAGE_&_TALKING_FRIENDSHIP_1993-NAS-00005_S001                    A18   C        00:14:38:23 00:14:40:29 00:40:07:20 00:40:10:00 
M2      ERN_F1101_NSCR_1993-01-26_B-ROLL_BTS_INTV_DESR_NEIL_BONNETT_IN_GARAGE_&_TALKING_FRIENDSHIP_1993-NAS-00005_S001                             030.0 00:14:38:23 
*FROM CLIP NAME:  ERN_F1101_NSCR_1993-01-26_B-ROLL BTS INTV DESR NEIL BONNETT IN GARAGE & TALKING FRIENDSHIP_1993-NAS-00005_S001.NEW.02 
*SOURCE FILE: ERN_F1101_NSCR_1993-01-26_B-ROLL BTS INTV DESR NEIL BONNETT IN GARAGE & TALKING FRIENDSHIP_1993-NAS-00005_S001
001884  ERN_F1101_NSCR_1993-01-26_B-ROLL_BTS_INTV_DESR_NEIL_BONNETT_IN_GARAGE_&_TALKING_FRIENDSHIP_1993-NAS-00005_S001                    A20   C        00:06:19:20 00:06:21:26 00:40:08:11 00:40:10:15 
M2      ERN_F1101_NSCR_1993-01-26_B-ROLL_BTS_INTV_DESR_NEIL_BONNETT_IN_GARAGE_&_TALKING_FRIENDSHIP_1993-NAS-00005_S001                             030.0 00:06:19:20 
*FROM CLIP NAME:  ERN_F1101_NSCR_1993-01-26_B-ROLL BTS INTV DESR NEIL BONNETT IN GARAGE & TALKING FRIENDSHIP_1993-NAS-00005_S001.NEW.02 
*SOURCE FILE: ERN_F1101_NSCR_1993-01-26_B-ROLL BTS INTV DESR NEIL BONNETT IN GARAGE & TALKING FRIENDSHIP_1993-NAS-00005_S001
001885  ERN_F1101_NSCR_1993-01-26_B-ROLL_BTS_INTV_DESR_NEIL_BONNETT_IN_GARAGE_&_TALKING_FRIENDSHIP_1993-NAS-00005_S001                    A18   C        00:23:40:15 00:23:40:17 00:40:11:15 00:40:11:16 
M2      ERN_F1101_NSCR_1993-01-26_B-ROLL_BTS_INTV_DESR_NEIL_BONNETT_IN_GARAGE_&_TALKING_FRIENDSHIP_1993-NAS-00005_S001                             030.0 00:23:40:15 
*FROM CLIP NAME:  ERN_F1101_NSCR_1993-01-26_B-ROLL BTS INTV DESR NEIL BONNETT IN GARAGE & TALKING FRIENDSHIP_1993-NAS-00005_S001.NEW.02 
*SOURCE FILE: ERN_F1101_NSCR_1993-01-26_B-ROLL BTS INTV DESR NEIL BONNETT IN GARAGE & TALKING FRIENDSHIP_1993-NAS-00005_S001
001886  ERN_F1101_NSCR_1993-01-26_B-ROLL_BTS_INTV_DESR_NEIL_BONNETT_IN_GARAGE_&_TALKING_FRIENDSHIP_1993-NAS-00005_S001                    A18   C        00:23:40:16 00:23:45:15 00:40:11:16 00:40:16:14 
M2      ERN_F1101_NSCR_1993-01-26_B-ROLL_BTS_INTV_DESR_NEIL_BONNETT_IN_GARAGE_&_TALKING_FRIENDSHIP_1993-NAS-00005_S001                             030.0 00:23:40:16 
*FROM CLIP NAME:  ERN_F1101_NSCR_1993-01-26_B-ROLL BTS INTV DESR NEIL BONNETT IN GARAGE & TALKING FRIENDSHIP_1993-NAS-00005_S001.NEW.02 
*SOURCE FILE: ERN_F1101_NSCR_1993-01-26_B-ROLL BTS INTV DESR NEIL BONNETT IN GARAGE & TALKING FRIENDSHIP_1993-NAS-00005_S001
001887  ERN_F1101_NSCR_1993-01-26_B-ROLL_BTS_INTV_DESR_NEIL_BONNETT_IN_GARAGE_&_TALKING_FRIENDSHIP_1993-NAS-00005_S001                    V     C        00:23:42:03 00:23:45:01 00:40:13:05 00:40:16:03 
M2      ERN_F1101_NSCR_1993-01-26_B-ROLL_BTS_INTV_DESR_NEIL_BONNETT_IN_GARAGE_&_TALKING_FRIENDSHIP_1993-NAS-00005_S001                             030.0 00:23:42:03 
*FROM CLIP NAME:  ERN_F1101_NSCR_1993-01-26_B-ROLL BTS INTV DESR NEIL BONNETT IN GARAGE & TALKING FRIENDSHIP_1993-NAS-00005_S001.NEW.02 
*SOURCE FILE: ERN_F1101_NSCR_1993-01-26_B-ROLL BTS INTV DESR NEIL BONNETT IN GARAGE & TALKING FRIENDSHIP_1993-NAS-00005_S001
001888  ERN_F0785_NSCR_1986-02-23_RACE_DESR_AND_DARRELL_WALTRIP_CRASH_NASCAR_CUP_SERIES_-_RICHMOND_TNN001790                              A24   C        00:49:50:11 00:49:53:11 00:40:15:15 00:40:18:15 
M2      ERN_F0785_NSCR_1986-02-23_RACE_DESR_AND_DARRELL_WALTRIP_CRASH_NASCAR_CUP_SERIES_-_RICHMOND_TNN001790                                       030.0 00:49:50:11 
*FROM CLIP NAME:  ERN_F0785_NSCR_1986-02-23_RACE DESR AND DARRELL WALTRIP CRASH NASCAR CUP SERIES - RICHMOND_TNN001790.NEW.01 
*SOURCE FILE: ERN_F0785_NSCR_1986-02-23_RACE DESR AND DARRELL WALTRIP CRASH NASCAR CUP SERIES - RICHMOND_TNN001790
001889  ERN_F1000_NSCR_1990S_RACE_B-ROLL_DESR_POLE_DAY_CHARLOTTE_CREW_UNLOADING_CARS_AT_POLE_RACE_POLE_DAY_1                              A20   C        00:14:08:13 00:14:10:29 00:40:15:20 00:40:18:08 
M2      ERN_F1000_NSCR_1990S_RACE_B-ROLL_DESR_POLE_DAY_CHARLOTTE_CREW_UNLOADING_CARS_AT_POLE_RACE_POLE_DAY_1                                       030.0 00:14:08:13 
*FROM CLIP NAME:  ERN_F1000_NSCR_1990S_RACE B-ROLL DESR POLE DAY CHARLOTTE CREW UNLOADING CARS AT POLE RACE_POLE DAY 1.NEW.01 
*SOURCE FILE: ERN_F1000_NSCR_1990S_RACE B-ROLL DESR POLE DAY CHARLOTTE CREW UNLOADING CARS AT POLE RACE_POLE DAY 1
001890  ERN_F1065_NSCR_1992-05-11_RACE_B-ROLL_CHARLOTTE_NEIL_BONNETT_TEST_FOR_DESR_W_TONY_EURY_SR_&_KYLE_PETTY_72_BONNETT_TEST            V     C        00:08:01:29 00:08:04:08 00:40:16:03 00:40:18:23 
M2      ERN_F1065_NSCR_1992-05-11_RACE_B-ROLL_CHARLOTTE_NEIL_BONNETT_TEST_FOR_DESR_W_TONY_EURY_SR_&_KYLE_PETTY_72_BONNETT_TEST                     024.0 00:08:01:29 
*FROM CLIP NAME:  ERN_F1065_NSCR_1992-05-11_RACE B-ROLL CHARLOTTE NEIL BONNETT TEST FOR DESR W TONY EURY SR & KYLE PETTY_72_BONNETT TEST.NEW.01 
*SOURCE FILE: ERN_F1065_NSCR_1992-05-11_RACE B-ROLL CHARLOTTE NEIL BONNETT TEST FOR DESR W TONY EURY SR & KYLE PETTY_72_BONNETT TEST
001891  ERN_F1101_NSCR_1993-01-26_B-ROLL_BTS_INTV_DESR_NEIL_BONNETT_IN_GARAGE_&_TALKING_FRIENDSHIP_1993-NAS-00005_S001                    A18   C        00:23:37:14 00:23:37:17 00:40:16:14 00:40:16:16 
M2      ERN_F1101_NSCR_1993-01-26_B-ROLL_BTS_INTV_DESR_NEIL_BONNETT_IN_GARAGE_&_TALKING_FRIENDSHIP_1993-NAS-00005_S001                             030.0 00:23:37:14 
*FROM CLIP NAME:  ERN_F1101_NSCR_1993-01-26_B-ROLL BTS INTV DESR NEIL BONNETT IN GARAGE & TALKING FRIENDSHIP_1993-NAS-00005_S001.NEW.02 
*TO CLIP NAME:  ERN_F1101_NSCR_1993-01-26_B-ROLL BTS INTV DESR NEIL BONNETT IN GARAGE & TALKING FRIENDSHIP_1993-NAS-00005_S001.NEW.02 
*SOURCE FILE: ERN_F1101_NSCR_1993-01-26_B-ROLL BTS INTV DESR NEIL BONNETT IN GARAGE & TALKING FRIENDSHIP_1993-NAS-00005_S001
001892  ERN_F1101_NSCR_1993-01-26_B-ROLL_BTS_INTV_DESR_NEIL_BONNETT_IN_GARAGE_&_TALKING_FRIENDSHIP_1993-NAS-00005_S001                    A18   C        00:23:37:16 00:23:39:01 00:40:16:16 00:40:18:03 
M2      ERN_F1101_NSCR_1993-01-26_B-ROLL_BTS_INTV_DESR_NEIL_BONNETT_IN_GARAGE_&_TALKING_FRIENDSHIP_1993-NAS-00005_S001                             030.0 00:23:37:16 
*FROM CLIP NAME:  ERN_F1101_NSCR_1993-01-26_B-ROLL BTS INTV DESR NEIL BONNETT IN GARAGE & TALKING FRIENDSHIP_1993-NAS-00005_S001.NEW.02 
*SOURCE FILE: ERN_F1101_NSCR_1993-01-26_B-ROLL BTS INTV DESR NEIL BONNETT IN GARAGE & TALKING FRIENDSHIP_1993-NAS-00005_S001
001893  ERN_F1101_NSCR_1993-01-26_B-ROLL_BTS_INTV_DESR_NEIL_BONNETT_IN_GARAGE_&_TALKING_FRIENDSHIP_1993-NAS-00005_S001                    A18   C        00:26:11:01 00:26:11:04 00:40:18:03 00:40:18:05 
M2      ERN_F1101_NSCR_1993-01-26_B-ROLL_BTS_INTV_DESR_NEIL_BONNETT_IN_GARAGE_&_TALKING_FRIENDSHIP_1993-NAS-00005_S001                             030.0 00:26:11:01 
*FROM CLIP NAME:  ERN_F1101_NSCR_1993-01-26_B-ROLL BTS INTV DESR NEIL BONNETT IN GARAGE & TALKING FRIENDSHIP_1993-NAS-00005_S001.NEW.02 
*TO CLIP NAME:  ERN_F1101_NSCR_1993-01-26_B-ROLL BTS INTV DESR NEIL BONNETT IN GARAGE & TALKING FRIENDSHIP_1993-NAS-00005_S001.NEW.02 
*SOURCE FILE: ERN_F1101_NSCR_1993-01-26_B-ROLL BTS INTV DESR NEIL BONNETT IN GARAGE & TALKING FRIENDSHIP_1993-NAS-00005_S001
001894  ERN_F1101_NSCR_1993-01-26_B-ROLL_BTS_INTV_DESR_NEIL_BONNETT_IN_GARAGE_&_TALKING_FRIENDSHIP_1993-NAS-00005_S001                    A18   C        00:26:11:04 00:26:11:22 00:40:18:05 00:40:18:19 
M2      ERN_F1101_NSCR_1993-01-26_B-ROLL_BTS_INTV_DESR_NEIL_BONNETT_IN_GARAGE_&_TALKING_FRIENDSHIP_1993-NAS-00005_S001                             030.0 00:26:11:04 
*FROM CLIP NAME:  ERN_F1101_NSCR_1993-01-26_B-ROLL BTS INTV DESR NEIL BONNETT IN GARAGE & TALKING FRIENDSHIP_1993-NAS-00005_S001.NEW.02 
*SOURCE FILE: ERN_F1101_NSCR_1993-01-26_B-ROLL BTS INTV DESR NEIL BONNETT IN GARAGE & TALKING FRIENDSHIP_1993-NAS-00005_S001
001895  ERN_F1000_NSCR_1990S_RACE_B-ROLL_DESR_POLE_DAY_CHARLOTTE_CREW_UNLOADING_CARS_AT_POLE_RACE_POLE_DAY_1                              A20   C        00:14:10:28 00:14:11:21 00:40:18:08 00:40:19:02 
M2      ERN_F1000_NSCR_1990S_RACE_B-ROLL_DESR_POLE_DAY_CHARLOTTE_CREW_UNLOADING_CARS_AT_POLE_RACE_POLE_DAY_1                                       030.0 00:14:10:28 
*FROM CLIP NAME:  ERN_F1000_NSCR_1990S_RACE B-ROLL DESR POLE DAY CHARLOTTE CREW UNLOADING CARS AT POLE RACE_POLE DAY 1.NEW.01 
*SOURCE FILE: ERN_F1000_NSCR_1990S_RACE B-ROLL DESR POLE DAY CHARLOTTE CREW UNLOADING CARS AT POLE RACE_POLE DAY 1
001896  ERN_F0785_NSCR_1986-02-23_RACE_DESR_AND_DARRELL_WALTRIP_CRASH_NASCAR_CUP_SERIES_-_RICHMOND_TNN001790                              A24   C        00:49:53:11 00:49:55:13 00:40:18:15 00:40:20:16 
M2      ERN_F0785_NSCR_1986-02-23_RACE_DESR_AND_DARRELL_WALTRIP_CRASH_NASCAR_CUP_SERIES_-_RICHMOND_TNN001790                                       030.0 00:49:53:11 
*FROM CLIP NAME:  ERN_F0785_NSCR_1986-02-23_RACE DESR AND DARRELL WALTRIP CRASH NASCAR CUP SERIES - RICHMOND_TNN001790.NEW.01 
*SOURCE FILE: ERN_F0785_NSCR_1986-02-23_RACE DESR AND DARRELL WALTRIP CRASH NASCAR CUP SERIES - RICHMOND_TNN001790
001897  ERN_F1065_NSCR_1992-05-11_RACE_B-ROLL_CHARLOTTE_NEIL_BONNETT_TEST_FOR_DESR_W_TONY_EURY_SR_&_KYLE_PETTY_72_BONNETT_TEST            V     C        00:00:12:06 00:00:19:08 00:40:18:23 00:40:26:00 
M2      ERN_F1065_NSCR_1992-05-11_RACE_B-ROLL_CHARLOTTE_NEIL_BONNETT_TEST_FOR_DESR_W_TONY_EURY_SR_&_KYLE_PETTY_72_BONNETT_TEST                     030.0 00:00:12:06 
*FROM CLIP NAME:  ERN_F1065_NSCR_1992-05-11_RACE B-ROLL CHARLOTTE NEIL BONNETT TEST FOR DESR W TONY EURY SR & KYLE PETTY_72_BONNETT TEST.NEW.01 
*SOURCE FILE: ERN_F1065_NSCR_1992-05-11_RACE B-ROLL CHARLOTTE NEIL BONNETT TEST FOR DESR W TONY EURY SR & KYLE PETTY_72_BONNETT TEST
001898  ERN_F1065_NSCR_1992-05-11_RACE_B-ROLL_CHARLOTTE_NEIL_BONNETT_TEST_FOR_DESR_W_TONY_EURY_SR_&_KYLE_PETTY_72_BONNETT_TEST            A22   C        00:00:11:16 00:00:13:17 00:40:19:01 00:40:21:01 
M2      ERN_F1065_NSCR_1992-05-11_RACE_B-ROLL_CHARLOTTE_NEIL_BONNETT_TEST_FOR_DESR_W_TONY_EURY_SR_&_KYLE_PETTY_72_BONNETT_TEST                     030.0 00:00:11:16 
*FROM CLIP NAME:  ERN_F1065_NSCR_1992-05-11_RACE B-ROLL CHARLOTTE NEIL BONNETT TEST FOR DESR W TONY EURY SR & KYLE PETTY_72_BONNETT TEST.NEW.01 
*SOURCE FILE: ERN_F1065_NSCR_1992-05-11_RACE B-ROLL CHARLOTTE NEIL BONNETT TEST FOR DESR W TONY EURY SR & KYLE PETTY_72_BONNETT TEST
001899  ERN_F1065_NSCR_1992-05-11_RACE_B-ROLL_CHARLOTTE_NEIL_BONNETT_TEST_FOR_DESR_W_TONY_EURY_SR_&_KYLE_PETTY_72_BONNETT_TEST            A22   C        00:00:13:16 00:00:15:17 00:40:21:01 00:40:23:01 
M2      ERN_F1065_NSCR_1992-05-11_RACE_B-ROLL_CHARLOTTE_NEIL_BONNETT_TEST_FOR_DESR_W_TONY_EURY_SR_&_KYLE_PETTY_72_BONNETT_TEST                     030.0 00:00:13:16 
*FROM CLIP NAME:  ERN_F1065_NSCR_1992-05-11_RACE B-ROLL CHARLOTTE NEIL BONNETT TEST FOR DESR W TONY EURY SR & KYLE PETTY_72_BONNETT TEST.NEW.01 
*SOURCE FILE: ERN_F1065_NSCR_1992-05-11_RACE B-ROLL CHARLOTTE NEIL BONNETT TEST FOR DESR W TONY EURY SR & KYLE PETTY_72_BONNETT TEST
001900  ERN_F1065_NSCR_1992-05-11_RACE_B-ROLL_CHARLOTTE_NEIL_BONNETT_TEST_FOR_DESR_W_TONY_EURY_SR_&_KYLE_PETTY_72_BONNETT_TEST            A22   C        00:00:15:16 00:00:17:17 00:40:23:01 00:40:25:01 
M2      ERN_F1065_NSCR_1992-05-11_RACE_B-ROLL_CHARLOTTE_NEIL_BONNETT_TEST_FOR_DESR_W_TONY_EURY_SR_&_KYLE_PETTY_72_BONNETT_TEST                     030.0 00:00:15:16 
*FROM CLIP NAME:  ERN_F1065_NSCR_1992-05-11_RACE B-ROLL CHARLOTTE NEIL BONNETT TEST FOR DESR W TONY EURY SR & KYLE PETTY_72_BONNETT TEST.NEW.01 
*TO CLIP NAME:  ERN_F1065_NSCR_1992-05-11_RACE B-ROLL CHARLOTTE NEIL BONNETT TEST FOR DESR W TONY EURY SR & KYLE PETTY_72_BONNETT TEST.NEW.01 
*SOURCE FILE: ERN_F1065_NSCR_1992-05-11_RACE B-ROLL CHARLOTTE NEIL BONNETT TEST FOR DESR W TONY EURY SR & KYLE PETTY_72_BONNETT TEST
001901  ERN_F1101_NSCR_1993-01-26_B-ROLL_BTS_INTV_DESR_NEIL_BONNETT_IN_GARAGE_&_TALKING_FRIENDSHIP_1993-NAS-00005_S001                    A18   C        00:20:59:29 00:21:00:06 00:40:24:17 00:40:24:20 
M2      ERN_F1101_NSCR_1993-01-26_B-ROLL_BTS_INTV_DESR_NEIL_BONNETT_IN_GARAGE_&_TALKING_FRIENDSHIP_1993-NAS-00005_S001                             030.0 00:20:59:29 
*FROM CLIP NAME:  ERN_F1101_NSCR_1993-01-26_B-ROLL BTS INTV DESR NEIL BONNETT IN GARAGE & TALKING FRIENDSHIP_1993-NAS-00005_S001.NEW.02 
*SOURCE FILE: ERN_F1101_NSCR_1993-01-26_B-ROLL BTS INTV DESR NEIL BONNETT IN GARAGE & TALKING FRIENDSHIP_1993-NAS-00005_S001
001902  ERN_F1101_NSCR_1993-01-26_B-ROLL_BTS_INTV_DESR_NEIL_BONNETT_IN_GARAGE_&_TALKING_FRIENDSHIP_1993-NAS-00005_S001                    A18   C        00:21:00:05 00:21:00:28 00:40:24:20 00:40:25:14 
M2      ERN_F1101_NSCR_1993-01-26_B-ROLL_BTS_INTV_DESR_NEIL_BONNETT_IN_GARAGE_&_TALKING_FRIENDSHIP_1993-NAS-00005_S001                             030.0 00:21:00:05 
*FROM CLIP NAME:  ERN_F1101_NSCR_1993-01-26_B-ROLL BTS INTV DESR NEIL BONNETT IN GARAGE & TALKING FRIENDSHIP_1993-NAS-00005_S001.NEW.02 
*SOURCE FILE: ERN_F1101_NSCR_1993-01-26_B-ROLL BTS INTV DESR NEIL BONNETT IN GARAGE & TALKING FRIENDSHIP_1993-NAS-00005_S001
001903  ERN_F1065_NSCR_1992-05-11_RACE_B-ROLL_CHARLOTTE_NEIL_BONNETT_TEST_FOR_DESR_W_TONY_EURY_SR_&_KYLE_PETTY_72_BONNETT_TEST            A22   C        00:00:17:16 00:00:18:22 00:40:25:01 00:40:26:05 
M2      ERN_F1065_NSCR_1992-05-11_RACE_B-ROLL_CHARLOTTE_NEIL_BONNETT_TEST_FOR_DESR_W_TONY_EURY_SR_&_KYLE_PETTY_72_BONNETT_TEST                     030.0 00:00:17:16 
*FROM CLIP NAME:  ERN_F1065_NSCR_1992-05-11_RACE B-ROLL CHARLOTTE NEIL BONNETT TEST FOR DESR W TONY EURY SR & KYLE PETTY_72_BONNETT TEST.NEW.01 
*SOURCE FILE: ERN_F1065_NSCR_1992-05-11_RACE B-ROLL CHARLOTTE NEIL BONNETT TEST FOR DESR W TONY EURY SR & KYLE PETTY_72_BONNETT TEST
001904  ERN_F1101_NSCR_1993-01-26_B-ROLL_BTS_INTV_DESR_NEIL_BONNETT_IN_GARAGE_&_TALKING_FRIENDSHIP_1993-NAS-00005_S001                    A18   C        00:20:51:20 00:20:52:17 00:40:25:14 00:40:26:11 
M2      ERN_F1101_NSCR_1993-01-26_B-ROLL_BTS_INTV_DESR_NEIL_BONNETT_IN_GARAGE_&_TALKING_FRIENDSHIP_1993-NAS-00005_S001                             030.0 00:20:51:20 
*FROM CLIP NAME:  ERN_F1101_NSCR_1993-01-26_B-ROLL BTS INTV DESR NEIL BONNETT IN GARAGE & TALKING FRIENDSHIP_1993-NAS-00005_S001.NEW.02 
*SOURCE FILE: ERN_F1101_NSCR_1993-01-26_B-ROLL BTS INTV DESR NEIL BONNETT IN GARAGE & TALKING FRIENDSHIP_1993-NAS-00005_S001
001905  ERN_F1065_NSCR_1992-05-11_RACE_B-ROLL_CHARLOTTE_NEIL_BONNETT_TEST_FOR_DESR_W_TONY_EURY_SR_&_KYLE_PETTY_72_BONNETT_TEST            V     C        00:00:46:06 00:00:50:15 00:40:26:00 00:40:30:06 
M2      ERN_F1065_NSCR_1992-05-11_RACE_B-ROLL_CHARLOTTE_NEIL_BONNETT_TEST_FOR_DESR_W_TONY_EURY_SR_&_KYLE_PETTY_72_BONNETT_TEST                     030.0 00:00:46:06 
*FROM CLIP NAME:  ERN_F1065_NSCR_1992-05-11_RACE B-ROLL CHARLOTTE NEIL BONNETT TEST FOR DESR W TONY EURY SR & KYLE PETTY_72_BONNETT TEST.NEW.01 
*SOURCE FILE: ERN_F1065_NSCR_1992-05-11_RACE B-ROLL CHARLOTTE NEIL BONNETT TEST FOR DESR W TONY EURY SR & KYLE PETTY_72_BONNETT TEST
001906  ERN_F1065_NSCR_1992-05-11_RACE_B-ROLL_CHARLOTTE_NEIL_BONNETT_TEST_FOR_DESR_W_TONY_EURY_SR_&_KYLE_PETTY_72_BONNETT_TEST            A22   C        00:00:32:01 00:00:33:02 00:40:26:05 00:40:27:05 
M2      ERN_F1065_NSCR_1992-05-11_RACE_B-ROLL_CHARLOTTE_NEIL_BONNETT_TEST_FOR_DESR_W_TONY_EURY_SR_&_KYLE_PETTY_72_BONNETT_TEST                     030.0 00:00:32:01 
*FROM CLIP NAME:  ERN_F1065_NSCR_1992-05-11_RACE B-ROLL CHARLOTTE NEIL BONNETT TEST FOR DESR W TONY EURY SR & KYLE PETTY_72_BONNETT TEST.NEW.01 
*TO CLIP NAME:  ERN_F1065_NSCR_1992-05-11_RACE B-ROLL CHARLOTTE NEIL BONNETT TEST FOR DESR W TONY EURY SR & KYLE PETTY_72_BONNETT TEST.NEW.01 
*SOURCE FILE: ERN_F1065_NSCR_1992-05-11_RACE B-ROLL CHARLOTTE NEIL BONNETT TEST FOR DESR W TONY EURY SR & KYLE PETTY_72_BONNETT TEST
001907  ERN_F1101_NSCR_1993-01-26_B-ROLL_BTS_INTV_DESR_NEIL_BONNETT_IN_GARAGE_&_TALKING_FRIENDSHIP_1993-NAS-00005_S001                    A18   C        00:21:02:05 00:21:02:08 00:40:26:22 00:40:27:00 
M2      ERN_F1101_NSCR_1993-01-26_B-ROLL_BTS_INTV_DESR_NEIL_BONNETT_IN_GARAGE_&_TALKING_FRIENDSHIP_1993-NAS-00005_S001                             030.0 00:21:02:05 
*FROM CLIP NAME:  ERN_F1101_NSCR_1993-01-26_B-ROLL BTS INTV DESR NEIL BONNETT IN GARAGE & TALKING FRIENDSHIP_1993-NAS-00005_S001.NEW.02 
*SOURCE FILE: ERN_F1101_NSCR_1993-01-26_B-ROLL BTS INTV DESR NEIL BONNETT IN GARAGE & TALKING FRIENDSHIP_1993-NAS-00005_S001
001908  ERN_F1101_NSCR_1993-01-26_B-ROLL_BTS_INTV_DESR_NEIL_BONNETT_IN_GARAGE_&_TALKING_FRIENDSHIP_1993-NAS-00005_S001                    A18   C        00:21:02:07 00:21:02:12 00:40:27:00 00:40:27:03 
M2      ERN_F1101_NSCR_1993-01-26_B-ROLL_BTS_INTV_DESR_NEIL_BONNETT_IN_GARAGE_&_TALKING_FRIENDSHIP_1993-NAS-00005_S001                             030.0 00:21:02:07 
*FROM CLIP NAME:  ERN_F1101_NSCR_1993-01-26_B-ROLL BTS INTV DESR NEIL BONNETT IN GARAGE & TALKING FRIENDSHIP_1993-NAS-00005_S001.NEW.02 
*SOURCE FILE: ERN_F1101_NSCR_1993-01-26_B-ROLL BTS INTV DESR NEIL BONNETT IN GARAGE & TALKING FRIENDSHIP_1993-NAS-00005_S001
001909  ERN_F1101_NSCR_1993-01-26_B-ROLL_BTS_INTV_DESR_NEIL_BONNETT_IN_GARAGE_&_TALKING_FRIENDSHIP_1993-NAS-00005_S001                    A18   C        00:21:05:26 00:21:05:29 00:40:27:03 00:40:27:05 
M2      ERN_F1101_NSCR_1993-01-26_B-ROLL_BTS_INTV_DESR_NEIL_BONNETT_IN_GARAGE_&_TALKING_FRIENDSHIP_1993-NAS-00005_S001                             030.0 00:21:05:26 
*FROM CLIP NAME:  ERN_F1101_NSCR_1993-01-26_B-ROLL BTS INTV DESR NEIL BONNETT IN GARAGE & TALKING FRIENDSHIP_1993-NAS-00005_S001.NEW.02 
*TO CLIP NAME:  ERN_F1101_NSCR_1993-01-26_B-ROLL BTS INTV DESR NEIL BONNETT IN GARAGE & TALKING FRIENDSHIP_1993-NAS-00005_S001.NEW.02 
*SOURCE FILE: ERN_F1101_NSCR_1993-01-26_B-ROLL BTS INTV DESR NEIL BONNETT IN GARAGE & TALKING FRIENDSHIP_1993-NAS-00005_S001
001910  ERN_F1065_NSCR_1992-05-11_RACE_B-ROLL_CHARLOTTE_NEIL_BONNETT_TEST_FOR_DESR_W_TONY_EURY_SR_&_KYLE_PETTY_72_BONNETT_TEST            A22   C        00:00:33:01 00:00:33:17 00:40:27:05 00:40:27:17 
M2      ERN_F1065_NSCR_1992-05-11_RACE_B-ROLL_CHARLOTTE_NEIL_BONNETT_TEST_FOR_DESR_W_TONY_EURY_SR_&_KYLE_PETTY_72_BONNETT_TEST                     030.0 00:00:33:01 
*FROM CLIP NAME:  ERN_F1065_NSCR_1992-05-11_RACE B-ROLL CHARLOTTE NEIL BONNETT TEST FOR DESR W TONY EURY SR & KYLE PETTY_72_BONNETT TEST.NEW.01 
*SOURCE FILE: ERN_F1065_NSCR_1992-05-11_RACE B-ROLL CHARLOTTE NEIL BONNETT TEST FOR DESR W TONY EURY SR & KYLE PETTY_72_BONNETT TEST
001911  ERN_F1101_NSCR_1993-01-26_B-ROLL_BTS_INTV_DESR_NEIL_BONNETT_IN_GARAGE_&_TALKING_FRIENDSHIP_1993-NAS-00005_S001                    A18   C        00:21:05:29 00:21:06:28 00:40:27:05 00:40:28:04 
M2      ERN_F1101_NSCR_1993-01-26_B-ROLL_BTS_INTV_DESR_NEIL_BONNETT_IN_GARAGE_&_TALKING_FRIENDSHIP_1993-NAS-00005_S001                             030.0 00:21:05:29 
*FROM CLIP NAME:  ERN_F1101_NSCR_1993-01-26_B-ROLL BTS INTV DESR NEIL BONNETT IN GARAGE & TALKING FRIENDSHIP_1993-NAS-00005_S001.NEW.02 
*SOURCE FILE: ERN_F1101_NSCR_1993-01-26_B-ROLL BTS INTV DESR NEIL BONNETT IN GARAGE & TALKING FRIENDSHIP_1993-NAS-00005_S001
001912  ERN_F1065_NSCR_1992-05-11_RACE_B-ROLL_CHARLOTTE_NEIL_BONNETT_TEST_FOR_DESR_W_TONY_EURY_SR_&_KYLE_PETTY_72_BONNETT_TEST            A22   C        00:00:33:16 00:00:35:02 00:40:27:17 00:40:29:05 
M2      ERN_F1065_NSCR_1992-05-11_RACE_B-ROLL_CHARLOTTE_NEIL_BONNETT_TEST_FOR_DESR_W_TONY_EURY_SR_&_KYLE_PETTY_72_BONNETT_TEST                     030.0 00:00:33:16 
*FROM CLIP NAME:  ERN_F1065_NSCR_1992-05-11_RACE B-ROLL CHARLOTTE NEIL BONNETT TEST FOR DESR W TONY EURY SR & KYLE PETTY_72_BONNETT TEST.NEW.01 
*TO CLIP NAME:  ERN_F1065_NSCR_1992-05-11_RACE B-ROLL CHARLOTTE NEIL BONNETT TEST FOR DESR W TONY EURY SR & KYLE PETTY_72_BONNETT TEST.NEW.01 
*SOURCE FILE: ERN_F1065_NSCR_1992-05-11_RACE B-ROLL CHARLOTTE NEIL BONNETT TEST FOR DESR W TONY EURY SR & KYLE PETTY_72_BONNETT TEST
001913  ERN_F1065_NSCR_1992-05-11_RACE_B-ROLL_CHARLOTTE_NEIL_BONNETT_TEST_FOR_DESR_W_TONY_EURY_SR_&_KYLE_PETTY_72_BONNETT_TEST            A22   C        00:00:35:01 00:00:35:08 00:40:29:05 00:40:29:10 
M2      ERN_F1065_NSCR_1992-05-11_RACE_B-ROLL_CHARLOTTE_NEIL_BONNETT_TEST_FOR_DESR_W_TONY_EURY_SR_&_KYLE_PETTY_72_BONNETT_TEST                     030.0 00:00:35:01 
*FROM CLIP NAME:  ERN_F1065_NSCR_1992-05-11_RACE B-ROLL CHARLOTTE NEIL BONNETT TEST FOR DESR W TONY EURY SR & KYLE PETTY_72_BONNETT TEST.NEW.01 
*SOURCE FILE: ERN_F1065_NSCR_1992-05-11_RACE B-ROLL CHARLOTTE NEIL BONNETT TEST FOR DESR W TONY EURY SR & KYLE PETTY_72_BONNETT TEST
001914  ERN_F1065_NSCR_1992-05-11_RACE_B-ROLL_CHARLOTTE_NEIL_BONNETT_TEST_FOR_DESR_W_TONY_EURY_SR_&_KYLE_PETTY_72_BONNETT_TEST            A22   C        00:01:04:00 00:01:06:00 00:40:29:10 00:40:31:10 
M2      ERN_F1065_NSCR_1992-05-11_RACE_B-ROLL_CHARLOTTE_NEIL_BONNETT_TEST_FOR_DESR_W_TONY_EURY_SR_&_KYLE_PETTY_72_BONNETT_TEST                     030.0 00:01:04:00 
*FROM CLIP NAME:  ERN_F1065_NSCR_1992-05-11_RACE B-ROLL CHARLOTTE NEIL BONNETT TEST FOR DESR W TONY EURY SR & KYLE PETTY_72_BONNETT TEST.NEW.01 
*TO CLIP NAME:  ERN_F1065_NSCR_1992-05-11_RACE B-ROLL CHARLOTTE NEIL BONNETT TEST FOR DESR W TONY EURY SR & KYLE PETTY_72_BONNETT TEST.NEW.01 
*SOURCE FILE: ERN_F1065_NSCR_1992-05-11_RACE B-ROLL CHARLOTTE NEIL BONNETT TEST FOR DESR W TONY EURY SR & KYLE PETTY_72_BONNETT TEST
001915  ERN_F1065_NSCR_1992-05-11_RACE_B-ROLL_CHARLOTTE_NEIL_BONNETT_TEST_FOR_DESR_W_TONY_EURY_SR_&_KYLE_PETTY_72_BONNETT_TEST            V     C        00:01:04:25 00:01:07:25 00:40:30:06 00:40:33:06 
M2      ERN_F1065_NSCR_1992-05-11_RACE_B-ROLL_CHARLOTTE_NEIL_BONNETT_TEST_FOR_DESR_W_TONY_EURY_SR_&_KYLE_PETTY_72_BONNETT_TEST                     030.0 00:01:04:25 
*FROM CLIP NAME:  ERN_F1065_NSCR_1992-05-11_RACE B-ROLL CHARLOTTE NEIL BONNETT TEST FOR DESR W TONY EURY SR & KYLE PETTY_72_BONNETT TEST.NEW.01 
*SOURCE FILE: ERN_F1065_NSCR_1992-05-11_RACE B-ROLL CHARLOTTE NEIL BONNETT TEST FOR DESR W TONY EURY SR & KYLE PETTY_72_BONNETT TEST
001916  ERN_F1065_NSCR_1992-05-11_RACE_B-ROLL_CHARLOTTE_NEIL_BONNETT_TEST_FOR_DESR_W_TONY_EURY_SR_&_KYLE_PETTY_72_BONNETT_TEST            A22   C        00:01:06:00 00:01:07:18 00:40:31:10 00:40:33:00 
M2      ERN_F1065_NSCR_1992-05-11_RACE_B-ROLL_CHARLOTTE_NEIL_BONNETT_TEST_FOR_DESR_W_TONY_EURY_SR_&_KYLE_PETTY_72_BONNETT_TEST                     030.0 00:01:06:00 
*FROM CLIP NAME:  ERN_F1065_NSCR_1992-05-11_RACE B-ROLL CHARLOTTE NEIL BONNETT TEST FOR DESR W TONY EURY SR & KYLE PETTY_72_BONNETT TEST.NEW.01 
*SOURCE FILE: ERN_F1065_NSCR_1992-05-11_RACE B-ROLL CHARLOTTE NEIL BONNETT TEST FOR DESR W TONY EURY SR & KYLE PETTY_72_BONNETT TEST
001917  ERN_F1065_NSCR_1992-05-11_RACE_B-ROLL_CHARLOTTE_NEIL_BONNETT_TEST_FOR_DESR_W_TONY_EURY_SR_&_KYLE_PETTY_72_BONNETT_TEST            A22   C        00:02:20:25 00:02:22:11 00:40:33:00 00:40:34:12 
M2      ERN_F1065_NSCR_1992-05-11_RACE_B-ROLL_CHARLOTTE_NEIL_BONNETT_TEST_FOR_DESR_W_TONY_EURY_SR_&_KYLE_PETTY_72_BONNETT_TEST                     030.0 00:02:20:25 
*FROM CLIP NAME:  ERN_F1065_NSCR_1992-05-11_RACE B-ROLL CHARLOTTE NEIL BONNETT TEST FOR DESR W TONY EURY SR & KYLE PETTY_72_BONNETT TEST.NEW.01 
*TO CLIP NAME:  ERN_F1065_NSCR_1992-05-11_RACE B-ROLL CHARLOTTE NEIL BONNETT TEST FOR DESR W TONY EURY SR & KYLE PETTY_72_BONNETT TEST.NEW.01 
*SOURCE FILE: ERN_F1065_NSCR_1992-05-11_RACE B-ROLL CHARLOTTE NEIL BONNETT TEST FOR DESR W TONY EURY SR & KYLE PETTY_72_BONNETT TEST
001918  ERN_F1065_NSCR_1992-05-11_RACE_B-ROLL_CHARLOTTE_NEIL_BONNETT_TEST_FOR_DESR_W_TONY_EURY_SR_&_KYLE_PETTY_72_BONNETT_TEST            V     C        00:14:14:11 00:14:21:11 00:40:33:06 00:40:40:05 
M2      ERN_F1065_NSCR_1992-05-11_RACE_B-ROLL_CHARLOTTE_NEIL_BONNETT_TEST_FOR_DESR_W_TONY_EURY_SR_&_KYLE_PETTY_72_BONNETT_TEST                     030.0 00:14:14:11 
*FROM CLIP NAME:  ERN_F1065_NSCR_1992-05-11_RACE B-ROLL CHARLOTTE NEIL BONNETT TEST FOR DESR W TONY EURY SR & KYLE PETTY_72_BONNETT TEST.NEW.01 
*SOURCE FILE: ERN_F1065_NSCR_1992-05-11_RACE B-ROLL CHARLOTTE NEIL BONNETT TEST FOR DESR W TONY EURY SR & KYLE PETTY_72_BONNETT TEST
001919  ERN_F1065_NSCR_1992-05-11_RACE_B-ROLL_CHARLOTTE_NEIL_BONNETT_TEST_FOR_DESR_W_TONY_EURY_SR_&_KYLE_PETTY_72_BONNETT_TEST            A22   C        00:02:22:10 00:02:22:12 00:40:34:12 00:40:34:13 
M2      ERN_F1065_NSCR_1992-05-11_RACE_B-ROLL_CHARLOTTE_NEIL_BONNETT_TEST_FOR_DESR_W_TONY_EURY_SR_&_KYLE_PETTY_72_BONNETT_TEST                     030.0 00:02:22:10 
*FROM CLIP NAME:  ERN_F1065_NSCR_1992-05-11_RACE B-ROLL CHARLOTTE NEIL BONNETT TEST FOR DESR W TONY EURY SR & KYLE PETTY_72_BONNETT TEST.NEW.01 
*SOURCE FILE: ERN_F1065_NSCR_1992-05-11_RACE B-ROLL CHARLOTTE NEIL BONNETT TEST FOR DESR W TONY EURY SR & KYLE PETTY_72_BONNETT TEST
001920  ERN_F1065_NSCR_1992-05-11_RACE_B-ROLL_CHARLOTTE_NEIL_BONNETT_TEST_FOR_DESR_W_TONY_EURY_SR_&_KYLE_PETTY_72_BONNETT_TEST            A22   C        00:02:22:12 00:02:25:12 00:40:34:13 00:40:37:13 
M2      ERN_F1065_NSCR_1992-05-11_RACE_B-ROLL_CHARLOTTE_NEIL_BONNETT_TEST_FOR_DESR_W_TONY_EURY_SR_&_KYLE_PETTY_72_BONNETT_TEST                     030.0 00:02:22:12 
*FROM CLIP NAME:  ERN_F1065_NSCR_1992-05-11_RACE B-ROLL CHARLOTTE NEIL BONNETT TEST FOR DESR W TONY EURY SR & KYLE PETTY_72_BONNETT TEST.NEW.01 
*TO CLIP NAME:  ERN_F1065_NSCR_1992-05-11_RACE B-ROLL CHARLOTTE NEIL BONNETT TEST FOR DESR W TONY EURY SR & KYLE PETTY_72_BONNETT TEST.NEW.01 
*SOURCE FILE: ERN_F1065_NSCR_1992-05-11_RACE B-ROLL CHARLOTTE NEIL BONNETT TEST FOR DESR W TONY EURY SR & KYLE PETTY_72_BONNETT TEST
001921  ERN_F1065_NSCR_1992-05-11_RACE_B-ROLL_CHARLOTTE_NEIL_BONNETT_TEST_FOR_DESR_W_TONY_EURY_SR_&_KYLE_PETTY_72_BONNETT_TEST            A20   C        00:05:46:25 00:05:49:26 00:40:37:03 00:40:40:03 
M2      ERN_F1065_NSCR_1992-05-11_RACE_B-ROLL_CHARLOTTE_NEIL_BONNETT_TEST_FOR_DESR_W_TONY_EURY_SR_&_KYLE_PETTY_72_BONNETT_TEST                     030.0 00:05:46:25 
*FROM CLIP NAME:  ERN_F1065_NSCR_1992-05-11_RACE B-ROLL CHARLOTTE NEIL BONNETT TEST FOR DESR W TONY EURY SR & KYLE PETTY_72_BONNETT TEST.NEW.01 
*SOURCE FILE: ERN_F1065_NSCR_1992-05-11_RACE B-ROLL CHARLOTTE NEIL BONNETT TEST FOR DESR W TONY EURY SR & KYLE PETTY_72_BONNETT TEST
001922  ERN_F1065_NSCR_1992-05-11_RACE_B-ROLL_CHARLOTTE_NEIL_BONNETT_TEST_FOR_DESR_W_TONY_EURY_SR_&_KYLE_PETTY_72_BONNETT_TEST            A22   C        00:02:25:12 00:02:26:02 00:40:37:13 00:40:38:05 
M2      ERN_F1065_NSCR_1992-05-11_RACE_B-ROLL_CHARLOTTE_NEIL_BONNETT_TEST_FOR_DESR_W_TONY_EURY_SR_&_KYLE_PETTY_72_BONNETT_TEST                     030.0 00:02:25:12 
*FROM CLIP NAME:  ERN_F1065_NSCR_1992-05-11_RACE B-ROLL CHARLOTTE NEIL BONNETT TEST FOR DESR W TONY EURY SR & KYLE PETTY_72_BONNETT TEST.NEW.01 
*SOURCE FILE: ERN_F1065_NSCR_1992-05-11_RACE B-ROLL CHARLOTTE NEIL BONNETT TEST FOR DESR W TONY EURY SR & KYLE PETTY_72_BONNETT TEST
001923  ERN_F1065_NSCR_1992-05-11_RACE_B-ROLL_CHARLOTTE_NEIL_BONNETT_TEST_FOR_DESR_W_TONY_EURY_SR_&_KYLE_PETTY_72_BONNETT_TEST            A20   C        00:05:49:25 00:05:54:27 00:40:40:03 00:40:45:04 
M2      ERN_F1065_NSCR_1992-05-11_RACE_B-ROLL_CHARLOTTE_NEIL_BONNETT_TEST_FOR_DESR_W_TONY_EURY_SR_&_KYLE_PETTY_72_BONNETT_TEST                     030.0 00:05:49:25 
*FROM CLIP NAME:  ERN_F1065_NSCR_1992-05-11_RACE B-ROLL CHARLOTTE NEIL BONNETT TEST FOR DESR W TONY EURY SR & KYLE PETTY_72_BONNETT TEST.NEW.01 
*SOURCE FILE: ERN_F1065_NSCR_1992-05-11_RACE B-ROLL CHARLOTTE NEIL BONNETT TEST FOR DESR W TONY EURY SR & KYLE PETTY_72_BONNETT TEST
001924  ERN_F1065_NSCR_1992-05-11_RACE_B-ROLL_CHARLOTTE_NEIL_BONNETT_TEST_FOR_DESR_W_TONY_EURY_SR_&_KYLE_PETTY_72_BONNETT_TEST            V     C        00:05:47:25 00:05:59:13 00:40:40:05 00:40:51:20 
M2      ERN_F1065_NSCR_1992-05-11_RACE_B-ROLL_CHARLOTTE_NEIL_BONNETT_TEST_FOR_DESR_W_TONY_EURY_SR_&_KYLE_PETTY_72_BONNETT_TEST                     029.9 00:05:47:25 
*FROM CLIP NAME:  ERN_F1065_NSCR_1992-05-11_RACE B-ROLL CHARLOTTE NEIL BONNETT TEST FOR DESR W TONY EURY SR & KYLE PETTY_72_BONNETT TEST.NEW.01 
*SOURCE FILE: ERN_F1065_NSCR_1992-05-11_RACE B-ROLL CHARLOTTE NEIL BONNETT TEST FOR DESR W TONY EURY SR & KYLE PETTY_72_BONNETT TEST
001925  ERN_F1065_NSCR_1992-05-11_RACE_B-ROLL_CHARLOTTE_NEIL_BONNETT_TEST_FOR_DESR_W_TONY_EURY_SR_&_KYLE_PETTY_72_BONNETT_TEST            A20   C        00:05:54:26 00:05:56:27 00:40:45:04 00:40:47:04 
M2      ERN_F1065_NSCR_1992-05-11_RACE_B-ROLL_CHARLOTTE_NEIL_BONNETT_TEST_FOR_DESR_W_TONY_EURY_SR_&_KYLE_PETTY_72_BONNETT_TEST                     030.0 00:05:54:26 
*FROM CLIP NAME:  ERN_F1065_NSCR_1992-05-11_RACE B-ROLL CHARLOTTE NEIL BONNETT TEST FOR DESR W TONY EURY SR & KYLE PETTY_72_BONNETT TEST.NEW.01 
*TO CLIP NAME:  ERN_F1065_NSCR_1992-05-11_RACE B-ROLL CHARLOTTE NEIL BONNETT TEST FOR DESR W TONY EURY SR & KYLE PETTY_72_BONNETT TEST.NEW.01 
*SOURCE FILE: ERN_F1065_NSCR_1992-05-11_RACE B-ROLL CHARLOTTE NEIL BONNETT TEST FOR DESR W TONY EURY SR & KYLE PETTY_72_BONNETT TEST
001926  ERN_F1065_NSCR_1992-05-11_RACE_B-ROLL_CHARLOTTE_NEIL_BONNETT_TEST_FOR_DESR_W_TONY_EURY_SR_&_KYLE_PETTY_72_BONNETT_TEST            A20   C        00:05:56:26 00:06:01:00 00:40:47:04 00:40:51:05 
M2      ERN_F1065_NSCR_1992-05-11_RACE_B-ROLL_CHARLOTTE_NEIL_BONNETT_TEST_FOR_DESR_W_TONY_EURY_SR_&_KYLE_PETTY_72_BONNETT_TEST                     030.0 00:05:56:26 
*FROM CLIP NAME:  ERN_F1065_NSCR_1992-05-11_RACE B-ROLL CHARLOTTE NEIL BONNETT TEST FOR DESR W TONY EURY SR & KYLE PETTY_72_BONNETT TEST.NEW.01 
*SOURCE FILE: ERN_F1065_NSCR_1992-05-11_RACE B-ROLL CHARLOTTE NEIL BONNETT TEST FOR DESR W TONY EURY SR & KYLE PETTY_72_BONNETT TEST
001927  F0515_YOUNG_JR_INTV_102_250225_VOICE.WAV                                                                                          A18   C        01:00:00:00 01:00:00:07 00:40:47:22 00:40:48:05 
*FROM CLIP NAME:  F0515_YOUNG JR INTV_102_250225_VOICE.WAV 
*SOURCE FILE: F0515_YOUNG JR INTV_102_250225_VOICE.WAV
001928  F0515_YOUNG_JR_INTV_102_250225_VOICE.WAV                                                                                          A18   C        01:00:00:11 01:00:00:13 00:40:48:05 00:40:48:07 
*FROM CLIP NAME:  F0515_YOUNG JR INTV_102_250225_VOICE.WAV 
*TO CLIP NAME:  F0515_YOUNG JR INTV_102_250225_VOICE.WAV 
*SOURCE FILE: F0515_YOUNG JR INTV_102_250225_VOICE.WAV
001929  F0515_YOUNG_JR_INTV_102_250225_VOICE.WAV                                                                                          A18   C        01:00:00:13 01:00:03:07 00:40:48:07 00:40:51:01 
*FROM CLIP NAME:  F0515_YOUNG JR INTV_102_250225_VOICE.WAV 
*SOURCE FILE: F0515_YOUNG JR INTV_102_250225_VOICE.WAV
001930  ERN_F8445_NSCR_1990-07-29_TALLADEGA-DIEHARD_500-RACE-FLYBYS-RICHARD_CHILDRESS_GOODWRENCH_PIT_CREW_CELEBRATING_CHOCOLATE_PICKS_UP_ A22   C        00:03:07:25 00:03:08:25 00:40:51:08 00:40:52:08 
M2      ERN_F8445_NSCR_1990-07-29_TALLADEGA-DIEHARD_500-RACE-FLYBYS-RICHARD_CHILDRESS_GOODWRENCH_PIT_CREW_CELEBRATING_CHOCOLATE_PICKS_UP_          030.0 00:03:07:25 
*FROM CLIP NAME:  ERN_F8445_NSCR_1990-07-29_TALLADEGA-DIEHARD 500-RACE-FLYBYS-RICHARD CHILDRESS GOODWRENCH PIT CREW CELEBRATING CHOCOLATE PICKS UP YOUNG DEJR DESR VICTORY LANE_90-EV-0340.NEW.01 
*SOURCE FILE: ERN_F8445_NSCR_1990-07-29_TALLADEGA-DIEHARD 500-RACE-FLYBYS-RICHARD CHILDRESS GOODWRENCH PIT CREW CELEBRATING CHOCOLATE PICKS UP YOUNG DEJR DESR VICTORY LANE_90-EV-0340
001931  ERN_F8445_NSCR_1990-07-29_TALLADEGA-DIEHARD_500-RACE-FLYBYS-RICHARD_CHILDRESS_GOODWRENCH_PIT_CREW_CELEBRATING_CHOCOLATE_PICKS_UP_ V     C        00:03:08:10 00:03:14:14 00:40:51:20 00:40:57:23 
M2      ERN_F8445_NSCR_1990-07-29_TALLADEGA-DIEHARD_500-RACE-FLYBYS-RICHARD_CHILDRESS_GOODWRENCH_PIT_CREW_CELEBRATING_CHOCOLATE_PICKS_UP_          030.0 00:03:08:10 
*FROM CLIP NAME:  ERN_F8445_NSCR_1990-07-29_TALLADEGA-DIEHARD 500-RACE-FLYBYS-RICHARD CHILDRESS GOODWRENCH PIT CREW CELEBRATING CHOCOLATE PICKS UP YOUNG DEJR DESR VICTORY LANE_90-EV-0340.NEW.01 
*SOURCE FILE: ERN_F8445_NSCR_1990-07-29_TALLADEGA-DIEHARD 500-RACE-FLYBYS-RICHARD CHILDRESS GOODWRENCH PIT CREW CELEBRATING CHOCOLATE PICKS UP YOUNG DEJR DESR VICTORY LANE_90-EV-0340
001932  ERN_F8445_NSCR_1990-07-29_TALLADEGA-DIEHARD_500-RACE-FLYBYS-RICHARD_CHILDRESS_GOODWRENCH_PIT_CREW_CELEBRATING_CHOCOLATE_PICKS_UP_ A22   C        00:03:08:25 00:03:13:29 00:40:52:08 00:40:57:11 
M2      ERN_F8445_NSCR_1990-07-29_TALLADEGA-DIEHARD_500-RACE-FLYBYS-RICHARD_CHILDRESS_GOODWRENCH_PIT_CREW_CELEBRATING_CHOCOLATE_PICKS_UP_          030.0 00:03:08:25 
*FROM CLIP NAME:  ERN_F8445_NSCR_1990-07-29_TALLADEGA-DIEHARD 500-RACE-FLYBYS-RICHARD CHILDRESS GOODWRENCH PIT CREW CELEBRATING CHOCOLATE PICKS UP YOUNG DEJR DESR VICTORY LANE_90-EV-0340.NEW.01 
*SOURCE FILE: ERN_F8445_NSCR_1990-07-29_TALLADEGA-DIEHARD 500-RACE-FLYBYS-RICHARD CHILDRESS GOODWRENCH PIT CREW CELEBRATING CHOCOLATE PICKS UP YOUNG DEJR DESR VICTORY LANE_90-EV-0340
001933  F0515_YOUNG_JR_INTV_102_250225_VOICE.WAV                                                                                          A18   C        01:00:06:16 01:00:06:19 00:40:52:16 00:40:52:19 
*FROM CLIP NAME:  F0515_YOUNG JR INTV_102_250225_VOICE.WAV 
*SOURCE FILE: F0515_YOUNG JR INTV_102_250225_VOICE.WAV
001934  F0515_YOUNG_JR_INTV_102_250225_VOICE.WAV                                                                                          A18   C        01:00:06:19 01:00:14:06 00:40:52:19 00:41:00:06 
*FROM CLIP NAME:  F0515_YOUNG JR INTV_102_250225_VOICE.WAV 
*SOURCE FILE: F0515_YOUNG JR INTV_102_250225_VOICE.WAV
001935  ERN_F0515_NSCR_1990S_B-ROLL_BTS_INTV_YOUNG_DALE_EARNHARDT_JR_AT_TRACK_W_DALE_EARNHARDT_TERESA_EARNHARDT__14141_DALEJR_KID         V     C        00:04:03:07 00:04:09:02 00:40:57:23 00:41:03:18 
M2      ERN_F0515_NSCR_1990S_B-ROLL_BTS_INTV_YOUNG_DALE_EARNHARDT_JR_AT_TRACK_W_DALE_EARNHARDT_TERESA_EARNHARDT__14141_DALEJR_KID                  030.0 00:04:03:07 
*FROM CLIP NAME:  ERN_F0515_NSCR_1990S_B-ROLL BTS INTV YOUNG DALE EARNHARDT JR AT TRACK W DALE EARNHARDT TERESA EARNHARDT _14141_DALEJR_KID.NEW.01 
*SOURCE FILE: ERN_F0515_NSCR_1990S_B-ROLL BTS INTV YOUNG DALE EARNHARDT JR AT TRACK W DALE EARNHARDT TERESA EARNHARDT _14141_DALEJR_KID
001936  ERN_F0515_NSCR_1990S_B-ROLL_BTS_INTV_YOUNG_DALE_EARNHARDT_JR_AT_TRACK_W_DALE_EARNHARDT_TERESA_EARNHARDT__14141_DALEJR_KID         A20   C        00:06:46:12 00:06:47:05 00:41:00:15 00:41:01:09 
M2      ERN_F0515_NSCR_1990S_B-ROLL_BTS_INTV_YOUNG_DALE_EARNHARDT_JR_AT_TRACK_W_DALE_EARNHARDT_TERESA_EARNHARDT__14141_DALEJR_KID                  030.0 00:06:46:12 
*FROM CLIP NAME:  ERN_F0515_NSCR_1990S_B-ROLL BTS INTV YOUNG DALE EARNHARDT JR AT TRACK W DALE EARNHARDT TERESA EARNHARDT _14141_DALEJR_KID.NEW.01 
*SOURCE FILE: ERN_F0515_NSCR_1990S_B-ROLL BTS INTV YOUNG DALE EARNHARDT JR AT TRACK W DALE EARNHARDT TERESA EARNHARDT _14141_DALEJR_KID
001937  102_F0515_YOUNG_DEJR_BITE_VOICE_SPLIT_BY_LALALAI.WAV                                                                              A18   C        01:00:21:23 01:00:22:11 00:41:01:09 00:41:01:21 
*FROM CLIP NAME:  102_F0515_YOUNG DEJR_BITE_VOICE_SPLIT_BY_LALALAI.WAV 
*SOURCE FILE: 102_F0515_YOUNG DEJR_BITE_VOICE_SPLIT_BY_LALALAI.WAV
001938  ERN_F0515_NSCR_1990S_B-ROLL_BTS_INTV_YOUNG_DALE_EARNHARDT_JR_AT_TRACK_W_DALE_EARNHARDT_TERESA_EARNHARDT__14141_DALEJR_KID         A20   C        00:07:13:03 00:07:13:19 00:41:01:09 00:41:01:21 
M2      ERN_F0515_NSCR_1990S_B-ROLL_BTS_INTV_YOUNG_DALE_EARNHARDT_JR_AT_TRACK_W_DALE_EARNHARDT_TERESA_EARNHARDT__14141_DALEJR_KID                  030.0 00:07:13:03 
*FROM CLIP NAME:  ERN_F0515_NSCR_1990S_B-ROLL BTS INTV YOUNG DALE EARNHARDT JR AT TRACK W DALE EARNHARDT TERESA EARNHARDT _14141_DALEJR_KID.NEW.01 
*TO CLIP NAME:  ERN_F0515_NSCR_1990S_B-ROLL BTS INTV YOUNG DALE EARNHARDT JR AT TRACK W DALE EARNHARDT TERESA EARNHARDT _14141_DALEJR_KID.NEW.01 
*SOURCE FILE: ERN_F0515_NSCR_1990S_B-ROLL BTS INTV YOUNG DALE EARNHARDT JR AT TRACK W DALE EARNHARDT TERESA EARNHARDT _14141_DALEJR_KID
001939  102_F0515_YOUNG_DEJR_BITE_VOICE_SPLIT_BY_LALALAI.WAV                                                                              A18   C        01:00:22:11 01:00:29:17 00:41:01:21 00:41:09:03 
*FROM CLIP NAME:  102_F0515_YOUNG DEJR_BITE_VOICE_SPLIT_BY_LALALAI.WAV 
*SOURCE FILE: 102_F0515_YOUNG DEJR_BITE_VOICE_SPLIT_BY_LALALAI.WAV
001940  ERN_F0515_NSCR_1990S_B-ROLL_BTS_INTV_YOUNG_DALE_EARNHARDT_JR_AT_TRACK_W_DALE_EARNHARDT_TERESA_EARNHARDT__14141_DALEJR_KID         A20   C        00:07:13:18 00:07:21:08 00:41:01:21 00:41:09:12 
M2      ERN_F0515_NSCR_1990S_B-ROLL_BTS_INTV_YOUNG_DALE_EARNHARDT_JR_AT_TRACK_W_DALE_EARNHARDT_TERESA_EARNHARDT__14141_DALEJR_KID                  030.0 00:07:13:18 
*FROM CLIP NAME:  ERN_F0515_NSCR_1990S_B-ROLL BTS INTV YOUNG DALE EARNHARDT JR AT TRACK W DALE EARNHARDT TERESA EARNHARDT _14141_DALEJR_KID.NEW.01 
*SOURCE FILE: ERN_F0515_NSCR_1990S_B-ROLL BTS INTV YOUNG DALE EARNHARDT JR AT TRACK W DALE EARNHARDT TERESA EARNHARDT _14141_DALEJR_KID
001941  ERN_F0515_NSCR_1990S_B-ROLL_BTS_INTV_YOUNG_DALE_EARNHARDT_JR_AT_TRACK_W_DALE_EARNHARDT_TERESA_EARNHARDT__14141_DALEJR_KID         V     C        00:07:15:15 00:07:20:25 00:41:03:18 00:41:09:02 
M2      ERN_F0515_NSCR_1990S_B-ROLL_BTS_INTV_YOUNG_DALE_EARNHARDT_JR_AT_TRACK_W_DALE_EARNHARDT_TERESA_EARNHARDT__14141_DALEJR_KID                  030.0 00:07:15:15 
*FROM CLIP NAME:  ERN_F0515_NSCR_1990S_B-ROLL BTS INTV YOUNG DALE EARNHARDT JR AT TRACK W DALE EARNHARDT TERESA EARNHARDT _14141_DALEJR_KID.NEW.01 
*SOURCE FILE: ERN_F0515_NSCR_1990S_B-ROLL BTS INTV YOUNG DALE EARNHARDT JR AT TRACK W DALE EARNHARDT TERESA EARNHARDT _14141_DALEJR_KID
001942  ERN_F8445_NSCR_1990-07-29_TALLADEGA-DIEHARD_500-RACE-FLYBYS-RICHARD_CHILDRESS_GOODWRENCH_PIT_CREW_CELEBRATING_CHOCOLATE_PICKS_UP_ A22   C        00:01:55:17 00:01:57:03 00:41:08:02 00:41:09:14 
M2      ERN_F8445_NSCR_1990-07-29_TALLADEGA-DIEHARD_500-RACE-FLYBYS-RICHARD_CHILDRESS_GOODWRENCH_PIT_CREW_CELEBRATING_CHOCOLATE_PICKS_UP_          030.0 00:01:55:17 
*FROM CLIP NAME:  ERN_F8445_NSCR_1990-07-29_TALLADEGA-DIEHARD 500-RACE-FLYBYS-RICHARD CHILDRESS GOODWRENCH PIT CREW CELEBRATING CHOCOLATE PICKS UP YOUNG DEJR DESR VICTORY LANE_90-EV-0340.NEW.01 
*SOURCE FILE: ERN_F8445_NSCR_1990-07-29_TALLADEGA-DIEHARD 500-RACE-FLYBYS-RICHARD CHILDRESS GOODWRENCH PIT CREW CELEBRATING CHOCOLATE PICKS UP YOUNG DEJR DESR VICTORY LANE_90-EV-0340
001943  ERN_F8445_NSCR_1990-07-29_TALLADEGA-DIEHARD_500-RACE-FLYBYS-RICHARD_CHILDRESS_GOODWRENCH_PIT_CREW_CELEBRATING_CHOCOLATE_PICKS_UP_ V     C        00:01:56:17 00:02:02:12 00:41:09:02 00:41:14:20 
M2      ERN_F8445_NSCR_1990-07-29_TALLADEGA-DIEHARD_500-RACE-FLYBYS-RICHARD_CHILDRESS_GOODWRENCH_PIT_CREW_CELEBRATING_CHOCOLATE_PICKS_UP_          030.0 00:01:56:17 
*FROM CLIP NAME:  ERN_F8445_NSCR_1990-07-29_TALLADEGA-DIEHARD 500-RACE-FLYBYS-RICHARD CHILDRESS GOODWRENCH PIT CREW CELEBRATING CHOCOLATE PICKS UP YOUNG DEJR DESR VICTORY LANE_90-EV-0340.NEW.01 
*SOURCE FILE: ERN_F8445_NSCR_1990-07-29_TALLADEGA-DIEHARD 500-RACE-FLYBYS-RICHARD CHILDRESS GOODWRENCH PIT CREW CELEBRATING CHOCOLATE PICKS UP YOUNG DEJR DESR VICTORY LANE_90-EV-0340
001944  102_F0515_YOUNG_DEJR_BITE_VOICE_SPLIT_BY_LALALAI.WAV                                                                              A18   C        01:00:29:17 01:00:30:07 00:41:09:03 00:41:09:17 
*FROM CLIP NAME:  102_F0515_YOUNG DEJR_BITE_VOICE_SPLIT_BY_LALALAI.WAV 
*TO CLIP NAME:  102_F0515_YOUNG DEJR_BITE_VOICE_SPLIT_BY_LALALAI.WAV 
*SOURCE FILE: 102_F0515_YOUNG DEJR_BITE_VOICE_SPLIT_BY_LALALAI.WAV
001945  ERN_F0515_NSCR_1990S_B-ROLL_BTS_INTV_YOUNG_DALE_EARNHARDT_JR_AT_TRACK_W_DALE_EARNHARDT_TERESA_EARNHARDT__14141_DALEJR_KID         A20   C        00:07:25:07 00:07:25:13 00:41:09:12 00:41:09:16 
M2      ERN_F0515_NSCR_1990S_B-ROLL_BTS_INTV_YOUNG_DALE_EARNHARDT_JR_AT_TRACK_W_DALE_EARNHARDT_TERESA_EARNHARDT__14141_DALEJR_KID                  030.0 00:07:25:07 
*FROM CLIP NAME:  ERN_F0515_NSCR_1990S_B-ROLL BTS INTV YOUNG DALE EARNHARDT JR AT TRACK W DALE EARNHARDT TERESA EARNHARDT _14141_DALEJR_KID.NEW.01 
*TO CLIP NAME:  ERN_F0515_NSCR_1990S_B-ROLL BTS INTV YOUNG DALE EARNHARDT JR AT TRACK W DALE EARNHARDT TERESA EARNHARDT _14141_DALEJR_KID.NEW.01 
*SOURCE FILE: ERN_F0515_NSCR_1990S_B-ROLL BTS INTV YOUNG DALE EARNHARDT JR AT TRACK W DALE EARNHARDT TERESA EARNHARDT _14141_DALEJR_KID
001946  ERN_F8445_NSCR_1990-07-29_TALLADEGA-DIEHARD_500-RACE-FLYBYS-RICHARD_CHILDRESS_GOODWRENCH_PIT_CREW_CELEBRATING_CHOCOLATE_PICKS_UP_ A22   C        00:01:57:02 00:02:01:07 00:41:09:14 00:41:13:16 
M2      ERN_F8445_NSCR_1990-07-29_TALLADEGA-DIEHARD_500-RACE-FLYBYS-RICHARD_CHILDRESS_GOODWRENCH_PIT_CREW_CELEBRATING_CHOCOLATE_PICKS_UP_          030.0 00:01:57:02 
*FROM CLIP NAME:  ERN_F8445_NSCR_1990-07-29_TALLADEGA-DIEHARD 500-RACE-FLYBYS-RICHARD CHILDRESS GOODWRENCH PIT CREW CELEBRATING CHOCOLATE PICKS UP YOUNG DEJR DESR VICTORY LANE_90-EV-0340.NEW.01 
*SOURCE FILE: ERN_F8445_NSCR_1990-07-29_TALLADEGA-DIEHARD 500-RACE-FLYBYS-RICHARD CHILDRESS GOODWRENCH PIT CREW CELEBRATING CHOCOLATE PICKS UP YOUNG DEJR DESR VICTORY LANE_90-EV-0340
001947  ERN_F0515_NSCR_1990S_B-ROLL_BTS_INTV_YOUNG_DALE_EARNHARDT_JR_AT_TRACK_W_DALE_EARNHARDT_TERESA_EARNHARDT__14141_DALEJR_KID         A20   C        00:07:25:12 00:07:26:18 00:41:09:16 00:41:10:20 
M2      ERN_F0515_NSCR_1990S_B-ROLL_BTS_INTV_YOUNG_DALE_EARNHARDT_JR_AT_TRACK_W_DALE_EARNHARDT_TERESA_EARNHARDT__14141_DALEJR_KID                  030.0 00:07:25:12 
*FROM CLIP NAME:  ERN_F0515_NSCR_1990S_B-ROLL BTS INTV YOUNG DALE EARNHARDT JR AT TRACK W DALE EARNHARDT TERESA EARNHARDT _14141_DALEJR_KID.NEW.01 
*SOURCE FILE: ERN_F0515_NSCR_1990S_B-ROLL BTS INTV YOUNG DALE EARNHARDT JR AT TRACK W DALE EARNHARDT TERESA EARNHARDT _14141_DALEJR_KID
001948  102_F0515_YOUNG_DEJR_BITE_VOICE_SPLIT_BY_LALALAI.WAV                                                                              A18   C        01:00:30:07 01:00:32:04 00:41:09:17 00:41:11:14 
*FROM CLIP NAME:  102_F0515_YOUNG DEJR_BITE_VOICE_SPLIT_BY_LALALAI.WAV 
*SOURCE FILE: 102_F0515_YOUNG DEJR_BITE_VOICE_SPLIT_BY_LALALAI.WAV
001949  ERN_F0515_NSCR_1990S_B-ROLL_BTS_INTV_YOUNG_DALE_EARNHARDT_JR_AT_TRACK_W_DALE_EARNHARDT_TERESA_EARNHARDT__14141_DALEJR_KID         A20   C        00:06:45:22 00:06:46:15 00:41:10:20 00:41:11:14 
M2      ERN_F0515_NSCR_1990S_B-ROLL_BTS_INTV_YOUNG_DALE_EARNHARDT_JR_AT_TRACK_W_DALE_EARNHARDT_TERESA_EARNHARDT__14141_DALEJR_KID                  030.0 00:06:45:22 
*FROM CLIP NAME:  ERN_F0515_NSCR_1990S_B-ROLL BTS INTV YOUNG DALE EARNHARDT JR AT TRACK W DALE EARNHARDT TERESA EARNHARDT _14141_DALEJR_KID.NEW.01 
*TO CLIP NAME:  ERN_F0515_NSCR_1990S_B-ROLL BTS INTV YOUNG DALE EARNHARDT JR AT TRACK W DALE EARNHARDT TERESA EARNHARDT _14141_DALEJR_KID.NEW.01 
*SOURCE FILE: ERN_F0515_NSCR_1990S_B-ROLL BTS INTV YOUNG DALE EARNHARDT JR AT TRACK W DALE EARNHARDT TERESA EARNHARDT _14141_DALEJR_KID
001950  ERN_F0026_NSCR_1984_TNN_PROFILE_THE_GREAT_DRIVERS_DALE_EARNHARDT_YOUTUBE                                                          A18   C        00:17:43:28 00:17:44:07 00:41:13:19 00:41:14:01 
M2      ERN_F0026_NSCR_1984_TNN_PROFILE_THE_GREAT_DRIVERS_DALE_EARNHARDT_YOUTUBE                                                                   030.0 00:17:43:28 
*FROM CLIP NAME:  ERN_F0026_NSCR_1984_TNN PROFILE THE GREAT DRIVERS DALE EARNHARDT_YOUTUBE.NEW.01 
*SOURCE FILE: ERN_F0026_NSCR_1984_TNN PROFILE THE GREAT DRIVERS DALE EARNHARDT_YOUTUBE
001951  ERN_F0026_NSCR_1984_TNN_PROFILE_THE_GREAT_DRIVERS_DALE_EARNHARDT_YOUTUBE                                                          A18   C        00:17:44:06 00:17:45:03 00:41:14:01 00:41:14:22 
M2      ERN_F0026_NSCR_1984_TNN_PROFILE_THE_GREAT_DRIVERS_DALE_EARNHARDT_YOUTUBE                                                                   030.0 00:17:44:06 
*FROM CLIP NAME:  ERN_F0026_NSCR_1984_TNN PROFILE THE GREAT DRIVERS DALE EARNHARDT_YOUTUBE.NEW.01 
*SOURCE FILE: ERN_F0026_NSCR_1984_TNN PROFILE THE GREAT DRIVERS DALE EARNHARDT_YOUTUBE
001952  ERN_S0959_DEJR_1980S_DESR_W_DEJR_&_KEN_SCHRADER_IMG_2311.JPG                                                                      V     C        01:00:01:20 01:00:07:03 00:41:14:20 00:41:20:03 
*FROM CLIP NAME:  ERN_S0959_DEJR_1980S_DESR W DEJR & KEN SCHRADER_IMG_2311.JPG 
*SOURCE FILE: ERN_S0959_DEJR_1980S_DESR W DEJR & KEN SCHRADER_IMG_2311.JPG
001953  ERN_F0026_NSCR_1984_TNN_PROFILE_THE_GREAT_DRIVERS_DALE_EARNHARDT_YOUTUBE                                                          A18   C        00:17:45:20 00:17:45:25 00:41:14:22 00:41:15:02 
M2      ERN_F0026_NSCR_1984_TNN_PROFILE_THE_GREAT_DRIVERS_DALE_EARNHARDT_YOUTUBE                                                                   030.0 00:17:45:20 
*FROM CLIP NAME:  ERN_F0026_NSCR_1984_TNN PROFILE THE GREAT DRIVERS DALE EARNHARDT_YOUTUBE.NEW.01 
*TO CLIP NAME:  ERN_F0026_NSCR_1984_TNN PROFILE THE GREAT DRIVERS DALE EARNHARDT_YOUTUBE.NEW.01 
*SOURCE FILE: ERN_F0026_NSCR_1984_TNN PROFILE THE GREAT DRIVERS DALE EARNHARDT_YOUTUBE
001954  ERN_F0026_NSCR_1984_TNN_PROFILE_THE_GREAT_DRIVERS_DALE_EARNHARDT_YOUTUBE                                                          A18   C        00:17:45:25 00:17:48:05 00:41:15:02 00:41:17:10 
M2      ERN_F0026_NSCR_1984_TNN_PROFILE_THE_GREAT_DRIVERS_DALE_EARNHARDT_YOUTUBE                                                                   030.0 00:17:45:25 
*FROM CLIP NAME:  ERN_F0026_NSCR_1984_TNN PROFILE THE GREAT DRIVERS DALE EARNHARDT_YOUTUBE.NEW.01 
*SOURCE FILE: ERN_F0026_NSCR_1984_TNN PROFILE THE GREAT DRIVERS DALE EARNHARDT_YOUTUBE
001955  ERN_F0026_NSCR_1984_TNN_PROFILE_THE_GREAT_DRIVERS_DALE_EARNHARDT_YOUTUBE                                                          A18   C        00:17:48:23 00:17:51:08 00:41:17:10 00:41:19:21 
M2      ERN_F0026_NSCR_1984_TNN_PROFILE_THE_GREAT_DRIVERS_DALE_EARNHARDT_YOUTUBE                                                                   030.0 00:17:48:23 
*FROM CLIP NAME:  ERN_F0026_NSCR_1984_TNN PROFILE THE GREAT DRIVERS DALE EARNHARDT_YOUTUBE.NEW.01 
*SOURCE FILE: ERN_F0026_NSCR_1984_TNN PROFILE THE GREAT DRIVERS DALE EARNHARDT_YOUTUBE
001956  ERN_S5982_DEJR_1950S-1960S_RALPH_DESR_AND_BROTHER_POSE_IN_FRONT_OF_NO8_CAR_IN_YARD_IMG20241004_12131077_M.JPG                     V     C        01:00:00:00 01:00:04:23 00:41:20:03 00:41:25:02 
*FROM CLIP NAME:  ERN_S5982_DEJR_1950S-1960S_RALPH DESR AND BROTHER POSE IN FRONT OF NO8 CAR IN YARD_IMG20241004_12131077_M.JPG 
*SOURCE FILE: ERN_S5982_DEJR_1950S-1960S_RALPH DESR AND BROTHER POSE IN FRONT OF NO8 CAR IN YARD_IMG20241004_12131077_M.JPG
001957  ERN_F0812_NSCR_1990S_INTV_DESR_TOPICS-GROWING_UP_IN_KANNAPOLIS_&_RALPH_&_KIDS_RACING_-_UNRIVALED_DOC_RAW_11728_S001               A18   C        10:32:38:08 10:32:38:14 00:41:20:23 00:41:21:03 
M2      ERN_F0812_NSCR_1990S_INTV_DESR_TOPICS-GROWING_UP_IN_KANNAPOLIS_&_RALPH_&_KIDS_RACING_-_UNRIVALED_DOC_RAW_11728_S001                        030.0 10:32:38:08 
*FROM CLIP NAME:  ERN_F0812_NSCR_1990S_INTV DESR TOPICS-GROWING UP IN KANNAPOLIS & RALPH & KIDS RACING - UNRIVALED DOC RAW_11728_S001.NEW.01 
*SOURCE FILE: ERN_F0812_NSCR_1990S_INTV DESR TOPICS-GROWING UP IN KANNAPOLIS & RALPH & KIDS RACING - UNRIVALED DOC RAW_11728_S001
001958  ERN_F0812_NSCR_1990S_INTV_DESR_TOPICS-GROWING_UP_IN_KANNAPOLIS_&_RALPH_&_KIDS_RACING_-_UNRIVALED_DOC_RAW_11728_S001               A18   C        10:32:38:13 10:32:41:18 00:41:21:03 00:41:24:06 
M2      ERN_F0812_NSCR_1990S_INTV_DESR_TOPICS-GROWING_UP_IN_KANNAPOLIS_&_RALPH_&_KIDS_RACING_-_UNRIVALED_DOC_RAW_11728_S001                        030.0 10:32:38:13 
*FROM CLIP NAME:  ERN_F0812_NSCR_1990S_INTV DESR TOPICS-GROWING UP IN KANNAPOLIS & RALPH & KIDS RACING - UNRIVALED DOC RAW_11728_S001.NEW.01 
*SOURCE FILE: ERN_F0812_NSCR_1990S_INTV DESR TOPICS-GROWING UP IN KANNAPOLIS & RALPH & KIDS RACING - UNRIVALED DOC RAW_11728_S001
001959  ERN_F0515_NSCR_1990S_B-ROLL_BTS_INTV_YOUNG_DALE_EARNHARDT_JR_AT_TRACK_W_DALE_EARNHARDT_TERESA_EARNHARDT__14141_DALEJR_KID         A20   C        00:01:50:12 00:01:53:13 00:41:23:21 00:41:26:21 
M2      ERN_F0515_NSCR_1990S_B-ROLL_BTS_INTV_YOUNG_DALE_EARNHARDT_JR_AT_TRACK_W_DALE_EARNHARDT_TERESA_EARNHARDT__14141_DALEJR_KID                  030.0 00:01:50:12 
*FROM CLIP NAME:  ERN_F0515_NSCR_1990S_B-ROLL BTS INTV YOUNG DALE EARNHARDT JR AT TRACK W DALE EARNHARDT TERESA EARNHARDT _14141_DALEJR_KID.NEW.01 
*SOURCE FILE: ERN_F0515_NSCR_1990S_B-ROLL BTS INTV YOUNG DALE EARNHARDT JR AT TRACK W DALE EARNHARDT TERESA EARNHARDT _14141_DALEJR_KID
001960  ERN_F0515_NSCR_1990S_B-ROLL_BTS_INTV_YOUNG_DALE_EARNHARDT_JR_AT_TRACK_W_DALE_EARNHARDT_TERESA_EARNHARDT__14141_DALEJR_KID         V     C        00:02:22:01 00:02:30:05 00:41:25:02 00:41:33:05 
M2      ERN_F0515_NSCR_1990S_B-ROLL_BTS_INTV_YOUNG_DALE_EARNHARDT_JR_AT_TRACK_W_DALE_EARNHARDT_TERESA_EARNHARDT__14141_DALEJR_KID                  030.0 00:02:22:01 
*FROM CLIP NAME:  ERN_F0515_NSCR_1990S_B-ROLL BTS INTV YOUNG DALE EARNHARDT JR AT TRACK W DALE EARNHARDT TERESA EARNHARDT _14141_DALEJR_KID.NEW.01 
*SOURCE FILE: ERN_F0515_NSCR_1990S_B-ROLL BTS INTV YOUNG DALE EARNHARDT JR AT TRACK W DALE EARNHARDT TERESA EARNHARDT _14141_DALEJR_KID
001961  ERN_F0026_NSCR_1984_TNN_PROFILE_THE_GREAT_DRIVERS_DALE_EARNHARDT_YOUTUBE                                                          A18   C        00:18:20:27 00:18:21:03 00:41:25:19 00:41:25:23 
M2      ERN_F0026_NSCR_1984_TNN_PROFILE_THE_GREAT_DRIVERS_DALE_EARNHARDT_YOUTUBE                                                                   030.0 00:18:20:27 
*FROM CLIP NAME:  ERN_F0026_NSCR_1984_TNN PROFILE THE GREAT DRIVERS DALE EARNHARDT_YOUTUBE.NEW.01 
*SOURCE FILE: ERN_F0026_NSCR_1984_TNN PROFILE THE GREAT DRIVERS DALE EARNHARDT_YOUTUBE
001962  ERN_F0026_NSCR_1984_TNN_PROFILE_THE_GREAT_DRIVERS_DALE_EARNHARDT_YOUTUBE                                                          A18   C        00:18:21:02 00:18:26:03 00:41:25:23 00:41:30:23 
M2      ERN_F0026_NSCR_1984_TNN_PROFILE_THE_GREAT_DRIVERS_DALE_EARNHARDT_YOUTUBE                                                                   030.0 00:18:21:02 
*FROM CLIP NAME:  ERN_F0026_NSCR_1984_TNN PROFILE THE GREAT DRIVERS DALE EARNHARDT_YOUTUBE.NEW.01 
*SOURCE FILE: ERN_F0026_NSCR_1984_TNN PROFILE THE GREAT DRIVERS DALE EARNHARDT_YOUTUBE
001963  ERN_F0515_NSCR_1990S_B-ROLL_BTS_INTV_YOUNG_DALE_EARNHARDT_JR_AT_TRACK_W_DALE_EARNHARDT_TERESA_EARNHARDT__14141_DALEJR_KID         A20   C        00:01:53:12 00:01:58:02 00:41:26:21 00:41:31:12 
M2      ERN_F0515_NSCR_1990S_B-ROLL_BTS_INTV_YOUNG_DALE_EARNHARDT_JR_AT_TRACK_W_DALE_EARNHARDT_TERESA_EARNHARDT__14141_DALEJR_KID                  030.0 00:01:53:12 
*FROM CLIP NAME:  ERN_F0515_NSCR_1990S_B-ROLL BTS INTV YOUNG DALE EARNHARDT JR AT TRACK W DALE EARNHARDT TERESA EARNHARDT _14141_DALEJR_KID.NEW.01 
*SOURCE FILE: ERN_F0515_NSCR_1990S_B-ROLL BTS INTV YOUNG DALE EARNHARDT JR AT TRACK W DALE EARNHARDT TERESA EARNHARDT _14141_DALEJR_KID
001964  ERN_F0515_NSCR_1990S_B-ROLL_BTS_INTV_YOUNG_DALE_EARNHARDT_JR_AT_TRACK_W_DALE_EARNHARDT_TERESA_EARNHARDT__14141_DALEJR_KID         A18   C        00:02:12:08 00:02:13:09 00:41:37:22 00:41:38:22 
M2      ERN_F0515_NSCR_1990S_B-ROLL_BTS_INTV_YOUNG_DALE_EARNHARDT_JR_AT_TRACK_W_DALE_EARNHARDT_TERESA_EARNHARDT__14141_DALEJR_KID                  030.0 00:02:12:08 
*FROM CLIP NAME:  ERN_F0515_NSCR_1990S_B-ROLL BTS INTV YOUNG DALE EARNHARDT JR AT TRACK W DALE EARNHARDT TERESA EARNHARDT _14141_DALEJR_KID.NEW.01 
*SOURCE FILE: ERN_F0515_NSCR_1990S_B-ROLL BTS INTV YOUNG DALE EARNHARDT JR AT TRACK W DALE EARNHARDT TERESA EARNHARDT _14141_DALEJR_KID
001965  ERN_F0515_NSCR_1990S_B-ROLL_BTS_INTV_YOUNG_DALE_EARNHARDT_JR_AT_TRACK_W_DALE_EARNHARDT_TERESA_EARNHARDT__14141_DALEJR_KID         V     C        00:02:12:23 00:02:16:13 00:41:38:10 00:41:42:01 
M2      ERN_F0515_NSCR_1990S_B-ROLL_BTS_INTV_YOUNG_DALE_EARNHARDT_JR_AT_TRACK_W_DALE_EARNHARDT_TERESA_EARNHARDT__14141_DALEJR_KID                  030.0 00:02:12:23 
*FROM CLIP NAME:  ERN_F0515_NSCR_1990S_B-ROLL BTS INTV YOUNG DALE EARNHARDT JR AT TRACK W DALE EARNHARDT TERESA EARNHARDT _14141_DALEJR_KID.NEW.01 
*SOURCE FILE: ERN_F0515_NSCR_1990S_B-ROLL BTS INTV YOUNG DALE EARNHARDT JR AT TRACK W DALE EARNHARDT TERESA EARNHARDT _14141_DALEJR_KID
001966  ERN_F0515_NSCR_1990S_B-ROLL_BTS_INTV_YOUNG_DALE_EARNHARDT_JR_AT_TRACK_W_DALE_EARNHARDT_TERESA_EARNHARDT__14141_DALEJR_KID         A18   C        00:02:13:08 00:02:14:22 00:41:38:22 00:41:40:08 
M2      ERN_F0515_NSCR_1990S_B-ROLL_BTS_INTV_YOUNG_DALE_EARNHARDT_JR_AT_TRACK_W_DALE_EARNHARDT_TERESA_EARNHARDT__14141_DALEJR_KID                  030.0 00:02:13:08 
*FROM CLIP NAME:  ERN_F0515_NSCR_1990S_B-ROLL BTS INTV YOUNG DALE EARNHARDT JR AT TRACK W DALE EARNHARDT TERESA EARNHARDT _14141_DALEJR_KID.NEW.01 
*TO CLIP NAME:  ERN_F0515_NSCR_1990S_B-ROLL BTS INTV YOUNG DALE EARNHARDT JR AT TRACK W DALE EARNHARDT TERESA EARNHARDT _14141_DALEJR_KID.NEW.01 
*SOURCE FILE: ERN_F0515_NSCR_1990S_B-ROLL BTS INTV YOUNG DALE EARNHARDT JR AT TRACK W DALE EARNHARDT TERESA EARNHARDT _14141_DALEJR_KID
001967  ERN_F0515_NSCR_1990S_B-ROLL_BTS_INTV_YOUNG_DALE_EARNHARDT_JR_AT_TRACK_W_DALE_EARNHARDT_TERESA_EARNHARDT__14141_DALEJR_KID         A18   C        00:02:14:21 00:02:18:24 00:41:40:08 00:41:44:10 
M2      ERN_F0515_NSCR_1990S_B-ROLL_BTS_INTV_YOUNG_DALE_EARNHARDT_JR_AT_TRACK_W_DALE_EARNHARDT_TERESA_EARNHARDT__14141_DALEJR_KID                  030.0 00:02:14:21 
*FROM CLIP NAME:  ERN_F0515_NSCR_1990S_B-ROLL BTS INTV YOUNG DALE EARNHARDT JR AT TRACK W DALE EARNHARDT TERESA EARNHARDT _14141_DALEJR_KID.NEW.01 
*SOURCE FILE: ERN_F0515_NSCR_1990S_B-ROLL BTS INTV YOUNG DALE EARNHARDT JR AT TRACK W DALE EARNHARDT TERESA EARNHARDT _14141_DALEJR_KID
001968  ERN_F0997_NSCR_1990S_RACE_B-ROLL_DESR_PRACTICE_AT_CHARLOTTE_&_GARAGES_&_CAR_PREP_W_TONY_EURY_SR_&_CREW_1FFA9M~6                   A20   C        00:09:04:28 00:09:05:28 00:41:41:12 00:41:42:12 
M2      ERN_F0997_NSCR_1990S_RACE_B-ROLL_DESR_PRACTICE_AT_CHARLOTTE_&_GARAGES_&_CAR_PREP_W_TONY_EURY_SR_&_CREW_1FFA9M~6                            030.0 00:09:04:28 
*FROM CLIP NAME:  ERN_F0997_NSCR_1990S_RACE B-ROLL DESR PRACTICE AT CHARLOTTE & GARAGES & CAR PREP W TONY EURY SR & CREW_1FFA9M~6.NEW.01 
*SOURCE FILE: ERN_F0997_NSCR_1990S_RACE B-ROLL DESR PRACTICE AT CHARLOTTE & GARAGES & CAR PREP W TONY EURY SR & CREW_1FFA9M~6
001969  ERN_F2461__1990-02-18_DAYTONA_500_NO3_DESR_GARAGE_PREP_GEOFF_BODINE_INTV__90-EV-0056                                              A22   C        00:00:38:19 00:00:39:20 00:41:41:13 00:41:42:13 
M2      ERN_F2461__1990-02-18_DAYTONA_500_NO3_DESR_GARAGE_PREP_GEOFF_BODINE_INTV__90-EV-0056                                                       030.0 00:00:38:19 
*FROM CLIP NAME:  ERN_F2461__1990-02-18_DAYTONA 500 NO3 DESR GARAGE PREP GEOFF BODINE INTV _90-EV-0056.NEW.01 
*SOURCE FILE: ERN_F2461__1990-02-18_DAYTONA 500 NO3 DESR GARAGE PREP GEOFF BODINE INTV _90-EV-0056
001970  ERN_F0928_NSCR_1988-08-18_INTV_MICHAEL_WALTRIP_DESR_BUTLER_SEAT_SE003364                                                          V     C        00:11:35:26 00:11:38:15 00:41:42:01 00:41:44:15 
M2      ERN_F0928_NSCR_1988-08-18_INTV_MICHAEL_WALTRIP_DESR_BUTLER_SEAT_SE003364                                                                   030.0 00:11:35:26 
*FROM CLIP NAME:  ERN_F0928_NSCR_1988-08-18_INTV MICHAEL WALTRIP DESR BUTLER SEAT_SE003364.NEW.01 
*SOURCE FILE: ERN_F0928_NSCR_1988-08-18_INTV MICHAEL WALTRIP DESR BUTLER SEAT_SE003364
001971  ERN_F0997_NSCR_1990S_RACE_B-ROLL_DESR_PRACTICE_AT_CHARLOTTE_&_GARAGES_&_CAR_PREP_W_TONY_EURY_SR_&_CREW_1FFA9M~6                   A20   C        00:09:05:28 00:09:11:08 00:41:42:12 00:41:47:20 
M2      ERN_F0997_NSCR_1990S_RACE_B-ROLL_DESR_PRACTICE_AT_CHARLOTTE_&_GARAGES_&_CAR_PREP_W_TONY_EURY_SR_&_CREW_1FFA9M~6                            030.0 00:09:05:28 
*FROM CLIP NAME:  ERN_F0997_NSCR_1990S_RACE B-ROLL DESR PRACTICE AT CHARLOTTE & GARAGES & CAR PREP W TONY EURY SR & CREW_1FFA9M~6.NEW.01 
*SOURCE FILE: ERN_F0997_NSCR_1990S_RACE B-ROLL DESR PRACTICE AT CHARLOTTE & GARAGES & CAR PREP W TONY EURY SR & CREW_1FFA9M~6
001972  ERN_F2461__1990-02-18_DAYTONA_500_NO3_DESR_GARAGE_PREP_GEOFF_BODINE_INTV__90-EV-0056                                              A22   C        00:00:39:19 00:00:44:06 00:41:42:13 00:41:47:02 
M2      ERN_F2461__1990-02-18_DAYTONA_500_NO3_DESR_GARAGE_PREP_GEOFF_BODINE_INTV__90-EV-0056                                                       030.0 00:00:39:19 
*FROM CLIP NAME:  ERN_F2461__1990-02-18_DAYTONA 500 NO3 DESR GARAGE PREP GEOFF BODINE INTV _90-EV-0056.NEW.01 
*SOURCE FILE: ERN_F2461__1990-02-18_DAYTONA 500 NO3 DESR GARAGE PREP GEOFF BODINE INTV _90-EV-0056
001973  ERN_F2461__1990-02-18_DAYTONA_500_NO3_DESR_GARAGE_PREP_GEOFF_BODINE_INTV__90-EV-0056                                              V     C        00:00:39:04 00:00:42:07 00:41:44:15 00:41:47:17 
M2      ERN_F2461__1990-02-18_DAYTONA_500_NO3_DESR_GARAGE_PREP_GEOFF_BODINE_INTV__90-EV-0056                                                       030.0 00:00:39:04 
*FROM CLIP NAME:  ERN_F2461__1990-02-18_DAYTONA 500 NO3 DESR GARAGE PREP GEOFF BODINE INTV _90-EV-0056.NEW.01 
*SOURCE FILE: ERN_F2461__1990-02-18_DAYTONA 500 NO3 DESR GARAGE PREP GEOFF BODINE INTV _90-EV-0056
001974  ERN_F0928_NSCR_1988-08-18_INTV_MICHAEL_WALTRIP_DESR_BUTLER_SEAT_SE003364                                                          A22   C        00:11:35:08 00:11:36:08 00:41:47:03 00:41:48:03 
M2      ERN_F0928_NSCR_1988-08-18_INTV_MICHAEL_WALTRIP_DESR_BUTLER_SEAT_SE003364                                                                   030.0 00:11:35:08 
*FROM CLIP NAME:  ERN_F0928_NSCR_1988-08-18_INTV MICHAEL WALTRIP DESR BUTLER SEAT_SE003364.NEW.01 
*SOURCE FILE: ERN_F0928_NSCR_1988-08-18_INTV MICHAEL WALTRIP DESR BUTLER SEAT_SE003364
001975  ERN_F2813_NSCR_1988_MARTINSVILLE-REPORTER_MISC_CAR_PARTS_B-ROLL_DESR_TERESA_PIT_ROAD_AUTOGRAPHS_SE005951                          V     C        00:14:36:17 00:14:36:19 00:41:47:17 00:41:50:03 
M2      ERN_F2813_NSCR_1988_MARTINSVILLE-REPORTER_MISC_CAR_PARTS_B-ROLL_DESR_TERESA_PIT_ROAD_AUTOGRAPHS_SE005951                                  -024.0 00:14:36:17 
*FROM CLIP NAME:  ERN_F2813_NSCR_1988_MARTINSVILLE-REPORTER MISC CAR PARTS B-ROLL DESR TERESA PIT ROAD AUTOGRAPHS_SE005951.NEW.01 
*SOURCE FILE: ERN_F2813_NSCR_1988_MARTINSVILLE-REPORTER MISC CAR PARTS B-ROLL DESR TERESA PIT ROAD AUTOGRAPHS_SE005951
001976  ERN_F0928_NSCR_1988-08-18_INTV_MICHAEL_WALTRIP_DESR_BUTLER_SEAT_SE003364                                                          A22   C        00:11:36:08 00:11:37:18 00:41:48:03 00:41:49:11 
M2      ERN_F0928_NSCR_1988-08-18_INTV_MICHAEL_WALTRIP_DESR_BUTLER_SEAT_SE003364                                                                   030.0 00:11:36:08 
*FROM CLIP NAME:  ERN_F0928_NSCR_1988-08-18_INTV MICHAEL WALTRIP DESR BUTLER SEAT_SE003364.NEW.01 
*SOURCE FILE: ERN_F0928_NSCR_1988-08-18_INTV MICHAEL WALTRIP DESR BUTLER SEAT_SE003364
001977  ERN_F0152_NSCR_1988-09-09_B-ROLL_DALE_EARNHARDT_SLEEPING_MILLER_HIGH_LIFE_400_CARS_&_CREW_GARAGES_88-EV-0294_S002                 A18   C        00:05:25:26 00:05:26:27 00:41:51:01 00:41:52:01 
M2      ERN_F0152_NSCR_1988-09-09_B-ROLL_DALE_EARNHARDT_SLEEPING_MILLER_HIGH_LIFE_400_CARS_&_CREW_GARAGES_88-EV-0294_S002                          030.0 00:05:25:26 
*FROM CLIP NAME:  ERN_F0152_NSCR_1988-09-09_B-ROLL DALE EARNHARDT SLEEPING MILLER HIGH LIFE 400 CARS & CREW GARAGES_88-EV-0294_S002.NEW.01 
*SOURCE FILE: ERN_F0152_NSCR_1988-09-09_B-ROLL DALE EARNHARDT SLEEPING MILLER HIGH LIFE 400 CARS & CREW GARAGES_88-EV-0294_S002
001978  ERN_F0152_NSCR_1988-09-09_B-ROLL_DALE_EARNHARDT_SLEEPING_MILLER_HIGH_LIFE_400_CARS_&_CREW_GARAGES_88-EV-0294_S002                 V     C        00:05:26:15 00:05:30:17 00:41:51:16 00:41:55:17 
M2      ERN_F0152_NSCR_1988-09-09_B-ROLL_DALE_EARNHARDT_SLEEPING_MILLER_HIGH_LIFE_400_CARS_&_CREW_GARAGES_88-EV-0294_S002                          030.0 00:05:26:15 
*FROM CLIP NAME:  ERN_F0152_NSCR_1988-09-09_B-ROLL DALE EARNHARDT SLEEPING MILLER HIGH LIFE 400 CARS & CREW GARAGES_88-EV-0294_S002.NEW.01 
*SOURCE FILE: ERN_F0152_NSCR_1988-09-09_B-ROLL DALE EARNHARDT SLEEPING MILLER HIGH LIFE 400 CARS & CREW GARAGES_88-EV-0294_S002
001979  ERN_F0152_NSCR_1988-09-09_B-ROLL_DALE_EARNHARDT_SLEEPING_MILLER_HIGH_LIFE_400_CARS_&_CREW_GARAGES_88-EV-0294_S002                 A18   C        00:05:26:26 00:05:29:22 00:41:52:01 00:41:54:21 
M2      ERN_F0152_NSCR_1988-09-09_B-ROLL_DALE_EARNHARDT_SLEEPING_MILLER_HIGH_LIFE_400_CARS_&_CREW_GARAGES_88-EV-0294_S002                          030.0 00:05:26:26 
*FROM CLIP NAME:  ERN_F0152_NSCR_1988-09-09_B-ROLL DALE EARNHARDT SLEEPING MILLER HIGH LIFE 400 CARS & CREW GARAGES_88-EV-0294_S002.NEW.01 
*SOURCE FILE: ERN_F0152_NSCR_1988-09-09_B-ROLL DALE EARNHARDT SLEEPING MILLER HIGH LIFE 400 CARS & CREW GARAGES_88-EV-0294_S002
001980  ERN_F0515_NSCR_1990S_B-ROLL_BTS_INTV_YOUNG_DALE_EARNHARDT_JR_AT_TRACK_W_DALE_EARNHARDT_TERESA_EARNHARDT__14141_DALEJR_KID         A18   C        00:01:50:10 00:01:51:10 00:41:57:11 00:41:58:11 
M2      ERN_F0515_NSCR_1990S_B-ROLL_BTS_INTV_YOUNG_DALE_EARNHARDT_JR_AT_TRACK_W_DALE_EARNHARDT_TERESA_EARNHARDT__14141_DALEJR_KID                  030.0 00:01:50:10 
*FROM CLIP NAME:  ERN_F0515_NSCR_1990S_B-ROLL BTS INTV YOUNG DALE EARNHARDT JR AT TRACK W DALE EARNHARDT TERESA EARNHARDT _14141_DALEJR_KID.NEW.01 
*SOURCE FILE: ERN_F0515_NSCR_1990S_B-ROLL BTS INTV YOUNG DALE EARNHARDT JR AT TRACK W DALE EARNHARDT TERESA EARNHARDT _14141_DALEJR_KID
001981  ERN_F0515_NSCR_1990S_B-ROLL_BTS_INTV_YOUNG_DALE_EARNHARDT_JR_AT_TRACK_W_DALE_EARNHARDT_TERESA_EARNHARDT__14141_DALEJR_KID         V     C        00:01:50:17 00:01:59:10 00:41:57:17 00:42:06:11 
M2      ERN_F0515_NSCR_1990S_B-ROLL_BTS_INTV_YOUNG_DALE_EARNHARDT_JR_AT_TRACK_W_DALE_EARNHARDT_TERESA_EARNHARDT__14141_DALEJR_KID                  030.0 00:01:50:17 
*FROM CLIP NAME:  ERN_F0515_NSCR_1990S_B-ROLL BTS INTV YOUNG DALE EARNHARDT JR AT TRACK W DALE EARNHARDT TERESA EARNHARDT _14141_DALEJR_KID.NEW.01 
*SOURCE FILE: ERN_F0515_NSCR_1990S_B-ROLL BTS INTV YOUNG DALE EARNHARDT JR AT TRACK W DALE EARNHARDT TERESA EARNHARDT _14141_DALEJR_KID
001982  ERN_F0515_NSCR_1990S_B-ROLL_BTS_INTV_YOUNG_DALE_EARNHARDT_JR_AT_TRACK_W_DALE_EARNHARDT_TERESA_EARNHARDT__14141_DALEJR_KID         A18   C        00:01:51:10 00:01:58:17 00:41:58:11 00:42:05:16 
M2      ERN_F0515_NSCR_1990S_B-ROLL_BTS_INTV_YOUNG_DALE_EARNHARDT_JR_AT_TRACK_W_DALE_EARNHARDT_TERESA_EARNHARDT__14141_DALEJR_KID                  030.0 00:01:51:10 
*FROM CLIP NAME:  ERN_F0515_NSCR_1990S_B-ROLL BTS INTV YOUNG DALE EARNHARDT JR AT TRACK W DALE EARNHARDT TERESA EARNHARDT _14141_DALEJR_KID.NEW.01 
*SOURCE FILE: ERN_F0515_NSCR_1990S_B-ROLL BTS INTV YOUNG DALE EARNHARDT JR AT TRACK W DALE EARNHARDT TERESA EARNHARDT _14141_DALEJR_KID
001983  ERN_F0515_NSCR_1990S_B-ROLL_BTS_INTV_YOUNG_DALE_EARNHARDT_JR_AT_TRACK_W_DALE_EARNHARDT_TERESA_EARNHARDT__14141_DALEJR_KID         A18   C        00:14:20:02 00:14:21:23 00:42:07:23 00:42:09:15 
M2      ERN_F0515_NSCR_1990S_B-ROLL_BTS_INTV_YOUNG_DALE_EARNHARDT_JR_AT_TRACK_W_DALE_EARNHARDT_TERESA_EARNHARDT__14141_DALEJR_KID                  030.0 00:14:20:02 
*FROM CLIP NAME:  ERN_F0515_NSCR_1990S_B-ROLL BTS INTV YOUNG DALE EARNHARDT JR AT TRACK W DALE EARNHARDT TERESA EARNHARDT _14141_DALEJR_KID.NEW.01 
*SOURCE FILE: ERN_F0515_NSCR_1990S_B-ROLL BTS INTV YOUNG DALE EARNHARDT JR AT TRACK W DALE EARNHARDT TERESA EARNHARDT _14141_DALEJR_KID
001984  ERN_F0515_NSCR_1990S_B-ROLL_BTS_INTV_YOUNG_DALE_EARNHARDT_JR_AT_TRACK_W_DALE_EARNHARDT_TERESA_EARNHARDT__14141_DALEJR_KID         V     C        00:14:20:10 00:14:27:09 00:42:08:05 00:42:15:04 
M2      ERN_F0515_NSCR_1990S_B-ROLL_BTS_INTV_YOUNG_DALE_EARNHARDT_JR_AT_TRACK_W_DALE_EARNHARDT_TERESA_EARNHARDT__14141_DALEJR_KID                  030.0 00:14:20:10 
*FROM CLIP NAME:  ERN_F0515_NSCR_1990S_B-ROLL BTS INTV YOUNG DALE EARNHARDT JR AT TRACK W DALE EARNHARDT TERESA EARNHARDT _14141_DALEJR_KID.NEW.01 
*SOURCE FILE: ERN_F0515_NSCR_1990S_B-ROLL BTS INTV YOUNG DALE EARNHARDT JR AT TRACK W DALE EARNHARDT TERESA EARNHARDT _14141_DALEJR_KID
001985  ERN_F0515_NSCR_1990S_B-ROLL_BTS_INTV_YOUNG_DALE_EARNHARDT_JR_AT_TRACK_W_DALE_EARNHARDT_TERESA_EARNHARDT__14141_DALEJR_KID         A18   C        00:14:21:22 00:14:26:27 00:42:09:15 00:42:14:18 
M2      ERN_F0515_NSCR_1990S_B-ROLL_BTS_INTV_YOUNG_DALE_EARNHARDT_JR_AT_TRACK_W_DALE_EARNHARDT_TERESA_EARNHARDT__14141_DALEJR_KID                  030.0 00:14:21:22 
*FROM CLIP NAME:  ERN_F0515_NSCR_1990S_B-ROLL BTS INTV YOUNG DALE EARNHARDT JR AT TRACK W DALE EARNHARDT TERESA EARNHARDT _14141_DALEJR_KID.NEW.01 
*SOURCE FILE: ERN_F0515_NSCR_1990S_B-ROLL BTS INTV YOUNG DALE EARNHARDT JR AT TRACK W DALE EARNHARDT TERESA EARNHARDT _14141_DALEJR_KID
001986  ERN_F0515_NSCR_1990S_B-ROLL_BTS_INTV_YOUNG_DALE_EARNHARDT_JR_AT_TRACK_W_DALE_EARNHARDT_TERESA_EARNHARDT__14141_DALEJR_KID         A18   C        00:14:43:00 00:14:43:15 00:42:14:18 00:42:15:06 
M2      ERN_F0515_NSCR_1990S_B-ROLL_BTS_INTV_YOUNG_DALE_EARNHARDT_JR_AT_TRACK_W_DALE_EARNHARDT_TERESA_EARNHARDT__14141_DALEJR_KID                  030.0 00:14:43:00 
*FROM CLIP NAME:  ERN_F0515_NSCR_1990S_B-ROLL BTS INTV YOUNG DALE EARNHARDT JR AT TRACK W DALE EARNHARDT TERESA EARNHARDT _14141_DALEJR_KID.NEW.01 
*TO CLIP NAME:  ERN_F0515_NSCR_1990S_B-ROLL BTS INTV YOUNG DALE EARNHARDT JR AT TRACK W DALE EARNHARDT TERESA EARNHARDT _14141_DALEJR_KID.NEW.01 
*SOURCE FILE: ERN_F0515_NSCR_1990S_B-ROLL BTS INTV YOUNG DALE EARNHARDT JR AT TRACK W DALE EARNHARDT TERESA EARNHARDT _14141_DALEJR_KID
001987  ERN_F0515_NSCR_1990S_B-ROLL_BTS_INTV_YOUNG_DALE_EARNHARDT_JR_AT_TRACK_W_DALE_EARNHARDT_TERESA_EARNHARDT__14141_DALEJR_KID         V     C        00:14:43:12 00:14:50:14 00:42:15:04 00:42:22:05 
M2      ERN_F0515_NSCR_1990S_B-ROLL_BTS_INTV_YOUNG_DALE_EARNHARDT_JR_AT_TRACK_W_DALE_EARNHARDT_TERESA_EARNHARDT__14141_DALEJR_KID                  030.0 00:14:43:12 
*FROM CLIP NAME:  ERN_F0515_NSCR_1990S_B-ROLL BTS INTV YOUNG DALE EARNHARDT JR AT TRACK W DALE EARNHARDT TERESA EARNHARDT _14141_DALEJR_KID.NEW.01 
*SOURCE FILE: ERN_F0515_NSCR_1990S_B-ROLL BTS INTV YOUNG DALE EARNHARDT JR AT TRACK W DALE EARNHARDT TERESA EARNHARDT _14141_DALEJR_KID
001988  ERN_F0515_NSCR_1990S_B-ROLL_BTS_INTV_YOUNG_DALE_EARNHARDT_JR_AT_TRACK_W_DALE_EARNHARDT_TERESA_EARNHARDT__14141_DALEJR_KID         A18   C        00:14:43:15 00:14:49:09 00:42:15:06 00:42:21:01 
M2      ERN_F0515_NSCR_1990S_B-ROLL_BTS_INTV_YOUNG_DALE_EARNHARDT_JR_AT_TRACK_W_DALE_EARNHARDT_TERESA_EARNHARDT__14141_DALEJR_KID                  030.0 00:14:43:15 
*FROM CLIP NAME:  ERN_F0515_NSCR_1990S_B-ROLL BTS INTV YOUNG DALE EARNHARDT JR AT TRACK W DALE EARNHARDT TERESA EARNHARDT _14141_DALEJR_KID.NEW.01 
*SOURCE FILE: ERN_F0515_NSCR_1990S_B-ROLL BTS INTV YOUNG DALE EARNHARDT JR AT TRACK W DALE EARNHARDT TERESA EARNHARDT _14141_DALEJR_KID
001989  ERN_F0515_NSCR_1990S_B-ROLL_BTS_INTV_YOUNG_DALE_EARNHARDT_JR_AT_TRACK_W_DALE_EARNHARDT_TERESA_EARNHARDT__14141_DALEJR_KID         A20   C        00:13:49:20 00:13:50:20 00:42:21:19 00:42:22:19 
M2      ERN_F0515_NSCR_1990S_B-ROLL_BTS_INTV_YOUNG_DALE_EARNHARDT_JR_AT_TRACK_W_DALE_EARNHARDT_TERESA_EARNHARDT__14141_DALEJR_KID                  030.0 00:13:49:20 
*FROM CLIP NAME:  ERN_F0515_NSCR_1990S_B-ROLL BTS INTV YOUNG DALE EARNHARDT JR AT TRACK W DALE EARNHARDT TERESA EARNHARDT _14141_DALEJR_KID.NEW.01 
*SOURCE FILE: ERN_F0515_NSCR_1990S_B-ROLL BTS INTV YOUNG DALE EARNHARDT JR AT TRACK W DALE EARNHARDT TERESA EARNHARDT _14141_DALEJR_KID
001990  ERN_F0515_NSCR_1990S_B-ROLL_BTS_INTV_YOUNG_DALE_EARNHARDT_JR_AT_TRACK_W_DALE_EARNHARDT_TERESA_EARNHARDT__14141_DALEJR_KID         V     C        00:13:50:16 00:13:59:12 00:42:22:05 00:42:31:01 
M2      ERN_F0515_NSCR_1990S_B-ROLL_BTS_INTV_YOUNG_DALE_EARNHARDT_JR_AT_TRACK_W_DALE_EARNHARDT_TERESA_EARNHARDT__14141_DALEJR_KID                  030.0 00:13:50:16 
*FROM CLIP NAME:  ERN_F0515_NSCR_1990S_B-ROLL BTS INTV YOUNG DALE EARNHARDT JR AT TRACK W DALE EARNHARDT TERESA EARNHARDT _14141_DALEJR_KID.NEW.01 
*SOURCE FILE: ERN_F0515_NSCR_1990S_B-ROLL BTS INTV YOUNG DALE EARNHARDT JR AT TRACK W DALE EARNHARDT TERESA EARNHARDT _14141_DALEJR_KID
001991  ERN_F0515_NSCR_1990S_B-ROLL_BTS_INTV_YOUNG_DALE_EARNHARDT_JR_AT_TRACK_W_DALE_EARNHARDT_TERESA_EARNHARDT__14141_DALEJR_KID         A20   C        00:13:50:20 00:13:52:04 00:42:22:19 00:42:24:06 
M2      ERN_F0515_NSCR_1990S_B-ROLL_BTS_INTV_YOUNG_DALE_EARNHARDT_JR_AT_TRACK_W_DALE_EARNHARDT_TERESA_EARNHARDT__14141_DALEJR_KID                  030.0 00:13:50:20 
*FROM CLIP NAME:  ERN_F0515_NSCR_1990S_B-ROLL BTS INTV YOUNG DALE EARNHARDT JR AT TRACK W DALE EARNHARDT TERESA EARNHARDT _14141_DALEJR_KID.NEW.01 
*TO CLIP NAME:  ERN_F0515_NSCR_1990S_B-ROLL BTS INTV YOUNG DALE EARNHARDT JR AT TRACK W DALE EARNHARDT TERESA EARNHARDT _14141_DALEJR_KID.NEW.01 
*SOURCE FILE: ERN_F0515_NSCR_1990S_B-ROLL BTS INTV YOUNG DALE EARNHARDT JR AT TRACK W DALE EARNHARDT TERESA EARNHARDT _14141_DALEJR_KID
001992  ERN_F0515_NSCR_1990S_B-ROLL_BTS_INTV_YOUNG_DALE_EARNHARDT_JR_AT_TRACK_W_DALE_EARNHARDT_TERESA_EARNHARDT__14141_DALEJR_KID         A20   C        00:13:52:03 00:13:56:03 00:42:24:06 00:42:28:05 
M2      ERN_F0515_NSCR_1990S_B-ROLL_BTS_INTV_YOUNG_DALE_EARNHARDT_JR_AT_TRACK_W_DALE_EARNHARDT_TERESA_EARNHARDT__14141_DALEJR_KID                  030.0 00:13:52:03 
*FROM CLIP NAME:  ERN_F0515_NSCR_1990S_B-ROLL BTS INTV YOUNG DALE EARNHARDT JR AT TRACK W DALE EARNHARDT TERESA EARNHARDT _14141_DALEJR_KID.NEW.01 
*SOURCE FILE: ERN_F0515_NSCR_1990S_B-ROLL BTS INTV YOUNG DALE EARNHARDT JR AT TRACK W DALE EARNHARDT TERESA EARNHARDT _14141_DALEJR_KID
001993  ERN_S1829_DEJR_1988_KELLEY_EARNHARDT_&_DESR_AT_TRACK_57.JPG                                                                       V     C        01:00:00:13 01:00:10:23 00:42:33:20 00:42:44:06 
*FROM CLIP NAME:  ERN_S1829_DEJR_1988_KELLEY EARNHARDT & DESR AT TRACK_57.JPG.COPY.01 
*SOURCE FILE: ERN_S1829_DEJR_1988_KELLEY EARNHARDT & DESR AT TRACK_57.JPG
001994  ERN_S1587_DEJR_1990_KELLEY_EARNHARDT_WALKING_AT_GRADUATION_10.JPG                                                                 V     C        01:00:00:10 01:00:05:21 00:42:44:06 00:42:49:17 
*FROM CLIP NAME:  ERN_S1587_DEJR_1990_KELLEY EARNHARDT WALKING AT GRADUATION_10.JPG 
*SOURCE FILE: ERN_S1587_DEJR_1990_KELLEY EARNHARDT WALKING AT GRADUATION_10.JPG
001995  ERN_S1581_DEJR_1990_KELLEY_EARNHARDT_W_DIPLOMA_AT_GRADUATION_04.JPG                                                               V     C        01:00:01:09 01:00:07:00 00:42:49:17 00:42:55:08 
*FROM CLIP NAME:  ERN_S1581_DEJR_1990_KELLEY EARNHARDT W DIPLOMA AT GRADUATION_04.JPG 
*SOURCE FILE: ERN_S1581_DEJR_1990_KELLEY EARNHARDT W DIPLOMA AT GRADUATION_04.JPG
001996  ERN_F3279_NSCR_1987_COMP_DESR_INTVS_&_B-ROLL_EARNHARDT298328                                                                      A18   C        01:29:02:22 01:29:04:23 00:42:57:12 00:42:59:12 
M2      ERN_F3279_NSCR_1987_COMP_DESR_INTVS_&_B-ROLL_EARNHARDT298328                                                                               030.0 01:29:02:22 
*FROM CLIP NAME:  ERN_F3279_NSCR_1987_COMP DESR INTVS & B-ROLL_EARNHARDT298328.NEW.01 
*SOURCE FILE: ERN_F3279_NSCR_1987_COMP DESR INTVS & B-ROLL_EARNHARDT298328
001997  ERN_F3279_NSCR_1987_COMP_DESR_INTVS_&_B-ROLL_EARNHARDT298328                                                                      V     C        01:27:39:23 01:27:43:03 00:42:57:22 00:43:01:05 
M2      ERN_F3279_NSCR_1987_COMP_DESR_INTVS_&_B-ROLL_EARNHARDT298328                                                                               030.0 01:27:39:23 
*FROM CLIP NAME:  ERN_F3279_NSCR_1987_COMP DESR INTVS & B-ROLL_EARNHARDT298328.NEW.01 
*SOURCE FILE: ERN_F3279_NSCR_1987_COMP DESR INTVS & B-ROLL_EARNHARDT298328
001998  ERN_F3279_NSCR_1987_COMP_DESR_INTVS_&_B-ROLL_EARNHARDT298328                                                                      A18   C        01:29:04:22 01:29:11:29 00:42:59:12 00:43:06:17 
M2      ERN_F3279_NSCR_1987_COMP_DESR_INTVS_&_B-ROLL_EARNHARDT298328                                                                               030.0 01:29:04:22 
*FROM CLIP NAME:  ERN_F3279_NSCR_1987_COMP DESR INTVS & B-ROLL_EARNHARDT298328.NEW.01 
*SOURCE FILE: ERN_F3279_NSCR_1987_COMP DESR INTVS & B-ROLL_EARNHARDT298328
001999  ERN_F3279_NSCR_1987_COMP_DESR_INTVS_&_B-ROLL_EARNHARDT298328                                                                      V     C        01:28:02:21 01:28:05:17 00:43:01:05 00:43:04:18 
M2      ERN_F3279_NSCR_1987_COMP_DESR_INTVS_&_B-ROLL_EARNHARDT298328                                                                               024.0 01:28:02:21 
*FROM CLIP NAME:  ERN_F3279_NSCR_1987_COMP DESR INTVS & B-ROLL_EARNHARDT298328.NEW.01 
*SOURCE FILE: ERN_F3279_NSCR_1987_COMP DESR INTVS & B-ROLL_EARNHARDT298328
002000  ERN_F3279_NSCR_1987_COMP_DESR_INTVS_&_B-ROLL_EARNHARDT298328                                                                      V     C        01:29:14:03 01:29:18:10 00:43:04:18 00:43:08:23 
M2      ERN_F3279_NSCR_1987_COMP_DESR_INTVS_&_B-ROLL_EARNHARDT298328                                                                               030.0 01:29:14:03 
*FROM CLIP NAME:  ERN_F3279_NSCR_1987_COMP DESR INTVS & B-ROLL_EARNHARDT298328.NEW.01 
*SOURCE FILE: ERN_F3279_NSCR_1987_COMP DESR INTVS & B-ROLL_EARNHARDT298328
002001  ERN_F3279_NSCR_1987_COMP_DESR_INTVS_&_B-ROLL_EARNHARDT298328                                                                      A18   C        00:43:52:18 00:43:53:19 00:43:17:12 00:43:18:12 
M2      ERN_F3279_NSCR_1987_COMP_DESR_INTVS_&_B-ROLL_EARNHARDT298328                                                                               030.0 00:43:52:18 
*FROM CLIP NAME:  ERN_F3279_NSCR_1987_COMP DESR INTVS & B-ROLL_EARNHARDT298328.NEW.01 
*SOURCE FILE: ERN_F3279_NSCR_1987_COMP DESR INTVS & B-ROLL_EARNHARDT298328
002002  ERN_F3279_NSCR_1987_COMP_DESR_INTVS_&_B-ROLL_EARNHARDT298328                                                                      V     C        00:43:52:18 00:44:04:25 00:43:17:21 00:43:30:02 
M2      ERN_F3279_NSCR_1987_COMP_DESR_INTVS_&_B-ROLL_EARNHARDT298328                                                                               030.0 00:43:52:18 
*FROM CLIP NAME:  ERN_F3279_NSCR_1987_COMP DESR INTVS & B-ROLL_EARNHARDT298328.NEW.01 
*SOURCE FILE: ERN_F3279_NSCR_1987_COMP DESR INTVS & B-ROLL_EARNHARDT298328
002003  ERN_F3279_NSCR_1987_COMP_DESR_INTVS_&_B-ROLL_EARNHARDT298328                                                                      A18   C        00:43:53:18 00:44:04:00 00:43:18:12 00:43:28:21 
M2      ERN_F3279_NSCR_1987_COMP_DESR_INTVS_&_B-ROLL_EARNHARDT298328                                                                               030.0 00:43:53:18 
*FROM CLIP NAME:  ERN_F3279_NSCR_1987_COMP DESR INTVS & B-ROLL_EARNHARDT298328.NEW.01 
*SOURCE FILE: ERN_F3279_NSCR_1987_COMP DESR INTVS & B-ROLL_EARNHARDT298328
002004  ERN_F9261_UNCW_1990S_PROMO_UNIVERSITY_OF_NORTH_CAROLINA_WILMINGTON-CAMPUS_SHOTS_INCL_UA_SCHOLARSHIP_BY_TH-S1                      V     C        00:00:01:13 00:00:04:27 00:43:30:02 00:43:33:12 
M2      ERN_F9261_UNCW_1990S_PROMO_UNIVERSITY_OF_NORTH_CAROLINA_WILMINGTON-CAMPUS_SHOTS_INCL_UA_SCHOLARSHIP_BY_TH-S1                               030.0 00:00:01:13 
*FROM CLIP NAME:  ERN_F9261_UNCW_1990S_PROMO UNIVERSITY OF NORTH CAROLINA WILMINGTON-CAMPUS SHOTS INCL_UA_SCHOLARSHIP_BY_TH-S1.NEW.01 
*SOURCE FILE: ERN_F9261_UNCW_1990S_PROMO UNIVERSITY OF NORTH CAROLINA WILMINGTON-CAMPUS SHOTS INCL_UA_SCHOLARSHIP_BY_TH-S1
002005  ERN_F9481_WECT_1990S_B-ROLL_UNC_WILMINGTON_CAMPUS_SHOTS_SCREENER                                                                  V     C        00:10:16:02 00:10:17:22 00:43:33:12 00:43:35:03 
M2      ERN_F9481_WECT_1990S_B-ROLL_UNC_WILMINGTON_CAMPUS_SHOTS_SCREENER                                                                           030.0 00:10:16:02 
*FROM CLIP NAME:  ERN_F9481_WECT_1990S_B-ROLL UNC WILMINGTON CAMPUS SHOTS_SCREENER.NEW.01 
*SOURCE FILE: ERN_F9481_WECT_1990S_B-ROLL UNC WILMINGTON CAMPUS SHOTS_SCREENER
002006  ERN_F9481_WECT_1990S_B-ROLL_UNC_WILMINGTON_CAMPUS_SHOTS_SCREENER                                                                  V     C        00:11:10:05 00:11:12:22 00:43:35:03 00:43:37:16 
M2      ERN_F9481_WECT_1990S_B-ROLL_UNC_WILMINGTON_CAMPUS_SHOTS_SCREENER                                                                           030.0 00:11:10:05 
*FROM CLIP NAME:  ERN_F9481_WECT_1990S_B-ROLL UNC WILMINGTON CAMPUS SHOTS_SCREENER.NEW.01 
*SOURCE FILE: ERN_F9481_WECT_1990S_B-ROLL UNC WILMINGTON CAMPUS SHOTS_SCREENER
002007  ERN_S1759_DEJR_1990_KELLEY_EARNHARDT_COLLEGE_DORM_58.JPG                                                                          V     C        01:00:02:21 01:00:04:15 00:43:37:16 00:43:39:10 
*FROM CLIP NAME:  ERN_S1759_DEJR_1990_KELLEY EARNHARDT COLLEGE DORM_58.JPG 
*SOURCE FILE: ERN_S1759_DEJR_1990_KELLEY EARNHARDT COLLEGE DORM_58.JPG
002008  ERN_F7912_UNCC_1991-1992_NON_RACING_UNC_CHARLOTTE_CAMPUS_STUDENTS_SPORTS_GREEK_SYSTEM_UA0054                                      V     C        00:05:47:17 00:05:49:10 00:43:39:10 00:43:41:04 
M2      ERN_F7912_UNCC_1991-1992_NON_RACING_UNC_CHARLOTTE_CAMPUS_STUDENTS_SPORTS_GREEK_SYSTEM_UA0054                                               030.0 00:05:47:17 
*FROM CLIP NAME:  ERN_F7912_UNCC_1991-1992_NON RACING UNC CHARLOTTE CAMPUS STUDENTS SPORTS GREEK SYSTEM_UA0054.NEW.01 
*SOURCE FILE: ERN_F7912_UNCC_1991-1992_NON RACING UNC CHARLOTTE CAMPUS STUDENTS SPORTS GREEK SYSTEM_UA0054
002009  ERN_F9261_UNCW_1990S_PROMO_UNIVERSITY_OF_NORTH_CAROLINA_WILMINGTON-CAMPUS_SHOTS_INCL_UA_SCHOLARSHIP_BY_TH-S1                      V     C        00:01:33:09 00:01:35:05 00:43:41:04 00:43:43:00 
M2      ERN_F9261_UNCW_1990S_PROMO_UNIVERSITY_OF_NORTH_CAROLINA_WILMINGTON-CAMPUS_SHOTS_INCL_UA_SCHOLARSHIP_BY_TH-S1                               030.0 00:01:33:09 
*FROM CLIP NAME:  ERN_F9261_UNCW_1990S_PROMO UNIVERSITY OF NORTH CAROLINA WILMINGTON-CAMPUS SHOTS INCL_UA_SCHOLARSHIP_BY_TH-S1.NEW.01 
*SOURCE FILE: ERN_F9261_UNCW_1990S_PROMO UNIVERSITY OF NORTH CAROLINA WILMINGTON-CAMPUS SHOTS INCL_UA_SCHOLARSHIP_BY_TH-S1
002010  ERN_S7939_AMBR_1990S_NON_RACING_KELLEY_EARNHARDT_W_STEPHANIE_AMBROSE_AND_FRIEND_IN_COLLEGE_10                                     V     C        00:00:01:20 00:00:03:19 00:43:43:00 00:43:44:23 
*FROM CLIP NAME:  ERN_S7939_AMBR_1990S_NON RACING KELLEY EARNHARDT W STEPHANIE AMBROSE AND FRIEND IN COLLEGE_10.NEW.01 
*SOURCE FILE: ERN_S7939_AMBR_1990S_NON RACING KELLEY EARNHARDT W STEPHANIE AMBROSE AND FRIEND IN COLLEGE_10
002011  ERN_S1748_DEJR_1990_KELLEY_EARNHARDT_FORMAL_SELFIE_47.JPG                                                                         V     C        01:00:00:03 01:00:02:04 00:43:44:23 00:43:47:00 
*FROM CLIP NAME:  ERN_S1748_DEJR_1990_KELLEY EARNHARDT FORMAL SELFIE_47.JPG 
*SOURCE FILE: ERN_S1748_DEJR_1990_KELLEY EARNHARDT FORMAL SELFIE_47.JPG
002012  ERN_F7911_UNCC_1993-94_NON_RACING_UNC_CHARLOTTE_CAMPUS_STUDENTS_SPORTS_GREEK_SYSTEM_UA0054                                        V     C        00:05:42:24 00:05:42:26 00:43:48:19 00:43:51:01 
M2      ERN_F7911_UNCC_1993-94_NON_RACING_UNC_CHARLOTTE_CAMPUS_STUDENTS_SPORTS_GREEK_SYSTEM_UA0054                                                -030.0 00:05:42:24 
*FROM CLIP NAME:  ERN_F7911_UNCC_1993-94_NON RACING UNC CHARLOTTE CAMPUS STUDENTS SPORTS GREEK SYSTEM_UA0054.NEW.01 
*SOURCE FILE: ERN_F7911_UNCC_1993-94_NON RACING UNC CHARLOTTE CAMPUS STUDENTS SPORTS GREEK SYSTEM_UA0054
002013  ERN_S1678_DEJR_1990_KELLEY_EARNHARDT_IN_COLLEGE_12.JPG                                                                            V     C        01:00:00:08 01:00:02:17 00:43:48:19 00:43:51:04 
*FROM CLIP NAME:  ERN_S1678_DEJR_1990_KELLEY EARNHARDT IN COLLEGE_12.JPG 
*SOURCE FILE: ERN_S1678_DEJR_1990_KELLEY EARNHARDT IN COLLEGE_12.JPG
002014  ERN_S1743_DEJR_1990_KELLEY_EARNHARDT_W_FRIEND_AT_BEACH_42.JPG                                                                     V     C        01:00:00:02 01:00:02:03 00:43:51:04 00:43:53:05 
*FROM CLIP NAME:  ERN_S1743_DEJR_1990_KELLEY EARNHARDT W FRIEND AT BEACH_42.JPG 
*SOURCE FILE: ERN_S1743_DEJR_1990_KELLEY EARNHARDT W FRIEND AT BEACH_42.JPG
002015  ERN_S1745_DEJR_1990_KELLEY_EARNHARDT_PLAYING_SUCK_AND_BLOW_CARD_GAME_44.JPG                                                       V     C        01:00:00:03 01:00:02:16 00:43:53:05 00:43:55:18 
*FROM CLIP NAME:  ERN_S1745_DEJR_1990_KELLEY EARNHARDT PLAYING SUCK AND BLOW CARD GAME_44.JPG 
*SOURCE FILE: ERN_S1745_DEJR_1990_KELLEY EARNHARDT PLAYING SUCK AND BLOW CARD GAME_44.JPG
002016  ERN_S1696_DEJR_1990_KELLEY_EARNHARDT_IN_COLLEGE_30.JPG                                                                            V     C        01:00:02:06 01:00:07:22 00:43:53:05 00:43:58:21 
*FROM CLIP NAME:  ERN_S1696_DEJR_1990_KELLEY EARNHARDT IN COLLEGE_30.JPG 
*SOURCE FILE: ERN_S1696_DEJR_1990_KELLEY EARNHARDT IN COLLEGE_30.JPG
002017  ERN_F1052_NSCR_1990S_B-ROLL_TALLADEGA_DESR_BIRTHDAY_&_NO3_CAR_PREP_IN_GARAGE_W_CREW_&_CHOCOLATE_MYERS_&_KIRK_SHELMERDINE_59_EARNH A20   C        00:10:59:18 00:11:03:08 00:43:57:01 00:44:00:15 
M2      ERN_F1052_NSCR_1990S_B-ROLL_TALLADEGA_DESR_BIRTHDAY_&_NO3_CAR_PREP_IN_GARAGE_W_CREW_&_CHOCOLATE_MYERS_&_KIRK_SHELMERDINE_59_EARNH          030.0 00:10:59:18 
*FROM CLIP NAME:  ERN_F1052_NSCR_1990S_B-ROLL TALLADEGA DESR BIRTHDAY & NO3 CAR PREP IN GARAGE W CREW & CHOCOLATE MYERS & KIRK SHELMERDINE_59_EARNHARDT TALLADEGA 3.NEW.01 
*SOURCE FILE: ERN_F1052_NSCR_1990S_B-ROLL TALLADEGA DESR BIRTHDAY & NO3 CAR PREP IN GARAGE W CREW & CHOCOLATE MYERS & KIRK SHELMERDINE_59_EARNHARDT TALLADEGA 3
002018  ERN_F1052_NSCR_1990S_B-ROLL_TALLADEGA_DESR_BIRTHDAY_&_NO3_CAR_PREP_IN_GARAGE_W_CREW_&_CHOCOLATE_MYERS_&_KIRK_SHELMERDINE_59_EARNH V     C        00:10:09:13 00:10:13:16 00:43:58:21 00:44:02:23 
M2      ERN_F1052_NSCR_1990S_B-ROLL_TALLADEGA_DESR_BIRTHDAY_&_NO3_CAR_PREP_IN_GARAGE_W_CREW_&_CHOCOLATE_MYERS_&_KIRK_SHELMERDINE_59_EARNH          030.0 00:10:09:13 
*FROM CLIP NAME:  ERN_F1052_NSCR_1990S_B-ROLL TALLADEGA DESR BIRTHDAY & NO3 CAR PREP IN GARAGE W CREW & CHOCOLATE MYERS & KIRK SHELMERDINE_59_EARNHARDT TALLADEGA 3.NEW.01 
*SOURCE FILE: ERN_F1052_NSCR_1990S_B-ROLL TALLADEGA DESR BIRTHDAY & NO3 CAR PREP IN GARAGE W CREW & CHOCOLATE MYERS & KIRK SHELMERDINE_59_EARNHARDT TALLADEGA 3
002019  ERN_F1052_NSCR_1990S_B-ROLL_TALLADEGA_DESR_BIRTHDAY_&_NO3_CAR_PREP_IN_GARAGE_W_CREW_&_CHOCOLATE_MYERS_&_KIRK_SHELMERDINE_59_EARNH A22   C        00:11:14:07 00:11:15:08 00:43:59:21 00:44:00:21 
M2      ERN_F1052_NSCR_1990S_B-ROLL_TALLADEGA_DESR_BIRTHDAY_&_NO3_CAR_PREP_IN_GARAGE_W_CREW_&_CHOCOLATE_MYERS_&_KIRK_SHELMERDINE_59_EARNH          030.0 00:11:14:07 
*FROM CLIP NAME:  ERN_F1052_NSCR_1990S_B-ROLL TALLADEGA DESR BIRTHDAY & NO3 CAR PREP IN GARAGE W CREW & CHOCOLATE MYERS & KIRK SHELMERDINE_59_EARNHARDT TALLADEGA 3.NEW.01 
*SOURCE FILE: ERN_F1052_NSCR_1990S_B-ROLL TALLADEGA DESR BIRTHDAY & NO3 CAR PREP IN GARAGE W CREW & CHOCOLATE MYERS & KIRK SHELMERDINE_59_EARNHARDT TALLADEGA 3
002020  ERN_F1052_NSCR_1990S_B-ROLL_TALLADEGA_DESR_BIRTHDAY_&_NO3_CAR_PREP_IN_GARAGE_W_CREW_&_CHOCOLATE_MYERS_&_KIRK_SHELMERDINE_59_EARNH A20   C        00:11:03:07 00:11:03:23 00:44:00:15 00:44:01:03 
M2      ERN_F1052_NSCR_1990S_B-ROLL_TALLADEGA_DESR_BIRTHDAY_&_NO3_CAR_PREP_IN_GARAGE_W_CREW_&_CHOCOLATE_MYERS_&_KIRK_SHELMERDINE_59_EARNH          030.0 00:11:03:07 
*FROM CLIP NAME:  ERN_F1052_NSCR_1990S_B-ROLL TALLADEGA DESR BIRTHDAY & NO3 CAR PREP IN GARAGE W CREW & CHOCOLATE MYERS & KIRK SHELMERDINE_59_EARNHARDT TALLADEGA 3.NEW.01 
*SOURCE FILE: ERN_F1052_NSCR_1990S_B-ROLL TALLADEGA DESR BIRTHDAY & NO3 CAR PREP IN GARAGE W CREW & CHOCOLATE MYERS & KIRK SHELMERDINE_59_EARNHARDT TALLADEGA 3
002021  ERN_F1052_NSCR_1990S_B-ROLL_TALLADEGA_DESR_BIRTHDAY_&_NO3_CAR_PREP_IN_GARAGE_W_CREW_&_CHOCOLATE_MYERS_&_KIRK_SHELMERDINE_59_EARNH A22   C        00:11:15:07 00:11:16:23 00:44:00:21 00:44:02:09 
M2      ERN_F1052_NSCR_1990S_B-ROLL_TALLADEGA_DESR_BIRTHDAY_&_NO3_CAR_PREP_IN_GARAGE_W_CREW_&_CHOCOLATE_MYERS_&_KIRK_SHELMERDINE_59_EARNH          030.0 00:11:15:07 
*FROM CLIP NAME:  ERN_F1052_NSCR_1990S_B-ROLL TALLADEGA DESR BIRTHDAY & NO3 CAR PREP IN GARAGE W CREW & CHOCOLATE MYERS & KIRK SHELMERDINE_59_EARNHARDT TALLADEGA 3.NEW.01 
*SOURCE FILE: ERN_F1052_NSCR_1990S_B-ROLL TALLADEGA DESR BIRTHDAY & NO3 CAR PREP IN GARAGE W CREW & CHOCOLATE MYERS & KIRK SHELMERDINE_59_EARNHARDT TALLADEGA 3
002022  ERN_F1052_NSCR_1990S_B-ROLL_TALLADEGA_DESR_BIRTHDAY_&_NO3_CAR_PREP_IN_GARAGE_W_CREW_&_CHOCOLATE_MYERS_&_KIRK_SHELMERDINE_59_EARNH A18   C        00:00:21:10 00:00:21:26 00:44:01:20 00:44:02:08 
M2      ERN_F1052_NSCR_1990S_B-ROLL_TALLADEGA_DESR_BIRTHDAY_&_NO3_CAR_PREP_IN_GARAGE_W_CREW_&_CHOCOLATE_MYERS_&_KIRK_SHELMERDINE_59_EARNH          030.0 00:00:21:10 
*FROM CLIP NAME:  ERN_F1052_NSCR_1990S_B-ROLL TALLADEGA DESR BIRTHDAY & NO3 CAR PREP IN GARAGE W CREW & CHOCOLATE MYERS & KIRK SHELMERDINE_59_EARNHARDT TALLADEGA 3.NEW.01 
*SOURCE FILE: ERN_F1052_NSCR_1990S_B-ROLL TALLADEGA DESR BIRTHDAY & NO3 CAR PREP IN GARAGE W CREW & CHOCOLATE MYERS & KIRK SHELMERDINE_59_EARNHARDT TALLADEGA 3
002023  ERN_F1052_NSCR_1990S_B-ROLL_TALLADEGA_DESR_BIRTHDAY_&_NO3_CAR_PREP_IN_GARAGE_W_CREW_&_CHOCOLATE_MYERS_&_KIRK_SHELMERDINE_59_EARNH A18   C        00:00:21:25 00:00:26:18 00:44:02:08 00:44:07:02 
M2      ERN_F1052_NSCR_1990S_B-ROLL_TALLADEGA_DESR_BIRTHDAY_&_NO3_CAR_PREP_IN_GARAGE_W_CREW_&_CHOCOLATE_MYERS_&_KIRK_SHELMERDINE_59_EARNH          030.0 00:00:21:25 
*FROM CLIP NAME:  ERN_F1052_NSCR_1990S_B-ROLL TALLADEGA DESR BIRTHDAY & NO3 CAR PREP IN GARAGE W CREW & CHOCOLATE MYERS & KIRK SHELMERDINE_59_EARNHARDT TALLADEGA 3.NEW.01 
*SOURCE FILE: ERN_F1052_NSCR_1990S_B-ROLL TALLADEGA DESR BIRTHDAY & NO3 CAR PREP IN GARAGE W CREW & CHOCOLATE MYERS & KIRK SHELMERDINE_59_EARNHARDT TALLADEGA 3
002024  ERN_F1052_NSCR_1990S_B-ROLL_TALLADEGA_DESR_BIRTHDAY_&_NO3_CAR_PREP_IN_GARAGE_W_CREW_&_CHOCOLATE_MYERS_&_KIRK_SHELMERDINE_59_EARNH V     C        00:00:22:14 00:00:24:09 00:44:02:23 00:44:04:19 
M2      ERN_F1052_NSCR_1990S_B-ROLL_TALLADEGA_DESR_BIRTHDAY_&_NO3_CAR_PREP_IN_GARAGE_W_CREW_&_CHOCOLATE_MYERS_&_KIRK_SHELMERDINE_59_EARNH          030.0 00:00:22:14 
*FROM CLIP NAME:  ERN_F1052_NSCR_1990S_B-ROLL TALLADEGA DESR BIRTHDAY & NO3 CAR PREP IN GARAGE W CREW & CHOCOLATE MYERS & KIRK SHELMERDINE_59_EARNHARDT TALLADEGA 3.NEW.01 
*SOURCE FILE: ERN_F1052_NSCR_1990S_B-ROLL TALLADEGA DESR BIRTHDAY & NO3 CAR PREP IN GARAGE W CREW & CHOCOLATE MYERS & KIRK SHELMERDINE_59_EARNHARDT TALLADEGA 3
002025  ERN_F1052_NSCR_1990S_B-ROLL_TALLADEGA_DESR_BIRTHDAY_&_NO3_CAR_PREP_IN_GARAGE_W_CREW_&_CHOCOLATE_MYERS_&_KIRK_SHELMERDINE_59_EARNH V     C        00:00:24:09 00:00:27:02 00:44:04:19 00:44:07:13 
M2      ERN_F1052_NSCR_1990S_B-ROLL_TALLADEGA_DESR_BIRTHDAY_&_NO3_CAR_PREP_IN_GARAGE_W_CREW_&_CHOCOLATE_MYERS_&_KIRK_SHELMERDINE_59_EARNH          030.0 00:00:24:09 
*FROM CLIP NAME:  ERN_F1052_NSCR_1990S_B-ROLL TALLADEGA DESR BIRTHDAY & NO3 CAR PREP IN GARAGE W CREW & CHOCOLATE MYERS & KIRK SHELMERDINE_59_EARNHARDT TALLADEGA 3.NEW.01 
*SOURCE FILE: ERN_F1052_NSCR_1990S_B-ROLL TALLADEGA DESR BIRTHDAY & NO3 CAR PREP IN GARAGE W CREW & CHOCOLATE MYERS & KIRK SHELMERDINE_59_EARNHARDT TALLADEGA 3
002026  ERN_F1052_NSCR_1990S_B-ROLL_TALLADEGA_DESR_BIRTHDAY_&_NO3_CAR_PREP_IN_GARAGE_W_CREW_&_CHOCOLATE_MYERS_&_KIRK_SHELMERDINE_59_EARNH V     C        00:00:31:01 00:00:32:24 00:44:07:13 00:44:09:17 
M2      ERN_F1052_NSCR_1990S_B-ROLL_TALLADEGA_DESR_BIRTHDAY_&_NO3_CAR_PREP_IN_GARAGE_W_CREW_&_CHOCOLATE_MYERS_&_KIRK_SHELMERDINE_59_EARNH          024.0 00:00:31:01 
*FROM CLIP NAME:  ERN_F1052_NSCR_1990S_B-ROLL TALLADEGA DESR BIRTHDAY & NO3 CAR PREP IN GARAGE W CREW & CHOCOLATE MYERS & KIRK SHELMERDINE_59_EARNHARDT TALLADEGA 3.NEW.01 
*SOURCE FILE: ERN_F1052_NSCR_1990S_B-ROLL TALLADEGA DESR BIRTHDAY & NO3 CAR PREP IN GARAGE W CREW & CHOCOLATE MYERS & KIRK SHELMERDINE_59_EARNHARDT TALLADEGA 3
002027  ERN_F1052_NSCR_1990S_B-ROLL_TALLADEGA_DESR_BIRTHDAY_&_NO3_CAR_PREP_IN_GARAGE_W_CREW_&_CHOCOLATE_MYERS_&_KIRK_SHELMERDINE_59_EARNH A20   C        00:02:23:06 00:02:23:22 00:44:08:03 00:44:08:15 
M2      ERN_F1052_NSCR_1990S_B-ROLL_TALLADEGA_DESR_BIRTHDAY_&_NO3_CAR_PREP_IN_GARAGE_W_CREW_&_CHOCOLATE_MYERS_&_KIRK_SHELMERDINE_59_EARNH          030.0 00:02:23:06 
*FROM CLIP NAME:  ERN_F1052_NSCR_1990S_B-ROLL TALLADEGA DESR BIRTHDAY & NO3 CAR PREP IN GARAGE W CREW & CHOCOLATE MYERS & KIRK SHELMERDINE_59_EARNHARDT TALLADEGA 3.NEW.01 
*SOURCE FILE: ERN_F1052_NSCR_1990S_B-ROLL TALLADEGA DESR BIRTHDAY & NO3 CAR PREP IN GARAGE W CREW & CHOCOLATE MYERS & KIRK SHELMERDINE_59_EARNHARDT TALLADEGA 3
002028  ERN_F1052_NSCR_1990S_B-ROLL_TALLADEGA_DESR_BIRTHDAY_&_NO3_CAR_PREP_IN_GARAGE_W_CREW_&_CHOCOLATE_MYERS_&_KIRK_SHELMERDINE_59_EARNH A20   C        00:02:23:21 00:02:33:03 00:44:08:15 00:44:18:00 
M2      ERN_F1052_NSCR_1990S_B-ROLL_TALLADEGA_DESR_BIRTHDAY_&_NO3_CAR_PREP_IN_GARAGE_W_CREW_&_CHOCOLATE_MYERS_&_KIRK_SHELMERDINE_59_EARNH          030.0 00:02:23:21 
*FROM CLIP NAME:  ERN_F1052_NSCR_1990S_B-ROLL TALLADEGA DESR BIRTHDAY & NO3 CAR PREP IN GARAGE W CREW & CHOCOLATE MYERS & KIRK SHELMERDINE_59_EARNHARDT TALLADEGA 3.NEW.01 
*SOURCE FILE: ERN_F1052_NSCR_1990S_B-ROLL TALLADEGA DESR BIRTHDAY & NO3 CAR PREP IN GARAGE W CREW & CHOCOLATE MYERS & KIRK SHELMERDINE_59_EARNHARDT TALLADEGA 3
002029  ERN_F1052_NSCR_1990S_B-ROLL_TALLADEGA_DESR_BIRTHDAY_&_NO3_CAR_PREP_IN_GARAGE_W_CREW_&_CHOCOLATE_MYERS_&_KIRK_SHELMERDINE_59_EARNH V     C        00:02:24:24 00:02:32:22 00:44:09:17 00:44:17:15 
M2      ERN_F1052_NSCR_1990S_B-ROLL_TALLADEGA_DESR_BIRTHDAY_&_NO3_CAR_PREP_IN_GARAGE_W_CREW_&_CHOCOLATE_MYERS_&_KIRK_SHELMERDINE_59_EARNH          030.0 00:02:24:24 
*FROM CLIP NAME:  ERN_F1052_NSCR_1990S_B-ROLL TALLADEGA DESR BIRTHDAY & NO3 CAR PREP IN GARAGE W CREW & CHOCOLATE MYERS & KIRK SHELMERDINE_59_EARNHARDT TALLADEGA 3.NEW.01 
*SOURCE FILE: ERN_F1052_NSCR_1990S_B-ROLL TALLADEGA DESR BIRTHDAY & NO3 CAR PREP IN GARAGE W CREW & CHOCOLATE MYERS & KIRK SHELMERDINE_59_EARNHARDT TALLADEGA 3
002030  ERN_F1052_NSCR_1990S_B-ROLL_TALLADEGA_DESR_BIRTHDAY_&_NO3_CAR_PREP_IN_GARAGE_W_CREW_&_CHOCOLATE_MYERS_&_KIRK_SHELMERDINE_59_EARNH V     C        00:07:50:20 00:07:55:20 00:44:17:15 00:44:22:14 
M2      ERN_F1052_NSCR_1990S_B-ROLL_TALLADEGA_DESR_BIRTHDAY_&_NO3_CAR_PREP_IN_GARAGE_W_CREW_&_CHOCOLATE_MYERS_&_KIRK_SHELMERDINE_59_EARNH          030.0 00:07:50:20 
*FROM CLIP NAME:  ERN_F1052_NSCR_1990S_B-ROLL TALLADEGA DESR BIRTHDAY & NO3 CAR PREP IN GARAGE W CREW & CHOCOLATE MYERS & KIRK SHELMERDINE_59_EARNHARDT TALLADEGA 3.NEW.01 
*SOURCE FILE: ERN_F1052_NSCR_1990S_B-ROLL TALLADEGA DESR BIRTHDAY & NO3 CAR PREP IN GARAGE W CREW & CHOCOLATE MYERS & KIRK SHELMERDINE_59_EARNHARDT TALLADEGA 3
002031  ERN_F2496_NSCR_1993-07-09_LOUDON-SLICK_50_300_-_PRESS_CONFERENCE_RICHARD_CHILDRESS_NEIL_BONNETT_93-EV-0289_S001                   A22   C        00:30:38:22 00:30:40:08 00:44:18:16 00:44:20:04 
M2      ERN_F2496_NSCR_1993-07-09_LOUDON-SLICK_50_300_-_PRESS_CONFERENCE_RICHARD_CHILDRESS_NEIL_BONNETT_93-EV-0289_S001                            030.0 00:30:38:22 
*FROM CLIP NAME:  ERN_F2496_NSCR_1993-07-09_LOUDON-SLICK 50 300 - PRESS CONFERENCE RICHARD CHILDRESS NEIL BONNETT_93-EV-0289_S001.NEW.01 
*SOURCE FILE: ERN_F2496_NSCR_1993-07-09_LOUDON-SLICK 50 300 - PRESS CONFERENCE RICHARD CHILDRESS NEIL BONNETT_93-EV-0289_S001
002032  ERN_F2496_NSCR_1993-07-09_LOUDON-SLICK_50_300_-_PRESS_CONFERENCE_RICHARD_CHILDRESS_NEIL_BONNETT_93-EV-0289_S001                   A22   C        00:30:40:07 00:30:43:27 00:44:20:04 00:44:23:19 
M2      ERN_F2496_NSCR_1993-07-09_LOUDON-SLICK_50_300_-_PRESS_CONFERENCE_RICHARD_CHILDRESS_NEIL_BONNETT_93-EV-0289_S001                            030.0 00:30:40:07 
*FROM CLIP NAME:  ERN_F2496_NSCR_1993-07-09_LOUDON-SLICK 50 300 - PRESS CONFERENCE RICHARD CHILDRESS NEIL BONNETT_93-EV-0289_S001.NEW.01 
*SOURCE FILE: ERN_F2496_NSCR_1993-07-09_LOUDON-SLICK 50 300 - PRESS CONFERENCE RICHARD CHILDRESS NEIL BONNETT_93-EV-0289_S001
002033  ERN_F2496_NSCR_1993-07-09_LOUDON-SLICK_50_300_-_PRESS_CONFERENCE_RICHARD_CHILDRESS_NEIL_BONNETT_93-EV-0289_S001                   A18   C        00:30:52:22 00:30:53:08 00:44:20:05 00:44:20:17 
M2      ERN_F2496_NSCR_1993-07-09_LOUDON-SLICK_50_300_-_PRESS_CONFERENCE_RICHARD_CHILDRESS_NEIL_BONNETT_93-EV-0289_S001                            030.0 00:30:52:22 
*FROM CLIP NAME:  ERN_F2496_NSCR_1993-07-09_LOUDON-SLICK 50 300 - PRESS CONFERENCE RICHARD CHILDRESS NEIL BONNETT_93-EV-0289_S001.NEW.01 
*SOURCE FILE: ERN_F2496_NSCR_1993-07-09_LOUDON-SLICK 50 300 - PRESS CONFERENCE RICHARD CHILDRESS NEIL BONNETT_93-EV-0289_S001
002034  ERN_F2496_NSCR_1993-07-09_LOUDON-SLICK_50_300_-_PRESS_CONFERENCE_RICHARD_CHILDRESS_NEIL_BONNETT_93-EV-0289_S001                   A18   C        00:30:53:07 00:30:55:27 00:44:20:17 00:44:23:08 
M2      ERN_F2496_NSCR_1993-07-09_LOUDON-SLICK_50_300_-_PRESS_CONFERENCE_RICHARD_CHILDRESS_NEIL_BONNETT_93-EV-0289_S001                            030.0 00:30:53:07 
*FROM CLIP NAME:  ERN_F2496_NSCR_1993-07-09_LOUDON-SLICK 50 300 - PRESS CONFERENCE RICHARD CHILDRESS NEIL BONNETT_93-EV-0289_S001.NEW.01 
*SOURCE FILE: ERN_F2496_NSCR_1993-07-09_LOUDON-SLICK 50 300 - PRESS CONFERENCE RICHARD CHILDRESS NEIL BONNETT_93-EV-0289_S001
002035  ERN_F2496_NSCR_1993-07-09_LOUDON-SLICK_50_300_-_PRESS_CONFERENCE_RICHARD_CHILDRESS_NEIL_BONNETT_93-EV-0289_S001                   V     C        00:36:27:21 00:36:33:10 00:44:22:14 00:44:28:05 
M2      ERN_F2496_NSCR_1993-07-09_LOUDON-SLICK_50_300_-_PRESS_CONFERENCE_RICHARD_CHILDRESS_NEIL_BONNETT_93-EV-0289_S001                            030.0 00:36:27:21 
*FROM CLIP NAME:  ERN_F2496_NSCR_1993-07-09_LOUDON-SLICK 50 300 - PRESS CONFERENCE RICHARD CHILDRESS NEIL BONNETT_93-EV-0289_S001.NEW.01 
*SOURCE FILE: ERN_F2496_NSCR_1993-07-09_LOUDON-SLICK 50 300 - PRESS CONFERENCE RICHARD CHILDRESS NEIL BONNETT_93-EV-0289_S001
002036  ERN_F2496_NSCR_1993-07-09_LOUDON-SLICK_50_300_-_PRESS_CONFERENCE_RICHARD_CHILDRESS_NEIL_BONNETT_93-EV-0289_S001                   A18   C        00:30:58:26 00:30:58:29 00:44:23:08 00:44:23:10 
M2      ERN_F2496_NSCR_1993-07-09_LOUDON-SLICK_50_300_-_PRESS_CONFERENCE_RICHARD_CHILDRESS_NEIL_BONNETT_93-EV-0289_S001                            030.0 00:30:58:26 
*FROM CLIP NAME:  ERN_F2496_NSCR_1993-07-09_LOUDON-SLICK 50 300 - PRESS CONFERENCE RICHARD CHILDRESS NEIL BONNETT_93-EV-0289_S001.NEW.01 
*TO CLIP NAME:  ERN_F2496_NSCR_1993-07-09_LOUDON-SLICK 50 300 - PRESS CONFERENCE RICHARD CHILDRESS NEIL BONNETT_93-EV-0289_S001.NEW.01 
*SOURCE FILE: ERN_F2496_NSCR_1993-07-09_LOUDON-SLICK 50 300 - PRESS CONFERENCE RICHARD CHILDRESS NEIL BONNETT_93-EV-0289_S001
002037  ERN_F2496_NSCR_1993-07-09_LOUDON-SLICK_50_300_-_PRESS_CONFERENCE_RICHARD_CHILDRESS_NEIL_BONNETT_93-EV-0289_S001                   A18   C        00:30:58:29 00:31:00:14 00:44:23:10 00:44:24:20 
M2      ERN_F2496_NSCR_1993-07-09_LOUDON-SLICK_50_300_-_PRESS_CONFERENCE_RICHARD_CHILDRESS_NEIL_BONNETT_93-EV-0289_S001                            030.0 00:30:58:29 
*FROM CLIP NAME:  ERN_F2496_NSCR_1993-07-09_LOUDON-SLICK 50 300 - PRESS CONFERENCE RICHARD CHILDRESS NEIL BONNETT_93-EV-0289_S001.NEW.01 
*SOURCE FILE: ERN_F2496_NSCR_1993-07-09_LOUDON-SLICK 50 300 - PRESS CONFERENCE RICHARD CHILDRESS NEIL BONNETT_93-EV-0289_S001
002038  ERN_F2496_NSCR_1993-07-09_LOUDON-SLICK_50_300_-_PRESS_CONFERENCE_RICHARD_CHILDRESS_NEIL_BONNETT_93-EV-0289_S001                   A18   C        00:31:02:13 00:31:02:16 00:44:24:20 00:44:24:22 
M2      ERN_F2496_NSCR_1993-07-09_LOUDON-SLICK_50_300_-_PRESS_CONFERENCE_RICHARD_CHILDRESS_NEIL_BONNETT_93-EV-0289_S001                            030.0 00:31:02:13 
*FROM CLIP NAME:  ERN_F2496_NSCR_1993-07-09_LOUDON-SLICK 50 300 - PRESS CONFERENCE RICHARD CHILDRESS NEIL BONNETT_93-EV-0289_S001.NEW.01 
*TO CLIP NAME:  ERN_F2496_NSCR_1993-07-09_LOUDON-SLICK 50 300 - PRESS CONFERENCE RICHARD CHILDRESS NEIL BONNETT_93-EV-0289_S001.NEW.01 
*SOURCE FILE: ERN_F2496_NSCR_1993-07-09_LOUDON-SLICK 50 300 - PRESS CONFERENCE RICHARD CHILDRESS NEIL BONNETT_93-EV-0289_S001
002039  ERN_F2496_NSCR_1993-07-09_LOUDON-SLICK_50_300_-_PRESS_CONFERENCE_RICHARD_CHILDRESS_NEIL_BONNETT_93-EV-0289_S001                   A18   C        00:31:02:16 00:31:03:04 00:44:24:22 00:44:25:12 
M2      ERN_F2496_NSCR_1993-07-09_LOUDON-SLICK_50_300_-_PRESS_CONFERENCE_RICHARD_CHILDRESS_NEIL_BONNETT_93-EV-0289_S001                            030.0 00:31:02:16 
*FROM CLIP NAME:  ERN_F2496_NSCR_1993-07-09_LOUDON-SLICK 50 300 - PRESS CONFERENCE RICHARD CHILDRESS NEIL BONNETT_93-EV-0289_S001.NEW.01 
*SOURCE FILE: ERN_F2496_NSCR_1993-07-09_LOUDON-SLICK 50 300 - PRESS CONFERENCE RICHARD CHILDRESS NEIL BONNETT_93-EV-0289_S001
002040  ERN_F2496_NSCR_1993-07-09_LOUDON-SLICK_50_300_-_PRESS_CONFERENCE_RICHARD_CHILDRESS_NEIL_BONNETT_93-EV-0289_S001                   A18   C        00:31:04:13 00:31:04:16 00:44:25:12 00:44:25:14 
M2      ERN_F2496_NSCR_1993-07-09_LOUDON-SLICK_50_300_-_PRESS_CONFERENCE_RICHARD_CHILDRESS_NEIL_BONNETT_93-EV-0289_S001                            030.0 00:31:04:13 
*FROM CLIP NAME:  ERN_F2496_NSCR_1993-07-09_LOUDON-SLICK 50 300 - PRESS CONFERENCE RICHARD CHILDRESS NEIL BONNETT_93-EV-0289_S001.NEW.01 
*TO CLIP NAME:  ERN_F2496_NSCR_1993-07-09_LOUDON-SLICK 50 300 - PRESS CONFERENCE RICHARD CHILDRESS NEIL BONNETT_93-EV-0289_S001.NEW.01 
*SOURCE FILE: ERN_F2496_NSCR_1993-07-09_LOUDON-SLICK 50 300 - PRESS CONFERENCE RICHARD CHILDRESS NEIL BONNETT_93-EV-0289_S001
002041  ERN_F2496_NSCR_1993-07-09_LOUDON-SLICK_50_300_-_PRESS_CONFERENCE_RICHARD_CHILDRESS_NEIL_BONNETT_93-EV-0289_S001                   A18   C        00:31:04:16 00:31:10:29 00:44:25:14 00:44:32:00 
M2      ERN_F2496_NSCR_1993-07-09_LOUDON-SLICK_50_300_-_PRESS_CONFERENCE_RICHARD_CHILDRESS_NEIL_BONNETT_93-EV-0289_S001                            030.0 00:31:04:16 
*FROM CLIP NAME:  ERN_F2496_NSCR_1993-07-09_LOUDON-SLICK 50 300 - PRESS CONFERENCE RICHARD CHILDRESS NEIL BONNETT_93-EV-0289_S001.NEW.01 
*SOURCE FILE: ERN_F2496_NSCR_1993-07-09_LOUDON-SLICK 50 300 - PRESS CONFERENCE RICHARD CHILDRESS NEIL BONNETT_93-EV-0289_S001
002042  ERN_F2496_NSCR_1993-07-09_LOUDON-SLICK_50_300_-_PRESS_CONFERENCE_RICHARD_CHILDRESS_NEIL_BONNETT_93-EV-0289_S001                   V     C        00:31:07:04 00:31:10:25 00:44:28:05 00:44:32:00 
M2      ERN_F2496_NSCR_1993-07-09_LOUDON-SLICK_50_300_-_PRESS_CONFERENCE_RICHARD_CHILDRESS_NEIL_BONNETT_93-EV-0289_S001                            029.0 00:31:07:04 
*FROM CLIP NAME:  ERN_F2496_NSCR_1993-07-09_LOUDON-SLICK 50 300 - PRESS CONFERENCE RICHARD CHILDRESS NEIL BONNETT_93-EV-0289_S001.NEW.01 
*SOURCE FILE: ERN_F2496_NSCR_1993-07-09_LOUDON-SLICK 50 300 - PRESS CONFERENCE RICHARD CHILDRESS NEIL BONNETT_93-EV-0289_S001
002043  ERN_F2496_NSCR_1993-07-09_LOUDON-SLICK_50_300_-_PRESS_CONFERENCE_RICHARD_CHILDRESS_NEIL_BONNETT_93-EV-0289_S001                   A18   C        00:33:27:10 00:33:27:20 00:44:32:00 00:44:32:08 
M2      ERN_F2496_NSCR_1993-07-09_LOUDON-SLICK_50_300_-_PRESS_CONFERENCE_RICHARD_CHILDRESS_NEIL_BONNETT_93-EV-0289_S001                            030.0 00:33:27:10 
*FROM CLIP NAME:  ERN_F2496_NSCR_1993-07-09_LOUDON-SLICK 50 300 - PRESS CONFERENCE RICHARD CHILDRESS NEIL BONNETT_93-EV-0289_S001.NEW.01 
*TO CLIP NAME:  ERN_F2496_NSCR_1993-07-09_LOUDON-SLICK 50 300 - PRESS CONFERENCE RICHARD CHILDRESS NEIL BONNETT_93-EV-0289_S001.NEW.01 
*SOURCE FILE: ERN_F2496_NSCR_1993-07-09_LOUDON-SLICK 50 300 - PRESS CONFERENCE RICHARD CHILDRESS NEIL BONNETT_93-EV-0289_S001
002044  ERN_F2496_NSCR_1993-07-09_LOUDON-SLICK_50_300_-_PRESS_CONFERENCE_RICHARD_CHILDRESS_NEIL_BONNETT_93-EV-0289_S001                   V     C        00:33:27:08 00:33:39:23 00:44:32:00 00:44:44:14 
M2      ERN_F2496_NSCR_1993-07-09_LOUDON-SLICK_50_300_-_PRESS_CONFERENCE_RICHARD_CHILDRESS_NEIL_BONNETT_93-EV-0289_S001                            029.7 00:33:27:08 
*FROM CLIP NAME:  ERN_F2496_NSCR_1993-07-09_LOUDON-SLICK 50 300 - PRESS CONFERENCE RICHARD CHILDRESS NEIL BONNETT_93-EV-0289_S001.NEW.01 
*SOURCE FILE: ERN_F2496_NSCR_1993-07-09_LOUDON-SLICK 50 300 - PRESS CONFERENCE RICHARD CHILDRESS NEIL BONNETT_93-EV-0289_S001
002045  ERN_F2496_NSCR_1993-07-09_LOUDON-SLICK_50_300_-_PRESS_CONFERENCE_RICHARD_CHILDRESS_NEIL_BONNETT_93-EV-0289_S001                   A18   C        00:33:27:20 00:33:39:17 00:44:32:08 00:44:44:05 
M2      ERN_F2496_NSCR_1993-07-09_LOUDON-SLICK_50_300_-_PRESS_CONFERENCE_RICHARD_CHILDRESS_NEIL_BONNETT_93-EV-0289_S001                            030.0 00:33:27:20 
*FROM CLIP NAME:  ERN_F2496_NSCR_1993-07-09_LOUDON-SLICK 50 300 - PRESS CONFERENCE RICHARD CHILDRESS NEIL BONNETT_93-EV-0289_S001.NEW.01 
*SOURCE FILE: ERN_F2496_NSCR_1993-07-09_LOUDON-SLICK 50 300 - PRESS CONFERENCE RICHARD CHILDRESS NEIL BONNETT_93-EV-0289_S001
002046  ERN_F2496_NSCR_1993-07-09_LOUDON-SLICK_50_300_-_PRESS_CONFERENCE_RICHARD_CHILDRESS_NEIL_BONNETT_93-EV-0289_S001                   A20   C        00:37:10:10 00:37:10:18 00:44:43:21 00:44:44:03 
M2      ERN_F2496_NSCR_1993-07-09_LOUDON-SLICK_50_300_-_PRESS_CONFERENCE_RICHARD_CHILDRESS_NEIL_BONNETT_93-EV-0289_S001                            030.0 00:37:10:10 
*FROM CLIP NAME:  ERN_F2496_NSCR_1993-07-09_LOUDON-SLICK 50 300 - PRESS CONFERENCE RICHARD CHILDRESS NEIL BONNETT_93-EV-0289_S001.NEW.01 
*SOURCE FILE: ERN_F2496_NSCR_1993-07-09_LOUDON-SLICK 50 300 - PRESS CONFERENCE RICHARD CHILDRESS NEIL BONNETT_93-EV-0289_S001
002047  ERN_F2496_NSCR_1993-07-09_LOUDON-SLICK_50_300_-_PRESS_CONFERENCE_RICHARD_CHILDRESS_NEIL_BONNETT_93-EV-0289_S001                   A20   C        00:37:10:18 00:37:20:15 00:44:44:03 00:44:54:00 
M2      ERN_F2496_NSCR_1993-07-09_LOUDON-SLICK_50_300_-_PRESS_CONFERENCE_RICHARD_CHILDRESS_NEIL_BONNETT_93-EV-0289_S001                            030.0 00:37:10:18 
*FROM CLIP NAME:  ERN_F2496_NSCR_1993-07-09_LOUDON-SLICK 50 300 - PRESS CONFERENCE RICHARD CHILDRESS NEIL BONNETT_93-EV-0289_S001.NEW.01 
*SOURCE FILE: ERN_F2496_NSCR_1993-07-09_LOUDON-SLICK 50 300 - PRESS CONFERENCE RICHARD CHILDRESS NEIL BONNETT_93-EV-0289_S001
002048  ERN_F2496_NSCR_1993-07-09_LOUDON-SLICK_50_300_-_PRESS_CONFERENCE_RICHARD_CHILDRESS_NEIL_BONNETT_93-EV-0289_S001                   V     C        00:37:11:01 00:37:20:25 00:44:44:14 00:44:54:08 
M2      ERN_F2496_NSCR_1993-07-09_LOUDON-SLICK_50_300_-_PRESS_CONFERENCE_RICHARD_CHILDRESS_NEIL_BONNETT_93-EV-0289_S001                            030.0 00:37:11:01 
*FROM CLIP NAME:  ERN_F2496_NSCR_1993-07-09_LOUDON-SLICK 50 300 - PRESS CONFERENCE RICHARD CHILDRESS NEIL BONNETT_93-EV-0289_S001.NEW.01 
*SOURCE FILE: ERN_F2496_NSCR_1993-07-09_LOUDON-SLICK 50 300 - PRESS CONFERENCE RICHARD CHILDRESS NEIL BONNETT_93-EV-0289_S001
002049  ERN_F2496_NSCR_1993-07-09_LOUDON-SLICK_50_300_-_PRESS_CONFERENCE_RICHARD_CHILDRESS_NEIL_BONNETT_93-EV-0289_S001                   A18   C        00:40:27:25 00:40:27:29 00:44:53:22 00:44:54:00 
M2      ERN_F2496_NSCR_1993-07-09_LOUDON-SLICK_50_300_-_PRESS_CONFERENCE_RICHARD_CHILDRESS_NEIL_BONNETT_93-EV-0289_S001                            030.0 00:40:27:25 
*FROM CLIP NAME:  ERN_F2496_NSCR_1993-07-09_LOUDON-SLICK 50 300 - PRESS CONFERENCE RICHARD CHILDRESS NEIL BONNETT_93-EV-0289_S001.NEW.01 
*SOURCE FILE: ERN_F2496_NSCR_1993-07-09_LOUDON-SLICK 50 300 - PRESS CONFERENCE RICHARD CHILDRESS NEIL BONNETT_93-EV-0289_S001
002050  ERN_F2496_NSCR_1993-07-09_LOUDON-SLICK_50_300_-_PRESS_CONFERENCE_RICHARD_CHILDRESS_NEIL_BONNETT_93-EV-0289_S001                   A18   C        00:40:27:28 00:40:43:09 00:44:54:00 00:45:09:08 
M2      ERN_F2496_NSCR_1993-07-09_LOUDON-SLICK_50_300_-_PRESS_CONFERENCE_RICHARD_CHILDRESS_NEIL_BONNETT_93-EV-0289_S001                            030.0 00:40:27:28 
*FROM CLIP NAME:  ERN_F2496_NSCR_1993-07-09_LOUDON-SLICK 50 300 - PRESS CONFERENCE RICHARD CHILDRESS NEIL BONNETT_93-EV-0289_S001.NEW.01 
*SOURCE FILE: ERN_F2496_NSCR_1993-07-09_LOUDON-SLICK 50 300 - PRESS CONFERENCE RICHARD CHILDRESS NEIL BONNETT_93-EV-0289_S001
002051  ERN_F2496_NSCR_1993-07-09_LOUDON-SLICK_50_300_-_PRESS_CONFERENCE_RICHARD_CHILDRESS_NEIL_BONNETT_93-EV-0289_S001                   V     C        00:40:28:08 00:40:43:09 00:44:54:08 00:45:09:08 
M2      ERN_F2496_NSCR_1993-07-09_LOUDON-SLICK_50_300_-_PRESS_CONFERENCE_RICHARD_CHILDRESS_NEIL_BONNETT_93-EV-0289_S001                            030.0 00:40:28:08 
*FROM CLIP NAME:  ERN_F2496_NSCR_1993-07-09_LOUDON-SLICK 50 300 - PRESS CONFERENCE RICHARD CHILDRESS NEIL BONNETT_93-EV-0289_S001.NEW.01 
*SOURCE FILE: ERN_F2496_NSCR_1993-07-09_LOUDON-SLICK 50 300 - PRESS CONFERENCE RICHARD CHILDRESS NEIL BONNETT_93-EV-0289_S001
002052  ERN_F0994_NSCR_1993_RACE_NEIL_BONNETT_BLOWN_ENGINE_DESR_AMASS_POINTS_NEEDED_FOR_CHAMPIONSHIP_93TALLADEGA                          A20   C        00:01:01:05 00:01:01:25 00:45:09:08 00:45:09:23 
M2      ERN_F0994_NSCR_1993_RACE_NEIL_BONNETT_BLOWN_ENGINE_DESR_AMASS_POINTS_NEEDED_FOR_CHAMPIONSHIP_93TALLADEGA                                   030.0 00:01:01:05 
*FROM CLIP NAME:  ERN_F0994_NSCR_1993_RACE NEIL BONNETT BLOWN ENGINE DESR AMASS POINTS NEEDED FOR CHAMPIONSHIP_93TALLADEGA.NEW.01 
*SOURCE FILE: ERN_F0994_NSCR_1993_RACE NEIL BONNETT BLOWN ENGINE DESR AMASS POINTS NEEDED FOR CHAMPIONSHIP_93TALLADEGA
002053  ERN_F2496_NSCR_1993-07-09_LOUDON-SLICK_50_300_-_PRESS_CONFERENCE_RICHARD_CHILDRESS_NEIL_BONNETT_93-EV-0289_S001                   A18   C        00:40:43:08 00:40:45:20 00:45:09:08 00:45:11:17 
M2      ERN_F2496_NSCR_1993-07-09_LOUDON-SLICK_50_300_-_PRESS_CONFERENCE_RICHARD_CHILDRESS_NEIL_BONNETT_93-EV-0289_S001                            030.0 00:40:43:08 
*FROM CLIP NAME:  ERN_F2496_NSCR_1993-07-09_LOUDON-SLICK 50 300 - PRESS CONFERENCE RICHARD CHILDRESS NEIL BONNETT_93-EV-0289_S001.NEW.01 
*SOURCE FILE: ERN_F2496_NSCR_1993-07-09_LOUDON-SLICK 50 300 - PRESS CONFERENCE RICHARD CHILDRESS NEIL BONNETT_93-EV-0289_S001
002054  93-EV-0312                                                                                                                        V     C        00:06:49:08 00:06:57:10 00:45:09:08 00:45:17:09 
M2      93-EV-0312                                                                                                                                 030.0 00:06:49:08 
*FROM CLIP NAME:  93-EV-0312 
*SOURCE FILE: 93-EV-0312
002055  ERN_F0994_NSCR_1993_RACE_NEIL_BONNETT_BLOWN_ENGINE_DESR_AMASS_POINTS_NEEDED_FOR_CHAMPIONSHIP_93TALLADEGA                          A20   C        00:01:01:24 00:01:08:21 00:45:09:23 00:45:16:20 
M2      ERN_F0994_NSCR_1993_RACE_NEIL_BONNETT_BLOWN_ENGINE_DESR_AMASS_POINTS_NEEDED_FOR_CHAMPIONSHIP_93TALLADEGA                                   030.0 00:01:01:24 
*FROM CLIP NAME:  ERN_F0994_NSCR_1993_RACE NEIL BONNETT BLOWN ENGINE DESR AMASS POINTS NEEDED FOR CHAMPIONSHIP_93TALLADEGA.NEW.01 
*SOURCE FILE: ERN_F0994_NSCR_1993_RACE NEIL BONNETT BLOWN ENGINE DESR AMASS POINTS NEEDED FOR CHAMPIONSHIP_93TALLADEGA
002056  ERN_F2496_NSCR_1993-07-09_LOUDON-SLICK_50_300_-_PRESS_CONFERENCE_RICHARD_CHILDRESS_NEIL_BONNETT_93-EV-0289_S001                   A18   C        00:40:17:14 00:40:17:20 00:45:11:17 00:45:11:21 
M2      ERN_F2496_NSCR_1993-07-09_LOUDON-SLICK_50_300_-_PRESS_CONFERENCE_RICHARD_CHILDRESS_NEIL_BONNETT_93-EV-0289_S001                            030.0 00:40:17:14 
*FROM CLIP NAME:  ERN_F2496_NSCR_1993-07-09_LOUDON-SLICK 50 300 - PRESS CONFERENCE RICHARD CHILDRESS NEIL BONNETT_93-EV-0289_S001.NEW.01 
*TO CLIP NAME:  ERN_F2496_NSCR_1993-07-09_LOUDON-SLICK 50 300 - PRESS CONFERENCE RICHARD CHILDRESS NEIL BONNETT_93-EV-0289_S001.NEW.01 
*SOURCE FILE: ERN_F2496_NSCR_1993-07-09_LOUDON-SLICK 50 300 - PRESS CONFERENCE RICHARD CHILDRESS NEIL BONNETT_93-EV-0289_S001
002057  ERN_F2496_NSCR_1993-07-09_LOUDON-SLICK_50_300_-_PRESS_CONFERENCE_RICHARD_CHILDRESS_NEIL_BONNETT_93-EV-0289_S001                   A18   C        00:40:17:19 00:40:17:21 00:45:11:21 00:45:11:22 
M2      ERN_F2496_NSCR_1993-07-09_LOUDON-SLICK_50_300_-_PRESS_CONFERENCE_RICHARD_CHILDRESS_NEIL_BONNETT_93-EV-0289_S001                            030.0 00:40:17:19 
*FROM CLIP NAME:  ERN_F2496_NSCR_1993-07-09_LOUDON-SLICK 50 300 - PRESS CONFERENCE RICHARD CHILDRESS NEIL BONNETT_93-EV-0289_S001.NEW.01 
*SOURCE FILE: ERN_F2496_NSCR_1993-07-09_LOUDON-SLICK 50 300 - PRESS CONFERENCE RICHARD CHILDRESS NEIL BONNETT_93-EV-0289_S001
002058  ERN_F0994_NSCR_1993_RACE_NEIL_BONNETT_BLOWN_ENGINE_DESR_AMASS_POINTS_NEEDED_FOR_CHAMPIONSHIP_93TALLADEGA                          A18   C        00:02:54:15 00:02:54:17 00:45:14:22 00:45:14:23 
M2      ERN_F0994_NSCR_1993_RACE_NEIL_BONNETT_BLOWN_ENGINE_DESR_AMASS_POINTS_NEEDED_FOR_CHAMPIONSHIP_93TALLADEGA                                   030.0 00:02:54:15 
*FROM CLIP NAME:  ERN_F0994_NSCR_1993_RACE NEIL BONNETT BLOWN ENGINE DESR AMASS POINTS NEEDED FOR CHAMPIONSHIP_93TALLADEGA.NEW.01 
*SOURCE FILE: ERN_F0994_NSCR_1993_RACE NEIL BONNETT BLOWN ENGINE DESR AMASS POINTS NEEDED FOR CHAMPIONSHIP_93TALLADEGA
002059  ERN_F0994_NSCR_1993_RACE_NEIL_BONNETT_BLOWN_ENGINE_DESR_AMASS_POINTS_NEEDED_FOR_CHAMPIONSHIP_93TALLADEGA                          A18   C        00:02:54:16 00:02:55:29 00:45:14:23 00:45:16:09 
M2      ERN_F0994_NSCR_1993_RACE_NEIL_BONNETT_BLOWN_ENGINE_DESR_AMASS_POINTS_NEEDED_FOR_CHAMPIONSHIP_93TALLADEGA                                   030.0 00:02:54:16 
*FROM CLIP NAME:  ERN_F0994_NSCR_1993_RACE NEIL BONNETT BLOWN ENGINE DESR AMASS POINTS NEEDED FOR CHAMPIONSHIP_93TALLADEGA.NEW.01 
*SOURCE FILE: ERN_F0994_NSCR_1993_RACE NEIL BONNETT BLOWN ENGINE DESR AMASS POINTS NEEDED FOR CHAMPIONSHIP_93TALLADEGA
002060  ERN_F0994_NSCR_1993_RACE_NEIL_BONNETT_BLOWN_ENGINE_DESR_AMASS_POINTS_NEEDED_FOR_CHAMPIONSHIP_93TALLADEGA                          A18   C        00:02:56:09 00:02:57:19 00:45:16:09 00:45:17:17 
M2      ERN_F0994_NSCR_1993_RACE_NEIL_BONNETT_BLOWN_ENGINE_DESR_AMASS_POINTS_NEEDED_FOR_CHAMPIONSHIP_93TALLADEGA                                   030.0 00:02:56:09 
*FROM CLIP NAME:  ERN_F0994_NSCR_1993_RACE NEIL BONNETT BLOWN ENGINE DESR AMASS POINTS NEEDED FOR CHAMPIONSHIP_93TALLADEGA.NEW.01 
*SOURCE FILE: ERN_F0994_NSCR_1993_RACE NEIL BONNETT BLOWN ENGINE DESR AMASS POINTS NEEDED FOR CHAMPIONSHIP_93TALLADEGA
002061  93-EV-0312                                                                                                                        V     C        00:07:54:27 00:07:59:19 00:45:17:09 00:45:22:02 
M2      93-EV-0312                                                                                                                                 030.0 00:07:54:27 
*FROM CLIP NAME:  93-EV-0312 
*SOURCE FILE: 93-EV-0312
002062  ERN_F0994_NSCR_1993_RACE_NEIL_BONNETT_BLOWN_ENGINE_DESR_AMASS_POINTS_NEEDED_FOR_CHAMPIONSHIP_93TALLADEGA                          A18   C        00:03:00:02 00:03:00:05 00:45:17:17 00:45:17:19 
M2      ERN_F0994_NSCR_1993_RACE_NEIL_BONNETT_BLOWN_ENGINE_DESR_AMASS_POINTS_NEEDED_FOR_CHAMPIONSHIP_93TALLADEGA                                   030.0 00:03:00:02 
*FROM CLIP NAME:  ERN_F0994_NSCR_1993_RACE NEIL BONNETT BLOWN ENGINE DESR AMASS POINTS NEEDED FOR CHAMPIONSHIP_93TALLADEGA.NEW.01 
*TO CLIP NAME:  ERN_F0994_NSCR_1993_RACE NEIL BONNETT BLOWN ENGINE DESR AMASS POINTS NEEDED FOR CHAMPIONSHIP_93TALLADEGA.NEW.01 
*SOURCE FILE: ERN_F0994_NSCR_1993_RACE NEIL BONNETT BLOWN ENGINE DESR AMASS POINTS NEEDED FOR CHAMPIONSHIP_93TALLADEGA
002063  ERN_F0994_NSCR_1993_RACE_NEIL_BONNETT_BLOWN_ENGINE_DESR_AMASS_POINTS_NEEDED_FOR_CHAMPIONSHIP_93TALLADEGA                          A18   C        00:03:00:04 00:03:04:15 00:45:17:19 00:45:22:03 
M2      ERN_F0994_NSCR_1993_RACE_NEIL_BONNETT_BLOWN_ENGINE_DESR_AMASS_POINTS_NEEDED_FOR_CHAMPIONSHIP_93TALLADEGA                                   030.0 00:03:00:04 
*FROM CLIP NAME:  ERN_F0994_NSCR_1993_RACE NEIL BONNETT BLOWN ENGINE DESR AMASS POINTS NEEDED FOR CHAMPIONSHIP_93TALLADEGA.NEW.01 
*SOURCE FILE: ERN_F0994_NSCR_1993_RACE NEIL BONNETT BLOWN ENGINE DESR AMASS POINTS NEEDED FOR CHAMPIONSHIP_93TALLADEGA
002064  ERN_F0994_NSCR_1993_RACE_NEIL_BONNETT_BLOWN_ENGINE_DESR_AMASS_POINTS_NEEDED_FOR_CHAMPIONSHIP_93TALLADEGA                          A20   C        00:04:25:15 00:04:26:16 00:45:21:13 00:45:22:13 
M2      ERN_F0994_NSCR_1993_RACE_NEIL_BONNETT_BLOWN_ENGINE_DESR_AMASS_POINTS_NEEDED_FOR_CHAMPIONSHIP_93TALLADEGA                                   030.0 00:04:25:15 
*FROM CLIP NAME:  ERN_F0994_NSCR_1993_RACE NEIL BONNETT BLOWN ENGINE DESR AMASS POINTS NEEDED FOR CHAMPIONSHIP_93TALLADEGA.NEW.01 
*SOURCE FILE: ERN_F0994_NSCR_1993_RACE NEIL BONNETT BLOWN ENGINE DESR AMASS POINTS NEEDED FOR CHAMPIONSHIP_93TALLADEGA
002065  93-EV-0312                                                                                                                        V     C        00:23:05:06 00:23:08:27 00:45:22:02 00:45:25:18 
M2      93-EV-0312                                                                                                                                 030.0 00:23:05:06 
*FROM CLIP NAME:  93-EV-0312 
*SOURCE FILE: 93-EV-0312
002066  ERN_F0994_NSCR_1993_RACE_NEIL_BONNETT_BLOWN_ENGINE_DESR_AMASS_POINTS_NEEDED_FOR_CHAMPIONSHIP_93TALLADEGA                          A18   C        00:03:14:02 00:03:14:05 00:45:22:03 00:45:22:05 
M2      ERN_F0994_NSCR_1993_RACE_NEIL_BONNETT_BLOWN_ENGINE_DESR_AMASS_POINTS_NEEDED_FOR_CHAMPIONSHIP_93TALLADEGA                                   030.0 00:03:14:02 
*FROM CLIP NAME:  ERN_F0994_NSCR_1993_RACE NEIL BONNETT BLOWN ENGINE DESR AMASS POINTS NEEDED FOR CHAMPIONSHIP_93TALLADEGA.NEW.01 
*TO CLIP NAME:  ERN_F0994_NSCR_1993_RACE NEIL BONNETT BLOWN ENGINE DESR AMASS POINTS NEEDED FOR CHAMPIONSHIP_93TALLADEGA.NEW.01 
*SOURCE FILE: ERN_F0994_NSCR_1993_RACE NEIL BONNETT BLOWN ENGINE DESR AMASS POINTS NEEDED FOR CHAMPIONSHIP_93TALLADEGA
002067  ERN_F0994_NSCR_1993_RACE_NEIL_BONNETT_BLOWN_ENGINE_DESR_AMASS_POINTS_NEEDED_FOR_CHAMPIONSHIP_93TALLADEGA                          A18   C        00:03:14:04 00:03:16:13 00:45:22:05 00:45:24:11 
M2      ERN_F0994_NSCR_1993_RACE_NEIL_BONNETT_BLOWN_ENGINE_DESR_AMASS_POINTS_NEEDED_FOR_CHAMPIONSHIP_93TALLADEGA                                   030.0 00:03:14:04 
*FROM CLIP NAME:  ERN_F0994_NSCR_1993_RACE NEIL BONNETT BLOWN ENGINE DESR AMASS POINTS NEEDED FOR CHAMPIONSHIP_93TALLADEGA.NEW.01 
*SOURCE FILE: ERN_F0994_NSCR_1993_RACE NEIL BONNETT BLOWN ENGINE DESR AMASS POINTS NEEDED FOR CHAMPIONSHIP_93TALLADEGA
002068  ERN_F0994_NSCR_1993_RACE_NEIL_BONNETT_BLOWN_ENGINE_DESR_AMASS_POINTS_NEEDED_FOR_CHAMPIONSHIP_93TALLADEGA                          A20   C        00:04:26:15 00:04:29:17 00:45:22:13 00:45:25:14 
M2      ERN_F0994_NSCR_1993_RACE_NEIL_BONNETT_BLOWN_ENGINE_DESR_AMASS_POINTS_NEEDED_FOR_CHAMPIONSHIP_93TALLADEGA                                   030.0 00:04:26:15 
*FROM CLIP NAME:  ERN_F0994_NSCR_1993_RACE NEIL BONNETT BLOWN ENGINE DESR AMASS POINTS NEEDED FOR CHAMPIONSHIP_93TALLADEGA.NEW.01 
*SOURCE FILE: ERN_F0994_NSCR_1993_RACE NEIL BONNETT BLOWN ENGINE DESR AMASS POINTS NEEDED FOR CHAMPIONSHIP_93TALLADEGA
002069  ERN_F0994_NSCR_1993_RACE_NEIL_BONNETT_BLOWN_ENGINE_DESR_AMASS_POINTS_NEEDED_FOR_CHAMPIONSHIP_93TALLADEGA                          A20   C        00:04:30:14 00:04:31:15 00:45:25:14 00:45:26:14 
M2      ERN_F0994_NSCR_1993_RACE_NEIL_BONNETT_BLOWN_ENGINE_DESR_AMASS_POINTS_NEEDED_FOR_CHAMPIONSHIP_93TALLADEGA                                   030.0 00:04:30:14 
*FROM CLIP NAME:  ERN_F0994_NSCR_1993_RACE NEIL BONNETT BLOWN ENGINE DESR AMASS POINTS NEEDED FOR CHAMPIONSHIP_93TALLADEGA.NEW.01 
*TO CLIP NAME:  ERN_F0994_NSCR_1993_RACE NEIL BONNETT BLOWN ENGINE DESR AMASS POINTS NEEDED FOR CHAMPIONSHIP_93TALLADEGA.NEW.01 
*SOURCE FILE: ERN_F0994_NSCR_1993_RACE NEIL BONNETT BLOWN ENGINE DESR AMASS POINTS NEEDED FOR CHAMPIONSHIP_93TALLADEGA
002070  93-EV-0312                                                                                                                        V     C        00:09:09:12 00:09:13:14 00:45:25:18 00:45:29:19 
M2      93-EV-0312                                                                                                                                 030.0 00:09:09:12 
*FROM CLIP NAME:  93-EV-0312 
*SOURCE FILE: 93-EV-0312
002071  ERN_F0994_NSCR_1993_RACE_NEIL_BONNETT_BLOWN_ENGINE_DESR_AMASS_POINTS_NEEDED_FOR_CHAMPIONSHIP_93TALLADEGA                          A20   C        00:04:31:14 00:04:33:25 00:45:26:14 00:45:28:22 
M2      ERN_F0994_NSCR_1993_RACE_NEIL_BONNETT_BLOWN_ENGINE_DESR_AMASS_POINTS_NEEDED_FOR_CHAMPIONSHIP_93TALLADEGA                                   030.0 00:04:31:14 
*FROM CLIP NAME:  ERN_F0994_NSCR_1993_RACE NEIL BONNETT BLOWN ENGINE DESR AMASS POINTS NEEDED FOR CHAMPIONSHIP_93TALLADEGA.NEW.01 
*SOURCE FILE: ERN_F0994_NSCR_1993_RACE NEIL BONNETT BLOWN ENGINE DESR AMASS POINTS NEEDED FOR CHAMPIONSHIP_93TALLADEGA
002072  ERN_F0800_NSCR_1987-05-17_RACE_DESR_WINNER_BILL_ELLIOTT_CHARLOTTE_-_THE_WINSTON_87-EV-0287                                        A24   C        00:20:00:14 00:20:02:15 00:45:28:00 00:45:30:00 
M2      ERN_F0800_NSCR_1987-05-17_RACE_DESR_WINNER_BILL_ELLIOTT_CHARLOTTE_-_THE_WINSTON_87-EV-0287                                                 030.0 00:20:00:14 
*FROM CLIP NAME:  ERN_F0800_NSCR_1987-05-17_RACE DESR WINNER BILL ELLIOTT CHARLOTTE - THE WINSTON_87-EV-0287.NEW.01 
*SOURCE FILE: ERN_F0800_NSCR_1987-05-17_RACE DESR WINNER BILL ELLIOTT CHARLOTTE - THE WINSTON_87-EV-0287
002073  ERN_F9258_NSCR_1993-07-29_2_OF_4_RACE_BROADCAST_TALLADEGA_DIE_HARD_500_W_DAVEY_ALLISON_TRIBUTE_LGP03979                           V     C        14:07:00:17 14:07:06:03 00:45:29:19 00:45:35:07 
M2      ERN_F9258_NSCR_1993-07-29_2_OF_4_RACE_BROADCAST_TALLADEGA_DIE_HARD_500_W_DAVEY_ALLISON_TRIBUTE_LGP03979                                    030.0 14:07:00:17 
*FROM CLIP NAME:  ERN_F9258_NSCR_1993-07-25_2 OF 4 RACE BROADCAST TALLADEGA DIE HARD 500 W DAVEY ALLISON TRIBUTE_LGP03979.NEW.01 
*SOURCE FILE: ERN_F9258_NSCR_1993-07-29_2 OF 4 RACE BROADCAST TALLADEGA DIE HARD 500 W DAVEY ALLISON TRIBUTE_LGP03979
002074  ERN_F0800_NSCR_1987-05-17_RACE_DESR_WINNER_BILL_ELLIOTT_CHARLOTTE_-_THE_WINSTON_87-EV-0287                                        A24   C        00:20:02:14 00:20:07:05 00:45:30:00 00:45:34:16 
M2      ERN_F0800_NSCR_1987-05-17_RACE_DESR_WINNER_BILL_ELLIOTT_CHARLOTTE_-_THE_WINSTON_87-EV-0287                                                 030.0 00:20:02:14 
*FROM CLIP NAME:  ERN_F0800_NSCR_1987-05-17_RACE DESR WINNER BILL ELLIOTT CHARLOTTE - THE WINSTON_87-EV-0287.NEW.01 
*SOURCE FILE: ERN_F0800_NSCR_1987-05-17_RACE DESR WINNER BILL ELLIOTT CHARLOTTE - THE WINSTON_87-EV-0287
002075  ERN_F9257_NSCR_1993-07-29_1_OF_4_RACE_BROADCAST_TALLADEGA_DIE_HARD_500_W_DAVEY_ALLISON_TRIBUTE_LGP03978                           A18   C        12:16:06:11 12:16:06:16 00:45:30:05 00:45:30:09 
M2      ERN_F9257_NSCR_1993-07-29_1_OF_4_RACE_BROADCAST_TALLADEGA_DIE_HARD_500_W_DAVEY_ALLISON_TRIBUTE_LGP03978                                    030.0 12:16:06:11 
*FROM CLIP NAME:  ERN_F9257_NSCR_1993-07-25_1 OF 4 RACE BROADCAST TALLADEGA DIE HARD 500 W DAVEY ALLISON TRIBUTE_LGP03978.NEW.01 
*SOURCE FILE: ERN_F9257_NSCR_1993-07-29_1 OF 4 RACE BROADCAST TALLADEGA DIE HARD 500 W DAVEY ALLISON TRIBUTE_LGP03978
002076  ERN_F9257_NSCR_1993-07-29_1_OF_4_RACE_BROADCAST_TALLADEGA_DIE_HARD_500_W_DAVEY_ALLISON_TRIBUTE_LGP03978                           A18   C        12:16:06:16 12:16:12:01 00:45:30:09 00:45:35:21 
M2      ERN_F9257_NSCR_1993-07-29_1_OF_4_RACE_BROADCAST_TALLADEGA_DIE_HARD_500_W_DAVEY_ALLISON_TRIBUTE_LGP03978                                    030.0 12:16:06:16 
*FROM CLIP NAME:  ERN_F9257_NSCR_1993-07-25_1 OF 4 RACE BROADCAST TALLADEGA DIE HARD 500 W DAVEY ALLISON TRIBUTE_LGP03978.NEW.01 
*SOURCE FILE: ERN_F9257_NSCR_1993-07-29_1 OF 4 RACE BROADCAST TALLADEGA DIE HARD 500 W DAVEY ALLISON TRIBUTE_LGP03978
002077  ERN_F3974_NSCR_1993-07-25_RACE_BROADCAST_DIEHARD_500_TALLADEGA_SUPERSPEEDWAY_ONLINE                                               A22   C        00:07:35:27 00:07:36:28 00:45:34:16 00:45:35:16 
M2      ERN_F3974_NSCR_1993-07-25_RACE_BROADCAST_DIEHARD_500_TALLADEGA_SUPERSPEEDWAY_ONLINE                                                        030.0 00:07:35:27 
*FROM CLIP NAME:  ERN_F3974_NSCR_1993-07-25_RACE BROADCAST DIEHARD 500 TALLADEGA SUPERSPEEDWAY_ONLINE.NEW.01 
*SOURCE FILE: ERN_F3974_NSCR_1993-07-25_RACE BROADCAST DIEHARD 500 TALLADEGA SUPERSPEEDWAY_ONLINE
002078  ERN_F9257_NSCR_1993-07-29_1_OF_4_RACE_BROADCAST_TALLADEGA_DIE_HARD_500_W_DAVEY_ALLISON_TRIBUTE_LGP03978                           V     C        12:23:00:14 12:23:08:20 00:45:35:07 00:45:43:11 
M2      ERN_F9257_NSCR_1993-07-29_1_OF_4_RACE_BROADCAST_TALLADEGA_DIE_HARD_500_W_DAVEY_ALLISON_TRIBUTE_LGP03978                                    030.0 12:23:00:14 
*FROM CLIP NAME:  ERN_F9257_NSCR_1993-07-25_1 OF 4 RACE BROADCAST TALLADEGA DIE HARD 500 W DAVEY ALLISON TRIBUTE_LGP03978.NEW.01 
*SOURCE FILE: ERN_F9257_NSCR_1993-07-29_1 OF 4 RACE BROADCAST TALLADEGA DIE HARD 500 W DAVEY ALLISON TRIBUTE_LGP03978
002079  ERN_F3974_NSCR_1993-07-25_RACE_BROADCAST_DIEHARD_500_TALLADEGA_SUPERSPEEDWAY_ONLINE                                               A22   C        00:07:36:27 00:07:39:03 00:45:35:16 00:45:37:20 
M2      ERN_F3974_NSCR_1993-07-25_RACE_BROADCAST_DIEHARD_500_TALLADEGA_SUPERSPEEDWAY_ONLINE                                                        030.0 00:07:36:27 
*FROM CLIP NAME:  ERN_F3974_NSCR_1993-07-25_RACE BROADCAST DIEHARD 500 TALLADEGA SUPERSPEEDWAY_ONLINE.NEW.01 
*SOURCE FILE: ERN_F3974_NSCR_1993-07-25_RACE BROADCAST DIEHARD 500 TALLADEGA SUPERSPEEDWAY_ONLINE
002080  ERN_F9257_NSCR_1993-07-29_1_OF_4_RACE_BROADCAST_TALLADEGA_DIE_HARD_500_W_DAVEY_ALLISON_TRIBUTE_LGP03978                           A18   C        12:22:40:18 12:22:40:24 00:45:36:03 00:45:36:07 
M2      ERN_F9257_NSCR_1993-07-29_1_OF_4_RACE_BROADCAST_TALLADEGA_DIE_HARD_500_W_DAVEY_ALLISON_TRIBUTE_LGP03978                                    030.0 12:22:40:18 
*FROM CLIP NAME:  ERN_F9257_NSCR_1993-07-25_1 OF 4 RACE BROADCAST TALLADEGA DIE HARD 500 W DAVEY ALLISON TRIBUTE_LGP03978.NEW.01 
*SOURCE FILE: ERN_F9257_NSCR_1993-07-29_1 OF 4 RACE BROADCAST TALLADEGA DIE HARD 500 W DAVEY ALLISON TRIBUTE_LGP03978
002081  ERN_F9257_NSCR_1993-07-29_1_OF_4_RACE_BROADCAST_TALLADEGA_DIE_HARD_500_W_DAVEY_ALLISON_TRIBUTE_LGP03978                           A20   C        12:22:40:18 12:22:40:24 00:45:36:03 00:45:36:07 
M2      ERN_F9257_NSCR_1993-07-29_1_OF_4_RACE_BROADCAST_TALLADEGA_DIE_HARD_500_W_DAVEY_ALLISON_TRIBUTE_LGP03978                                    030.0 12:22:40:18 
*FROM CLIP NAME:  ERN_F9257_NSCR_1993-07-25_1 OF 4 RACE BROADCAST TALLADEGA DIE HARD 500 W DAVEY ALLISON TRIBUTE_LGP03978.NEW.01 
*SOURCE FILE: ERN_F9257_NSCR_1993-07-29_1 OF 4 RACE BROADCAST TALLADEGA DIE HARD 500 W DAVEY ALLISON TRIBUTE_LGP03978
002082  ERN_F9257_NSCR_1993-07-29_1_OF_4_RACE_BROADCAST_TALLADEGA_DIE_HARD_500_W_DAVEY_ALLISON_TRIBUTE_LGP03978                           A18   C        12:22:40:23 12:22:42:19 00:45:36:07 00:45:38:03 
M2      ERN_F9257_NSCR_1993-07-29_1_OF_4_RACE_BROADCAST_TALLADEGA_DIE_HARD_500_W_DAVEY_ALLISON_TRIBUTE_LGP03978                                    030.0 12:22:40:23 
*FROM CLIP NAME:  ERN_F9257_NSCR_1993-07-25_1 OF 4 RACE BROADCAST TALLADEGA DIE HARD 500 W DAVEY ALLISON TRIBUTE_LGP03978.NEW.01 
*SOURCE FILE: ERN_F9257_NSCR_1993-07-29_1 OF 4 RACE BROADCAST TALLADEGA DIE HARD 500 W DAVEY ALLISON TRIBUTE_LGP03978
002083  ERN_F9257_NSCR_1993-07-29_1_OF_4_RACE_BROADCAST_TALLADEGA_DIE_HARD_500_W_DAVEY_ALLISON_TRIBUTE_LGP03978                           A20   C        12:22:40:23 12:22:42:19 00:45:36:07 00:45:38:03 
M2      ERN_F9257_NSCR_1993-07-29_1_OF_4_RACE_BROADCAST_TALLADEGA_DIE_HARD_500_W_DAVEY_ALLISON_TRIBUTE_LGP03978                                    030.0 12:22:40:23 
*FROM CLIP NAME:  ERN_F9257_NSCR_1993-07-25_1 OF 4 RACE BROADCAST TALLADEGA DIE HARD 500 W DAVEY ALLISON TRIBUTE_LGP03978.NEW.01 
*SOURCE FILE: ERN_F9257_NSCR_1993-07-29_1 OF 4 RACE BROADCAST TALLADEGA DIE HARD 500 W DAVEY ALLISON TRIBUTE_LGP03978
002084  ERN_F9257_NSCR_1993-07-29_1_OF_4_RACE_BROADCAST_TALLADEGA_DIE_HARD_500_W_DAVEY_ALLISON_TRIBUTE_LGP03978                           A18   C        12:23:04:15 12:23:04:21 00:45:38:03 00:45:38:07 
M2      ERN_F9257_NSCR_1993-07-29_1_OF_4_RACE_BROADCAST_TALLADEGA_DIE_HARD_500_W_DAVEY_ALLISON_TRIBUTE_LGP03978                                    030.0 12:23:04:15 
*FROM CLIP NAME:  ERN_F9257_NSCR_1993-07-25_1 OF 4 RACE BROADCAST TALLADEGA DIE HARD 500 W DAVEY ALLISON TRIBUTE_LGP03978.NEW.01 
*TO CLIP NAME:  ERN_F9257_NSCR_1993-07-25_1 OF 4 RACE BROADCAST TALLADEGA DIE HARD 500 W DAVEY ALLISON TRIBUTE_LGP03978.NEW.01 
*SOURCE FILE: ERN_F9257_NSCR_1993-07-29_1 OF 4 RACE BROADCAST TALLADEGA DIE HARD 500 W DAVEY ALLISON TRIBUTE_LGP03978
002085  ERN_F9257_NSCR_1993-07-29_1_OF_4_RACE_BROADCAST_TALLADEGA_DIE_HARD_500_W_DAVEY_ALLISON_TRIBUTE_LGP03978                           A20   C        12:23:04:15 12:23:04:21 00:45:38:03 00:45:38:07 
M2      ERN_F9257_NSCR_1993-07-29_1_OF_4_RACE_BROADCAST_TALLADEGA_DIE_HARD_500_W_DAVEY_ALLISON_TRIBUTE_LGP03978                                    030.0 12:23:04:15 
*FROM CLIP NAME:  ERN_F9257_NSCR_1993-07-25_1 OF 4 RACE BROADCAST TALLADEGA DIE HARD 500 W DAVEY ALLISON TRIBUTE_LGP03978.NEW.01 
*TO CLIP NAME:  ERN_F9257_NSCR_1993-07-25_1 OF 4 RACE BROADCAST TALLADEGA DIE HARD 500 W DAVEY ALLISON TRIBUTE_LGP03978.NEW.01 
*SOURCE FILE: ERN_F9257_NSCR_1993-07-29_1 OF 4 RACE BROADCAST TALLADEGA DIE HARD 500 W DAVEY ALLISON TRIBUTE_LGP03978
002086  ERN_F9257_NSCR_1993-07-29_1_OF_4_RACE_BROADCAST_TALLADEGA_DIE_HARD_500_W_DAVEY_ALLISON_TRIBUTE_LGP03978                           A18   C        12:23:04:20 12:23:05:26 00:45:38:07 00:45:39:11 
M2      ERN_F9257_NSCR_1993-07-29_1_OF_4_RACE_BROADCAST_TALLADEGA_DIE_HARD_500_W_DAVEY_ALLISON_TRIBUTE_LGP03978                                    030.0 12:23:04:20 
*FROM CLIP NAME:  ERN_F9257_NSCR_1993-07-25_1 OF 4 RACE BROADCAST TALLADEGA DIE HARD 500 W DAVEY ALLISON TRIBUTE_LGP03978.NEW.01 
*SOURCE FILE: ERN_F9257_NSCR_1993-07-29_1 OF 4 RACE BROADCAST TALLADEGA DIE HARD 500 W DAVEY ALLISON TRIBUTE_LGP03978
002087  ERN_F9257_NSCR_1993-07-29_1_OF_4_RACE_BROADCAST_TALLADEGA_DIE_HARD_500_W_DAVEY_ALLISON_TRIBUTE_LGP03978                           A20   C        12:23:04:20 12:23:05:26 00:45:38:07 00:45:39:11 
M2      ERN_F9257_NSCR_1993-07-29_1_OF_4_RACE_BROADCAST_TALLADEGA_DIE_HARD_500_W_DAVEY_ALLISON_TRIBUTE_LGP03978                                    030.0 12:23:04:20 
*FROM CLIP NAME:  ERN_F9257_NSCR_1993-07-25_1 OF 4 RACE BROADCAST TALLADEGA DIE HARD 500 W DAVEY ALLISON TRIBUTE_LGP03978.NEW.01 
*SOURCE FILE: ERN_F9257_NSCR_1993-07-29_1 OF 4 RACE BROADCAST TALLADEGA DIE HARD 500 W DAVEY ALLISON TRIBUTE_LGP03978
002088  ERN_F9257_NSCR_1993-07-29_1_OF_4_RACE_BROADCAST_TALLADEGA_DIE_HARD_500_W_DAVEY_ALLISON_TRIBUTE_LGP03978                           A18   C        12:23:13:21 12:23:13:27 00:45:39:11 00:45:39:15 
M2      ERN_F9257_NSCR_1993-07-29_1_OF_4_RACE_BROADCAST_TALLADEGA_DIE_HARD_500_W_DAVEY_ALLISON_TRIBUTE_LGP03978                                    030.0 12:23:13:21 
*FROM CLIP NAME:  ERN_F9257_NSCR_1993-07-25_1 OF 4 RACE BROADCAST TALLADEGA DIE HARD 500 W DAVEY ALLISON TRIBUTE_LGP03978.NEW.01 
*TO CLIP NAME:  ERN_F9257_NSCR_1993-07-25_1 OF 4 RACE BROADCAST TALLADEGA DIE HARD 500 W DAVEY ALLISON TRIBUTE_LGP03978.NEW.01 
*SOURCE FILE: ERN_F9257_NSCR_1993-07-29_1 OF 4 RACE BROADCAST TALLADEGA DIE HARD 500 W DAVEY ALLISON TRIBUTE_LGP03978
002089  ERN_F9257_NSCR_1993-07-29_1_OF_4_RACE_BROADCAST_TALLADEGA_DIE_HARD_500_W_DAVEY_ALLISON_TRIBUTE_LGP03978                           A20   C        12:23:13:21 12:23:13:27 00:45:39:11 00:45:39:15 
M2      ERN_F9257_NSCR_1993-07-29_1_OF_4_RACE_BROADCAST_TALLADEGA_DIE_HARD_500_W_DAVEY_ALLISON_TRIBUTE_LGP03978                                    030.0 12:23:13:21 
*FROM CLIP NAME:  ERN_F9257_NSCR_1993-07-25_1 OF 4 RACE BROADCAST TALLADEGA DIE HARD 500 W DAVEY ALLISON TRIBUTE_LGP03978.NEW.01 
*TO CLIP NAME:  ERN_F9257_NSCR_1993-07-25_1 OF 4 RACE BROADCAST TALLADEGA DIE HARD 500 W DAVEY ALLISON TRIBUTE_LGP03978.NEW.01 
*SOURCE FILE: ERN_F9257_NSCR_1993-07-29_1 OF 4 RACE BROADCAST TALLADEGA DIE HARD 500 W DAVEY ALLISON TRIBUTE_LGP03978
002090  ERN_F9257_NSCR_1993-07-29_1_OF_4_RACE_BROADCAST_TALLADEGA_DIE_HARD_500_W_DAVEY_ALLISON_TRIBUTE_LGP03978                           A18   C        12:23:13:26 12:23:16:06 00:45:39:15 00:45:41:22 
M2      ERN_F9257_NSCR_1993-07-29_1_OF_4_RACE_BROADCAST_TALLADEGA_DIE_HARD_500_W_DAVEY_ALLISON_TRIBUTE_LGP03978                                    030.0 12:23:13:26 
*FROM CLIP NAME:  ERN_F9257_NSCR_1993-07-25_1 OF 4 RACE BROADCAST TALLADEGA DIE HARD 500 W DAVEY ALLISON TRIBUTE_LGP03978.NEW.01 
*SOURCE FILE: ERN_F9257_NSCR_1993-07-29_1 OF 4 RACE BROADCAST TALLADEGA DIE HARD 500 W DAVEY ALLISON TRIBUTE_LGP03978
002091  ERN_F9257_NSCR_1993-07-29_1_OF_4_RACE_BROADCAST_TALLADEGA_DIE_HARD_500_W_DAVEY_ALLISON_TRIBUTE_LGP03978                           A20   C        12:23:13:26 12:23:16:06 00:45:39:15 00:45:41:22 
M2      ERN_F9257_NSCR_1993-07-29_1_OF_4_RACE_BROADCAST_TALLADEGA_DIE_HARD_500_W_DAVEY_ALLISON_TRIBUTE_LGP03978                                    030.0 12:23:13:26 
*FROM CLIP NAME:  ERN_F9257_NSCR_1993-07-25_1 OF 4 RACE BROADCAST TALLADEGA DIE HARD 500 W DAVEY ALLISON TRIBUTE_LGP03978.NEW.01 
*SOURCE FILE: ERN_F9257_NSCR_1993-07-29_1 OF 4 RACE BROADCAST TALLADEGA DIE HARD 500 W DAVEY ALLISON TRIBUTE_LGP03978
002092  ERN_F9257_NSCR_1993-07-29_1_OF_4_RACE_BROADCAST_TALLADEGA_DIE_HARD_500_W_DAVEY_ALLISON_TRIBUTE_LGP03978                           A18   C        12:23:29:00 12:23:29:06 00:45:41:22 00:45:42:02 
M2      ERN_F9257_NSCR_1993-07-29_1_OF_4_RACE_BROADCAST_TALLADEGA_DIE_HARD_500_W_DAVEY_ALLISON_TRIBUTE_LGP03978                                    030.0 12:23:29:00 
*FROM CLIP NAME:  ERN_F9257_NSCR_1993-07-25_1 OF 4 RACE BROADCAST TALLADEGA DIE HARD 500 W DAVEY ALLISON TRIBUTE_LGP03978.NEW.01 
*TO CLIP NAME:  ERN_F9257_NSCR_1993-07-25_1 OF 4 RACE BROADCAST TALLADEGA DIE HARD 500 W DAVEY ALLISON TRIBUTE_LGP03978.NEW.01 
*SOURCE FILE: ERN_F9257_NSCR_1993-07-29_1 OF 4 RACE BROADCAST TALLADEGA DIE HARD 500 W DAVEY ALLISON TRIBUTE_LGP03978
002093  ERN_F9257_NSCR_1993-07-29_1_OF_4_RACE_BROADCAST_TALLADEGA_DIE_HARD_500_W_DAVEY_ALLISON_TRIBUTE_LGP03978                           A20   C        12:23:29:00 12:23:29:06 00:45:41:22 00:45:42:02 
M2      ERN_F9257_NSCR_1993-07-29_1_OF_4_RACE_BROADCAST_TALLADEGA_DIE_HARD_500_W_DAVEY_ALLISON_TRIBUTE_LGP03978                                    030.0 12:23:29:00 
*FROM CLIP NAME:  ERN_F9257_NSCR_1993-07-25_1 OF 4 RACE BROADCAST TALLADEGA DIE HARD 500 W DAVEY ALLISON TRIBUTE_LGP03978.NEW.01 
*TO CLIP NAME:  ERN_F9257_NSCR_1993-07-25_1 OF 4 RACE BROADCAST TALLADEGA DIE HARD 500 W DAVEY ALLISON TRIBUTE_LGP03978.NEW.01 
*SOURCE FILE: ERN_F9257_NSCR_1993-07-29_1 OF 4 RACE BROADCAST TALLADEGA DIE HARD 500 W DAVEY ALLISON TRIBUTE_LGP03978
002094  ERN_F9257_NSCR_1993-07-29_1_OF_4_RACE_BROADCAST_TALLADEGA_DIE_HARD_500_W_DAVEY_ALLISON_TRIBUTE_LGP03978                           A18   C        12:23:29:05 12:23:30:20 00:45:42:02 00:45:43:13 
M2      ERN_F9257_NSCR_1993-07-29_1_OF_4_RACE_BROADCAST_TALLADEGA_DIE_HARD_500_W_DAVEY_ALLISON_TRIBUTE_LGP03978                                    030.0 12:23:29:05 
*FROM CLIP NAME:  ERN_F9257_NSCR_1993-07-25_1 OF 4 RACE BROADCAST TALLADEGA DIE HARD 500 W DAVEY ALLISON TRIBUTE_LGP03978.NEW.01 
*SOURCE FILE: ERN_F9257_NSCR_1993-07-29_1 OF 4 RACE BROADCAST TALLADEGA DIE HARD 500 W DAVEY ALLISON TRIBUTE_LGP03978
002095  ERN_F9257_NSCR_1993-07-29_1_OF_4_RACE_BROADCAST_TALLADEGA_DIE_HARD_500_W_DAVEY_ALLISON_TRIBUTE_LGP03978                           A20   C        12:23:29:05 12:23:34:15 00:45:42:02 00:45:47:09 
M2      ERN_F9257_NSCR_1993-07-29_1_OF_4_RACE_BROADCAST_TALLADEGA_DIE_HARD_500_W_DAVEY_ALLISON_TRIBUTE_LGP03978                                    030.0 12:23:29:05 
*FROM CLIP NAME:  ERN_F9257_NSCR_1993-07-25_1 OF 4 RACE BROADCAST TALLADEGA DIE HARD 500 W DAVEY ALLISON TRIBUTE_LGP03978.NEW.01 
*SOURCE FILE: ERN_F9257_NSCR_1993-07-29_1 OF 4 RACE BROADCAST TALLADEGA DIE HARD 500 W DAVEY ALLISON TRIBUTE_LGP03978
002096  ERN_F4284_NSCR_1989-10-15_RACE_BROADCAST_NORTH_WILKESBORO_HOLLY_FARMS_400_89-EV-0736                                              A24   C        01:22:47:28 01:22:49:13 00:45:42:17 00:45:44:05 
M2      ERN_F4284_NSCR_1989-10-15_RACE_BROADCAST_NORTH_WILKESBORO_HOLLY_FARMS_400_89-EV-0736                                                       030.0 01:22:47:28 
*FROM CLIP NAME:  ERN_F4215_NSCR_1989-10-15_NORTH WILKESBORO-HOLLY FARMS 400 ESPN RACE BROADCAST_89-EV-0736.NEW.01 
*SOURCE FILE: ERN_F4284_NSCR_1989-10-15_RACE BROADCAST NORTH WILKESBORO HOLLY FARMS 400_89-EV-0736
002097  ERN_F9257_NSCR_1993-07-29_1_OF_4_RACE_BROADCAST_TALLADEGA_DIE_HARD_500_W_DAVEY_ALLISON_TRIBUTE_LGP03978                           V     C        12:54:37:06 12:54:46:18 00:45:43:11 00:45:52:20 
M2      ERN_F9257_NSCR_1993-07-29_1_OF_4_RACE_BROADCAST_TALLADEGA_DIE_HARD_500_W_DAVEY_ALLISON_TRIBUTE_LGP03978                                    030.0 12:54:37:06 
*FROM CLIP NAME:  ERN_F9257_NSCR_1993-07-25_1 OF 4 RACE BROADCAST TALLADEGA DIE HARD 500 W DAVEY ALLISON TRIBUTE_LGP03978.NEW.01 
*SOURCE FILE: ERN_F9257_NSCR_1993-07-29_1 OF 4 RACE BROADCAST TALLADEGA DIE HARD 500 W DAVEY ALLISON TRIBUTE_LGP03978
002098  ERN_F4284_NSCR_1989-10-15_RACE_BROADCAST_NORTH_WILKESBORO_HOLLY_FARMS_400_89-EV-0736                                              A24   C        01:22:49:13 01:22:51:17 00:45:44:05 00:45:46:08 
M2      ERN_F4284_NSCR_1989-10-15_RACE_BROADCAST_NORTH_WILKESBORO_HOLLY_FARMS_400_89-EV-0736                                                       030.0 01:22:49:13 
*FROM CLIP NAME:  ERN_F4215_NSCR_1989-10-15_NORTH WILKESBORO-HOLLY FARMS 400 ESPN RACE BROADCAST_89-EV-0736.NEW.01 
*SOURCE FILE: ERN_F4284_NSCR_1989-10-15_RACE BROADCAST NORTH WILKESBORO HOLLY FARMS 400_89-EV-0736
002099  ERN_F9257_NSCR_1993-07-29_1_OF_4_RACE_BROADCAST_TALLADEGA_DIE_HARD_500_W_DAVEY_ALLISON_TRIBUTE_LGP03978                           A26   C        12:37:52:12 12:37:53:28 00:45:45:14 00:45:47:02 
M2      ERN_F9257_NSCR_1993-07-29_1_OF_4_RACE_BROADCAST_TALLADEGA_DIE_HARD_500_W_DAVEY_ALLISON_TRIBUTE_LGP03978                                    030.0 12:37:52:12 
*FROM CLIP NAME:  ERN_F9257_NSCR_1993-07-25_1 OF 4 RACE BROADCAST TALLADEGA DIE HARD 500 W DAVEY ALLISON TRIBUTE_LGP03978.NEW.01 
*SOURCE FILE: ERN_F9257_NSCR_1993-07-29_1 OF 4 RACE BROADCAST TALLADEGA DIE HARD 500 W DAVEY ALLISON TRIBUTE_LGP03978
002100  ERN_F9257_NSCR_1993-07-29_1_OF_4_RACE_BROADCAST_TALLADEGA_DIE_HARD_500_W_DAVEY_ALLISON_TRIBUTE_LGP03978                           A22   C        12:37:53:09 12:37:54:24 00:45:46:11 00:45:47:23 
M2      ERN_F9257_NSCR_1993-07-29_1_OF_4_RACE_BROADCAST_TALLADEGA_DIE_HARD_500_W_DAVEY_ALLISON_TRIBUTE_LGP03978                                    030.0 12:37:53:09 
*FROM CLIP NAME:  ERN_F9257_NSCR_1993-07-25_1 OF 4 RACE BROADCAST TALLADEGA DIE HARD 500 W DAVEY ALLISON TRIBUTE_LGP03978.NEW.01 
*SOURCE FILE: ERN_F9257_NSCR_1993-07-29_1 OF 4 RACE BROADCAST TALLADEGA DIE HARD 500 W DAVEY ALLISON TRIBUTE_LGP03978
002101  ERN_F9257_NSCR_1993-07-29_1_OF_4_RACE_BROADCAST_TALLADEGA_DIE_HARD_500_W_DAVEY_ALLISON_TRIBUTE_LGP03978                           A26   C        12:37:53:27 12:37:58:06 00:45:47:02 00:45:51:08 
M2      ERN_F9257_NSCR_1993-07-29_1_OF_4_RACE_BROADCAST_TALLADEGA_DIE_HARD_500_W_DAVEY_ALLISON_TRIBUTE_LGP03978                                    030.0 12:37:53:27 
*FROM CLIP NAME:  ERN_F9257_NSCR_1993-07-25_1 OF 4 RACE BROADCAST TALLADEGA DIE HARD 500 W DAVEY ALLISON TRIBUTE_LGP03978.NEW.01 
*SOURCE FILE: ERN_F9257_NSCR_1993-07-29_1 OF 4 RACE BROADCAST TALLADEGA DIE HARD 500 W DAVEY ALLISON TRIBUTE_LGP03978
002102  ERN_F9257_NSCR_1993-07-29_1_OF_4_RACE_BROADCAST_TALLADEGA_DIE_HARD_500_W_DAVEY_ALLISON_TRIBUTE_LGP03978                           A22   C        12:37:54:24 12:37:58:18 00:45:47:23 00:45:51:18 
M2      ERN_F9257_NSCR_1993-07-29_1_OF_4_RACE_BROADCAST_TALLADEGA_DIE_HARD_500_W_DAVEY_ALLISON_TRIBUTE_LGP03978                                    030.0 12:37:54:24 
*FROM CLIP NAME:  ERN_F9257_NSCR_1993-07-25_1 OF 4 RACE BROADCAST TALLADEGA DIE HARD 500 W DAVEY ALLISON TRIBUTE_LGP03978.NEW.01 
*SOURCE FILE: ERN_F9257_NSCR_1993-07-29_1 OF 4 RACE BROADCAST TALLADEGA DIE HARD 500 W DAVEY ALLISON TRIBUTE_LGP03978
002103  ERN_F9258_NSCR_1993-07-29_2_OF_4_RACE_BROADCAST_TALLADEGA_DIE_HARD_500_W_DAVEY_ALLISON_TRIBUTE_LGP03979                           A18   C        14:09:34:01 14:09:35:12 00:45:50:18 00:45:52:02 
M2      ERN_F9258_NSCR_1993-07-29_2_OF_4_RACE_BROADCAST_TALLADEGA_DIE_HARD_500_W_DAVEY_ALLISON_TRIBUTE_LGP03979                                    030.0 14:09:34:01 
*FROM CLIP NAME:  ERN_F9258_NSCR_1993-07-25_2 OF 4 RACE BROADCAST TALLADEGA DIE HARD 500 W DAVEY ALLISON TRIBUTE_LGP03979.NEW.01 
*SOURCE FILE: ERN_F9258_NSCR_1993-07-29_2 OF 4 RACE BROADCAST TALLADEGA DIE HARD 500 W DAVEY ALLISON TRIBUTE_LGP03979
002104  ERN_F9258_NSCR_1993-07-29_2_OF_4_RACE_BROADCAST_TALLADEGA_DIE_HARD_500_W_DAVEY_ALLISON_TRIBUTE_LGP03979                           A18   C        14:09:35:11 14:09:40:21 00:45:52:02 00:45:57:09 
M2      ERN_F9258_NSCR_1993-07-29_2_OF_4_RACE_BROADCAST_TALLADEGA_DIE_HARD_500_W_DAVEY_ALLISON_TRIBUTE_LGP03979                                    030.0 14:09:35:11 
*FROM CLIP NAME:  ERN_F9258_NSCR_1993-07-25_2 OF 4 RACE BROADCAST TALLADEGA DIE HARD 500 W DAVEY ALLISON TRIBUTE_LGP03979.NEW.01 
*SOURCE FILE: ERN_F9258_NSCR_1993-07-29_2 OF 4 RACE BROADCAST TALLADEGA DIE HARD 500 W DAVEY ALLISON TRIBUTE_LGP03979
002105  ERN_F9257_NSCR_1993-07-29_1_OF_4_RACE_BROADCAST_TALLADEGA_DIE_HARD_500_W_DAVEY_ALLISON_TRIBUTE_LGP03978                           V     C        12:45:09:29 12:45:13:03 00:45:52:20 00:45:55:23 
M2      ERN_F9257_NSCR_1993-07-29_1_OF_4_RACE_BROADCAST_TALLADEGA_DIE_HARD_500_W_DAVEY_ALLISON_TRIBUTE_LGP03978                                    030.0 12:45:09:29 
*FROM CLIP NAME:  ERN_F9257_NSCR_1993-07-25_1 OF 4 RACE BROADCAST TALLADEGA DIE HARD 500 W DAVEY ALLISON TRIBUTE_LGP03978.NEW.01 
*SOURCE FILE: ERN_F9257_NSCR_1993-07-29_1 OF 4 RACE BROADCAST TALLADEGA DIE HARD 500 W DAVEY ALLISON TRIBUTE_LGP03978
002106  ERN_F0793_NSCR_1987-05-17_RACE_DESR_WINNER_CHARLOTTE_-_THE_WINSTON_87-EV-0108                                                     A20   C        00:04:58:03 00:05:01:06 00:45:54:22 00:45:57:22 
M2      ERN_F0793_NSCR_1987-05-17_RACE_DESR_WINNER_CHARLOTTE_-_THE_WINSTON_87-EV-0108                                                              030.0 00:04:58:03 
*FROM CLIP NAME:  ERN_F0793_NSCR_1987-05-17_RACE DESR WINNER CHARLOTTE - THE WINSTON_87-EV-0108.NEW.01 
*SOURCE FILE: ERN_F0793_NSCR_1987-05-17_RACE DESR WINNER CHARLOTTE - THE WINSTON_87-EV-0108
002107  ERN_F9260_NSCR_1993-07-29_4_OF_4_RACE_BROADCAST_TALLADEGA_DIE_HARD_500_W_DAVEY_ALLISON_TRIBUTE_LGP03981_S001                      V     C        16:39:31:12 16:39:34:20 00:45:55:23 00:45:59:05 
M2      ERN_F9260_NSCR_1993-07-29_4_OF_4_RACE_BROADCAST_TALLADEGA_DIE_HARD_500_W_DAVEY_ALLISON_TRIBUTE_LGP03981_S001                               030.0 16:39:31:12 
*FROM CLIP NAME:  ERN_F9260_NSCR_1993-07-25_4 OF 4 RACE BROADCAST TALLADEGA DIE HARD 500 W DAVEY ALLISON TRIBUTE_LGP03981_S001.NEW.01 
*SOURCE FILE: ERN_F9260_NSCR_1993-07-29_4 OF 4 RACE BROADCAST TALLADEGA DIE HARD 500 W DAVEY ALLISON TRIBUTE_LGP03981_S001
002108  ERN_F0793_NSCR_1987-05-17_RACE_DESR_WINNER_CHARLOTTE_-_THE_WINSTON_87-EV-0108                                                     A20   C        00:05:01:05 00:05:02:14 00:45:57:22 00:45:59:04 
M2      ERN_F0793_NSCR_1987-05-17_RACE_DESR_WINNER_CHARLOTTE_-_THE_WINSTON_87-EV-0108                                                              030.0 00:05:01:05 
*FROM CLIP NAME:  ERN_F0793_NSCR_1987-05-17_RACE DESR WINNER CHARLOTTE - THE WINSTON_87-EV-0108.NEW.01 
*SOURCE FILE: ERN_F0793_NSCR_1987-05-17_RACE DESR WINNER CHARLOTTE - THE WINSTON_87-EV-0108
002109  ERN_F0793_NSCR_1987-05-17_RACE_DESR_WINNER_CHARLOTTE_-_THE_WINSTON_87-EV-0108                                                     A20   C        00:05:02:13 00:05:04:14 00:45:59:04 00:46:01:04 
M2      ERN_F0793_NSCR_1987-05-17_RACE_DESR_WINNER_CHARLOTTE_-_THE_WINSTON_87-EV-0108                                                              030.0 00:05:02:13 
*FROM CLIP NAME:  ERN_F0793_NSCR_1987-05-17_RACE DESR WINNER CHARLOTTE - THE WINSTON_87-EV-0108.NEW.01 
*TO CLIP NAME:  ERN_F0793_NSCR_1987-05-17_RACE DESR WINNER CHARLOTTE - THE WINSTON_87-EV-0108.NEW.01 
*SOURCE FILE: ERN_F0793_NSCR_1987-05-17_RACE DESR WINNER CHARLOTTE - THE WINSTON_87-EV-0108
002110  ERN_F9258_NSCR_1993-07-29_2_OF_4_RACE_BROADCAST_TALLADEGA_DIE_HARD_500_W_DAVEY_ALLISON_TRIBUTE_LGP03979                           V     C        14:09:31:28 14:09:36:06 00:45:59:05 00:46:03:11 
M2      ERN_F9258_NSCR_1993-07-29_2_OF_4_RACE_BROADCAST_TALLADEGA_DIE_HARD_500_W_DAVEY_ALLISON_TRIBUTE_LGP03979                                    030.0 14:09:31:28 
*FROM CLIP NAME:  ERN_F9258_NSCR_1993-07-25_2 OF 4 RACE BROADCAST TALLADEGA DIE HARD 500 W DAVEY ALLISON TRIBUTE_LGP03979.NEW.01 
*SOURCE FILE: ERN_F9258_NSCR_1993-07-29_2 OF 4 RACE BROADCAST TALLADEGA DIE HARD 500 W DAVEY ALLISON TRIBUTE_LGP03979
002111  ERN_F9258_NSCR_1993-07-29_2_OF_4_RACE_BROADCAST_TALLADEGA_DIE_HARD_500_W_DAVEY_ALLISON_TRIBUTE_LGP03979                           A18   C        14:08:56:14 14:08:56:20 00:46:00:01 00:46:00:05 
M2      ERN_F9258_NSCR_1993-07-29_2_OF_4_RACE_BROADCAST_TALLADEGA_DIE_HARD_500_W_DAVEY_ALLISON_TRIBUTE_LGP03979                                    030.0 14:08:56:14 
*FROM CLIP NAME:  ERN_F9258_NSCR_1993-07-25_2 OF 4 RACE BROADCAST TALLADEGA DIE HARD 500 W DAVEY ALLISON TRIBUTE_LGP03979.NEW.01 
*SOURCE FILE: ERN_F9258_NSCR_1993-07-29_2 OF 4 RACE BROADCAST TALLADEGA DIE HARD 500 W DAVEY ALLISON TRIBUTE_LGP03979
002112  ERN_F9258_NSCR_1993-07-29_2_OF_4_RACE_BROADCAST_TALLADEGA_DIE_HARD_500_W_DAVEY_ALLISON_TRIBUTE_LGP03979                           A18   C        14:08:56:19 14:08:56:28 00:46:00:05 00:46:00:11 
M2      ERN_F9258_NSCR_1993-07-29_2_OF_4_RACE_BROADCAST_TALLADEGA_DIE_HARD_500_W_DAVEY_ALLISON_TRIBUTE_LGP03979                                    030.0 14:08:56:19 
*FROM CLIP NAME:  ERN_F9258_NSCR_1993-07-25_2 OF 4 RACE BROADCAST TALLADEGA DIE HARD 500 W DAVEY ALLISON TRIBUTE_LGP03979.NEW.01 
*SOURCE FILE: ERN_F9258_NSCR_1993-07-29_2 OF 4 RACE BROADCAST TALLADEGA DIE HARD 500 W DAVEY ALLISON TRIBUTE_LGP03979
002113  ERN_F9258_NSCR_1993-07-29_2_OF_4_RACE_BROADCAST_TALLADEGA_DIE_HARD_500_W_DAVEY_ALLISON_TRIBUTE_LGP03979                           A18   C        14:09:01:01 14:09:01:07 00:46:00:11 00:46:00:15 
M2      ERN_F9258_NSCR_1993-07-29_2_OF_4_RACE_BROADCAST_TALLADEGA_DIE_HARD_500_W_DAVEY_ALLISON_TRIBUTE_LGP03979                                    030.0 14:09:01:01 
*FROM CLIP NAME:  ERN_F9258_NSCR_1993-07-25_2 OF 4 RACE BROADCAST TALLADEGA DIE HARD 500 W DAVEY ALLISON TRIBUTE_LGP03979.NEW.01 
*TO CLIP NAME:  ERN_F9258_NSCR_1993-07-25_2 OF 4 RACE BROADCAST TALLADEGA DIE HARD 500 W DAVEY ALLISON TRIBUTE_LGP03979.NEW.01 
*SOURCE FILE: ERN_F9258_NSCR_1993-07-29_2 OF 4 RACE BROADCAST TALLADEGA DIE HARD 500 W DAVEY ALLISON TRIBUTE_LGP03979
002114  ERN_F9258_NSCR_1993-07-29_2_OF_4_RACE_BROADCAST_TALLADEGA_DIE_HARD_500_W_DAVEY_ALLISON_TRIBUTE_LGP03979                           A18   C        14:09:01:06 14:09:10:13 00:46:00:15 00:46:09:20 
M2      ERN_F9258_NSCR_1993-07-29_2_OF_4_RACE_BROADCAST_TALLADEGA_DIE_HARD_500_W_DAVEY_ALLISON_TRIBUTE_LGP03979                                    030.0 14:09:01:06 
*FROM CLIP NAME:  ERN_F9258_NSCR_1993-07-25_2 OF 4 RACE BROADCAST TALLADEGA DIE HARD 500 W DAVEY ALLISON TRIBUTE_LGP03979.NEW.01 
*SOURCE FILE: ERN_F9258_NSCR_1993-07-29_2 OF 4 RACE BROADCAST TALLADEGA DIE HARD 500 W DAVEY ALLISON TRIBUTE_LGP03979
002115  ERN_F0793_NSCR_1987-05-17_RACE_DESR_WINNER_CHARLOTTE_-_THE_WINSTON_87-EV-0108                                                     A20   C        00:05:04:13 00:05:05:04 00:46:01:04 00:46:01:20 
M2      ERN_F0793_NSCR_1987-05-17_RACE_DESR_WINNER_CHARLOTTE_-_THE_WINSTON_87-EV-0108                                                              030.0 00:05:04:13 
*FROM CLIP NAME:  ERN_F0793_NSCR_1987-05-17_RACE DESR WINNER CHARLOTTE - THE WINSTON_87-EV-0108.NEW.01 
*SOURCE FILE: ERN_F0793_NSCR_1987-05-17_RACE DESR WINNER CHARLOTTE - THE WINSTON_87-EV-0108
002116  ERN_F9257_NSCR_1993-07-29_1_OF_4_RACE_BROADCAST_TALLADEGA_DIE_HARD_500_W_DAVEY_ALLISON_TRIBUTE_LGP03978                           V     C        13:15:12:25 13:15:19:17 00:46:03:11 00:46:10:04 
M2      ERN_F9257_NSCR_1993-07-29_1_OF_4_RACE_BROADCAST_TALLADEGA_DIE_HARD_500_W_DAVEY_ALLISON_TRIBUTE_LGP03978                                    030.0 13:15:12:25 
*FROM CLIP NAME:  ERN_F9257_NSCR_1993-07-25_1 OF 4 RACE BROADCAST TALLADEGA DIE HARD 500 W DAVEY ALLISON TRIBUTE_LGP03978.NEW.01 
*SOURCE FILE: ERN_F9257_NSCR_1993-07-29_1 OF 4 RACE BROADCAST TALLADEGA DIE HARD 500 W DAVEY ALLISON TRIBUTE_LGP03978
002117  ERN_F0994_NSCR_1993_RACE_NEIL_BONNETT_BLOWN_ENGINE_DESR_AMASS_POINTS_NEEDED_FOR_CHAMPIONSHIP_93TALLADEGA                          A20   C        00:18:11:25 00:18:12:26 00:46:09:11 00:46:10:11 
M2      ERN_F0994_NSCR_1993_RACE_NEIL_BONNETT_BLOWN_ENGINE_DESR_AMASS_POINTS_NEEDED_FOR_CHAMPIONSHIP_93TALLADEGA                                   030.0 00:18:11:25 
*FROM CLIP NAME:  ERN_F0994_NSCR_1993_RACE NEIL BONNETT BLOWN ENGINE DESR AMASS POINTS NEEDED FOR CHAMPIONSHIP_93TALLADEGA.NEW.01 
*SOURCE FILE: ERN_F0994_NSCR_1993_RACE NEIL BONNETT BLOWN ENGINE DESR AMASS POINTS NEEDED FOR CHAMPIONSHIP_93TALLADEGA
002118  ERN_F9258_NSCR_1993-07-29_2_OF_4_RACE_BROADCAST_TALLADEGA_DIE_HARD_500_W_DAVEY_ALLISON_TRIBUTE_LGP03979                           A18   C        14:08:02:17 14:08:02:20 00:46:09:20 00:46:09:22 
M2      ERN_F9258_NSCR_1993-07-29_2_OF_4_RACE_BROADCAST_TALLADEGA_DIE_HARD_500_W_DAVEY_ALLISON_TRIBUTE_LGP03979                                    030.0 14:08:02:17 
*FROM CLIP NAME:  ERN_F9258_NSCR_1993-07-25_2 OF 4 RACE BROADCAST TALLADEGA DIE HARD 500 W DAVEY ALLISON TRIBUTE_LGP03979.NEW.01 
*TO CLIP NAME:  ERN_F9258_NSCR_1993-07-25_2 OF 4 RACE BROADCAST TALLADEGA DIE HARD 500 W DAVEY ALLISON TRIBUTE_LGP03979.NEW.01 
*SOURCE FILE: ERN_F9258_NSCR_1993-07-29_2 OF 4 RACE BROADCAST TALLADEGA DIE HARD 500 W DAVEY ALLISON TRIBUTE_LGP03979
002119  ERN_F9258_NSCR_1993-07-29_2_OF_4_RACE_BROADCAST_TALLADEGA_DIE_HARD_500_W_DAVEY_ALLISON_TRIBUTE_LGP03979                           A18   C        14:08:02:19 14:08:03:03 00:46:09:22 00:46:10:08 
M2      ERN_F9258_NSCR_1993-07-29_2_OF_4_RACE_BROADCAST_TALLADEGA_DIE_HARD_500_W_DAVEY_ALLISON_TRIBUTE_LGP03979                                    030.0 14:08:02:19 
*FROM CLIP NAME:  ERN_F9258_NSCR_1993-07-25_2 OF 4 RACE BROADCAST TALLADEGA DIE HARD 500 W DAVEY ALLISON TRIBUTE_LGP03979.NEW.01 
*SOURCE FILE: ERN_F9258_NSCR_1993-07-29_2 OF 4 RACE BROADCAST TALLADEGA DIE HARD 500 W DAVEY ALLISON TRIBUTE_LGP03979
002120  ERN_F9258_NSCR_1993-07-29_2_OF_4_RACE_BROADCAST_TALLADEGA_DIE_HARD_500_W_DAVEY_ALLISON_TRIBUTE_LGP03979                           V     C        14:46:16:21 14:46:33:12 00:46:10:04 00:46:26:20 
M2      ERN_F9258_NSCR_1993-07-29_2_OF_4_RACE_BROADCAST_TALLADEGA_DIE_HARD_500_W_DAVEY_ALLISON_TRIBUTE_LGP03979                                    030.0 14:46:16:21 
*FROM CLIP NAME:  ERN_F9258_NSCR_1993-07-25_2 OF 4 RACE BROADCAST TALLADEGA DIE HARD 500 W DAVEY ALLISON TRIBUTE_LGP03979.NEW.01 
*SOURCE FILE: ERN_F9258_NSCR_1993-07-29_2 OF 4 RACE BROADCAST TALLADEGA DIE HARD 500 W DAVEY ALLISON TRIBUTE_LGP03979
002121  ERN_F9258_NSCR_1993-07-29_2_OF_4_RACE_BROADCAST_TALLADEGA_DIE_HARD_500_W_DAVEY_ALLISON_TRIBUTE_LGP03979                           A18   C        14:09:20:21 14:09:20:25 00:46:10:08 00:46:10:10 
M2      ERN_F9258_NSCR_1993-07-29_2_OF_4_RACE_BROADCAST_TALLADEGA_DIE_HARD_500_W_DAVEY_ALLISON_TRIBUTE_LGP03979                                    030.0 14:09:20:21 
*FROM CLIP NAME:  ERN_F9258_NSCR_1993-07-25_2 OF 4 RACE BROADCAST TALLADEGA DIE HARD 500 W DAVEY ALLISON TRIBUTE_LGP03979.NEW.01 
*TO CLIP NAME:  ERN_F9258_NSCR_1993-07-25_2 OF 4 RACE BROADCAST TALLADEGA DIE HARD 500 W DAVEY ALLISON TRIBUTE_LGP03979.NEW.01 
*SOURCE FILE: ERN_F9258_NSCR_1993-07-29_2 OF 4 RACE BROADCAST TALLADEGA DIE HARD 500 W DAVEY ALLISON TRIBUTE_LGP03979
002122  ERN_F9258_NSCR_1993-07-29_2_OF_4_RACE_BROADCAST_TALLADEGA_DIE_HARD_500_W_DAVEY_ALLISON_TRIBUTE_LGP03979                           A18   C        14:09:20:24 14:09:25:28 00:46:10:10 00:46:15:13 
M2      ERN_F9258_NSCR_1993-07-29_2_OF_4_RACE_BROADCAST_TALLADEGA_DIE_HARD_500_W_DAVEY_ALLISON_TRIBUTE_LGP03979                                    030.0 14:09:20:24 
*FROM CLIP NAME:  ERN_F9258_NSCR_1993-07-25_2 OF 4 RACE BROADCAST TALLADEGA DIE HARD 500 W DAVEY ALLISON TRIBUTE_LGP03979.NEW.01 
*SOURCE FILE: ERN_F9258_NSCR_1993-07-29_2 OF 4 RACE BROADCAST TALLADEGA DIE HARD 500 W DAVEY ALLISON TRIBUTE_LGP03979
002123  ERN_F0994_NSCR_1993_RACE_NEIL_BONNETT_BLOWN_ENGINE_DESR_AMASS_POINTS_NEEDED_FOR_CHAMPIONSHIP_93TALLADEGA                          A20   C        00:18:12:25 00:18:17:23 00:46:10:11 00:46:15:09 
M2      ERN_F0994_NSCR_1993_RACE_NEIL_BONNETT_BLOWN_ENGINE_DESR_AMASS_POINTS_NEEDED_FOR_CHAMPIONSHIP_93TALLADEGA                                   030.0 00:18:12:25 
*FROM CLIP NAME:  ERN_F0994_NSCR_1993_RACE NEIL BONNETT BLOWN ENGINE DESR AMASS POINTS NEEDED FOR CHAMPIONSHIP_93TALLADEGA.NEW.01 
*SOURCE FILE: ERN_F0994_NSCR_1993_RACE NEIL BONNETT BLOWN ENGINE DESR AMASS POINTS NEEDED FOR CHAMPIONSHIP_93TALLADEGA
002124  ERN_F0994_NSCR_1993_RACE_NEIL_BONNETT_BLOWN_ENGINE_DESR_AMASS_POINTS_NEEDED_FOR_CHAMPIONSHIP_93TALLADEGA                          A20   C        00:18:17:22 00:18:20:08 00:46:15:09 00:46:17:21 
M2      ERN_F0994_NSCR_1993_RACE_NEIL_BONNETT_BLOWN_ENGINE_DESR_AMASS_POINTS_NEEDED_FOR_CHAMPIONSHIP_93TALLADEGA                                   030.0 00:18:17:22 
*FROM CLIP NAME:  ERN_F0994_NSCR_1993_RACE NEIL BONNETT BLOWN ENGINE DESR AMASS POINTS NEEDED FOR CHAMPIONSHIP_93TALLADEGA.NEW.01 
*TO CLIP NAME:  ERN_F0994_NSCR_1993_RACE NEIL BONNETT BLOWN ENGINE DESR AMASS POINTS NEEDED FOR CHAMPIONSHIP_93TALLADEGA.NEW.01 
*SOURCE FILE: ERN_F0994_NSCR_1993_RACE NEIL BONNETT BLOWN ENGINE DESR AMASS POINTS NEEDED FOR CHAMPIONSHIP_93TALLADEGA
002125  ERN_F0994_NSCR_1993_RACE_NEIL_BONNETT_BLOWN_ENGINE_DESR_AMASS_POINTS_NEEDED_FOR_CHAMPIONSHIP_93TALLADEGA                          A20   C        00:18:20:07 00:18:30:22 00:46:17:21 00:46:28:08 
M2      ERN_F0994_NSCR_1993_RACE_NEIL_BONNETT_BLOWN_ENGINE_DESR_AMASS_POINTS_NEEDED_FOR_CHAMPIONSHIP_93TALLADEGA                                   030.0 00:18:20:07 
*FROM CLIP NAME:  ERN_F0994_NSCR_1993_RACE NEIL BONNETT BLOWN ENGINE DESR AMASS POINTS NEEDED FOR CHAMPIONSHIP_93TALLADEGA.NEW.01 
*SOURCE FILE: ERN_F0994_NSCR_1993_RACE NEIL BONNETT BLOWN ENGINE DESR AMASS POINTS NEEDED FOR CHAMPIONSHIP_93TALLADEGA
002126  ERN_F9258_NSCR_1993-07-29_2_OF_4_RACE_BROADCAST_TALLADEGA_DIE_HARD_500_W_DAVEY_ALLISON_TRIBUTE_LGP03979                           V     C        14:46:33:11 14:46:36:02 00:46:26:20 00:46:29:12 
M2      ERN_F9258_NSCR_1993-07-29_2_OF_4_RACE_BROADCAST_TALLADEGA_DIE_HARD_500_W_DAVEY_ALLISON_TRIBUTE_LGP03979                                    030.0 14:46:33:11 
*FROM CLIP NAME:  ERN_F9258_NSCR_1993-07-25_2 OF 4 RACE BROADCAST TALLADEGA DIE HARD 500 W DAVEY ALLISON TRIBUTE_LGP03979.NEW.01 
*SOURCE FILE: ERN_F9258_NSCR_1993-07-29_2 OF 4 RACE BROADCAST TALLADEGA DIE HARD 500 W DAVEY ALLISON TRIBUTE_LGP03979
002127  ERN_F0994_NSCR_1993_RACE_NEIL_BONNETT_BLOWN_ENGINE_DESR_AMASS_POINTS_NEEDED_FOR_CHAMPIONSHIP_93TALLADEGA                          A24   C        00:16:09:23 00:16:11:09 00:46:27:01 00:46:28:13 
M2      ERN_F0994_NSCR_1993_RACE_NEIL_BONNETT_BLOWN_ENGINE_DESR_AMASS_POINTS_NEEDED_FOR_CHAMPIONSHIP_93TALLADEGA                                   030.0 00:16:09:23 
*FROM CLIP NAME:  ERN_F0994_NSCR_1993_RACE NEIL BONNETT BLOWN ENGINE DESR AMASS POINTS NEEDED FOR CHAMPIONSHIP_93TALLADEGA.NEW.01 
*SOURCE FILE: ERN_F0994_NSCR_1993_RACE NEIL BONNETT BLOWN ENGINE DESR AMASS POINTS NEEDED FOR CHAMPIONSHIP_93TALLADEGA
002128  ERN_F0994_NSCR_1993_RACE_NEIL_BONNETT_BLOWN_ENGINE_DESR_AMASS_POINTS_NEEDED_FOR_CHAMPIONSHIP_93TALLADEGA                          A24   C        00:16:11:08 00:16:25:27 00:46:28:13 00:46:43:03 
M2      ERN_F0994_NSCR_1993_RACE_NEIL_BONNETT_BLOWN_ENGINE_DESR_AMASS_POINTS_NEEDED_FOR_CHAMPIONSHIP_93TALLADEGA                                   030.0 00:16:11:08 
*FROM CLIP NAME:  ERN_F0994_NSCR_1993_RACE NEIL BONNETT BLOWN ENGINE DESR AMASS POINTS NEEDED FOR CHAMPIONSHIP_93TALLADEGA.NEW.01 
*SOURCE FILE: ERN_F0994_NSCR_1993_RACE NEIL BONNETT BLOWN ENGINE DESR AMASS POINTS NEEDED FOR CHAMPIONSHIP_93TALLADEGA
002129  ERN_F9258_NSCR_1993-07-29_2_OF_4_RACE_BROADCAST_TALLADEGA_DIE_HARD_500_W_DAVEY_ALLISON_TRIBUTE_LGP03979                           V     C        14:44:12:24 14:44:16:16 00:46:29:12 00:46:34:03 
M2      ERN_F9258_NSCR_1993-07-29_2_OF_4_RACE_BROADCAST_TALLADEGA_DIE_HARD_500_W_DAVEY_ALLISON_TRIBUTE_LGP03979                                    024.0 14:44:12:24 
*FROM CLIP NAME:  ERN_F9258_NSCR_1993-07-25_2 OF 4 RACE BROADCAST TALLADEGA DIE HARD 500 W DAVEY ALLISON TRIBUTE_LGP03979.NEW.01 
*SOURCE FILE: ERN_F9258_NSCR_1993-07-29_2 OF 4 RACE BROADCAST TALLADEGA DIE HARD 500 W DAVEY ALLISON TRIBUTE_LGP03979
002130  ERN_F9258_NSCR_1993-07-29_2_OF_4_RACE_BROADCAST_TALLADEGA_DIE_HARD_500_W_DAVEY_ALLISON_TRIBUTE_LGP03979                           V     C        14:44:44:17 14:44:48:28 00:46:34:03 00:46:38:11 
M2      ERN_F9258_NSCR_1993-07-29_2_OF_4_RACE_BROADCAST_TALLADEGA_DIE_HARD_500_W_DAVEY_ALLISON_TRIBUTE_LGP03979                                    030.0 14:44:44:17 
*FROM CLIP NAME:  ERN_F9258_NSCR_1993-07-25_2 OF 4 RACE BROADCAST TALLADEGA DIE HARD 500 W DAVEY ALLISON TRIBUTE_LGP03979.NEW.01 
*SOURCE FILE: ERN_F9258_NSCR_1993-07-29_2 OF 4 RACE BROADCAST TALLADEGA DIE HARD 500 W DAVEY ALLISON TRIBUTE_LGP03979
002131  ERN_F0994_NSCR_1993_RACE_NEIL_BONNETT_BLOWN_ENGINE_DESR_AMASS_POINTS_NEEDED_FOR_CHAMPIONSHIP_93TALLADEGA                          A18   C        00:15:34:06 00:15:35:17 00:46:35:23 00:46:37:07 
M2      ERN_F0994_NSCR_1993_RACE_NEIL_BONNETT_BLOWN_ENGINE_DESR_AMASS_POINTS_NEEDED_FOR_CHAMPIONSHIP_93TALLADEGA                                   030.0 00:15:34:06 
*FROM CLIP NAME:  ERN_F0994_NSCR_1993_RACE NEIL BONNETT BLOWN ENGINE DESR AMASS POINTS NEEDED FOR CHAMPIONSHIP_93TALLADEGA.NEW.01 
*SOURCE FILE: ERN_F0994_NSCR_1993_RACE NEIL BONNETT BLOWN ENGINE DESR AMASS POINTS NEEDED FOR CHAMPIONSHIP_93TALLADEGA
002132  ERN_F0994_NSCR_1993_RACE_NEIL_BONNETT_BLOWN_ENGINE_DESR_AMASS_POINTS_NEEDED_FOR_CHAMPIONSHIP_93TALLADEGA                          A18   C        00:15:35:16 00:15:41:25 00:46:37:07 00:46:43:13 
M2      ERN_F0994_NSCR_1993_RACE_NEIL_BONNETT_BLOWN_ENGINE_DESR_AMASS_POINTS_NEEDED_FOR_CHAMPIONSHIP_93TALLADEGA                                   030.0 00:15:35:16 
*FROM CLIP NAME:  ERN_F0994_NSCR_1993_RACE NEIL BONNETT BLOWN ENGINE DESR AMASS POINTS NEEDED FOR CHAMPIONSHIP_93TALLADEGA.NEW.01 
*SOURCE FILE: ERN_F0994_NSCR_1993_RACE NEIL BONNETT BLOWN ENGINE DESR AMASS POINTS NEEDED FOR CHAMPIONSHIP_93TALLADEGA
002133  ERN_F9258_NSCR_1993-07-29_2_OF_4_RACE_BROADCAST_TALLADEGA_DIE_HARD_500_W_DAVEY_ALLISON_TRIBUTE_LGP03979                           V     C        14:43:39:15 14:43:45:08 00:46:38:11 00:46:44:05 
M2      ERN_F9258_NSCR_1993-07-29_2_OF_4_RACE_BROADCAST_TALLADEGA_DIE_HARD_500_W_DAVEY_ALLISON_TRIBUTE_LGP03979                                    030.0 14:43:39:15 
*FROM CLIP NAME:  ERN_F9258_NSCR_1993-07-25_2 OF 4 RACE BROADCAST TALLADEGA DIE HARD 500 W DAVEY ALLISON TRIBUTE_LGP03979.NEW.01 
*SOURCE FILE: ERN_F9258_NSCR_1993-07-29_2 OF 4 RACE BROADCAST TALLADEGA DIE HARD 500 W DAVEY ALLISON TRIBUTE_LGP03979
002134  ERN_F0994_NSCR_1993_RACE_NEIL_BONNETT_BLOWN_ENGINE_DESR_AMASS_POINTS_NEEDED_FOR_CHAMPIONSHIP_93TALLADEGA                          A22   C        00:16:56:16 00:16:57:17 00:46:43:09 00:46:44:09 
M2      ERN_F0994_NSCR_1993_RACE_NEIL_BONNETT_BLOWN_ENGINE_DESR_AMASS_POINTS_NEEDED_FOR_CHAMPIONSHIP_93TALLADEGA                                   030.0 00:16:56:16 
*FROM CLIP NAME:  ERN_F0994_NSCR_1993_RACE NEIL BONNETT BLOWN ENGINE DESR AMASS POINTS NEEDED FOR CHAMPIONSHIP_93TALLADEGA.NEW.01 
*SOURCE FILE: ERN_F0994_NSCR_1993_RACE NEIL BONNETT BLOWN ENGINE DESR AMASS POINTS NEEDED FOR CHAMPIONSHIP_93TALLADEGA
002135  ERN_F9258_NSCR_1993-07-29_2_OF_4_RACE_BROADCAST_TALLADEGA_DIE_HARD_500_W_DAVEY_ALLISON_TRIBUTE_LGP03979                           V     C        14:44:19:11 14:44:28:19 00:46:44:05 00:46:53:11 
M2      ERN_F9258_NSCR_1993-07-29_2_OF_4_RACE_BROADCAST_TALLADEGA_DIE_HARD_500_W_DAVEY_ALLISON_TRIBUTE_LGP03979                                    030.0 14:44:19:11 
*FROM CLIP NAME:  ERN_F9258_NSCR_1993-07-25_2 OF 4 RACE BROADCAST TALLADEGA DIE HARD 500 W DAVEY ALLISON TRIBUTE_LGP03979.NEW.01 
*SOURCE FILE: ERN_F9258_NSCR_1993-07-29_2 OF 4 RACE BROADCAST TALLADEGA DIE HARD 500 W DAVEY ALLISON TRIBUTE_LGP03979
002136  ERN_F0994_NSCR_1993_RACE_NEIL_BONNETT_BLOWN_ENGINE_DESR_AMASS_POINTS_NEEDED_FOR_CHAMPIONSHIP_93TALLADEGA                          A22   C        00:16:57:16 00:17:06:06 00:46:44:09 00:46:52:23 
M2      ERN_F0994_NSCR_1993_RACE_NEIL_BONNETT_BLOWN_ENGINE_DESR_AMASS_POINTS_NEEDED_FOR_CHAMPIONSHIP_93TALLADEGA                                   030.0 00:16:57:16 
*FROM CLIP NAME:  ERN_F0994_NSCR_1993_RACE NEIL BONNETT BLOWN ENGINE DESR AMASS POINTS NEEDED FOR CHAMPIONSHIP_93TALLADEGA.NEW.01 
*SOURCE FILE: ERN_F0994_NSCR_1993_RACE NEIL BONNETT BLOWN ENGINE DESR AMASS POINTS NEEDED FOR CHAMPIONSHIP_93TALLADEGA
002137  ERN_F0653_NSCR_1990-01-04_DESR_RACE_NASCAR_CUP_SERIES_-_DARLINGTON_90-EV-0664                                                     A20   C        01:08:27:21 01:08:29:22 00:46:44:17 00:46:46:17 
M2      ERN_F0653_NSCR_1990-01-04_DESR_RACE_NASCAR_CUP_SERIES_-_DARLINGTON_90-EV-0664                                                              030.0 01:08:27:21 
*FROM CLIP NAME:  ERN_F0653_NSCR_1990-01-04_DESR RACE NASCAR CUP SERIES - DARLINGTON_90-EV-0664.NEW.01 
*SOURCE FILE: ERN_F0653_NSCR_1990-01-04_DESR RACE NASCAR CUP SERIES - DARLINGTON_90-EV-0664
002138  ERN_F9258_NSCR_1993-07-29_2_OF_4_RACE_BROADCAST_TALLADEGA_DIE_HARD_500_W_DAVEY_ALLISON_TRIBUTE_LGP03979                           A18   C        14:44:24:25 14:44:25:05 00:46:46:07 00:46:46:15 
M2      ERN_F9258_NSCR_1993-07-29_2_OF_4_RACE_BROADCAST_TALLADEGA_DIE_HARD_500_W_DAVEY_ALLISON_TRIBUTE_LGP03979                                    030.0 14:44:24:25 
*FROM CLIP NAME:  ERN_F9258_NSCR_1993-07-25_2 OF 4 RACE BROADCAST TALLADEGA DIE HARD 500 W DAVEY ALLISON TRIBUTE_LGP03979.NEW.01 
*SOURCE FILE: ERN_F9258_NSCR_1993-07-29_2 OF 4 RACE BROADCAST TALLADEGA DIE HARD 500 W DAVEY ALLISON TRIBUTE_LGP03979
002139  ERN_F9258_NSCR_1993-07-29_2_OF_4_RACE_BROADCAST_TALLADEGA_DIE_HARD_500_W_DAVEY_ALLISON_TRIBUTE_LGP03979                           A18   C        14:44:25:05 14:44:29:25 00:46:46:15 00:46:51:07 
M2      ERN_F9258_NSCR_1993-07-29_2_OF_4_RACE_BROADCAST_TALLADEGA_DIE_HARD_500_W_DAVEY_ALLISON_TRIBUTE_LGP03979                                    030.0 14:44:25:05 
*FROM CLIP NAME:  ERN_F9258_NSCR_1993-07-25_2 OF 4 RACE BROADCAST TALLADEGA DIE HARD 500 W DAVEY ALLISON TRIBUTE_LGP03979.NEW.01 
*SOURCE FILE: ERN_F9258_NSCR_1993-07-29_2 OF 4 RACE BROADCAST TALLADEGA DIE HARD 500 W DAVEY ALLISON TRIBUTE_LGP03979
002140  ERN_F0653_NSCR_1990-01-04_DESR_RACE_NASCAR_CUP_SERIES_-_DARLINGTON_90-EV-0664                                                     A20   C        01:08:29:21 01:08:35:29 00:46:46:17 00:46:52:23 
M2      ERN_F0653_NSCR_1990-01-04_DESR_RACE_NASCAR_CUP_SERIES_-_DARLINGTON_90-EV-0664                                                              030.0 01:08:29:21 
*FROM CLIP NAME:  ERN_F0653_NSCR_1990-01-04_DESR RACE NASCAR CUP SERIES - DARLINGTON_90-EV-0664.NEW.01 
*SOURCE FILE: ERN_F0653_NSCR_1990-01-04_DESR RACE NASCAR CUP SERIES - DARLINGTON_90-EV-0664
002141  ERN_F9258_NSCR_1993-07-29_2_OF_4_RACE_BROADCAST_TALLADEGA_DIE_HARD_500_W_DAVEY_ALLISON_TRIBUTE_LGP03979                           A18   C        14:44:40:05 14:44:42:03 00:46:51:07 00:46:53:05 
M2      ERN_F9258_NSCR_1993-07-29_2_OF_4_RACE_BROADCAST_TALLADEGA_DIE_HARD_500_W_DAVEY_ALLISON_TRIBUTE_LGP03979                                    030.0 14:44:40:05 
*FROM CLIP NAME:  ERN_F9258_NSCR_1993-07-25_2 OF 4 RACE BROADCAST TALLADEGA DIE HARD 500 W DAVEY ALLISON TRIBUTE_LGP03979.NEW.01 
*SOURCE FILE: ERN_F9258_NSCR_1993-07-29_2 OF 4 RACE BROADCAST TALLADEGA DIE HARD 500 W DAVEY ALLISON TRIBUTE_LGP03979
002142  ERN_F0800_NSCR_1987-05-17_RACE_DESR_WINNER_BILL_ELLIOTT_CHARLOTTE_-_THE_WINSTON_87-EV-0287                                        A22   C        00:28:14:17 00:28:17:17 00:46:52:23 00:46:55:23 
M2      ERN_F0800_NSCR_1987-05-17_RACE_DESR_WINNER_BILL_ELLIOTT_CHARLOTTE_-_THE_WINSTON_87-EV-0287                                                 030.0 00:28:14:17 
*FROM CLIP NAME:  ERN_F0800_NSCR_1987-05-17_RACE DESR WINNER BILL ELLIOTT CHARLOTTE - THE WINSTON_87-EV-0287.NEW.01 
*TO CLIP NAME:  ERN_F0994_NSCR_1993_RACE NEIL BONNETT BLOWN ENGINE DESR AMASS POINTS NEEDED FOR CHAMPIONSHIP_93TALLADEGA.NEW.01 
*SOURCE FILE: ERN_F0800_NSCR_1987-05-17_RACE DESR WINNER BILL ELLIOTT CHARLOTTE - THE WINSTON_87-EV-0287
002143  ERN_F9258_NSCR_1993-07-29_2_OF_4_RACE_BROADCAST_TALLADEGA_DIE_HARD_500_W_DAVEY_ALLISON_TRIBUTE_LGP03979                           V     C        14:46:39:29 14:46:43:03 00:46:53:11 00:46:56:14 
M2      ERN_F9258_NSCR_1993-07-29_2_OF_4_RACE_BROADCAST_TALLADEGA_DIE_HARD_500_W_DAVEY_ALLISON_TRIBUTE_LGP03979                                    030.0 14:46:39:29 
*FROM CLIP NAME:  ERN_F9258_NSCR_1993-07-25_2 OF 4 RACE BROADCAST TALLADEGA DIE HARD 500 W DAVEY ALLISON TRIBUTE_LGP03979.NEW.01 
*SOURCE FILE: ERN_F9258_NSCR_1993-07-29_2 OF 4 RACE BROADCAST TALLADEGA DIE HARD 500 W DAVEY ALLISON TRIBUTE_LGP03979
002144  ERN_F0800_NSCR_1987-05-17_RACE_DESR_WINNER_BILL_ELLIOTT_CHARLOTTE_-_THE_WINSTON_87-EV-0287                                        A22   C        00:28:17:17 00:28:22:25 00:46:55:23 00:47:01:05 
M2      ERN_F0800_NSCR_1987-05-17_RACE_DESR_WINNER_BILL_ELLIOTT_CHARLOTTE_-_THE_WINSTON_87-EV-0287                                                 030.0 00:28:17:17 
*FROM CLIP NAME:  ERN_F0800_NSCR_1987-05-17_RACE DESR WINNER BILL ELLIOTT CHARLOTTE - THE WINSTON_87-EV-0287.NEW.01 
*SOURCE FILE: ERN_F0800_NSCR_1987-05-17_RACE DESR WINNER BILL ELLIOTT CHARLOTTE - THE WINSTON_87-EV-0287
002145  ERN_F9258_NSCR_1993-07-29_2_OF_4_RACE_BROADCAST_TALLADEGA_DIE_HARD_500_W_DAVEY_ALLISON_TRIBUTE_LGP03979                           V     C        14:43:56:27 14:43:59:03 00:46:56:14 00:46:59:07 
M2      ERN_F9258_NSCR_1993-07-29_2_OF_4_RACE_BROADCAST_TALLADEGA_DIE_HARD_500_W_DAVEY_ALLISON_TRIBUTE_LGP03979                                    024.0 14:43:56:27 
*FROM CLIP NAME:  ERN_F9258_NSCR_1993-07-25_2 OF 4 RACE BROADCAST TALLADEGA DIE HARD 500 W DAVEY ALLISON TRIBUTE_LGP03979.NEW.01 
*SOURCE FILE: ERN_F9258_NSCR_1993-07-29_2 OF 4 RACE BROADCAST TALLADEGA DIE HARD 500 W DAVEY ALLISON TRIBUTE_LGP03979
002146  ERN_F9258_NSCR_1993-07-29_2_OF_4_RACE_BROADCAST_TALLADEGA_DIE_HARD_500_W_DAVEY_ALLISON_TRIBUTE_LGP03979                           V     C        14:43:46:09 14:43:48:27 00:46:59:07 00:47:01:21 
M2      ERN_F9258_NSCR_1993-07-29_2_OF_4_RACE_BROADCAST_TALLADEGA_DIE_HARD_500_W_DAVEY_ALLISON_TRIBUTE_LGP03979                                    030.0 14:43:46:09 
*FROM CLIP NAME:  ERN_F9258_NSCR_1993-07-25_2 OF 4 RACE BROADCAST TALLADEGA DIE HARD 500 W DAVEY ALLISON TRIBUTE_LGP03979.NEW.01 
*SOURCE FILE: ERN_F9258_NSCR_1993-07-29_2 OF 4 RACE BROADCAST TALLADEGA DIE HARD 500 W DAVEY ALLISON TRIBUTE_LGP03979
002147  ERN_F0994_NSCR_1993_RACE_NEIL_BONNETT_BLOWN_ENGINE_DESR_AMASS_POINTS_NEEDED_FOR_CHAMPIONSHIP_93TALLADEGA                          A20   C        00:15:43:15 00:15:48:10 00:47:01:10 00:47:06:05 
M2      ERN_F0994_NSCR_1993_RACE_NEIL_BONNETT_BLOWN_ENGINE_DESR_AMASS_POINTS_NEEDED_FOR_CHAMPIONSHIP_93TALLADEGA                                   030.0 00:15:43:15 
*FROM CLIP NAME:  ERN_F0994_NSCR_1993_RACE NEIL BONNETT BLOWN ENGINE DESR AMASS POINTS NEEDED FOR CHAMPIONSHIP_93TALLADEGA.NEW.01 
*SOURCE FILE: ERN_F0994_NSCR_1993_RACE NEIL BONNETT BLOWN ENGINE DESR AMASS POINTS NEEDED FOR CHAMPIONSHIP_93TALLADEGA
002148  ERN_F9258_NSCR_1993-07-29_2_OF_4_RACE_BROADCAST_TALLADEGA_DIE_HARD_500_W_DAVEY_ALLISON_TRIBUTE_LGP03979                           V     C        14:43:48:28 14:43:52:26 00:47:01:21 00:47:05:19 
M2      ERN_F9258_NSCR_1993-07-29_2_OF_4_RACE_BROADCAST_TALLADEGA_DIE_HARD_500_W_DAVEY_ALLISON_TRIBUTE_LGP03979                                    030.0 14:43:48:28 
*FROM CLIP NAME:  ERN_F9258_NSCR_1993-07-25_2 OF 4 RACE BROADCAST TALLADEGA DIE HARD 500 W DAVEY ALLISON TRIBUTE_LGP03979.NEW.01 
*SOURCE FILE: ERN_F9258_NSCR_1993-07-29_2 OF 4 RACE BROADCAST TALLADEGA DIE HARD 500 W DAVEY ALLISON TRIBUTE_LGP03979
002149  ERN_F0994_NSCR_1993_RACE_NEIL_BONNETT_BLOWN_ENGINE_DESR_AMASS_POINTS_NEEDED_FOR_CHAMPIONSHIP_93TALLADEGA                          A22   C        00:15:44:11 00:15:45:12 00:47:05:17 00:47:06:17 
M2      ERN_F0994_NSCR_1993_RACE_NEIL_BONNETT_BLOWN_ENGINE_DESR_AMASS_POINTS_NEEDED_FOR_CHAMPIONSHIP_93TALLADEGA                                   030.0 00:15:44:11 
*FROM CLIP NAME:  ERN_F0994_NSCR_1993_RACE NEIL BONNETT BLOWN ENGINE DESR AMASS POINTS NEEDED FOR CHAMPIONSHIP_93TALLADEGA.NEW.01 
*SOURCE FILE: ERN_F0994_NSCR_1993_RACE NEIL BONNETT BLOWN ENGINE DESR AMASS POINTS NEEDED FOR CHAMPIONSHIP_93TALLADEGA
002150  ERN_F9258_NSCR_1993-07-29_2_OF_4_RACE_BROADCAST_TALLADEGA_DIE_HARD_500_W_DAVEY_ALLISON_TRIBUTE_LGP03979                           V     C        14:44:52:08 14:44:52:22 00:47:05:19 00:47:06:05 
M2      ERN_F9258_NSCR_1993-07-29_2_OF_4_RACE_BROADCAST_TALLADEGA_DIE_HARD_500_W_DAVEY_ALLISON_TRIBUTE_LGP03979                                    030.0 14:44:52:08 
*FROM CLIP NAME:  ERN_F9258_NSCR_1993-07-25_2 OF 4 RACE BROADCAST TALLADEGA DIE HARD 500 W DAVEY ALLISON TRIBUTE_LGP03979.NEW.01 
*SOURCE FILE: ERN_F9258_NSCR_1993-07-29_2 OF 4 RACE BROADCAST TALLADEGA DIE HARD 500 W DAVEY ALLISON TRIBUTE_LGP03979
002151  ERN_F9258_NSCR_1993-07-29_2_OF_4_RACE_BROADCAST_TALLADEGA_DIE_HARD_500_W_DAVEY_ALLISON_TRIBUTE_LGP03979                           V     C        14:45:03:12 14:45:06:01 00:47:06:05 00:47:09:11 
M2      ERN_F9258_NSCR_1993-07-29_2_OF_4_RACE_BROADCAST_TALLADEGA_DIE_HARD_500_W_DAVEY_ALLISON_TRIBUTE_LGP03979                                    024.0 14:45:03:12 
*FROM CLIP NAME:  ERN_F9258_NSCR_1993-07-25_2 OF 4 RACE BROADCAST TALLADEGA DIE HARD 500 W DAVEY ALLISON TRIBUTE_LGP03979.NEW.01 
*SOURCE FILE: ERN_F9258_NSCR_1993-07-29_2 OF 4 RACE BROADCAST TALLADEGA DIE HARD 500 W DAVEY ALLISON TRIBUTE_LGP03979
002152  ERN_F0994_NSCR_1993_RACE_NEIL_BONNETT_BLOWN_ENGINE_DESR_AMASS_POINTS_NEEDED_FOR_CHAMPIONSHIP_93TALLADEGA                          A20   C        00:15:48:09 00:15:51:17 00:47:06:05 00:47:09:11 
M2      ERN_F0994_NSCR_1993_RACE_NEIL_BONNETT_BLOWN_ENGINE_DESR_AMASS_POINTS_NEEDED_FOR_CHAMPIONSHIP_93TALLADEGA                                   030.0 00:15:48:09 
*FROM CLIP NAME:  ERN_F0994_NSCR_1993_RACE NEIL BONNETT BLOWN ENGINE DESR AMASS POINTS NEEDED FOR CHAMPIONSHIP_93TALLADEGA.NEW.01 
*SOURCE FILE: ERN_F0994_NSCR_1993_RACE NEIL BONNETT BLOWN ENGINE DESR AMASS POINTS NEEDED FOR CHAMPIONSHIP_93TALLADEGA
002153  ERN_F0994_NSCR_1993_RACE_NEIL_BONNETT_BLOWN_ENGINE_DESR_AMASS_POINTS_NEEDED_FOR_CHAMPIONSHIP_93TALLADEGA                          A22   C        00:15:45:11 00:15:47:20 00:47:06:17 00:47:08:23 
M2      ERN_F0994_NSCR_1993_RACE_NEIL_BONNETT_BLOWN_ENGINE_DESR_AMASS_POINTS_NEEDED_FOR_CHAMPIONSHIP_93TALLADEGA                                   030.0 00:15:45:11 
*FROM CLIP NAME:  ERN_F0994_NSCR_1993_RACE NEIL BONNETT BLOWN ENGINE DESR AMASS POINTS NEEDED FOR CHAMPIONSHIP_93TALLADEGA.NEW.01 
*SOURCE FILE: ERN_F0994_NSCR_1993_RACE NEIL BONNETT BLOWN ENGINE DESR AMASS POINTS NEEDED FOR CHAMPIONSHIP_93TALLADEGA
002154  ERN_F0994_NSCR_1993_RACE_NEIL_BONNETT_BLOWN_ENGINE_DESR_AMASS_POINTS_NEEDED_FOR_CHAMPIONSHIP_93TALLADEGA                          A24   C        00:17:08:24 00:17:10:25 00:47:07:23 00:47:09:23 
M2      ERN_F0994_NSCR_1993_RACE_NEIL_BONNETT_BLOWN_ENGINE_DESR_AMASS_POINTS_NEEDED_FOR_CHAMPIONSHIP_93TALLADEGA                                   030.0 00:17:08:24 
*FROM CLIP NAME:  ERN_F0994_NSCR_1993_RACE NEIL BONNETT BLOWN ENGINE DESR AMASS POINTS NEEDED FOR CHAMPIONSHIP_93TALLADEGA.NEW.01 
*SOURCE FILE: ERN_F0994_NSCR_1993_RACE NEIL BONNETT BLOWN ENGINE DESR AMASS POINTS NEEDED FOR CHAMPIONSHIP_93TALLADEGA
002155  ERN_F0994_NSCR_1993_RACE_NEIL_BONNETT_BLOWN_ENGINE_DESR_AMASS_POINTS_NEEDED_FOR_CHAMPIONSHIP_93TALLADEGA                          A20   C        00:15:51:16 00:15:54:02 00:47:09:11 00:47:11:23 
M2      ERN_F0994_NSCR_1993_RACE_NEIL_BONNETT_BLOWN_ENGINE_DESR_AMASS_POINTS_NEEDED_FOR_CHAMPIONSHIP_93TALLADEGA                                   030.0 00:15:51:16 
*FROM CLIP NAME:  ERN_F0994_NSCR_1993_RACE NEIL BONNETT BLOWN ENGINE DESR AMASS POINTS NEEDED FOR CHAMPIONSHIP_93TALLADEGA.NEW.01 
*SOURCE FILE: ERN_F0994_NSCR_1993_RACE NEIL BONNETT BLOWN ENGINE DESR AMASS POINTS NEEDED FOR CHAMPIONSHIP_93TALLADEGA
002156  ERN_F9258_NSCR_1993-07-29_2_OF_4_RACE_BROADCAST_TALLADEGA_DIE_HARD_500_W_DAVEY_ALLISON_TRIBUTE_LGP03979                           V     C        14:45:10:12 14:45:16:17 00:47:09:11 00:47:15:15 
M2      ERN_F9258_NSCR_1993-07-29_2_OF_4_RACE_BROADCAST_TALLADEGA_DIE_HARD_500_W_DAVEY_ALLISON_TRIBUTE_LGP03979                                    030.0 14:45:10:12 
*FROM CLIP NAME:  ERN_F9258_NSCR_1993-07-25_2 OF 4 RACE BROADCAST TALLADEGA DIE HARD 500 W DAVEY ALLISON TRIBUTE_LGP03979.NEW.01 
*SOURCE FILE: ERN_F9258_NSCR_1993-07-29_2 OF 4 RACE BROADCAST TALLADEGA DIE HARD 500 W DAVEY ALLISON TRIBUTE_LGP03979
002157  ERN_F9258_NSCR_1993-07-29_2_OF_4_RACE_BROADCAST_TALLADEGA_DIE_HARD_500_W_DAVEY_ALLISON_TRIBUTE_LGP03979                           A18   C        14:45:10:14 14:45:11:25 00:47:09:13 00:47:10:21 
M2      ERN_F9258_NSCR_1993-07-29_2_OF_4_RACE_BROADCAST_TALLADEGA_DIE_HARD_500_W_DAVEY_ALLISON_TRIBUTE_LGP03979                                    030.0 14:45:10:14 
*FROM CLIP NAME:  ERN_F9258_NSCR_1993-07-25_2 OF 4 RACE BROADCAST TALLADEGA DIE HARD 500 W DAVEY ALLISON TRIBUTE_LGP03979.NEW.01 
*SOURCE FILE: ERN_F9258_NSCR_1993-07-29_2 OF 4 RACE BROADCAST TALLADEGA DIE HARD 500 W DAVEY ALLISON TRIBUTE_LGP03979
002158  ERN_F0994_NSCR_1993_RACE_NEIL_BONNETT_BLOWN_ENGINE_DESR_AMASS_POINTS_NEEDED_FOR_CHAMPIONSHIP_93TALLADEGA                          A24   C        00:17:10:24 00:17:16:11 00:47:09:23 00:47:15:12 
M2      ERN_F0994_NSCR_1993_RACE_NEIL_BONNETT_BLOWN_ENGINE_DESR_AMASS_POINTS_NEEDED_FOR_CHAMPIONSHIP_93TALLADEGA                                   030.0 00:17:10:24 
*FROM CLIP NAME:  ERN_F0994_NSCR_1993_RACE NEIL BONNETT BLOWN ENGINE DESR AMASS POINTS NEEDED FOR CHAMPIONSHIP_93TALLADEGA.NEW.01 
*SOURCE FILE: ERN_F0994_NSCR_1993_RACE NEIL BONNETT BLOWN ENGINE DESR AMASS POINTS NEEDED FOR CHAMPIONSHIP_93TALLADEGA
002159  ERN_F9258_NSCR_1993-07-29_2_OF_4_RACE_BROADCAST_TALLADEGA_DIE_HARD_500_W_DAVEY_ALLISON_TRIBUTE_LGP03979                           A18   C        14:45:11:24 14:45:12:20 00:47:10:21 00:47:11:17 
M2      ERN_F9258_NSCR_1993-07-29_2_OF_4_RACE_BROADCAST_TALLADEGA_DIE_HARD_500_W_DAVEY_ALLISON_TRIBUTE_LGP03979                                    030.0 14:45:11:24 
*FROM CLIP NAME:  ERN_F9258_NSCR_1993-07-25_2 OF 4 RACE BROADCAST TALLADEGA DIE HARD 500 W DAVEY ALLISON TRIBUTE_LGP03979.NEW.01 
*SOURCE FILE: ERN_F9258_NSCR_1993-07-29_2 OF 4 RACE BROADCAST TALLADEGA DIE HARD 500 W DAVEY ALLISON TRIBUTE_LGP03979
002160  ERN_F9258_NSCR_1993-07-29_2_OF_4_RACE_BROADCAST_TALLADEGA_DIE_HARD_500_W_DAVEY_ALLISON_TRIBUTE_LGP03979                           A18   C        14:45:44:22 14:45:45:07 00:47:11:17 00:47:12:05 
M2      ERN_F9258_NSCR_1993-07-29_2_OF_4_RACE_BROADCAST_TALLADEGA_DIE_HARD_500_W_DAVEY_ALLISON_TRIBUTE_LGP03979                                    030.0 14:45:44:22 
*FROM CLIP NAME:  ERN_F9258_NSCR_1993-07-25_2 OF 4 RACE BROADCAST TALLADEGA DIE HARD 500 W DAVEY ALLISON TRIBUTE_LGP03979.NEW.01 
*TO CLIP NAME:  ERN_F9258_NSCR_1993-07-25_2 OF 4 RACE BROADCAST TALLADEGA DIE HARD 500 W DAVEY ALLISON TRIBUTE_LGP03979.NEW.01 
*SOURCE FILE: ERN_F9258_NSCR_1993-07-29_2 OF 4 RACE BROADCAST TALLADEGA DIE HARD 500 W DAVEY ALLISON TRIBUTE_LGP03979
002161  ERN_F9258_NSCR_1993-07-29_2_OF_4_RACE_BROADCAST_TALLADEGA_DIE_HARD_500_W_DAVEY_ALLISON_TRIBUTE_LGP03979                           A18   C        14:45:45:07 14:45:47:29 00:47:12:05 00:47:14:22 
M2      ERN_F9258_NSCR_1993-07-29_2_OF_4_RACE_BROADCAST_TALLADEGA_DIE_HARD_500_W_DAVEY_ALLISON_TRIBUTE_LGP03979                                    030.0 14:45:45:07 
*FROM CLIP NAME:  ERN_F9258_NSCR_1993-07-25_2 OF 4 RACE BROADCAST TALLADEGA DIE HARD 500 W DAVEY ALLISON TRIBUTE_LGP03979.NEW.01 
*SOURCE FILE: ERN_F9258_NSCR_1993-07-29_2 OF 4 RACE BROADCAST TALLADEGA DIE HARD 500 W DAVEY ALLISON TRIBUTE_LGP03979
002162  ERN_F0994_NSCR_1993_RACE_NEIL_BONNETT_BLOWN_ENGINE_DESR_AMASS_POINTS_NEEDED_FOR_CHAMPIONSHIP_93TALLADEGA                          A24   C        00:17:48:14 00:17:49:15 00:47:15:12 00:47:16:12 
M2      ERN_F0994_NSCR_1993_RACE_NEIL_BONNETT_BLOWN_ENGINE_DESR_AMASS_POINTS_NEEDED_FOR_CHAMPIONSHIP_93TALLADEGA                                   030.0 00:17:48:14 
*FROM CLIP NAME:  ERN_F0994_NSCR_1993_RACE NEIL BONNETT BLOWN ENGINE DESR AMASS POINTS NEEDED FOR CHAMPIONSHIP_93TALLADEGA.NEW.01 
*TO CLIP NAME:  ERN_F0994_NSCR_1993_RACE NEIL BONNETT BLOWN ENGINE DESR AMASS POINTS NEEDED FOR CHAMPIONSHIP_93TALLADEGA.NEW.01 
*SOURCE FILE: ERN_F0994_NSCR_1993_RACE NEIL BONNETT BLOWN ENGINE DESR AMASS POINTS NEEDED FOR CHAMPIONSHIP_93TALLADEGA
002163  ERN_F9258_NSCR_1993-07-29_2_OF_4_RACE_BROADCAST_TALLADEGA_DIE_HARD_500_W_DAVEY_ALLISON_TRIBUTE_LGP03979                           V     C        14:47:25:07 14:47:28:23 00:47:15:15 00:47:19:03 
M2      ERN_F9258_NSCR_1993-07-29_2_OF_4_RACE_BROADCAST_TALLADEGA_DIE_HARD_500_W_DAVEY_ALLISON_TRIBUTE_LGP03979                                    030.0 14:47:25:07 
*FROM CLIP NAME:  ERN_F9258_NSCR_1993-07-25_2 OF 4 RACE BROADCAST TALLADEGA DIE HARD 500 W DAVEY ALLISON TRIBUTE_LGP03979.NEW.01 
*SOURCE FILE: ERN_F9258_NSCR_1993-07-29_2 OF 4 RACE BROADCAST TALLADEGA DIE HARD 500 W DAVEY ALLISON TRIBUTE_LGP03979
002164  ERN_F0994_NSCR_1993_RACE_NEIL_BONNETT_BLOWN_ENGINE_DESR_AMASS_POINTS_NEEDED_FOR_CHAMPIONSHIP_93TALLADEGA                          A24   C        00:17:49:14 00:18:03:11 00:47:16:12 00:47:30:07 
M2      ERN_F0994_NSCR_1993_RACE_NEIL_BONNETT_BLOWN_ENGINE_DESR_AMASS_POINTS_NEEDED_FOR_CHAMPIONSHIP_93TALLADEGA                                   030.0 00:17:49:14 
*FROM CLIP NAME:  ERN_F0994_NSCR_1993_RACE NEIL BONNETT BLOWN ENGINE DESR AMASS POINTS NEEDED FOR CHAMPIONSHIP_93TALLADEGA.NEW.01 
*SOURCE FILE: ERN_F0994_NSCR_1993_RACE NEIL BONNETT BLOWN ENGINE DESR AMASS POINTS NEEDED FOR CHAMPIONSHIP_93TALLADEGA
002165  ERN_F9258_NSCR_1993-07-29_2_OF_4_RACE_BROADCAST_TALLADEGA_DIE_HARD_500_W_DAVEY_ALLISON_TRIBUTE_LGP03979                           V     C        14:45:58:05 14:46:10:04 00:47:19:03 00:47:31:00 
M2      ERN_F9258_NSCR_1993-07-29_2_OF_4_RACE_BROADCAST_TALLADEGA_DIE_HARD_500_W_DAVEY_ALLISON_TRIBUTE_LGP03979                                    030.0 14:45:58:05 
*FROM CLIP NAME:  ERN_F9258_NSCR_1993-07-25_2 OF 4 RACE BROADCAST TALLADEGA DIE HARD 500 W DAVEY ALLISON TRIBUTE_LGP03979.NEW.01 
*SOURCE FILE: ERN_F9258_NSCR_1993-07-29_2 OF 4 RACE BROADCAST TALLADEGA DIE HARD 500 W DAVEY ALLISON TRIBUTE_LGP03979
002166  ERN_F0994_NSCR_1993_RACE_NEIL_BONNETT_BLOWN_ENGINE_DESR_AMASS_POINTS_NEEDED_FOR_CHAMPIONSHIP_93TALLADEGA                          A20   C        00:27:23:12 00:27:24:03 00:47:29:08 00:47:30:00 
M2      ERN_F0994_NSCR_1993_RACE_NEIL_BONNETT_BLOWN_ENGINE_DESR_AMASS_POINTS_NEEDED_FOR_CHAMPIONSHIP_93TALLADEGA                                   030.0 00:27:23:12 
*FROM CLIP NAME:  ERN_F0994_NSCR_1993_RACE NEIL BONNETT BLOWN ENGINE DESR AMASS POINTS NEEDED FOR CHAMPIONSHIP_93TALLADEGA.NEW.01 
*SOURCE FILE: ERN_F0994_NSCR_1993_RACE NEIL BONNETT BLOWN ENGINE DESR AMASS POINTS NEEDED FOR CHAMPIONSHIP_93TALLADEGA
002167  ERN_F0994_NSCR_1993_RACE_NEIL_BONNETT_BLOWN_ENGINE_DESR_AMASS_POINTS_NEEDED_FOR_CHAMPIONSHIP_93TALLADEGA                          A20   C        00:27:24:02 00:27:36:14 00:47:30:00 00:47:42:09 
M2      ERN_F0994_NSCR_1993_RACE_NEIL_BONNETT_BLOWN_ENGINE_DESR_AMASS_POINTS_NEEDED_FOR_CHAMPIONSHIP_93TALLADEGA                                   030.0 00:27:24:02 
*FROM CLIP NAME:  ERN_F0994_NSCR_1993_RACE NEIL BONNETT BLOWN ENGINE DESR AMASS POINTS NEEDED FOR CHAMPIONSHIP_93TALLADEGA.NEW.01 
*SOURCE FILE: ERN_F0994_NSCR_1993_RACE NEIL BONNETT BLOWN ENGINE DESR AMASS POINTS NEEDED FOR CHAMPIONSHIP_93TALLADEGA
002168  ERN_F2006_NSCR_1993-11-14_1_OF_2_BROADCAST_HOOTERS_500_DESR_IN_VICTORY_LANE_WINSTON_CUP_CHAMPIONSHIP_DESR_NO3_93-EV-0578_S001     V     C        16:21:08:17 16:21:12:14 00:47:31:00 00:47:34:21 
M2      ERN_F2006_NSCR_1993-11-14_1_OF_2_BROADCAST_HOOTERS_500_DESR_IN_VICTORY_LANE_WINSTON_CUP_CHAMPIONSHIP_DESR_NO3_93-EV-0578_S001              030.0 16:21:08:17 
*FROM CLIP NAME:  ERN_F2006_NSCR_1993-11-14_1 OF 2 BROADCAST HOOTERS 500 DESR IN VICTORY LANE WINSTON CUP CHAMPIONSHIP DESR NO3_93-EV-0578_S001.NEW.01 
*SOURCE FILE: ERN_F2006_NSCR_1993-11-14_1 OF 2 BROADCAST HOOTERS 500 DESR IN VICTORY LANE WINSTON CUP CHAMPIONSHIP DESR NO3_93-EV-0578_S001
002169  ERN_F0994_NSCR_1993_RACE_NEIL_BONNETT_BLOWN_ENGINE_DESR_AMASS_POINTS_NEEDED_FOR_CHAMPIONSHIP_93TALLADEGA                          A22   C        00:27:33:17 00:27:35:03 00:47:33:16 00:47:35:04 
M2      ERN_F0994_NSCR_1993_RACE_NEIL_BONNETT_BLOWN_ENGINE_DESR_AMASS_POINTS_NEEDED_FOR_CHAMPIONSHIP_93TALLADEGA                                   030.0 00:27:33:17 
*FROM CLIP NAME:  ERN_F0994_NSCR_1993_RACE NEIL BONNETT BLOWN ENGINE DESR AMASS POINTS NEEDED FOR CHAMPIONSHIP_93TALLADEGA.NEW.01 
*SOURCE FILE: ERN_F0994_NSCR_1993_RACE NEIL BONNETT BLOWN ENGINE DESR AMASS POINTS NEEDED FOR CHAMPIONSHIP_93TALLADEGA
002170  ERN_F0994_NSCR_1993_RACE_NEIL_BONNETT_BLOWN_ENGINE_DESR_AMASS_POINTS_NEEDED_FOR_CHAMPIONSHIP_93TALLADEGA                          V     C        00:27:37:26 00:27:46:24 00:47:34:21 00:47:43:19 
M2      ERN_F0994_NSCR_1993_RACE_NEIL_BONNETT_BLOWN_ENGINE_DESR_AMASS_POINTS_NEEDED_FOR_CHAMPIONSHIP_93TALLADEGA                                   030.0 00:27:37:26 
*FROM CLIP NAME:  ERN_F0994_NSCR_1993_RACE NEIL BONNETT BLOWN ENGINE DESR AMASS POINTS NEEDED FOR CHAMPIONSHIP_93TALLADEGA.NEW.01 
*SOURCE FILE: ERN_F0994_NSCR_1993_RACE NEIL BONNETT BLOWN ENGINE DESR AMASS POINTS NEEDED FOR CHAMPIONSHIP_93TALLADEGA
002171  ERN_F0994_NSCR_1993_RACE_NEIL_BONNETT_BLOWN_ENGINE_DESR_AMASS_POINTS_NEEDED_FOR_CHAMPIONSHIP_93TALLADEGA                          A22   C        00:27:35:02 00:27:42:19 00:47:35:04 00:47:42:17 
M2      ERN_F0994_NSCR_1993_RACE_NEIL_BONNETT_BLOWN_ENGINE_DESR_AMASS_POINTS_NEEDED_FOR_CHAMPIONSHIP_93TALLADEGA                                   030.0 00:27:35:02 
*FROM CLIP NAME:  ERN_F0994_NSCR_1993_RACE NEIL BONNETT BLOWN ENGINE DESR AMASS POINTS NEEDED FOR CHAMPIONSHIP_93TALLADEGA.NEW.01 
*SOURCE FILE: ERN_F0994_NSCR_1993_RACE NEIL BONNETT BLOWN ENGINE DESR AMASS POINTS NEEDED FOR CHAMPIONSHIP_93TALLADEGA
002172  ERN_F0993_NSCR_1993_RACE_NEIL_BONNET_CRASH_AT_TALLADEGA_JULY_93ATLANTA_NXS                                                        A18   C        00:06:24:08 00:06:24:24 00:47:42:07 00:47:42:19 
M2      ERN_F0993_NSCR_1993_RACE_NEIL_BONNET_CRASH_AT_TALLADEGA_JULY_93ATLANTA_NXS                                                                 030.0 00:06:24:08 
*FROM CLIP NAME:  ERN_F0993_NSCR_1993_RACE NEIL BONNET CRASH AT TALLADEGA JULY_93ATLANTA_NXS.NEW.01 
*SOURCE FILE: ERN_F0993_NSCR_1993_RACE NEIL BONNET CRASH AT TALLADEGA JULY_93ATLANTA_NXS
002173  ERN_F0993_NSCR_1993_RACE_NEIL_BONNET_CRASH_AT_TALLADEGA_JULY_93ATLANTA_NXS                                                        A18   C        00:06:22:27 00:06:23:02 00:47:42:19 00:47:42:23 
M2      ERN_F0993_NSCR_1993_RACE_NEIL_BONNET_CRASH_AT_TALLADEGA_JULY_93ATLANTA_NXS                                                                 030.0 00:06:22:27 
*FROM CLIP NAME:  ERN_F0993_NSCR_1993_RACE NEIL BONNET CRASH AT TALLADEGA JULY_93ATLANTA_NXS.NEW.01 
*TO CLIP NAME:  ERN_F0993_NSCR_1993_RACE NEIL BONNET CRASH AT TALLADEGA JULY_93ATLANTA_NXS.NEW.01 
*SOURCE FILE: ERN_F0993_NSCR_1993_RACE NEIL BONNET CRASH AT TALLADEGA JULY_93ATLANTA_NXS
002174  ERN_F0993_NSCR_1993_RACE_NEIL_BONNET_CRASH_AT_TALLADEGA_JULY_93ATLANTA_NXS                                                        A18   C        00:06:23:02 00:06:31:27 00:47:42:23 00:47:51:19 
M2      ERN_F0993_NSCR_1993_RACE_NEIL_BONNET_CRASH_AT_TALLADEGA_JULY_93ATLANTA_NXS                                                                 030.0 00:06:23:02 
*FROM CLIP NAME:  ERN_F0993_NSCR_1993_RACE NEIL BONNET CRASH AT TALLADEGA JULY_93ATLANTA_NXS.NEW.01 
*SOURCE FILE: ERN_F0993_NSCR_1993_RACE NEIL BONNET CRASH AT TALLADEGA JULY_93ATLANTA_NXS
002175  ERN_F0993_NSCR_1993_RACE_NEIL_BONNET_CRASH_AT_TALLADEGA_JULY_93ATLANTA_NXS                                                        V     C        00:06:23:27 00:06:33:01 00:47:43:19 00:47:52:22 
M2      ERN_F0993_NSCR_1993_RACE_NEIL_BONNET_CRASH_AT_TALLADEGA_JULY_93ATLANTA_NXS                                                                 030.0 00:06:23:27 
*FROM CLIP NAME:  ERN_F0993_NSCR_1993_RACE NEIL BONNET CRASH AT TALLADEGA JULY_93ATLANTA_NXS.NEW.01 
*SOURCE FILE: ERN_F0993_NSCR_1993_RACE NEIL BONNET CRASH AT TALLADEGA JULY_93ATLANTA_NXS
002176  ERN_F0994_NSCR_1993_RACE_NEIL_BONNETT_BLOWN_ENGINE_DESR_AMASS_POINTS_NEEDED_FOR_CHAMPIONSHIP_93TALLADEGA                          A22   C        00:13:43:12 00:13:44:28 00:47:51:22 00:47:53:10 
M2      ERN_F0994_NSCR_1993_RACE_NEIL_BONNETT_BLOWN_ENGINE_DESR_AMASS_POINTS_NEEDED_FOR_CHAMPIONSHIP_93TALLADEGA                                   030.0 00:13:43:12 
*FROM CLIP NAME:  ERN_F0994_NSCR_1993_RACE NEIL BONNETT BLOWN ENGINE DESR AMASS POINTS NEEDED FOR CHAMPIONSHIP_93TALLADEGA.NEW.01 
*SOURCE FILE: ERN_F0994_NSCR_1993_RACE NEIL BONNETT BLOWN ENGINE DESR AMASS POINTS NEEDED FOR CHAMPIONSHIP_93TALLADEGA
002177  ERN_F0994_NSCR_1993_RACE_NEIL_BONNETT_BLOWN_ENGINE_DESR_AMASS_POINTS_NEEDED_FOR_CHAMPIONSHIP_93TALLADEGA                          V     C        00:13:44:29 00:13:48:11 00:47:52:22 00:47:56:07 
M2      ERN_F0994_NSCR_1993_RACE_NEIL_BONNETT_BLOWN_ENGINE_DESR_AMASS_POINTS_NEEDED_FOR_CHAMPIONSHIP_93TALLADEGA                                   030.0 00:13:44:29 
*FROM CLIP NAME:  ERN_F0994_NSCR_1993_RACE NEIL BONNETT BLOWN ENGINE DESR AMASS POINTS NEEDED FOR CHAMPIONSHIP_93TALLADEGA.NEW.01 
*SOURCE FILE: ERN_F0994_NSCR_1993_RACE NEIL BONNETT BLOWN ENGINE DESR AMASS POINTS NEEDED FOR CHAMPIONSHIP_93TALLADEGA
002178  ERN_F0994_NSCR_1993_RACE_NEIL_BONNETT_BLOWN_ENGINE_DESR_AMASS_POINTS_NEEDED_FOR_CHAMPIONSHIP_93TALLADEGA                          A22   C        00:13:44:27 00:13:56:19 00:47:53:10 00:48:05:03 
M2      ERN_F0994_NSCR_1993_RACE_NEIL_BONNETT_BLOWN_ENGINE_DESR_AMASS_POINTS_NEEDED_FOR_CHAMPIONSHIP_93TALLADEGA                                   030.0 00:13:44:27 
*FROM CLIP NAME:  ERN_F0994_NSCR_1993_RACE NEIL BONNETT BLOWN ENGINE DESR AMASS POINTS NEEDED FOR CHAMPIONSHIP_93TALLADEGA.NEW.01 
*SOURCE FILE: ERN_F0994_NSCR_1993_RACE NEIL BONNETT BLOWN ENGINE DESR AMASS POINTS NEEDED FOR CHAMPIONSHIP_93TALLADEGA
002179  ERN_F9260_NSCR_1993-07-29_4_OF_4_RACE_BROADCAST_TALLADEGA_DIE_HARD_500_W_DAVEY_ALLISON_TRIBUTE_LGP03981_S001                      A18   C        16:52:52:20 16:52:53:11 00:47:54:22 00:47:55:14 
M2      ERN_F9260_NSCR_1993-07-29_4_OF_4_RACE_BROADCAST_TALLADEGA_DIE_HARD_500_W_DAVEY_ALLISON_TRIBUTE_LGP03981_S001                               030.0 16:52:52:20 
*FROM CLIP NAME:  ERN_F9260_NSCR_1993-07-25_4 OF 4 RACE BROADCAST TALLADEGA DIE HARD 500 W DAVEY ALLISON TRIBUTE_LGP03981_S001.NEW.01 
*SOURCE FILE: ERN_F9260_NSCR_1993-07-29_4 OF 4 RACE BROADCAST TALLADEGA DIE HARD 500 W DAVEY ALLISON TRIBUTE_LGP03981_S001
002180  ERN_F9260_NSCR_1993-07-29_4_OF_4_RACE_BROADCAST_TALLADEGA_DIE_HARD_500_W_DAVEY_ALLISON_TRIBUTE_LGP03981_S001                      A18   C        16:52:53:10 16:53:02:04 00:47:55:14 00:48:04:07 
M2      ERN_F9260_NSCR_1993-07-29_4_OF_4_RACE_BROADCAST_TALLADEGA_DIE_HARD_500_W_DAVEY_ALLISON_TRIBUTE_LGP03981_S001                               030.0 16:52:53:10 
*FROM CLIP NAME:  ERN_F9260_NSCR_1993-07-25_4 OF 4 RACE BROADCAST TALLADEGA DIE HARD 500 W DAVEY ALLISON TRIBUTE_LGP03981_S001.NEW.01 
*SOURCE FILE: ERN_F9260_NSCR_1993-07-29_4 OF 4 RACE BROADCAST TALLADEGA DIE HARD 500 W DAVEY ALLISON TRIBUTE_LGP03981_S001
002181  ERN_F0994_NSCR_1993_RACE_NEIL_BONNETT_BLOWN_ENGINE_DESR_AMASS_POINTS_NEEDED_FOR_CHAMPIONSHIP_93TALLADEGA                          V     C        00:13:52:26 00:13:57:06 00:47:56:07 00:48:00:14 
M2      ERN_F0994_NSCR_1993_RACE_NEIL_BONNETT_BLOWN_ENGINE_DESR_AMASS_POINTS_NEEDED_FOR_CHAMPIONSHIP_93TALLADEGA                                   030.0 00:13:52:26 
*FROM CLIP NAME:  ERN_F0994_NSCR_1993_RACE NEIL BONNETT BLOWN ENGINE DESR AMASS POINTS NEEDED FOR CHAMPIONSHIP_93TALLADEGA.NEW.01 
*SOURCE FILE: ERN_F0994_NSCR_1993_RACE NEIL BONNETT BLOWN ENGINE DESR AMASS POINTS NEEDED FOR CHAMPIONSHIP_93TALLADEGA
002182  ERN_F9260_NSCR_1993-07-29_4_OF_4_RACE_BROADCAST_TALLADEGA_DIE_HARD_500_W_DAVEY_ALLISON_TRIBUTE_LGP03981_S001                      V     C        16:52:58:10 16:53:02:16 00:48:00:14 00:48:04:17 
M2      ERN_F9260_NSCR_1993-07-29_4_OF_4_RACE_BROADCAST_TALLADEGA_DIE_HARD_500_W_DAVEY_ALLISON_TRIBUTE_LGP03981_S001                               030.0 16:52:58:10 
*FROM CLIP NAME:  ERN_F9260_NSCR_1993-07-25_4 OF 4 RACE BROADCAST TALLADEGA DIE HARD 500 W DAVEY ALLISON TRIBUTE_LGP03981_S001.NEW.01 
*SOURCE FILE: ERN_F9260_NSCR_1993-07-29_4 OF 4 RACE BROADCAST TALLADEGA DIE HARD 500 W DAVEY ALLISON TRIBUTE_LGP03981_S001
002183  ERN_F0994_NSCR_1993_RACE_NEIL_BONNETT_BLOWN_ENGINE_DESR_AMASS_POINTS_NEEDED_FOR_CHAMPIONSHIP_93TALLADEGA                          A18   C        00:30:13:19 00:30:13:23 00:48:04:07 00:48:04:10 
M2      ERN_F0994_NSCR_1993_RACE_NEIL_BONNETT_BLOWN_ENGINE_DESR_AMASS_POINTS_NEEDED_FOR_CHAMPIONSHIP_93TALLADEGA                                   030.0 00:30:13:19 
*FROM CLIP NAME:  ERN_F0994_NSCR_1993_RACE NEIL BONNETT BLOWN ENGINE DESR AMASS POINTS NEEDED FOR CHAMPIONSHIP_93TALLADEGA.NEW.01 
*TO CLIP NAME:  ERN_F9260_NSCR_1993-07-25_4 OF 4 RACE BROADCAST TALLADEGA DIE HARD 500 W DAVEY ALLISON TRIBUTE_LGP03981_S001.NEW.01 
*SOURCE FILE: ERN_F0994_NSCR_1993_RACE NEIL BONNETT BLOWN ENGINE DESR AMASS POINTS NEEDED FOR CHAMPIONSHIP_93TALLADEGA
002184  ERN_F0994_NSCR_1993_RACE_NEIL_BONNETT_BLOWN_ENGINE_DESR_AMASS_POINTS_NEEDED_FOR_CHAMPIONSHIP_93TALLADEGA                          A18   C        00:30:13:22 00:30:14:02 00:48:04:10 00:48:04:17 
M2      ERN_F0994_NSCR_1993_RACE_NEIL_BONNETT_BLOWN_ENGINE_DESR_AMASS_POINTS_NEEDED_FOR_CHAMPIONSHIP_93TALLADEGA                                   030.0 00:30:13:22 
*FROM CLIP NAME:  ERN_F0994_NSCR_1993_RACE NEIL BONNETT BLOWN ENGINE DESR AMASS POINTS NEEDED FOR CHAMPIONSHIP_93TALLADEGA.NEW.01 
*SOURCE FILE: ERN_F0994_NSCR_1993_RACE NEIL BONNETT BLOWN ENGINE DESR AMASS POINTS NEEDED FOR CHAMPIONSHIP_93TALLADEGA
002185  ERN_F0994_NSCR_1993_RACE_NEIL_BONNETT_BLOWN_ENGINE_DESR_AMASS_POINTS_NEEDED_FOR_CHAMPIONSHIP_93TALLADEGA                          V     C        00:14:59:16 00:15:11:10 00:48:04:17 00:48:16:10 
M2      ERN_F0994_NSCR_1993_RACE_NEIL_BONNETT_BLOWN_ENGINE_DESR_AMASS_POINTS_NEEDED_FOR_CHAMPIONSHIP_93TALLADEGA                                   030.0 00:14:59:16 
*FROM CLIP NAME:  ERN_F0994_NSCR_1993_RACE NEIL BONNETT BLOWN ENGINE DESR AMASS POINTS NEEDED FOR CHAMPIONSHIP_93TALLADEGA.NEW.01 
*SOURCE FILE: ERN_F0994_NSCR_1993_RACE NEIL BONNETT BLOWN ENGINE DESR AMASS POINTS NEEDED FOR CHAMPIONSHIP_93TALLADEGA
002186  ERN_F0994_NSCR_1993_RACE_NEIL_BONNETT_BLOWN_ENGINE_DESR_AMASS_POINTS_NEEDED_FOR_CHAMPIONSHIP_93TALLADEGA                          A20   C        00:14:59:16 00:15:01:20 00:48:05:03 00:48:07:04 
M2      ERN_F0994_NSCR_1993_RACE_NEIL_BONNETT_BLOWN_ENGINE_DESR_AMASS_POINTS_NEEDED_FOR_CHAMPIONSHIP_93TALLADEGA                                   030.0 00:14:59:16 
*FROM CLIP NAME:  ERN_F0994_NSCR_1993_RACE NEIL BONNETT BLOWN ENGINE DESR AMASS POINTS NEEDED FOR CHAMPIONSHIP_93TALLADEGA.NEW.01 
*SOURCE FILE: ERN_F0994_NSCR_1993_RACE NEIL BONNETT BLOWN ENGINE DESR AMASS POINTS NEEDED FOR CHAMPIONSHIP_93TALLADEGA
002187  ERN_F0994_NSCR_1993_RACE_NEIL_BONNETT_BLOWN_ENGINE_DESR_AMASS_POINTS_NEEDED_FOR_CHAMPIONSHIP_93TALLADEGA                          A20   C        00:15:01:19 00:15:03:05 00:48:07:04 00:48:08:16 
M2      ERN_F0994_NSCR_1993_RACE_NEIL_BONNETT_BLOWN_ENGINE_DESR_AMASS_POINTS_NEEDED_FOR_CHAMPIONSHIP_93TALLADEGA                                   030.0 00:15:01:19 
*FROM CLIP NAME:  ERN_F0994_NSCR_1993_RACE NEIL BONNETT BLOWN ENGINE DESR AMASS POINTS NEEDED FOR CHAMPIONSHIP_93TALLADEGA.NEW.01 
*TO CLIP NAME:  ERN_F0994_NSCR_1993_RACE NEIL BONNETT BLOWN ENGINE DESR AMASS POINTS NEEDED FOR CHAMPIONSHIP_93TALLADEGA.NEW.01 
*SOURCE FILE: ERN_F0994_NSCR_1993_RACE NEIL BONNETT BLOWN ENGINE DESR AMASS POINTS NEEDED FOR CHAMPIONSHIP_93TALLADEGA
002188  ERN_F0994_NSCR_1993_RACE_NEIL_BONNETT_BLOWN_ENGINE_DESR_AMASS_POINTS_NEEDED_FOR_CHAMPIONSHIP_93TALLADEGA                          A20   C        00:15:03:04 00:15:08:28 00:48:08:16 00:48:14:11 
M2      ERN_F0994_NSCR_1993_RACE_NEIL_BONNETT_BLOWN_ENGINE_DESR_AMASS_POINTS_NEEDED_FOR_CHAMPIONSHIP_93TALLADEGA                                   030.0 00:15:03:04 
*FROM CLIP NAME:  ERN_F0994_NSCR_1993_RACE NEIL BONNETT BLOWN ENGINE DESR AMASS POINTS NEEDED FOR CHAMPIONSHIP_93TALLADEGA.NEW.01 
*SOURCE FILE: ERN_F0994_NSCR_1993_RACE NEIL BONNETT BLOWN ENGINE DESR AMASS POINTS NEEDED FOR CHAMPIONSHIP_93TALLADEGA
002189  ERN_F0994_NSCR_1993_RACE_NEIL_BONNETT_BLOWN_ENGINE_DESR_AMASS_POINTS_NEEDED_FOR_CHAMPIONSHIP_93TALLADEGA                          A18   C        00:06:31:14 00:06:32:15 00:48:15:18 00:48:16:18 
M2      ERN_F0994_NSCR_1993_RACE_NEIL_BONNETT_BLOWN_ENGINE_DESR_AMASS_POINTS_NEEDED_FOR_CHAMPIONSHIP_93TALLADEGA                                   030.0 00:06:31:14 
*FROM CLIP NAME:  ERN_F0994_NSCR_1993_RACE NEIL BONNETT BLOWN ENGINE DESR AMASS POINTS NEEDED FOR CHAMPIONSHIP_93TALLADEGA.NEW.01 
*SOURCE FILE: ERN_F0994_NSCR_1993_RACE NEIL BONNETT BLOWN ENGINE DESR AMASS POINTS NEEDED FOR CHAMPIONSHIP_93TALLADEGA
002190  ERN_F0994_NSCR_1993_RACE_NEIL_BONNETT_BLOWN_ENGINE_DESR_AMASS_POINTS_NEEDED_FOR_CHAMPIONSHIP_93TALLADEGA                          V     C        00:06:32:00 00:06:36:20 00:48:16:10 00:48:22:05 
M2      ERN_F0994_NSCR_1993_RACE_NEIL_BONNETT_BLOWN_ENGINE_DESR_AMASS_POINTS_NEEDED_FOR_CHAMPIONSHIP_93TALLADEGA                                   024.0 00:06:32:00 
*FROM CLIP NAME:  ERN_F0994_NSCR_1993_RACE NEIL BONNETT BLOWN ENGINE DESR AMASS POINTS NEEDED FOR CHAMPIONSHIP_93TALLADEGA.NEW.01 
*SOURCE FILE: ERN_F0994_NSCR_1993_RACE NEIL BONNETT BLOWN ENGINE DESR AMASS POINTS NEEDED FOR CHAMPIONSHIP_93TALLADEGA
002191  ERN_F0994_NSCR_1993_RACE_NEIL_BONNETT_BLOWN_ENGINE_DESR_AMASS_POINTS_NEEDED_FOR_CHAMPIONSHIP_93TALLADEGA                          A18   C        00:06:32:14 00:06:34:00 00:48:16:18 00:48:18:06 
M2      ERN_F0994_NSCR_1993_RACE_NEIL_BONNETT_BLOWN_ENGINE_DESR_AMASS_POINTS_NEEDED_FOR_CHAMPIONSHIP_93TALLADEGA                                   030.0 00:06:32:14 
*FROM CLIP NAME:  ERN_F0994_NSCR_1993_RACE NEIL BONNETT BLOWN ENGINE DESR AMASS POINTS NEEDED FOR CHAMPIONSHIP_93TALLADEGA.NEW.01 
*TO CLIP NAME:  ERN_F0994_NSCR_1993_RACE NEIL BONNETT BLOWN ENGINE DESR AMASS POINTS NEEDED FOR CHAMPIONSHIP_93TALLADEGA.NEW.01 
*SOURCE FILE: ERN_F0994_NSCR_1993_RACE NEIL BONNETT BLOWN ENGINE DESR AMASS POINTS NEEDED FOR CHAMPIONSHIP_93TALLADEGA
002192  ERN_F0994_NSCR_1993_RACE_NEIL_BONNETT_BLOWN_ENGINE_DESR_AMASS_POINTS_NEEDED_FOR_CHAMPIONSHIP_93TALLADEGA                          A18   C        00:06:33:29 00:06:37:29 00:48:18:06 00:48:22:05 
M2      ERN_F0994_NSCR_1993_RACE_NEIL_BONNETT_BLOWN_ENGINE_DESR_AMASS_POINTS_NEEDED_FOR_CHAMPIONSHIP_93TALLADEGA                                   030.0 00:06:33:29 
*FROM CLIP NAME:  ERN_F0994_NSCR_1993_RACE NEIL BONNETT BLOWN ENGINE DESR AMASS POINTS NEEDED FOR CHAMPIONSHIP_93TALLADEGA.NEW.01 
*SOURCE FILE: ERN_F0994_NSCR_1993_RACE NEIL BONNETT BLOWN ENGINE DESR AMASS POINTS NEEDED FOR CHAMPIONSHIP_93TALLADEGA
002193  ERN_F0994_NSCR_1993_RACE_NEIL_BONNETT_BLOWN_ENGINE_DESR_AMASS_POINTS_NEEDED_FOR_CHAMPIONSHIP_93TALLADEGA                          A18   C        00:06:37:28 00:06:38:10 00:48:22:05 00:48:22:14 
M2      ERN_F0994_NSCR_1993_RACE_NEIL_BONNETT_BLOWN_ENGINE_DESR_AMASS_POINTS_NEEDED_FOR_CHAMPIONSHIP_93TALLADEGA                                   030.0 00:06:37:28 
*FROM CLIP NAME:  ERN_F0994_NSCR_1993_RACE NEIL BONNETT BLOWN ENGINE DESR AMASS POINTS NEEDED FOR CHAMPIONSHIP_93TALLADEGA.NEW.01 
*SOURCE FILE: ERN_F0994_NSCR_1993_RACE NEIL BONNETT BLOWN ENGINE DESR AMASS POINTS NEEDED FOR CHAMPIONSHIP_93TALLADEGA
002194  ERN_F1954_NSCR_1993-11-12_RACE_B-ROLL_ATLANTA_HOOTERS_500_QUALIFIER_W_DESR_NO3_JEFF_GORDON_RUSTY_WALLACE_NEIL_BONNETT_93-EV-0511  A20   C        00:16:41:00 00:16:41:20 00:48:22:05 00:48:22:20 
M2      ERN_F1954_NSCR_1993-11-12_RACE_B-ROLL_ATLANTA_HOOTERS_500_QUALIFIER_W_DESR_NO3_JEFF_GORDON_RUSTY_WALLACE_NEIL_BONNETT_93-EV-0511           030.0 00:16:41:00 
*FROM CLIP NAME:  ERN_F1954_NSCR_1993-11-12_RACE B-ROLL ATLANTA HOOTERS 500 QUALIFIER W DESR NO3 JEFF GORDON RUSTY WALLACE NEIL BONNETT_93-EV-0511.NEW.01 
*SOURCE FILE: ERN_F1954_NSCR_1993-11-12_RACE B-ROLL ATLANTA HOOTERS 500 QUALIFIER W DESR NO3 JEFF GORDON RUSTY WALLACE NEIL BONNETT_93-EV-0511
002195  ERN_F1954_NSCR_1993-11-12_RACE_B-ROLL_ATLANTA_HOOTERS_500_QUALIFIER_W_DESR_NO3_JEFF_GORDON_RUSTY_WALLACE_NEIL_BONNETT_93-EV-0511  V     C        00:16:35:13 00:16:44:00 00:48:22:05 00:48:30:18 
M2      ERN_F1954_NSCR_1993-11-12_RACE_B-ROLL_ATLANTA_HOOTERS_500_QUALIFIER_W_DESR_NO3_JEFF_GORDON_RUSTY_WALLACE_NEIL_BONNETT_93-EV-0511           030.0 00:16:35:13 
*FROM CLIP NAME:  ERN_F1954_NSCR_1993-11-12_RACE B-ROLL ATLANTA HOOTERS 500 QUALIFIER W DESR NO3 JEFF GORDON RUSTY WALLACE NEIL BONNETT_93-EV-0511.NEW.01 
*SOURCE FILE: ERN_F1954_NSCR_1993-11-12_RACE B-ROLL ATLANTA HOOTERS 500 QUALIFIER W DESR NO3 JEFF GORDON RUSTY WALLACE NEIL BONNETT_93-EV-0511
002196  ERN_F1954_NSCR_1993-11-12_RACE_B-ROLL_ATLANTA_HOOTERS_500_QUALIFIER_W_DESR_NO3_JEFF_GORDON_RUSTY_WALLACE_NEIL_BONNETT_93-EV-0511  A20   C        00:16:41:19 00:16:48:21 00:48:22:20 00:48:29:21 
M2      ERN_F1954_NSCR_1993-11-12_RACE_B-ROLL_ATLANTA_HOOTERS_500_QUALIFIER_W_DESR_NO3_JEFF_GORDON_RUSTY_WALLACE_NEIL_BONNETT_93-EV-0511           030.0 00:16:41:19 
*FROM CLIP NAME:  ERN_F1954_NSCR_1993-11-12_RACE B-ROLL ATLANTA HOOTERS 500 QUALIFIER W DESR NO3 JEFF GORDON RUSTY WALLACE NEIL BONNETT_93-EV-0511.NEW.01 
*SOURCE FILE: ERN_F1954_NSCR_1993-11-12_RACE B-ROLL ATLANTA HOOTERS 500 QUALIFIER W DESR NO3 JEFF GORDON RUSTY WALLACE NEIL BONNETT_93-EV-0511
002197  ERN_F0807_NASX_1993_TNN_NASCAR_YEAR_IN_REVIEW_WINSTON_CUP_SERIES-INTV_DESR_NEIL_BONNETT_YOUTUBE                                   A18   C        01:16:51:15 01:16:52:11 00:48:30:02 00:48:30:22 
M2      ERN_F0807_NASX_1993_TNN_NASCAR_YEAR_IN_REVIEW_WINSTON_CUP_SERIES-INTV_DESR_NEIL_BONNETT_YOUTUBE                                            030.0 01:16:51:15 
*FROM CLIP NAME:  ERN_F0807_NASX_1993_TNN NASCAR YEAR IN REVIEW WINSTON CUP SERIES-INTV DESR NEIL BONNETT_YOUTUBE.NEW.01 
*SOURCE FILE: ERN_F0807_NASX_1993_TNN NASCAR YEAR IN REVIEW WINSTON CUP SERIES-INTV DESR NEIL BONNETT_YOUTUBE
002198  ERN_F0807_NASX_1993_TNN_NASCAR_YEAR_IN_REVIEW_WINSTON_CUP_SERIES-INTV_DESR_NEIL_BONNETT_YOUTUBE                                   V     C        01:16:51:15 01:16:56:18 00:48:30:18 00:48:35:19 
M2      ERN_F0807_NASX_1993_TNN_NASCAR_YEAR_IN_REVIEW_WINSTON_CUP_SERIES-INTV_DESR_NEIL_BONNETT_YOUTUBE                                            030.0 01:16:51:15 
*FROM CLIP NAME:  ERN_F0807_NASX_1993_TNN NASCAR YEAR IN REVIEW WINSTON CUP SERIES-INTV DESR NEIL BONNETT_YOUTUBE.NEW.01 
*SOURCE FILE: ERN_F0807_NASX_1993_TNN NASCAR YEAR IN REVIEW WINSTON CUP SERIES-INTV DESR NEIL BONNETT_YOUTUBE
002199  ERN_F0807_NASX_1993_TNN_NASCAR_YEAR_IN_REVIEW_WINSTON_CUP_SERIES-INTV_DESR_NEIL_BONNETT_YOUTUBE                                   A18   C        01:16:52:10 01:16:52:12 00:48:30:22 00:48:30:23 
M2      ERN_F0807_NASX_1993_TNN_NASCAR_YEAR_IN_REVIEW_WINSTON_CUP_SERIES-INTV_DESR_NEIL_BONNETT_YOUTUBE                                            030.0 01:16:52:10 
*FROM CLIP NAME:  ERN_F0807_NASX_1993_TNN NASCAR YEAR IN REVIEW WINSTON CUP SERIES-INTV DESR NEIL BONNETT_YOUTUBE.NEW.01 
*SOURCE FILE: ERN_F0807_NASX_1993_TNN NASCAR YEAR IN REVIEW WINSTON CUP SERIES-INTV DESR NEIL BONNETT_YOUTUBE
002200  ERN_F0807_NASX_1993_TNN_NASCAR_YEAR_IN_REVIEW_WINSTON_CUP_SERIES-INTV_DESR_NEIL_BONNETT_YOUTUBE                                   A18   C        01:16:52:11 01:16:59:00 00:48:30:23 00:48:37:13 
M2      ERN_F0807_NASX_1993_TNN_NASCAR_YEAR_IN_REVIEW_WINSTON_CUP_SERIES-INTV_DESR_NEIL_BONNETT_YOUTUBE                                            030.0 01:16:52:11 
*FROM CLIP NAME:  ERN_F0807_NASX_1993_TNN NASCAR YEAR IN REVIEW WINSTON CUP SERIES-INTV DESR NEIL BONNETT_YOUTUBE.NEW.01 
*SOURCE FILE: ERN_F0807_NASX_1993_TNN NASCAR YEAR IN REVIEW WINSTON CUP SERIES-INTV DESR NEIL BONNETT_YOUTUBE
002201  ERN_F0807_NASX_1993_TNN_NASCAR_YEAR_IN_REVIEW_WINSTON_CUP_SERIES-INTV_DESR_NEIL_BONNETT_YOUTUBE                                   V     C        01:16:57:02 01:16:59:03 00:48:35:19 00:48:37:19 
M2      ERN_F0807_NASX_1993_TNN_NASCAR_YEAR_IN_REVIEW_WINSTON_CUP_SERIES-INTV_DESR_NEIL_BONNETT_YOUTUBE                                            030.0 01:16:57:02 
*FROM CLIP NAME:  ERN_F0807_NASX_1993_TNN NASCAR YEAR IN REVIEW WINSTON CUP SERIES-INTV DESR NEIL BONNETT_YOUTUBE.NEW.01 
*SOURCE FILE: ERN_F0807_NASX_1993_TNN NASCAR YEAR IN REVIEW WINSTON CUP SERIES-INTV DESR NEIL BONNETT_YOUTUBE
002202  ERN_F0807_NASX_1993_TNN_NASCAR_YEAR_IN_REVIEW_WINSTON_CUP_SERIES-INTV_DESR_NEIL_BONNETT_YOUTUBE                                   A18   C        01:17:05:16 01:17:05:28 00:48:37:13 00:48:37:22 
M2      ERN_F0807_NASX_1993_TNN_NASCAR_YEAR_IN_REVIEW_WINSTON_CUP_SERIES-INTV_DESR_NEIL_BONNETT_YOUTUBE                                            030.0 01:17:05:16 
*FROM CLIP NAME:  ERN_F0807_NASX_1993_TNN NASCAR YEAR IN REVIEW WINSTON CUP SERIES-INTV DESR NEIL BONNETT_YOUTUBE.NEW.01 
*SOURCE FILE: ERN_F0807_NASX_1993_TNN NASCAR YEAR IN REVIEW WINSTON CUP SERIES-INTV DESR NEIL BONNETT_YOUTUBE
002203  ERN_F0807_NASX_1993_TNN_NASCAR_YEAR_IN_REVIEW_WINSTON_CUP_SERIES-INTV_DESR_NEIL_BONNETT_YOUTUBE                                   V     C        01:17:07:08 01:17:10:14 00:48:37:19 00:48:40:23 
M2      ERN_F0807_NASX_1993_TNN_NASCAR_YEAR_IN_REVIEW_WINSTON_CUP_SERIES-INTV_DESR_NEIL_BONNETT_YOUTUBE                                            030.0 01:17:07:08 
*FROM CLIP NAME:  ERN_F0807_NASX_1993_TNN NASCAR YEAR IN REVIEW WINSTON CUP SERIES-INTV DESR NEIL BONNETT_YOUTUBE.NEW.01 
*SOURCE FILE: ERN_F0807_NASX_1993_TNN NASCAR YEAR IN REVIEW WINSTON CUP SERIES-INTV DESR NEIL BONNETT_YOUTUBE
002204  ERN_F0807_NASX_1993_TNN_NASCAR_YEAR_IN_REVIEW_WINSTON_CUP_SERIES-INTV_DESR_NEIL_BONNETT_YOUTUBE                                   A18   C        01:17:06:24 01:17:07:00 00:48:37:22 00:48:38:02 
M2      ERN_F0807_NASX_1993_TNN_NASCAR_YEAR_IN_REVIEW_WINSTON_CUP_SERIES-INTV_DESR_NEIL_BONNETT_YOUTUBE                                            030.0 01:17:06:24 
*FROM CLIP NAME:  ERN_F0807_NASX_1993_TNN NASCAR YEAR IN REVIEW WINSTON CUP SERIES-INTV DESR NEIL BONNETT_YOUTUBE.NEW.01 
*TO CLIP NAME:  ERN_F0807_NASX_1993_TNN NASCAR YEAR IN REVIEW WINSTON CUP SERIES-INTV DESR NEIL BONNETT_YOUTUBE.NEW.01 
*SOURCE FILE: ERN_F0807_NASX_1993_TNN NASCAR YEAR IN REVIEW WINSTON CUP SERIES-INTV DESR NEIL BONNETT_YOUTUBE
002205  ERN_F0807_NASX_1993_TNN_NASCAR_YEAR_IN_REVIEW_WINSTON_CUP_SERIES-INTV_DESR_NEIL_BONNETT_YOUTUBE                                   A18   C        01:17:06:29 01:17:08:12 00:48:38:02 00:48:39:11 
M2      ERN_F0807_NASX_1993_TNN_NASCAR_YEAR_IN_REVIEW_WINSTON_CUP_SERIES-INTV_DESR_NEIL_BONNETT_YOUTUBE                                            030.0 01:17:06:29 
*FROM CLIP NAME:  ERN_F0807_NASX_1993_TNN NASCAR YEAR IN REVIEW WINSTON CUP SERIES-INTV DESR NEIL BONNETT_YOUTUBE.NEW.01 
*SOURCE FILE: ERN_F0807_NASX_1993_TNN NASCAR YEAR IN REVIEW WINSTON CUP SERIES-INTV DESR NEIL BONNETT_YOUTUBE
002206  ERN_F2007_NSCR_1993-11-14_RACE_B-ROLL_HOOTERS_500_ATLANTA_WINSTON_CUP_CHAMPION_DESR_VICTORY_LANE_W_CREW_&_TERESA_EARNHARDT_93-EV- A20   C        00:09:00:23 00:09:01:24 00:48:40:08 00:48:41:08 
M2      ERN_F2007_NSCR_1993-11-14_RACE_B-ROLL_HOOTERS_500_ATLANTA_WINSTON_CUP_CHAMPION_DESR_VICTORY_LANE_W_CREW_&_TERESA_EARNHARDT_93-EV-          030.0 00:09:00:23 
*FROM CLIP NAME:  ERN_F2007_NSCR_1993-11-14_RACE B-ROLL HOOTERS 500 ATLANTA WINSTON CUP CHAMPION DESR VICTORY LANE W CREW & TERESA EARNHARDT_93-EV-0510.NEW.01 
*SOURCE FILE: ERN_F2007_NSCR_1993-11-14_RACE B-ROLL HOOTERS 500 ATLANTA WINSTON CUP CHAMPION DESR VICTORY LANE W CREW & TERESA EARNHARDT_93-EV-0510
002207  ERN_F2007_NSCR_1993-11-14_RACE_B-ROLL_HOOTERS_500_ATLANTA_WINSTON_CUP_CHAMPION_DESR_VICTORY_LANE_W_CREW_&_TERESA_EARNHARDT_93-EV- V     C        00:09:00:24 00:09:05:11 00:48:40:23 00:48:45:12 
M2      ERN_F2007_NSCR_1993-11-14_RACE_B-ROLL_HOOTERS_500_ATLANTA_WINSTON_CUP_CHAMPION_DESR_VICTORY_LANE_W_CREW_&_TERESA_EARNHARDT_93-EV-          030.0 00:09:00:24 
*FROM CLIP NAME:  ERN_F2007_NSCR_1993-11-14_RACE B-ROLL HOOTERS 500 ATLANTA WINSTON CUP CHAMPION DESR VICTORY LANE W CREW & TERESA EARNHARDT_93-EV-0510.NEW.01 
*SOURCE FILE: ERN_F2007_NSCR_1993-11-14_RACE B-ROLL HOOTERS 500 ATLANTA WINSTON CUP CHAMPION DESR VICTORY LANE W CREW & TERESA EARNHARDT_93-EV-0510
002208  ERN_F2007_NSCR_1993-11-14_RACE_B-ROLL_HOOTERS_500_ATLANTA_WINSTON_CUP_CHAMPION_DESR_VICTORY_LANE_W_CREW_&_TERESA_EARNHARDT_93-EV- A20   C        00:09:01:23 00:09:06:11 00:48:41:08 00:48:45:22 
M2      ERN_F2007_NSCR_1993-11-14_RACE_B-ROLL_HOOTERS_500_ATLANTA_WINSTON_CUP_CHAMPION_DESR_VICTORY_LANE_W_CREW_&_TERESA_EARNHARDT_93-EV-          030.0 00:09:01:23 
*FROM CLIP NAME:  ERN_F2007_NSCR_1993-11-14_RACE B-ROLL HOOTERS 500 ATLANTA WINSTON CUP CHAMPION DESR VICTORY LANE W CREW & TERESA EARNHARDT_93-EV-0510.NEW.01 
*SOURCE FILE: ERN_F2007_NSCR_1993-11-14_RACE B-ROLL HOOTERS 500 ATLANTA WINSTON CUP CHAMPION DESR VICTORY LANE W CREW & TERESA EARNHARDT_93-EV-0510
002209  ERN_F2007_NSCR_1993-11-14_RACE_B-ROLL_HOOTERS_500_ATLANTA_WINSTON_CUP_CHAMPION_DESR_VICTORY_LANE_W_CREW_&_TERESA_EARNHARDT_93-EV- V     C        00:13:12:13 00:13:23:19 00:48:45:12 00:48:58:20 
M2      ERN_F2007_NSCR_1993-11-14_RACE_B-ROLL_HOOTERS_500_ATLANTA_WINSTON_CUP_CHAMPION_DESR_VICTORY_LANE_W_CREW_&_TERESA_EARNHARDT_93-EV-          025.2 00:13:12:13 
*FROM CLIP NAME:  ERN_F2007_NSCR_1993-11-14_RACE B-ROLL HOOTERS 500 ATLANTA WINSTON CUP CHAMPION DESR VICTORY LANE W CREW & TERESA EARNHARDT_93-EV-0510.NEW.01 
*SOURCE FILE: ERN_F2007_NSCR_1993-11-14_RACE B-ROLL HOOTERS 500 ATLANTA WINSTON CUP CHAMPION DESR VICTORY LANE W CREW & TERESA EARNHARDT_93-EV-0510
002210  ERN_F0807_NASX_1993_TNN_NASCAR_YEAR_IN_REVIEW_WINSTON_CUP_SERIES-INTV_DESR_NEIL_BONNETT_YOUTUBE                                   A18   C        01:17:30:09 01:17:30:25 00:48:46:20 00:48:47:08 
M2      ERN_F0807_NASX_1993_TNN_NASCAR_YEAR_IN_REVIEW_WINSTON_CUP_SERIES-INTV_DESR_NEIL_BONNETT_YOUTUBE                                            030.0 01:17:30:09 
*FROM CLIP NAME:  ERN_F0807_NASX_1993_TNN NASCAR YEAR IN REVIEW WINSTON CUP SERIES-INTV DESR NEIL BONNETT_YOUTUBE.NEW.01 
*SOURCE FILE: ERN_F0807_NASX_1993_TNN NASCAR YEAR IN REVIEW WINSTON CUP SERIES-INTV DESR NEIL BONNETT_YOUTUBE
002211  ERN_F0807_NASX_1993_TNN_NASCAR_YEAR_IN_REVIEW_WINSTON_CUP_SERIES-INTV_DESR_NEIL_BONNETT_YOUTUBE                                   A18   C        01:17:30:24 01:17:33:27 00:48:47:08 00:48:50:10 
M2      ERN_F0807_NASX_1993_TNN_NASCAR_YEAR_IN_REVIEW_WINSTON_CUP_SERIES-INTV_DESR_NEIL_BONNETT_YOUTUBE                                            030.0 01:17:30:24 
*FROM CLIP NAME:  ERN_F0807_NASX_1993_TNN NASCAR YEAR IN REVIEW WINSTON CUP SERIES-INTV DESR NEIL BONNETT_YOUTUBE.NEW.01 
*SOURCE FILE: ERN_F0807_NASX_1993_TNN NASCAR YEAR IN REVIEW WINSTON CUP SERIES-INTV DESR NEIL BONNETT_YOUTUBE
002212  ERN_F0807_NASX_1993_TNN_NASCAR_YEAR_IN_REVIEW_WINSTON_CUP_SERIES-INTV_DESR_NEIL_BONNETT_YOUTUBE                                   A18   C        01:17:34:25 01:17:34:29 00:48:50:10 00:48:50:12 
M2      ERN_F0807_NASX_1993_TNN_NASCAR_YEAR_IN_REVIEW_WINSTON_CUP_SERIES-INTV_DESR_NEIL_BONNETT_YOUTUBE                                            030.0 01:17:34:25 
*FROM CLIP NAME:  ERN_F0807_NASX_1993_TNN NASCAR YEAR IN REVIEW WINSTON CUP SERIES-INTV DESR NEIL BONNETT_YOUTUBE.NEW.01 
*TO CLIP NAME:  ERN_F0807_NASX_1993_TNN NASCAR YEAR IN REVIEW WINSTON CUP SERIES-INTV DESR NEIL BONNETT_YOUTUBE.NEW.01 
*SOURCE FILE: ERN_F0807_NASX_1993_TNN NASCAR YEAR IN REVIEW WINSTON CUP SERIES-INTV DESR NEIL BONNETT_YOUTUBE
002213  ERN_F0807_NASX_1993_TNN_NASCAR_YEAR_IN_REVIEW_WINSTON_CUP_SERIES-INTV_DESR_NEIL_BONNETT_YOUTUBE                                   A18   C        01:17:34:28 01:17:36:16 00:48:50:12 00:48:52:02 
M2      ERN_F0807_NASX_1993_TNN_NASCAR_YEAR_IN_REVIEW_WINSTON_CUP_SERIES-INTV_DESR_NEIL_BONNETT_YOUTUBE                                            030.0 01:17:34:28 
*FROM CLIP NAME:  ERN_F0807_NASX_1993_TNN NASCAR YEAR IN REVIEW WINSTON CUP SERIES-INTV DESR NEIL BONNETT_YOUTUBE.NEW.01 
*SOURCE FILE: ERN_F0807_NASX_1993_TNN NASCAR YEAR IN REVIEW WINSTON CUP SERIES-INTV DESR NEIL BONNETT_YOUTUBE
002214  ERN_F0807_NASX_1993_TNN_NASCAR_YEAR_IN_REVIEW_WINSTON_CUP_SERIES-INTV_DESR_NEIL_BONNETT_YOUTUBE                                   A18   C        01:17:24:04 01:17:25:18 00:48:52:02 00:48:53:13 
M2      ERN_F0807_NASX_1993_TNN_NASCAR_YEAR_IN_REVIEW_WINSTON_CUP_SERIES-INTV_DESR_NEIL_BONNETT_YOUTUBE                                            030.0 01:17:24:04 
*FROM CLIP NAME:  ERN_F0807_NASX_1993_TNN NASCAR YEAR IN REVIEW WINSTON CUP SERIES-INTV DESR NEIL BONNETT_YOUTUBE.NEW.01 
*SOURCE FILE: ERN_F0807_NASX_1993_TNN NASCAR YEAR IN REVIEW WINSTON CUP SERIES-INTV DESR NEIL BONNETT_YOUTUBE
002215  ERN_F0807_NASX_1993_TNN_NASCAR_YEAR_IN_REVIEW_WINSTON_CUP_SERIES-INTV_DESR_NEIL_BONNETT_YOUTUBE                                   A18   C        01:20:17:24 01:20:18:15 00:48:56:21 00:48:57:13 
M2      ERN_F0807_NASX_1993_TNN_NASCAR_YEAR_IN_REVIEW_WINSTON_CUP_SERIES-INTV_DESR_NEIL_BONNETT_YOUTUBE                                            030.0 01:20:17:24 
*FROM CLIP NAME:  ERN_F0807_NASX_1993_TNN NASCAR YEAR IN REVIEW WINSTON CUP SERIES-INTV DESR NEIL BONNETT_YOUTUBE.NEW.01 
*SOURCE FILE: ERN_F0807_NASX_1993_TNN NASCAR YEAR IN REVIEW WINSTON CUP SERIES-INTV DESR NEIL BONNETT_YOUTUBE
002216  ERN_F0807_NASX_1993_TNN_NASCAR_YEAR_IN_REVIEW_WINSTON_CUP_SERIES-INTV_DESR_NEIL_BONNETT_YOUTUBE                                   A18   C        01:20:18:14 01:20:24:16 00:48:57:13 00:49:03:14 
M2      ERN_F0807_NASX_1993_TNN_NASCAR_YEAR_IN_REVIEW_WINSTON_CUP_SERIES-INTV_DESR_NEIL_BONNETT_YOUTUBE                                            030.0 01:20:18:14 
*FROM CLIP NAME:  ERN_F0807_NASX_1993_TNN NASCAR YEAR IN REVIEW WINSTON CUP SERIES-INTV DESR NEIL BONNETT_YOUTUBE.NEW.01 
*SOURCE FILE: ERN_F0807_NASX_1993_TNN NASCAR YEAR IN REVIEW WINSTON CUP SERIES-INTV DESR NEIL BONNETT_YOUTUBE
002217  ERN_F0807_NASX_1993_TNN_NASCAR_YEAR_IN_REVIEW_WINSTON_CUP_SERIES-INTV_DESR_NEIL_BONNETT_YOUTUBE                                   V     C        01:20:19:19 01:20:21:24 00:48:58:20 00:49:00:23 
M2      ERN_F0807_NASX_1993_TNN_NASCAR_YEAR_IN_REVIEW_WINSTON_CUP_SERIES-INTV_DESR_NEIL_BONNETT_YOUTUBE                                            030.0 01:20:19:19 
*FROM CLIP NAME:  ERN_F0807_NASX_1993_TNN NASCAR YEAR IN REVIEW WINSTON CUP SERIES-INTV DESR NEIL BONNETT_YOUTUBE.NEW.01 
*SOURCE FILE: ERN_F0807_NASX_1993_TNN NASCAR YEAR IN REVIEW WINSTON CUP SERIES-INTV DESR NEIL BONNETT_YOUTUBE
002218  ERN_F0807_NASX_1993_TNN_NASCAR_YEAR_IN_REVIEW_WINSTON_CUP_SERIES-INTV_DESR_NEIL_BONNETT_YOUTUBE                                   V     C        01:20:21:24 01:20:23:04 00:49:00:23 00:49:02:06 
M2      ERN_F0807_NASX_1993_TNN_NASCAR_YEAR_IN_REVIEW_WINSTON_CUP_SERIES-INTV_DESR_NEIL_BONNETT_YOUTUBE                                            030.0 01:20:21:24 
*FROM CLIP NAME:  ERN_F0807_NASX_1993_TNN NASCAR YEAR IN REVIEW WINSTON CUP SERIES-INTV DESR NEIL BONNETT_YOUTUBE.NEW.01 
*SOURCE FILE: ERN_F0807_NASX_1993_TNN NASCAR YEAR IN REVIEW WINSTON CUP SERIES-INTV DESR NEIL BONNETT_YOUTUBE
002219  ERN_F1066_NSCR_1992-05-11_RACE_B-ROLL_CHARLOTTE_NEIL_BONNETT_TEST_FOR_DESR_W_TONY_EURY_SR_73_BONNETT_TEST                         A22   C        00:04:59:24 00:05:03:27 00:49:01:08 00:49:05:08 
M2      ERN_F1066_NSCR_1992-05-11_RACE_B-ROLL_CHARLOTTE_NEIL_BONNETT_TEST_FOR_DESR_W_TONY_EURY_SR_73_BONNETT_TEST                                  030.0 00:04:59:24 
*FROM CLIP NAME:  ERN_F1066_NSCR_1992-05-11_RACE B-ROLL CHARLOTTE NEIL BONNETT TEST FOR DESR W TONY EURY SR_73_BONNETT TEST.NEW.01 
*SOURCE FILE: ERN_F1066_NSCR_1992-05-11_RACE B-ROLL CHARLOTTE NEIL BONNETT TEST FOR DESR W TONY EURY SR_73_BONNETT TEST
002220  ERN_F3216_NSCR_1997-02-15_VARS_B-ROLL_AIR_BALLOONS_DAYTONA_MOTOR_SPEEDWAY_DELTA_PLANE_LANDING_TRACK_PREP_1997-NAS-030717-S001     V     C        00:12:00:28 00:12:08:27 00:49:02:06 00:49:10:04 
M2      ERN_F3216_NSCR_1997-02-15_VARS_B-ROLL_AIR_BALLOONS_DAYTONA_MOTOR_SPEEDWAY_DELTA_PLANE_LANDING_TRACK_PREP_1997-NAS-030717-S001              030.0 00:12:00:28 
*FROM CLIP NAME:  ERN_F3216_NSCR_1997-02-15_VARS B-ROLL AIR BALLOONS DAYTONA MOTOR SPEEDWAY DELTA PLANE LANDING TRACK PREP_1997-NAS-030717-S001.NEW.01 
*SOURCE FILE: ERN_F3216_NSCR_1997-02-15_VARS B-ROLL AIR BALLOONS DAYTONA MOTOR SPEEDWAY DELTA PLANE LANDING TRACK PREP_1997-NAS-030717-S001
002221  ERN_F0807_NASX_1993_TNN_NASCAR_YEAR_IN_REVIEW_WINSTON_CUP_SERIES-INTV_DESR_NEIL_BONNETT_YOUTUBE                                   A18   C        01:20:24:23 01:20:24:26 00:49:03:14 00:49:03:16 
M2      ERN_F0807_NASX_1993_TNN_NASCAR_YEAR_IN_REVIEW_WINSTON_CUP_SERIES-INTV_DESR_NEIL_BONNETT_YOUTUBE                                            030.0 01:20:24:23 
*FROM CLIP NAME:  ERN_F0807_NASX_1993_TNN NASCAR YEAR IN REVIEW WINSTON CUP SERIES-INTV DESR NEIL BONNETT_YOUTUBE.NEW.01 
*TO CLIP NAME:  ERN_F0807_NASX_1993_TNN NASCAR YEAR IN REVIEW WINSTON CUP SERIES-INTV DESR NEIL BONNETT_YOUTUBE.NEW.01 
*SOURCE FILE: ERN_F0807_NASX_1993_TNN NASCAR YEAR IN REVIEW WINSTON CUP SERIES-INTV DESR NEIL BONNETT_YOUTUBE
002222  ERN_F0807_NASX_1993_TNN_NASCAR_YEAR_IN_REVIEW_WINSTON_CUP_SERIES-INTV_DESR_NEIL_BONNETT_YOUTUBE                                   A18   C        01:20:24:25 01:20:25:15 00:49:03:16 00:49:04:07 
M2      ERN_F0807_NASX_1993_TNN_NASCAR_YEAR_IN_REVIEW_WINSTON_CUP_SERIES-INTV_DESR_NEIL_BONNETT_YOUTUBE                                            030.0 01:20:24:25 
*FROM CLIP NAME:  ERN_F0807_NASX_1993_TNN NASCAR YEAR IN REVIEW WINSTON CUP SERIES-INTV DESR NEIL BONNETT_YOUTUBE.NEW.01 
*SOURCE FILE: ERN_F0807_NASX_1993_TNN NASCAR YEAR IN REVIEW WINSTON CUP SERIES-INTV DESR NEIL BONNETT_YOUTUBE
002223  ERN_F1066_NSCR_1992-05-11_RACE_B-ROLL_CHARLOTTE_NEIL_BONNETT_TEST_FOR_DESR_W_TONY_EURY_SR_73_BONNETT_TEST                         A22   C        00:05:03:26 00:05:08:07 00:49:05:08 00:49:09:16 
M2      ERN_F1066_NSCR_1992-05-11_RACE_B-ROLL_CHARLOTTE_NEIL_BONNETT_TEST_FOR_DESR_W_TONY_EURY_SR_73_BONNETT_TEST                                  030.0 00:05:03:26 
*FROM CLIP NAME:  ERN_F1066_NSCR_1992-05-11_RACE B-ROLL CHARLOTTE NEIL BONNETT TEST FOR DESR W TONY EURY SR_73_BONNETT TEST.NEW.01 
*SOURCE FILE: ERN_F1066_NSCR_1992-05-11_RACE B-ROLL CHARLOTTE NEIL BONNETT TEST FOR DESR W TONY EURY SR_73_BONNETT TEST
002224  ERN_F0995_NSCR_1994_NEIL_BONNET_DEADLY_CRASH_AFTERMATH_REQUEST_INTV_CHOCOLATE_MYERS_94DAYTONA                                     A24   C        00:03:30:27 00:03:32:13 00:49:09:08 00:49:10:20 
M2      ERN_F0995_NSCR_1994_NEIL_BONNET_DEADLY_CRASH_AFTERMATH_REQUEST_INTV_CHOCOLATE_MYERS_94DAYTONA                                              030.0 00:03:30:27 
*FROM CLIP NAME:  ERN_F0995_NSCR_1994_NEIL BONNET DEADLY CRASH AFTERMATH REQUEST INTV CHOCOLATE MYERS_94DAYTONA.NEW.01 
*SOURCE FILE: ERN_F0995_NSCR_1994_NEIL BONNET DEADLY CRASH AFTERMATH REQUEST INTV CHOCOLATE MYERS_94DAYTONA
002225  ERN_F1066_NSCR_1992-05-11_RACE_B-ROLL_CHARLOTTE_NEIL_BONNETT_TEST_FOR_DESR_W_TONY_EURY_SR_73_BONNETT_TEST                         A22   C        00:05:09:18 00:05:10:19 00:49:09:16 00:49:10:16 
M2      ERN_F1066_NSCR_1992-05-11_RACE_B-ROLL_CHARLOTTE_NEIL_BONNETT_TEST_FOR_DESR_W_TONY_EURY_SR_73_BONNETT_TEST                                  030.0 00:05:09:18 
*FROM CLIP NAME:  ERN_F1066_NSCR_1992-05-11_RACE B-ROLL CHARLOTTE NEIL BONNETT TEST FOR DESR W TONY EURY SR_73_BONNETT TEST.NEW.01 
*TO CLIP NAME:  ERN_F1066_NSCR_1992-05-11_RACE B-ROLL CHARLOTTE NEIL BONNETT TEST FOR DESR W TONY EURY SR_73_BONNETT TEST.NEW.01 
*SOURCE FILE: ERN_F1066_NSCR_1992-05-11_RACE B-ROLL CHARLOTTE NEIL BONNETT TEST FOR DESR W TONY EURY SR_73_BONNETT TEST
002226  1994-NAS-00100_S001                                                                                                               V     C        04:09:02:09 04:09:06:14 00:49:10:04 00:49:15:08 
M2      1994-NAS-00100_S001                                                                                                                        024.0 04:09:02:09 
*FROM CLIP NAME:  1994-NAS-00100_S001 
*SOURCE FILE: 1994-NAS-00100_S001
002227  ERN_F1066_NSCR_1992-05-11_RACE_B-ROLL_CHARLOTTE_NEIL_BONNETT_TEST_FOR_DESR_W_TONY_EURY_SR_73_BONNETT_TEST                         A22   C        00:05:10:18 00:05:21:18 00:49:10:16 00:49:21:15 
M2      ERN_F1066_NSCR_1992-05-11_RACE_B-ROLL_CHARLOTTE_NEIL_BONNETT_TEST_FOR_DESR_W_TONY_EURY_SR_73_BONNETT_TEST                                  030.0 00:05:10:18 
*FROM CLIP NAME:  ERN_F1066_NSCR_1992-05-11_RACE B-ROLL CHARLOTTE NEIL BONNETT TEST FOR DESR W TONY EURY SR_73_BONNETT TEST.NEW.01 
*SOURCE FILE: ERN_F1066_NSCR_1992-05-11_RACE B-ROLL CHARLOTTE NEIL BONNETT TEST FOR DESR W TONY EURY SR_73_BONNETT TEST
002228  ERN_F0995_NSCR_1994_NEIL_BONNET_DEADLY_CRASH_AFTERMATH_REQUEST_INTV_CHOCOLATE_MYERS_94DAYTONA                                     A24   C        00:03:32:12 00:03:36:16 00:49:10:20 00:49:14:23 
M2      ERN_F0995_NSCR_1994_NEIL_BONNET_DEADLY_CRASH_AFTERMATH_REQUEST_INTV_CHOCOLATE_MYERS_94DAYTONA                                              030.0 00:03:32:12 
*FROM CLIP NAME:  ERN_F0995_NSCR_1994_NEIL BONNET DEADLY CRASH AFTERMATH REQUEST INTV CHOCOLATE MYERS_94DAYTONA.NEW.01 
*SOURCE FILE: ERN_F0995_NSCR_1994_NEIL BONNET DEADLY CRASH AFTERMATH REQUEST INTV CHOCOLATE MYERS_94DAYTONA
002229  ERN_F1950_NSCR_1993-11-12_RACE_B-ROLL_INTV_ATLANTA_HOOTERS_500_DESR_DARRELL_WALTRIP_NEIL_BONNETT_GEOFF_BODINE_93-EV-0503          A18   C        00:21:09:07 00:21:09:10 00:49:12:21 00:49:12:23 
M2      ERN_F1950_NSCR_1993-11-12_RACE_B-ROLL_INTV_ATLANTA_HOOTERS_500_DESR_DARRELL_WALTRIP_NEIL_BONNETT_GEOFF_BODINE_93-EV-0503                   030.0 00:21:09:07 
*FROM CLIP NAME:  ERN_F1950_NSCR_1993-11-12_RACE B-ROLL INTV ATLANTA HOOTERS 500 DESR DARRELL WALTRIP NEIL BONNETT GEOFF BODINE_93-EV-0503.NEW.01 
*SOURCE FILE: ERN_F1950_NSCR_1993-11-12_RACE B-ROLL INTV ATLANTA HOOTERS 500 DESR DARRELL WALTRIP NEIL BONNETT GEOFF BODINE_93-EV-0503
002230  ERN_F1950_NSCR_1993-11-12_RACE_B-ROLL_INTV_ATLANTA_HOOTERS_500_DESR_DARRELL_WALTRIP_NEIL_BONNETT_GEOFF_BODINE_93-EV-0503          A18   C        00:21:09:09 00:21:17:05 00:49:12:23 00:49:20:19 
M2      ERN_F1950_NSCR_1993-11-12_RACE_B-ROLL_INTV_ATLANTA_HOOTERS_500_DESR_DARRELL_WALTRIP_NEIL_BONNETT_GEOFF_BODINE_93-EV-0503                   030.0 00:21:09:09 
*FROM CLIP NAME:  ERN_F1950_NSCR_1993-11-12_RACE B-ROLL INTV ATLANTA HOOTERS 500 DESR DARRELL WALTRIP NEIL BONNETT GEOFF BODINE_93-EV-0503.NEW.01 
*SOURCE FILE: ERN_F1950_NSCR_1993-11-12_RACE B-ROLL INTV ATLANTA HOOTERS 500 DESR DARRELL WALTRIP NEIL BONNETT GEOFF BODINE_93-EV-0503
002231  ERN_F0995_NSCR_1994_NEIL_BONNET_DEADLY_CRASH_AFTERMATH_REQUEST_INTV_CHOCOLATE_MYERS_94DAYTONA                                     A24   C        00:03:13:29 00:03:15:00 00:49:14:23 00:49:15:23 
M2      ERN_F0995_NSCR_1994_NEIL_BONNET_DEADLY_CRASH_AFTERMATH_REQUEST_INTV_CHOCOLATE_MYERS_94DAYTONA                                              030.0 00:03:13:29 
*FROM CLIP NAME:  ERN_F0995_NSCR_1994_NEIL BONNET DEADLY CRASH AFTERMATH REQUEST INTV CHOCOLATE MYERS_94DAYTONA.NEW.01 
*TO CLIP NAME:  ERN_F0995_NSCR_1994_NEIL BONNET DEADLY CRASH AFTERMATH REQUEST INTV CHOCOLATE MYERS_94DAYTONA.NEW.01 
*SOURCE FILE: ERN_F0995_NSCR_1994_NEIL BONNET DEADLY CRASH AFTERMATH REQUEST INTV CHOCOLATE MYERS_94DAYTONA
002232  1994-NAS-00100_S001                                                                                                               V     C        04:09:26:18 04:09:34:14 00:49:15:08 00:49:23:04 
M2      1994-NAS-00100_S001                                                                                                                        030.0 04:09:26:18 
*FROM CLIP NAME:  1994-NAS-00100_S001 
*SOURCE FILE: 1994-NAS-00100_S001
002233  ERN_F0995_NSCR_1994_NEIL_BONNET_DEADLY_CRASH_AFTERMATH_REQUEST_INTV_CHOCOLATE_MYERS_94DAYTONA                                     A24   C        00:03:14:29 00:03:20:28 00:49:15:23 00:49:21:21 
M2      ERN_F0995_NSCR_1994_NEIL_BONNET_DEADLY_CRASH_AFTERMATH_REQUEST_INTV_CHOCOLATE_MYERS_94DAYTONA                                              030.0 00:03:14:29 
*FROM CLIP NAME:  ERN_F0995_NSCR_1994_NEIL BONNET DEADLY CRASH AFTERMATH REQUEST INTV CHOCOLATE MYERS_94DAYTONA.NEW.01 
*SOURCE FILE: ERN_F0995_NSCR_1994_NEIL BONNET DEADLY CRASH AFTERMATH REQUEST INTV CHOCOLATE MYERS_94DAYTONA
002234  1994-NAS-00098_S001                                                                                                               A20   C        00:12:29:13 00:12:30:29 00:49:20:05 00:49:21:17 
M2      1994-NAS-00098_S001                                                                                                                        030.0 00:12:29:13 
*FROM CLIP NAME:  1994-NAS-00098_S001 
*SOURCE FILE: 1994-NAS-00098_S001
002235  ERN_F1950_NSCR_1993-11-12_RACE_B-ROLL_INTV_ATLANTA_HOOTERS_500_DESR_DARRELL_WALTRIP_NEIL_BONNETT_GEOFF_BODINE_93-EV-0503          A18   C        00:21:17:13 00:21:17:16 00:49:20:19 00:49:20:21 
M2      ERN_F1950_NSCR_1993-11-12_RACE_B-ROLL_INTV_ATLANTA_HOOTERS_500_DESR_DARRELL_WALTRIP_NEIL_BONNETT_GEOFF_BODINE_93-EV-0503                   030.0 00:21:17:13 
*FROM CLIP NAME:  ERN_F1950_NSCR_1993-11-12_RACE B-ROLL INTV ATLANTA HOOTERS 500 DESR DARRELL WALTRIP NEIL BONNETT GEOFF BODINE_93-EV-0503.NEW.01 
*TO CLIP NAME:  ERN_F1950_NSCR_1993-11-12_RACE B-ROLL INTV ATLANTA HOOTERS 500 DESR DARRELL WALTRIP NEIL BONNETT GEOFF BODINE_93-EV-0503.NEW.01 
*SOURCE FILE: ERN_F1950_NSCR_1993-11-12_RACE B-ROLL INTV ATLANTA HOOTERS 500 DESR DARRELL WALTRIP NEIL BONNETT GEOFF BODINE_93-EV-0503
002236  1994-NAS-00098_S001                                                                                                               A20   C        00:12:30:28 00:12:46:14 00:49:21:17 00:49:37:05 
M2      1994-NAS-00098_S001                                                                                                                        030.0 00:12:30:28 
*FROM CLIP NAME:  1994-NAS-00098_S001 
*SOURCE FILE: 1994-NAS-00098_S001
002237  1994-NAS-00098_S001                                                                                                               V     C        00:12:32:12 00:12:43:03 00:49:23:04 00:49:33:20 
M2      1994-NAS-00098_S001                                                                                                                        030.0 00:12:32:12 
*FROM CLIP NAME:  1994-NAS-00098_S001 
*SOURCE FILE: 1994-NAS-00098_S001
002238  ERN_F0995_NSCR_1994_NEIL_BONNET_DEADLY_CRASH_AFTERMATH_REQUEST_INTV_CHOCOLATE_MYERS_94DAYTONA                                     A22   C        00:04:00:29 00:04:02:00 00:49:32:16 00:49:33:16 
M2      ERN_F0995_NSCR_1994_NEIL_BONNET_DEADLY_CRASH_AFTERMATH_REQUEST_INTV_CHOCOLATE_MYERS_94DAYTONA                                              030.0 00:04:00:29 
*FROM CLIP NAME:  ERN_F0995_NSCR_1994_NEIL BONNET DEADLY CRASH AFTERMATH REQUEST INTV CHOCOLATE MYERS_94DAYTONA.NEW.01 
*SOURCE FILE: ERN_F0995_NSCR_1994_NEIL BONNET DEADLY CRASH AFTERMATH REQUEST INTV CHOCOLATE MYERS_94DAYTONA
002239  ERN_F0995_NSCR_1994_NEIL_BONNET_DEADLY_CRASH_AFTERMATH_REQUEST_INTV_CHOCOLATE_MYERS_94DAYTONA                                     A18   C        00:02:34:19 00:02:36:04 00:49:33:01 00:49:34:13 
M2      ERN_F0995_NSCR_1994_NEIL_BONNET_DEADLY_CRASH_AFTERMATH_REQUEST_INTV_CHOCOLATE_MYERS_94DAYTONA                                              030.0 00:02:34:19 
*FROM CLIP NAME:  ERN_F0995_NSCR_1994_NEIL BONNET DEADLY CRASH AFTERMATH REQUEST INTV CHOCOLATE MYERS_94DAYTONA.NEW.01 
*SOURCE FILE: ERN_F0995_NSCR_1994_NEIL BONNET DEADLY CRASH AFTERMATH REQUEST INTV CHOCOLATE MYERS_94DAYTONA
002240  94-EV-0036                                                                                                                        V     C        00:10:26:26 00:10:32:23 00:49:33:20 00:49:39:17 
M2      94-EV-0036                                                                                                                                 030.0 00:10:26:26 
*FROM CLIP NAME:  94-EV-0036 
*SOURCE FILE: 94-EV-0036
002241  ERN_F0995_NSCR_1994_NEIL_BONNET_DEADLY_CRASH_AFTERMATH_REQUEST_INTV_CHOCOLATE_MYERS_94DAYTONA                                     A18   C        00:02:36:04 00:02:39:17 00:49:34:13 00:49:37:23 
M2      ERN_F0995_NSCR_1994_NEIL_BONNET_DEADLY_CRASH_AFTERMATH_REQUEST_INTV_CHOCOLATE_MYERS_94DAYTONA                                              030.0 00:02:36:04 
*FROM CLIP NAME:  ERN_F0995_NSCR_1994_NEIL BONNET DEADLY CRASH AFTERMATH REQUEST INTV CHOCOLATE MYERS_94DAYTONA.NEW.01 
*SOURCE FILE: ERN_F0995_NSCR_1994_NEIL BONNET DEADLY CRASH AFTERMATH REQUEST INTV CHOCOLATE MYERS_94DAYTONA
002242  ERN_F3482_WSOC_VARIOUS_DATES_NEWS_COMP_NEIL_BONNETT_INTV_&_FUNERAL_SCREENER                                                       V     C        00:02:47:19 00:02:52:15 00:49:39:17 00:49:44:13 
M2      ERN_F3482_WSOC_VARIOUS_DATES_NEWS_COMP_NEIL_BONNETT_INTV_&_FUNERAL_SCREENER                                                                060.0 00:02:47:19 
*FROM CLIP NAME:  ERN_F3482_WSOC_1994-02-09_NEWS NEIL BONNETT CRASHES, MORNING OF DEADLY CRASH 
*SOURCE FILE: ERN_F3482_WSOC_VARIOUS DATES_NEWS COMP NEIL BONNETT INTV & FUNERAL_SCREENER
002243  ERN_F2503_NSCR_1990-02-14_B-ROLL_DAYTONA_SPEEDWAY_TNN000633                                                                       A18   C        00:00:47:12 00:00:49:13 00:49:43:12 00:49:45:12 
M2      ERN_F2503_NSCR_1990-02-14_B-ROLL_DAYTONA_SPEEDWAY_TNN000633                                                                                030.0 00:00:47:12 
*FROM CLIP NAME:  ERN_F2503_NSCR_1990-02-14_B-ROLL DAYTONA SPEEDWAY_TNN000633.NEW.01 
*SOURCE FILE: ERN_F2503_NSCR_1990-02-14_B-ROLL DAYTONA SPEEDWAY_TNN000633
002244  ERN_F2503_NSCR_1990-02-14_B-ROLL_DAYTONA_SPEEDWAY_TNN000633                                                                       V     C        00:05:43:05 00:05:53:01 00:49:44:13 00:49:54:09 
M2      ERN_F2503_NSCR_1990-02-14_B-ROLL_DAYTONA_SPEEDWAY_TNN000633                                                                                030.0 00:05:43:05 
*FROM CLIP NAME:  ERN_F2503_NSCR_1990-02-14_B-ROLL DAYTONA SPEEDWAY_TNN000633.NEW.01 
*SOURCE FILE: ERN_F2503_NSCR_1990-02-14_B-ROLL DAYTONA SPEEDWAY_TNN000633
002245  ERN_F2503_NSCR_1990-02-14_B-ROLL_DAYTONA_SPEEDWAY_TNN000633                                                                       A18   C        00:00:49:12 00:00:55:24 00:49:45:12 00:49:51:21 
M2      ERN_F2503_NSCR_1990-02-14_B-ROLL_DAYTONA_SPEEDWAY_TNN000633                                                                                030.0 00:00:49:12 
*FROM CLIP NAME:  ERN_F2503_NSCR_1990-02-14_B-ROLL DAYTONA SPEEDWAY_TNN000633.NEW.01 
*SOURCE FILE: ERN_F2503_NSCR_1990-02-14_B-ROLL DAYTONA SPEEDWAY_TNN000633
002246  ERN_F2503_NSCR_1990-02-14_B-ROLL_DAYTONA_SPEEDWAY_TNN000633                                                                       A18   C        00:05:22:02 00:05:25:03 00:49:51:21 00:49:54:21 
M2      ERN_F2503_NSCR_1990-02-14_B-ROLL_DAYTONA_SPEEDWAY_TNN000633                                                                                030.0 00:05:22:02 
*FROM CLIP NAME:  ERN_F2503_NSCR_1990-02-14_B-ROLL DAYTONA SPEEDWAY_TNN000633.NEW.01 
*TO CLIP NAME:  ERN_F2503_NSCR_1990-02-14_B-ROLL DAYTONA SPEEDWAY_TNN000633.NEW.01 
*SOURCE FILE: ERN_F2503_NSCR_1990-02-14_B-ROLL DAYTONA SPEEDWAY_TNN000633
002247  ERN_F2503_NSCR_1990-02-14_B-ROLL_DAYTONA_SPEEDWAY_TNN000633                                                                       V     C        00:05:22:00 00:05:33:26 00:49:54:09 00:50:01:07 
M2      ERN_F2503_NSCR_1990-02-14_B-ROLL_DAYTONA_SPEEDWAY_TNN000633                                                                                051.6 00:05:22:00 
*FROM CLIP NAME:  ERN_F2503_NSCR_1990-02-14_B-ROLL DAYTONA SPEEDWAY_TNN000633.NEW.01 
*SOURCE FILE: ERN_F2503_NSCR_1990-02-14_B-ROLL DAYTONA SPEEDWAY_TNN000633
002248  ERN_F2503_NSCR_1990-02-14_B-ROLL_DAYTONA_SPEEDWAY_TNN000633                                                                       A18   C        00:05:25:02 00:05:29:29 00:49:54:21 00:49:59:18 
M2      ERN_F2503_NSCR_1990-02-14_B-ROLL_DAYTONA_SPEEDWAY_TNN000633                                                                                030.0 00:05:25:02 
*FROM CLIP NAME:  ERN_F2503_NSCR_1990-02-14_B-ROLL DAYTONA SPEEDWAY_TNN000633.NEW.01 
*SOURCE FILE: ERN_F2503_NSCR_1990-02-14_B-ROLL DAYTONA SPEEDWAY_TNN000633
002249  ERN_F0995_NSCR_1994_NEIL_BONNET_DEADLY_CRASH_AFTERMATH_REQUEST_INTV_CHOCOLATE_MYERS_94DAYTONA                                     A20   C        00:00:24:28 00:00:25:29 00:50:00:19 00:50:01:19 
M2      ERN_F0995_NSCR_1994_NEIL_BONNET_DEADLY_CRASH_AFTERMATH_REQUEST_INTV_CHOCOLATE_MYERS_94DAYTONA                                              030.0 00:00:24:28 
*FROM CLIP NAME:  ERN_F0995_NSCR_1994_NEIL BONNET DEADLY CRASH AFTERMATH REQUEST INTV CHOCOLATE MYERS_94DAYTONA.NEW.01 
*SOURCE FILE: ERN_F0995_NSCR_1994_NEIL BONNET DEADLY CRASH AFTERMATH REQUEST INTV CHOCOLATE MYERS_94DAYTONA
002250  ERN_F3482_WSOC_VARIOUS_DATES_NEWS_COMP_NEIL_BONNETT_INTV_&_FUNERAL_SCREENER                                                       V     C        00:03:42:11 00:03:45:20 00:50:01:07 00:50:05:10 
M2      ERN_F3482_WSOC_VARIOUS_DATES_NEWS_COMP_NEIL_BONNETT_INTV_&_FUNERAL_SCREENER                                                                048.0 00:03:42:11 
*FROM CLIP NAME:  ERN_F3482_WSOC_1994-02-11_NEWS NEIL BONNETT DEADLY CRASH, FOOTAGE OF CAR DARRELL WALTRIP AT END 
*SOURCE FILE: ERN_F3482_WSOC_VARIOUS DATES_NEWS COMP NEIL BONNETT INTV & FUNERAL_SCREENER
002251  ERN_F0995_NSCR_1994_NEIL_BONNET_DEADLY_CRASH_AFTERMATH_REQUEST_INTV_CHOCOLATE_MYERS_94DAYTONA                                     A20   C        00:00:25:28 00:00:47:10 00:50:01:19 00:50:23:04 
M2      ERN_F0995_NSCR_1994_NEIL_BONNET_DEADLY_CRASH_AFTERMATH_REQUEST_INTV_CHOCOLATE_MYERS_94DAYTONA                                              030.0 00:00:25:28 
*FROM CLIP NAME:  ERN_F0995_NSCR_1994_NEIL BONNET DEADLY CRASH AFTERMATH REQUEST INTV CHOCOLATE MYERS_94DAYTONA.NEW.01 
*SOURCE FILE: ERN_F0995_NSCR_1994_NEIL BONNET DEADLY CRASH AFTERMATH REQUEST INTV CHOCOLATE MYERS_94DAYTONA
002252  ERN_F3482_WSOC_VARIOUS_DATES_NEWS_COMP_NEIL_BONNETT_INTV_&_FUNERAL_SCREENER                                                       V     C        00:03:45:20 00:03:50:26 00:50:05:10 00:50:11:22 
M2      ERN_F3482_WSOC_VARIOUS_DATES_NEWS_COMP_NEIL_BONNETT_INTV_&_FUNERAL_SCREENER                                                                048.0 00:03:45:20 
*FROM CLIP NAME:  ERN_F3482_WSOC_1994-02-11_NEWS NEIL BONNETT DEADLY CRASH, FOOTAGE OF CAR DARRELL WALTRIP AT END 
*SOURCE FILE: ERN_F3482_WSOC_VARIOUS DATES_NEWS COMP NEIL BONNETT INTV & FUNERAL_SCREENER
002253  ERN_F2610_FOXS_1994-02-11_SPORTS_AIR_NEIL_BONNET_DEATH_AT_DAYTONA_1008149_024                                                     A18   C        00:00:07:10 00:00:07:15 00:50:09:04 00:50:09:08 
M2      ERN_F2610_FOXS_1994-02-11_SPORTS_AIR_NEIL_BONNET_DEATH_AT_DAYTONA_1008149_024                                                              030.0 00:00:07:10 
*FROM CLIP NAME:  ERN_F2610_FOXS_1994-02-11_SPORTS AIR NEIL BONNET DEATH AT DAYTONA_1008149_024.NEW.01 
*SOURCE FILE: ERN_F2610_FOXS_1994-02-11_SPORTS AIR NEIL BONNET DEATH AT DAYTONA_1008149_024
002254  ERN_F2610_FOXS_1994-02-11_SPORTS_AIR_NEIL_BONNET_DEATH_AT_DAYTONA_1008149_024                                                     A18   C        00:00:07:15 00:00:15:09 00:50:09:08 00:50:17:03 
M2      ERN_F2610_FOXS_1994-02-11_SPORTS_AIR_NEIL_BONNET_DEATH_AT_DAYTONA_1008149_024                                                              030.0 00:00:07:15 
*FROM CLIP NAME:  ERN_F2610_FOXS_1994-02-11_SPORTS AIR NEIL BONNET DEATH AT DAYTONA_1008149_024.NEW.01 
*SOURCE FILE: ERN_F2610_FOXS_1994-02-11_SPORTS AIR NEIL BONNET DEATH AT DAYTONA_1008149_024
002255  ERN_F3482_WSOC_VARIOUS_DATES_NEWS_COMP_NEIL_BONNETT_INTV_&_FUNERAL_SCREENER                                                       V     C        00:03:50:26 00:03:55:01 00:50:11:22 00:50:17:03 
M2      ERN_F3482_WSOC_VARIOUS_DATES_NEWS_COMP_NEIL_BONNETT_INTV_&_FUNERAL_SCREENER                                                                048.0 00:03:50:26 
*FROM CLIP NAME:  ERN_F3482_WSOC_1994-02-11_NEWS NEIL BONNETT DEADLY CRASH, FOOTAGE OF CAR DARRELL WALTRIP AT END 
*SOURCE FILE: ERN_F3482_WSOC_VARIOUS DATES_NEWS COMP NEIL BONNETT INTV & FUNERAL_SCREENER
002256  ERN_F3482_WSOC_VARIOUS_DATES_NEWS_COMP_NEIL_BONNETT_INTV_&_FUNERAL_SCREENER                                                       V     C        00:03:55:01 00:03:57:05 00:50:17:03 00:50:19:19 
M2      ERN_F3482_WSOC_VARIOUS_DATES_NEWS_COMP_NEIL_BONNETT_INTV_&_FUNERAL_SCREENER                                                                048.0 00:03:55:01 
*FROM CLIP NAME:  ERN_F3482_WSOC_1994-02-11_NEWS NEIL BONNETT DEADLY CRASH, FOOTAGE OF CAR DARRELL WALTRIP AT END 
*SOURCE FILE: ERN_F3482_WSOC_VARIOUS DATES_NEWS COMP NEIL BONNETT INTV & FUNERAL_SCREENER
002257  ERN_F2610_FOXS_1994-02-11_SPORTS_AIR_NEIL_BONNET_DEATH_AT_DAYTONA_1008149_024                                                     A18   C        00:00:15:08 00:00:18:22 00:50:17:03 00:50:20:13 
M2      ERN_F2610_FOXS_1994-02-11_SPORTS_AIR_NEIL_BONNET_DEATH_AT_DAYTONA_1008149_024                                                              030.0 00:00:15:08 
*FROM CLIP NAME:  ERN_F2610_FOXS_1994-02-11_SPORTS AIR NEIL BONNET DEATH AT DAYTONA_1008149_024.NEW.01 
*TO CLIP NAME:  ERN_F2610_FOXS_1994-02-11_SPORTS AIR NEIL BONNET DEATH AT DAYTONA_1008149_024.NEW.01 
*SOURCE FILE: ERN_F2610_FOXS_1994-02-11_SPORTS AIR NEIL BONNET DEATH AT DAYTONA_1008149_024
002258  ERN_F3482_WSOC_VARIOUS_DATES_NEWS_COMP_NEIL_BONNETT_INTV_&_FUNERAL_SCREENER                                                       V     C        00:04:00:00 00:04:04:20 00:50:19:19 00:50:25:15 
M2      ERN_F3482_WSOC_VARIOUS_DATES_NEWS_COMP_NEIL_BONNETT_INTV_&_FUNERAL_SCREENER                                                                048.0 00:04:00:00 
*FROM CLIP NAME:  ERN_F3482_WSOC_1994-02-11_NEWS NEIL BONNETT DEADLY CRASH, FOOTAGE OF CAR DARRELL WALTRIP AT END 
*SOURCE FILE: ERN_F3482_WSOC_VARIOUS DATES_NEWS COMP NEIL BONNETT INTV & FUNERAL_SCREENER
002259  ERN_F2610_FOXS_1994-02-11_SPORTS_AIR_NEIL_BONNET_DEATH_AT_DAYTONA_1008149_024                                                     A18   C        00:00:31:28 00:00:32:04 00:50:20:13 00:50:20:17 
M2      ERN_F2610_FOXS_1994-02-11_SPORTS_AIR_NEIL_BONNET_DEATH_AT_DAYTONA_1008149_024                                                              030.0 00:00:31:28 
*FROM CLIP NAME:  ERN_F2610_FOXS_1994-02-11_SPORTS AIR NEIL BONNET DEATH AT DAYTONA_1008149_024.NEW.01 
*TO CLIP NAME:  ERN_F2610_FOXS_1994-02-11_SPORTS AIR NEIL BONNET DEATH AT DAYTONA_1008149_024.NEW.01 
*SOURCE FILE: ERN_F2610_FOXS_1994-02-11_SPORTS AIR NEIL BONNET DEATH AT DAYTONA_1008149_024
002260  ERN_F0995_NSCR_1994_NEIL_BONNET_DEADLY_CRASH_AFTERMATH_REQUEST_INTV_CHOCOLATE_MYERS_94DAYTONA                                     A20   C        00:00:47:10 00:00:49:10 00:50:23:04 00:50:25:04 
M2      ERN_F0995_NSCR_1994_NEIL_BONNET_DEADLY_CRASH_AFTERMATH_REQUEST_INTV_CHOCOLATE_MYERS_94DAYTONA                                              030.0 00:00:47:10 
*FROM CLIP NAME:  ERN_F0995_NSCR_1994_NEIL BONNET DEADLY CRASH AFTERMATH REQUEST INTV CHOCOLATE MYERS_94DAYTONA.NEW.01 
*TO CLIP NAME:  ERN_F0995_NSCR_1994_NEIL BONNET DEADLY CRASH AFTERMATH REQUEST INTV CHOCOLATE MYERS_94DAYTONA.NEW.01 
*SOURCE FILE: ERN_F0995_NSCR_1994_NEIL BONNET DEADLY CRASH AFTERMATH REQUEST INTV CHOCOLATE MYERS_94DAYTONA
002261  ERN_F3482_WSOC_VARIOUS_DATES_NEWS_COMP_NEIL_BONNETT_INTV_&_FUNERAL_SCREENER                                                       V     C        00:03:57:06 00:03:59:29 00:50:25:15 00:50:29:02 
M2      ERN_F3482_WSOC_VARIOUS_DATES_NEWS_COMP_NEIL_BONNETT_INTV_&_FUNERAL_SCREENER                                                                048.0 00:03:57:06 
*FROM CLIP NAME:  ERN_F3482_WSOC_1994-02-11_NEWS NEIL BONNETT DEADLY CRASH, FOOTAGE OF CAR DARRELL WALTRIP AT END 
*SOURCE FILE: ERN_F3482_WSOC_VARIOUS DATES_NEWS COMP NEIL BONNETT INTV & FUNERAL_SCREENER
002262  ERN_F0995_NSCR_1994_NEIL_BONNET_DEADLY_CRASH_AFTERMATH_REQUEST_INTV_CHOCOLATE_MYERS_94DAYTONA                                     A18   C        00:00:50:05 00:00:51:22 00:50:27:13 00:50:29:02 
M2      ERN_F0995_NSCR_1994_NEIL_BONNET_DEADLY_CRASH_AFTERMATH_REQUEST_INTV_CHOCOLATE_MYERS_94DAYTONA                                              030.0 00:00:50:05 
*FROM CLIP NAME:  ERN_F0995_NSCR_1994_NEIL BONNET DEADLY CRASH AFTERMATH REQUEST INTV CHOCOLATE MYERS_94DAYTONA.NEW.01 
*SOURCE FILE: ERN_F0995_NSCR_1994_NEIL BONNET DEADLY CRASH AFTERMATH REQUEST INTV CHOCOLATE MYERS_94DAYTONA
002263  ERN_F0995_NSCR_1994_NEIL_BONNET_DEADLY_CRASH_AFTERMATH_REQUEST_INTV_CHOCOLATE_MYERS_94DAYTONA                                     A18   C        00:00:51:21 00:01:00:02 00:50:29:02 00:50:37:09 
M2      ERN_F0995_NSCR_1994_NEIL_BONNET_DEADLY_CRASH_AFTERMATH_REQUEST_INTV_CHOCOLATE_MYERS_94DAYTONA                                              030.0 00:00:51:21 
*FROM CLIP NAME:  ERN_F0995_NSCR_1994_NEIL BONNET DEADLY CRASH AFTERMATH REQUEST INTV CHOCOLATE MYERS_94DAYTONA.NEW.01 
*SOURCE FILE: ERN_F0995_NSCR_1994_NEIL BONNET DEADLY CRASH AFTERMATH REQUEST INTV CHOCOLATE MYERS_94DAYTONA
002264  ERN_F9707_NSCR_1991-02-17_RACE_B-ROLL_DAYTONA_500_GEOFF_BODINE_LOADED_INTO_AMBULANCE_W_HIGH_CAM_OF_TRACK_LGP03115                 V     C        01:35:26:00 01:35:35:20 00:50:29:02 00:50:38:17 
M2      ERN_F9707_NSCR_1991-02-17_RACE_B-ROLL_DAYTONA_500_GEOFF_BODINE_LOADED_INTO_AMBULANCE_W_HIGH_CAM_OF_TRACK_LGP03115                          030.0 01:35:26:00 
*FROM CLIP NAME:  ERN_F9707_NSCR_1991-02-17_RACE B-ROLL DAYTONA 500 GEOFF BODINE LOADED INTO AMBULANCE W HIGH CAM OF TRACK_LGP03115.NEW.01 
*SOURCE FILE: ERN_F9707_NSCR_1991-02-17_RACE B-ROLL DAYTONA 500 GEOFF BODINE LOADED INTO AMBULANCE W HIGH CAM OF TRACK_LGP03115
002265  ERN_F3482_WSOC_VARIOUS_DATES_NEWS_COMP_NEIL_BONNETT_INTV_&_FUNERAL_SCREENER                                                       V     C        00:06:37:10 00:06:41:15 00:50:42:13 00:50:46:17 
M2      ERN_F3482_WSOC_VARIOUS_DATES_NEWS_COMP_NEIL_BONNETT_INTV_&_FUNERAL_SCREENER                                                                060.0 00:06:37:10 
*FROM CLIP NAME:  ERN_F3482_WSOC_1994-02-14_NEWS NEIL BONNETT FUNERAL DARRELL WALTRIP BYTE 
*SOURCE FILE: ERN_F3482_WSOC_VARIOUS DATES_NEWS COMP NEIL BONNETT INTV & FUNERAL_SCREENER
002266  ERN_F3482_WSOC_VARIOUS_DATES_NEWS_COMP_NEIL_BONNETT_INTV_&_FUNERAL_SCREENER                                                       V     C        00:06:32:05 00:06:34:26 00:50:46:17 00:50:50:02 
M2      ERN_F3482_WSOC_VARIOUS_DATES_NEWS_COMP_NEIL_BONNETT_INTV_&_FUNERAL_SCREENER                                                                048.0 00:06:32:05 
*FROM CLIP NAME:  ERN_F3482_WSOC_1994-02-14_NEWS NEIL BONNETT FUNERAL DARRELL WALTRIP BYTE 
*SOURCE FILE: ERN_F3482_WSOC_VARIOUS DATES_NEWS COMP NEIL BONNETT INTV & FUNERAL_SCREENER
002267  ERN_F3482_WSOC_VARIOUS_DATES_NEWS_COMP_NEIL_BONNETT_INTV_&_FUNERAL_SCREENER                                                       V     C        00:07:16:26 00:07:21:20 00:51:01:15 00:51:06:10 
M2      ERN_F3482_WSOC_VARIOUS_DATES_NEWS_COMP_NEIL_BONNETT_INTV_&_FUNERAL_SCREENER                                                                060.0 00:07:16:26 
*FROM CLIP NAME:  ERN_F3482_WSOC_1994-02-14_NEWS NEIL BONNETT FUNERAL DARRELL WALTRIP BYTE 
*SOURCE FILE: ERN_F3482_WSOC_VARIOUS DATES_NEWS COMP NEIL BONNETT INTV & FUNERAL_SCREENER
002268  ERN_F3482_WSOC_VARIOUS_DATES_NEWS_COMP_NEIL_BONNETT_INTV_&_FUNERAL_SCREENER                                                       V     C        00:06:19:20 00:06:24:01 00:51:06:10 00:51:10:19 
M2      ERN_F3482_WSOC_VARIOUS_DATES_NEWS_COMP_NEIL_BONNETT_INTV_&_FUNERAL_SCREENER                                                                060.0 00:06:19:20 
*FROM CLIP NAME:  ERN_F3482_WSOC_1994-02-14_NEWS NEIL BONNETT FUNERAL DARRELL WALTRIP BYTE 
*SOURCE FILE: ERN_F3482_WSOC_VARIOUS DATES_NEWS COMP NEIL BONNETT INTV & FUNERAL_SCREENER
002269  ERN_F3482_WSOC_VARIOUS_DATES_NEWS_COMP_NEIL_BONNETT_INTV_&_FUNERAL_SCREENER                                                       V     C        00:07:11:03 00:07:16:12 00:51:10:19 00:51:16:02 
M2      ERN_F3482_WSOC_VARIOUS_DATES_NEWS_COMP_NEIL_BONNETT_INTV_&_FUNERAL_SCREENER                                                                060.0 00:07:11:03 
*FROM CLIP NAME:  ERN_F3482_WSOC_1994-02-14_NEWS NEIL BONNETT FUNERAL DARRELL WALTRIP BYTE 
*SOURCE FILE: ERN_F3482_WSOC_VARIOUS DATES_NEWS COMP NEIL BONNETT INTV & FUNERAL_SCREENER
002270  ERN_F1671_NSCR_1994-10-05_CHARLOTTE_-_MELLO_YELLOW_500_GARAGE_PREP_DESR_NO3__94-EV-0559                                           A18   C        00:10:14:05 00:10:15:21 00:51:17:07 00:51:18:19 
M2      ERN_F1671_NSCR_1994-10-05_CHARLOTTE_-_MELLO_YELLOW_500_GARAGE_PREP_DESR_NO3__94-EV-0559                                                    030.0 00:10:14:05 
*FROM CLIP NAME:  ERN_F1671_NSCR_1994-10-05_CHARLOTTE - MELLO YELLOW 500 GARAGE PREP DESR NO3 _94-EV-0559.NEW.01 
*SOURCE FILE: ERN_F1671_NSCR_1994-10-05_CHARLOTTE - MELLO YELLOW 500 GARAGE PREP DESR NO3 _94-EV-0559
002271  ERN_F3473_NSCR_1992-10-09_PRE_RACE_INTV_DESR_NO_AUDIO_CHARLOTTE_MOTOR_SPEEDWAY_TNN003742                                          V     C        01:05:58:29 01:06:26:24 00:51:17:11 00:51:52:03 
M2      ERN_F3473_NSCR_1992-10-09_PRE_RACE_INTV_DESR_NO_AUDIO_CHARLOTTE_MOTOR_SPEEDWAY_TNN003742                                                   024.0 01:05:58:29 
*FROM CLIP NAME:  ERN_F3473_NSCR_1992-10-09_PRE RACE INTV DESR NO AUDIO CHARLOTTE MOTOR SPEEDWAY_TNN003742.NEW.01 
*SOURCE FILE: ERN_F3473_NSCR_1992-10-09_PRE RACE INTV DESR NO AUDIO CHARLOTTE MOTOR SPEEDWAY_TNN003742
002272  ERN_F1671_NSCR_1994-10-05_CHARLOTTE_-_MELLO_YELLOW_500_GARAGE_PREP_DESR_NO3__94-EV-0559                                           A18   C        00:10:15:20 00:10:39:05 00:51:18:19 00:51:42:06 
M2      ERN_F1671_NSCR_1994-10-05_CHARLOTTE_-_MELLO_YELLOW_500_GARAGE_PREP_DESR_NO3__94-EV-0559                                                    030.0 00:10:15:20 
*FROM CLIP NAME:  ERN_F1671_NSCR_1994-10-05_CHARLOTTE - MELLO YELLOW 500 GARAGE PREP DESR NO3 _94-EV-0559.NEW.01 
*SOURCE FILE: ERN_F1671_NSCR_1994-10-05_CHARLOTTE - MELLO YELLOW 500 GARAGE PREP DESR NO3 _94-EV-0559
002273  ERN_F1671_NSCR_1994-10-05_CHARLOTTE_-_MELLO_YELLOW_500_GARAGE_PREP_DESR_NO3__94-EV-0559                                           A18   C        00:10:41:03 00:10:42:03 00:51:42:06 00:51:43:06 
M2      ERN_F1671_NSCR_1994-10-05_CHARLOTTE_-_MELLO_YELLOW_500_GARAGE_PREP_DESR_NO3__94-EV-0559                                                    030.0 00:10:41:03 
*FROM CLIP NAME:  ERN_F1671_NSCR_1994-10-05_CHARLOTTE - MELLO YELLOW 500 GARAGE PREP DESR NO3 _94-EV-0559.NEW.01 
*TO CLIP NAME:  ERN_F1671_NSCR_1994-10-05_CHARLOTTE - MELLO YELLOW 500 GARAGE PREP DESR NO3 _94-EV-0559.NEW.01 
*SOURCE FILE: ERN_F1671_NSCR_1994-10-05_CHARLOTTE - MELLO YELLOW 500 GARAGE PREP DESR NO3 _94-EV-0559
002274  ERN_F1671_NSCR_1994-10-05_CHARLOTTE_-_MELLO_YELLOW_500_GARAGE_PREP_DESR_NO3__94-EV-0559                                           A18   C        00:10:42:03 00:10:53:02 00:51:43:06 00:51:54:05 
M2      ERN_F1671_NSCR_1994-10-05_CHARLOTTE_-_MELLO_YELLOW_500_GARAGE_PREP_DESR_NO3__94-EV-0559                                                    030.0 00:10:42:03 
*FROM CLIP NAME:  ERN_F1671_NSCR_1994-10-05_CHARLOTTE - MELLO YELLOW 500 GARAGE PREP DESR NO3 _94-EV-0559.NEW.01 
*SOURCE FILE: ERN_F1671_NSCR_1994-10-05_CHARLOTTE - MELLO YELLOW 500 GARAGE PREP DESR NO3 _94-EV-0559
002275  ERN_F4352_NSCR_1994-02-19_DAYTONA_GOODY_300-ESPN_RACE_BROADCAST_LGP00500                                                          V     C        00:44:52:27 00:44:59:22 00:51:52:03 00:51:58:23 
M2      ERN_F4352_NSCR_1994-02-19_DAYTONA_GOODY_300-ESPN_RACE_BROADCAST_LGP00500                                                                   030.0 00:44:52:27 
*FROM CLIP NAME:  ERN_F4352_NSCR_1994-02-19_DAYTONA GOODY 300-ESPN RACE BROADCAST_LGP00500.NEW.01 
*SOURCE FILE: ERN_F4352_NSCR_1994-02-19_DAYTONA GOODY 300-ESPN RACE BROADCAST_LGP00500
002276  ERN_F7201_NSCR_1994-02-20_RACE_BROADCAST_DAYTONA_500_1994-NAS-00133_S001                                                          A20   C        01:08:14:11 01:08:15:24 00:51:53:13 00:51:54:23 
M2      ERN_F7201_NSCR_1994-02-20_RACE_BROADCAST_DAYTONA_500_1994-NAS-00133_S001                                                                   060.0 01:08:14:11 
*FROM CLIP NAME:  ERN_F7201_NSCR_1994-02-20_RACE BROADCAST DAYTONA 500_1994-NAS-00133_S001.NEW.01 
*SOURCE FILE: ERN_F7201_NSCR_1994-02-20_RACE BROADCAST DAYTONA 500_1994-NAS-00133_S001
002277  ERN_F7201_NSCR_1994-02-20_RACE_BROADCAST_DAYTONA_500_1994-NAS-00133_S001                                                          A20   C        01:08:15:27 01:08:16:07 00:51:54:23 00:51:55:07 
M2      ERN_F7201_NSCR_1994-02-20_RACE_BROADCAST_DAYTONA_500_1994-NAS-00133_S001                                                                   060.0 01:08:15:27 
*FROM CLIP NAME:  ERN_F7201_NSCR_1994-02-20_RACE BROADCAST DAYTONA 500_1994-NAS-00133_S001.NEW.01 
*TO CLIP NAME:  ERN_F7201_NSCR_1994-02-20_RACE BROADCAST DAYTONA 500_1994-NAS-00133_S001.NEW.01 
*SOURCE FILE: ERN_F7201_NSCR_1994-02-20_RACE BROADCAST DAYTONA 500_1994-NAS-00133_S001
002278  ERN_F7201_NSCR_1994-02-20_RACE_BROADCAST_DAYTONA_500_1994-NAS-00133_S001                                                          A20   C        01:08:16:07 01:08:16:25 00:51:55:07 00:51:55:21 
M2      ERN_F7201_NSCR_1994-02-20_RACE_BROADCAST_DAYTONA_500_1994-NAS-00133_S001                                                                   060.0 01:08:16:07 
*FROM CLIP NAME:  ERN_F7201_NSCR_1994-02-20_RACE BROADCAST DAYTONA 500_1994-NAS-00133_S001.NEW.01 
*SOURCE FILE: ERN_F7201_NSCR_1994-02-20_RACE BROADCAST DAYTONA 500_1994-NAS-00133_S001
002279  ERN_F7201_NSCR_1994-02-20_RACE_BROADCAST_DAYTONA_500_1994-NAS-00133_S001                                                          A22   C        01:08:15:03 01:08:15:29 00:51:55:14 00:51:56:10 
M2      ERN_F7201_NSCR_1994-02-20_RACE_BROADCAST_DAYTONA_500_1994-NAS-00133_S001                                                                   060.0 01:08:15:03 
*FROM CLIP NAME:  ERN_F7201_NSCR_1994-02-20_RACE BROADCAST DAYTONA 500_1994-NAS-00133_S001.NEW.01 
*SOURCE FILE: ERN_F7201_NSCR_1994-02-20_RACE BROADCAST DAYTONA 500_1994-NAS-00133_S001
002280  ERN_F7201_NSCR_1994-02-20_RACE_BROADCAST_DAYTONA_500_1994-NAS-00133_S001                                                          A22   C        01:08:54:03 01:08:54:11 00:51:56:10 00:51:56:16 
M2      ERN_F7201_NSCR_1994-02-20_RACE_BROADCAST_DAYTONA_500_1994-NAS-00133_S001                                                                   060.0 01:08:54:03 
*FROM CLIP NAME:  ERN_F7201_NSCR_1994-02-20_RACE BROADCAST DAYTONA 500_1994-NAS-00133_S001.NEW.01 
*TO CLIP NAME:  ERN_F7201_NSCR_1994-02-20_RACE BROADCAST DAYTONA 500_1994-NAS-00133_S001.NEW.01 
*SOURCE FILE: ERN_F7201_NSCR_1994-02-20_RACE BROADCAST DAYTONA 500_1994-NAS-00133_S001
002281  ERN_F7201_NSCR_1994-02-20_RACE_BROADCAST_DAYTONA_500_1994-NAS-00133_S001                                                          A22   C        01:08:54:11 01:08:56:17 00:51:56:16 00:51:58:21 
M2      ERN_F7201_NSCR_1994-02-20_RACE_BROADCAST_DAYTONA_500_1994-NAS-00133_S001                                                                   060.0 01:08:54:11 
*FROM CLIP NAME:  ERN_F7201_NSCR_1994-02-20_RACE BROADCAST DAYTONA 500_1994-NAS-00133_S001.NEW.01 
*SOURCE FILE: ERN_F7201_NSCR_1994-02-20_RACE BROADCAST DAYTONA 500_1994-NAS-00133_S001
002282  ERN_F0785_NSCR_1986-02-23_RACE_DESR_AND_DARRELL_WALTRIP_CRASH_NASCAR_CUP_SERIES_-_RICHMOND_TNN001790                              A24   C        00:06:12:04 00:06:16:05 00:51:57:02 00:52:01:02 
M2      ERN_F0785_NSCR_1986-02-23_RACE_DESR_AND_DARRELL_WALTRIP_CRASH_NASCAR_CUP_SERIES_-_RICHMOND_TNN001790                                       030.0 00:06:12:04 
*FROM CLIP NAME:  ERN_F0785_NSCR_1986-02-23_RACE DESR AND DARRELL WALTRIP CRASH NASCAR CUP SERIES - RICHMOND_TNN001790.NEW.01 
*SOURCE FILE: ERN_F0785_NSCR_1986-02-23_RACE DESR AND DARRELL WALTRIP CRASH NASCAR CUP SERIES - RICHMOND_TNN001790
002283  ERN_F7201_NSCR_1994-02-20_RACE_BROADCAST_DAYTONA_500_1994-NAS-00133_S001                                                          A22   C        01:08:14:23 01:08:15:04 00:51:58:21 00:51:59:05 
M2      ERN_F7201_NSCR_1994-02-20_RACE_BROADCAST_DAYTONA_500_1994-NAS-00133_S001                                                                   060.0 01:08:14:23 
*FROM CLIP NAME:  ERN_F7201_NSCR_1994-02-20_RACE BROADCAST DAYTONA 500_1994-NAS-00133_S001.NEW.01 
*TO CLIP NAME:  ERN_F7201_NSCR_1994-02-20_RACE BROADCAST DAYTONA 500_1994-NAS-00133_S001.NEW.01 
*SOURCE FILE: ERN_F7201_NSCR_1994-02-20_RACE BROADCAST DAYTONA 500_1994-NAS-00133_S001
002284  ERN_F7201_NSCR_1994-02-20_RACE_BROADCAST_DAYTONA_500_1994-NAS-00133_S001                                                          V     C        01:09:51:15 01:09:51:16 00:51:58:23 00:52:05:08 
M2      ERN_F7201_NSCR_1994-02-20_RACE_BROADCAST_DAYTONA_500_1994-NAS-00133_S001                                                                  -060.0 01:09:51:15 
*FROM CLIP NAME:  ERN_F7201_NSCR_1994-02-20_RACE BROADCAST DAYTONA 500_1994-NAS-00133_S001.NEW.01 
*SOURCE FILE: ERN_F7201_NSCR_1994-02-20_RACE BROADCAST DAYTONA 500_1994-NAS-00133_S001
002285  ERN_F7201_NSCR_1994-02-20_RACE_BROADCAST_DAYTONA_500_1994-NAS-00133_S001                                                          A22   C        01:08:15:03 01:08:15:29 00:51:59:05 00:52:00:01 
M2      ERN_F7201_NSCR_1994-02-20_RACE_BROADCAST_DAYTONA_500_1994-NAS-00133_S001                                                                   060.0 01:08:15:03 
*FROM CLIP NAME:  ERN_F7201_NSCR_1994-02-20_RACE BROADCAST DAYTONA 500_1994-NAS-00133_S001.NEW.01 
*SOURCE FILE: ERN_F7201_NSCR_1994-02-20_RACE BROADCAST DAYTONA 500_1994-NAS-00133_S001
002286  ERN_F7201_NSCR_1994-02-20_RACE_BROADCAST_DAYTONA_500_1994-NAS-00133_S001                                                          A20   C        01:08:17:16 01:08:17:21 00:51:59:17 00:51:59:21 
M2      ERN_F7201_NSCR_1994-02-20_RACE_BROADCAST_DAYTONA_500_1994-NAS-00133_S001                                                                   060.0 01:08:17:16 
*FROM CLIP NAME:  ERN_F7201_NSCR_1994-02-20_RACE BROADCAST DAYTONA 500_1994-NAS-00133_S001.NEW.01 
*SOURCE FILE: ERN_F7201_NSCR_1994-02-20_RACE BROADCAST DAYTONA 500_1994-NAS-00133_S001
002287  ERN_F7201_NSCR_1994-02-20_RACE_BROADCAST_DAYTONA_500_1994-NAS-00133_S001                                                          A20   C        01:08:17:21 01:08:19:02 00:51:59:21 00:52:01:06 
M2      ERN_F7201_NSCR_1994-02-20_RACE_BROADCAST_DAYTONA_500_1994-NAS-00133_S001                                                                   060.0 01:08:17:21 
*FROM CLIP NAME:  ERN_F7201_NSCR_1994-02-20_RACE BROADCAST DAYTONA 500_1994-NAS-00133_S001.NEW.01 
*SOURCE FILE: ERN_F7201_NSCR_1994-02-20_RACE BROADCAST DAYTONA 500_1994-NAS-00133_S001
002288  ERN_F0785_NSCR_1986-02-23_RACE_DESR_AND_DARRELL_WALTRIP_CRASH_NASCAR_CUP_SERIES_-_RICHMOND_TNN001790                              A24   C        00:06:16:04 00:06:19:20 00:52:01:02 00:52:04:14 
M2      ERN_F0785_NSCR_1986-02-23_RACE_DESR_AND_DARRELL_WALTRIP_CRASH_NASCAR_CUP_SERIES_-_RICHMOND_TNN001790                                       030.0 00:06:16:04 
*FROM CLIP NAME:  ERN_F0785_NSCR_1986-02-23_RACE DESR AND DARRELL WALTRIP CRASH NASCAR CUP SERIES - RICHMOND_TNN001790.NEW.01 
*SOURCE FILE: ERN_F0785_NSCR_1986-02-23_RACE DESR AND DARRELL WALTRIP CRASH NASCAR CUP SERIES - RICHMOND_TNN001790
002289  ERN_F7201_NSCR_1994-02-20_RACE_BROADCAST_DAYTONA_500_1994-NAS-00133_S001                                                          A20   C        01:08:24:18 01:08:24:22 00:52:01:06 00:52:01:09 
M2      ERN_F7201_NSCR_1994-02-20_RACE_BROADCAST_DAYTONA_500_1994-NAS-00133_S001                                                                   060.0 01:08:24:18 
*FROM CLIP NAME:  ERN_F7201_NSCR_1994-02-20_RACE BROADCAST DAYTONA 500_1994-NAS-00133_S001.NEW.01 
*TO CLIP NAME:  ERN_F7201_NSCR_1994-02-20_RACE BROADCAST DAYTONA 500_1994-NAS-00133_S001.NEW.01 
*SOURCE FILE: ERN_F7201_NSCR_1994-02-20_RACE BROADCAST DAYTONA 500_1994-NAS-00133_S001
002290  ERN_F7201_NSCR_1994-02-20_RACE_BROADCAST_DAYTONA_500_1994-NAS-00133_S001                                                          A20   C        01:08:24:22 01:08:25:14 00:52:01:09 00:52:02:02 
M2      ERN_F7201_NSCR_1994-02-20_RACE_BROADCAST_DAYTONA_500_1994-NAS-00133_S001                                                                   060.0 01:08:24:22 
*FROM CLIP NAME:  ERN_F7201_NSCR_1994-02-20_RACE BROADCAST DAYTONA 500_1994-NAS-00133_S001.NEW.01 
*SOURCE FILE: ERN_F7201_NSCR_1994-02-20_RACE BROADCAST DAYTONA 500_1994-NAS-00133_S001
002291  ERN_F0785_NSCR_1986-02-23_RACE_DESR_AND_DARRELL_WALTRIP_CRASH_NASCAR_CUP_SERIES_-_RICHMOND_TNN001790                              A24   C        00:06:20:24 00:06:21:25 00:52:04:14 00:52:05:14 
M2      ERN_F0785_NSCR_1986-02-23_RACE_DESR_AND_DARRELL_WALTRIP_CRASH_NASCAR_CUP_SERIES_-_RICHMOND_TNN001790                                       030.0 00:06:20:24 
*FROM CLIP NAME:  ERN_F0785_NSCR_1986-02-23_RACE DESR AND DARRELL WALTRIP CRASH NASCAR CUP SERIES - RICHMOND_TNN001790.NEW.01 
*TO CLIP NAME:  ERN_F0785_NSCR_1986-02-23_RACE DESR AND DARRELL WALTRIP CRASH NASCAR CUP SERIES - RICHMOND_TNN001790.NEW.01 
*SOURCE FILE: ERN_F0785_NSCR_1986-02-23_RACE DESR AND DARRELL WALTRIP CRASH NASCAR CUP SERIES - RICHMOND_TNN001790
002292  ERN_F7738_NSCR_1994-02-20_RACE_B-ROLL_DAYTONA_500_PRE_RACE_DRIVERS_ON_TRACK_DESR_TERESA_JEFF_GORDON_94-EV-0050_S001               V     C        00:10:21:10 00:10:27:03 00:52:05:08 00:52:11:02 
M2      ERN_F7738_NSCR_1994-02-20_RACE_B-ROLL_DAYTONA_500_PRE_RACE_DRIVERS_ON_TRACK_DESR_TERESA_JEFF_GORDON_94-EV-0050_S001                        030.0 00:10:21:10 
*FROM CLIP NAME:  ERN_F7738_NSCR_1994-02-20_RACE B-ROLL DAYTONA 500 PRE RACE DRIVERS ON TRACK DESR TERESA JEFF GORDON_94-EV-0050_S001.NEW.01 
*SOURCE FILE: ERN_F7738_NSCR_1994-02-20_RACE B-ROLL DAYTONA 500 PRE RACE DRIVERS ON TRACK DESR TERESA JEFF GORDON_94-EV-0050_S001
002293  ERN_F0785_NSCR_1986-02-23_RACE_DESR_AND_DARRELL_WALTRIP_CRASH_NASCAR_CUP_SERIES_-_RICHMOND_TNN001790                              A24   C        00:06:21:24 00:06:39:28 00:52:05:14 00:52:23:17 
M2      ERN_F0785_NSCR_1986-02-23_RACE_DESR_AND_DARRELL_WALTRIP_CRASH_NASCAR_CUP_SERIES_-_RICHMOND_TNN001790                                       030.0 00:06:21:24 
*FROM CLIP NAME:  ERN_F0785_NSCR_1986-02-23_RACE DESR AND DARRELL WALTRIP CRASH NASCAR CUP SERIES - RICHMOND_TNN001790.NEW.01 
*SOURCE FILE: ERN_F0785_NSCR_1986-02-23_RACE DESR AND DARRELL WALTRIP CRASH NASCAR CUP SERIES - RICHMOND_TNN001790
002294  ERN_F0900_NSCR_1994-12-05_RACE_DESR_WIN_BTS_CR_1_WC_BANQUET_EARNHARDT_SR_05DEC1994_LGP                                            V     C        02:04:12:04 02:04:19:29 00:52:11:02 00:52:18:22 
M2      ERN_F0900_NSCR_1994-12-05_RACE_DESR_WIN_BTS_CR_1_WC_BANQUET_EARNHARDT_SR_05DEC1994_LGP                                                     030.0 02:04:12:04 
*FROM CLIP NAME:  ERN_F0900_NSCR_1994-12-05_RACE DESR WIN BTS_CR_1_WC_BANQUET_EARNHARDT_SR_05DEC1994_LGP.NEW.01 
*SOURCE FILE: ERN_F0900_NSCR_1994-12-05_RACE DESR WIN BTS_CR_1_WC_BANQUET_EARNHARDT_SR_05DEC1994_LGP
002295  ERN_F1102_NSCR_1994-02-13_NEIL_BONNETT_TRIBUTE_W_INTVS_&_RACE_HIGHLIGHTS_1994-NAS-00074_S001                                      A18   C        00:10:40:27 00:10:42:02 00:52:11:17 00:52:12:20 
M2      ERN_F1102_NSCR_1994-02-13_NEIL_BONNETT_TRIBUTE_W_INTVS_&_RACE_HIGHLIGHTS_1994-NAS-00074_S001                                               030.0 00:10:40:27 
*FROM CLIP NAME:  ERN_F1102_NSCR_1994-02-13_NEIL BONNETT TRIBUTE W INTVS & RACE HIGHLIGHTS_1994-NAS-00074_S001.NEW.01 
*SOURCE FILE: ERN_F1102_NSCR_1994-02-13_NEIL BONNETT TRIBUTE W INTVS & RACE HIGHLIGHTS_1994-NAS-00074_S001
002296  ERN_F1102_NSCR_1994-02-13_NEIL_BONNETT_TRIBUTE_W_INTVS_&_RACE_HIGHLIGHTS_1994-NAS-00074_S001                                      A18   C        00:10:45:20 00:10:45:25 00:52:12:20 00:52:13:00 
M2      ERN_F1102_NSCR_1994-02-13_NEIL_BONNETT_TRIBUTE_W_INTVS_&_RACE_HIGHLIGHTS_1994-NAS-00074_S001                                               030.0 00:10:45:20 
*FROM CLIP NAME:  ERN_F1102_NSCR_1994-02-13_NEIL BONNETT TRIBUTE W INTVS & RACE HIGHLIGHTS_1994-NAS-00074_S001.NEW.01 
*TO CLIP NAME:  ERN_F1102_NSCR_1994-02-13_NEIL BONNETT TRIBUTE W INTVS & RACE HIGHLIGHTS_1994-NAS-00074_S001.NEW.01 
*SOURCE FILE: ERN_F1102_NSCR_1994-02-13_NEIL BONNETT TRIBUTE W INTVS & RACE HIGHLIGHTS_1994-NAS-00074_S001
002297  ERN_F1102_NSCR_1994-02-13_NEIL_BONNETT_TRIBUTE_W_INTVS_&_RACE_HIGHLIGHTS_1994-NAS-00074_S001                                      A18   C        00:10:45:25 00:10:51:12 00:52:13:00 00:52:18:13 
M2      ERN_F1102_NSCR_1994-02-13_NEIL_BONNETT_TRIBUTE_W_INTVS_&_RACE_HIGHLIGHTS_1994-NAS-00074_S001                                               030.0 00:10:45:25 
*FROM CLIP NAME:  ERN_F1102_NSCR_1994-02-13_NEIL BONNETT TRIBUTE W INTVS & RACE HIGHLIGHTS_1994-NAS-00074_S001.NEW.01 
*SOURCE FILE: ERN_F1102_NSCR_1994-02-13_NEIL BONNETT TRIBUTE W INTVS & RACE HIGHLIGHTS_1994-NAS-00074_S001
002298  ERN_F1012_NSCR_1990S_RACE_B-ROLL_CHARLOTTE_DESR_NO3_DEJR_RALPH_EARNHARDT_LEGACY_CAR_NO8_W_CREW_&_PIT_STOP_15_SATURDAY_2           A22   C        00:41:34:23 00:41:38:24 00:52:16:02 00:52:20:02 
M2      ERN_F1012_NSCR_1990S_RACE_B-ROLL_CHARLOTTE_DESR_NO3_DEJR_RALPH_EARNHARDT_LEGACY_CAR_NO8_W_CREW_&_PIT_STOP_15_SATURDAY_2                    030.0 00:41:34:23 
*FROM CLIP NAME:  ERN_F1012_NSCR_1990S_RACE B-ROLL CHARLOTTE DESR NO3 DEJR RALPH EARNHARDT LEGACY CAR NO8 W CREW & PIT STOP_15_SATURDAY 2.NEW.01 
*SOURCE FILE: ERN_F1012_NSCR_1990S_RACE B-ROLL CHARLOTTE DESR NO3 DEJR RALPH EARNHARDT LEGACY CAR NO8 W CREW & PIT STOP_15_SATURDAY 2
002299  ERN_F1102_NSCR_1994-02-13_NEIL_BONNETT_TRIBUTE_W_INTVS_&_RACE_HIGHLIGHTS_1994-NAS-00074_S001                                      A20   C        00:10:40:27 00:10:42:02 00:52:18:05 00:52:19:08 
M2      ERN_F1102_NSCR_1994-02-13_NEIL_BONNETT_TRIBUTE_W_INTVS_&_RACE_HIGHLIGHTS_1994-NAS-00074_S001                                               030.0 00:10:40:27 
*FROM CLIP NAME:  ERN_F1102_NSCR_1994-02-13_NEIL BONNETT TRIBUTE W INTVS & RACE HIGHLIGHTS_1994-NAS-00074_S001.NEW.01 
*SOURCE FILE: ERN_F1102_NSCR_1994-02-13_NEIL BONNETT TRIBUTE W INTVS & RACE HIGHLIGHTS_1994-NAS-00074_S001
002300  ERN_F1102_NSCR_1994-02-13_NEIL_BONNETT_TRIBUTE_W_INTVS_&_RACE_HIGHLIGHTS_1994-NAS-00074_S001                                      A18   C        00:10:41:03 00:10:41:09 00:52:18:13 00:52:18:17 
M2      ERN_F1102_NSCR_1994-02-13_NEIL_BONNETT_TRIBUTE_W_INTVS_&_RACE_HIGHLIGHTS_1994-NAS-00074_S001                                               030.0 00:10:41:03 
*FROM CLIP NAME:  ERN_F1102_NSCR_1994-02-13_NEIL BONNETT TRIBUTE W INTVS & RACE HIGHLIGHTS_1994-NAS-00074_S001.NEW.01 
*TO CLIP NAME:  ERN_F1102_NSCR_1994-02-13_NEIL BONNETT TRIBUTE W INTVS & RACE HIGHLIGHTS_1994-NAS-00074_S001.NEW.01 
*SOURCE FILE: ERN_F1102_NSCR_1994-02-13_NEIL BONNETT TRIBUTE W INTVS & RACE HIGHLIGHTS_1994-NAS-00074_S001
002301  ERN_F1102_NSCR_1994-02-13_NEIL_BONNETT_TRIBUTE_W_INTVS_&_RACE_HIGHLIGHTS_1994-NAS-00074_S001                                      A18   C        00:10:41:08 00:10:41:13 00:52:18:17 00:52:18:20 
M2      ERN_F1102_NSCR_1994-02-13_NEIL_BONNETT_TRIBUTE_W_INTVS_&_RACE_HIGHLIGHTS_1994-NAS-00074_S001                                               030.0 00:10:41:08 
*FROM CLIP NAME:  ERN_F1102_NSCR_1994-02-13_NEIL BONNETT TRIBUTE W INTVS & RACE HIGHLIGHTS_1994-NAS-00074_S001.NEW.01 
*SOURCE FILE: ERN_F1102_NSCR_1994-02-13_NEIL BONNETT TRIBUTE W INTVS & RACE HIGHLIGHTS_1994-NAS-00074_S001
002302  ERN_F1012_NSCR_1990S_RACE_B-ROLL_CHARLOTTE_DESR_NO3_DEJR_RALPH_EARNHARDT_LEGACY_CAR_NO8_W_CREW_&_PIT_STOP_15_SATURDAY_2           V     C        00:41:37:18 00:41:44:17 00:52:18:22 00:52:25:20 
M2      ERN_F1012_NSCR_1990S_RACE_B-ROLL_CHARLOTTE_DESR_NO3_DEJR_RALPH_EARNHARDT_LEGACY_CAR_NO8_W_CREW_&_PIT_STOP_15_SATURDAY_2                    030.0 00:41:37:18 
*FROM CLIP NAME:  ERN_F1012_NSCR_1990S_RACE B-ROLL CHARLOTTE DESR NO3 DEJR RALPH EARNHARDT LEGACY CAR NO8 W CREW & PIT STOP_15_SATURDAY 2.NEW.01 
*SOURCE FILE: ERN_F1012_NSCR_1990S_RACE B-ROLL CHARLOTTE DESR NO3 DEJR RALPH EARNHARDT LEGACY CAR NO8 W CREW & PIT STOP_15_SATURDAY 2
002303  ERN_F1102_NSCR_1994-02-13_NEIL_BONNETT_TRIBUTE_W_INTVS_&_RACE_HIGHLIGHTS_1994-NAS-00074_S001                                      A20   C        00:10:42:01 00:10:42:03 00:52:19:08 00:52:19:09 
M2      ERN_F1102_NSCR_1994-02-13_NEIL_BONNETT_TRIBUTE_W_INTVS_&_RACE_HIGHLIGHTS_1994-NAS-00074_S001                                               030.0 00:10:42:01 
*FROM CLIP NAME:  ERN_F1102_NSCR_1994-02-13_NEIL BONNETT TRIBUTE W INTVS & RACE HIGHLIGHTS_1994-NAS-00074_S001.NEW.01 
*SOURCE FILE: ERN_F1102_NSCR_1994-02-13_NEIL BONNETT TRIBUTE W INTVS & RACE HIGHLIGHTS_1994-NAS-00074_S001
002304  ERN_F1102_NSCR_1994-02-13_NEIL_BONNETT_TRIBUTE_W_INTVS_&_RACE_HIGHLIGHTS_1994-NAS-00074_S001                                      A20   C        00:10:52:01 00:10:52:07 00:52:19:09 00:52:19:13 
M2      ERN_F1102_NSCR_1994-02-13_NEIL_BONNETT_TRIBUTE_W_INTVS_&_RACE_HIGHLIGHTS_1994-NAS-00074_S001                                               030.0 00:10:52:01 
*FROM CLIP NAME:  ERN_F1102_NSCR_1994-02-13_NEIL BONNETT TRIBUTE W INTVS & RACE HIGHLIGHTS_1994-NAS-00074_S001.NEW.01 
*TO CLIP NAME:  ERN_F1102_NSCR_1994-02-13_NEIL BONNETT TRIBUTE W INTVS & RACE HIGHLIGHTS_1994-NAS-00074_S001.NEW.01 
*SOURCE FILE: ERN_F1102_NSCR_1994-02-13_NEIL BONNETT TRIBUTE W INTVS & RACE HIGHLIGHTS_1994-NAS-00074_S001
002305  ERN_F1102_NSCR_1994-02-13_NEIL_BONNETT_TRIBUTE_W_INTVS_&_RACE_HIGHLIGHTS_1994-NAS-00074_S001                                      A20   C        00:10:52:06 00:10:57:02 00:52:19:13 00:52:24:09 
M2      ERN_F1102_NSCR_1994-02-13_NEIL_BONNETT_TRIBUTE_W_INTVS_&_RACE_HIGHLIGHTS_1994-NAS-00074_S001                                               030.0 00:10:52:06 
*FROM CLIP NAME:  ERN_F1102_NSCR_1994-02-13_NEIL BONNETT TRIBUTE W INTVS & RACE HIGHLIGHTS_1994-NAS-00074_S001.NEW.01 
*SOURCE FILE: ERN_F1102_NSCR_1994-02-13_NEIL BONNETT TRIBUTE W INTVS & RACE HIGHLIGHTS_1994-NAS-00074_S001
002306  ERN_F1012_NSCR_1990S_RACE_B-ROLL_CHARLOTTE_DESR_NO3_DEJR_RALPH_EARNHARDT_LEGACY_CAR_NO8_W_CREW_&_PIT_STOP_15_SATURDAY_2           A22   C        00:41:38:23 00:41:53:08 00:52:20:02 00:52:34:13 
M2      ERN_F1012_NSCR_1990S_RACE_B-ROLL_CHARLOTTE_DESR_NO3_DEJR_RALPH_EARNHARDT_LEGACY_CAR_NO8_W_CREW_&_PIT_STOP_15_SATURDAY_2                    030.0 00:41:38:23 
*FROM CLIP NAME:  ERN_F1012_NSCR_1990S_RACE B-ROLL CHARLOTTE DESR NO3 DEJR RALPH EARNHARDT LEGACY CAR NO8 W CREW & PIT STOP_15_SATURDAY 2.NEW.01 
*SOURCE FILE: ERN_F1012_NSCR_1990S_RACE B-ROLL CHARLOTTE DESR NO3 DEJR RALPH EARNHARDT LEGACY CAR NO8 W CREW & PIT STOP_15_SATURDAY 2
002307  ERN_F1102_NSCR_1994-02-13_NEIL_BONNETT_TRIBUTE_W_INTVS_&_RACE_HIGHLIGHTS_1994-NAS-00074_S001                                      A20   C        00:10:40:22 00:10:41:13 00:52:24:09 00:52:25:01 
M2      ERN_F1102_NSCR_1994-02-13_NEIL_BONNETT_TRIBUTE_W_INTVS_&_RACE_HIGHLIGHTS_1994-NAS-00074_S001                                               030.0 00:10:40:22 
*FROM CLIP NAME:  ERN_F1102_NSCR_1994-02-13_NEIL BONNETT TRIBUTE W INTVS & RACE HIGHLIGHTS_1994-NAS-00074_S001.NEW.01 
*TO CLIP NAME:  ERN_F1102_NSCR_1994-02-13_NEIL BONNETT TRIBUTE W INTVS & RACE HIGHLIGHTS_1994-NAS-00074_S001.NEW.01 
*SOURCE FILE: ERN_F1102_NSCR_1994-02-13_NEIL BONNETT TRIBUTE W INTVS & RACE HIGHLIGHTS_1994-NAS-00074_S001
002308  ERN_F0785_NSCR_1986-02-23_RACE_DESR_AND_DARRELL_WALTRIP_CRASH_NASCAR_CUP_SERIES_-_RICHMOND_TNN001790                              A18   C        00:06:03:00 00:06:04:01 00:52:25:11 00:52:26:11 
M2      ERN_F0785_NSCR_1986-02-23_RACE_DESR_AND_DARRELL_WALTRIP_CRASH_NASCAR_CUP_SERIES_-_RICHMOND_TNN001790                                       030.0 00:06:03:00 
*FROM CLIP NAME:  ERN_F0785_NSCR_1986-02-23_RACE DESR AND DARRELL WALTRIP CRASH NASCAR CUP SERIES - RICHMOND_TNN001790.NEW.01 
*SOURCE FILE: ERN_F0785_NSCR_1986-02-23_RACE DESR AND DARRELL WALTRIP CRASH NASCAR CUP SERIES - RICHMOND_TNN001790
002309  ERN_F7201_NSCR_1994-02-20_RACE_BROADCAST_DAYTONA_500_1994-NAS-00133_S001                                                          V     C        01:09:37:27 01:09:40:03 00:52:25:20 00:52:28:01 
M2      ERN_F7201_NSCR_1994-02-20_RACE_BROADCAST_DAYTONA_500_1994-NAS-00133_S001                                                                   060.0 01:09:37:27 
*FROM CLIP NAME:  ERN_F7201_NSCR_1994-02-20_RACE BROADCAST DAYTONA 500_1994-NAS-00133_S001.NEW.01 
*SOURCE FILE: ERN_F7201_NSCR_1994-02-20_RACE BROADCAST DAYTONA 500_1994-NAS-00133_S001
002310  ERN_F0785_NSCR_1986-02-23_RACE_DESR_AND_DARRELL_WALTRIP_CRASH_NASCAR_CUP_SERIES_-_RICHMOND_TNN001790                              A18   C        00:06:04:00 00:06:07:28 00:52:26:11 00:52:30:09 
M2      ERN_F0785_NSCR_1986-02-23_RACE_DESR_AND_DARRELL_WALTRIP_CRASH_NASCAR_CUP_SERIES_-_RICHMOND_TNN001790                                       030.0 00:06:04:00 
*FROM CLIP NAME:  ERN_F0785_NSCR_1986-02-23_RACE DESR AND DARRELL WALTRIP CRASH NASCAR CUP SERIES - RICHMOND_TNN001790.NEW.01 
*SOURCE FILE: ERN_F0785_NSCR_1986-02-23_RACE DESR AND DARRELL WALTRIP CRASH NASCAR CUP SERIES - RICHMOND_TNN001790
002311  ERN_F7201_NSCR_1994-02-20_RACE_BROADCAST_DAYTONA_500_1994-NAS-00133_S001                                                          V     C        01:19:41:22 01:19:44:03 00:52:28:01 00:52:31:00 
M2      ERN_F7201_NSCR_1994-02-20_RACE_BROADCAST_DAYTONA_500_1994-NAS-00133_S001                                                                   048.0 01:19:41:22 
*FROM CLIP NAME:  ERN_F7201_NSCR_1994-02-20_RACE BROADCAST DAYTONA 500_1994-NAS-00133_S001.NEW.01 
*SOURCE FILE: ERN_F7201_NSCR_1994-02-20_RACE BROADCAST DAYTONA 500_1994-NAS-00133_S001
002312  ERN_F0800_NSCR_1987-05-17_RACE_DESR_WINNER_BILL_ELLIOTT_CHARLOTTE_-_THE_WINSTON_87-EV-0287                                        A20   C        00:50:26:11 00:50:28:12 00:52:29:13 00:52:31:13 
M2      ERN_F0800_NSCR_1987-05-17_RACE_DESR_WINNER_BILL_ELLIOTT_CHARLOTTE_-_THE_WINSTON_87-EV-0287                                                 030.0 00:50:26:11 
*FROM CLIP NAME:  ERN_F0800_NSCR_1987-05-17_RACE DESR WINNER BILL ELLIOTT CHARLOTTE - THE WINSTON_87-EV-0287.NEW.01 
*SOURCE FILE: ERN_F0800_NSCR_1987-05-17_RACE DESR WINNER BILL ELLIOTT CHARLOTTE - THE WINSTON_87-EV-0287
002313  ERN_F7201_NSCR_1994-02-20_RACE_BROADCAST_DAYTONA_500_1994-NAS-00133_S001                                                          V     C        01:21:42:09 01:21:46:01 00:52:31:00 00:52:34:17 
M2      ERN_F7201_NSCR_1994-02-20_RACE_BROADCAST_DAYTONA_500_1994-NAS-00133_S001                                                                   060.0 01:21:42:09 
*FROM CLIP NAME:  ERN_F7201_NSCR_1994-02-20_RACE BROADCAST DAYTONA 500_1994-NAS-00133_S001.NEW.01 
*SOURCE FILE: ERN_F7201_NSCR_1994-02-20_RACE BROADCAST DAYTONA 500_1994-NAS-00133_S001
002314  ERN_F0800_NSCR_1987-05-17_RACE_DESR_WINNER_BILL_ELLIOTT_CHARLOTTE_-_THE_WINSTON_87-EV-0287                                        A20   C        00:50:28:11 00:50:29:19 00:52:31:13 00:52:32:19 
M2      ERN_F0800_NSCR_1987-05-17_RACE_DESR_WINNER_BILL_ELLIOTT_CHARLOTTE_-_THE_WINSTON_87-EV-0287                                                 030.0 00:50:28:11 
*FROM CLIP NAME:  ERN_F0800_NSCR_1987-05-17_RACE DESR WINNER BILL ELLIOTT CHARLOTTE - THE WINSTON_87-EV-0287.NEW.01 
*SOURCE FILE: ERN_F0800_NSCR_1987-05-17_RACE DESR WINNER BILL ELLIOTT CHARLOTTE - THE WINSTON_87-EV-0287
002315  ERN_F9319_NSCR_1994-05-01_RACE_ESPN_BROADCAST_PART_4_OF_4_TALLADEGA-WINSTON_SELECT_500-DESR_WINNER_VICTORY_LANE_TAYLOR_FIXED_94-E A18   C        00:06:53:24 00:06:55:10 00:52:33:16 00:52:35:04 
M2      ERN_F9319_NSCR_1994-05-01_RACE_ESPN_BROADCAST_PART_4_OF_4_TALLADEGA-WINSTON_SELECT_500-DESR_WINNER_VICTORY_LANE_TAYLOR_FIXED_94-E          030.0 00:06:53:24 
*FROM CLIP NAME:  ERN_F6715_NSCR_1994-05-01_RACE ESPN BROADCAST PART 4 OF 4 TALLADEGA-WINSTON SELECT 500-DESR WINNER VICTORY LANE TAYLOR_94-EV-0233.NEW.01 
*SOURCE FILE: ERN_F9319_NSCR_1994-05-01_RACE ESPN BROADCAST PART 4 OF 4 TALLADEGA-WINSTON SELECT 500-DESR WINNER VICTORY LANE TAYLOR_FIXED_94-EV-0233
002316  ERN_F0735_NSCR_1994-02-20_NASCAR_CUP_SERIES_-_DAYTONA_500_94-EV-0056                                                              V     C        00:04:16:08 00:04:23:15 00:52:34:17 00:52:41:22 
M2      ERN_F0735_NSCR_1994-02-20_NASCAR_CUP_SERIES_-_DAYTONA_500_94-EV-0056                                                                       030.0 00:04:16:08 
*FROM CLIP NAME:  ERN_F0735_NSCR_1994-02-20_NASCAR CUP SERIES - DAYTONA 500_94-EV-0056.NEW.01 
*SOURCE FILE: ERN_F0735_NSCR_1994-02-20_NASCAR CUP SERIES - DAYTONA 500_94-EV-0056
002317  ERN_F9319_NSCR_1994-05-01_RACE_ESPN_BROADCAST_PART_4_OF_4_TALLADEGA-WINSTON_SELECT_500-DESR_WINNER_VICTORY_LANE_TAYLOR_FIXED_94-E A18   C        00:06:55:09 00:06:56:25 00:52:35:04 00:52:36:16 
M2      ERN_F9319_NSCR_1994-05-01_RACE_ESPN_BROADCAST_PART_4_OF_4_TALLADEGA-WINSTON_SELECT_500-DESR_WINNER_VICTORY_LANE_TAYLOR_FIXED_94-E          030.0 00:06:55:09 
*FROM CLIP NAME:  ERN_F6715_NSCR_1994-05-01_RACE ESPN BROADCAST PART 4 OF 4 TALLADEGA-WINSTON SELECT 500-DESR WINNER VICTORY LANE TAYLOR_94-EV-0233.NEW.01 
*TO CLIP NAME:  ERN_F6715_NSCR_1994-05-01_RACE ESPN BROADCAST PART 4 OF 4 TALLADEGA-WINSTON SELECT 500-DESR WINNER VICTORY LANE TAYLOR_94-EV-0233.NEW.01 
*SOURCE FILE: ERN_F9319_NSCR_1994-05-01_RACE ESPN BROADCAST PART 4 OF 4 TALLADEGA-WINSTON SELECT 500-DESR WINNER VICTORY LANE TAYLOR_FIXED_94-EV-0233
002318  ERN_F9319_NSCR_1994-05-01_RACE_ESPN_BROADCAST_PART_4_OF_4_TALLADEGA-WINSTON_SELECT_500-DESR_WINNER_VICTORY_LANE_TAYLOR_FIXED_94-E A18   C        00:06:56:24 00:07:01:04 00:52:36:16 00:52:40:22 
M2      ERN_F9319_NSCR_1994-05-01_RACE_ESPN_BROADCAST_PART_4_OF_4_TALLADEGA-WINSTON_SELECT_500-DESR_WINNER_VICTORY_LANE_TAYLOR_FIXED_94-E          030.0 00:06:56:24 
*FROM CLIP NAME:  ERN_F6715_NSCR_1994-05-01_RACE ESPN BROADCAST PART 4 OF 4 TALLADEGA-WINSTON SELECT 500-DESR WINNER VICTORY LANE TAYLOR_94-EV-0233.NEW.01 
*SOURCE FILE: ERN_F9319_NSCR_1994-05-01_RACE ESPN BROADCAST PART 4 OF 4 TALLADEGA-WINSTON SELECT 500-DESR WINNER VICTORY LANE TAYLOR_FIXED_94-EV-0233
002319  ERN_F0768_NSCR_1981-08-02_RACE_DESR_NASCAR_CUP_SERIES_-_TALLADEGA_(RACE_BEGINNING)_ISC-01270                                      A22   C        01:02:22:06 01:02:23:07 00:52:41:00 00:52:42:00 
M2      ERN_F0768_NSCR_1981-08-02_RACE_DESR_NASCAR_CUP_SERIES_-_TALLADEGA_(RACE_BEGINNING)_ISC-01270                                               030.0 01:02:22:06 
*FROM CLIP NAME:  ERN_F0768_NSCR_1981-08-02_RACE DESR NASCAR CUP SERIES - TALLADEGA (RACE BEGINNING)_ISC-01270.NEW.01 
*SOURCE FILE: ERN_F0768_NSCR_1981-08-02_RACE DESR NASCAR CUP SERIES - TALLADEGA (RACE BEGINNING)_ISC-01270
002320  ERN_F7201_NSCR_1994-02-20_RACE_BROADCAST_DAYTONA_500_1994-NAS-00133_S001                                                          V     C        01:22:48:12 01:22:54:24 00:52:41:22 00:52:48:07 
M2      ERN_F7201_NSCR_1994-02-20_RACE_BROADCAST_DAYTONA_500_1994-NAS-00133_S001                                                                   060.0 01:22:48:12 
*FROM CLIP NAME:  ERN_F7201_NSCR_1994-02-20_RACE BROADCAST DAYTONA 500_1994-NAS-00133_S001.NEW.01 
*SOURCE FILE: ERN_F7201_NSCR_1994-02-20_RACE BROADCAST DAYTONA 500_1994-NAS-00133_S001
002321  ERN_F0768_NSCR_1981-08-02_RACE_DESR_NASCAR_CUP_SERIES_-_TALLADEGA_(RACE_BEGINNING)_ISC-01270                                      A22   C        01:02:23:06 01:02:26:16 00:52:42:00 00:52:45:07 
M2      ERN_F0768_NSCR_1981-08-02_RACE_DESR_NASCAR_CUP_SERIES_-_TALLADEGA_(RACE_BEGINNING)_ISC-01270                                               030.0 01:02:23:06 
*FROM CLIP NAME:  ERN_F0768_NSCR_1981-08-02_RACE DESR NASCAR CUP SERIES - TALLADEGA (RACE BEGINNING)_ISC-01270.NEW.01 
*SOURCE FILE: ERN_F0768_NSCR_1981-08-02_RACE DESR NASCAR CUP SERIES - TALLADEGA (RACE BEGINNING)_ISC-01270
002322  ERN_F0768_NSCR_1981-08-02_RACE_DESR_NASCAR_CUP_SERIES_-_TALLADEGA_(RACE_BEGINNING)_ISC-01270                                      A22   C        01:02:26:15 01:02:28:01 00:52:45:07 00:52:46:19 
M2      ERN_F0768_NSCR_1981-08-02_RACE_DESR_NASCAR_CUP_SERIES_-_TALLADEGA_(RACE_BEGINNING)_ISC-01270                                               030.0 01:02:26:15 
*FROM CLIP NAME:  ERN_F0768_NSCR_1981-08-02_RACE DESR NASCAR CUP SERIES - TALLADEGA (RACE BEGINNING)_ISC-01270.NEW.01 
*TO CLIP NAME:  ERN_F0768_NSCR_1981-08-02_RACE DESR NASCAR CUP SERIES - TALLADEGA (RACE BEGINNING)_ISC-01270.NEW.01 
*SOURCE FILE: ERN_F0768_NSCR_1981-08-02_RACE DESR NASCAR CUP SERIES - TALLADEGA (RACE BEGINNING)_ISC-01270
002323  ERN_F0768_NSCR_1981-08-02_RACE_DESR_NASCAR_CUP_SERIES_-_TALLADEGA_(RACE_BEGINNING)_ISC-01270                                      A22   C        01:02:28:00 01:02:29:00 00:52:46:19 00:52:47:18 
M2      ERN_F0768_NSCR_1981-08-02_RACE_DESR_NASCAR_CUP_SERIES_-_TALLADEGA_(RACE_BEGINNING)_ISC-01270                                               030.0 01:02:28:00 
*FROM CLIP NAME:  ERN_F0768_NSCR_1981-08-02_RACE DESR NASCAR CUP SERIES - TALLADEGA (RACE BEGINNING)_ISC-01270.NEW.01 
*SOURCE FILE: ERN_F0768_NSCR_1981-08-02_RACE DESR NASCAR CUP SERIES - TALLADEGA (RACE BEGINNING)_ISC-01270
002324  ERN_F6585_NSCR_1994-04-10_RACE_B-ROLL_FOOD_CITY_500_BRISTOL_MOTOR_SPEEDWAY_DESR_WIN_94-EV-0199                                    A24   C        00:29:13:02 00:29:16:00 00:52:46:21 00:52:49:19 
M2      ERN_F6585_NSCR_1994-04-10_RACE_B-ROLL_FOOD_CITY_500_BRISTOL_MOTOR_SPEEDWAY_DESR_WIN_94-EV-0199                                             030.0 00:29:13:02 
*FROM CLIP NAME:  ERN_F6585_NSCR_1994-04-10_RACE B-ROLL FOOD CITY 500 BRISTOL MOTOR SPEEDWAY DESR WIN_94-EV-0199.NEW.01 
*SOURCE FILE: ERN_F6585_NSCR_1994-04-10_RACE B-ROLL FOOD CITY 500 BRISTOL MOTOR SPEEDWAY DESR WIN_94-EV-0199
002325  ERN_F6585_NSCR_1994-04-10_RACE_B-ROLL_FOOD_CITY_500_BRISTOL_MOTOR_SPEEDWAY_DESR_WIN_94-EV-0199                                    A20   C        00:23:27:19 00:23:28:29 00:52:47:15 00:52:48:23 
M2      ERN_F6585_NSCR_1994-04-10_RACE_B-ROLL_FOOD_CITY_500_BRISTOL_MOTOR_SPEEDWAY_DESR_WIN_94-EV-0199                                             030.0 00:23:27:19 
*FROM CLIP NAME:  ERN_F6585_NSCR_1994-04-10_RACE B-ROLL FOOD CITY 500 BRISTOL MOTOR SPEEDWAY DESR WIN_94-EV-0199.NEW.01 
*SOURCE FILE: ERN_F6585_NSCR_1994-04-10_RACE B-ROLL FOOD CITY 500 BRISTOL MOTOR SPEEDWAY DESR WIN_94-EV-0199
002326  ERN_F6585_NSCR_1994-04-10_RACE_B-ROLL_FOOD_CITY_500_BRISTOL_MOTOR_SPEEDWAY_DESR_WIN_94-EV-0199                                    V     C        00:17:59:05 00:18:02:28 00:52:48:07 00:52:51:23 
M2      ERN_F6585_NSCR_1994-04-10_RACE_B-ROLL_FOOD_CITY_500_BRISTOL_MOTOR_SPEEDWAY_DESR_WIN_94-EV-0199                                             030.0 00:17:59:05 
*FROM CLIP NAME:  ERN_F6585_NSCR_1994-04-10_RACE B-ROLL FOOD CITY 500 BRISTOL MOTOR SPEEDWAY DESR WIN_94-EV-0199.NEW.01 
*SOURCE FILE: ERN_F6585_NSCR_1994-04-10_RACE B-ROLL FOOD CITY 500 BRISTOL MOTOR SPEEDWAY DESR WIN_94-EV-0199
002327  ERN_F6585_NSCR_1994-04-10_RACE_B-ROLL_FOOD_CITY_500_BRISTOL_MOTOR_SPEEDWAY_DESR_WIN_94-EV-0199                                    A20   C        00:23:28:29 00:23:31:14 00:52:48:23 00:52:51:11 
M2      ERN_F6585_NSCR_1994-04-10_RACE_B-ROLL_FOOD_CITY_500_BRISTOL_MOTOR_SPEEDWAY_DESR_WIN_94-EV-0199                                             030.0 00:23:28:29 
*FROM CLIP NAME:  ERN_F6585_NSCR_1994-04-10_RACE B-ROLL FOOD CITY 500 BRISTOL MOTOR SPEEDWAY DESR WIN_94-EV-0199.NEW.01 
*SOURCE FILE: ERN_F6585_NSCR_1994-04-10_RACE B-ROLL FOOD CITY 500 BRISTOL MOTOR SPEEDWAY DESR WIN_94-EV-0199
002328  ERN_F6585_NSCR_1994-04-10_RACE_B-ROLL_FOOD_CITY_500_BRISTOL_MOTOR_SPEEDWAY_DESR_WIN_94-EV-0199                                    A24   C        00:29:15:29 00:29:20:20 00:52:49:19 00:52:54:11 
M2      ERN_F6585_NSCR_1994-04-10_RACE_B-ROLL_FOOD_CITY_500_BRISTOL_MOTOR_SPEEDWAY_DESR_WIN_94-EV-0199                                             030.0 00:29:15:29 
*FROM CLIP NAME:  ERN_F6585_NSCR_1994-04-10_RACE B-ROLL FOOD CITY 500 BRISTOL MOTOR SPEEDWAY DESR WIN_94-EV-0199.NEW.01 
*SOURCE FILE: ERN_F6585_NSCR_1994-04-10_RACE B-ROLL FOOD CITY 500 BRISTOL MOTOR SPEEDWAY DESR WIN_94-EV-0199
002329  ERN_F6585_NSCR_1994-04-10_RACE_B-ROLL_FOOD_CITY_500_BRISTOL_MOTOR_SPEEDWAY_DESR_WIN_94-EV-0199                                    V     C        00:29:15:01 00:29:18:05 00:52:51:23 00:52:55:02 
M2      ERN_F6585_NSCR_1994-04-10_RACE_B-ROLL_FOOD_CITY_500_BRISTOL_MOTOR_SPEEDWAY_DESR_WIN_94-EV-0199                                             030.0 00:29:15:01 
*FROM CLIP NAME:  ERN_F6585_NSCR_1994-04-10_RACE B-ROLL FOOD CITY 500 BRISTOL MOTOR SPEEDWAY DESR WIN_94-EV-0199.NEW.01 
*SOURCE FILE: ERN_F6585_NSCR_1994-04-10_RACE B-ROLL FOOD CITY 500 BRISTOL MOTOR SPEEDWAY DESR WIN_94-EV-0199
002330  ERN_F6585_NSCR_1994-04-10_RACE_B-ROLL_FOOD_CITY_500_BRISTOL_MOTOR_SPEEDWAY_DESR_WIN_94-EV-0199                                    A18   C        00:29:15:06 00:29:15:14 00:52:52:13 00:52:52:19 
M2      ERN_F6585_NSCR_1994-04-10_RACE_B-ROLL_FOOD_CITY_500_BRISTOL_MOTOR_SPEEDWAY_DESR_WIN_94-EV-0199                                             030.0 00:29:15:06 
*FROM CLIP NAME:  ERN_F6585_NSCR_1994-04-10_RACE B-ROLL FOOD CITY 500 BRISTOL MOTOR SPEEDWAY DESR WIN_94-EV-0199.NEW.01 
*SOURCE FILE: ERN_F6585_NSCR_1994-04-10_RACE B-ROLL FOOD CITY 500 BRISTOL MOTOR SPEEDWAY DESR WIN_94-EV-0199
002331  ERN_F6585_NSCR_1994-04-10_RACE_B-ROLL_FOOD_CITY_500_BRISTOL_MOTOR_SPEEDWAY_DESR_WIN_94-EV-0199                                    A18   C        00:29:15:13 00:29:18:03 00:52:52:19 00:52:55:10 
M2      ERN_F6585_NSCR_1994-04-10_RACE_B-ROLL_FOOD_CITY_500_BRISTOL_MOTOR_SPEEDWAY_DESR_WIN_94-EV-0199                                             030.0 00:29:15:13 
*FROM CLIP NAME:  ERN_F6585_NSCR_1994-04-10_RACE B-ROLL FOOD CITY 500 BRISTOL MOTOR SPEEDWAY DESR WIN_94-EV-0199.NEW.01 
*SOURCE FILE: ERN_F6585_NSCR_1994-04-10_RACE B-ROLL FOOD CITY 500 BRISTOL MOTOR SPEEDWAY DESR WIN_94-EV-0199
002332  ERN_F2466_NSCR_1994_COMPILATION-DESR_VICTORY_LANE_INTV_TERESA_B-ROLL_OF_DESR_TERESA_TAYLOR_94-EV-0020                             A22   C        00:31:24:06 00:31:25:06 00:52:54:14 00:52:55:14 
M2      ERN_F2466_NSCR_1994_COMPILATION-DESR_VICTORY_LANE_INTV_TERESA_B-ROLL_OF_DESR_TERESA_TAYLOR_94-EV-0020                                      030.0 00:31:24:06 
*FROM CLIP NAME:  ERN_F2466_NSCR_1994_COMPILATION-DESR VICTORY LANE INTV TERESA B-ROLL OF DESR TERESA TAYLOR_94-EV-0020.NEW.01 
*SOURCE FILE: ERN_F2466_NSCR_1994_COMPILATION-DESR VICTORY LANE INTV TERESA B-ROLL OF DESR TERESA TAYLOR_94-EV-0020
002333  ERN_F2466_NSCR_1994_COMPILATION-DESR_VICTORY_LANE_INTV_TERESA_B-ROLL_OF_DESR_TERESA_TAYLOR_94-EV-0020                             V     C        00:31:25:17 00:31:29:17 00:52:55:02 00:52:59:06 
M2      ERN_F2466_NSCR_1994_COMPILATION-DESR_VICTORY_LANE_INTV_TERESA_B-ROLL_OF_DESR_TERESA_TAYLOR_94-EV-0020                                      028.6 00:31:25:17 
*FROM CLIP NAME:  ERN_F2466_NSCR_1994_COMPILATION-DESR VICTORY LANE INTV TERESA B-ROLL OF DESR TERESA TAYLOR_94-EV-0020.NEW.01 
*SOURCE FILE: ERN_F2466_NSCR_1994_COMPILATION-DESR VICTORY LANE INTV TERESA B-ROLL OF DESR TERESA TAYLOR_94-EV-0020
002334  ERN_F2466_NSCR_1994_COMPILATION-DESR_VICTORY_LANE_INTV_TERESA_B-ROLL_OF_DESR_TERESA_TAYLOR_94-EV-0020                             A22   C        00:31:25:06 00:31:30:11 00:52:55:14 00:53:00:18 
M2      ERN_F2466_NSCR_1994_COMPILATION-DESR_VICTORY_LANE_INTV_TERESA_B-ROLL_OF_DESR_TERESA_TAYLOR_94-EV-0020                                      030.0 00:31:25:06 
*FROM CLIP NAME:  ERN_F2466_NSCR_1994_COMPILATION-DESR VICTORY LANE INTV TERESA B-ROLL OF DESR TERESA TAYLOR_94-EV-0020.NEW.01 
*SOURCE FILE: ERN_F2466_NSCR_1994_COMPILATION-DESR VICTORY LANE INTV TERESA B-ROLL OF DESR TERESA TAYLOR_94-EV-0020
002335  ERN_F6585_NSCR_1994-04-10_RACE_B-ROLL_FOOD_CITY_500_BRISTOL_MOTOR_SPEEDWAY_DESR_WIN_94-EV-0199                                    A20   C        00:29:08:03 00:29:08:06 00:52:55:22 00:52:56:00 
M2      ERN_F6585_NSCR_1994-04-10_RACE_B-ROLL_FOOD_CITY_500_BRISTOL_MOTOR_SPEEDWAY_DESR_WIN_94-EV-0199                                             030.0 00:29:08:03 
*FROM CLIP NAME:  ERN_F6585_NSCR_1994-04-10_RACE B-ROLL FOOD CITY 500 BRISTOL MOTOR SPEEDWAY DESR WIN_94-EV-0199.NEW.01 
*SOURCE FILE: ERN_F6585_NSCR_1994-04-10_RACE B-ROLL FOOD CITY 500 BRISTOL MOTOR SPEEDWAY DESR WIN_94-EV-0199
002336  ERN_F6585_NSCR_1994-04-10_RACE_B-ROLL_FOOD_CITY_500_BRISTOL_MOTOR_SPEEDWAY_DESR_WIN_94-EV-0199                                    A20   C        00:29:08:06 00:29:09:20 00:52:56:00 00:52:57:11 
M2      ERN_F6585_NSCR_1994-04-10_RACE_B-ROLL_FOOD_CITY_500_BRISTOL_MOTOR_SPEEDWAY_DESR_WIN_94-EV-0199                                             030.0 00:29:08:06 
*FROM CLIP NAME:  ERN_F6585_NSCR_1994-04-10_RACE B-ROLL FOOD CITY 500 BRISTOL MOTOR SPEEDWAY DESR WIN_94-EV-0199.NEW.01 
*SOURCE FILE: ERN_F6585_NSCR_1994-04-10_RACE B-ROLL FOOD CITY 500 BRISTOL MOTOR SPEEDWAY DESR WIN_94-EV-0199
002337  ERN_F6585_NSCR_1994-04-10_RACE_B-ROLL_FOOD_CITY_500_BRISTOL_MOTOR_SPEEDWAY_DESR_WIN_94-EV-0199                                    A20   C        00:29:04:17 00:29:07:28 00:52:57:11 00:53:00:19 
M2      ERN_F6585_NSCR_1994-04-10_RACE_B-ROLL_FOOD_CITY_500_BRISTOL_MOTOR_SPEEDWAY_DESR_WIN_94-EV-0199                                             030.0 00:29:04:17 
*FROM CLIP NAME:  ERN_F6585_NSCR_1994-04-10_RACE B-ROLL FOOD CITY 500 BRISTOL MOTOR SPEEDWAY DESR WIN_94-EV-0199.NEW.01 
*SOURCE FILE: ERN_F6585_NSCR_1994-04-10_RACE B-ROLL FOOD CITY 500 BRISTOL MOTOR SPEEDWAY DESR WIN_94-EV-0199
002338  ERN_F2466_NSCR_1994_COMPILATION-DESR_VICTORY_LANE_INTV_TERESA_B-ROLL_OF_DESR_TERESA_TAYLOR_94-EV-0020                             V     C        00:32:20:03 00:32:25:15 00:52:59:06 00:53:05:23 
M2      ERN_F2466_NSCR_1994_COMPILATION-DESR_VICTORY_LANE_INTV_TERESA_B-ROLL_OF_DESR_TERESA_TAYLOR_94-EV-0020                                      024.0 00:32:20:03 
*FROM CLIP NAME:  ERN_F2466_NSCR_1994_COMPILATION-DESR VICTORY LANE INTV TERESA B-ROLL OF DESR TERESA TAYLOR_94-EV-0020.NEW.01 
*SOURCE FILE: ERN_F2466_NSCR_1994_COMPILATION-DESR VICTORY LANE INTV TERESA B-ROLL OF DESR TERESA TAYLOR_94-EV-0020
002339  ERN_F2466_NSCR_1994_COMPILATION-DESR_VICTORY_LANE_INTV_TERESA_B-ROLL_OF_DESR_TERESA_TAYLOR_94-EV-0020                             A22   C        00:31:30:11 00:31:31:26 00:53:00:18 00:53:02:06 
M2      ERN_F2466_NSCR_1994_COMPILATION-DESR_VICTORY_LANE_INTV_TERESA_B-ROLL_OF_DESR_TERESA_TAYLOR_94-EV-0020                                      030.0 00:31:30:11 
*FROM CLIP NAME:  ERN_F2466_NSCR_1994_COMPILATION-DESR VICTORY LANE INTV TERESA B-ROLL OF DESR TERESA TAYLOR_94-EV-0020.NEW.01 
*TO CLIP NAME:  ERN_F2466_NSCR_1994_COMPILATION-DESR VICTORY LANE INTV TERESA B-ROLL OF DESR TERESA TAYLOR_94-EV-0020.NEW.01 
*SOURCE FILE: ERN_F2466_NSCR_1994_COMPILATION-DESR VICTORY LANE INTV TERESA B-ROLL OF DESR TERESA TAYLOR_94-EV-0020
002340  ERN_F2466_NSCR_1994_COMPILATION-DESR_VICTORY_LANE_INTV_TERESA_B-ROLL_OF_DESR_TERESA_TAYLOR_94-EV-0020                             A22   C        00:31:31:26 00:31:33:28 00:53:02:06 00:53:04:07 
M2      ERN_F2466_NSCR_1994_COMPILATION-DESR_VICTORY_LANE_INTV_TERESA_B-ROLL_OF_DESR_TERESA_TAYLOR_94-EV-0020                                      030.0 00:31:31:26 
*FROM CLIP NAME:  ERN_F2466_NSCR_1994_COMPILATION-DESR VICTORY LANE INTV TERESA B-ROLL OF DESR TERESA TAYLOR_94-EV-0020.NEW.01 
*SOURCE FILE: ERN_F2466_NSCR_1994_COMPILATION-DESR VICTORY LANE INTV TERESA B-ROLL OF DESR TERESA TAYLOR_94-EV-0020
002341  ERN_F9319_NSCR_1994-05-01_RACE_ESPN_BROADCAST_PART_4_OF_4_TALLADEGA-WINSTON_SELECT_500-DESR_WINNER_VICTORY_LANE_TAYLOR_FIXED_94-E A18   C        00:21:15:10 00:21:16:26 00:53:07:13 00:53:09:01 
M2      ERN_F9319_NSCR_1994-05-01_RACE_ESPN_BROADCAST_PART_4_OF_4_TALLADEGA-WINSTON_SELECT_500-DESR_WINNER_VICTORY_LANE_TAYLOR_FIXED_94-E          030.0 00:21:15:10 
*FROM CLIP NAME:  ERN_F6715_NSCR_1994-05-01_RACE ESPN BROADCAST PART 4 OF 4 TALLADEGA-WINSTON SELECT 500-DESR WINNER VICTORY LANE TAYLOR_94-EV-0233.NEW.01 
*SOURCE FILE: ERN_F9319_NSCR_1994-05-01_RACE ESPN BROADCAST PART 4 OF 4 TALLADEGA-WINSTON SELECT 500-DESR WINNER VICTORY LANE TAYLOR_FIXED_94-EV-0233
002342  ERN_F9319_NSCR_1994-05-01_RACE_ESPN_BROADCAST_PART_4_OF_4_TALLADEGA-WINSTON_SELECT_500-DESR_WINNER_VICTORY_LANE_TAYLOR_FIXED_94-E V     C        00:17:29:17 00:17:36:11 00:53:08:02 00:53:14:21 
M2      ERN_F9319_NSCR_1994-05-01_RACE_ESPN_BROADCAST_PART_4_OF_4_TALLADEGA-WINSTON_SELECT_500-DESR_WINNER_VICTORY_LANE_TAYLOR_FIXED_94-E          030.0 00:17:29:17 
*FROM CLIP NAME:  ERN_F6715_NSCR_1994-05-01_RACE ESPN BROADCAST PART 4 OF 4 TALLADEGA-WINSTON SELECT 500-DESR WINNER VICTORY LANE TAYLOR_94-EV-0233.NEW.01 
*SOURCE FILE: ERN_F9319_NSCR_1994-05-01_RACE ESPN BROADCAST PART 4 OF 4 TALLADEGA-WINSTON SELECT 500-DESR WINNER VICTORY LANE TAYLOR_FIXED_94-EV-0233
002343  ERN_F9319_NSCR_1994-05-01_RACE_ESPN_BROADCAST_PART_4_OF_4_TALLADEGA-WINSTON_SELECT_500-DESR_WINNER_VICTORY_LANE_TAYLOR_FIXED_94-E A18   C        00:21:16:25 00:21:17:08 00:53:09:01 00:53:09:11 
M2      ERN_F9319_NSCR_1994-05-01_RACE_ESPN_BROADCAST_PART_4_OF_4_TALLADEGA-WINSTON_SELECT_500-DESR_WINNER_VICTORY_LANE_TAYLOR_FIXED_94-E          030.0 00:21:16:25 
*FROM CLIP NAME:  ERN_F6715_NSCR_1994-05-01_RACE ESPN BROADCAST PART 4 OF 4 TALLADEGA-WINSTON SELECT 500-DESR WINNER VICTORY LANE TAYLOR_94-EV-0233.NEW.01 
*SOURCE FILE: ERN_F9319_NSCR_1994-05-01_RACE ESPN BROADCAST PART 4 OF 4 TALLADEGA-WINSTON SELECT 500-DESR WINNER VICTORY LANE TAYLOR_FIXED_94-EV-0233
002344  ERN_F9319_NSCR_1994-05-01_RACE_ESPN_BROADCAST_PART_4_OF_4_TALLADEGA-WINSTON_SELECT_500-DESR_WINNER_VICTORY_LANE_TAYLOR_FIXED_94-E A18   C        00:21:17:08 00:21:18:23 00:53:09:11 00:53:10:23 
M2      ERN_F9319_NSCR_1994-05-01_RACE_ESPN_BROADCAST_PART_4_OF_4_TALLADEGA-WINSTON_SELECT_500-DESR_WINNER_VICTORY_LANE_TAYLOR_FIXED_94-E          030.0 00:21:17:08 
*FROM CLIP NAME:  ERN_F6715_NSCR_1994-05-01_RACE ESPN BROADCAST PART 4 OF 4 TALLADEGA-WINSTON SELECT 500-DESR WINNER VICTORY LANE TAYLOR_94-EV-0233.NEW.01 
*TO CLIP NAME:  ERN_F6715_NSCR_1994-05-01_RACE ESPN BROADCAST PART 4 OF 4 TALLADEGA-WINSTON SELECT 500-DESR WINNER VICTORY LANE TAYLOR_94-EV-0233.NEW.01 
*SOURCE FILE: ERN_F9319_NSCR_1994-05-01_RACE ESPN BROADCAST PART 4 OF 4 TALLADEGA-WINSTON SELECT 500-DESR WINNER VICTORY LANE TAYLOR_FIXED_94-EV-0233
002345  ERN_F9319_NSCR_1994-05-01_RACE_ESPN_BROADCAST_PART_4_OF_4_TALLADEGA-WINSTON_SELECT_500-DESR_WINNER_VICTORY_LANE_TAYLOR_FIXED_94-E A18   C        00:21:18:23 00:21:22:10 00:53:10:23 00:53:14:12 
M2      ERN_F9319_NSCR_1994-05-01_RACE_ESPN_BROADCAST_PART_4_OF_4_TALLADEGA-WINSTON_SELECT_500-DESR_WINNER_VICTORY_LANE_TAYLOR_FIXED_94-E          030.0 00:21:18:23 
*FROM CLIP NAME:  ERN_F6715_NSCR_1994-05-01_RACE ESPN BROADCAST PART 4 OF 4 TALLADEGA-WINSTON SELECT 500-DESR WINNER VICTORY LANE TAYLOR_94-EV-0233.NEW.01 
*SOURCE FILE: ERN_F9319_NSCR_1994-05-01_RACE ESPN BROADCAST PART 4 OF 4 TALLADEGA-WINSTON SELECT 500-DESR WINNER VICTORY LANE TAYLOR_FIXED_94-EV-0233
002346  ERN_F9319_NSCR_1994-05-01_RACE_ESPN_BROADCAST_PART_4_OF_4_TALLADEGA-WINSTON_SELECT_500-DESR_WINNER_VICTORY_LANE_TAYLOR_FIXED_94-E A18   C        00:21:23:25 00:21:25:26 00:53:14:12 00:53:16:12 
M2      ERN_F9319_NSCR_1994-05-01_RACE_ESPN_BROADCAST_PART_4_OF_4_TALLADEGA-WINSTON_SELECT_500-DESR_WINNER_VICTORY_LANE_TAYLOR_FIXED_94-E          030.0 00:21:23:25 
*FROM CLIP NAME:  ERN_F6715_NSCR_1994-05-01_RACE ESPN BROADCAST PART 4 OF 4 TALLADEGA-WINSTON SELECT 500-DESR WINNER VICTORY LANE TAYLOR_94-EV-0233.NEW.01 
*TO CLIP NAME:  ERN_F6715_NSCR_1994-05-01_RACE ESPN BROADCAST PART 4 OF 4 TALLADEGA-WINSTON SELECT 500-DESR WINNER VICTORY LANE TAYLOR_94-EV-0233.NEW.01 
*SOURCE FILE: ERN_F9319_NSCR_1994-05-01_RACE ESPN BROADCAST PART 4 OF 4 TALLADEGA-WINSTON SELECT 500-DESR WINNER VICTORY LANE TAYLOR_FIXED_94-EV-0233
002347  ERN_F9319_NSCR_1994-05-01_RACE_ESPN_BROADCAST_PART_4_OF_4_TALLADEGA-WINSTON_SELECT_500-DESR_WINNER_VICTORY_LANE_TAYLOR_FIXED_94-E V     C        00:21:47:25 00:21:51:10 00:53:14:21 00:53:18:08 
M2      ERN_F9319_NSCR_1994-05-01_RACE_ESPN_BROADCAST_PART_4_OF_4_TALLADEGA-WINSTON_SELECT_500-DESR_WINNER_VICTORY_LANE_TAYLOR_FIXED_94-E          030.0 00:21:47:25 
*FROM CLIP NAME:  ERN_F6715_NSCR_1994-05-01_RACE ESPN BROADCAST PART 4 OF 4 TALLADEGA-WINSTON SELECT 500-DESR WINNER VICTORY LANE TAYLOR_94-EV-0233.NEW.01 
*SOURCE FILE: ERN_F9319_NSCR_1994-05-01_RACE ESPN BROADCAST PART 4 OF 4 TALLADEGA-WINSTON SELECT 500-DESR WINNER VICTORY LANE TAYLOR_FIXED_94-EV-0233
002348  ERN_F9319_NSCR_1994-05-01_RACE_ESPN_BROADCAST_PART_4_OF_4_TALLADEGA-WINSTON_SELECT_500-DESR_WINNER_VICTORY_LANE_TAYLOR_FIXED_94-E A20   C        00:25:50:18 00:25:50:29 00:53:16:07 00:53:16:15 
M2      ERN_F9319_NSCR_1994-05-01_RACE_ESPN_BROADCAST_PART_4_OF_4_TALLADEGA-WINSTON_SELECT_500-DESR_WINNER_VICTORY_LANE_TAYLOR_FIXED_94-E          030.0 00:25:50:18 
*FROM CLIP NAME:  ERN_F6715_NSCR_1994-05-01_RACE ESPN BROADCAST PART 4 OF 4 TALLADEGA-WINSTON SELECT 500-DESR WINNER VICTORY LANE TAYLOR_94-EV-0233.NEW.01 
*SOURCE FILE: ERN_F9319_NSCR_1994-05-01_RACE ESPN BROADCAST PART 4 OF 4 TALLADEGA-WINSTON SELECT 500-DESR WINNER VICTORY LANE TAYLOR_FIXED_94-EV-0233
002349  ERN_F9319_NSCR_1994-05-01_RACE_ESPN_BROADCAST_PART_4_OF_4_TALLADEGA-WINSTON_SELECT_500-DESR_WINNER_VICTORY_LANE_TAYLOR_FIXED_94-E A18   C        00:21:25:25 00:21:27:15 00:53:16:12 00:53:18:03 
M2      ERN_F9319_NSCR_1994-05-01_RACE_ESPN_BROADCAST_PART_4_OF_4_TALLADEGA-WINSTON_SELECT_500-DESR_WINNER_VICTORY_LANE_TAYLOR_FIXED_94-E          030.0 00:21:25:25 
*FROM CLIP NAME:  ERN_F6715_NSCR_1994-05-01_RACE ESPN BROADCAST PART 4 OF 4 TALLADEGA-WINSTON SELECT 500-DESR WINNER VICTORY LANE TAYLOR_94-EV-0233.NEW.01 
*SOURCE FILE: ERN_F9319_NSCR_1994-05-01_RACE ESPN BROADCAST PART 4 OF 4 TALLADEGA-WINSTON SELECT 500-DESR WINNER VICTORY LANE TAYLOR_FIXED_94-EV-0233
002350  ERN_F9319_NSCR_1994-05-01_RACE_ESPN_BROADCAST_PART_4_OF_4_TALLADEGA-WINSTON_SELECT_500-DESR_WINNER_VICTORY_LANE_TAYLOR_FIXED_94-E A20   C        00:25:50:28 00:25:51:20 00:53:16:15 00:53:17:08 
M2      ERN_F9319_NSCR_1994-05-01_RACE_ESPN_BROADCAST_PART_4_OF_4_TALLADEGA-WINSTON_SELECT_500-DESR_WINNER_VICTORY_LANE_TAYLOR_FIXED_94-E          030.0 00:25:50:28 
*FROM CLIP NAME:  ERN_F6715_NSCR_1994-05-01_RACE ESPN BROADCAST PART 4 OF 4 TALLADEGA-WINSTON SELECT 500-DESR WINNER VICTORY LANE TAYLOR_94-EV-0233.NEW.01 
*SOURCE FILE: ERN_F9319_NSCR_1994-05-01_RACE ESPN BROADCAST PART 4 OF 4 TALLADEGA-WINSTON SELECT 500-DESR WINNER VICTORY LANE TAYLOR_FIXED_94-EV-0233
002351  ERN_F9319_NSCR_1994-05-01_RACE_ESPN_BROADCAST_PART_4_OF_4_TALLADEGA-WINSTON_SELECT_500-DESR_WINNER_VICTORY_LANE_TAYLOR_FIXED_94-E A20   C        00:25:52:14 00:25:57:23 00:53:17:08 00:53:22:14 
M2      ERN_F9319_NSCR_1994-05-01_RACE_ESPN_BROADCAST_PART_4_OF_4_TALLADEGA-WINSTON_SELECT_500-DESR_WINNER_VICTORY_LANE_TAYLOR_FIXED_94-E          030.0 00:25:52:14 
*FROM CLIP NAME:  ERN_F6715_NSCR_1994-05-01_RACE ESPN BROADCAST PART 4 OF 4 TALLADEGA-WINSTON SELECT 500-DESR WINNER VICTORY LANE TAYLOR_94-EV-0233.NEW.01 
*SOURCE FILE: ERN_F9319_NSCR_1994-05-01_RACE ESPN BROADCAST PART 4 OF 4 TALLADEGA-WINSTON SELECT 500-DESR WINNER VICTORY LANE TAYLOR_FIXED_94-EV-0233
002352  ERN_F9319_NSCR_1994-05-01_RACE_ESPN_BROADCAST_PART_4_OF_4_TALLADEGA-WINSTON_SELECT_500-DESR_WINNER_VICTORY_LANE_TAYLOR_FIXED_94-E A22   C        00:23:48:12 00:23:49:27 00:53:17:20 00:53:19:08 
M2      ERN_F9319_NSCR_1994-05-01_RACE_ESPN_BROADCAST_PART_4_OF_4_TALLADEGA-WINSTON_SELECT_500-DESR_WINNER_VICTORY_LANE_TAYLOR_FIXED_94-E          030.0 00:23:48:12 
*FROM CLIP NAME:  ERN_F6715_NSCR_1994-05-01_RACE ESPN BROADCAST PART 4 OF 4 TALLADEGA-WINSTON SELECT 500-DESR WINNER VICTORY LANE TAYLOR_94-EV-0233.NEW.01 
*SOURCE FILE: ERN_F9319_NSCR_1994-05-01_RACE ESPN BROADCAST PART 4 OF 4 TALLADEGA-WINSTON SELECT 500-DESR WINNER VICTORY LANE TAYLOR_FIXED_94-EV-0233
002353  ERN_F9319_NSCR_1994-05-01_RACE_ESPN_BROADCAST_PART_4_OF_4_TALLADEGA-WINSTON_SELECT_500-DESR_WINNER_VICTORY_LANE_TAYLOR_FIXED_94-E V     C        00:23:47:13 00:23:52:11 00:53:18:08 00:53:23:06 
M2      ERN_F9319_NSCR_1994-05-01_RACE_ESPN_BROADCAST_PART_4_OF_4_TALLADEGA-WINSTON_SELECT_500-DESR_WINNER_VICTORY_LANE_TAYLOR_FIXED_94-E          030.0 00:23:47:13 
*FROM CLIP NAME:  ERN_F6715_NSCR_1994-05-01_RACE ESPN BROADCAST PART 4 OF 4 TALLADEGA-WINSTON SELECT 500-DESR WINNER VICTORY LANE TAYLOR_94-EV-0233.NEW.01 
*SOURCE FILE: ERN_F9319_NSCR_1994-05-01_RACE ESPN BROADCAST PART 4 OF 4 TALLADEGA-WINSTON SELECT 500-DESR WINNER VICTORY LANE TAYLOR_FIXED_94-EV-0233
002354  ERN_F9319_NSCR_1994-05-01_RACE_ESPN_BROADCAST_PART_4_OF_4_TALLADEGA-WINSTON_SELECT_500-DESR_WINNER_VICTORY_LANE_TAYLOR_FIXED_94-E A22   C        00:23:49:27 00:23:51:14 00:53:19:08 00:53:20:21 
M2      ERN_F9319_NSCR_1994-05-01_RACE_ESPN_BROADCAST_PART_4_OF_4_TALLADEGA-WINSTON_SELECT_500-DESR_WINNER_VICTORY_LANE_TAYLOR_FIXED_94-E          030.0 00:23:49:27 
*FROM CLIP NAME:  ERN_F6715_NSCR_1994-05-01_RACE ESPN BROADCAST PART 4 OF 4 TALLADEGA-WINSTON SELECT 500-DESR WINNER VICTORY LANE TAYLOR_94-EV-0233.NEW.01 
*SOURCE FILE: ERN_F9319_NSCR_1994-05-01_RACE ESPN BROADCAST PART 4 OF 4 TALLADEGA-WINSTON SELECT 500-DESR WINNER VICTORY LANE TAYLOR_FIXED_94-EV-0233
002355  ERN_F0673_NSCR_1994-10-23_DESR_RACE_RUSTY_WALLACENASCAR_CUP_SERIES_-_ROCKINGHAM_94-EV-0622                                        A24   C        17:50:48:27 17:50:50:27 00:53:22:00 00:53:24:00 
M2      ERN_F0673_NSCR_1994-10-23_DESR_RACE_RUSTY_WALLACENASCAR_CUP_SERIES_-_ROCKINGHAM_94-EV-0622                                                 030.0 17:50:48:27 
*FROM CLIP NAME:  ERN_F0673_NSCR_1994-10-23_DESR RACE RUSTY WALLACENASCAR CUP SERIES - ROCKINGHAM_94-EV-0622.NEW.01 
*SOURCE FILE: ERN_F0673_NSCR_1994-10-23_DESR RACE RUSTY WALLACENASCAR CUP SERIES - ROCKINGHAM_94-EV-0622
002356  ERN_F0676_NSCR_1994-10-23_DESR_RACE_RUSTY_WALLACE_NASCAR_CUP_SERIES_-_ROCKINGHAM_94-EV-0625                                       V     C        18:59:56:23 19:00:02:05 00:53:23:06 00:53:29:23 
M2      ERN_F0676_NSCR_1994-10-23_DESR_RACE_RUSTY_WALLACE_NASCAR_CUP_SERIES_-_ROCKINGHAM_94-EV-0625                                                024.0 18:59:56:23 
*FROM CLIP NAME:  ERN_F0676_NSCR_1994-10-23_DESR RACE RUSTY WALLACE NASCAR CUP SERIES - ROCKINGHAM_94-EV-0625.NEW.01 
*SOURCE FILE: ERN_F0676_NSCR_1994-10-23_DESR RACE RUSTY WALLACE NASCAR CUP SERIES - ROCKINGHAM_94-EV-0625
002357  ERN_F0673_NSCR_1994-10-23_DESR_RACE_RUSTY_WALLACENASCAR_CUP_SERIES_-_ROCKINGHAM_94-EV-0622                                        A24   C        17:50:50:27 17:50:53:11 00:53:24:00 00:53:26:11 
M2      ERN_F0673_NSCR_1994-10-23_DESR_RACE_RUSTY_WALLACENASCAR_CUP_SERIES_-_ROCKINGHAM_94-EV-0622                                                 030.0 17:50:50:27 
*FROM CLIP NAME:  ERN_F0673_NSCR_1994-10-23_DESR RACE RUSTY WALLACENASCAR CUP SERIES - ROCKINGHAM_94-EV-0622.NEW.01 
*SOURCE FILE: ERN_F0673_NSCR_1994-10-23_DESR RACE RUSTY WALLACENASCAR CUP SERIES - ROCKINGHAM_94-EV-0622
002358  ERN_F0673_NSCR_1994-10-23_DESR_RACE_RUSTY_WALLACENASCAR_CUP_SERIES_-_ROCKINGHAM_94-EV-0622                                        A24   C        17:50:53:10 17:50:55:11 00:53:26:11 00:53:28:11 
M2      ERN_F0673_NSCR_1994-10-23_DESR_RACE_RUSTY_WALLACENASCAR_CUP_SERIES_-_ROCKINGHAM_94-EV-0622                                                 030.0 17:50:53:10 
*FROM CLIP NAME:  ERN_F0673_NSCR_1994-10-23_DESR RACE RUSTY WALLACENASCAR CUP SERIES - ROCKINGHAM_94-EV-0622.NEW.01 
*TO CLIP NAME:  ERN_F0673_NSCR_1994-10-23_DESR RACE RUSTY WALLACENASCAR CUP SERIES - ROCKINGHAM_94-EV-0622.NEW.01 
*SOURCE FILE: ERN_F0673_NSCR_1994-10-23_DESR RACE RUSTY WALLACENASCAR CUP SERIES - ROCKINGHAM_94-EV-0622
002359  103_KIDS_FIRST_BEAT_AND_94_CHAMPIONSHIP_241112_AK.SU_VOCALS_SPLIT_BY_LALALAI.WAV                                                  A18   C        01:00:00:00 01:00:01:13 00:53:27:10 00:53:28:23 
*FROM CLIP NAME:  ERN_F0673_NSCR_1994-10-23_VOCALS_SPLIT_BY_LALALAI.WAV 
*SOURCE FILE: 103_KIDS FIRST BEAT AND 94 CHAMPIONSHIP_241112_AK.SU_VOCALS_SPLIT_BY_LALALAI.WAV
002360  ERN_F0673_NSCR_1994-10-23_DESR_RACE_RUSTY_WALLACENASCAR_CUP_SERIES_-_ROCKINGHAM_94-EV-0622                                        A24   C        17:50:55:10 17:50:56:06 00:53:28:11 00:53:29:07 
M2      ERN_F0673_NSCR_1994-10-23_DESR_RACE_RUSTY_WALLACENASCAR_CUP_SERIES_-_ROCKINGHAM_94-EV-0622                                                 030.0 17:50:55:10 
*FROM CLIP NAME:  ERN_F0673_NSCR_1994-10-23_DESR RACE RUSTY WALLACENASCAR CUP SERIES - ROCKINGHAM_94-EV-0622.NEW.01 
*SOURCE FILE: ERN_F0673_NSCR_1994-10-23_DESR RACE RUSTY WALLACENASCAR CUP SERIES - ROCKINGHAM_94-EV-0622
002361  103_KIDS_FIRST_BEAT_AND_94_CHAMPIONSHIP_241112_AK.SU_VOCALS_SPLIT_BY_LALALAI.WAV                                                  A18   C        01:00:01:20 01:00:03:09 00:53:28:23 00:53:30:12 
*FROM CLIP NAME:  ERN_F0673_NSCR_1994-10-23_VOCALS_SPLIT_BY_LALALAI.WAV 
*SOURCE FILE: 103_KIDS FIRST BEAT AND 94 CHAMPIONSHIP_241112_AK.SU_VOCALS_SPLIT_BY_LALALAI.WAV
002362  ERN_F0674_NSCR_1994-10-23_DESR_RACE_RUSTY_WALLACE_NASCAR_CUP_SERIES_-_ROCKINGHAM_94-EV-0623                                       A24   C        09:32:53:13 09:32:54:13 00:53:29:07 00:53:30:07 
M2      ERN_F0674_NSCR_1994-10-23_DESR_RACE_RUSTY_WALLACE_NASCAR_CUP_SERIES_-_ROCKINGHAM_94-EV-0623                                                030.0 09:32:53:13 
*FROM CLIP NAME:  ERN_F0674_NSCR_1994-10-23_DESR RACE RUSTY WALLACE NASCAR CUP SERIES - ROCKINGHAM_94-EV-0623.NEW.01 
*TO CLIP NAME:  ERN_F0673_NSCR_1994-10-23_DESR RACE RUSTY WALLACENASCAR CUP SERIES - ROCKINGHAM_94-EV-0622.NEW.01 
*SOURCE FILE: ERN_F0674_NSCR_1994-10-23_DESR RACE RUSTY WALLACE NASCAR CUP SERIES - ROCKINGHAM_94-EV-0623
002363  ERN_F0674_NSCR_1994-10-23_DESR_RACE_RUSTY_WALLACE_NASCAR_CUP_SERIES_-_ROCKINGHAM_94-EV-0623                                       V     C        09:32:54:03 09:32:59:27 00:53:29:23 00:53:35:18 
M2      ERN_F0674_NSCR_1994-10-23_DESR_RACE_RUSTY_WALLACE_NASCAR_CUP_SERIES_-_ROCKINGHAM_94-EV-0623                                                030.0 09:32:54:03 
*FROM CLIP NAME:  ERN_F0674_NSCR_1994-10-23_DESR RACE RUSTY WALLACE NASCAR CUP SERIES - ROCKINGHAM_94-EV-0623.NEW.01 
*SOURCE FILE: ERN_F0674_NSCR_1994-10-23_DESR RACE RUSTY WALLACE NASCAR CUP SERIES - ROCKINGHAM_94-EV-0623
002364  ERN_F0674_NSCR_1994-10-23_DESR_RACE_RUSTY_WALLACE_NASCAR_CUP_SERIES_-_ROCKINGHAM_94-EV-0623                                       A24   C        09:32:54:13 09:33:02:08 00:53:30:07 00:53:38:01 
M2      ERN_F0674_NSCR_1994-10-23_DESR_RACE_RUSTY_WALLACE_NASCAR_CUP_SERIES_-_ROCKINGHAM_94-EV-0623                                                030.0 09:32:54:13 
*FROM CLIP NAME:  ERN_F0674_NSCR_1994-10-23_DESR RACE RUSTY WALLACE NASCAR CUP SERIES - ROCKINGHAM_94-EV-0623.NEW.01 
*SOURCE FILE: ERN_F0674_NSCR_1994-10-23_DESR RACE RUSTY WALLACE NASCAR CUP SERIES - ROCKINGHAM_94-EV-0623
002365  103_KIDS_FIRST_BEAT_AND_94_CHAMPIONSHIP_241112_AK.SU_VOCALS_SPLIT_BY_LALALAI.WAV                                                  A18   C        01:00:04:06 01:00:04:07 00:53:30:12 00:53:30:13 
*FROM CLIP NAME:  ERN_F0673_NSCR_1994-10-23_VOCALS_SPLIT_BY_LALALAI.WAV 
*TO CLIP NAME:  ERN_F0673_NSCR_1994-10-23_VOCALS_SPLIT_BY_LALALAI.WAV 
*SOURCE FILE: 103_KIDS FIRST BEAT AND 94 CHAMPIONSHIP_241112_AK.SU_VOCALS_SPLIT_BY_LALALAI.WAV
002366  103_KIDS_FIRST_BEAT_AND_94_CHAMPIONSHIP_241112_AK.SU_VOCALS_SPLIT_BY_LALALAI.WAV                                                  A18   C        01:00:04:07 01:00:07:23 00:53:30:13 00:53:34:05 
*FROM CLIP NAME:  ERN_F0673_NSCR_1994-10-23_VOCALS_SPLIT_BY_LALALAI.WAV 
*SOURCE FILE: 103_KIDS FIRST BEAT AND 94 CHAMPIONSHIP_241112_AK.SU_VOCALS_SPLIT_BY_LALALAI.WAV
002367  ERN_F0675_NSCR_1994-10-23_DESR_RACE_RUSTY_WALLACE_NASCAR_CUP_SERIES_-_ROCKINGHAM_94-EV-0624                                       A20   C        13:09:00:15 13:09:01:16 00:53:35:00 00:53:36:00 
M2      ERN_F0675_NSCR_1994-10-23_DESR_RACE_RUSTY_WALLACE_NASCAR_CUP_SERIES_-_ROCKINGHAM_94-EV-0624                                                030.0 13:09:00:15 
*FROM CLIP NAME:  ERN_F0675_NSCR_1994-10-23_DESR RACE RUSTY WALLACE NASCAR CUP SERIES - ROCKINGHAM_94-EV-0624.NEW.01 
*SOURCE FILE: ERN_F0675_NSCR_1994-10-23_DESR RACE RUSTY WALLACE NASCAR CUP SERIES - ROCKINGHAM_94-EV-0624
002368  ERN_F0675_NSCR_1994-10-23_DESR_RACE_RUSTY_WALLACE_NASCAR_CUP_SERIES_-_ROCKINGHAM_94-EV-0624                                       A18   C        13:06:23:06 13:06:27:26 00:53:35:05 00:53:39:20 
M2      ERN_F0675_NSCR_1994-10-23_DESR_RACE_RUSTY_WALLACE_NASCAR_CUP_SERIES_-_ROCKINGHAM_94-EV-0624                                                030.0 13:06:23:06 
*FROM CLIP NAME:  ERN_F0675_NSCR_1994-10-23_DESR RACE RUSTY WALLACE NASCAR CUP SERIES - ROCKINGHAM_94-EV-0624.NEW.01 
*SOURCE FILE: ERN_F0675_NSCR_1994-10-23_DESR RACE RUSTY WALLACE NASCAR CUP SERIES - ROCKINGHAM_94-EV-0624
002369  ERN_F0675_NSCR_1994-10-23_DESR_RACE_RUSTY_WALLACE_NASCAR_CUP_SERIES_-_ROCKINGHAM_94-EV-0624                                       V     C        13:09:01:00 13:09:06:19 00:53:35:18 00:53:41:09 
M2      ERN_F0675_NSCR_1994-10-23_DESR_RACE_RUSTY_WALLACE_NASCAR_CUP_SERIES_-_ROCKINGHAM_94-EV-0624                                                030.0 13:09:01:00 
*FROM CLIP NAME:  ERN_F0675_NSCR_1994-10-23_DESR RACE RUSTY WALLACE NASCAR CUP SERIES - ROCKINGHAM_94-EV-0624.NEW.01 
*SOURCE FILE: ERN_F0675_NSCR_1994-10-23_DESR RACE RUSTY WALLACE NASCAR CUP SERIES - ROCKINGHAM_94-EV-0624
002370  ERN_F0675_NSCR_1994-10-23_DESR_RACE_RUSTY_WALLACE_NASCAR_CUP_SERIES_-_ROCKINGHAM_94-EV-0624                                       A20   C        13:09:01:15 13:09:08:08 00:53:36:00 00:53:42:18 
M2      ERN_F0675_NSCR_1994-10-23_DESR_RACE_RUSTY_WALLACE_NASCAR_CUP_SERIES_-_ROCKINGHAM_94-EV-0624                                                030.0 13:09:01:15 
*FROM CLIP NAME:  ERN_F0675_NSCR_1994-10-23_DESR RACE RUSTY WALLACE NASCAR CUP SERIES - ROCKINGHAM_94-EV-0624.NEW.01 
*SOURCE FILE: ERN_F0675_NSCR_1994-10-23_DESR RACE RUSTY WALLACE NASCAR CUP SERIES - ROCKINGHAM_94-EV-0624
002371  ERN_F0653_NSCR_1990-01-04_DESR_RACE_NASCAR_CUP_SERIES_-_DARLINGTON_90-EV-0664                                                     A22   C        01:08:30:11 01:08:31:12 00:53:40:08 00:53:41:08 
M2      ERN_F0653_NSCR_1990-01-04_DESR_RACE_NASCAR_CUP_SERIES_-_DARLINGTON_90-EV-0664                                                              030.0 01:08:30:11 
*FROM CLIP NAME:  ERN_F0653_NSCR_1990-01-04_DESR RACE NASCAR CUP SERIES - DARLINGTON_90-EV-0664.NEW.01 
*SOURCE FILE: ERN_F0653_NSCR_1990-01-04_DESR RACE NASCAR CUP SERIES - DARLINGTON_90-EV-0664
002372  ERN_F0994_NSCR_1993_RACE_NEIL_BONNETT_BLOWN_ENGINE_DESR_AMASS_POINTS_NEEDED_FOR_CHAMPIONSHIP_93TALLADEGA                          A24   C        00:18:23:05 00:18:24:06 00:53:40:21 00:53:41:21 
M2      ERN_F0994_NSCR_1993_RACE_NEIL_BONNETT_BLOWN_ENGINE_DESR_AMASS_POINTS_NEEDED_FOR_CHAMPIONSHIP_93TALLADEGA                                   030.0 00:18:23:05 
*FROM CLIP NAME:  ERN_F0994_NSCR_1993_RACE NEIL BONNETT BLOWN ENGINE DESR AMASS POINTS NEEDED FOR CHAMPIONSHIP_93TALLADEGA.NEW.01 
*SOURCE FILE: ERN_F0994_NSCR_1993_RACE NEIL BONNETT BLOWN ENGINE DESR AMASS POINTS NEEDED FOR CHAMPIONSHIP_93TALLADEGA
002373  ERN_F0653_NSCR_1990-01-04_DESR_RACE_NASCAR_CUP_SERIES_-_DARLINGTON_90-EV-0664                                                     A22   C        01:08:31:11 01:08:32:13 00:53:41:08 00:53:42:09 
M2      ERN_F0653_NSCR_1990-01-04_DESR_RACE_NASCAR_CUP_SERIES_-_DARLINGTON_90-EV-0664                                                              030.0 01:08:31:11 
*FROM CLIP NAME:  ERN_F0653_NSCR_1990-01-04_DESR RACE NASCAR CUP SERIES - DARLINGTON_90-EV-0664.NEW.01 
*SOURCE FILE: ERN_F0653_NSCR_1990-01-04_DESR RACE NASCAR CUP SERIES - DARLINGTON_90-EV-0664
002374  ERN_F0675_NSCR_1994-10-23_DESR_RACE_RUSTY_WALLACE_NASCAR_CUP_SERIES_-_ROCKINGHAM_94-EV-0624                                       V     C        13:11:00:19 13:11:11:11 00:53:41:09 00:53:46:18 
M2      ERN_F0675_NSCR_1994-10-23_DESR_RACE_RUSTY_WALLACE_NASCAR_CUP_SERIES_-_ROCKINGHAM_94-EV-0624                                                060.0 13:11:00:19 
*FROM CLIP NAME:  ERN_F0675_NSCR_1994-10-23_DESR RACE RUSTY WALLACE NASCAR CUP SERIES - ROCKINGHAM_94-EV-0624.NEW.01 
*SOURCE FILE: ERN_F0675_NSCR_1994-10-23_DESR RACE RUSTY WALLACE NASCAR CUP SERIES - ROCKINGHAM_94-EV-0624
002375  ERN_F0653_NSCR_1990-01-04_DESR_RACE_NASCAR_CUP_SERIES_-_DARLINGTON_90-EV-0664                                                     A18   C        01:08:29:22 01:08:30:08 00:53:41:10 00:53:41:22 
M2      ERN_F0653_NSCR_1990-01-04_DESR_RACE_NASCAR_CUP_SERIES_-_DARLINGTON_90-EV-0664                                                              030.0 01:08:29:22 
*FROM CLIP NAME:  ERN_F0653_NSCR_1990-01-04_DESR RACE NASCAR CUP SERIES - DARLINGTON_90-EV-0664.NEW.01 
*SOURCE FILE: ERN_F0653_NSCR_1990-01-04_DESR RACE NASCAR CUP SERIES - DARLINGTON_90-EV-0664
002376  ERN_F0994_NSCR_1993_RACE_NEIL_BONNETT_BLOWN_ENGINE_DESR_AMASS_POINTS_NEEDED_FOR_CHAMPIONSHIP_93TALLADEGA                          A24   C        00:18:24:05 00:18:25:09 00:53:41:21 00:53:43:00 
M2      ERN_F0994_NSCR_1993_RACE_NEIL_BONNETT_BLOWN_ENGINE_DESR_AMASS_POINTS_NEEDED_FOR_CHAMPIONSHIP_93TALLADEGA                                   030.0 00:18:24:05 
*FROM CLIP NAME:  ERN_F0994_NSCR_1993_RACE NEIL BONNETT BLOWN ENGINE DESR AMASS POINTS NEEDED FOR CHAMPIONSHIP_93TALLADEGA.NEW.01 
*SOURCE FILE: ERN_F0994_NSCR_1993_RACE NEIL BONNETT BLOWN ENGINE DESR AMASS POINTS NEEDED FOR CHAMPIONSHIP_93TALLADEGA
002377  ERN_F0653_NSCR_1990-01-04_DESR_RACE_NASCAR_CUP_SERIES_-_DARLINGTON_90-EV-0664                                                     A18   C        01:08:30:07 01:08:34:02 00:53:41:22 00:53:45:17 
M2      ERN_F0653_NSCR_1990-01-04_DESR_RACE_NASCAR_CUP_SERIES_-_DARLINGTON_90-EV-0664                                                              030.0 01:08:30:07 
*FROM CLIP NAME:  ERN_F0653_NSCR_1990-01-04_DESR RACE NASCAR CUP SERIES - DARLINGTON_90-EV-0664.NEW.01 
*SOURCE FILE: ERN_F0653_NSCR_1990-01-04_DESR RACE NASCAR CUP SERIES - DARLINGTON_90-EV-0664
002378  ERN_F0675_NSCR_1994-10-23_DESR_RACE_RUSTY_WALLACE_NASCAR_CUP_SERIES_-_ROCKINGHAM_94-EV-0624                                       A20   C        13:11:01:27 13:11:02:00 00:53:43:10 00:53:43:12 
M2      ERN_F0675_NSCR_1994-10-23_DESR_RACE_RUSTY_WALLACE_NASCAR_CUP_SERIES_-_ROCKINGHAM_94-EV-0624                                                030.0 13:11:01:27 
*FROM CLIP NAME:  ERN_F0675_NSCR_1994-10-23_DESR RACE RUSTY WALLACE NASCAR CUP SERIES - ROCKINGHAM_94-EV-0624.NEW.01 
*SOURCE FILE: ERN_F0675_NSCR_1994-10-23_DESR RACE RUSTY WALLACE NASCAR CUP SERIES - ROCKINGHAM_94-EV-0624
002379  ERN_F0675_NSCR_1994-10-23_DESR_RACE_RUSTY_WALLACE_NASCAR_CUP_SERIES_-_ROCKINGHAM_94-EV-0624                                       A20   C        13:11:01:29 13:11:03:21 00:53:43:12 00:53:45:05 
M2      ERN_F0675_NSCR_1994-10-23_DESR_RACE_RUSTY_WALLACE_NASCAR_CUP_SERIES_-_ROCKINGHAM_94-EV-0624                                                030.0 13:11:01:29 
*FROM CLIP NAME:  ERN_F0675_NSCR_1994-10-23_DESR RACE RUSTY WALLACE NASCAR CUP SERIES - ROCKINGHAM_94-EV-0624.NEW.01 
*SOURCE FILE: ERN_F0675_NSCR_1994-10-23_DESR RACE RUSTY WALLACE NASCAR CUP SERIES - ROCKINGHAM_94-EV-0624
002380  ERN_F0675_NSCR_1994-10-23_DESR_RACE_RUSTY_WALLACE_NASCAR_CUP_SERIES_-_ROCKINGHAM_94-EV-0624                                       A20   C        13:55:22:11 13:55:23:11 00:53:46:16 00:53:47:16 
M2      ERN_F0675_NSCR_1994-10-23_DESR_RACE_RUSTY_WALLACE_NASCAR_CUP_SERIES_-_ROCKINGHAM_94-EV-0624                                                030.0 13:55:22:11 
*FROM CLIP NAME:  ERN_F0675_NSCR_1994-10-23_DESR RACE RUSTY WALLACE NASCAR CUP SERIES - ROCKINGHAM_94-EV-0624.NEW.01 
*SOURCE FILE: ERN_F0675_NSCR_1994-10-23_DESR RACE RUSTY WALLACE NASCAR CUP SERIES - ROCKINGHAM_94-EV-0624
002381  ERN_F0675_NSCR_1994-10-23_DESR_RACE_RUSTY_WALLACE_NASCAR_CUP_SERIES_-_ROCKINGHAM_94-EV-0624                                       V     C        13:55:23:21 13:55:36:03 00:53:46:18 00:53:59:03 
M2      ERN_F0675_NSCR_1994-10-23_DESR_RACE_RUSTY_WALLACE_NASCAR_CUP_SERIES_-_ROCKINGHAM_94-EV-0624                                                030.0 13:55:23:21 
*FROM CLIP NAME:  ERN_F0675_NSCR_1994-10-23_DESR RACE RUSTY WALLACE NASCAR CUP SERIES - ROCKINGHAM_94-EV-0624.NEW.01 
*SOURCE FILE: ERN_F0675_NSCR_1994-10-23_DESR RACE RUSTY WALLACE NASCAR CUP SERIES - ROCKINGHAM_94-EV-0624
002382  ERN_F0675_NSCR_1994-10-23_DESR_RACE_RUSTY_WALLACE_NASCAR_CUP_SERIES_-_ROCKINGHAM_94-EV-0624                                       A24   C        13:55:23:21 13:55:24:21 00:53:47:08 00:53:48:08 
M2      ERN_F0675_NSCR_1994-10-23_DESR_RACE_RUSTY_WALLACE_NASCAR_CUP_SERIES_-_ROCKINGHAM_94-EV-0624                                                030.0 13:55:23:21 
*FROM CLIP NAME:  ERN_F0675_NSCR_1994-10-23_DESR RACE RUSTY WALLACE NASCAR CUP SERIES - ROCKINGHAM_94-EV-0624.NEW.01 
*SOURCE FILE: ERN_F0675_NSCR_1994-10-23_DESR RACE RUSTY WALLACE NASCAR CUP SERIES - ROCKINGHAM_94-EV-0624
002383  ERN_F0675_NSCR_1994-10-23_DESR_RACE_RUSTY_WALLACE_NASCAR_CUP_SERIES_-_ROCKINGHAM_94-EV-0624                                       A22   C        13:55:20:21 13:55:21:01 00:53:47:15 00:53:47:23 
M2      ERN_F0675_NSCR_1994-10-23_DESR_RACE_RUSTY_WALLACE_NASCAR_CUP_SERIES_-_ROCKINGHAM_94-EV-0624                                                030.0 13:55:20:21 
*FROM CLIP NAME:  ERN_F0675_NSCR_1994-10-23_DESR RACE RUSTY WALLACE NASCAR CUP SERIES - ROCKINGHAM_94-EV-0624.NEW.01 
*SOURCE FILE: ERN_F0675_NSCR_1994-10-23_DESR RACE RUSTY WALLACE NASCAR CUP SERIES - ROCKINGHAM_94-EV-0624
002384  ERN_F0675_NSCR_1994-10-23_DESR_RACE_RUSTY_WALLACE_NASCAR_CUP_SERIES_-_ROCKINGHAM_94-EV-0624                                       A20   C        13:55:23:11 13:55:34:25 00:53:47:16 00:53:59:03 
M2      ERN_F0675_NSCR_1994-10-23_DESR_RACE_RUSTY_WALLACE_NASCAR_CUP_SERIES_-_ROCKINGHAM_94-EV-0624                                                030.0 13:55:23:11 
*FROM CLIP NAME:  ERN_F0675_NSCR_1994-10-23_DESR RACE RUSTY WALLACE NASCAR CUP SERIES - ROCKINGHAM_94-EV-0624.NEW.01 
*SOURCE FILE: ERN_F0675_NSCR_1994-10-23_DESR RACE RUSTY WALLACE NASCAR CUP SERIES - ROCKINGHAM_94-EV-0624
002385  ERN_F0675_NSCR_1994-10-23_DESR_RACE_RUSTY_WALLACE_NASCAR_CUP_SERIES_-_ROCKINGHAM_94-EV-0624                                       A22   C        13:55:21:01 13:55:23:25 00:53:47:23 00:53:50:18 
M2      ERN_F0675_NSCR_1994-10-23_DESR_RACE_RUSTY_WALLACE_NASCAR_CUP_SERIES_-_ROCKINGHAM_94-EV-0624                                                030.0 13:55:21:01 
*FROM CLIP NAME:  ERN_F0675_NSCR_1994-10-23_DESR RACE RUSTY WALLACE NASCAR CUP SERIES - ROCKINGHAM_94-EV-0624.NEW.01 
*SOURCE FILE: ERN_F0675_NSCR_1994-10-23_DESR RACE RUSTY WALLACE NASCAR CUP SERIES - ROCKINGHAM_94-EV-0624
002386  ERN_F0675_NSCR_1994-10-23_DESR_RACE_RUSTY_WALLACE_NASCAR_CUP_SERIES_-_ROCKINGHAM_94-EV-0624                                       A24   C        13:55:24:21 13:55:28:10 00:53:48:08 00:53:51:23 
M2      ERN_F0675_NSCR_1994-10-23_DESR_RACE_RUSTY_WALLACE_NASCAR_CUP_SERIES_-_ROCKINGHAM_94-EV-0624                                                030.0 13:55:24:21 
*FROM CLIP NAME:  ERN_F0675_NSCR_1994-10-23_DESR RACE RUSTY WALLACE NASCAR CUP SERIES - ROCKINGHAM_94-EV-0624.NEW.01 
*SOURCE FILE: ERN_F0675_NSCR_1994-10-23_DESR RACE RUSTY WALLACE NASCAR CUP SERIES - ROCKINGHAM_94-EV-0624
002387  ERN_F0675_NSCR_1994-10-23_DESR_RACE_RUSTY_WALLACE_NASCAR_CUP_SERIES_-_ROCKINGHAM_94-EV-0624                                       A24   C        14:08:33:10 14:08:33:18 00:53:51:23 00:53:52:05 
M2      ERN_F0675_NSCR_1994-10-23_DESR_RACE_RUSTY_WALLACE_NASCAR_CUP_SERIES_-_ROCKINGHAM_94-EV-0624                                                030.0 14:08:33:10 
*FROM CLIP NAME:  ERN_F0675_NSCR_1994-10-23_DESR RACE RUSTY WALLACE NASCAR CUP SERIES - ROCKINGHAM_94-EV-0624.NEW.01 
*TO CLIP NAME:  ERN_F0675_NSCR_1994-10-23_DESR RACE RUSTY WALLACE NASCAR CUP SERIES - ROCKINGHAM_94-EV-0624.NEW.01 
*SOURCE FILE: ERN_F0675_NSCR_1994-10-23_DESR RACE RUSTY WALLACE NASCAR CUP SERIES - ROCKINGHAM_94-EV-0624
002388  ERN_F0675_NSCR_1994-10-23_DESR_RACE_RUSTY_WALLACE_NASCAR_CUP_SERIES_-_ROCKINGHAM_94-EV-0624                                       A24   C        14:08:33:17 14:08:35:12 00:53:52:05 00:53:54:00 
M2      ERN_F0675_NSCR_1994-10-23_DESR_RACE_RUSTY_WALLACE_NASCAR_CUP_SERIES_-_ROCKINGHAM_94-EV-0624                                                030.0 14:08:33:17 
*FROM CLIP NAME:  ERN_F0675_NSCR_1994-10-23_DESR RACE RUSTY WALLACE NASCAR CUP SERIES - ROCKINGHAM_94-EV-0624.NEW.01 
*SOURCE FILE: ERN_F0675_NSCR_1994-10-23_DESR RACE RUSTY WALLACE NASCAR CUP SERIES - ROCKINGHAM_94-EV-0624
002389  ERN_F0676_NSCR_1994-10-23_DESR_RACE_RUSTY_WALLACE_NASCAR_CUP_SERIES_-_ROCKINGHAM_94-EV-0625                                       A18   C        18:40:24:11 18:40:24:17 00:53:56:01 00:53:56:05 
M2      ERN_F0676_NSCR_1994-10-23_DESR_RACE_RUSTY_WALLACE_NASCAR_CUP_SERIES_-_ROCKINGHAM_94-EV-0625                                                030.0 18:40:24:11 
*FROM CLIP NAME:  ERN_F0676_NSCR_1994-10-23_DESR RACE RUSTY WALLACE NASCAR CUP SERIES - ROCKINGHAM_94-EV-0625.NEW.01 
*SOURCE FILE: ERN_F0676_NSCR_1994-10-23_DESR RACE RUSTY WALLACE NASCAR CUP SERIES - ROCKINGHAM_94-EV-0625
002390  ERN_F0676_NSCR_1994-10-23_DESR_RACE_RUSTY_WALLACE_NASCAR_CUP_SERIES_-_ROCKINGHAM_94-EV-0625                                       A18   C        18:40:24:16 18:40:28:03 00:53:56:05 00:53:59:18 
M2      ERN_F0676_NSCR_1994-10-23_DESR_RACE_RUSTY_WALLACE_NASCAR_CUP_SERIES_-_ROCKINGHAM_94-EV-0625                                                030.0 18:40:24:16 
*FROM CLIP NAME:  ERN_F0676_NSCR_1994-10-23_DESR RACE RUSTY WALLACE NASCAR CUP SERIES - ROCKINGHAM_94-EV-0625.NEW.01 
*SOURCE FILE: ERN_F0676_NSCR_1994-10-23_DESR RACE RUSTY WALLACE NASCAR CUP SERIES - ROCKINGHAM_94-EV-0625
002391  ERN_F0676_NSCR_1994-10-23_DESR_RACE_RUSTY_WALLACE_NASCAR_CUP_SERIES_-_ROCKINGHAM_94-EV-0625                                       A20   C        18:40:23:27 18:40:24:28 00:53:59:03 00:54:00:03 
M2      ERN_F0676_NSCR_1994-10-23_DESR_RACE_RUSTY_WALLACE_NASCAR_CUP_SERIES_-_ROCKINGHAM_94-EV-0625                                                030.0 18:40:23:27 
*FROM CLIP NAME:  ERN_F0676_NSCR_1994-10-23_DESR RACE RUSTY WALLACE NASCAR CUP SERIES - ROCKINGHAM_94-EV-0625.NEW.01 
*TO CLIP NAME:  ERN_F0675_NSCR_1994-10-23_DESR RACE RUSTY WALLACE NASCAR CUP SERIES - ROCKINGHAM_94-EV-0624.NEW.01 
*SOURCE FILE: ERN_F0676_NSCR_1994-10-23_DESR RACE RUSTY WALLACE NASCAR CUP SERIES - ROCKINGHAM_94-EV-0625
002392  ERN_F0676_NSCR_1994-10-23_DESR_RACE_RUSTY_WALLACE_NASCAR_CUP_SERIES_-_ROCKINGHAM_94-EV-0625                                       V     C        18:51:00:12 18:51:03:14 00:53:59:03 00:54:02:04 
M2      ERN_F0676_NSCR_1994-10-23_DESR_RACE_RUSTY_WALLACE_NASCAR_CUP_SERIES_-_ROCKINGHAM_94-EV-0625                                                030.0 18:51:00:12 
*FROM CLIP NAME:  ERN_F0676_NSCR_1994-10-23_DESR RACE RUSTY WALLACE NASCAR CUP SERIES - ROCKINGHAM_94-EV-0625.NEW.01 
*SOURCE FILE: ERN_F0676_NSCR_1994-10-23_DESR RACE RUSTY WALLACE NASCAR CUP SERIES - ROCKINGHAM_94-EV-0625
002393  ERN_F0676_NSCR_1994-10-23_DESR_RACE_RUSTY_WALLACE_NASCAR_CUP_SERIES_-_ROCKINGHAM_94-EV-0625                                       A18   C        18:40:32:01 18:40:32:07 00:53:59:18 00:53:59:22 
M2      ERN_F0676_NSCR_1994-10-23_DESR_RACE_RUSTY_WALLACE_NASCAR_CUP_SERIES_-_ROCKINGHAM_94-EV-0625                                                030.0 18:40:32:01 
*FROM CLIP NAME:  ERN_F0676_NSCR_1994-10-23_DESR RACE RUSTY WALLACE NASCAR CUP SERIES - ROCKINGHAM_94-EV-0625.NEW.01 
*TO CLIP NAME:  ERN_F0676_NSCR_1994-10-23_DESR RACE RUSTY WALLACE NASCAR CUP SERIES - ROCKINGHAM_94-EV-0625.NEW.01 
*SOURCE FILE: ERN_F0676_NSCR_1994-10-23_DESR RACE RUSTY WALLACE NASCAR CUP SERIES - ROCKINGHAM_94-EV-0625
002394  ERN_F0676_NSCR_1994-10-23_DESR_RACE_RUSTY_WALLACE_NASCAR_CUP_SERIES_-_ROCKINGHAM_94-EV-0625                                       A18   C        18:40:32:06 18:40:32:22 00:53:59:22 00:54:00:10 
M2      ERN_F0676_NSCR_1994-10-23_DESR_RACE_RUSTY_WALLACE_NASCAR_CUP_SERIES_-_ROCKINGHAM_94-EV-0625                                                030.0 18:40:32:06 
*FROM CLIP NAME:  ERN_F0676_NSCR_1994-10-23_DESR RACE RUSTY WALLACE NASCAR CUP SERIES - ROCKINGHAM_94-EV-0625.NEW.01 
*SOURCE FILE: ERN_F0676_NSCR_1994-10-23_DESR RACE RUSTY WALLACE NASCAR CUP SERIES - ROCKINGHAM_94-EV-0625
002395  ERN_F9319_NSCR_1994-05-01_RACE_ESPN_BROADCAST_PART_4_OF_4_TALLADEGA-WINSTON_SELECT_500-DESR_WINNER_VICTORY_LANE_TAYLOR_FIXED_94-E A22   C        00:22:22:02 00:22:23:03 00:54:00:01 00:54:01:01 
M2      ERN_F9319_NSCR_1994-05-01_RACE_ESPN_BROADCAST_PART_4_OF_4_TALLADEGA-WINSTON_SELECT_500-DESR_WINNER_VICTORY_LANE_TAYLOR_FIXED_94-E          030.0 00:22:22:02 
*FROM CLIP NAME:  ERN_F6715_NSCR_1994-05-01_RACE ESPN BROADCAST PART 4 OF 4 TALLADEGA-WINSTON SELECT 500-DESR WINNER VICTORY LANE TAYLOR_94-EV-0233.NEW.01 
*SOURCE FILE: ERN_F9319_NSCR_1994-05-01_RACE ESPN BROADCAST PART 4 OF 4 TALLADEGA-WINSTON SELECT 500-DESR WINNER VICTORY LANE TAYLOR_FIXED_94-EV-0233
002396  ERN_F0676_NSCR_1994-10-23_DESR_RACE_RUSTY_WALLACE_NASCAR_CUP_SERIES_-_ROCKINGHAM_94-EV-0625                                       A20   C        18:40:24:27 18:40:28:00 00:54:00:03 00:54:03:05 
M2      ERN_F0676_NSCR_1994-10-23_DESR_RACE_RUSTY_WALLACE_NASCAR_CUP_SERIES_-_ROCKINGHAM_94-EV-0625                                                030.0 18:40:24:27 
*FROM CLIP NAME:  ERN_F0676_NSCR_1994-10-23_DESR RACE RUSTY WALLACE NASCAR CUP SERIES - ROCKINGHAM_94-EV-0625.NEW.01 
*SOURCE FILE: ERN_F0676_NSCR_1994-10-23_DESR RACE RUSTY WALLACE NASCAR CUP SERIES - ROCKINGHAM_94-EV-0625
002397  ERN_F9319_NSCR_1994-05-01_RACE_ESPN_BROADCAST_PART_4_OF_4_TALLADEGA-WINSTON_SELECT_500-DESR_WINNER_VICTORY_LANE_TAYLOR_FIXED_94-E A22   C        00:22:23:02 00:22:24:03 00:54:01:01 00:54:02:01 
M2      ERN_F9319_NSCR_1994-05-01_RACE_ESPN_BROADCAST_PART_4_OF_4_TALLADEGA-WINSTON_SELECT_500-DESR_WINNER_VICTORY_LANE_TAYLOR_FIXED_94-E          030.0 00:22:23:02 
*FROM CLIP NAME:  ERN_F6715_NSCR_1994-05-01_RACE ESPN BROADCAST PART 4 OF 4 TALLADEGA-WINSTON SELECT 500-DESR WINNER VICTORY LANE TAYLOR_94-EV-0233.NEW.01 
*SOURCE FILE: ERN_F9319_NSCR_1994-05-01_RACE ESPN BROADCAST PART 4 OF 4 TALLADEGA-WINSTON SELECT 500-DESR WINNER VICTORY LANE TAYLOR_FIXED_94-EV-0233
002398  ERN_F9319_NSCR_1994-05-01_RACE_ESPN_BROADCAST_PART_4_OF_4_TALLADEGA-WINSTON_SELECT_500-DESR_WINNER_VICTORY_LANE_TAYLOR_FIXED_94-E A22   C        00:22:28:07 00:22:28:10 00:54:02:01 00:54:02:03 
M2      ERN_F9319_NSCR_1994-05-01_RACE_ESPN_BROADCAST_PART_4_OF_4_TALLADEGA-WINSTON_SELECT_500-DESR_WINNER_VICTORY_LANE_TAYLOR_FIXED_94-E          030.0 00:22:28:07 
*FROM CLIP NAME:  ERN_F6715_NSCR_1994-05-01_RACE ESPN BROADCAST PART 4 OF 4 TALLADEGA-WINSTON SELECT 500-DESR WINNER VICTORY LANE TAYLOR_94-EV-0233.NEW.01 
*TO CLIP NAME:  ERN_F6715_NSCR_1994-05-01_RACE ESPN BROADCAST PART 4 OF 4 TALLADEGA-WINSTON SELECT 500-DESR WINNER VICTORY LANE TAYLOR_94-EV-0233.NEW.01 
*SOURCE FILE: ERN_F9319_NSCR_1994-05-01_RACE ESPN BROADCAST PART 4 OF 4 TALLADEGA-WINSTON SELECT 500-DESR WINNER VICTORY LANE TAYLOR_FIXED_94-EV-0233
002399  ERN_F9319_NSCR_1994-05-01_RACE_ESPN_BROADCAST_PART_4_OF_4_TALLADEGA-WINSTON_SELECT_500-DESR_WINNER_VICTORY_LANE_TAYLOR_FIXED_94-E A22   C        00:22:28:10 00:22:31:20 00:54:02:03 00:54:05:11 
M2      ERN_F9319_NSCR_1994-05-01_RACE_ESPN_BROADCAST_PART_4_OF_4_TALLADEGA-WINSTON_SELECT_500-DESR_WINNER_VICTORY_LANE_TAYLOR_FIXED_94-E          030.0 00:22:28:10 
*FROM CLIP NAME:  ERN_F6715_NSCR_1994-05-01_RACE ESPN BROADCAST PART 4 OF 4 TALLADEGA-WINSTON SELECT 500-DESR WINNER VICTORY LANE TAYLOR_94-EV-0233.NEW.01 
*SOURCE FILE: ERN_F9319_NSCR_1994-05-01_RACE ESPN BROADCAST PART 4 OF 4 TALLADEGA-WINSTON SELECT 500-DESR WINNER VICTORY LANE TAYLOR_FIXED_94-EV-0233
002400  ERN_F9319_NSCR_1994-05-01_RACE_ESPN_BROADCAST_PART_4_OF_4_TALLADEGA-WINSTON_SELECT_500-DESR_WINNER_VICTORY_LANE_TAYLOR_FIXED_94-E V     C        00:22:28:03 00:22:30:10 00:54:02:04 00:54:04:09 
M2      ERN_F9319_NSCR_1994-05-01_RACE_ESPN_BROADCAST_PART_4_OF_4_TALLADEGA-WINSTON_SELECT_500-DESR_WINNER_VICTORY_LANE_TAYLOR_FIXED_94-E          030.0 00:22:28:03 
*FROM CLIP NAME:  ERN_F6715_NSCR_1994-05-01_RACE ESPN BROADCAST PART 4 OF 4 TALLADEGA-WINSTON SELECT 500-DESR WINNER VICTORY LANE TAYLOR_94-EV-0233.NEW.01 
*SOURCE FILE: ERN_F9319_NSCR_1994-05-01_RACE ESPN BROADCAST PART 4 OF 4 TALLADEGA-WINSTON SELECT 500-DESR WINNER VICTORY LANE TAYLOR_FIXED_94-EV-0233
002401  ERN_F0676_NSCR_1994-10-23_DESR_RACE_RUSTY_WALLACE_NASCAR_CUP_SERIES_-_ROCKINGHAM_94-EV-0625                                       V     C        18:40:24:12 18:40:28:03 00:54:04:09 00:54:08:01 
M2      ERN_F0676_NSCR_1994-10-23_DESR_RACE_RUSTY_WALLACE_NASCAR_CUP_SERIES_-_ROCKINGHAM_94-EV-0625                                                030.0 18:40:24:12 
*FROM CLIP NAME:  ERN_F0676_NSCR_1994-10-23_DESR RACE RUSTY WALLACE NASCAR CUP SERIES - ROCKINGHAM_94-EV-0625.NEW.01 
*SOURCE FILE: ERN_F0676_NSCR_1994-10-23_DESR RACE RUSTY WALLACE NASCAR CUP SERIES - ROCKINGHAM_94-EV-0625
002402  ERN_F0676_NSCR_1994-10-23_DESR_RACE_RUSTY_WALLACE_NASCAR_CUP_SERIES_-_ROCKINGHAM_94-EV-0625                                       A18   C        18:51:39:16 18:51:40:27 00:54:05:04 00:54:06:12 
M2      ERN_F0676_NSCR_1994-10-23_DESR_RACE_RUSTY_WALLACE_NASCAR_CUP_SERIES_-_ROCKINGHAM_94-EV-0625                                                030.0 18:51:39:16 
*FROM CLIP NAME:  ERN_F0676_NSCR_1994-10-23_DESR RACE RUSTY WALLACE NASCAR CUP SERIES - ROCKINGHAM_94-EV-0625.NEW.01 
*SOURCE FILE: ERN_F0676_NSCR_1994-10-23_DESR RACE RUSTY WALLACE NASCAR CUP SERIES - ROCKINGHAM_94-EV-0625
002403  ERN_F0676_NSCR_1994-10-23_DESR_RACE_RUSTY_WALLACE_NASCAR_CUP_SERIES_-_ROCKINGHAM_94-EV-0625                                       A18   C        18:51:40:26 18:51:54:14 00:54:06:12 00:54:20:02 
M2      ERN_F0676_NSCR_1994-10-23_DESR_RACE_RUSTY_WALLACE_NASCAR_CUP_SERIES_-_ROCKINGHAM_94-EV-0625                                                030.0 18:51:40:26 
*FROM CLIP NAME:  ERN_F0676_NSCR_1994-10-23_DESR RACE RUSTY WALLACE NASCAR CUP SERIES - ROCKINGHAM_94-EV-0625.NEW.01 
*SOURCE FILE: ERN_F0676_NSCR_1994-10-23_DESR RACE RUSTY WALLACE NASCAR CUP SERIES - ROCKINGHAM_94-EV-0625
002404  ERN_A0071_NSCR_1994_RACE_MOTOR_RACING_NETWORK_ROCKINGHAM_DELCO_500_T1372272632940.WAV                                             A20   C        03:18:42:11 03:18:42:15 00:54:07:02 00:54:07:06 
*FROM CLIP NAME:  ERN_A0071_NSCR_1994_RACE MOTOR RACING NETWORK ROCKINGHAM DELCO 500_T1372272632940.WAV 
*SOURCE FILE: ERN_A0071_NSCR_1994_RACE MOTOR RACING NETWORK ROCKINGHAM DELCO 500_T1372272632940.WAV
002405  ERN_A0071_NSCR_1994_RACE_MOTOR_RACING_NETWORK_ROCKINGHAM_DELCO_500_T1372272632940.WAV                                             A20   C        03:18:42:15 03:18:48:21 00:54:07:06 00:54:13:12 
*FROM CLIP NAME:  ERN_A0071_NSCR_1994_RACE MOTOR RACING NETWORK ROCKINGHAM DELCO 500_T1372272632940.WAV 
*SOURCE FILE: ERN_A0071_NSCR_1994_RACE MOTOR RACING NETWORK ROCKINGHAM DELCO 500_T1372272632940.WAV
002406  ERN_F0676_NSCR_1994-10-23_DESR_RACE_RUSTY_WALLACE_NASCAR_CUP_SERIES_-_ROCKINGHAM_94-EV-0625                                       V     C        18:51:42:02 18:51:54:19 00:54:08:01 00:54:20:14 
M2      ERN_F0676_NSCR_1994-10-23_DESR_RACE_RUSTY_WALLACE_NASCAR_CUP_SERIES_-_ROCKINGHAM_94-EV-0625                                                030.0 18:51:42:02 
*FROM CLIP NAME:  ERN_F0676_NSCR_1994-10-23_DESR RACE RUSTY WALLACE NASCAR CUP SERIES - ROCKINGHAM_94-EV-0625.NEW.01 
*SOURCE FILE: ERN_F0676_NSCR_1994-10-23_DESR RACE RUSTY WALLACE NASCAR CUP SERIES - ROCKINGHAM_94-EV-0625
002407  ERN_A0071_NSCR_1994_RACE_MOTOR_RACING_NETWORK_ROCKINGHAM_DELCO_500_T1372272632940.WAV                                             A20   C        03:18:50:17 03:18:50:23 00:54:13:22 00:54:14:04 
*FROM CLIP NAME:  ERN_A0071_NSCR_1994_RACE MOTOR RACING NETWORK ROCKINGHAM DELCO 500_T1372272632940.WAV 
*SOURCE FILE: ERN_A0071_NSCR_1994_RACE MOTOR RACING NETWORK ROCKINGHAM DELCO 500_T1372272632940.WAV
002408  ERN_A0071_NSCR_1994_RACE_MOTOR_RACING_NETWORK_ROCKINGHAM_DELCO_500_T1372272632940.WAV                                             A20   C        03:18:50:23 03:18:58:03 00:54:14:04 00:54:21:08 
*FROM CLIP NAME:  ERN_A0071_NSCR_1994_RACE MOTOR RACING NETWORK ROCKINGHAM DELCO 500_T1372272632940.WAV 
*SOURCE FILE: ERN_A0071_NSCR_1994_RACE MOTOR RACING NETWORK ROCKINGHAM DELCO 500_T1372272632940.WAV
002409  ERN_F0676_NSCR_1994-10-23_DESR_RACE_RUSTY_WALLACE_NASCAR_CUP_SERIES_-_ROCKINGHAM_94-EV-0625                                       A18   C        18:52:36:22 18:52:38:07 00:54:20:02 00:54:21:14 
M2      ERN_F0676_NSCR_1994-10-23_DESR_RACE_RUSTY_WALLACE_NASCAR_CUP_SERIES_-_ROCKINGHAM_94-EV-0625                                                030.0 18:52:36:22 
*FROM CLIP NAME:  ERN_F0676_NSCR_1994-10-23_DESR RACE RUSTY WALLACE NASCAR CUP SERIES - ROCKINGHAM_94-EV-0625.NEW.01 
*TO CLIP NAME:  ERN_F0676_NSCR_1994-10-23_DESR RACE RUSTY WALLACE NASCAR CUP SERIES - ROCKINGHAM_94-EV-0625.NEW.01 
*SOURCE FILE: ERN_F0676_NSCR_1994-10-23_DESR RACE RUSTY WALLACE NASCAR CUP SERIES - ROCKINGHAM_94-EV-0625
002410  ERN_F0676_NSCR_1994-10-23_DESR_RACE_RUSTY_WALLACE_NASCAR_CUP_SERIES_-_ROCKINGHAM_94-EV-0625                                       V     C        18:52:37:06 18:52:48:22 00:54:20:14 00:54:28:23 
M2      ERN_F0676_NSCR_1994-10-23_DESR_RACE_RUSTY_WALLACE_NASCAR_CUP_SERIES_-_ROCKINGHAM_94-EV-0625                                                041.3 18:52:37:06 
*FROM CLIP NAME:  ERN_F0676_NSCR_1994-10-23_DESR RACE RUSTY WALLACE NASCAR CUP SERIES - ROCKINGHAM_94-EV-0625.NEW.01 
*SOURCE FILE: ERN_F0676_NSCR_1994-10-23_DESR RACE RUSTY WALLACE NASCAR CUP SERIES - ROCKINGHAM_94-EV-0625
002411  ERN_F0676_NSCR_1994-10-23_DESR_RACE_RUSTY_WALLACE_NASCAR_CUP_SERIES_-_ROCKINGHAM_94-EV-0625                                       A18   C        18:52:38:07 18:52:45:27 00:54:21:14 00:54:29:06 
M2      ERN_F0676_NSCR_1994-10-23_DESR_RACE_RUSTY_WALLACE_NASCAR_CUP_SERIES_-_ROCKINGHAM_94-EV-0625                                                030.0 18:52:38:07 
*FROM CLIP NAME:  ERN_F0676_NSCR_1994-10-23_DESR RACE RUSTY WALLACE NASCAR CUP SERIES - ROCKINGHAM_94-EV-0625.NEW.01 
*SOURCE FILE: ERN_F0676_NSCR_1994-10-23_DESR RACE RUSTY WALLACE NASCAR CUP SERIES - ROCKINGHAM_94-EV-0625
002412  ERN_F0676_NSCR_1994-10-23_DESR_RACE_RUSTY_WALLACE_NASCAR_CUP_SERIES_-_ROCKINGHAM_94-EV-0625                                       A20   C        18:57:42:13 18:57:42:17 00:54:22:16 00:54:22:19 
M2      ERN_F0676_NSCR_1994-10-23_DESR_RACE_RUSTY_WALLACE_NASCAR_CUP_SERIES_-_ROCKINGHAM_94-EV-0625                                                030.0 18:57:42:13 
*FROM CLIP NAME:  ERN_F0676_NSCR_1994-10-23_DESR RACE RUSTY WALLACE NASCAR CUP SERIES - ROCKINGHAM_94-EV-0625.NEW.01 
*SOURCE FILE: ERN_F0676_NSCR_1994-10-23_DESR RACE RUSTY WALLACE NASCAR CUP SERIES - ROCKINGHAM_94-EV-0625
002413  ERN_F0676_NSCR_1994-10-23_DESR_RACE_RUSTY_WALLACE_NASCAR_CUP_SERIES_-_ROCKINGHAM_94-EV-0625                                       A20   C        18:57:42:17 18:57:49:09 00:54:22:19 00:54:29:12 
M2      ERN_F0676_NSCR_1994-10-23_DESR_RACE_RUSTY_WALLACE_NASCAR_CUP_SERIES_-_ROCKINGHAM_94-EV-0625                                                030.0 18:57:42:17 
*FROM CLIP NAME:  ERN_F0676_NSCR_1994-10-23_DESR RACE RUSTY WALLACE NASCAR CUP SERIES - ROCKINGHAM_94-EV-0625.NEW.01 
*SOURCE FILE: ERN_F0676_NSCR_1994-10-23_DESR RACE RUSTY WALLACE NASCAR CUP SERIES - ROCKINGHAM_94-EV-0625
002414  ERN_F0676_NSCR_1994-10-23_DESR_RACE_RUSTY_WALLACE_NASCAR_CUP_SERIES_-_ROCKINGHAM_94-EV-0625                                       V     C        18:51:24:13 18:51:26:23 00:54:28:23 00:54:31:06 
M2      ERN_F0676_NSCR_1994-10-23_DESR_RACE_RUSTY_WALLACE_NASCAR_CUP_SERIES_-_ROCKINGHAM_94-EV-0625                                                030.0 18:51:24:13 
*FROM CLIP NAME:  ERN_F0676_NSCR_1994-10-23_DESR RACE RUSTY WALLACE NASCAR CUP SERIES - ROCKINGHAM_94-EV-0625.NEW.01 
*SOURCE FILE: ERN_F0676_NSCR_1994-10-23_DESR RACE RUSTY WALLACE NASCAR CUP SERIES - ROCKINGHAM_94-EV-0625
002415  ERN_F0676_NSCR_1994-10-23_DESR_RACE_RUSTY_WALLACE_NASCAR_CUP_SERIES_-_ROCKINGHAM_94-EV-0625                                       V     C        18:51:55:16 18:51:59:15 00:54:31:06 00:54:35:05 
M2      ERN_F0676_NSCR_1994-10-23_DESR_RACE_RUSTY_WALLACE_NASCAR_CUP_SERIES_-_ROCKINGHAM_94-EV-0625                                                030.0 18:51:55:16 
*FROM CLIP NAME:  ERN_F0676_NSCR_1994-10-23_DESR RACE RUSTY WALLACE NASCAR CUP SERIES - ROCKINGHAM_94-EV-0625.NEW.01 
*SOURCE FILE: ERN_F0676_NSCR_1994-10-23_DESR RACE RUSTY WALLACE NASCAR CUP SERIES - ROCKINGHAM_94-EV-0625
002416  ERN_F1979_NSCR_1994-10-23_RACE_B-ROLL_AC_DELCO_500_ROCKINGHAM_DESR_NO3_WINNING_CELEBRATION_W_CHOCOLATE_MYERS_&_TERESA_EARNHARDT_& V     C        06:05:28:06 06:05:33:14 00:54:35:05 00:54:40:11 
M2      ERN_F1979_NSCR_1994-10-23_RACE_B-ROLL_AC_DELCO_500_ROCKINGHAM_DESR_NO3_WINNING_CELEBRATION_W_CHOCOLATE_MYERS_&_TERESA_EARNHARDT_&          030.0 06:05:28:06 
*FROM CLIP NAME:  ERN_F1979_NSCR_1994-10-23_RACE B-ROLL AC DELCO 500 ROCKINGHAM DESR NO3 WINNING CELEBRATION W CHOCOLATE MYERS & TERESA EARNHARDT & CREW_LGP04404_S006.NEW.01 
*SOURCE FILE: ERN_F1979_NSCR_1994-10-23_RACE B-ROLL AC DELCO 500 ROCKINGHAM DESR NO3 WINNING CELEBRATION W CHOCOLATE MYERS & TERESA EARNHARDT & CREW_LGP04404_S006
002417  ERN_F0676_NSCR_1994-10-23_DESR_RACE_RUSTY_WALLACE_NASCAR_CUP_SERIES_-_ROCKINGHAM_94-EV-0625                                       A18   C        18:53:14:04 18:53:14:09 00:54:37:02 00:54:37:06 
M2      ERN_F0676_NSCR_1994-10-23_DESR_RACE_RUSTY_WALLACE_NASCAR_CUP_SERIES_-_ROCKINGHAM_94-EV-0625                                                030.0 18:53:14:04 
*FROM CLIP NAME:  ERN_F0676_NSCR_1994-10-23_DESR RACE RUSTY WALLACE NASCAR CUP SERIES - ROCKINGHAM_94-EV-0625.NEW.01 
*SOURCE FILE: ERN_F0676_NSCR_1994-10-23_DESR RACE RUSTY WALLACE NASCAR CUP SERIES - ROCKINGHAM_94-EV-0625
002418  ERN_F0676_NSCR_1994-10-23_DESR_RACE_RUSTY_WALLACE_NASCAR_CUP_SERIES_-_ROCKINGHAM_94-EV-0625                                       A18   C        18:53:14:09 18:53:20:17 00:54:37:06 00:54:43:12 
M2      ERN_F0676_NSCR_1994-10-23_DESR_RACE_RUSTY_WALLACE_NASCAR_CUP_SERIES_-_ROCKINGHAM_94-EV-0625                                                030.0 18:53:14:09 
*FROM CLIP NAME:  ERN_F0676_NSCR_1994-10-23_DESR RACE RUSTY WALLACE NASCAR CUP SERIES - ROCKINGHAM_94-EV-0625.NEW.01 
*SOURCE FILE: ERN_F0676_NSCR_1994-10-23_DESR RACE RUSTY WALLACE NASCAR CUP SERIES - ROCKINGHAM_94-EV-0625
002419  ERN_F0676_NSCR_1994-10-23_DESR_RACE_RUSTY_WALLACE_NASCAR_CUP_SERIES_-_ROCKINGHAM_94-EV-0625                                       V     C        18:53:17:15 18:53:18:21 00:54:40:11 00:54:41:15 
M2      ERN_F0676_NSCR_1994-10-23_DESR_RACE_RUSTY_WALLACE_NASCAR_CUP_SERIES_-_ROCKINGHAM_94-EV-0625                                                030.0 18:53:17:15 
*FROM CLIP NAME:  ERN_F0676_NSCR_1994-10-23_DESR RACE RUSTY WALLACE NASCAR CUP SERIES - ROCKINGHAM_94-EV-0625.NEW.01 
*SOURCE FILE: ERN_F0676_NSCR_1994-10-23_DESR RACE RUSTY WALLACE NASCAR CUP SERIES - ROCKINGHAM_94-EV-0625
002420  ERN_F1979_NSCR_1994-10-23_RACE_B-ROLL_AC_DELCO_500_ROCKINGHAM_DESR_NO3_WINNING_CELEBRATION_W_CHOCOLATE_MYERS_&_TERESA_EARNHARDT_& V     C        06:06:27:23 06:06:30:28 00:54:41:15 00:54:44:18 
M2      ERN_F1979_NSCR_1994-10-23_RACE_B-ROLL_AC_DELCO_500_ROCKINGHAM_DESR_NO3_WINNING_CELEBRATION_W_CHOCOLATE_MYERS_&_TERESA_EARNHARDT_&          030.0 06:06:27:23 
*FROM CLIP NAME:  ERN_F1979_NSCR_1994-10-23_RACE B-ROLL AC DELCO 500 ROCKINGHAM DESR NO3 WINNING CELEBRATION W CHOCOLATE MYERS & TERESA EARNHARDT & CREW_LGP04404_S006.NEW.01 
*SOURCE FILE: ERN_F1979_NSCR_1994-10-23_RACE B-ROLL AC DELCO 500 ROCKINGHAM DESR NO3 WINNING CELEBRATION W CHOCOLATE MYERS & TERESA EARNHARDT & CREW_LGP04404_S006
002421  ERN_F0676_NSCR_1994-10-23_DESR_RACE_RUSTY_WALLACE_NASCAR_CUP_SERIES_-_ROCKINGHAM_94-EV-0625                                       V     C        18:54:00:07 18:54:02:25 00:54:44:18 00:54:47:08 
M2      ERN_F0676_NSCR_1994-10-23_DESR_RACE_RUSTY_WALLACE_NASCAR_CUP_SERIES_-_ROCKINGHAM_94-EV-0625                                                030.0 18:54:00:07 
*FROM CLIP NAME:  ERN_F0676_NSCR_1994-10-23_DESR RACE RUSTY WALLACE NASCAR CUP SERIES - ROCKINGHAM_94-EV-0625.NEW.01 
*SOURCE FILE: ERN_F0676_NSCR_1994-10-23_DESR RACE RUSTY WALLACE NASCAR CUP SERIES - ROCKINGHAM_94-EV-0625
002422  ERN_F0676_NSCR_1994-10-23_DESR_RACE_RUSTY_WALLACE_NASCAR_CUP_SERIES_-_ROCKINGHAM_94-EV-0625                                       V     C        18:53:01:09 18:53:07:29 00:54:47:08 00:54:54:00 
M2      ERN_F0676_NSCR_1994-10-23_DESR_RACE_RUSTY_WALLACE_NASCAR_CUP_SERIES_-_ROCKINGHAM_94-EV-0625                                                030.0 18:53:01:09 
*FROM CLIP NAME:  ERN_F0676_NSCR_1994-10-23_DESR RACE RUSTY WALLACE NASCAR CUP SERIES - ROCKINGHAM_94-EV-0625.NEW.01 
*SOURCE FILE: ERN_F0676_NSCR_1994-10-23_DESR RACE RUSTY WALLACE NASCAR CUP SERIES - ROCKINGHAM_94-EV-0625
002423  ERN_F0676_NSCR_1994-10-23_DESR_RACE_RUSTY_WALLACE_NASCAR_CUP_SERIES_-_ROCKINGHAM_94-EV-0625                                       V     C        18:54:29:22 18:54:36:14 00:54:54:00 00:55:00:17 
M2      ERN_F0676_NSCR_1994-10-23_DESR_RACE_RUSTY_WALLACE_NASCAR_CUP_SERIES_-_ROCKINGHAM_94-EV-0625                                                030.0 18:54:29:22 
*FROM CLIP NAME:  ERN_F0676_NSCR_1994-10-23_DESR RACE RUSTY WALLACE NASCAR CUP SERIES - ROCKINGHAM_94-EV-0625.NEW.01 
*SOURCE FILE: ERN_F0676_NSCR_1994-10-23_DESR RACE RUSTY WALLACE NASCAR CUP SERIES - ROCKINGHAM_94-EV-0625
002424  ERN_F0676_NSCR_1994-10-23_DESR_RACE_RUSTY_WALLACE_NASCAR_CUP_SERIES_-_ROCKINGHAM_94-EV-0625                                       A18   C        18:56:57:20 18:57:02:06 00:54:56:07 00:55:00:18 
M2      ERN_F0676_NSCR_1994-10-23_DESR_RACE_RUSTY_WALLACE_NASCAR_CUP_SERIES_-_ROCKINGHAM_94-EV-0625                                                030.0 18:56:57:20 
*FROM CLIP NAME:  ERN_F0676_NSCR_1994-10-23_DESR RACE RUSTY WALLACE NASCAR CUP SERIES - ROCKINGHAM_94-EV-0625.NEW.01 
*SOURCE FILE: ERN_F0676_NSCR_1994-10-23_DESR RACE RUSTY WALLACE NASCAR CUP SERIES - ROCKINGHAM_94-EV-0625
002425  ERN_F0676_NSCR_1994-10-23_DESR_RACE_RUSTY_WALLACE_NASCAR_CUP_SERIES_-_ROCKINGHAM_94-EV-0625                                       V     C        18:55:24:19 18:55:45:22 00:55:00:17 00:55:22:01 
M2      ERN_F0676_NSCR_1994-10-23_DESR_RACE_RUSTY_WALLACE_NASCAR_CUP_SERIES_-_ROCKINGHAM_94-EV-0625                                                029.6 18:55:24:19 
*FROM CLIP NAME:  ERN_F0676_NSCR_1994-10-23_DESR RACE RUSTY WALLACE NASCAR CUP SERIES - ROCKINGHAM_94-EV-0625.NEW.01 
*SOURCE FILE: ERN_F0676_NSCR_1994-10-23_DESR RACE RUSTY WALLACE NASCAR CUP SERIES - ROCKINGHAM_94-EV-0625
002426  ERN_F0676_NSCR_1994-10-23_DESR_RACE_RUSTY_WALLACE_NASCAR_CUP_SERIES_-_ROCKINGHAM_94-EV-0625                                       A18   C        18:55:24:20 18:55:25:01 00:55:00:18 00:55:01:02 
M2      ERN_F0676_NSCR_1994-10-23_DESR_RACE_RUSTY_WALLACE_NASCAR_CUP_SERIES_-_ROCKINGHAM_94-EV-0625                                                030.0 18:55:24:20 
*FROM CLIP NAME:  ERN_F0676_NSCR_1994-10-23_DESR RACE RUSTY WALLACE NASCAR CUP SERIES - ROCKINGHAM_94-EV-0625.NEW.01 
*TO CLIP NAME:  ERN_F0676_NSCR_1994-10-23_DESR RACE RUSTY WALLACE NASCAR CUP SERIES - ROCKINGHAM_94-EV-0625.NEW.01 
*SOURCE FILE: ERN_F0676_NSCR_1994-10-23_DESR RACE RUSTY WALLACE NASCAR CUP SERIES - ROCKINGHAM_94-EV-0625
002427  ERN_F0676_NSCR_1994-10-23_DESR_RACE_RUSTY_WALLACE_NASCAR_CUP_SERIES_-_ROCKINGHAM_94-EV-0625                                       A18   C        18:55:25:00 18:55:44:23 00:55:01:02 00:55:20:20 
M2      ERN_F0676_NSCR_1994-10-23_DESR_RACE_RUSTY_WALLACE_NASCAR_CUP_SERIES_-_ROCKINGHAM_94-EV-0625                                                030.0 18:55:25:00 
*FROM CLIP NAME:  ERN_F0676_NSCR_1994-10-23_DESR RACE RUSTY WALLACE NASCAR CUP SERIES - ROCKINGHAM_94-EV-0625.NEW.01 
*SOURCE FILE: ERN_F0676_NSCR_1994-10-23_DESR RACE RUSTY WALLACE NASCAR CUP SERIES - ROCKINGHAM_94-EV-0625
002428  ERN_F0676_NSCR_1994-10-23_DESR_RACE_RUSTY_WALLACE_NASCAR_CUP_SERIES_-_ROCKINGHAM_94-EV-0625                                       A18   C        18:55:31:15 18:55:32:16 00:55:20:20 00:55:21:20 
M2      ERN_F0676_NSCR_1994-10-23_DESR_RACE_RUSTY_WALLACE_NASCAR_CUP_SERIES_-_ROCKINGHAM_94-EV-0625                                                030.0 18:55:31:15 
*FROM CLIP NAME:  ERN_F0676_NSCR_1994-10-23_DESR RACE RUSTY WALLACE NASCAR CUP SERIES - ROCKINGHAM_94-EV-0625.NEW.01 
*TO CLIP NAME:  ERN_F0676_NSCR_1994-10-23_DESR RACE RUSTY WALLACE NASCAR CUP SERIES - ROCKINGHAM_94-EV-0625.NEW.01 
*SOURCE FILE: ERN_F0676_NSCR_1994-10-23_DESR RACE RUSTY WALLACE NASCAR CUP SERIES - ROCKINGHAM_94-EV-0625
002429  ERN_F1971_NSCR_1994-10-23_RACE_B-ROLL_ROCKINGHAM_AC_DELCO_500_DESR_VICTORY_LAP_&_CELEBRATION_W_TERESA_EARNHARDT_HC_2_ROCKINGHAM   A20   C        00:06:29:28 00:06:30:29 00:55:21:07 00:55:22:07 
M2      ERN_F1971_NSCR_1994-10-23_RACE_B-ROLL_ROCKINGHAM_AC_DELCO_500_DESR_VICTORY_LAP_&_CELEBRATION_W_TERESA_EARNHARDT_HC_2_ROCKINGHAM            030.0 00:06:29:28 
*FROM CLIP NAME:  ERN_F0498_NSCR_1994-10-23_B-ROLL INTV DALE EARNHARDT 7TH CHAMPIONSHIP WIN & VICTOY AL DECO 500_HC_2_ROCKINGHAM_23OCT1994_WC_1.NEW.01 
*SOURCE FILE: ERN_F1971_NSCR_1994-10-23_RACE B-ROLL ROCKINGHAM AC DELCO 500 DESR VICTORY LAP & CELEBRATION W TERESA EARNHARDT_HC_2_ROCKINGHAM
002430  ERN_F0676_NSCR_1994-10-23_DESR_RACE_RUSTY_WALLACE_NASCAR_CUP_SERIES_-_ROCKINGHAM_94-EV-0625                                       A18   C        18:55:32:15 18:55:32:21 00:55:21:20 00:55:22:00 
M2      ERN_F0676_NSCR_1994-10-23_DESR_RACE_RUSTY_WALLACE_NASCAR_CUP_SERIES_-_ROCKINGHAM_94-EV-0625                                                030.0 18:55:32:15 
*FROM CLIP NAME:  ERN_F0676_NSCR_1994-10-23_DESR RACE RUSTY WALLACE NASCAR CUP SERIES - ROCKINGHAM_94-EV-0625.NEW.01 
*SOURCE FILE: ERN_F0676_NSCR_1994-10-23_DESR RACE RUSTY WALLACE NASCAR CUP SERIES - ROCKINGHAM_94-EV-0625
002431  ERN_F1971_NSCR_1994-10-23_RACE_B-ROLL_ROCKINGHAM_AC_DELCO_500_DESR_VICTORY_LAP_&_CELEBRATION_W_TERESA_EARNHARDT_HC_2_ROCKINGHAM   V     C        00:06:29:16 00:06:40:16 00:55:22:01 00:55:35:01 
M2      ERN_F1971_NSCR_1994-10-23_RACE_B-ROLL_ROCKINGHAM_AC_DELCO_500_DESR_VICTORY_LAP_&_CELEBRATION_W_TERESA_EARNHARDT_HC_2_ROCKINGHAM            025.3 00:06:29:16 
*FROM CLIP NAME:  ERN_F0498_NSCR_1994-10-23_B-ROLL INTV DALE EARNHARDT 7TH CHAMPIONSHIP WIN & VICTOY AL DECO 500_HC_2_ROCKINGHAM_23OCT1994_WC_1.NEW.01 
*SOURCE FILE: ERN_F1971_NSCR_1994-10-23_RACE B-ROLL ROCKINGHAM AC DELCO 500 DESR VICTORY LAP & CELEBRATION W TERESA EARNHARDT_HC_2_ROCKINGHAM
002432  ERN_F1971_NSCR_1994-10-23_RACE_B-ROLL_ROCKINGHAM_AC_DELCO_500_DESR_VICTORY_LAP_&_CELEBRATION_W_TERESA_EARNHARDT_HC_2_ROCKINGHAM   A20   C        00:06:30:28 00:06:33:10 00:55:22:07 00:55:24:16 
M2      ERN_F1971_NSCR_1994-10-23_RACE_B-ROLL_ROCKINGHAM_AC_DELCO_500_DESR_VICTORY_LAP_&_CELEBRATION_W_TERESA_EARNHARDT_HC_2_ROCKINGHAM            030.0 00:06:30:28 
*FROM CLIP NAME:  ERN_F0498_NSCR_1994-10-23_B-ROLL INTV DALE EARNHARDT 7TH CHAMPIONSHIP WIN & VICTOY AL DECO 500_HC_2_ROCKINGHAM_23OCT1994_WC_1.NEW.01 
*SOURCE FILE: ERN_F1971_NSCR_1994-10-23_RACE B-ROLL ROCKINGHAM AC DELCO 500 DESR VICTORY LAP & CELEBRATION W TERESA EARNHARDT_HC_2_ROCKINGHAM
002433  ERN_F1971_NSCR_1994-10-23_RACE_B-ROLL_ROCKINGHAM_AC_DELCO_500_DESR_VICTORY_LAP_&_CELEBRATION_W_TERESA_EARNHARDT_HC_2_ROCKINGHAM   A20   C        00:06:33:10 00:06:34:25 00:55:24:16 00:55:26:04 
M2      ERN_F1971_NSCR_1994-10-23_RACE_B-ROLL_ROCKINGHAM_AC_DELCO_500_DESR_VICTORY_LAP_&_CELEBRATION_W_TERESA_EARNHARDT_HC_2_ROCKINGHAM            030.0 00:06:33:10 
*FROM CLIP NAME:  ERN_F0498_NSCR_1994-10-23_B-ROLL INTV DALE EARNHARDT 7TH CHAMPIONSHIP WIN & VICTOY AL DECO 500_HC_2_ROCKINGHAM_23OCT1994_WC_1.NEW.01 
*TO CLIP NAME:  ERN_F0498_NSCR_1994-10-23_B-ROLL INTV DALE EARNHARDT 7TH CHAMPIONSHIP WIN & VICTOY AL DECO 500_HC_2_ROCKINGHAM_23OCT1994_WC_1.NEW.01 
*SOURCE FILE: ERN_F1971_NSCR_1994-10-23_RACE B-ROLL ROCKINGHAM AC DELCO 500 DESR VICTORY LAP & CELEBRATION W TERESA EARNHARDT_HC_2_ROCKINGHAM
002434  ERN_F8169_NSCR_1997-12-04_1_OF_2_NON_RACING_INTV_DESR_NASCAR_50TH_ANNIVERSARY_NYC_LGP01150                                        A18   C        01:19:59:26 01:20:00:06 00:55:25:16 00:55:25:23 
M2      ERN_F8169_NSCR_1997-12-04_1_OF_2_NON_RACING_INTV_DESR_NASCAR_50TH_ANNIVERSARY_NYC_LGP01150                                                 030.0 01:19:59:26 
*FROM CLIP NAME:  ERN_F8169_NSCR_1997-12-04_1 OF 2 NON RACING INTV DESR NASCAR 50TH ANNIVERSARY NYC_LGP01150.NEW.01 
*SOURCE FILE: ERN_F8169_NSCR_1997-12-04_1 OF 2 NON RACING INTV DESR NASCAR 50TH ANNIVERSARY NYC_LGP01150
002435  ERN_F8169_NSCR_1997-12-04_1_OF_2_NON_RACING_INTV_DESR_NASCAR_50TH_ANNIVERSARY_NYC_LGP01150                                        A18   C        01:20:00:05 01:20:03:17 00:55:25:23 00:55:29:08 
M2      ERN_F8169_NSCR_1997-12-04_1_OF_2_NON_RACING_INTV_DESR_NASCAR_50TH_ANNIVERSARY_NYC_LGP01150                                                 030.0 01:20:00:05 
*FROM CLIP NAME:  ERN_F8169_NSCR_1997-12-04_1 OF 2 NON RACING INTV DESR NASCAR 50TH ANNIVERSARY NYC_LGP01150.NEW.01 
*SOURCE FILE: ERN_F8169_NSCR_1997-12-04_1 OF 2 NON RACING INTV DESR NASCAR 50TH ANNIVERSARY NYC_LGP01150
002436  ERN_F1971_NSCR_1994-10-23_RACE_B-ROLL_ROCKINGHAM_AC_DELCO_500_DESR_VICTORY_LAP_&_CELEBRATION_W_TERESA_EARNHARDT_HC_2_ROCKINGHAM   A20   C        00:06:34:25 00:06:48:27 00:55:26:04 00:55:40:05 
M2      ERN_F1971_NSCR_1994-10-23_RACE_B-ROLL_ROCKINGHAM_AC_DELCO_500_DESR_VICTORY_LAP_&_CELEBRATION_W_TERESA_EARNHARDT_HC_2_ROCKINGHAM            030.0 00:06:34:25 
*FROM CLIP NAME:  ERN_F0498_NSCR_1994-10-23_B-ROLL INTV DALE EARNHARDT 7TH CHAMPIONSHIP WIN & VICTOY AL DECO 500_HC_2_ROCKINGHAM_23OCT1994_WC_1.NEW.01 
*SOURCE FILE: ERN_F1971_NSCR_1994-10-23_RACE B-ROLL ROCKINGHAM AC DELCO 500 DESR VICTORY LAP & CELEBRATION W TERESA EARNHARDT_HC_2_ROCKINGHAM
002437  ERN_F8169_NSCR_1997-12-04_1_OF_2_NON_RACING_INTV_DESR_NASCAR_50TH_ANNIVERSARY_NYC_LGP01150                                        A18   C        01:20:03:29 01:20:04:02 00:55:29:08 00:55:29:10 
M2      ERN_F8169_NSCR_1997-12-04_1_OF_2_NON_RACING_INTV_DESR_NASCAR_50TH_ANNIVERSARY_NYC_LGP01150                                                 030.0 01:20:03:29 
*FROM CLIP NAME:  ERN_F8169_NSCR_1997-12-04_1 OF 2 NON RACING INTV DESR NASCAR 50TH ANNIVERSARY NYC_LGP01150.NEW.01 
*TO CLIP NAME:  ERN_F8169_NSCR_1997-12-04_1 OF 2 NON RACING INTV DESR NASCAR 50TH ANNIVERSARY NYC_LGP01150.NEW.01 
*SOURCE FILE: ERN_F8169_NSCR_1997-12-04_1 OF 2 NON RACING INTV DESR NASCAR 50TH ANNIVERSARY NYC_LGP01150
002438  ERN_F8169_NSCR_1997-12-04_1_OF_2_NON_RACING_INTV_DESR_NASCAR_50TH_ANNIVERSARY_NYC_LGP01150                                        A18   C        01:20:04:01 01:20:05:05 00:55:29:10 00:55:30:12 
M2      ERN_F8169_NSCR_1997-12-04_1_OF_2_NON_RACING_INTV_DESR_NASCAR_50TH_ANNIVERSARY_NYC_LGP01150                                                 030.0 01:20:04:01 
*FROM CLIP NAME:  ERN_F8169_NSCR_1997-12-04_1 OF 2 NON RACING INTV DESR NASCAR 50TH ANNIVERSARY NYC_LGP01150.NEW.01 
*SOURCE FILE: ERN_F8169_NSCR_1997-12-04_1 OF 2 NON RACING INTV DESR NASCAR 50TH ANNIVERSARY NYC_LGP01150
002439  ERN_F8169_NSCR_1997-12-04_1_OF_2_NON_RACING_INTV_DESR_NASCAR_50TH_ANNIVERSARY_NYC_LGP01150                                        A18   C        01:20:06:01 01:20:06:07 00:55:30:12 00:55:30:16 
M2      ERN_F8169_NSCR_1997-12-04_1_OF_2_NON_RACING_INTV_DESR_NASCAR_50TH_ANNIVERSARY_NYC_LGP01150                                                 030.0 01:20:06:01 
*FROM CLIP NAME:  ERN_F8169_NSCR_1997-12-04_1 OF 2 NON RACING INTV DESR NASCAR 50TH ANNIVERSARY NYC_LGP01150.NEW.01 
*TO CLIP NAME:  ERN_F8169_NSCR_1997-12-04_1 OF 2 NON RACING INTV DESR NASCAR 50TH ANNIVERSARY NYC_LGP01150.NEW.01 
*SOURCE FILE: ERN_F8169_NSCR_1997-12-04_1 OF 2 NON RACING INTV DESR NASCAR 50TH ANNIVERSARY NYC_LGP01150
002440  ERN_F8169_NSCR_1997-12-04_1_OF_2_NON_RACING_INTV_DESR_NASCAR_50TH_ANNIVERSARY_NYC_LGP01150                                        A18   C        01:20:06:06 01:20:10:23 00:55:30:16 00:55:35:05 
M2      ERN_F8169_NSCR_1997-12-04_1_OF_2_NON_RACING_INTV_DESR_NASCAR_50TH_ANNIVERSARY_NYC_LGP01150                                                 030.0 01:20:06:06 
*FROM CLIP NAME:  ERN_F8169_NSCR_1997-12-04_1 OF 2 NON RACING INTV DESR NASCAR 50TH ANNIVERSARY NYC_LGP01150.NEW.01 
*SOURCE FILE: ERN_F8169_NSCR_1997-12-04_1 OF 2 NON RACING INTV DESR NASCAR 50TH ANNIVERSARY NYC_LGP01150
002441  ERN_F0676_NSCR_1994-10-23_DESR_RACE_RUSTY_WALLACE_NASCAR_CUP_SERIES_-_ROCKINGHAM_94-EV-0625                                       V     C        18:58:03:29 18:58:09:00 00:55:35:01 00:55:41:07 
M2      ERN_F0676_NSCR_1994-10-23_DESR_RACE_RUSTY_WALLACE_NASCAR_CUP_SERIES_-_ROCKINGHAM_94-EV-0625                                                024.0 18:58:03:29 
*FROM CLIP NAME:  ERN_F0676_NSCR_1994-10-23_DESR RACE RUSTY WALLACE NASCAR CUP SERIES - ROCKINGHAM_94-EV-0625.NEW.01 
*SOURCE FILE: ERN_F0676_NSCR_1994-10-23_DESR RACE RUSTY WALLACE NASCAR CUP SERIES - ROCKINGHAM_94-EV-0625
002442  ERN_F8169_NSCR_1997-12-04_1_OF_2_NON_RACING_INTV_DESR_NASCAR_50TH_ANNIVERSARY_NYC_LGP01150                                        A18   C        01:19:34:06 01:19:34:08 00:55:35:05 00:55:35:06 
M2      ERN_F8169_NSCR_1997-12-04_1_OF_2_NON_RACING_INTV_DESR_NASCAR_50TH_ANNIVERSARY_NYC_LGP01150                                                 030.0 01:19:34:06 
*FROM CLIP NAME:  ERN_F8169_NSCR_1997-12-04_1 OF 2 NON RACING INTV DESR NASCAR 50TH ANNIVERSARY NYC_LGP01150.NEW.01 
*TO CLIP NAME:  ERN_F8169_NSCR_1997-12-04_1 OF 2 NON RACING INTV DESR NASCAR 50TH ANNIVERSARY NYC_LGP01150.NEW.01 
*SOURCE FILE: ERN_F8169_NSCR_1997-12-04_1 OF 2 NON RACING INTV DESR NASCAR 50TH ANNIVERSARY NYC_LGP01150
002443  ERN_F0905_NSCR_1994-11-23_INTV_DESR_FILMING_FOR_DOC_BTS_B_CAM_LGP06857                                                            A26   C        04:09:42:13 04:09:43:14 00:55:40:19 00:55:41:19 
M2      ERN_F0905_NSCR_1994-11-23_INTV_DESR_FILMING_FOR_DOC_BTS_B_CAM_LGP06857                                                                     030.0 04:09:42:13 
*FROM CLIP NAME:  ERN_F0905_NSCR_1994-11-23_INTV DESR FILMING FOR DOC BTS B CAM_LGP06857.NEW.01 
*SOURCE FILE: ERN_F0905_NSCR_1994-11-23_INTV DESR FILMING FOR DOC BTS B CAM_LGP06857
002444  ERN_F5191_NSCR_2005-10-11_RICHARD_CHILDRESS_INTV_SE003105                                                                         A24   C        00:10:40:04 00:10:40:20 00:55:40:21 00:55:41:09 
M2      ERN_F5191_NSCR_2005-10-11_RICHARD_CHILDRESS_INTV_SE003105                                                                                  030.0 00:10:40:04 
*FROM CLIP NAME:  ERN_F5191_NSCR_2005-10-11_RICHARD CHILDRESS INTV_SE003105.NEW.01 
*SOURCE FILE: ERN_F5191_NSCR_2005-10-11_RICHARD CHILDRESS INTV_SE003105
002445  ERN_F5191_NSCR_2005-10-11_RICHARD_CHILDRESS_INTV_SE003105                                                                         A22   C        00:10:40:04 00:10:40:20 00:55:41:03 00:55:41:15 
M2      ERN_F5191_NSCR_2005-10-11_RICHARD_CHILDRESS_INTV_SE003105                                                                                  030.0 00:10:40:04 
*FROM CLIP NAME:  ERN_F5191_NSCR_2005-10-11_RICHARD CHILDRESS INTV_SE003105.NEW.01 
*SOURCE FILE: ERN_F5191_NSCR_2005-10-11_RICHARD CHILDRESS INTV_SE003105
002446  ERN_F0905_NSCR_1994-11-23_INTV_DESR_FILMING_FOR_DOC_BTS_B_CAM_LGP06857                                                            V     C        04:09:42:28 04:09:44:10 00:55:41:07 00:55:42:16 
M2      ERN_F0905_NSCR_1994-11-23_INTV_DESR_FILMING_FOR_DOC_BTS_B_CAM_LGP06857                                                                     030.0 04:09:42:28 
*FROM CLIP NAME:  ERN_F0905_NSCR_1994-11-23_INTV DESR FILMING FOR DOC BTS B CAM_LGP06857.NEW.01 
*SOURCE FILE: ERN_F0905_NSCR_1994-11-23_INTV DESR FILMING FOR DOC BTS B CAM_LGP06857
002447  ERN_F0905_NSCR_1994-11-23_INTV_DESR_FILMING_FOR_DOC_BTS_B_CAM_LGP06857                                                            A26   C        04:09:43:13 04:09:43:17 00:55:41:19 00:55:41:22 
M2      ERN_F0905_NSCR_1994-11-23_INTV_DESR_FILMING_FOR_DOC_BTS_B_CAM_LGP06857                                                                     030.0 04:09:43:13 
*FROM CLIP NAME:  ERN_F0905_NSCR_1994-11-23_INTV DESR FILMING FOR DOC BTS B CAM_LGP06857.NEW.01 
*SOURCE FILE: ERN_F0905_NSCR_1994-11-23_INTV DESR FILMING FOR DOC BTS B CAM_LGP06857
002448  ERN_F0905_NSCR_1994-11-23_INTV_DESR_FILMING_FOR_DOC_BTS_B_CAM_LGP06857                                                            A18   C        04:05:28:04 04:05:29:04 00:55:42:04 00:55:43:04 
M2      ERN_F0905_NSCR_1994-11-23_INTV_DESR_FILMING_FOR_DOC_BTS_B_CAM_LGP06857                                                                     030.0 04:05:28:04 
*FROM CLIP NAME:  ERN_F0905_NSCR_1994-11-23_INTV DESR FILMING FOR DOC BTS B CAM_LGP06857.NEW.01 
*SOURCE FILE: ERN_F0905_NSCR_1994-11-23_INTV DESR FILMING FOR DOC BTS B CAM_LGP06857
002449  ERN_F0905_NSCR_1994-11-23_INTV_DESR_FILMING_FOR_DOC_BTS_B_CAM_LGP06857                                                            V     C        04:05:28:19 04:05:37:13 00:55:42:16 00:55:51:11 
M2      ERN_F0905_NSCR_1994-11-23_INTV_DESR_FILMING_FOR_DOC_BTS_B_CAM_LGP06857                                                                     030.0 04:05:28:19 
*FROM CLIP NAME:  ERN_F0905_NSCR_1994-11-23_INTV DESR FILMING FOR DOC BTS B CAM_LGP06857.NEW.01 
*SOURCE FILE: ERN_F0905_NSCR_1994-11-23_INTV DESR FILMING FOR DOC BTS B CAM_LGP06857
002450  ERN_F0905_NSCR_1994-11-23_INTV_DESR_FILMING_FOR_DOC_BTS_B_CAM_LGP06857                                                            A18   C        04:05:29:04 04:05:34:01 00:55:43:04 00:55:48:01 
M2      ERN_F0905_NSCR_1994-11-23_INTV_DESR_FILMING_FOR_DOC_BTS_B_CAM_LGP06857                                                                     030.0 04:05:29:04 
*FROM CLIP NAME:  ERN_F0905_NSCR_1994-11-23_INTV DESR FILMING FOR DOC BTS B CAM_LGP06857.NEW.01 
*SOURCE FILE: ERN_F0905_NSCR_1994-11-23_INTV DESR FILMING FOR DOC BTS B CAM_LGP06857
002451  ERN_F0904_NSCR_1994-11-23_INTV_DESR_FILMING_FOR_DOC_BTS_B_CAM_LGP06857                                                            A18   C        03:00:32:28 03:00:33:04 00:55:48:01 00:55:48:05 
M2      ERN_F0904_NSCR_1994-11-23_INTV_DESR_FILMING_FOR_DOC_BTS_B_CAM_LGP06857                                                                     030.0 03:00:32:28 
*FROM CLIP NAME:  ERN_F0904_NSCR_1994-11-23_INTV DESR FILMING FOR DOC BTS B CAM_LGP06857.NEW.01 
*TO CLIP NAME:  ERN_F0905_NSCR_1994-11-23_INTV DESR FILMING FOR DOC BTS B CAM_LGP06857.NEW.01 
*SOURCE FILE: ERN_F0904_NSCR_1994-11-23_INTV DESR FILMING FOR DOC BTS B CAM_LGP06857
002452  ERN_F0904_NSCR_1994-11-23_INTV_DESR_FILMING_FOR_DOC_BTS_B_CAM_LGP06857                                                            A18   C        03:00:33:03 03:00:35:01 00:55:48:05 00:55:50:03 
M2      ERN_F0904_NSCR_1994-11-23_INTV_DESR_FILMING_FOR_DOC_BTS_B_CAM_LGP06857                                                                     030.0 03:00:33:03 
*FROM CLIP NAME:  ERN_F0904_NSCR_1994-11-23_INTV DESR FILMING FOR DOC BTS B CAM_LGP06857.NEW.01 
*SOURCE FILE: ERN_F0904_NSCR_1994-11-23_INTV DESR FILMING FOR DOC BTS B CAM_LGP06857
002453  ERN_F0905_NSCR_1994-11-23_INTV_DESR_FILMING_FOR_DOC_BTS_B_CAM_LGP06857                                                            A18   C        04:05:36:02 04:05:36:11 00:55:50:03 00:55:50:09 
M2      ERN_F0905_NSCR_1994-11-23_INTV_DESR_FILMING_FOR_DOC_BTS_B_CAM_LGP06857                                                                     030.0 04:05:36:02 
*FROM CLIP NAME:  ERN_F0905_NSCR_1994-11-23_INTV DESR FILMING FOR DOC BTS B CAM_LGP06857.NEW.01 
*TO CLIP NAME:  ERN_F0904_NSCR_1994-11-23_INTV DESR FILMING FOR DOC BTS B CAM_LGP06857.NEW.01 
*SOURCE FILE: ERN_F0905_NSCR_1994-11-23_INTV DESR FILMING FOR DOC BTS B CAM_LGP06857
002454  ERN_F0905_NSCR_1994-11-23_INTV_DESR_FILMING_FOR_DOC_BTS_B_CAM_LGP06857                                                            A18   C        04:05:36:10 04:05:52:12 00:55:50:09 00:56:06:10 
M2      ERN_F0905_NSCR_1994-11-23_INTV_DESR_FILMING_FOR_DOC_BTS_B_CAM_LGP06857                                                                     030.0 04:05:36:10 
*FROM CLIP NAME:  ERN_F0905_NSCR_1994-11-23_INTV DESR FILMING FOR DOC BTS B CAM_LGP06857.NEW.01 
*SOURCE FILE: ERN_F0905_NSCR_1994-11-23_INTV DESR FILMING FOR DOC BTS B CAM_LGP06857
002455  ERN_F0905_NSCR_1994-11-23_INTV_DESR_FILMING_FOR_DOC_BTS_B_CAM_LGP06857                                                            V     C        04:05:37:12 04:05:41:28 00:55:51:11 00:55:55:23 
M2      ERN_F0905_NSCR_1994-11-23_INTV_DESR_FILMING_FOR_DOC_BTS_B_CAM_LGP06857                                                                     030.0 04:05:37:12 
*FROM CLIP NAME:  ERN_F0905_NSCR_1994-11-23_INTV DESR FILMING FOR DOC BTS B CAM_LGP06857.NEW.01 
*SOURCE FILE: ERN_F0905_NSCR_1994-11-23_INTV DESR FILMING FOR DOC BTS B CAM_LGP06857
002456  ERN_F0905_NSCR_1994-11-23_INTV_DESR_FILMING_FOR_DOC_BTS_B_CAM_LGP06857                                                            V     C        04:05:41:27 04:06:09:06 00:55:55:23 00:56:23:04 
M2      ERN_F0905_NSCR_1994-11-23_INTV_DESR_FILMING_FOR_DOC_BTS_B_CAM_LGP06857                                                                     030.0 04:05:41:27 
*FROM CLIP NAME:  ERN_F0905_NSCR_1994-11-23_INTV DESR FILMING FOR DOC BTS B CAM_LGP06857.NEW.01 
*SOURCE FILE: ERN_F0905_NSCR_1994-11-23_INTV DESR FILMING FOR DOC BTS B CAM_LGP06857
002457  ERN_F0905_NSCR_1994-11-23_INTV_DESR_FILMING_FOR_DOC_BTS_B_CAM_LGP06857                                                            A18   C        04:05:52:11 04:05:52:27 00:56:06:10 00:56:06:22 
M2      ERN_F0905_NSCR_1994-11-23_INTV_DESR_FILMING_FOR_DOC_BTS_B_CAM_LGP06857                                                                     030.0 04:05:52:11 
*FROM CLIP NAME:  ERN_F0905_NSCR_1994-11-23_INTV DESR FILMING FOR DOC BTS B CAM_LGP06857.NEW.01 
*TO CLIP NAME:  ERN_F0905_NSCR_1994-11-23_INTV DESR FILMING FOR DOC BTS B CAM_LGP06857.NEW.01 
*SOURCE FILE: ERN_F0905_NSCR_1994-11-23_INTV DESR FILMING FOR DOC BTS B CAM_LGP06857
002458  ERN_F0905_NSCR_1994-11-23_INTV_DESR_FILMING_FOR_DOC_BTS_B_CAM_LGP06857                                                            A18   C        04:05:52:26 04:05:56:04 00:56:06:22 00:56:10:04 
M2      ERN_F0905_NSCR_1994-11-23_INTV_DESR_FILMING_FOR_DOC_BTS_B_CAM_LGP06857                                                                     030.0 04:05:52:26 
*FROM CLIP NAME:  ERN_F0905_NSCR_1994-11-23_INTV DESR FILMING FOR DOC BTS B CAM_LGP06857.NEW.01 
*SOURCE FILE: ERN_F0905_NSCR_1994-11-23_INTV DESR FILMING FOR DOC BTS B CAM_LGP06857
002459  ERN_F0905_NSCR_1994-11-23_INTV_DESR_FILMING_FOR_DOC_BTS_B_CAM_LGP06857                                                            A18   C        04:05:56:04 04:05:56:07 00:56:10:04 00:56:10:06 
M2      ERN_F0905_NSCR_1994-11-23_INTV_DESR_FILMING_FOR_DOC_BTS_B_CAM_LGP06857                                                                     030.0 04:05:56:04 
*FROM CLIP NAME:  ERN_F0905_NSCR_1994-11-23_INTV DESR FILMING FOR DOC BTS B CAM_LGP06857.NEW.01 
*TO CLIP NAME:  ERN_F0905_NSCR_1994-11-23_INTV DESR FILMING FOR DOC BTS B CAM_LGP06857.NEW.01 
*SOURCE FILE: ERN_F0905_NSCR_1994-11-23_INTV DESR FILMING FOR DOC BTS B CAM_LGP06857
002460  ERN_F0905_NSCR_1994-11-23_INTV_DESR_FILMING_FOR_DOC_BTS_B_CAM_LGP06857                                                            A18   C        04:05:56:06 04:06:06:15 00:56:10:06 00:56:20:11 
M2      ERN_F0905_NSCR_1994-11-23_INTV_DESR_FILMING_FOR_DOC_BTS_B_CAM_LGP06857                                                                     030.0 04:05:56:06 
*FROM CLIP NAME:  ERN_F0905_NSCR_1994-11-23_INTV DESR FILMING FOR DOC BTS B CAM_LGP06857.NEW.01 
*SOURCE FILE: ERN_F0905_NSCR_1994-11-23_INTV DESR FILMING FOR DOC BTS B CAM_LGP06857
002461  ERN_F0905_NSCR_1994-11-23_INTV_DESR_FILMING_FOR_DOC_BTS_B_CAM_LGP06857                                                            A18   C        04:06:56:04 04:07:11:12 00:56:20:11 00:56:35:15 
M2      ERN_F0905_NSCR_1994-11-23_INTV_DESR_FILMING_FOR_DOC_BTS_B_CAM_LGP06857                                                                     030.0 04:06:56:04 
*FROM CLIP NAME:  ERN_F0905_NSCR_1994-11-23_INTV DESR FILMING FOR DOC BTS B CAM_LGP06857.NEW.01 
*SOURCE FILE: ERN_F0905_NSCR_1994-11-23_INTV DESR FILMING FOR DOC BTS B CAM_LGP06857
002462  ERN_F0905_NSCR_1994-11-23_INTV_DESR_FILMING_FOR_DOC_BTS_B_CAM_LGP06857                                                            V     C        04:06:58:26 04:07:15:17 00:56:23:04 00:56:39:19 
M2      ERN_F0905_NSCR_1994-11-23_INTV_DESR_FILMING_FOR_DOC_BTS_B_CAM_LGP06857                                                                     030.0 04:06:58:26 
*FROM CLIP NAME:  ERN_F0905_NSCR_1994-11-23_INTV DESR FILMING FOR DOC BTS B CAM_LGP06857.NEW.01 
*SOURCE FILE: ERN_F0905_NSCR_1994-11-23_INTV DESR FILMING FOR DOC BTS B CAM_LGP06857
002463  ERN_F0905_NSCR_1994-11-23_INTV_DESR_FILMING_FOR_DOC_BTS_B_CAM_LGP06857                                                            A18   C        04:07:14:24 04:07:18:18 00:56:35:15 00:56:39:10 
M2      ERN_F0905_NSCR_1994-11-23_INTV_DESR_FILMING_FOR_DOC_BTS_B_CAM_LGP06857                                                                     030.0 04:07:14:24 
*FROM CLIP NAME:  ERN_F0905_NSCR_1994-11-23_INTV DESR FILMING FOR DOC BTS B CAM_LGP06857.NEW.01 
*SOURCE FILE: ERN_F0905_NSCR_1994-11-23_INTV DESR FILMING FOR DOC BTS B CAM_LGP06857
002464  ERN_F0905_NSCR_1994-11-23_INTV_DESR_FILMING_FOR_DOC_BTS_B_CAM_LGP06857                                                            A18   C        04:07:19:21 04:07:19:25 00:56:39:10 00:56:39:12 
M2      ERN_F0905_NSCR_1994-11-23_INTV_DESR_FILMING_FOR_DOC_BTS_B_CAM_LGP06857                                                                     030.0 04:07:19:21 
*FROM CLIP NAME:  ERN_F0905_NSCR_1994-11-23_INTV DESR FILMING FOR DOC BTS B CAM_LGP06857.NEW.01 
*TO CLIP NAME:  ERN_F0905_NSCR_1994-11-23_INTV DESR FILMING FOR DOC BTS B CAM_LGP06857.NEW.01 
*SOURCE FILE: ERN_F0905_NSCR_1994-11-23_INTV DESR FILMING FOR DOC BTS B CAM_LGP06857
002465  ERN_F0905_NSCR_1994-11-23_INTV_DESR_FILMING_FOR_DOC_BTS_B_CAM_LGP06857                                                            A18   C        04:07:19:24 04:07:29:25 00:56:39:12 00:56:49:12 
M2      ERN_F0905_NSCR_1994-11-23_INTV_DESR_FILMING_FOR_DOC_BTS_B_CAM_LGP06857                                                                     030.0 04:07:19:24 
*FROM CLIP NAME:  ERN_F0905_NSCR_1994-11-23_INTV DESR FILMING FOR DOC BTS B CAM_LGP06857.NEW.01 
*SOURCE FILE: ERN_F0905_NSCR_1994-11-23_INTV DESR FILMING FOR DOC BTS B CAM_LGP06857
002466  ERN_F0905_NSCR_1994-11-23_INTV_DESR_FILMING_FOR_DOC_BTS_B_CAM_LGP06857                                                            V     C        04:07:20:03 04:07:30:23 00:56:39:19 00:56:50:11 
M2      ERN_F0905_NSCR_1994-11-23_INTV_DESR_FILMING_FOR_DOC_BTS_B_CAM_LGP06857                                                                     030.0 04:07:20:03 
*FROM CLIP NAME:  ERN_F0905_NSCR_1994-11-23_INTV DESR FILMING FOR DOC BTS B CAM_LGP06857.NEW.01 
*SOURCE FILE: ERN_F0905_NSCR_1994-11-23_INTV DESR FILMING FOR DOC BTS B CAM_LGP06857
002467  ERN_F0905_NSCR_1994-11-23_INTV_DESR_FILMING_FOR_DOC_BTS_B_CAM_LGP06857                                                            A18   C        04:07:31:09 04:07:31:25 00:56:49:12 00:56:50:00 
M2      ERN_F0905_NSCR_1994-11-23_INTV_DESR_FILMING_FOR_DOC_BTS_B_CAM_LGP06857                                                                     030.0 04:07:31:09 
*FROM CLIP NAME:  ERN_F0905_NSCR_1994-11-23_INTV DESR FILMING FOR DOC BTS B CAM_LGP06857.NEW.01 
*TO CLIP NAME:  ERN_F0905_NSCR_1994-11-23_INTV DESR FILMING FOR DOC BTS B CAM_LGP06857.NEW.01 
*SOURCE FILE: ERN_F0905_NSCR_1994-11-23_INTV DESR FILMING FOR DOC BTS B CAM_LGP06857
002468  ERN_F0905_NSCR_1994-11-23_INTV_DESR_FILMING_FOR_DOC_BTS_B_CAM_LGP06857                                                            A18   C        04:07:31:24 04:07:53:08 00:56:50:00 00:57:11:11 
M2      ERN_F0905_NSCR_1994-11-23_INTV_DESR_FILMING_FOR_DOC_BTS_B_CAM_LGP06857                                                                     030.0 04:07:31:24 
*FROM CLIP NAME:  ERN_F0905_NSCR_1994-11-23_INTV DESR FILMING FOR DOC BTS B CAM_LGP06857.NEW.01 
*SOURCE FILE: ERN_F0905_NSCR_1994-11-23_INTV DESR FILMING FOR DOC BTS B CAM_LGP06857
002469  ERN_F0905_NSCR_1994-11-23_INTV_DESR_FILMING_FOR_DOC_BTS_B_CAM_LGP06857                                                            V     C        04:07:32:08 04:07:55:05 00:56:50:11 00:57:13:08 
M2      ERN_F0905_NSCR_1994-11-23_INTV_DESR_FILMING_FOR_DOC_BTS_B_CAM_LGP06857                                                                     030.0 04:07:32:08 
*FROM CLIP NAME:  ERN_F0905_NSCR_1994-11-23_INTV DESR FILMING FOR DOC BTS B CAM_LGP06857.NEW.01 
*SOURCE FILE: ERN_F0905_NSCR_1994-11-23_INTV DESR FILMING FOR DOC BTS B CAM_LGP06857
002470  ERN_F1979_NSCR_1994-10-23_RACE_B-ROLL_AC_DELCO_500_ROCKINGHAM_DESR_NO3_WINNING_CELEBRATION_W_CHOCOLATE_MYERS_&_TERESA_EARNHARDT_& V     C        06:12:09:02 06:12:23:23 00:57:13:08 00:57:28:00 
M2      ERN_F1979_NSCR_1994-10-23_RACE_B-ROLL_AC_DELCO_500_ROCKINGHAM_DESR_NO3_WINNING_CELEBRATION_W_CHOCOLATE_MYERS_&_TERESA_EARNHARDT_&          030.0 06:12:09:02 
*FROM CLIP NAME:  ERN_F1979_NSCR_1994-10-23_RACE B-ROLL AC DELCO 500 ROCKINGHAM DESR NO3 WINNING CELEBRATION W CHOCOLATE MYERS & TERESA EARNHARDT & CREW_LGP04404_S006.NEW.01 
*SOURCE FILE: ERN_F1979_NSCR_1994-10-23_RACE B-ROLL AC DELCO 500 ROCKINGHAM DESR NO3 WINNING CELEBRATION W CHOCOLATE MYERS & TERESA EARNHARDT & CREW_LGP04404_S006
002471  ERN_F0246_NSCR_1994-11-30_NEWS_INTV_RACE_DAY_DALE_EARNHARDT_SATELLITE_TOPICS_-_7TH_CHAMPIONSHIP_&_SPEED_REDUCTION_IN_NASCAR_SE005 A18   C        03:14:38:20 03:14:43:17 00:57:18:08 00:57:23:05 
M2      ERN_F0246_NSCR_1994-11-30_NEWS_INTV_RACE_DAY_DALE_EARNHARDT_SATELLITE_TOPICS_-_7TH_CHAMPIONSHIP_&_SPEED_REDUCTION_IN_NASCAR_SE005          030.0 03:14:38:20 
*FROM CLIP NAME:  ERN_F0246_NSCR_1994-11-30_NEWS INTV RACE DAY DALE EARNHARDT SATELLITE TOPICS - 7TH CHAMPIONSHIP & SPEED REDUCTION IN NASCAR_SE005845.NEW.01 
*SOURCE FILE: ERN_F0246_NSCR_1994-11-30_NEWS INTV RACE DAY DALE EARNHARDT SATELLITE TOPICS - 7TH CHAMPIONSHIP & SPEED REDUCTION IN NASCAR_SE005845
002472  ERN_F0246_NSCR_1994-11-30_NEWS_INTV_RACE_DAY_DALE_EARNHARDT_SATELLITE_TOPICS_-_7TH_CHAMPIONSHIP_&_SPEED_REDUCTION_IN_NASCAR_SE005 A18   C        03:14:44:28 03:14:45:03 00:57:23:05 00:57:23:08 
M2      ERN_F0246_NSCR_1994-11-30_NEWS_INTV_RACE_DAY_DALE_EARNHARDT_SATELLITE_TOPICS_-_7TH_CHAMPIONSHIP_&_SPEED_REDUCTION_IN_NASCAR_SE005          030.0 03:14:44:28 
*FROM CLIP NAME:  ERN_F0246_NSCR_1994-11-30_NEWS INTV RACE DAY DALE EARNHARDT SATELLITE TOPICS - 7TH CHAMPIONSHIP & SPEED REDUCTION IN NASCAR_SE005845.NEW.01 
*TO CLIP NAME:  ERN_F0246_NSCR_1994-11-30_NEWS INTV RACE DAY DALE EARNHARDT SATELLITE TOPICS - 7TH CHAMPIONSHIP & SPEED REDUCTION IN NASCAR_SE005845.NEW.01 
*SOURCE FILE: ERN_F0246_NSCR_1994-11-30_NEWS INTV RACE DAY DALE EARNHARDT SATELLITE TOPICS - 7TH CHAMPIONSHIP & SPEED REDUCTION IN NASCAR_SE005845
002473  ERN_F0246_NSCR_1994-11-30_NEWS_INTV_RACE_DAY_DALE_EARNHARDT_SATELLITE_TOPICS_-_7TH_CHAMPIONSHIP_&_SPEED_REDUCTION_IN_NASCAR_SE005 A18   C        03:14:45:02 03:14:45:09 00:57:23:08 00:57:23:13 
M2      ERN_F0246_NSCR_1994-11-30_NEWS_INTV_RACE_DAY_DALE_EARNHARDT_SATELLITE_TOPICS_-_7TH_CHAMPIONSHIP_&_SPEED_REDUCTION_IN_NASCAR_SE005          030.0 03:14:45:02 
*FROM CLIP NAME:  ERN_F0246_NSCR_1994-11-30_NEWS INTV RACE DAY DALE EARNHARDT SATELLITE TOPICS - 7TH CHAMPIONSHIP & SPEED REDUCTION IN NASCAR_SE005845.NEW.01 
*SOURCE FILE: ERN_F0246_NSCR_1994-11-30_NEWS INTV RACE DAY DALE EARNHARDT SATELLITE TOPICS - 7TH CHAMPIONSHIP & SPEED REDUCTION IN NASCAR_SE005845
002474  ERN_F0246_NSCR_1994-11-30_NEWS_INTV_RACE_DAY_DALE_EARNHARDT_SATELLITE_TOPICS_-_7TH_CHAMPIONSHIP_&_SPEED_REDUCTION_IN_NASCAR_SE005 A18   C        03:14:45:22 03:14:45:27 00:57:23:13 00:57:23:16 
M2      ERN_F0246_NSCR_1994-11-30_NEWS_INTV_RACE_DAY_DALE_EARNHARDT_SATELLITE_TOPICS_-_7TH_CHAMPIONSHIP_&_SPEED_REDUCTION_IN_NASCAR_SE005          030.0 03:14:45:22 
*FROM CLIP NAME:  ERN_F0246_NSCR_1994-11-30_NEWS INTV RACE DAY DALE EARNHARDT SATELLITE TOPICS - 7TH CHAMPIONSHIP & SPEED REDUCTION IN NASCAR_SE005845.NEW.01 
*TO CLIP NAME:  ERN_F0246_NSCR_1994-11-30_NEWS INTV RACE DAY DALE EARNHARDT SATELLITE TOPICS - 7TH CHAMPIONSHIP & SPEED REDUCTION IN NASCAR_SE005845.NEW.01 
*SOURCE FILE: ERN_F0246_NSCR_1994-11-30_NEWS INTV RACE DAY DALE EARNHARDT SATELLITE TOPICS - 7TH CHAMPIONSHIP & SPEED REDUCTION IN NASCAR_SE005845
002475  ERN_F0246_NSCR_1994-11-30_NEWS_INTV_RACE_DAY_DALE_EARNHARDT_SATELLITE_TOPICS_-_7TH_CHAMPIONSHIP_&_SPEED_REDUCTION_IN_NASCAR_SE005 A18   C        03:14:45:26 03:14:51:19 00:57:23:16 00:57:29:10 
M2      ERN_F0246_NSCR_1994-11-30_NEWS_INTV_RACE_DAY_DALE_EARNHARDT_SATELLITE_TOPICS_-_7TH_CHAMPIONSHIP_&_SPEED_REDUCTION_IN_NASCAR_SE005          030.0 03:14:45:26 
*FROM CLIP NAME:  ERN_F0246_NSCR_1994-11-30_NEWS INTV RACE DAY DALE EARNHARDT SATELLITE TOPICS - 7TH CHAMPIONSHIP & SPEED REDUCTION IN NASCAR_SE005845.NEW.01 
*SOURCE FILE: ERN_F0246_NSCR_1994-11-30_NEWS INTV RACE DAY DALE EARNHARDT SATELLITE TOPICS - 7TH CHAMPIONSHIP & SPEED REDUCTION IN NASCAR_SE005845
002476  ERN_F1979_NSCR_1994-10-23_RACE_B-ROLL_AC_DELCO_500_ROCKINGHAM_DESR_NO3_WINNING_CELEBRATION_W_CHOCOLATE_MYERS_&_TERESA_EARNHARDT_& V     C        06:13:43:17 06:13:52:24 00:57:28:00 00:57:37:05 
M2      ERN_F1979_NSCR_1994-10-23_RACE_B-ROLL_AC_DELCO_500_ROCKINGHAM_DESR_NO3_WINNING_CELEBRATION_W_CHOCOLATE_MYERS_&_TERESA_EARNHARDT_&          030.0 06:13:43:17 
*FROM CLIP NAME:  ERN_F1979_NSCR_1994-10-23_RACE B-ROLL AC DELCO 500 ROCKINGHAM DESR NO3 WINNING CELEBRATION W CHOCOLATE MYERS & TERESA EARNHARDT & CREW_LGP04404_S006.NEW.01 
*SOURCE FILE: ERN_F1979_NSCR_1994-10-23_RACE B-ROLL AC DELCO 500 ROCKINGHAM DESR NO3 WINNING CELEBRATION W CHOCOLATE MYERS & TERESA EARNHARDT & CREW_LGP04404_S006
002477  ERN_F0246_NSCR_1994-11-30_NEWS_INTV_RACE_DAY_DALE_EARNHARDT_SATELLITE_TOPICS_-_7TH_CHAMPIONSHIP_&_SPEED_REDUCTION_IN_NASCAR_SE005 A18   C        03:15:00:07 03:15:00:10 00:57:30:21 00:57:30:23 
M2      ERN_F0246_NSCR_1994-11-30_NEWS_INTV_RACE_DAY_DALE_EARNHARDT_SATELLITE_TOPICS_-_7TH_CHAMPIONSHIP_&_SPEED_REDUCTION_IN_NASCAR_SE005          030.0 03:15:00:07 
*FROM CLIP NAME:  ERN_F0246_NSCR_1994-11-30_NEWS INTV RACE DAY DALE EARNHARDT SATELLITE TOPICS - 7TH CHAMPIONSHIP & SPEED REDUCTION IN NASCAR_SE005845.NEW.01 
*SOURCE FILE: ERN_F0246_NSCR_1994-11-30_NEWS INTV RACE DAY DALE EARNHARDT SATELLITE TOPICS - 7TH CHAMPIONSHIP & SPEED REDUCTION IN NASCAR_SE005845
002478  ERN_F0246_NSCR_1994-11-30_NEWS_INTV_RACE_DAY_DALE_EARNHARDT_SATELLITE_TOPICS_-_7TH_CHAMPIONSHIP_&_SPEED_REDUCTION_IN_NASCAR_SE005 A18   C        03:15:00:09 03:15:07:19 00:57:30:23 00:57:38:06 
M2      ERN_F0246_NSCR_1994-11-30_NEWS_INTV_RACE_DAY_DALE_EARNHARDT_SATELLITE_TOPICS_-_7TH_CHAMPIONSHIP_&_SPEED_REDUCTION_IN_NASCAR_SE005          030.0 03:15:00:09 
*FROM CLIP NAME:  ERN_F0246_NSCR_1994-11-30_NEWS INTV RACE DAY DALE EARNHARDT SATELLITE TOPICS - 7TH CHAMPIONSHIP & SPEED REDUCTION IN NASCAR_SE005845.NEW.01 
*SOURCE FILE: ERN_F0246_NSCR_1994-11-30_NEWS INTV RACE DAY DALE EARNHARDT SATELLITE TOPICS - 7TH CHAMPIONSHIP & SPEED REDUCTION IN NASCAR_SE005845
002479  ERN_F1979_NSCR_1994-10-23_RACE_B-ROLL_AC_DELCO_500_ROCKINGHAM_DESR_NO3_WINNING_CELEBRATION_W_CHOCOLATE_MYERS_&_TERESA_EARNHARDT_& V     C        06:10:57:04 06:11:07:28 00:57:37:05 00:57:47:23 
M2      ERN_F1979_NSCR_1994-10-23_RACE_B-ROLL_AC_DELCO_500_ROCKINGHAM_DESR_NO3_WINNING_CELEBRATION_W_CHOCOLATE_MYERS_&_TERESA_EARNHARDT_&          030.0 06:10:57:04 
*FROM CLIP NAME:  ERN_F1979_NSCR_1994-10-23_RACE B-ROLL AC DELCO 500 ROCKINGHAM DESR NO3 WINNING CELEBRATION W CHOCOLATE MYERS & TERESA EARNHARDT & CREW_LGP04404_S006.NEW.01 
*SOURCE FILE: ERN_F1979_NSCR_1994-10-23_RACE B-ROLL AC DELCO 500 ROCKINGHAM DESR NO3 WINNING CELEBRATION W CHOCOLATE MYERS & TERESA EARNHARDT & CREW_LGP04404_S006
002480  ERN_F1979_NSCR_1994-10-23_RACE_B-ROLL_AC_DELCO_500_ROCKINGHAM_DESR_NO3_WINNING_CELEBRATION_W_CHOCOLATE_MYERS_&_TERESA_EARNHARDT_& V     C        06:15:10:14 06:15:13:24 00:57:47:23 00:57:51:06 
M2      ERN_F1979_NSCR_1994-10-23_RACE_B-ROLL_AC_DELCO_500_ROCKINGHAM_DESR_NO3_WINNING_CELEBRATION_W_CHOCOLATE_MYERS_&_TERESA_EARNHARDT_&          030.0 06:15:10:14 
*FROM CLIP NAME:  ERN_F1979_NSCR_1994-10-23_RACE B-ROLL AC DELCO 500 ROCKINGHAM DESR NO3 WINNING CELEBRATION W CHOCOLATE MYERS & TERESA EARNHARDT & CREW_LGP04404_S006.NEW.01 
*SOURCE FILE: ERN_F1979_NSCR_1994-10-23_RACE B-ROLL AC DELCO 500 ROCKINGHAM DESR NO3 WINNING CELEBRATION W CHOCOLATE MYERS & TERESA EARNHARDT & CREW_LGP04404_S006
002481  ERN_F1979_NSCR_1994-10-23_RACE_B-ROLL_AC_DELCO_500_ROCKINGHAM_DESR_NO3_WINNING_CELEBRATION_W_CHOCOLATE_MYERS_&_TERESA_EARNHARDT_& V     C        06:15:26:17 06:15:35:28 00:57:51:06 00:58:01:07 
M2      ERN_F1979_NSCR_1994-10-23_RACE_B-ROLL_AC_DELCO_500_ROCKINGHAM_DESR_NO3_WINNING_CELEBRATION_W_CHOCOLATE_MYERS_&_TERESA_EARNHARDT_&          027.9 06:15:26:17 
*FROM CLIP NAME:  ERN_F1979_NSCR_1994-10-23_RACE B-ROLL AC DELCO 500 ROCKINGHAM DESR NO3 WINNING CELEBRATION W CHOCOLATE MYERS & TERESA EARNHARDT & CREW_LGP04404_S006.NEW.01 
*SOURCE FILE: ERN_F1979_NSCR_1994-10-23_RACE B-ROLL AC DELCO 500 ROCKINGHAM DESR NO3 WINNING CELEBRATION W CHOCOLATE MYERS & TERESA EARNHARDT & CREW_LGP04404_S006
002482  ERN_F1767_NSCR_1994-12-01_NEW_YORK_CITY_MEYERS_BROTHERS_DESR_TIMES_SQUARE_DESR_INTV_B-ROLL_SE001042                               A20   C        00:12:06:23 00:12:07:04 00:58:04:10 00:58:04:18 
M2      ERN_F1767_NSCR_1994-12-01_NEW_YORK_CITY_MEYERS_BROTHERS_DESR_TIMES_SQUARE_DESR_INTV_B-ROLL_SE001042                                        030.0 00:12:06:23 
*FROM CLIP NAME:  ERN_F1767_NSCR_1994-12-01_NEW YORK CITY MEYERS BROTHERS DESR TIMES SQUARE DESR INTV B-ROLL_SE001042.NEW.01 
*SOURCE FILE: ERN_F1767_NSCR_1994-12-01_NEW YORK CITY MEYERS BROTHERS DESR TIMES SQUARE DESR INTV B-ROLL_SE001042
002483  ERN_F1650_NSCR_1993-12-03_NEW_YORK_CITY_STREETS_B-ROLL_FAN_INTV_DESR_DAN_MEET_GREET_PHOTO_OP_PRESS_WALDORF_ANNOUNCER_93-EV-0523   V     C        00:02:46:23 00:02:47:08 00:58:04:10 00:58:04:22 
M2      ERN_F1650_NSCR_1993-12-03_NEW_YORK_CITY_STREETS_B-ROLL_FAN_INTV_DESR_DAN_MEET_GREET_PHOTO_OP_PRESS_WALDORF_ANNOUNCER_93-EV-0523            030.0 00:02:46:23 
*FROM CLIP NAME:  ERN_F1650_NSCR_1993-12-03_NEW YORK CITY STREETS B-ROLL FAN INTV DESR DAN MEET GREET PHOTO OP PRESS WALDORF ANNOUNCER_93-EV-0523.NEW.01 
*SOURCE FILE: ERN_F1650_NSCR_1993-12-03_NEW YORK CITY STREETS B-ROLL FAN INTV DESR DAN MEET GREET PHOTO OP PRESS WALDORF ANNOUNCER_93-EV-0523
002484  ERN_F1650_NSCR_1993-12-03_NEW_YORK_CITY_STREETS_B-ROLL_FAN_INTV_DESR_DAN_MEET_GREET_PHOTO_OP_PRESS_WALDORF_ANNOUNCER_93-EV-0523   A18   C        00:13:52:29 00:13:53:17 00:58:04:10 00:58:05:00 
M2      ERN_F1650_NSCR_1993-12-03_NEW_YORK_CITY_STREETS_B-ROLL_FAN_INTV_DESR_DAN_MEET_GREET_PHOTO_OP_PRESS_WALDORF_ANNOUNCER_93-EV-0523            030.0 00:13:52:29 
*FROM CLIP NAME:  ERN_F1650_NSCR_1993-12-03_NEW YORK CITY STREETS B-ROLL FAN INTV DESR DAN MEET GREET PHOTO OP PRESS WALDORF ANNOUNCER_93-EV-0523.NEW.01 
*SOURCE FILE: ERN_F1650_NSCR_1993-12-03_NEW YORK CITY STREETS B-ROLL FAN INTV DESR DAN MEET GREET PHOTO OP PRESS WALDORF ANNOUNCER_93-EV-0523
002485  ERN_F1650_NSCR_1993-12-03_NEW_YORK_CITY_STREETS_B-ROLL_FAN_INTV_DESR_DAN_MEET_GREET_PHOTO_OP_PRESS_WALDORF_ANNOUNCER_93-EV-0523   A22   C        00:04:26:19 00:04:27:15 00:58:04:10 00:58:05:06 
M2      ERN_F1650_NSCR_1993-12-03_NEW_YORK_CITY_STREETS_B-ROLL_FAN_INTV_DESR_DAN_MEET_GREET_PHOTO_OP_PRESS_WALDORF_ANNOUNCER_93-EV-0523            030.0 00:04:26:19 
*FROM CLIP NAME:  ERN_F1650_NSCR_1993-12-03_NEW YORK CITY STREETS B-ROLL FAN INTV DESR DAN MEET GREET PHOTO OP PRESS WALDORF ANNOUNCER_93-EV-0523.NEW.01 
*SOURCE FILE: ERN_F1650_NSCR_1993-12-03_NEW YORK CITY STREETS B-ROLL FAN INTV DESR DAN MEET GREET PHOTO OP PRESS WALDORF ANNOUNCER_93-EV-0523
002486  ERN_F1767_NSCR_1994-12-01_NEW_YORK_CITY_MEYERS_BROTHERS_DESR_TIMES_SQUARE_DESR_INTV_B-ROLL_SE001042                               A20   C        00:12:07:03 00:12:08:10 00:58:04:18 00:58:05:23 
M2      ERN_F1767_NSCR_1994-12-01_NEW_YORK_CITY_MEYERS_BROTHERS_DESR_TIMES_SQUARE_DESR_INTV_B-ROLL_SE001042                                        030.0 00:12:07:03 
*FROM CLIP NAME:  ERN_F1767_NSCR_1994-12-01_NEW YORK CITY MEYERS BROTHERS DESR TIMES SQUARE DESR INTV B-ROLL_SE001042.NEW.01 
*SOURCE FILE: ERN_F1767_NSCR_1994-12-01_NEW YORK CITY MEYERS BROTHERS DESR TIMES SQUARE DESR INTV B-ROLL_SE001042
002487  ERN_F1650_NSCR_1993-12-03_NEW_YORK_CITY_STREETS_B-ROLL_FAN_INTV_DESR_DAN_MEET_GREET_PHOTO_OP_PRESS_WALDORF_ANNOUNCER_93-EV-0523   V     C        00:02:47:08 00:02:48:23 00:58:04:22 00:58:06:10 
M2      ERN_F1650_NSCR_1993-12-03_NEW_YORK_CITY_STREETS_B-ROLL_FAN_INTV_DESR_DAN_MEET_GREET_PHOTO_OP_PRESS_WALDORF_ANNOUNCER_93-EV-0523            030.0 00:02:47:08 
*FROM CLIP NAME:  ERN_F1650_NSCR_1993-12-03_NEW YORK CITY STREETS B-ROLL FAN INTV DESR DAN MEET GREET PHOTO OP PRESS WALDORF ANNOUNCER_93-EV-0523.NEW.01 
*SOURCE FILE: ERN_F1650_NSCR_1993-12-03_NEW YORK CITY STREETS B-ROLL FAN INTV DESR DAN MEET GREET PHOTO OP PRESS WALDORF ANNOUNCER_93-EV-0523
002488  ERN_F1650_NSCR_1993-12-03_NEW_YORK_CITY_STREETS_B-ROLL_FAN_INTV_DESR_DAN_MEET_GREET_PHOTO_OP_PRESS_WALDORF_ANNOUNCER_93-EV-0523   A18   C        00:13:53:16 00:13:53:23 00:58:05:00 00:58:05:05 
M2      ERN_F1650_NSCR_1993-12-03_NEW_YORK_CITY_STREETS_B-ROLL_FAN_INTV_DESR_DAN_MEET_GREET_PHOTO_OP_PRESS_WALDORF_ANNOUNCER_93-EV-0523            030.0 00:13:53:16 
*FROM CLIP NAME:  ERN_F1650_NSCR_1993-12-03_NEW YORK CITY STREETS B-ROLL FAN INTV DESR DAN MEET GREET PHOTO OP PRESS WALDORF ANNOUNCER_93-EV-0523.NEW.01 
*SOURCE FILE: ERN_F1650_NSCR_1993-12-03_NEW YORK CITY STREETS B-ROLL FAN INTV DESR DAN MEET GREET PHOTO OP PRESS WALDORF ANNOUNCER_93-EV-0523
002489  ERN_F1650_NSCR_1993-12-03_NEW_YORK_CITY_STREETS_B-ROLL_FAN_INTV_DESR_DAN_MEET_GREET_PHOTO_OP_PRESS_WALDORF_ANNOUNCER_93-EV-0523   A22   C        00:04:27:14 00:04:27:29 00:58:05:06 00:58:05:17 
M2      ERN_F1650_NSCR_1993-12-03_NEW_YORK_CITY_STREETS_B-ROLL_FAN_INTV_DESR_DAN_MEET_GREET_PHOTO_OP_PRESS_WALDORF_ANNOUNCER_93-EV-0523            030.0 00:04:27:14 
*FROM CLIP NAME:  ERN_F1650_NSCR_1993-12-03_NEW YORK CITY STREETS B-ROLL FAN INTV DESR DAN MEET GREET PHOTO OP PRESS WALDORF ANNOUNCER_93-EV-0523.NEW.01 
*SOURCE FILE: ERN_F1650_NSCR_1993-12-03_NEW YORK CITY STREETS B-ROLL FAN INTV DESR DAN MEET GREET PHOTO OP PRESS WALDORF ANNOUNCER_93-EV-0523
002490  ERN_F1767_NSCR_1994-12-01_NEW_YORK_CITY_MEYERS_BROTHERS_DESR_TIMES_SQUARE_DESR_INTV_B-ROLL_SE001042                               V     C        00:15:53:02 00:15:54:04 00:58:06:10 00:58:07:11 
M2      ERN_F1767_NSCR_1994-12-01_NEW_YORK_CITY_MEYERS_BROTHERS_DESR_TIMES_SQUARE_DESR_INTV_B-ROLL_SE001042                                        030.0 00:15:53:02 
*FROM CLIP NAME:  ERN_F1767_NSCR_1994-12-01_NEW YORK CITY MEYERS BROTHERS DESR TIMES SQUARE DESR INTV B-ROLL_SE001042.NEW.01 
*SOURCE FILE: ERN_F1767_NSCR_1994-12-01_NEW YORK CITY MEYERS BROTHERS DESR TIMES SQUARE DESR INTV B-ROLL_SE001042
002491  ERN_F5264_NSCR_1997-02-16_DAYTONA_500-RACE_BROADCAST_DESR_NO3_GOODWRENCH_97-EV-0087                                               V     C        04:08:12:20 04:08:14:14 00:58:07:11 00:58:09:06 
M2      ERN_F5264_NSCR_1997-02-16_DAYTONA_500-RACE_BROADCAST_DESR_NO3_GOODWRENCH_97-EV-0087                                                        030.0 04:08:12:20 
*FROM CLIP NAME:  ERN_F5264_NSCR_1997-02-16_DAYTONA 500-RACE BROADCAST DESR NO3 GOODWRENCH_97-EV-0087.NEW.01 
*SOURCE FILE: ERN_F5264_NSCR_1997-02-16_DAYTONA 500-RACE BROADCAST DESR NO3 GOODWRENCH_97-EV-0087
002492  ERN_F0207_NSCR_1991-01-20_IN_CAR_POV_DALE_EARNHARDT_TEST_DRIVE_DAYTONA_ISC-00061                                                  A20   C        00:03:42:17 00:03:43:03 00:58:08:20 00:58:09:08 
M2      ERN_F0207_NSCR_1991-01-20_IN_CAR_POV_DALE_EARNHARDT_TEST_DRIVE_DAYTONA_ISC-00061                                                           030.0 00:03:42:17 
*FROM CLIP NAME:  ERN_F0207_NSCR_1991-01-20_IN CAR POV DALE EARNHARDT TEST DRIVE DAYTONA_ISC-00061.NEW.02 
*SOURCE FILE: ERN_F0207_NSCR_1991-01-20_IN CAR POV DALE EARNHARDT TEST DRIVE DAYTONA_ISC-00061
002493  ERN_F0207_NSCR_1991-01-20_IN_CAR_POV_DALE_EARNHARDT_TEST_DRIVE_DAYTONA_ISC-00061                                                  V     C        00:03:43:00 00:03:46:20 00:58:09:06 00:58:12:22 
M2      ERN_F0207_NSCR_1991-01-20_IN_CAR_POV_DALE_EARNHARDT_TEST_DRIVE_DAYTONA_ISC-00061                                                           030.0 00:03:43:00 
*FROM CLIP NAME:  ERN_F0207_NSCR_1991-01-20_IN CAR POV DALE EARNHARDT TEST DRIVE DAYTONA_ISC-00061.NEW.02 
*SOURCE FILE: ERN_F0207_NSCR_1991-01-20_IN CAR POV DALE EARNHARDT TEST DRIVE DAYTONA_ISC-00061
002494  ERN_F0207_NSCR_1991-01-20_IN_CAR_POV_DALE_EARNHARDT_TEST_DRIVE_DAYTONA_ISC-00061                                                  A20   C        00:03:43:02 00:03:49:24 00:58:09:08 00:58:16:01 
M2      ERN_F0207_NSCR_1991-01-20_IN_CAR_POV_DALE_EARNHARDT_TEST_DRIVE_DAYTONA_ISC-00061                                                           030.0 00:03:43:02 
*FROM CLIP NAME:  ERN_F0207_NSCR_1991-01-20_IN CAR POV DALE EARNHARDT TEST DRIVE DAYTONA_ISC-00061.NEW.02 
*SOURCE FILE: ERN_F0207_NSCR_1991-01-20_IN CAR POV DALE EARNHARDT TEST DRIVE DAYTONA_ISC-00061
002495  ERN_F5155_NSCR_2004-07_DEJR_DESR_INTV_AT_SHOP_DESR_SINGLE_INTVS_DESR_AND_TERESA_AT_TRACK_TOGETHER__LGP01081                       A18   C        02:23:32:15 02:23:33:07 00:58:09:23 00:58:10:16 
M2      ERN_F5155_NSCR_2004-07_DEJR_DESR_INTV_AT_SHOP_DESR_SINGLE_INTVS_DESR_AND_TERESA_AT_TRACK_TOGETHER__LGP01081                                030.0 02:23:32:15 
*FROM CLIP NAME:  ERN_F5155_NSCR_2004-07_DESR INTV.SUB.02 
*SOURCE FILE: ERN_F5155_NSCR_2004-07_DEJR DESR INTV AT SHOP DESR SINGLE INTVS DESR AND TERESA AT TRACK TOGETHER _LGP01081
002496  ERN_F5155_NSCR_2004-07_DEJR_DESR_INTV_AT_SHOP_DESR_SINGLE_INTVS_DESR_AND_TERESA_AT_TRACK_TOGETHER__LGP01081                       A18   C        02:23:33:06 02:23:33:22 00:58:10:16 00:58:11:04 
M2      ERN_F5155_NSCR_2004-07_DEJR_DESR_INTV_AT_SHOP_DESR_SINGLE_INTVS_DESR_AND_TERESA_AT_TRACK_TOGETHER__LGP01081                                030.0 02:23:33:06 
*FROM CLIP NAME:  ERN_F5155_NSCR_2004-07_DESR INTV.SUB.02 
*TO CLIP NAME:  ERN_F5155_NSCR_2004-07_DESR INTV.SUB.02 
*SOURCE FILE: ERN_F5155_NSCR_2004-07_DEJR DESR INTV AT SHOP DESR SINGLE INTVS DESR AND TERESA AT TRACK TOGETHER _LGP01081
002497  ERN_F5155_NSCR_2004-07_DEJR_DESR_INTV_AT_SHOP_DESR_SINGLE_INTVS_DESR_AND_TERESA_AT_TRACK_TOGETHER__LGP01081                       A18   C        02:23:33:21 02:23:35:23 00:58:11:04 00:58:13:05 
M2      ERN_F5155_NSCR_2004-07_DEJR_DESR_INTV_AT_SHOP_DESR_SINGLE_INTVS_DESR_AND_TERESA_AT_TRACK_TOGETHER__LGP01081                                030.0 02:23:33:21 
*FROM CLIP NAME:  ERN_F5155_NSCR_2004-07_DESR INTV.SUB.02 
*SOURCE FILE: ERN_F5155_NSCR_2004-07_DEJR DESR INTV AT SHOP DESR SINGLE INTVS DESR AND TERESA AT TRACK TOGETHER _LGP01081
002498  ERN_F2038_NSCR_1994-12-02_2_OF_2_BANQUET_BROADCAST_WINSTON_CUP_AWARDS_W_INTV_DESR_&_TERESA_EARNHARDT_SE004920                     V     C        00:12:18:23 00:12:20:19 00:58:12:22 00:58:14:18 
M2      ERN_F2038_NSCR_1994-12-02_2_OF_2_BANQUET_BROADCAST_WINSTON_CUP_AWARDS_W_INTV_DESR_&_TERESA_EARNHARDT_SE004920                              030.0 00:12:18:23 
*FROM CLIP NAME:  ERN_F2038_NSCR_1994-12-02_2 OF 2 BANQUET BROADCAST WINSTON CUP AWARDS W INTV DESR & TERESA EARNHARDT_SE004920.NEW.01 
*SOURCE FILE: ERN_F2038_NSCR_1994-12-02_2 OF 2 BANQUET BROADCAST WINSTON CUP AWARDS W INTV DESR & TERESA EARNHARDT_SE004920
002499  ERN_F5155_NSCR_2004-07_DEJR_DESR_INTV_AT_SHOP_DESR_SINGLE_INTVS_DESR_AND_TERESA_AT_TRACK_TOGETHER__LGP01081                       A18   C        02:23:42:17 02:23:42:21 00:58:13:09 00:58:13:11 
M2      ERN_F5155_NSCR_2004-07_DEJR_DESR_INTV_AT_SHOP_DESR_SINGLE_INTVS_DESR_AND_TERESA_AT_TRACK_TOGETHER__LGP01081                                030.0 02:23:42:17 
*FROM CLIP NAME:  ERN_F5155_NSCR_2004-07_DESR INTV.SUB.02 
*SOURCE FILE: ERN_F5155_NSCR_2004-07_DEJR DESR INTV AT SHOP DESR SINGLE INTVS DESR AND TERESA AT TRACK TOGETHER _LGP01081
002500  ERN_F5155_NSCR_2004-07_DEJR_DESR_INTV_AT_SHOP_DESR_SINGLE_INTVS_DESR_AND_TERESA_AT_TRACK_TOGETHER__LGP01081                       A18   C        02:23:42:20 02:23:43:21 00:58:13:11 00:58:14:11 
M2      ERN_F5155_NSCR_2004-07_DEJR_DESR_INTV_AT_SHOP_DESR_SINGLE_INTVS_DESR_AND_TERESA_AT_TRACK_TOGETHER__LGP01081                                030.0 02:23:42:20 
*FROM CLIP NAME:  ERN_F5155_NSCR_2004-07_DESR INTV.SUB.02 
*SOURCE FILE: ERN_F5155_NSCR_2004-07_DEJR DESR INTV AT SHOP DESR SINGLE INTVS DESR AND TERESA AT TRACK TOGETHER _LGP01081
002501  ERN_F5155_NSCR_2004-07_DEJR_DESR_INTV_AT_SHOP_DESR_SINGLE_INTVS_DESR_AND_TERESA_AT_TRACK_TOGETHER__LGP01081                       A18   C        02:23:44:02 02:23:44:06 00:58:14:11 00:58:14:13 
M2      ERN_F5155_NSCR_2004-07_DEJR_DESR_INTV_AT_SHOP_DESR_SINGLE_INTVS_DESR_AND_TERESA_AT_TRACK_TOGETHER__LGP01081                                030.0 02:23:44:02 
*FROM CLIP NAME:  ERN_F5155_NSCR_2004-07_DESR INTV.SUB.02 
*TO CLIP NAME:  ERN_F5155_NSCR_2004-07_DESR INTV.SUB.02 
*SOURCE FILE: ERN_F5155_NSCR_2004-07_DEJR DESR INTV AT SHOP DESR SINGLE INTVS DESR AND TERESA AT TRACK TOGETHER _LGP01081
002502  ERN_F5155_NSCR_2004-07_DEJR_DESR_INTV_AT_SHOP_DESR_SINGLE_INTVS_DESR_AND_TERESA_AT_TRACK_TOGETHER__LGP01081                       A18   C        02:23:44:05 02:23:45:21 00:58:14:13 00:58:16:01 
M2      ERN_F5155_NSCR_2004-07_DEJR_DESR_INTV_AT_SHOP_DESR_SINGLE_INTVS_DESR_AND_TERESA_AT_TRACK_TOGETHER__LGP01081                                030.0 02:23:44:05 
*FROM CLIP NAME:  ERN_F5155_NSCR_2004-07_DESR INTV.SUB.02 
*SOURCE FILE: ERN_F5155_NSCR_2004-07_DEJR DESR INTV AT SHOP DESR SINGLE INTVS DESR AND TERESA AT TRACK TOGETHER _LGP01081
002503  ERN_F2038_NSCR_1994-12-02_2_OF_2_BANQUET_BROADCAST_WINSTON_CUP_AWARDS_W_INTV_DESR_&_TERESA_EARNHARDT_SE004920                     V     C        00:12:24:06 00:12:25:15 00:58:14:18 00:58:16:08 
M2      ERN_F2038_NSCR_1994-12-02_2_OF_2_BANQUET_BROADCAST_WINSTON_CUP_AWARDS_W_INTV_DESR_&_TERESA_EARNHARDT_SE004920                              024.0 00:12:24:06 
*FROM CLIP NAME:  ERN_F2038_NSCR_1994-12-02_2 OF 2 BANQUET BROADCAST WINSTON CUP AWARDS W INTV DESR & TERESA EARNHARDT_SE004920.NEW.01 
*SOURCE FILE: ERN_F2038_NSCR_1994-12-02_2 OF 2 BANQUET BROADCAST WINSTON CUP AWARDS W INTV DESR & TERESA EARNHARDT_SE004920
002504  ERN_F1047_NSCR_1990S_RACE_B-ROLL_DEJR_STOCK_CAR_&_RACE_PREP_54__DALE_JR_2                                                         V     C        00:18:25:23 00:18:27:10 00:58:16:08 00:58:17:21 
M2      ERN_F1047_NSCR_1990S_RACE_B-ROLL_DEJR_STOCK_CAR_&_RACE_PREP_54__DALE_JR_2                                                                  030.0 00:18:25:23 
*FROM CLIP NAME:  ERN_F1047_NSCR_1990S_RACE B-ROLL DEJR STOCK CAR & RACE PREP_54_ DALE JR 2.NEW.01 
*SOURCE FILE: ERN_F1047_NSCR_1990S_RACE B-ROLL DEJR STOCK CAR & RACE PREP_54_ DALE JR 2
002505  ERN_F0507_NSCR_1995_INTV_DALE_EARNHARDT_JR_TOPICS_-_DALE_AS_A_DAD_&_MAKING_HIM_PROUD_&_DALE_AT_HOME_1995-NAS-00033_S001           A18   C        02:37:31:06 02:37:33:07 00:58:16:12 00:58:18:12 
M2      ERN_F0507_NSCR_1995_INTV_DALE_EARNHARDT_JR_TOPICS_-_DALE_AS_A_DAD_&_MAKING_HIM_PROUD_&_DALE_AT_HOME_1995-NAS-00033_S001                    030.0 02:37:31:06 
*FROM CLIP NAME:  ERN_F0507_NSCR_1995_INTV DALE EARNHARDT JR TOPICS - DALE AS A DAD & MAKING HIM PROUD & DALE AT HOME_1995-NAS-00033_S001.NEW.02 
*SOURCE FILE: ERN_F0507_NSCR_1995_INTV DALE EARNHARDT JR TOPICS - DALE AS A DAD & MAKING HIM PROUD & DALE AT HOME_1995-NAS-00033_S001
002506  ERN_F1047_NSCR_1990S_RACE_B-ROLL_DEJR_STOCK_CAR_&_RACE_PREP_54__DALE_JR_2                                                         V     C        00:09:32:23 00:09:35:02 00:58:17:21 00:58:20:04 
M2      ERN_F1047_NSCR_1990S_RACE_B-ROLL_DEJR_STOCK_CAR_&_RACE_PREP_54__DALE_JR_2                                                                  030.0 00:09:32:23 
*FROM CLIP NAME:  ERN_F1047_NSCR_1990S_RACE B-ROLL DEJR STOCK CAR & RACE PREP_54_ DALE JR 2.NEW.01 
*SOURCE FILE: ERN_F1047_NSCR_1990S_RACE B-ROLL DEJR STOCK CAR & RACE PREP_54_ DALE JR 2
002507  ERN_F0507_NSCR_1995_INTV_DALE_EARNHARDT_JR_TOPICS_-_DALE_AS_A_DAD_&_MAKING_HIM_PROUD_&_DALE_AT_HOME_1995-NAS-00033_S001           A18   C        02:37:24:22 02:37:24:26 00:58:18:12 00:58:18:14 
M2      ERN_F0507_NSCR_1995_INTV_DALE_EARNHARDT_JR_TOPICS_-_DALE_AS_A_DAD_&_MAKING_HIM_PROUD_&_DALE_AT_HOME_1995-NAS-00033_S001                    030.0 02:37:24:22 
*FROM CLIP NAME:  ERN_F0507_NSCR_1995_INTV DALE EARNHARDT JR TOPICS - DALE AS A DAD & MAKING HIM PROUD & DALE AT HOME_1995-NAS-00033_S001.NEW.02 
*TO CLIP NAME:  ERN_F0507_NSCR_1995_INTV DALE EARNHARDT JR TOPICS - DALE AS A DAD & MAKING HIM PROUD & DALE AT HOME_1995-NAS-00033_S001.NEW.02 
*SOURCE FILE: ERN_F0507_NSCR_1995_INTV DALE EARNHARDT JR TOPICS - DALE AS A DAD & MAKING HIM PROUD & DALE AT HOME_1995-NAS-00033_S001
002508  ERN_F0507_NSCR_1995_INTV_DALE_EARNHARDT_JR_TOPICS_-_DALE_AS_A_DAD_&_MAKING_HIM_PROUD_&_DALE_AT_HOME_1995-NAS-00033_S001           A18   C        02:37:24:25 02:37:25:22 00:58:18:14 00:58:19:11 
M2      ERN_F0507_NSCR_1995_INTV_DALE_EARNHARDT_JR_TOPICS_-_DALE_AS_A_DAD_&_MAKING_HIM_PROUD_&_DALE_AT_HOME_1995-NAS-00033_S001                    030.0 02:37:24:25 
*FROM CLIP NAME:  ERN_F0507_NSCR_1995_INTV DALE EARNHARDT JR TOPICS - DALE AS A DAD & MAKING HIM PROUD & DALE AT HOME_1995-NAS-00033_S001.NEW.02 
*SOURCE FILE: ERN_F0507_NSCR_1995_INTV DALE EARNHARDT JR TOPICS - DALE AS A DAD & MAKING HIM PROUD & DALE AT HOME_1995-NAS-00033_S001
002509  ERN_F2089_DIRT_1995-04-03_RACE_BTS_B-ROLL_RAW_KELLEY_KERRY_FAMILY_HICKORY_MOTOR_SPEEDWAY_NC_DMO_DRIVE                             V     C        01:50:37:23 01:50:39:14 00:58:20:04 00:58:21:19 
*FROM CLIP NAME:  ERN_F2089_DIRT_1995-04-03_RACE BTS B-ROLL RAW KELLEY KERRY FAMILY HICKORY MOTOR SPEEDWAY NC_DMO DRIVE.NEW.01 
*SOURCE FILE: ERN_F2089_DIRT_1995-04-03_RACE BTS B-ROLL RAW KELLEY KERRY FAMILY HICKORY MOTOR SPEEDWAY NC_DMO DRIVE
002510  ERN_F0080_NSCR_MIXED_DATES_RACE_B-ROLL_DESR_&_DEJR_COMPILATION_W_KELLEY_EARNHARDT_SE003529                                        A20   C        00:11:23:22 00:11:24:16 00:58:21:14 00:58:22:08 
M2      ERN_F0080_NSCR_MIXED_DATES_RACE_B-ROLL_DESR_&_DEJR_COMPILATION_W_KELLEY_EARNHARDT_SE003529                                                 030.0 00:11:23:22 
*FROM CLIP NAME:  ERN_F0080_NSCR_MIXED DATES_RACE B-ROLL DESR & DEJR COMPILATION W KELLEY EARNHARDT_SE003529.NEW.01 
*SOURCE FILE: ERN_F0080_NSCR_MIXED DATES_RACE B-ROLL DESR & DEJR COMPILATION W KELLEY EARNHARDT_SE003529
002511  ERN_F6365_NSCR_2004-06-30_RACE_B-ROLL_BTS_DEJR_SUNCO_SHOOT_2004-NAS-00021_S002                                                    V     C        01:20:13:03 01:20:14:07 00:58:21:19 00:58:22:22 
M2      ERN_F6365_NSCR_2004-06-30_RACE_B-ROLL_BTS_DEJR_SUNCO_SHOOT_2004-NAS-00021_S002                                                             060.0 01:20:13:03 
*FROM CLIP NAME:  ERN_F6365_NSCR_2004-06-30_RACE B-ROLL BTS DEJR SUNCO SHOOT_2004-NAS-00021_S002.NEW.01 
*SOURCE FILE: ERN_F6365_NSCR_2004-06-30_RACE B-ROLL BTS DEJR SUNCO SHOOT_2004-NAS-00021_S002
002512  ERN_F0080_NSCR_MIXED_DATES_RACE_B-ROLL_DESR_&_DEJR_COMPILATION_W_KELLEY_EARNHARDT_SE003529                                        A20   C        00:11:24:15 00:11:30:01 00:58:22:08 00:58:27:20 
M2      ERN_F0080_NSCR_MIXED_DATES_RACE_B-ROLL_DESR_&_DEJR_COMPILATION_W_KELLEY_EARNHARDT_SE003529                                                 030.0 00:11:24:15 
*FROM CLIP NAME:  ERN_F0080_NSCR_MIXED DATES_RACE B-ROLL DESR & DEJR COMPILATION W KELLEY EARNHARDT_SE003529.NEW.01 
*SOURCE FILE: ERN_F0080_NSCR_MIXED DATES_RACE B-ROLL DESR & DEJR COMPILATION W KELLEY EARNHARDT_SE003529
002513  ERN_F0080_NSCR_MIXED_DATES_RACE_B-ROLL_DESR_&_DEJR_COMPILATION_W_KELLEY_EARNHARDT_SE003529                                        V     C        00:10:57:00 00:10:58:15 00:58:22:22 00:58:24:09 
M2      ERN_F0080_NSCR_MIXED_DATES_RACE_B-ROLL_DESR_&_DEJR_COMPILATION_W_KELLEY_EARNHARDT_SE003529                                                 030.0 00:10:57:00 
*FROM CLIP NAME:  ERN_F0080_NSCR_MIXED DATES_RACE B-ROLL DESR & DEJR COMPILATION W KELLEY EARNHARDT_SE003529.NEW.01 
*SOURCE FILE: ERN_F0080_NSCR_MIXED DATES_RACE B-ROLL DESR & DEJR COMPILATION W KELLEY EARNHARDT_SE003529
002514  ERN_F2378_NSCR_2000-08-22_RACE_B-ROLL_PEPSI_400_DESR_NO3_W_RUSTY_WALLACE_VICTORY_LANE_SE006222                                    V     C        14:31:57:04 14:31:59:27 00:58:24:09 00:58:27:03 
M2      ERN_F2378_NSCR_2000-08-22_RACE_B-ROLL_PEPSI_400_DESR_NO3_W_RUSTY_WALLACE_VICTORY_LANE_SE006222                                             030.0 14:31:57:04 
*FROM CLIP NAME:  ERN_F2378_NSCR_2000-08-22_RACE B-ROLL PEPSI 400 DESR NO3 W RUSTY WALLACE VICTORY LANE_SE006222.NEW.01 
*SOURCE FILE: ERN_F2378_NSCR_2000-08-22_RACE B-ROLL PEPSI 400 DESR NO3 W RUSTY WALLACE VICTORY LANE_SE006222
002515  ERN_F1083_NSCR_2001-02-18_1_OF_3_RACE_DAYTONA_500_BROADCAST_DESR_DEADLY_CRASH_01-EV-0111_TAPE_1                                   V     C        10:08:12:28 10:08:15:14 00:58:27:03 00:58:29:15 
M2      ERN_F1083_NSCR_2001-02-18_1_OF_3_RACE_DAYTONA_500_BROADCAST_DESR_DEADLY_CRASH_01-EV-0111_TAPE_1                                            030.0 10:08:12:28 
*FROM CLIP NAME:  ERN_F1083_NSCR_2001-02-18_1 OF 3 RACE DAYTONA 500 BROADCAST DESR DEADLY CRASH_01-EV-0111_TAPE_1.NEW.01 
*SOURCE FILE: ERN_F1083_NSCR_2001-02-18_1 OF 3 RACE DAYTONA 500 BROADCAST DESR DEADLY CRASH_01-EV-0111_TAPE_1
002516  ERN_F1083_NSCR_2001-02-18_1_OF_3_RACE_DAYTONA_500_BROADCAST_DESR_DEADLY_CRASH_01-EV-0111_TAPE_1                                   A18   C        09:56:20:18 09:56:20:25 00:58:27:14 00:58:27:19 
M2      ERN_F1083_NSCR_2001-02-18_1_OF_3_RACE_DAYTONA_500_BROADCAST_DESR_DEADLY_CRASH_01-EV-0111_TAPE_1                                            030.0 09:56:20:18 
*FROM CLIP NAME:  ERN_F1083_NSCR_2001-02-18_1 OF 3 RACE DAYTONA 500 BROADCAST DESR DEADLY CRASH_01-EV-0111_TAPE_1.NEW.01 
*SOURCE FILE: ERN_F1083_NSCR_2001-02-18_1 OF 3 RACE DAYTONA 500 BROADCAST DESR DEADLY CRASH_01-EV-0111_TAPE_1
002517  ERN_F1083_NSCR_2001-02-18_1_OF_3_RACE_DAYTONA_500_BROADCAST_DESR_DEADLY_CRASH_01-EV-0111_TAPE_1                                   A18   C        09:56:20:24 09:56:22:22 00:58:27:19 00:58:29:17 
M2      ERN_F1083_NSCR_2001-02-18_1_OF_3_RACE_DAYTONA_500_BROADCAST_DESR_DEADLY_CRASH_01-EV-0111_TAPE_1                                            030.0 09:56:20:24 
*FROM CLIP NAME:  ERN_F1083_NSCR_2001-02-18_1 OF 3 RACE DAYTONA 500 BROADCAST DESR DEADLY CRASH_01-EV-0111_TAPE_1.NEW.01 
*SOURCE FILE: ERN_F1083_NSCR_2001-02-18_1 OF 3 RACE DAYTONA 500 BROADCAST DESR DEADLY CRASH_01-EV-0111_TAPE_1
002518  ERN_F0212_NSCR_1990-06-23_CAR_POV_DALE_EARNHARDT_MILLER_400_SE000386                                                              V     C        00:13:11:27 00:13:14:04 00:58:29:15 00:58:31:20 
M2      ERN_F0212_NSCR_1990-06-23_CAR_POV_DALE_EARNHARDT_MILLER_400_SE000386                                                                       030.0 00:13:11:27 
*FROM CLIP NAME:  ERN_F0212_NSCR_1990-06-23_CAR POV DALE EARNHARDT MILLER 400_SE000386.NEW.01 
*SOURCE FILE: ERN_F0212_NSCR_1990-06-23_CAR POV DALE EARNHARDT MILLER 400_SE000386
002519  ERN_F1083_NSCR_2001-02-18_1_OF_3_RACE_DAYTONA_500_BROADCAST_DESR_DEADLY_CRASH_01-EV-0111_TAPE_1                                   A18   C        09:56:22:24 09:56:23:07 00:58:29:17 00:58:30:03 
M2      ERN_F1083_NSCR_2001-02-18_1_OF_3_RACE_DAYTONA_500_BROADCAST_DESR_DEADLY_CRASH_01-EV-0111_TAPE_1                                            030.0 09:56:22:24 
*FROM CLIP NAME:  ERN_F1083_NSCR_2001-02-18_1 OF 3 RACE DAYTONA 500 BROADCAST DESR DEADLY CRASH_01-EV-0111_TAPE_1.NEW.01 
*SOURCE FILE: ERN_F1083_NSCR_2001-02-18_1 OF 3 RACE DAYTONA 500 BROADCAST DESR DEADLY CRASH_01-EV-0111_TAPE_1
002520  ERN_F1083_NSCR_2001-02-18_1_OF_3_RACE_DAYTONA_500_BROADCAST_DESR_DEADLY_CRASH_01-EV-0111_TAPE_1                                   A18   C        09:56:23:14 09:56:25:03 00:58:30:03 00:58:31:18 
M2      ERN_F1083_NSCR_2001-02-18_1_OF_3_RACE_DAYTONA_500_BROADCAST_DESR_DEADLY_CRASH_01-EV-0111_TAPE_1                                            030.0 09:56:23:14 
*FROM CLIP NAME:  ERN_F1083_NSCR_2001-02-18_1 OF 3 RACE DAYTONA 500 BROADCAST DESR DEADLY CRASH_01-EV-0111_TAPE_1.NEW.01 
*SOURCE FILE: ERN_F1083_NSCR_2001-02-18_1 OF 3 RACE DAYTONA 500 BROADCAST DESR DEADLY CRASH_01-EV-0111_TAPE_1
002521  ERN_F1083_NSCR_2001-02-18_1_OF_3_RACE_DAYTONA_500_BROADCAST_DESR_DEADLY_CRASH_01-EV-0111_TAPE_1                                   A18   C        09:56:25:00 09:56:27:15 00:58:31:18 00:58:34:05 
M2      ERN_F1083_NSCR_2001-02-18_1_OF_3_RACE_DAYTONA_500_BROADCAST_DESR_DEADLY_CRASH_01-EV-0111_TAPE_1                                            030.0 09:56:25:00 
*FROM CLIP NAME:  ERN_F1083_NSCR_2001-02-18_1 OF 3 RACE DAYTONA 500 BROADCAST DESR DEADLY CRASH_01-EV-0111_TAPE_1.NEW.01 
*SOURCE FILE: ERN_F1083_NSCR_2001-02-18_1 OF 3 RACE DAYTONA 500 BROADCAST DESR DEADLY CRASH_01-EV-0111_TAPE_1
002522  ERN_F0429_NSCR_1998-02-15_RACE_PART_3_DALE_EARNHARDT_WINS_DAYTONA_500_98-EV-0099                                                  V     C        03:08:41:09 03:08:44:01 00:58:31:20 00:58:34:13 
M2      ERN_F0429_NSCR_1998-02-15_RACE_PART_3_DALE_EARNHARDT_WINS_DAYTONA_500_98-EV-0099                                                           030.0 03:08:41:09 
*FROM CLIP NAME:  ERN_F0429_NSCR_1998-02-15_RACE PART 3 DALE EARNHARDT WINS DAYTONA 500_98-EV-0099.NEW.02 
*SOURCE FILE: ERN_F0429_NSCR_1998-02-15_RACE PART 3 DALE EARNHARDT WINS DAYTONA 500_98-EV-0099
002523  ERN_F0429_NSCR_1998-02-15_RACE_PART_3_DALE_EARNHARDT_WINS_DAYTONA_500_98-EV-0099                                                  A20   C        03:10:50:07 03:10:50:13 00:58:34:12 00:58:34:16 
M2      ERN_F0429_NSCR_1998-02-15_RACE_PART_3_DALE_EARNHARDT_WINS_DAYTONA_500_98-EV-0099                                                           030.0 03:10:50:07 
*FROM CLIP NAME:  ERN_F0429_NSCR_1998-02-15_RACE PART 3 DALE EARNHARDT WINS DAYTONA 500_98-EV-0099.NEW.02 
*SOURCE FILE: ERN_F0429_NSCR_1998-02-15_RACE PART 3 DALE EARNHARDT WINS DAYTONA 500_98-EV-0099
002524  ERN_F0429_NSCR_1998-02-15_RACE_PART_3_DALE_EARNHARDT_WINS_DAYTONA_500_98-EV-0099                                                  V     C        03:09:39:28 03:09:40:27 00:58:34:13 00:58:35:11 
M2      ERN_F0429_NSCR_1998-02-15_RACE_PART_3_DALE_EARNHARDT_WINS_DAYTONA_500_98-EV-0099                                                           030.0 03:09:39:28 
*FROM CLIP NAME:  ERN_F0429_NSCR_1998-02-15_RACE PART 3 DALE EARNHARDT WINS DAYTONA 500_98-EV-0099.NEW.02 
*SOURCE FILE: ERN_F0429_NSCR_1998-02-15_RACE PART 3 DALE EARNHARDT WINS DAYTONA 500_98-EV-0099
002525  ERN_F0429_NSCR_1998-02-15_RACE_PART_3_DALE_EARNHARDT_WINS_DAYTONA_500_98-EV-0099                                                  A20   C        03:10:50:12 03:10:52:14 00:58:34:16 00:58:36:17 
M2      ERN_F0429_NSCR_1998-02-15_RACE_PART_3_DALE_EARNHARDT_WINS_DAYTONA_500_98-EV-0099                                                           030.0 03:10:50:12 
*FROM CLIP NAME:  ERN_F0429_NSCR_1998-02-15_RACE PART 3 DALE EARNHARDT WINS DAYTONA 500_98-EV-0099.NEW.02 
*SOURCE FILE: ERN_F0429_NSCR_1998-02-15_RACE PART 3 DALE EARNHARDT WINS DAYTONA 500_98-EV-0099
002526  ERN_F0429_NSCR_1998-02-15_RACE_PART_3_DALE_EARNHARDT_WINS_DAYTONA_500_98-EV-0099                                                  V     C        03:16:29:00 03:16:30:07 00:58:35:11 00:58:36:16 
M2      ERN_F0429_NSCR_1998-02-15_RACE_PART_3_DALE_EARNHARDT_WINS_DAYTONA_500_98-EV-0099                                                           030.0 03:16:29:00 
*FROM CLIP NAME:  ERN_F0429_NSCR_1998-02-15_RACE PART 3 DALE EARNHARDT WINS DAYTONA 500_98-EV-0099.NEW.02 
*SOURCE FILE: ERN_F0429_NSCR_1998-02-15_RACE PART 3 DALE EARNHARDT WINS DAYTONA 500_98-EV-0099
002527  ERN_F1083_NSCR_2001-02-18_1_OF_3_RACE_DAYTONA_500_BROADCAST_DESR_DEADLY_CRASH_01-EV-0111_TAPE_1                                   A18   C        09:56:28:21 09:56:28:25 00:58:35:17 00:58:35:19 
M2      ERN_F1083_NSCR_2001-02-18_1_OF_3_RACE_DAYTONA_500_BROADCAST_DESR_DEADLY_CRASH_01-EV-0111_TAPE_1                                            030.0 09:56:28:21 
*FROM CLIP NAME:  ERN_F1083_NSCR_2001-02-18_1 OF 3 RACE DAYTONA 500 BROADCAST DESR DEADLY CRASH_01-EV-0111_TAPE_1.NEW.01 
*SOURCE FILE: ERN_F1083_NSCR_2001-02-18_1 OF 3 RACE DAYTONA 500 BROADCAST DESR DEADLY CRASH_01-EV-0111_TAPE_1
002528  ERN_F1083_NSCR_2001-02-18_1_OF_3_RACE_DAYTONA_500_BROADCAST_DESR_DEADLY_CRASH_01-EV-0111_TAPE_1                                   A18   C        09:56:28:24 09:56:30:12 00:58:35:19 00:58:37:09 
M2      ERN_F1083_NSCR_2001-02-18_1_OF_3_RACE_DAYTONA_500_BROADCAST_DESR_DEADLY_CRASH_01-EV-0111_TAPE_1                                            030.0 09:56:28:24 
*FROM CLIP NAME:  ERN_F1083_NSCR_2001-02-18_1 OF 3 RACE DAYTONA 500 BROADCAST DESR DEADLY CRASH_01-EV-0111_TAPE_1.NEW.01 
*SOURCE FILE: ERN_F1083_NSCR_2001-02-18_1 OF 3 RACE DAYTONA 500 BROADCAST DESR DEADLY CRASH_01-EV-0111_TAPE_1
002529  ERN_F5264_NSCR_1997-02-16_DAYTONA_500-RACE_BROADCAST_DESR_NO3_GOODWRENCH_97-EV-0087                                               V     C        03:38:58:17 03:39:01:29 00:58:36:16 00:58:38:09 
M2      ERN_F5264_NSCR_1997-02-16_DAYTONA_500-RACE_BROADCAST_DESR_NO3_GOODWRENCH_97-EV-0087                                                        060.0 03:38:58:17 
*FROM CLIP NAME:  ERN_F5264_NSCR_1997-02-16_DAYTONA 500-RACE BROADCAST DESR NO3 GOODWRENCH_97-EV-0087.NEW.01 
*SOURCE FILE: ERN_F5264_NSCR_1997-02-16_DAYTONA 500-RACE BROADCAST DESR NO3 GOODWRENCH_97-EV-0087
002530  ERN_F5264_NSCR_1997-02-16_DAYTONA_500-RACE_BROADCAST_DESR_NO3_GOODWRENCH_97-EV-0087                                               V     C        03:39:18:11 03:39:19:09 00:58:38:09 00:58:39:07 
M2      ERN_F5264_NSCR_1997-02-16_DAYTONA_500-RACE_BROADCAST_DESR_NO3_GOODWRENCH_97-EV-0087                                                        030.0 03:39:18:11 
*FROM CLIP NAME:  ERN_F5264_NSCR_1997-02-16_DAYTONA 500-RACE BROADCAST DESR NO3 GOODWRENCH_97-EV-0087.NEW.01 
*SOURCE FILE: ERN_F5264_NSCR_1997-02-16_DAYTONA 500-RACE BROADCAST DESR NO3 GOODWRENCH_97-EV-0087
002531  ERN_F2211_NSCR_1996-07-28_TALLADEGA-DIEHARD_501_RACE_B-ROLL_RICHARD_CHILDRESS_INTV_DESR_CRASH_NO3_JEFF_GORDON_WINNER_DESR_INTV_IS A20   C        03:24:07:25 03:24:08:14 00:58:38:10 00:58:39:01 
M2      ERN_F2211_NSCR_1996-07-28_TALLADEGA-DIEHARD_501_RACE_B-ROLL_RICHARD_CHILDRESS_INTV_DESR_CRASH_NO3_JEFF_GORDON_WINNER_DESR_INTV_IS          030.0 03:24:07:25 
*FROM CLIP NAME:  ERN_F2211_NSCR_1996-07-28_TALLADEGA-DIEHARD 501 RACE B-ROLL RICHARD CHILDRESS INTV DESR CRASH NO3 JEFF GORDON WINNER DESR INTV_ISC-00961.NEW.01 
*SOURCE FILE: ERN_F2211_NSCR_1996-07-28_TALLADEGA-DIEHARD 501 RACE B-ROLL RICHARD CHILDRESS INTV DESR CRASH NO3 JEFF GORDON WINNER DESR INTV_ISC-00961
002532  ERN_F2211_NSCR_1996-07-28_TALLADEGA-DIEHARD_501_RACE_B-ROLL_RICHARD_CHILDRESS_INTV_DESR_CRASH_NO3_JEFF_GORDON_WINNER_DESR_INTV_IS A20   C        03:24:07:10 03:24:07:26 00:58:39:01 00:58:39:13 
M2      ERN_F2211_NSCR_1996-07-28_TALLADEGA-DIEHARD_501_RACE_B-ROLL_RICHARD_CHILDRESS_INTV_DESR_CRASH_NO3_JEFF_GORDON_WINNER_DESR_INTV_IS          030.0 03:24:07:10 
*FROM CLIP NAME:  ERN_F2211_NSCR_1996-07-28_TALLADEGA-DIEHARD 501 RACE B-ROLL RICHARD CHILDRESS INTV DESR CRASH NO3 JEFF GORDON WINNER DESR INTV_ISC-00961.NEW.01 
*TO CLIP NAME:  ERN_F2211_NSCR_1996-07-28_TALLADEGA-DIEHARD 501 RACE B-ROLL RICHARD CHILDRESS INTV DESR CRASH NO3 JEFF GORDON WINNER DESR INTV_ISC-00961.NEW.01 
*SOURCE FILE: ERN_F2211_NSCR_1996-07-28_TALLADEGA-DIEHARD 501 RACE B-ROLL RICHARD CHILDRESS INTV DESR CRASH NO3 JEFF GORDON WINNER DESR INTV_ISC-00961
002533  ERN_F5264_NSCR_1997-02-16_DAYTONA_500-RACE_BROADCAST_DESR_NO3_GOODWRENCH_97-EV-0087                                               V     C        03:38:27:23 03:38:30:23 00:58:39:07 00:58:40:19 
M2      ERN_F5264_NSCR_1997-02-16_DAYTONA_500-RACE_BROADCAST_DESR_NO3_GOODWRENCH_97-EV-0087                                                        060.0 03:38:27:23 
*FROM CLIP NAME:  ERN_F5264_NSCR_1997-02-16_DAYTONA 500-RACE BROADCAST DESR NO3 GOODWRENCH_97-EV-0087.NEW.01 
*SOURCE FILE: ERN_F5264_NSCR_1997-02-16_DAYTONA 500-RACE BROADCAST DESR NO3 GOODWRENCH_97-EV-0087
002534  ERN_F2211_NSCR_1996-07-28_TALLADEGA-DIEHARD_501_RACE_B-ROLL_RICHARD_CHILDRESS_INTV_DESR_CRASH_NO3_JEFF_GORDON_WINNER_DESR_INTV_IS A20   C        03:24:07:25 03:24:08:29 00:58:39:13 00:58:40:16 
M2      ERN_F2211_NSCR_1996-07-28_TALLADEGA-DIEHARD_501_RACE_B-ROLL_RICHARD_CHILDRESS_INTV_DESR_CRASH_NO3_JEFF_GORDON_WINNER_DESR_INTV_IS          030.0 03:24:07:25 
*FROM CLIP NAME:  ERN_F2211_NSCR_1996-07-28_TALLADEGA-DIEHARD 501 RACE B-ROLL RICHARD CHILDRESS INTV DESR CRASH NO3 JEFF GORDON WINNER DESR INTV_ISC-00961.NEW.01 
*SOURCE FILE: ERN_F2211_NSCR_1996-07-28_TALLADEGA-DIEHARD 501 RACE B-ROLL RICHARD CHILDRESS INTV DESR CRASH NO3 JEFF GORDON WINNER DESR INTV_ISC-00961
002535  ERN_F2211_NSCR_1996-07-28_TALLADEGA-DIEHARD_501_RACE_B-ROLL_RICHARD_CHILDRESS_INTV_DESR_CRASH_NO3_JEFF_GORDON_WINNER_DESR_INTV_IS A20   C        03:24:10:12 03:24:10:21 00:58:40:16 00:58:40:22 
M2      ERN_F2211_NSCR_1996-07-28_TALLADEGA-DIEHARD_501_RACE_B-ROLL_RICHARD_CHILDRESS_INTV_DESR_CRASH_NO3_JEFF_GORDON_WINNER_DESR_INTV_IS          030.0 03:24:10:12 
*FROM CLIP NAME:  ERN_F2211_NSCR_1996-07-28_TALLADEGA-DIEHARD 501 RACE B-ROLL RICHARD CHILDRESS INTV DESR CRASH NO3 JEFF GORDON WINNER DESR INTV_ISC-00961.NEW.01 
*TO CLIP NAME:  ERN_F2211_NSCR_1996-07-28_TALLADEGA-DIEHARD 501 RACE B-ROLL RICHARD CHILDRESS INTV DESR CRASH NO3 JEFF GORDON WINNER DESR INTV_ISC-00961.NEW.01 
*SOURCE FILE: ERN_F2211_NSCR_1996-07-28_TALLADEGA-DIEHARD 501 RACE B-ROLL RICHARD CHILDRESS INTV DESR CRASH NO3 JEFF GORDON WINNER DESR INTV_ISC-00961
002536  ERN_F2211_NSCR_1996-07-28_TALLADEGA-DIEHARD_501_RACE_B-ROLL_RICHARD_CHILDRESS_INTV_DESR_CRASH_NO3_JEFF_GORDON_WINNER_DESR_INTV_IS V     C        03:24:08:27 03:24:09:22 00:58:40:19 00:58:41:14 
M2      ERN_F2211_NSCR_1996-07-28_TALLADEGA-DIEHARD_501_RACE_B-ROLL_RICHARD_CHILDRESS_INTV_DESR_CRASH_NO3_JEFF_GORDON_WINNER_DESR_INTV_IS          030.0 03:24:08:27 
*FROM CLIP NAME:  ERN_F2211_NSCR_1996-07-28_TALLADEGA-DIEHARD 501 RACE B-ROLL RICHARD CHILDRESS INTV DESR CRASH NO3 JEFF GORDON WINNER DESR INTV_ISC-00961.NEW.01 
*SOURCE FILE: ERN_F2211_NSCR_1996-07-28_TALLADEGA-DIEHARD 501 RACE B-ROLL RICHARD CHILDRESS INTV DESR CRASH NO3 JEFF GORDON WINNER DESR INTV_ISC-00961
002537  ERN_F2211_NSCR_1996-07-28_TALLADEGA-DIEHARD_501_RACE_B-ROLL_RICHARD_CHILDRESS_INTV_DESR_CRASH_NO3_JEFF_GORDON_WINNER_DESR_INTV_IS A20   C        03:24:10:20 03:24:11:11 00:58:40:22 00:58:41:14 
M2      ERN_F2211_NSCR_1996-07-28_TALLADEGA-DIEHARD_501_RACE_B-ROLL_RICHARD_CHILDRESS_INTV_DESR_CRASH_NO3_JEFF_GORDON_WINNER_DESR_INTV_IS          030.0 03:24:10:20 
*FROM CLIP NAME:  ERN_F2211_NSCR_1996-07-28_TALLADEGA-DIEHARD 501 RACE B-ROLL RICHARD CHILDRESS INTV DESR CRASH NO3 JEFF GORDON WINNER DESR INTV_ISC-00961.NEW.01 
*SOURCE FILE: ERN_F2211_NSCR_1996-07-28_TALLADEGA-DIEHARD 501 RACE B-ROLL RICHARD CHILDRESS INTV DESR CRASH NO3 JEFF GORDON WINNER DESR INTV_ISC-00961